<?xml version="1.0" encoding="utf-8"?>
<!-- Generator: Adobe Illustrator 16.0.0, SVG Export Plug-In . SVG Version: 6.00 Build 0)  -->
<!DOCTYPE svg PUBLIC "-//W3C//DTD SVG 1.1//EN" "http://www.w3.org/Graphics/SVG/1.1/DTD/svg11.dtd">
<svg version="1.1" id="Layer_1" xmlns="http://www.w3.org/2000/svg" xmlns:xlink="http://www.w3.org/1999/xlink" x="0px" y="0px"
	 width="30px" height="30px" viewBox="0 0 30 30" enable-background="new 0 0 30 30" xml:space="preserve">
<path fill="#FFFFFF" d="M21.438,20.951c0.311-0.311,0.311-0.815,0-1.126l-5.068-5.068l5.068-5.068c0.311-0.31,0.311-0.815,0-1.126
	s-0.815-0.311-1.127,0l-5.067,5.068l-5.068-5.068c-0.311-0.311-0.815-0.311-1.126,0c-0.311,0.31-0.311,0.815,0,1.126l5.068,5.068
	l-5.068,5.068c-0.311,0.311-0.311,0.815,0,1.126c0.31,0.311,0.815,0.311,1.126,0l5.068-5.068l5.067,5.068
	C20.622,21.262,21.126,21.262,21.438,20.951z"/>
</svg>
