<?xml version="1.0" encoding="utf-8"?>
<!-- Generator: Adobe Illustrator 23.0.1, SVG Export Plug-In . SVG Version: 6.00 Build 0)  -->
<svg version="1.1" id="Layer_1" xmlns="http://www.w3.org/2000/svg" xmlns:xlink="http://www.w3.org/1999/xlink" x="0px" y="0px"
	 viewBox="0 0 100 66" style="enable-background:new 0 0 100 66;" xml:space="preserve">
<style type="text/css">
	.st0{fill:#5D8430;}
	.st1{fill:#4E6B28;}
	.st2{fill:#BF7A47;}
	.st3{fill:#FAD44C;}
	.st4{fill:#F5B142;}
	.st5{opacity:0.6;}
	.st6{fill:#E9E9E9;}
	.st7{fill:#FFFFFF;}
</style>
<g>
	<g>
		<path class="st0" d="M67.1,6.3l2.1,4.2c0,0,2.2,13.7-8.3,19.7l-2,3.1l3.9-1.7c0,0,16-6.5,9.6-19l-2.5-3.2l-2.2-3.5
			C67.6,6,67.4,6.2,67.1,6.3L67.1,6.3z"/>
		<path class="st1" d="M61.5,30.5c0,0,16-6.5,9.6-19l-2.5-3.2l-1.3-2c0.2-0.1,0.3-0.2,0.5-0.3l2.2,3.5l2.5,3.2
			c6.4,12.5-9.6,19-9.6,19L59,33.3l1.6-2.4L61.5,30.5z"/>
		<path class="st2" d="M64.4,8.4c0.2,0.2,0.5,0.2,0.7,0c0.4-0.4,0.8-0.7,1.3-1c0.2-0.1,0.3-0.2,0.5-0.3c0.1-0.1,0.3-0.2,0.4-0.2
			c0.2-0.1,0.5-0.3,0.7-0.4c1.2-0.6,2.5-1.2,3.8-1.7c0.3-0.1,0.5-0.4,0.4-0.7c-0.1-0.3-0.4-0.4-0.7-0.3c-1.3,0.5-2.6,1.1-3.9,1.7
			c-0.3,0.1-0.5,0.3-0.8,0.4c-0.2,0.1-0.3,0.2-0.4,0.3c-0.2,0.1-0.4,0.2-0.5,0.3c-0.5,0.3-1,0.7-1.5,1.1C64.2,7.8,64.2,8.1,64.4,8.4
			C64.4,8.4,64.4,8.4,64.4,8.4L64.4,8.4z"/>
		<path class="st3" d="M31.9,20.7c2.6-6.2,6.1-12,11.8-16.2c3.8-2.9,9.9-4.4,14.3-2.5l0,0c0,0,2.4,1.1,4.3,2.9
			c1.9,1.8,3.3,4.3,3.5,4.6c2.9,5.8-0.1,15.1-7.7,20.6c-9.2,6.7-18.7,7-24.6,4.1c-4.3-2.1-8-6.6-7.3-8.7
			C26.8,22.9,29.7,25.9,31.9,20.7L31.9,20.7z"/>
		<path class="st0" d="M57.9,2c-4.7,0.7-7.7,6.6-7.7,6.6l-1.3,2.5L51,10c3.6-5.3,9.7-4.8,12-4.4c0.6,0.1,0.9,0.2,0.9,0.2l2.2,1.1
			c0.2-0.1,0.3-0.2,0.5-0.3l-1.8-1.5L63,3.3C61.2,2.1,59.5,1.7,57.9,2z"/>
		<path class="st1" d="M57.9,2c1.5-0.2,3.2,0.1,5,1.3l0.5,0.5c-1.7-1-3.2-1.2-4.6-1c-4.7,0.7-7.7,6.6-7.7,6.6l-0.4,0.7l-1.9,1
			l1.3-2.5C50.3,8.6,53.2,2.7,57.9,2L57.9,2z"/>
		<path class="st4" d="M31.7,21c5.4,3,13.8,3.7,22.9-0.9c5.2-2.6,9-7,10.6-11.5c0.2,0.3,0.3,0.6,0.5,0.9c2.9,5.8-0.1,15.1-7.7,20.6
			c-9.2,6.7-18.7,7-24.6,4.1c-4.3-2.1-8-6.6-7.3-8.7C26.8,23,29.6,25.8,31.7,21L31.7,21z"/>
		<g class="st5">
			<path class="st6" d="M50.3,31.6c0.1,0.1,0.4,0.2,0.5,0.1c0.6-0.3,1.2-0.5,1.8-0.8c1.1-0.6,2.3-1.2,3.3-1.9
				c1.1-0.7,2.2-1.6,3.3-2.4c0.2-0.2,0.3-0.6,0.1-0.8s-0.5-0.3-0.8-0.1c-1,0.8-2.1,1.6-3.2,2.3c-1,0.7-2.1,1.3-3.2,1.8
				c-0.6,0.3-1.2,0.5-1.7,0.8c-0.3,0.1-0.5,0.5-0.4,0.7C50.2,31.4,50.3,31.5,50.3,31.6L50.3,31.6z"/>
		</g>
		<g class="st5">
			<path class="st6" d="M45.1,33.1c0.1,0.1,0.3,0.1,0.4,0.1c0.8-0.1,1.5-0.3,2.3-0.5c0.3-0.1,0.5-0.4,0.4-0.7
				c-0.1-0.3-0.4-0.5-0.7-0.4c0,0,0,0,0,0c-0.7,0.2-1.5,0.4-2.2,0.5c-0.3,0.1-0.5,0.4-0.5,0.7C45,32.9,45,33,45.1,33.1L45.1,33.1z"
				/>
		</g>
	</g>
	<g>
		<path class="st7" d="M1.4,44.7c0.4-0.1,0.8-0.2,1.3-0.2c0.4-0.1,0.9-0.1,1.3-0.2c0.4-0.1,0.9-0.1,1.3-0.1s0.9-0.1,1.3-0.1
			c0.6,0,1.2,0,1.8,0.1c0.6,0.1,1.1,0.2,1.6,0.4c0.5,0.2,1,0.4,1.4,0.7c0.4,0.3,0.8,0.7,1.1,1.1s0.5,1,0.7,1.6
			c0.2,0.6,0.3,1.3,0.3,2.1c0,0.7-0.1,1.4-0.2,2.1s-0.4,1.3-0.6,1.9s-0.6,1.1-1,1.6c-0.4,0.5-0.9,0.9-1.4,1.2
			c-0.5,0.3-1.1,0.6-1.7,0.8S7.3,58,6.6,58c-0.4,0-0.7,0-1.1-0.1c-0.4-0.1-0.8-0.1-1.2-0.2l-1.2,0.1l-0.1,0c0-0.3,0.1-0.6,0.1-1
			c0-0.4,0.1-0.9,0.1-1.4c0-0.5,0.1-1.2,0.1-1.8s0.1-1.4,0.1-2.2c0-0.8,0-1.6,0.1-2.4c0-0.9,0-1.8,0-2.7c0-0.2,0-0.4,0-0.5
			c0-0.1-0.1-0.3-0.1-0.4c-0.1-0.1-0.2-0.2-0.3-0.2c-0.1,0-0.3-0.1-0.5-0.1c-0.3,0-0.6,0-1,0.1L1.4,44.7z M4.9,44.9
			c0,0.2,0,0.5,0,0.9c0,0.4,0,0.8,0,1.4c0,0.5,0,1.1,0,1.7s0,1.2-0.1,1.9c0,0.6,0,1.3-0.1,1.9s0,1.2-0.1,1.8c0,0.6,0,1.1-0.1,1.5
			c0,0.5,0,0.8-0.1,1.1c0.4,0.1,0.7,0.2,1.1,0.2s0.6,0,1,0c0.7,0,1.2-0.1,1.8-0.2c0.5-0.2,1-0.4,1.4-0.7c0.4-0.3,0.7-0.6,1-1.1
			c0.3-0.4,0.5-0.9,0.7-1.3c0.2-0.5,0.3-1,0.4-1.6c0.1-0.5,0.1-1.1,0.1-1.7c0-0.9-0.1-1.7-0.3-2.4c-0.2-0.7-0.5-1.3-0.9-1.9
			c-0.4-0.5-1-0.9-1.7-1.2c-0.7-0.3-1.5-0.4-2.5-0.4c-0.2,0-0.5,0-0.7,0C5.4,44.9,5.2,44.9,4.9,44.9z"/>
		<path class="st7" d="M21,55.9C21,55.9,21,56,21,55.9c0.1,0.1,0.2,0.1,0.2,0.1s0.1,0.1,0.1,0.1s0,0.1,0,0.1c0,0,0,0,0,0
			c-0.2,0.3-0.5,0.6-0.7,0.8c-0.3,0.2-0.5,0.4-0.8,0.6c-0.3,0.2-0.5,0.3-0.8,0.3c-0.3,0.1-0.6,0.1-0.8,0.1c-0.5,0-0.9-0.1-1.3-0.3
			c-0.4-0.2-0.7-0.5-1-0.8c-0.3-0.3-0.5-0.7-0.7-1.2s-0.2-0.9-0.2-1.4c0-0.4,0-0.8,0.1-1.3c0.1-0.4,0.2-0.8,0.4-1.2s0.4-0.7,0.6-1.1
			c0.3-0.3,0.5-0.6,0.9-0.9c0.3-0.2,0.7-0.4,1.1-0.6c0.4-0.1,0.8-0.2,1.2-0.2c0.3,0,0.6,0,0.8,0.1c0.3,0.1,0.5,0.2,0.7,0.3
			c0.2,0.1,0.4,0.3,0.5,0.5c0.1,0.2,0.2,0.5,0.2,0.7c0,0.4-0.1,0.7-0.4,1s-0.6,0.6-1.1,0.8c-0.5,0.2-1,0.4-1.6,0.5s-1.3,0.2-2,0.3
			v0.1c0,0.5,0.1,1,0.2,1.4c0.1,0.4,0.3,0.8,0.5,1.1s0.5,0.5,0.8,0.7s0.6,0.2,1,0.2c0.4,0,0.7-0.1,1.1-0.3S20.6,56.3,21,55.9z
			 M19.9,51.2c0-0.2,0-0.3-0.1-0.5c-0.1-0.2-0.1-0.3-0.3-0.4c-0.1-0.1-0.2-0.2-0.4-0.3c-0.1-0.1-0.3-0.1-0.5-0.1
			c-0.3,0-0.5,0-0.7,0.1c-0.2,0.1-0.4,0.2-0.6,0.4S17.1,50.8,17,51c-0.1,0.2-0.2,0.4-0.3,0.7c-0.1,0.2-0.2,0.5-0.2,0.7
			c-0.1,0.2-0.1,0.5-0.1,0.7c0.6,0,1.1-0.1,1.5-0.2c0.4-0.1,0.8-0.2,1.1-0.4c0.3-0.2,0.5-0.3,0.7-0.5C19.8,51.7,19.9,51.5,19.9,51.2
			z"/>
		<path class="st7" d="M23.3,55.6c0,0.3,0.1,0.6,0.2,0.8c0.1,0.2,0.3,0.4,0.5,0.5c0.2,0.1,0.4,0.2,0.6,0.3c0.2,0.1,0.5,0.1,0.7,0.1
			c0.2,0,0.4,0,0.6-0.1c0.2-0.1,0.4-0.1,0.5-0.3c0.2-0.1,0.3-0.2,0.4-0.4c0.1-0.2,0.1-0.3,0.1-0.5c0-0.2,0-0.4-0.1-0.5
			c-0.1-0.2-0.2-0.3-0.4-0.4c-0.2-0.1-0.4-0.2-0.6-0.4c-0.2-0.1-0.4-0.2-0.7-0.3c-0.2-0.1-0.4-0.2-0.6-0.3c-0.2-0.1-0.4-0.2-0.6-0.3
			c-0.2-0.1-0.4-0.2-0.5-0.4c-0.2-0.1-0.3-0.3-0.4-0.5c-0.1-0.2-0.2-0.4-0.3-0.6c-0.1-0.2-0.1-0.4-0.1-0.7c0-0.3,0-0.5,0.1-0.7
			c0.1-0.2,0.2-0.4,0.4-0.6c0.2-0.2,0.4-0.3,0.6-0.5c0.2-0.1,0.4-0.3,0.7-0.3c0.2-0.1,0.5-0.2,0.7-0.2c0.3,0,0.5-0.1,0.7-0.1
			c0.3,0,0.6,0,0.9,0.1c0.3,0.1,0.5,0.2,0.7,0.3c0.2,0.1,0.4,0.3,0.5,0.5c0.1,0.2,0.2,0.4,0.2,0.6c0,0.1,0,0.2,0,0.3
			s-0.1,0.2-0.2,0.3c-0.1,0.1-0.2,0.2-0.3,0.2c-0.1,0.1-0.3,0.1-0.4,0.1c-0.2,0-0.3,0-0.5-0.1l0-0.1c0.1-0.1,0.1-0.2,0.1-0.3
			s0-0.2,0-0.3c0-0.2,0-0.3-0.1-0.5c-0.1-0.1-0.2-0.2-0.3-0.3C26.2,50,26.1,50,25.9,50s-0.3-0.1-0.5-0.1c-0.3,0-0.5,0-0.7,0.1
			c-0.2,0.1-0.4,0.2-0.6,0.3c-0.2,0.1-0.3,0.3-0.3,0.4s-0.1,0.3-0.1,0.5c0,0.2,0.1,0.4,0.2,0.6c0.1,0.2,0.3,0.3,0.5,0.5
			c0.2,0.1,0.4,0.3,0.6,0.4c0.2,0.1,0.5,0.3,0.8,0.4c0.3,0.1,0.6,0.3,0.9,0.4c0.3,0.2,0.6,0.3,0.8,0.5c0.2,0.2,0.4,0.4,0.6,0.7
			c0.1,0.2,0.2,0.5,0.2,0.9c0,0.4-0.1,0.8-0.3,1.1s-0.4,0.6-0.7,0.8s-0.6,0.4-1,0.5c-0.4,0.1-0.8,0.2-1.2,0.2c-0.2,0-0.4,0-0.6,0
			c-0.2,0-0.4-0.1-0.6-0.1c-0.2-0.1-0.4-0.1-0.6-0.2c-0.2-0.1-0.3-0.2-0.5-0.3c-0.1-0.1-0.2-0.3-0.3-0.4c-0.1-0.1-0.1-0.3-0.1-0.5
			c0-0.2,0-0.3,0.1-0.4c0.1-0.1,0.1-0.2,0.3-0.3s0.2-0.1,0.4-0.2C23,55.6,23.1,55.6,23.3,55.6L23.3,55.6z"/>
		<path class="st7" d="M31.2,54.6c0.3-1,0.6-1.8,1-2.5c0.3-0.7,0.7-1.2,1-1.7s0.7-0.7,1-0.9s0.7-0.3,1-0.3c0.2,0,0.4,0,0.6,0.1
			s0.4,0.2,0.5,0.4s0.3,0.4,0.4,0.7s0.1,0.6,0.1,1c0,0.1,0,0.3,0,0.5c0,0.2,0,0.4-0.1,0.7s0,0.5-0.1,0.8s0,0.5-0.1,0.8
			c0,0.3,0,0.5-0.1,0.8s0,0.4,0,0.6c0,0.3,0,0.6,0,0.7c0,0.2,0.1,0.3,0.1,0.5c0.1,0.1,0.1,0.2,0.2,0.2c0.1,0,0.2,0.1,0.4,0.1
			c0.2,0,0.4,0,0.6-0.1c0.2-0.1,0.4-0.1,0.7-0.2l0.1,0.3c-0.1,0.1-0.3,0.2-0.5,0.3c-0.2,0.1-0.4,0.2-0.7,0.3
			c-0.2,0.1-0.5,0.2-0.7,0.2C36.7,58,36.5,58,36.3,58c-0.2,0-0.4-0.1-0.5-0.2c-0.1-0.1-0.2-0.3-0.3-0.5c-0.1-0.2-0.1-0.4-0.1-0.7
			s0-0.5,0-0.8c0-0.4,0-0.7,0-1.1c0-0.4,0.1-0.8,0.1-1.1s0.1-0.7,0.1-1s0-0.5,0-0.7c0-0.4-0.1-0.8-0.3-1c-0.2-0.2-0.4-0.3-0.7-0.3
			c-0.2,0-0.5,0.1-0.7,0.3c-0.3,0.2-0.5,0.5-0.8,0.8c-0.2,0.3-0.5,0.7-0.7,1.2c-0.2,0.5-0.4,1-0.6,1.5c-0.2,0.5-0.3,1.1-0.5,1.7
			c-0.1,0.6-0.2,1.2-0.2,1.7l-1.3,0.2l-0.1,0c0-0.5,0.1-1,0.1-1.5c0-0.6,0.1-1.2,0.1-1.8s0.1-1.3,0.1-2s0.1-1.4,0.1-2.1
			c0-0.7,0.1-1.4,0.1-2.1c0-0.7,0.1-1.4,0.1-2.1s0.1-1.4,0.1-2.1s0.1-1.3,0.1-1.9c0-0.1,0-0.2,0.1-0.2c0.1-0.1,0.1-0.1,0.2-0.2
			c0.1,0,0.2-0.1,0.3-0.1c0.1,0,0.2,0,0.3,0c0.2,0,0.5,0.1,0.7,0.2c-0.1,0.8-0.2,1.5-0.2,2.2s-0.1,1.3-0.2,1.9
			c-0.1,0.6-0.1,1.1-0.2,1.6c0,0.5-0.1,1-0.1,1.4c0,0.5-0.1,0.9-0.1,1.3c0,0.4-0.1,0.9-0.1,1.3s-0.1,0.9-0.1,1.4
			C31.2,53.6,31.2,54.1,31.2,54.6L31.2,54.6z"/>
		<path class="st7" d="M41.7,49.5c-0.1,0.4-0.1,0.9-0.2,1.3c0,0.4-0.1,0.9-0.1,1.3c0,0.4-0.1,0.8-0.1,1.2s0,0.7,0,1c0,0.4,0,0.8,0,1
			s0,0.5,0.1,0.7c0,0.2,0.1,0.4,0.1,0.5c0,0.1,0.1,0.2,0.2,0.3c0.1,0.1,0.1,0.1,0.2,0.1c0.1,0,0.2,0,0.3,0c0.2,0,0.4,0,0.6-0.1
			c0.2-0.1,0.4-0.1,0.7-0.2l0.1,0.3c-0.1,0.1-0.3,0.2-0.5,0.3c-0.2,0.1-0.4,0.2-0.7,0.3s-0.5,0.2-0.7,0.2C41.4,58,41.2,58,41,58
			c-0.1,0-0.2,0-0.3,0s-0.2-0.1-0.2-0.1c-0.1-0.1-0.1-0.2-0.2-0.3c-0.1-0.1-0.1-0.3-0.1-0.6c0-0.2-0.1-0.5-0.1-0.9s0-0.8,0-1.3
			c0-0.3,0-0.6,0-1s0-0.8,0-1.2s0-0.9,0-1.3c0-0.5,0-1,0.1-1.5c0-0.1,0-0.2,0.1-0.3s0.1-0.1,0.2-0.2c0.1,0,0.2-0.1,0.2-0.1
			c0.1,0,0.2,0,0.2,0C41.2,49.3,41.5,49.4,41.7,49.5z M41.2,46.8c-0.1,0-0.3,0-0.4-0.1c-0.1-0.1-0.2-0.1-0.3-0.2
			c-0.1-0.1-0.1-0.2-0.2-0.3c0-0.1-0.1-0.2-0.1-0.4c0-0.2,0-0.3,0.1-0.5s0.1-0.2,0.2-0.3c0.1-0.1,0.2-0.2,0.3-0.2
			c0.1,0,0.2-0.1,0.3-0.1c0.1,0,0.3,0,0.4,0.1c0.1,0,0.2,0.1,0.3,0.2c0.1,0.1,0.1,0.2,0.2,0.3c0,0.1,0.1,0.2,0.1,0.4
			c0,0.1,0,0.3-0.1,0.4c0,0.1-0.1,0.3-0.2,0.4c-0.1,0.1-0.2,0.2-0.3,0.3C41.5,46.8,41.3,46.8,41.2,46.8z"/>
		<path class="st7" d="M63.3,57.3c-0.3,0.1-0.5,0.2-0.8,0.3c-0.2,0.1-0.5,0.2-0.7,0.2S61.5,58,61.3,58s-0.3,0-0.5,0
			c-0.2,0-0.4,0-0.6-0.1c-0.2-0.1-0.3-0.2-0.4-0.4c-0.1-0.2-0.2-0.4-0.3-0.8s-0.1-0.7-0.1-1.2V55c0-0.2,0-0.5,0-0.8s0-0.7,0-1
			s0-0.7,0-1.1s0-0.7,0-1.1s0-0.7,0-1s0-0.6,0-0.8c0-0.5,0-0.9,0.1-1.4c0-0.5,0.1-0.9,0.1-1.3l0,0c-0.1,0.2-0.1,0.4-0.2,0.6
			c-0.1,0.2-0.2,0.5-0.4,0.8c-0.3,0.8-0.7,1.5-1.1,2.4c-0.4,0.8-0.7,1.6-1.1,2.5c-0.4,0.8-0.7,1.7-1.1,2.6c-0.4,0.9-0.7,1.7-1.1,2.6
			l-0.3,0c-0.1-0.3-0.2-0.6-0.3-0.9s-0.2-0.8-0.4-1.2s-0.3-0.9-0.4-1.3c-0.2-0.5-0.3-0.9-0.5-1.4c-0.2-0.5-0.3-1-0.5-1.4
			c-0.2-0.5-0.3-0.9-0.5-1.4c-0.2-0.4-0.3-0.9-0.4-1.3c-0.1-0.4-0.3-0.7-0.4-1c-0.1-0.4-0.2-0.7-0.3-0.9c-0.1-0.3-0.2-0.5-0.2-0.7
			l0,0c0,0.1,0,0.2,0,0.4c0,0.1,0,0.2,0,0.4v1c0,0.6,0,1.3,0,1.9s0,1.3-0.1,1.9c0,0.6-0.1,1.2-0.1,1.8s-0.1,1.1-0.1,1.6
			c0,0.4-0.1,0.8-0.1,1c0,0.3-0.1,0.5-0.1,0.7s-0.1,0.3-0.1,0.5c-0.1,0.1-0.1,0.2-0.2,0.3c-0.1,0.1-0.2,0.1-0.3,0.1
			c-0.1,0-0.3,0-0.5,0h-0.2c0,0-0.1,0-0.1,0c-0.1,0-0.1,0-0.2,0l-0.1-0.1c0.2-0.4,0.3-0.8,0.5-1.3c0.1-0.5,0.3-1,0.4-1.5
			c0.1-0.5,0.2-1.1,0.3-1.6c0.1-0.6,0.1-1.1,0.2-1.7c0.1-0.6,0.1-1.1,0.1-1.7c0-0.5,0.1-1.1,0.1-1.6s0-0.9,0-1.4s0-0.8,0-1.1
			c0-0.2,0-0.4,0-0.5s-0.1-0.2-0.1-0.3c-0.1-0.1-0.2-0.1-0.3-0.2s-0.3,0-0.5,0c-0.1,0-0.3,0-0.4,0s-0.4,0-0.6,0.1l-0.1-0.5
			c0.7-0.2,1.3-0.3,1.8-0.4c0.5-0.1,0.8-0.1,1.1-0.1c0.1,0,0.3,0,0.4,0c0.1,0,0.2,0.1,0.3,0.1c0.1,0.1,0.1,0.1,0.2,0.2
			c0.1,0.1,0.1,0.2,0.2,0.4c0.2,0.6,0.4,1.2,0.7,1.9c0.2,0.7,0.5,1.3,0.7,2c0.2,0.7,0.5,1.4,0.7,2c0.2,0.7,0.5,1.3,0.7,2
			c0.1,0.3,0.2,0.5,0.2,0.7s0.1,0.4,0.2,0.6c0.1,0.2,0.1,0.3,0.2,0.5c0.1,0.2,0.1,0.3,0.1,0.5h0c0.1-0.2,0.1-0.3,0.2-0.5
			c0.1-0.2,0.1-0.3,0.2-0.5c0.1-0.2,0.2-0.4,0.2-0.6s0.2-0.4,0.3-0.7c0.3-0.6,0.6-1.3,0.9-2c0.3-0.7,0.6-1.4,0.9-2.1
			c0.3-0.7,0.6-1.4,0.9-2.1c0.3-0.7,0.6-1.5,1-2.2c0-0.1,0.1-0.1,0.1-0.2c0.1-0.1,0.1-0.1,0.2-0.1c0.1,0,0.1,0,0.2-0.1
			c0.1,0,0.2,0,0.2,0c0.1,0,0.2,0,0.4,0s0.3,0.1,0.4,0.1c-0.1,0.6-0.1,1.3-0.2,1.8c0,0.6-0.1,1.2-0.1,1.7c0,0.6-0.1,1.1-0.1,1.6
			c0,0.5,0,1.1-0.1,1.6s0,1.1,0,1.7s0,1.2,0,1.8c0,0.4,0,0.8,0.1,1.1s0.1,0.5,0.2,0.7c0.1,0.2,0.2,0.3,0.4,0.4
			c0.1,0.1,0.3,0.1,0.6,0.1c0.1,0,0.2,0,0.2,0s0.2,0,0.2,0s0.2,0,0.3-0.1c0.1,0,0.2-0.1,0.3-0.1L63.3,57.3z"/>
		<path class="st7" d="M68.6,51.7c0-0.3-0.1-0.6-0.2-0.8c-0.1-0.2-0.2-0.4-0.4-0.6c-0.2-0.1-0.4-0.3-0.6-0.3
			c-0.2-0.1-0.4-0.1-0.6-0.1c-0.3,0-0.5,0-0.7,0.1c-0.2,0.1-0.3,0.1-0.5,0.2c-0.1,0.1-0.2,0.2-0.3,0.4c-0.1,0.1-0.1,0.3-0.1,0.4
			c0,0.2,0,0.4,0.1,0.6c0.1,0.2,0.2,0.4,0.3,0.6l0,0.1c-0.2,0.1-0.4,0.2-0.7,0.2c-0.1,0-0.3,0-0.4-0.1c-0.1,0-0.2-0.1-0.3-0.2
			c-0.1-0.1-0.2-0.2-0.2-0.3c0-0.1-0.1-0.2-0.1-0.4c0-0.2,0.1-0.4,0.2-0.7c0.1-0.2,0.3-0.4,0.4-0.6c0.2-0.2,0.4-0.3,0.6-0.5
			c0.2-0.1,0.5-0.2,0.8-0.3s0.5-0.2,0.8-0.2s0.5-0.1,0.7-0.1c0.4,0,0.8,0.1,1.1,0.2c0.3,0.1,0.5,0.3,0.7,0.5
			c0.2,0.2,0.3,0.5,0.4,0.8c0.1,0.3,0.1,0.6,0.1,1c0,0.3,0,0.5,0,0.9c0,0.3,0,0.6-0.1,1c0,0.3-0.1,0.7-0.1,1s0,0.7,0,1.1
			c0,0.6,0.1,1,0.3,1.3s0.5,0.4,0.8,0.4c0.3,0,0.6-0.1,1-0.3l0.2,0.3c-0.3,0.3-0.5,0.5-0.9,0.6c-0.3,0.1-0.6,0.2-1,0.2
			c-0.3,0-0.5,0-0.7-0.1c-0.2-0.1-0.4-0.2-0.6-0.4c-0.2-0.2-0.3-0.4-0.4-0.6c-0.1-0.3-0.1-0.6-0.1-0.9c0-0.1,0-0.2,0-0.3
			c0-0.1,0-0.2,0-0.3h0c-0.2,0.3-0.4,0.7-0.6,1c-0.2,0.3-0.5,0.6-0.7,0.9s-0.5,0.5-0.8,0.6C66,58,65.7,58,65.4,58
			c-0.3,0-0.5,0-0.7-0.1c-0.2-0.1-0.4-0.2-0.6-0.4c-0.2-0.2-0.3-0.4-0.4-0.6c-0.1-0.2-0.1-0.5-0.1-0.7c0-0.3,0.1-0.7,0.2-0.9
			c0.1-0.3,0.3-0.5,0.5-0.8c0.2-0.2,0.5-0.4,0.8-0.6c0.3-0.2,0.7-0.3,1-0.4c0.4-0.1,0.8-0.2,1.2-0.2c0.4-0.1,0.8-0.1,1.3-0.1
			c0-0.2,0.1-0.5,0.1-0.7C68.6,52.2,68.6,52,68.6,51.7z M65,55.8c0,0.2,0,0.3,0.1,0.4c0,0.1,0.1,0.3,0.2,0.4
			c0.1,0.1,0.2,0.2,0.3,0.3s0.2,0.1,0.4,0.1c0.2,0,0.4,0,0.5-0.1c0.2-0.1,0.4-0.2,0.6-0.3c0.2-0.1,0.4-0.3,0.5-0.5
			c0.2-0.2,0.3-0.4,0.5-0.7c0.1-0.2,0.2-0.5,0.3-0.8c0.1-0.3,0.1-0.5,0.2-0.8c-0.3,0-0.6,0-0.9,0.1c-0.3,0-0.6,0.1-0.8,0.1
			s-0.5,0.1-0.7,0.2c-0.2,0.1-0.4,0.2-0.6,0.4c-0.2,0.2-0.3,0.3-0.4,0.5C65,55.2,65,55.5,65,55.8z"/>
		<path class="st7" d="M73.4,51c0-0.2,0-0.3,0-0.4c0-0.1-0.1-0.2-0.1-0.3c0-0.1-0.1-0.1-0.2-0.1c-0.1,0-0.2,0-0.3,0
			c-0.1,0-0.3,0-0.5,0.1c-0.2,0-0.4,0.1-0.7,0.2l-0.1-0.4c0.3-0.1,0.5-0.2,0.8-0.3c0.3-0.1,0.5-0.1,0.7-0.2c0.2-0.1,0.4-0.1,0.6-0.1
			c0.2,0,0.3,0,0.4,0c0.2,0,0.4,0.1,0.5,0.2c0.1,0.1,0.2,0.4,0.2,0.7c0,0,0,0.1,0,0.3s0,0.3,0,0.5c0,0.2,0,0.5,0,0.8s0,0.6-0.1,0.9
			s-0.1,0.7-0.1,1s-0.1,0.7-0.1,1l0,0c0.3-1,0.6-1.9,1-2.6c0.3-0.7,0.7-1.3,1-1.7s0.7-0.7,1.1-0.9c0.3-0.2,0.7-0.3,1-0.3
			c0.2,0,0.4,0,0.6,0.1c0.2,0.1,0.4,0.2,0.5,0.4c0.2,0.2,0.3,0.4,0.4,0.7c0.1,0.3,0.1,0.6,0.1,1c0,0.1,0,0.3,0,0.5
			c0,0.2,0,0.4,0,0.7s0,0.5-0.1,0.8c0,0.3,0,0.5-0.1,0.8s0,0.5,0,0.7s0,0.4,0,0.6c0,0.3,0,0.6,0,0.7c0,0.2,0.1,0.3,0.1,0.5
			c0.1,0.1,0.1,0.2,0.2,0.2c0.1,0,0.2,0.1,0.4,0.1c0.2,0,0.4,0,0.6-0.1c0.2-0.1,0.4-0.1,0.7-0.2l0.1,0.3c-0.1,0.1-0.3,0.2-0.5,0.3
			c-0.2,0.1-0.4,0.2-0.7,0.3s-0.5,0.2-0.7,0.2C79.9,58,79.7,58,79.5,58c-0.2,0-0.4-0.1-0.5-0.2c-0.1-0.1-0.2-0.3-0.3-0.5
			c-0.1-0.2-0.1-0.4-0.1-0.7s0-0.5,0-0.8c0-0.4,0-0.7,0-1.1c0-0.4,0.1-0.8,0.1-1.1c0-0.4,0.1-0.7,0.1-1s0-0.5,0-0.7
			c0-0.5-0.1-0.8-0.3-1c-0.2-0.2-0.4-0.3-0.7-0.3c-0.2,0-0.5,0.1-0.7,0.3c-0.3,0.2-0.5,0.5-0.8,0.8s-0.5,0.7-0.7,1.2
			c-0.2,0.5-0.4,1-0.6,1.5c-0.2,0.5-0.3,1.1-0.5,1.7c-0.1,0.6-0.2,1.2-0.2,1.7l-1.2,0.2l-0.1,0c0-0.4,0.1-0.8,0.1-1.2
			c0-0.4,0.1-0.9,0.1-1.3c0-0.5,0-0.9,0.1-1.3c0-0.4,0-0.9,0-1.2c0-0.4,0-0.7,0-1S73.4,51.2,73.4,51z"/>
		<path class="st7" d="M89,50.4c0.2,0.3,0.3,0.6,0.4,0.9c0.1,0.3,0.1,0.6,0.1,0.9c0,0.3,0,0.6-0.1,0.9c-0.1,0.3-0.2,0.6-0.4,0.8
			c-0.2,0.3-0.3,0.5-0.6,0.7c-0.2,0.2-0.5,0.4-0.7,0.6c-0.3,0.2-0.6,0.3-0.9,0.4c-0.3,0.1-0.6,0.1-1,0.1c-0.1,0-0.2,0-0.3,0
			c-0.1,0-0.2,0-0.3,0c-0.1,0-0.3,0.1-0.4,0.1c-0.1,0.1-0.2,0.1-0.3,0.2c-0.1,0.1-0.2,0.2-0.2,0.2c0,0.1-0.1,0.2-0.1,0.3
			c0,0.2,0.1,0.3,0.2,0.4c0.1,0.1,0.3,0.2,0.5,0.3c0.2,0.1,0.5,0.2,0.8,0.2s0.6,0.1,0.9,0.2c0.3,0.1,0.6,0.1,0.9,0.2
			c0.3,0.1,0.6,0.1,0.8,0.2s0.5,0.2,0.7,0.3c0.2,0.1,0.4,0.3,0.6,0.4c0.2,0.2,0.3,0.3,0.4,0.5c0.1,0.2,0.1,0.4,0.1,0.7
			c0,0.3-0.1,0.7-0.2,1s-0.3,0.6-0.5,0.9c-0.2,0.3-0.5,0.5-0.8,0.8c-0.3,0.2-0.7,0.4-1,0.6c-0.4,0.2-0.8,0.3-1.2,0.4
			c-0.4,0.1-0.9,0.1-1.3,0.1c-0.3,0-0.5,0-0.8-0.1s-0.6-0.1-0.8-0.2s-0.5-0.2-0.8-0.3c-0.3-0.1-0.5-0.3-0.7-0.5
			c-0.2-0.2-0.3-0.4-0.5-0.6c-0.1-0.2-0.2-0.5-0.2-0.8c0-0.3,0-0.5,0.1-0.7c0.1-0.2,0.2-0.4,0.3-0.6c0.1-0.2,0.3-0.4,0.5-0.6
			c0.2-0.2,0.4-0.3,0.6-0.5c0.2-0.1,0.4-0.3,0.6-0.4c0.2-0.1,0.4-0.2,0.6-0.2l0,0c-0.1-0.1-0.3-0.1-0.4-0.2
			c-0.1-0.1-0.3-0.2-0.4-0.3c-0.1-0.1-0.2-0.2-0.3-0.4c-0.1-0.1-0.1-0.3-0.1-0.5c0-0.2,0-0.4,0.1-0.5c0.1-0.2,0.2-0.3,0.3-0.4
			c0.1-0.1,0.3-0.2,0.5-0.3c0.2-0.1,0.3-0.2,0.5-0.2c-0.3-0.1-0.6-0.3-0.8-0.5c-0.2-0.2-0.4-0.4-0.6-0.6c-0.2-0.2-0.3-0.5-0.4-0.8
			s-0.1-0.6-0.1-0.9c0-0.5,0.1-1,0.3-1.4c0.2-0.4,0.5-0.8,0.8-1.1c0.3-0.3,0.7-0.6,1.2-0.7c0.4-0.2,0.9-0.3,1.4-0.3
			c0.2,0,0.4,0,0.5,0c0.2,0,0.3,0.1,0.4,0.1c0.1,0,0.3,0.1,0.4,0.1c0.1,0,0.2,0.1,0.3,0.1c0.1,0.1,0.3,0.1,0.4,0.2
			c0.1,0.1,0.3,0.1,0.5,0.1c0.2,0,0.3,0,0.5-0.1c0.1-0.1,0.3-0.1,0.4-0.2c0.1-0.1,0.2-0.2,0.3-0.4c0.1-0.1,0.1-0.3,0.1-0.5
			c0,0,0-0.1,0-0.1s0-0.1,0-0.1l0.1-0.1c0.3,0.1,0.5,0.3,0.6,0.5c0.1,0.2,0.2,0.4,0.2,0.6c0,0.1,0,0.3-0.1,0.4
			c-0.1,0.1-0.1,0.2-0.3,0.3c-0.1,0.1-0.2,0.1-0.4,0.2c-0.1,0-0.3,0.1-0.5,0.1C89.6,50.6,89.3,50.5,89,50.4L89,50.4z M85.1,58.6
			c-0.3,0.1-0.5,0.2-0.8,0.3c-0.2,0.1-0.5,0.3-0.7,0.5c-0.2,0.2-0.3,0.4-0.5,0.7C83.1,60.4,83,60.7,83,61c0,0.4,0.1,0.7,0.3,1
			c0.2,0.3,0.4,0.5,0.6,0.7c0.3,0.2,0.6,0.3,0.9,0.4c0.3,0.1,0.6,0.1,1,0.1c0.4,0,0.8-0.1,1.2-0.2c0.4-0.1,0.7-0.3,1-0.5
			c0.3-0.2,0.5-0.5,0.7-0.8c0.2-0.3,0.3-0.7,0.3-1c0-0.2,0-0.4-0.1-0.5c-0.1-0.2-0.2-0.3-0.4-0.4c-0.2-0.1-0.3-0.2-0.5-0.3
			s-0.4-0.2-0.7-0.2c-0.3-0.1-0.7-0.2-1.1-0.2C85.9,58.8,85.5,58.7,85.1,58.6z M86.3,55.1c0.2,0,0.4,0,0.6-0.1
			c0.2-0.1,0.3-0.2,0.5-0.3c0.1-0.1,0.2-0.3,0.3-0.4c0.1-0.2,0.2-0.3,0.2-0.5c0.1-0.2,0.1-0.4,0.1-0.5c0-0.2,0-0.4,0-0.5
			c0-0.2,0-0.4-0.1-0.7s-0.1-0.4-0.2-0.6c-0.1-0.2-0.2-0.4-0.3-0.6c-0.1-0.2-0.3-0.3-0.4-0.5c-0.2-0.1-0.3-0.2-0.5-0.3
			c-0.2-0.1-0.4-0.1-0.7-0.1c-0.2,0-0.4,0-0.6,0.1c-0.2,0.1-0.3,0.2-0.5,0.3c-0.1,0.1-0.3,0.3-0.3,0.4c-0.1,0.2-0.2,0.3-0.2,0.5
			c-0.1,0.2-0.1,0.4-0.1,0.5c0,0.2,0,0.4,0,0.5c0,0.2,0,0.4,0.1,0.7s0.1,0.4,0.2,0.6c0.1,0.2,0.2,0.4,0.3,0.6
			c0.1,0.2,0.3,0.3,0.4,0.5c0.2,0.1,0.3,0.2,0.5,0.3C85.9,55,86.1,55.1,86.3,55.1z"/>
		<path class="st7" d="M91.3,54.4c0-0.4,0-0.8,0.1-1.2c0.1-0.4,0.2-0.8,0.4-1.2c0.2-0.4,0.4-0.7,0.6-1.1c0.2-0.3,0.5-0.6,0.8-0.9
			s0.7-0.4,1-0.6s0.8-0.2,1.2-0.2c0.5,0,0.9,0.1,1.3,0.3c0.4,0.2,0.7,0.5,1,0.8c0.3,0.3,0.5,0.7,0.6,1.2c0.1,0.4,0.2,0.9,0.2,1.4
			c0,0.4,0,0.8-0.1,1.2c-0.1,0.4-0.2,0.8-0.4,1.2c-0.2,0.4-0.4,0.7-0.6,1.1c-0.2,0.3-0.5,0.6-0.8,0.9c-0.3,0.3-0.7,0.4-1,0.6
			c-0.4,0.1-0.8,0.2-1.2,0.2c-0.5,0-0.9-0.1-1.3-0.3c-0.4-0.2-0.7-0.5-1-0.8c-0.3-0.3-0.5-0.7-0.6-1.2
			C91.3,55.3,91.3,54.8,91.3,54.4z M92.7,53.8c0,0.3,0,0.5,0.1,0.8s0.1,0.5,0.2,0.8c0.1,0.3,0.2,0.5,0.3,0.7
			c0.1,0.2,0.3,0.4,0.5,0.6c0.2,0.2,0.4,0.3,0.6,0.4c0.2,0.1,0.5,0.1,0.7,0.1c0.3,0,0.5-0.1,0.8-0.2c0.2-0.1,0.4-0.3,0.6-0.5
			c0.2-0.2,0.3-0.4,0.4-0.7s0.2-0.5,0.3-0.8c0.1-0.3,0.1-0.6,0.1-0.8s0-0.5,0-0.8c0-0.3,0-0.5-0.1-0.8s-0.1-0.5-0.2-0.8
			c-0.1-0.3-0.2-0.5-0.3-0.7c-0.1-0.2-0.3-0.4-0.5-0.6c-0.2-0.2-0.4-0.3-0.6-0.4c-0.2-0.1-0.5-0.1-0.7-0.1c-0.3,0-0.5,0.1-0.8,0.2
			c-0.2,0.1-0.4,0.3-0.6,0.5c-0.2,0.2-0.3,0.4-0.4,0.7c-0.1,0.3-0.2,0.5-0.3,0.8s-0.1,0.6-0.1,0.8C92.7,53.3,92.7,53.6,92.7,53.8z"
			/>
	</g>
</g>
</svg>
