<?xml version="1.0" encoding="utf-8"?>
<!-- Generator: Adobe Illustrator 16.0.0, SVG Export Plug-In . SVG Version: 6.00 Build 0)  -->
<!DOCTYPE svg PUBLIC "-//W3C//DTD SVG 1.1//EN" "http://www.w3.org/Graphics/SVG/1.1/DTD/svg11.dtd">
<svg version="1.1" id="Layer_1" xmlns="http://www.w3.org/2000/svg" xmlns:xlink="http://www.w3.org/1999/xlink" x="0px" y="0px"
	 width="30px" height="30px" viewBox="0 0 30 30" enable-background="new 0 0 30 30" xml:space="preserve">
<defs>
	<filter id="Adobe_OpacityMaskFilter" filterUnits="userSpaceOnUse" x="0" y="0" width="30" height="30">
		<feColorMatrix  type="matrix" values="1 0 0 0 0  0 1 0 0 0  0 0 1 0 0  0 0 0 1 0"/>
	</filter>
</defs>
<mask maskUnits="userSpaceOnUse" x="0" y="0" width="30" height="30" id="mask0">
	<path fill="#FFFFFF" filter="url(#Adobe_OpacityMaskFilter)" d="M13.667,4.332C13.667,3.596,14.264,3,15,3s1.333,0.596,1.333,1.332
		v11.45l3.058-3.057c0.521-0.521,1.365-0.521,1.885,0c0.521,0.521,0.521,1.365,0,1.885l-5.333,5.334c-0.521,0.52-1.365,0.52-1.885,0
		l-5.333-5.334c-0.521-0.521-0.521-1.365,0-1.885c0.521-0.521,1.365-0.521,1.886,0l3.057,3.057V4.332z M4.333,24.334h21.333v-8
		C25.666,15.598,26.264,15,27,15s1.333,0.598,1.333,1.334v9.332C28.333,26.402,27.736,27,27,27H3c-0.736,0-1.333-0.598-1.333-1.334
		v-9.332C1.667,15.598,2.264,15,3,15s1.333,0.598,1.333,1.334V24.334z"/>
</mask>
<g mask="url(#mask0)">
	<rect fill="#FFFFFF" width="30" height="30"/>
</g>
</svg>
