<?xml version="1.0" encoding="utf-8"?>
<!-- Generator: Adobe Illustrator 16.0.0, SVG Export Plug-In . SVG Version: 6.00 Build 0)  -->
<!DOCTYPE svg PUBLIC "-//W3C//DTD SVG 1.1//EN" "http://www.w3.org/Graphics/SVG/1.1/DTD/svg11.dtd">
<svg version="1.1" id="Layer_1" xmlns="http://www.w3.org/2000/svg" xmlns:xlink="http://www.w3.org/1999/xlink" x="0px" y="0px"
	 width="27px" height="27px" viewBox="0 0 27 27" enable-background="new 0 0 27 27" xml:space="preserve">
<path fill="#6CC8BF" d="M26.997,15.311c-0.033-0.686,0-1.374-0.009-2.062c-0.018-1.142-0.286-1.428-1.408-1.509
	c-0.302-0.021-0.583,0.033-0.714-0.396c-0.836-2.731-2.599-4.781-4.784-6.507c-2.026-1.111-4.147-1.899-6.487-1.944
	C10.678,2.954,8.079,3.899,5.804,5.75C4.25,7.109,3.173,8.815,2.301,10.671c-0.036,0.688-0.216,1.152-1.078,1.093
	c-0.767-0.054-1.16,0.449-1.173,1.225c-0.015,0.771-0.023,1.542-0.034,2.314c-0.024,0.645,0.25,1.121,0.786,1.455
	c0.461,0.01,0.924-0.004,1.383,0.027c0.755,0.053,1.071-0.277,1.023-1.043c-0.057-0.904,0.027-1.803,0.211-2.689
	c0.401-0.335,0.568-0.8,0.713-1.283C4.424,10.805,4.924,9.942,5.5,9.132c1.615-2.27,3.855-3.528,6.538-4.044
	c0.63-0.269,1.287-0.094,1.919-0.06c3.34,0.175,5.97,1.686,7.806,4.505c1.317,2.021,1.78,4.29,1.65,6.699
	c-0.061,1.107-0.142,1.283-1.129,1.813c1.14-2.332,0.727-6.022-1.1-8.529c-2.099-2.875-4.946-4.238-8.519-3.915
	C9.821,5.771,7.621,7.145,5.961,9.407c-0.992,1.353-1.851,2.804-1.435,4.628c-0.02,1.467,0.073,2.916,0.625,4.301
	c0.838,2.105,2.295,3.65,4.181,4.824c3.496,1.508,6.802,1.291,9.874-1.098c0.635-0.637,1.284-1.271,1.752-2.045
	c0.282-0.463,0.621-0.598,1.132-0.615c1.462-0.053,2.208-0.633,2.63-2.043c0.121-0.408,0.29-0.58,0.698-0.561
	c0.308,0.016,0.617-0.016,0.927-0.025C26.824,16.406,27.028,15.928,26.997,15.311z M20.704,15.867
	c-0.337,1.449-0.471,1.582-1.952,1.594c-0.432,0.004-0.862-0.012-1.291-0.02c-0.844,0.002-1.69,0.301-2.44-0.508
	c-0.447-0.484-2.099-0.156-2.716,0.35c-0.006,0.311-0.003,0.623-0.021,0.934c-0.042,0.754,0.331,1.129,1.051,1.078
	c0.751-0.053,1.649,0.348,2.154-0.625c0.038-0.074,0.218-0.107,0.333-0.107c1.102-0.01,2.204-0.006,3.371-0.006
	c-0.146,0.525-0.644,0.771-1.024,1.082c-3.819,3.088-9.711,1.195-11.097-3.549c-0.141-0.484-0.315-0.948,0.501-0.864
	c0.428,0.043,0.593-0.2,0.622-0.617c0.048-0.683,0.134-1.362,0.204-2.045c0.147-0.31-0.034-0.666,0.139-0.97
	c0.01-0.172,0.02-0.344,0.03-0.515C8.555,9.693,8.618,9.633,9.971,9.767c1.259,0.125,2.518,0.254,3.777,0.381
	c1.377-0.128,2.754-0.259,4.131-0.385c1.162-0.105,1.242-0.063,1.37,1.146c0.122,1.142,0.192,2.289,0.253,3.437
	c0.027,0.525,0.104,0.936,0.762,0.891C20.742,15.2,20.81,15.414,20.704,15.867z"/>
</svg>
