<svg xmlns="http://www.w3.org/2000/svg" width="100" height="100" fill="none" viewBox="0 0 100 100">
    <path fill="url(#paint0_radial)" fill-rule="evenodd" d="M81 40c4.97 0 9-4.03 9-9s-4.03-9-9-9-9 4.03-9 9 4.03 9 9 9zm-1 4c-11.046 0-20 8.954-20 20v.456c0 2.334 1.336 4.456 3.561 5.16C66.943 70.683 72.607 72 80 72c7.393 0 13.057-1.316 16.439-2.385 2.225-.703 3.561-2.825 3.561-5.159V64c0-11.046-8.954-20-20-20z" clip-rule="evenodd"/>
    <path fill="url(#paint1_radial)" fill-rule="evenodd" d="M23 40c4.97 0 9-4.03 9-9s-4.03-9-9-9-9 4.03-9 9 4.03 9 9 9zm-1 4C10.954 44 2 52.954 2 64v.456c0 2.334 1.336 4.456 3.561 5.16C8.943 70.683 14.607 72 22 72c7.393 0 13.057-1.316 16.439-2.385C40.664 68.912 42 66.79 42 64.456V64c0-11.046-8.954-20-20-20z" clip-rule="evenodd"/>
    <path fill="url(#paint2_radial)" fill-rule="evenodd" d="M52 46c7.732 0 14-6.268 14-14s-6.268-14-14-14-14 6.268-14 14 6.268 14 14 14zm0 2c-15.464 0-28 12.536-28 28v1.264c0 3.313 1.881 6.33 5.035 7.345C33.775 86.134 41.685 88 52 88s18.224-1.866 22.965-3.391C78.119 83.595 80 80.577 80 77.264V76c0-15.464-12.536-28-28-28z" clip-rule="evenodd"/>
    <circle cx="23" cy="31" r="9" fill="url(#paint3_radial)"/>
    <circle cx="81" cy="31" r="9" fill="url(#paint4_radial)"/>
    <circle cx="52" cy="32" r="14" fill="url(#paint5_radial)"/>
    <defs>
        <radialGradient id="paint0_radial" cx="0" cy="0" r="1" gradientTransform="matrix(-40.00014 49.99983 -45.50446 -36.40382 100 22)" gradientUnits="userSpaceOnUse">
            <stop stop-color="#5DF8E3"/>
            <stop offset=".411" stop-color="#54DDCB"/>
            <stop offset="1" stop-color="#205CD2"/>
        </radialGradient>
        <radialGradient id="paint1_radial" cx="0" cy="0" r="1" gradientTransform="matrix(-40.00014 49.99983 -45.50446 -36.40382 42 22)" gradientUnits="userSpaceOnUse">
            <stop stop-color="#5DF8E3"/>
            <stop offset=".411" stop-color="#54DDCB"/>
            <stop offset="1" stop-color="#205CD2"/>
        </radialGradient>
        <radialGradient id="paint2_radial" cx="0" cy="0" r="1" gradientTransform="matrix(-56.00021 69.99978 -63.7063 -50.9654 80 18)" gradientUnits="userSpaceOnUse">
            <stop stop-color="#5DF8E3"/>
            <stop offset=".411" stop-color="#54DDCB"/>
            <stop offset="1" stop-color="#205CD2"/>
        </radialGradient>
        <radialGradient id="paint3_radial" cx="0" cy="0" r="1" gradientTransform="rotate(135 11.444 17.627) scale(25.4558 23.7463)" gradientUnits="userSpaceOnUse">
            <stop stop-color="#5DF8E3"/>
            <stop offset=".411" stop-color="#54DDCB"/>
            <stop offset="1" stop-color="#205CD2"/>
        </radialGradient>
        <radialGradient id="paint4_radial" cx="0" cy="0" r="1" gradientTransform="rotate(135 40.444 29.64) scale(25.4558 23.7463)" gradientUnits="userSpaceOnUse">
            <stop stop-color="#5DF8E3"/>
            <stop offset=".411" stop-color="#54DDCB"/>
            <stop offset="1" stop-color="#205CD2"/>
        </radialGradient>
        <radialGradient id="paint5_radial" cx="0" cy="0" r="1" gradientTransform="matrix(-28.00001 28.00001 -26.11968 -26.11968 66 18)" gradientUnits="userSpaceOnUse">
            <stop stop-color="#5DF8E3"/>
            <stop offset=".411" stop-color="#54DDCB"/>
            <stop offset="1" stop-color="#205CD2"/>
        </radialGradient>
    </defs>
</svg>
