<svg xmlns="http://www.w3.org/2000/svg" width="60" height="60" fill="none" viewBox="0 0 60 60">
    <path fill="url(#paint0_radial)" d="M40.8 34.8H19.2v20.476c0 .872.916 1.411 1.635.962L30 50.521l9.165 5.717c.72.45 1.635-.09 1.635-.962V34.8z"/>
    <path fill="url(#paint1_radial)" d="M49.307 22.069l-1.426-.857c-.607-.365-1.017-.965-1.203-1.648-.005-.013-.006-.025-.01-.039-.19-.69-.133-1.424.214-2.048l.808-1.455c.826-1.487-.23-3.32-1.933-3.348l-1.678-.03c-.712-.012-1.372-.329-1.873-.83l-.015-.017c-.506-.502-.82-1.163-.832-1.874l-.029-1.678c-.028-1.702-1.86-2.76-3.348-1.933l-1.454.808c-.627.347-1.359.404-2.048.214-.012-.004-.025-.005-.038-.01-.684-.186-1.283-.596-1.648-1.204l-.857-1.426c-.875-1.459-2.991-1.459-3.866 0l-.852 1.42c-.368.613-.974 1.027-1.66 1.215l-.023.005c-.696.192-1.434.135-2.065-.216l-1.449-.804c-1.487-.826-3.32.23-3.348 1.933l-.03 1.676c-.013.71-.33 1.372-.831 1.873-.006.005-.013.01-.016.016-.502.505-1.163.819-1.873.831l-1.678.028c-1.701.029-2.759 1.86-1.932 3.349l.808 1.454c.347.627.403 1.36.214 2.049-.006.012-.008.026-.013.038-.186.684-.597 1.284-1.203 1.649l-1.426.857c-1.459.875-1.459 2.991 0 3.866l1.426.857c.607.365 1.018.965 1.203 1.649.005.012.006.024.01.038.19.69.133 1.424-.214 2.049l-.808 1.454c-.826 1.487.23 3.32 1.933 3.349l1.678.028c.712.012 1.372.329 1.873.83l.015.017c.505.502.819 1.163.831 1.873l.029 1.678c.028 1.702 1.86 2.76 3.348 1.933l1.454-.808c.627-.347 1.359-.404 2.048-.214.012.004.026.005.038.01.684.186 1.283.596 1.648 1.204l.857 1.426c.875 1.459 2.991 1.459 3.866 0l.857-1.426c.365-.608.964-1.018 1.648-1.204.012-.005.026-.006.038-.01.69-.19 1.424-.133 2.048.214l1.454.808c1.487.826 3.32-.23 3.348-1.933l.029-1.678c.012-.712.328-1.372.83-1.873l.016-.016c.502-.505 1.163-.819 1.873-.831l1.678-.028c1.702-.029 2.759-1.862 1.933-3.349l-.808-1.454c-.347-.627-.404-1.36-.215-2.049.005-.012.006-.025.01-.038.187-.684.597-1.284 1.204-1.649l1.426-.857c1.468-.874 1.468-2.988.01-3.864z"/>
    <path stroke="#D0FBF6" stroke-miterlimit="10" stroke-width="2" d="M30 36c5.965 0 10.8-5.104 10.8-11.4S35.965 13.2 30 13.2c-5.965 0-10.8 5.104-10.8 11.4S24.035 36 30 36z"/>
    <defs>
        <radialGradient id="paint0_radial" cx="0" cy="0" r="1" gradientTransform="rotate(135 13.193 25.85) scale(30.547 28.4956)" gradientUnits="userSpaceOnUse">
            <stop stop-color="#5DF8E3"/>
            <stop offset=".411" stop-color="#54DDCB"/>
            <stop offset="1" stop-color="#205CD2"/>
        </radialGradient>
        <radialGradient id="paint1_radial" cx="0" cy="0" r="1" gradientTransform="matrix(-40.8 40.8 -38.0601 -38.0601 50.4 3.6)" gradientUnits="userSpaceOnUse">
            <stop stop-color="#5DF8E3"/>
            <stop offset=".411" stop-color="#54DDCB"/>
            <stop offset="1" stop-color="#205CD2"/>
        </radialGradient>
    </defs>
</svg>
