<svg xmlns="http://www.w3.org/2000/svg" width="20" height="20" fill="none" viewBox="0 0 20 20">
    <path fill="#fff" fill-rule="evenodd" d="M18 4.657c-.588.281-1.22.472-1.885.557.678-.437 1.199-1.13 1.444-1.955-.635.404-1.337.699-2.086.856C14.875 3.43 14.022 3 13.077 3c-1.812 0-3.281 1.583-3.281 3.534 0 .277.028.546.084.805-2.728-.148-5.146-1.553-6.766-3.694-.283.524-.444 1.132-.444 1.779 0 1.225.58 2.307 1.46 2.941-.537-.017-1.044-.178-1.488-.44v.043c0 1.713 1.132 3.142 2.635 3.465-.276.083-.566.125-.865.125-.212 0-.418-.021-.618-.063.418 1.404 1.63 2.426 3.066 2.453-1.123.949-2.54 1.514-4.077 1.514-.265 0-.527-.016-.783-.049C3.453 16.415 5.179 17 7.032 17c6.038 0 9.34-5.385 9.34-10.055 0-.154-.003-.308-.009-.458.642-.499 1.198-1.12 1.637-1.83z" clip-rule="evenodd"/>
</svg>
