<svg xmlns="http://www.w3.org/2000/svg" width="30" height="30" fill="none" viewBox="0 0 30 30">
    <path fill="#54DDCB" d="M18.586 14l-2.293-2.293c-.39-.39-.39-1.024 0-1.414.39-.39 1.024-.39 1.414 0l4 4c.39.39.39 1.024 0 1.414l-4 4c-.39.39-1.024.39-1.414 0-.39-.39-.39-1.024 0-1.414L18.586 16H8.999C8.447 16 8 15.552 8 15s.447-1 .999-1h9.587z"/>
    <mask id="dbr9dxd5va" width="14" height="10" x="8" y="10" maskUnits="userSpaceOnUse">
        <path fill="#fff" d="M18.586 14l-2.293-2.293c-.39-.39-.39-1.024 0-1.414.39-.39 1.024-.39 1.414 0l4 4c.39.39.39 1.024 0 1.414l-4 4c-.39.39-1.024.39-1.414 0-.39-.39-.39-1.024 0-1.414L18.586 16H8.999C8.447 16 8 15.552 8 15s.447-1 .999-1h9.587z"/>
    </mask>
    <g mask="url(#dbr9dxd5va)">
        <path fill="#54DDCB" d="M0 0H30V30H0z"/>
    </g>
</svg>
