<svg xmlns="http://www.w3.org/2000/svg" width="60" height="60" fill="none" viewBox="0 0 60 60">
    <path fill="#54DDCB" d="M6.634 15.201c-.245.503-.384 1.059-.384 1.639v25.296c0 1.393.771 2.67 2.004 3.319l19.417 10.22c.729.384 1.529.575 2.329.575V27.5L6.634 15.201z"/>
    <path fill="url(#paint0_radial)" d="M30 27.5v28.75c.8 0 1.6-.191 2.329-.575l19.417-10.22c1.233-.649 2.004-1.926 2.004-3.319V16.84c0-.58-.139-1.136-.384-1.639L30 27.5z"/>
    <path fill="#54DDCB" d="M30 27.5l23.366-12.299c-.366-.752-.976-1.379-1.761-1.75L32.14 4.231c-1.355-.641-2.926-.641-4.281 0l-19.464 9.22c-.785.373-1.395.999-1.761 1.75L30 27.5z"/>
    <path fill="#D0FBF6" d="M16.473 20.383c-.143.29-.223.612-.223.948v14.645c0 .806.446 1.547 1.16 1.922l11.242 5.916c.423.222.886.334 1.35.334V27.502l-13.53-7.12z" opacity=".8"/>
    <path fill="#D0FBF6" d="M30 27.503v16.645c.462 0 .926-.112 1.349-.334l11.242-5.916c.714-.376 1.16-1.116 1.16-1.922V21.331c0-.336-.08-.657-.222-.948L30 27.503z"/>
    <path fill="#D0FBF6" d="M30 27.503l13.527-7.12c-.212-.435-.565-.798-1.02-1.014L31.24 14.03c-.785-.371-1.694-.371-2.48 0L17.492 19.37c-.455.215-.807.577-1.02 1.014L30 27.503z" opacity=".5"/>
    <defs>
        <radialGradient id="paint0_radial" cx="0" cy="0" r="1" gradientTransform="matrix(-23.75013 41.0487 -33.1971 -19.20732 53.75 15.201)" gradientUnits="userSpaceOnUse">
            <stop stop-color="#5DF8E3"/>
            <stop offset=".411" stop-color="#54DDCB"/>
            <stop offset="1" stop-color="#205CD2"/>
        </radialGradient>
    </defs>
</svg>
