<svg xmlns="http://www.w3.org/2000/svg" width="20" height="20" fill="none" viewBox="0 0 20 20">
    <path fill="#fff" d="M4.957 3c-1.132 0-1.954.677-1.954 1.609 0 .934.842 1.641 1.954 1.641 1.131 0 1.953-.69 1.953-1.66C6.858 3.654 6.052 3 4.957 3zM3.326 6.905c-.18 0-.326.146-.326.325v9.444c0 .18.147.326.326.326h3.261c.18 0 .326-.147.326-.326V7.23c0-.179-.147-.325-.326-.325h-3.26zM7.891 7.23c0-.179.147-.325.326-.325h3.261c.18 0 .326.146.326.325v.486c.525-.368 1.392-.811 2.54-.811C16.868 6.905 18 9.03 18 11.138v5.536c0 .18-.147.326-.326.326h-2.935c-.18 0-.326-.146-.326-.326v-5.047c0-.772-.594-1.4-1.35-1.46-.038-.006-.077-.006-.115-.006h-.005c-.038 0-.076 0-.114.007-.757.058-1.35.687-1.35 1.459v5.047c0 .18-.147.326-.327.326H8.217c-.179 0-.326-.147-.326-.326V7.23z"/>
</svg>
