<?xml version="1.0" encoding="utf-8"?>
<!-- Generator: Adobe Illustrator 16.0.0, SVG Export Plug-In . SVG Version: 6.00 Build 0)  -->
<!DOCTYPE svg PUBLIC "-//W3C//DTD SVG 1.1//EN" "http://www.w3.org/Graphics/SVG/1.1/DTD/svg11.dtd">
<svg version="1.1" id="Layer_1" xmlns="http://www.w3.org/2000/svg" xmlns:xlink="http://www.w3.org/1999/xlink" x="0px" y="0px"
	 width="202px" height="54.5px" viewBox="0 0 202 54.5" enable-background="new 0 0 202 54.5" xml:space="preserve">
<path fill="#54DDCB" d="M69.704,31.857c-0.089-1.754,0-3.514-0.025-5.27c-0.044-2.919-0.738-3.651-3.636-3.858
	c-0.782-0.056-1.504,0.085-1.843-1.012C62.039,14.732,57.484,9.494,51.839,5.08c-5.233-2.84-10.712-4.856-16.754-4.969
	c-7.537,0.156-14.252,2.574-20.127,7.305c-4.014,3.476-6.796,7.836-9.05,12.579c-0.093,1.759-0.56,2.945-2.785,2.793
	c-1.982-0.137-2.994,1.149-3.03,3.132c-0.039,1.971-0.06,3.941-0.089,5.916c-0.062,1.645,0.647,2.865,2.031,3.721
	c1.191,0.021,2.387-0.013,3.574,0.067c1.95,0.134,2.768-0.71,2.642-2.668c-0.147-2.31,0.071-4.604,0.545-6.872
	c1.036-0.856,1.467-2.045,1.842-3.278c0.753-2.469,2.046-4.673,3.535-6.745c4.171-5.803,9.957-9.019,16.887-10.34
	c1.628-0.685,3.326-0.239,4.959-0.153c8.625,0.448,15.42,4.312,20.162,11.519c3.4,5.167,4.6,10.968,4.265,17.125
	c-0.154,2.831-0.364,3.277-2.917,4.631c2.944-5.96,1.878-15.393-2.842-21.8C49.266,9.691,41.91,6.209,32.684,7.033
	c-7.351,0.437-13.033,3.95-17.321,9.732c-2.564,3.456-4.782,7.166-3.706,11.831c-0.051,3.75,0.188,7.453,1.615,10.996
	c2.166,5.377,5.929,9.331,10.799,12.327c9.03,3.858,17.572,3.302,25.506-2.802c1.641-1.631,3.317-3.252,4.527-5.229
	c0.727-1.184,1.602-1.527,2.924-1.574c3.775-0.135,5.702-1.615,6.792-5.225c0.313-1.037,0.747-1.479,1.804-1.428
	c0.795,0.038,1.595-0.041,2.393-0.066C69.259,34.657,69.783,33.436,69.704,31.857z M53.448,33.277
	c-0.871,3.705-1.215,4.045-5.046,4.074c-1.111,0.01-2.223-0.031-3.333-0.05c-2.178,0.007-4.367,0.772-6.301-1.297
	c-1.158-1.239-5.425-0.401-7.02,0.892c-0.016,0.797-0.008,1.595-0.052,2.39c-0.107,1.926,0.854,2.885,2.714,2.755
	c1.941-0.135,4.257,0.889,5.562-1.598c0.101-0.193,0.565-0.274,0.862-0.277c2.848-0.021,5.696-0.014,8.71-0.014
	c-0.377,1.345-1.664,1.975-2.65,2.765c-9.862,7.897-25.083,3.06-28.664-9.067c-0.365-1.242-0.815-2.426,1.295-2.211
	c1.105,0.11,1.533-0.512,1.608-1.578c0.123-1.746,0.345-3.485,0.525-5.228c0.379-0.79-0.088-1.701,0.359-2.479
	c0.026-0.439,0.051-0.877,0.077-1.316c-0.03-3.542,0.131-3.696,3.627-3.354c3.253,0.319,6.505,0.648,9.758,0.973
	c3.557-0.328,7.112-0.661,10.669-0.983c3.002-0.272,3.211-0.161,3.542,2.927c0.313,2.919,0.498,5.854,0.652,8.788
	c0.072,1.342,0.272,2.391,1.966,2.274C53.547,31.575,53.72,32.12,53.448,33.277z"/>
<circle fill="#54DDCB" cx="28.768" cy="25.698" r="2.808"/>
<circle fill="#54DDCB" cx="41.081" cy="25.986" r="2.808"/>
<g>
	<path fill="#FFFFFF" d="M73.759,13.526h6.119v18.15h-6.119V13.526z"/>
	<path fill="#FFFFFF" d="M86.775,18.271h-5.316v-4.745H98.21v4.745h-5.316v13.405h-6.12L86.775,18.271L86.775,18.271z"/>
	<path fill="#FFFFFF" d="M98.444,21.979h7.777v4.408h-7.777V21.979z"/>
	<path fill="#FFFFFF" d="M119.395,31.186c-0.881,0.502-2.082,0.752-3.604,0.752c-1.986,0-3.518-0.479-4.589-1.438
		c-1.072-0.96-1.608-2.399-1.608-4.318v-3.63h-1.943v-4.278h1.943v-3.967h5.86v3.967h2.903v4.278h-2.903v3.578
		c0,0.433,0.112,0.77,0.337,1.011c0.225,0.242,0.52,0.363,0.882,0.363c0.502,0,0.942-0.129,1.322-0.389L119.395,31.186z"/>
	<path fill="#FFFFFF" d="M131.037,17.234v5.186c-0.467-0.068-0.898-0.104-1.297-0.104c-2.006,0-3.008,1.02-3.008,3.06v6.301h-5.86
		V17.494h5.575v1.53C127.484,17.831,129.016,17.234,131.037,17.234z"/>
	<path fill="#FFFFFF" d="M133.07,15.51c-0.647-0.561-0.971-1.274-0.971-2.139c0-0.864,0.322-1.577,0.971-2.139
		s1.5-0.842,2.556-0.842c1.071,0,1.927,0.268,2.565,0.804c0.64,0.536,0.961,1.228,0.961,2.074c0,0.899-0.321,1.638-0.961,2.217
		c-0.64,0.58-1.494,0.869-2.565,0.869C134.57,16.353,133.721,16.072,133.07,15.51z M132.695,17.494h5.859v14.183h-5.859V17.494z"/>
	<path fill="#FFFFFF" d="M144.454,31.003c-1.271-0.622-2.265-1.494-2.981-2.619c-0.717-1.123-1.074-2.394-1.074-3.812
		c0-1.417,0.357-2.684,1.074-3.799c0.719-1.115,1.711-1.983,2.981-2.606c1.271-0.622,2.711-0.933,4.317-0.933
		c1.729,0,3.207,0.372,4.435,1.115c1.228,0.743,2.073,1.772,2.541,3.085l-4.537,2.23c-0.554-1.245-1.375-1.867-2.464-1.867
		c-0.691,0-1.268,0.242-1.725,0.726c-0.459,0.484-0.688,1.167-0.688,2.048c0,0.899,0.229,1.591,0.688,2.074
		c0.457,0.484,1.033,0.726,1.725,0.726c1.089,0,1.91-0.623,2.464-1.867l4.537,2.229c-0.468,1.314-1.313,2.344-2.541,3.085
		c-1.228,0.744-2.705,1.115-4.435,1.115C147.165,31.938,145.725,31.625,144.454,31.003z"/>
	<path fill="#FFFFFF" d="M163.889,27.321l-0.934,1.011v3.345h-5.859V12.438h5.859v9.179l4.07-4.123h6.924l-5.86,6.145l6.327,8.038
		h-7.079L163.889,27.321z"/>
	<path fill="#FFFFFF" d="M189.948,25.946h-9.854c0.208,0.537,0.553,0.947,1.037,1.232c0.482,0.285,1.09,0.428,1.814,0.428
		c0.623,0,1.146-0.078,1.568-0.234c0.424-0.156,0.887-0.423,1.389-0.804l3.06,3.084c-1.384,1.521-3.448,2.283-6.196,2.283
		c-1.711,0-3.216-0.315-4.513-0.946c-1.296-0.632-2.3-1.509-3.009-2.632c-0.708-1.125-1.063-2.386-1.063-3.787
		c0-1.417,0.351-2.684,1.049-3.799c0.701-1.115,1.66-1.983,2.879-2.606c1.22-0.622,2.588-0.933,4.111-0.933
		c1.434,0,2.742,0.285,3.928,0.855c1.184,0.57,2.125,1.409,2.826,2.515c0.699,1.107,1.051,2.429,1.051,3.967
		C190.025,24.659,190,25.117,189.948,25.946z M180.77,21.72c-0.397,0.329-0.658,0.796-0.777,1.4h4.563
		c-0.121-0.587-0.381-1.05-0.777-1.387c-0.397-0.337-0.898-0.505-1.504-0.505C181.667,21.228,181.166,21.392,180.77,21.72z"/>
	<path fill="#FFFFFF" d="M202.031,17.234v5.186c-0.467-0.068-0.899-0.104-1.297-0.104c-2.006,0-3.008,1.02-3.008,3.06v6.301h-5.859
		V17.494h5.574v1.53C198.479,17.831,200.009,17.234,202.031,17.234z"/>
</g>
<g>
	<g>
		<path fill="#54DDCB" d="M77.528,42.1h-2.862v-6.537h2.543c0.443,0,0.825,0.054,1.146,0.16c0.321,0.104,0.56,0.248,0.715,0.43
			c0.299,0.337,0.449,0.718,0.449,1.142c0,0.513-0.163,0.892-0.486,1.142c-0.119,0.086-0.2,0.142-0.244,0.164
			c-0.043,0.021-0.121,0.058-0.233,0.107c0.405,0.087,0.728,0.27,0.968,0.547c0.24,0.275,0.36,0.622,0.36,1.032
			c0,0.456-0.156,0.858-0.468,1.207C79.049,41.896,78.419,42.1,77.528,42.1z M75.77,38.275h1.403c0.798,0,1.197-0.272,1.197-0.813
			c0-0.313-0.097-0.536-0.29-0.674s-0.493-0.205-0.898-0.205H75.77V38.275z M75.77,41.08h1.73c0.405,0,0.715-0.063,0.931-0.189
			c0.215-0.129,0.322-0.371,0.322-0.727c0-0.58-0.464-0.87-1.394-0.87h-1.59L75.77,41.08L75.77,41.08z"/>
		<path fill="#54DDCB" d="M87.039,41.432c-0.499,0.496-1.123,0.743-1.87,0.743c-0.749,0-1.372-0.247-1.871-0.743
			c-0.499-0.494-0.748-1.103-0.748-1.817c0-0.718,0.25-1.325,0.748-1.82c0.499-0.495,1.123-0.743,1.871-0.743
			s1.371,0.248,1.87,0.743s0.749,1.103,0.749,1.82C87.788,40.329,87.538,40.938,87.039,41.432z M84.042,40.786
			c0.295,0.302,0.671,0.453,1.127,0.453c0.455,0,0.831-0.151,1.127-0.453c0.295-0.304,0.444-0.693,0.444-1.173
			c0-0.48-0.148-0.872-0.444-1.176c-0.296-0.302-0.672-0.453-1.127-0.453c-0.456,0-0.832,0.151-1.127,0.453
			c-0.296,0.304-0.445,0.694-0.445,1.176C83.597,40.093,83.746,40.482,84.042,40.786z"/>
		<path fill="#54DDCB" d="M94.895,41.432c-0.499,0.496-1.122,0.743-1.87,0.743c-0.749,0-1.372-0.247-1.871-0.743
			c-0.499-0.494-0.748-1.103-0.748-1.817c0-0.718,0.249-1.325,0.748-1.82s1.123-0.743,1.871-0.743s1.372,0.248,1.87,0.743
			c0.499,0.495,0.749,1.103,0.749,1.82C95.644,40.329,95.394,40.938,94.895,41.432z M91.898,40.786
			c0.296,0.302,0.672,0.453,1.127,0.453s0.831-0.151,1.127-0.453c0.296-0.304,0.444-0.693,0.444-1.173
			c0-0.48-0.148-0.872-0.444-1.176c-0.296-0.302-0.672-0.453-1.127-0.453s-0.831,0.151-1.127,0.453
			c-0.296,0.304-0.444,0.694-0.444,1.176C91.454,40.093,91.602,40.482,91.898,40.786z"/>
		<path fill="#54DDCB" d="M102.134,40.613c0,0.474-0.171,0.853-0.514,1.136c-0.343,0.284-0.782,0.426-1.318,0.426
			c-0.362,0-0.738-0.065-1.127-0.196c-0.389-0.131-0.733-0.313-1.034-0.553l0.505-0.813c0.58,0.437,1.141,0.654,1.683,0.654
			c0.237,0,0.424-0.056,0.562-0.164c0.137-0.108,0.206-0.248,0.206-0.416c0-0.25-0.331-0.474-0.992-0.674
			c-0.051-0.02-0.087-0.031-0.111-0.037c-1.035-0.281-1.553-0.748-1.553-1.402c0-0.461,0.179-0.831,0.538-1.108
			c0.357-0.276,0.824-0.416,1.398-0.416c0.572,0,1.115,0.168,1.626,0.505l-0.394,0.776c-0.405-0.269-0.844-0.401-1.318-0.401
			c-0.25,0-0.452,0.045-0.607,0.135c-0.156,0.09-0.234,0.227-0.234,0.406c0,0.163,0.08,0.281,0.242,0.355
			c0.113,0.057,0.27,0.109,0.473,0.158c0.203,0.051,0.381,0.101,0.538,0.15c0.156,0.051,0.307,0.105,0.454,0.168
			c0.146,0.063,0.304,0.149,0.472,0.262C101.966,39.79,102.134,40.141,102.134,40.613z"/>
		<path fill="#54DDCB" d="M106.37,37.967v2.524c0,0.237,0.063,0.426,0.187,0.565c0.127,0.142,0.301,0.211,0.523,0.211
			c0.227,0,0.439-0.109,0.646-0.328l0.431,0.738c-0.367,0.331-0.774,0.496-1.22,0.496c-0.447,0-0.826-0.154-1.142-0.462
			c-0.315-0.31-0.474-0.726-0.474-1.25v-2.496h-0.627v-0.842h0.627v-1.563h1.048v1.563h1.31v0.842L106.37,37.967L106.37,37.967z"/>
		<path fill="#54DDCB" d="M115.693,44.083c-0.455,0-0.866-0.165-1.233-0.496l0.478-0.851c0.219,0.205,0.444,0.309,0.679,0.309
			c0.233,0,0.424-0.084,0.569-0.253c0.146-0.168,0.219-0.353,0.219-0.552c0-0.088-0.67-1.792-2.01-5.115h1.123l1.485,3.666
			l1.488-3.666h1.122l-2.413,5.911c-0.146,0.323-0.351,0.579-0.617,0.766C116.314,43.989,116.02,44.083,115.693,44.083z"/>
		<path fill="#54DDCB" d="M126.271,41.432c-0.498,0.496-1.123,0.743-1.871,0.743c-0.746,0-1.369-0.247-1.869-0.743
			c-0.499-0.494-0.748-1.103-0.748-1.817c0-0.718,0.249-1.325,0.748-1.82c0.5-0.495,1.123-0.743,1.869-0.743
			c0.748,0,1.373,0.248,1.871,0.743c0.5,0.495,0.75,1.103,0.75,1.82C127.021,40.329,126.771,40.938,126.271,41.432z M123.273,40.786
			c0.297,0.302,0.672,0.453,1.127,0.453c0.457,0,0.832-0.151,1.129-0.453c0.297-0.304,0.443-0.693,0.443-1.173
			c0-0.48-0.146-0.872-0.443-1.176c-0.297-0.302-0.672-0.453-1.129-0.453c-0.455,0-0.83,0.151-1.127,0.453
			c-0.295,0.304-0.443,0.694-0.443,1.176C122.83,40.093,122.979,40.482,123.273,40.786z"/>
		<path fill="#54DDCB" d="M133.445,39.816v-2.691h1.047V42.1h-1.047v-0.906c-0.17,0.306-0.4,0.547-0.696,0.721
			c-0.297,0.175-0.617,0.262-0.958,0.262c-0.563,0-1.016-0.171-1.361-0.514c-0.346-0.344-0.521-0.839-0.521-1.487v-3.049h1.048
			v2.729c0,0.916,0.381,1.375,1.143,1.375c0.361,0,0.676-0.119,0.943-0.359S133.445,40.279,133.445,39.816z"/>
		<path fill="#54DDCB" d="M140.376,38.105c-0.519,0-0.907,0.17-1.169,0.506c-0.262,0.337-0.395,0.789-0.395,1.355V42.1h-1.047
			v-4.975h1.047v1c0.168-0.313,0.397-0.566,0.688-0.768c0.291-0.199,0.597-0.301,0.922-0.309l0.009,1.057
			C140.412,38.105,140.395,38.105,140.376,38.105z"/>
		<path fill="#54DDCB" d="M150.225,37.05c0.666,0,1.237,0.231,1.711,0.691c0.473,0.462,0.709,1.075,0.709,1.843
			s-0.234,1.391-0.705,1.871c-0.472,0.479-1.02,0.72-1.646,0.72c-0.625,0-1.189-0.274-1.688-0.821V42.1h-1.049v-6.938h1.049v2.833
			C149.016,37.365,149.557,37.05,150.225,37.05z M148.586,39.622c0,0.474,0.145,0.86,0.43,1.164
			c0.289,0.302,0.639,0.453,1.049,0.453c0.412,0,0.771-0.148,1.074-0.448c0.307-0.3,0.459-0.688,0.459-1.165
			s-0.149-0.873-0.447-1.188c-0.299-0.313-0.658-0.472-1.076-0.472s-0.77,0.157-1.059,0.472
			C148.729,38.753,148.586,39.148,148.586,39.622z"/>
		<path fill="#54DDCB" d="M159.081,39.816v-2.691h1.047V42.1h-1.047v-0.906c-0.169,0.306-0.401,0.547-0.698,0.721
			c-0.297,0.175-0.615,0.262-0.958,0.262c-0.562,0-1.015-0.171-1.36-0.514c-0.347-0.344-0.52-0.839-0.52-1.487v-3.049h1.048v2.729
			c0,0.916,0.38,1.375,1.142,1.375c0.361,0,0.676-0.119,0.945-0.359C158.947,40.631,159.081,40.279,159.081,39.816z"/>
		<path fill="#54DDCB" d="M166.945,40.613c0,0.474-0.172,0.853-0.516,1.136c-0.342,0.284-0.781,0.426-1.318,0.426
			c-0.359,0-0.737-0.065-1.127-0.196c-0.391-0.131-0.732-0.313-1.033-0.553l0.506-0.813c0.58,0.437,1.141,0.654,1.686,0.654
			c0.234,0,0.422-0.056,0.56-0.164c0.139-0.108,0.205-0.248,0.205-0.416c0-0.25-0.329-0.474-0.99-0.674
			c-0.051-0.02-0.087-0.031-0.11-0.037c-1.035-0.281-1.554-0.748-1.554-1.402c0-0.461,0.179-0.831,0.537-1.108
			c0.356-0.276,0.823-0.416,1.397-0.416c0.572,0,1.114,0.168,1.627,0.505l-0.393,0.776c-0.406-0.269-0.845-0.401-1.318-0.401
			c-0.25,0-0.453,0.045-0.606,0.135c-0.156,0.09-0.235,0.227-0.235,0.406c0,0.163,0.081,0.281,0.243,0.355
			c0.113,0.057,0.271,0.109,0.474,0.158c0.203,0.051,0.381,0.101,0.537,0.15c0.156,0.051,0.308,0.105,0.452,0.168
			c0.148,0.063,0.306,0.149,0.474,0.262C166.777,39.79,166.945,40.141,166.945,40.613z"/>
		<path fill="#54DDCB" d="M169.957,36.133c-0.132-0.131-0.195-0.285-0.195-0.468c0-0.181,0.063-0.336,0.195-0.467
			c0.13-0.132,0.286-0.196,0.467-0.196c0.182,0,0.338,0.064,0.471,0.196c0.129,0.131,0.193,0.286,0.193,0.467
			c0,0.183-0.064,0.337-0.193,0.468c-0.133,0.131-0.289,0.197-0.471,0.197C170.243,36.33,170.087,36.264,169.957,36.133z
			 M170.939,42.1h-1.049v-4.975h1.049V42.1z"/>
		<path fill="#54DDCB" d="M175.262,39.407V42.1h-1.05v-4.975h1.05v0.907c0.168-0.306,0.398-0.548,0.695-0.722
			c0.296-0.175,0.615-0.262,0.958-0.262c0.563,0,1.015,0.172,1.36,0.514c0.347,0.345,0.519,0.84,0.519,1.488V42.1h-1.047V39.37
			c0-0.916-0.38-1.375-1.142-1.375c-0.36,0-0.676,0.121-0.942,0.36C175.395,38.596,175.262,38.945,175.262,39.407z"/>
		<path fill="#54DDCB" d="M186.641,40.07h-3.897c0.024,0.361,0.19,0.652,0.495,0.875c0.307,0.221,0.654,0.332,1.047,0.332
			c0.623,0,1.099-0.197,1.423-0.59l0.599,0.654c-0.537,0.555-1.234,0.832-2.097,0.832c-0.698,0-1.29-0.232-1.778-0.697
			c-0.492-0.463-0.736-1.086-0.736-1.869c0-0.782,0.25-1.404,0.748-1.866c0.498-0.46,1.088-0.691,1.764-0.691
			s1.252,0.205,1.727,0.612c0.475,0.408,0.709,0.972,0.709,1.688v0.721H186.641z M182.742,39.247h2.852
			c0-0.417-0.13-0.738-0.392-0.963c-0.263-0.224-0.585-0.337-0.97-0.337c-0.383,0-0.729,0.117-1.032,0.352
			C182.895,38.532,182.742,38.85,182.742,39.247z"/>
		<path fill="#54DDCB" d="M193.096,40.613c0,0.474-0.173,0.853-0.517,1.136c-0.341,0.284-0.781,0.426-1.317,0.426
			c-0.359,0-0.738-0.065-1.128-0.196s-0.731-0.313-1.032-0.553l0.506-0.813c0.58,0.437,1.141,0.654,1.685,0.654
			c0.235,0,0.422-0.056,0.56-0.164c0.139-0.108,0.205-0.248,0.205-0.416c0-0.25-0.328-0.474-0.99-0.674
			c-0.051-0.02-0.086-0.031-0.11-0.037c-1.035-0.281-1.554-0.748-1.554-1.402c0-0.461,0.18-0.831,0.537-1.108
			c0.357-0.276,0.824-0.416,1.398-0.416c0.572,0,1.114,0.168,1.626,0.505l-0.392,0.776c-0.406-0.269-0.846-0.401-1.319-0.401
			c-0.25,0-0.452,0.045-0.606,0.135c-0.155,0.09-0.234,0.227-0.234,0.406c0,0.163,0.081,0.281,0.242,0.355
			c0.113,0.057,0.271,0.109,0.474,0.158c0.203,0.051,0.382,0.101,0.538,0.15c0.156,0.051,0.307,0.105,0.452,0.168
			c0.147,0.063,0.305,0.149,0.474,0.262C192.927,39.79,193.096,40.141,193.096,40.613z"/>
		<path fill="#54DDCB" d="M199.586,40.613c0,0.474-0.173,0.853-0.516,1.136c-0.342,0.284-0.781,0.426-1.317,0.426
			c-0.36,0-0.739-0.065-1.129-0.196s-0.731-0.313-1.032-0.553l0.506-0.813c0.579,0.437,1.141,0.654,1.685,0.654
			c0.235,0,0.422-0.056,0.561-0.164c0.138-0.108,0.205-0.248,0.205-0.416c0-0.25-0.329-0.474-0.991-0.674
			c-0.051-0.02-0.086-0.031-0.111-0.037c-1.034-0.281-1.553-0.748-1.553-1.402c0-0.461,0.18-0.831,0.539-1.108
			c0.356-0.276,0.823-0.416,1.397-0.416c0.571,0,1.114,0.168,1.626,0.505l-0.393,0.776c-0.405-0.269-0.845-0.401-1.318-0.401
			c-0.25,0-0.453,0.045-0.607,0.135c-0.156,0.09-0.234,0.227-0.234,0.406c0,0.163,0.08,0.281,0.242,0.355
			c0.114,0.057,0.271,0.109,0.475,0.158c0.203,0.051,0.381,0.101,0.537,0.15c0.156,0.051,0.307,0.105,0.453,0.168
			c0.147,0.063,0.305,0.149,0.473,0.262C199.417,39.79,199.586,40.141,199.586,40.613z"/>
	</g>
</g>
</svg>
