<svg width="250" height="250" viewBox="0 0 250 250" fill="none" xmlns="http://www.w3.org/2000/svg">
<path fill-rule="evenodd" clip-rule="evenodd" d="M17.9468 113.36L23.3261 122.458L31.2265 108.567C31.2265 108.567 31.4673 107.479 31.0177 112.383C30.9584 113.029 30.9028 113.721 30.8448 114.442C30.463 119.186 29.9799 125.188 27.6938 127.898C25.1349 130.932 22.3636 131.926 19.1886 133.065L18.9103 133.165C16.4331 133.956 13.8658 134.443 11.2669 134.615L6 146L18.8461 143.587C28.2237 141.821 30.4396 140.355 32.6235 138.368C34.0083 136.902 34.846 135.017 35 133.023V84L17.9468 113.36ZM52.9889 113.36L47.6257 122.458L39.7575 108.567C39.7575 108.567 39.5327 107.479 39.9823 112.383C40.0403 113.016 40.0952 113.692 40.1523 114.396C40.5376 119.147 41.0267 125.179 43.3062 127.898C45.7918 130.863 48.5671 131.88 51.5907 132.988L51.591 132.988L51.5912 132.988C51.7513 133.046 51.9121 133.105 52.0736 133.165C54.5377 133.935 57.0884 134.406 59.6689 134.568L65 146L52.1539 143.587C42.7763 141.821 40.5443 140.355 38.3765 138.368C36.9917 136.902 36.154 135.017 36 133.023V84L52.9889 113.36ZM221.416 117.081L219.795 121.699H223.038L221.416 117.081ZM217.865 127H216L221.157 113H223.005L228 127H224.854L223.541 123.13H219.227L217.865 127ZM80.0635 116.122V127H83V125.504V113H80.1111L76.6508 119.065L73.2064 113H70V114.496V127H71.6508V125.504V116.122L75.8571 123.602L80.0635 116.122ZM92.1356 118.837H96.3898V120.285H94.7966H92.1356V125.553H98V127H89V114.496V113H98V114.447H95.9661H92.1356V118.837ZM109.001 125.504V114.447H113V113H102V114.447H103.958H105.982V127H109.001V125.504ZM121.789 114.48H120.827V119.244H121.789C122.371 119.21 122.916 118.93 123.307 118.464C123.699 117.999 123.904 117.385 123.88 116.756C123.88 116.155 123.66 115.579 123.268 115.152C122.877 114.726 122.345 114.484 121.789 114.48ZM118 127V113H121.759C124.18 113 126.932 114.154 126.932 116.724C126.887 117.505 126.62 118.251 126.168 118.863C125.716 119.474 125.101 119.919 124.406 120.138L128 127H124.752L121.744 120.659H120.797V127H118ZM137.974 125.552C135.219 125.552 134.722 122.411 134.722 119.916C134.722 117.345 135.219 114.265 137.974 114.265C140.73 114.265 141.226 117.36 141.226 119.916C141.226 122.473 140.73 125.552 137.974 125.552ZM135.2 126.356C136.074 126.734 137.023 126.953 137.991 127C138.961 126.955 139.912 126.737 140.788 126.36C141.664 125.983 142.448 125.453 143.096 124.802C143.744 124.151 144.241 123.39 144.561 122.565C144.88 121.74 145.015 120.866 144.957 119.993C145.066 119.113 144.967 118.222 144.667 117.378C144.367 116.535 143.872 115.758 143.216 115.098C142.559 114.438 141.755 113.91 140.857 113.548C139.958 113.187 138.984 113 138 113C137.016 113 136.042 113.187 135.143 113.548C134.245 113.91 133.441 114.438 132.784 115.098C132.128 115.758 131.633 116.535 131.333 117.378C131.033 118.222 130.934 119.113 131.043 119.993C130.985 120.865 131.119 121.737 131.438 122.562C131.756 123.386 132.252 124.146 132.898 124.797C133.544 125.448 134.326 125.978 135.2 126.356ZM151.862 119.813H153.417C154.097 119.813 154.75 119.53 155.231 119.027C155.713 118.524 155.983 117.842 155.983 117.13C155.983 116.419 155.713 115.736 155.231 115.233C154.75 114.73 154.097 114.447 153.417 114.447H151.862V119.813ZM151.815 127H149V113H153.37C156.061 113 159 114.35 159 117.13C159 119.911 156.061 121.26 153.37 121.26H151.815V127ZM170 125.567C167.638 125.567 167.213 122.458 167.213 119.988C167.213 117.443 167.638 114.394 170 114.394C172.362 114.394 172.787 117.458 172.787 119.988C172.787 122.519 172.362 125.567 170 125.567ZM167.608 126.286C168.357 126.66 169.17 126.877 170 126.924V127C170.837 126.954 171.656 126.734 172.41 126.355C173.165 125.976 173.839 125.445 174.393 124.792C174.948 124.139 175.372 123.378 175.64 122.554C175.908 121.729 176.016 120.857 175.956 119.988C176.059 119.112 175.981 118.224 175.729 117.381C175.476 116.539 175.055 115.762 174.492 115.101C173.929 114.441 173.237 113.912 172.463 113.549C171.689 113.187 170.849 113 170 113C169.151 113 168.311 113.187 167.537 113.549C166.763 113.912 166.071 114.441 165.508 115.101C164.945 115.762 164.524 116.539 164.271 117.381C164.019 118.224 163.941 119.112 164.044 119.988C163.994 120.85 164.109 121.714 164.382 122.53C164.655 123.346 165.081 124.098 165.634 124.743C166.188 125.387 166.858 125.912 167.608 126.286ZM182 113H184.857V125.553H188.131H190V127H182V114.496V113ZM199 125.504V113H195V114.496V127H199V125.504ZM209.356 114.447V125.504V127H206.615V114.447H204.793H203V113H213V114.447H209.356ZM243 127V113H241.514V114.452V119.929L236.192 113H234V114.452V126.59H235.5V125.138V116.662L243 127Z" fill="#040E1D"/>
</svg>
