<svg width="50" height="50" viewBox="0 0 50 50" fill="none" xmlns="http://www.w3.org/2000/svg">
<path fill-rule="evenodd" clip-rule="evenodd" d="M3.39268 12.749L7.04268 16.399C7.39893 16.7563 7.97705 16.7563 8.3333 16.399L15.6354 9.09795C15.9916 8.7417 15.9916 8.16357 15.6354 7.80732L14.3448 6.5167C13.9885 6.16045 13.4104 6.16045 13.0541 6.5167L7.68851 11.8823L5.97393 10.1677C5.61768 9.81149 5.03955 9.81149 4.6833 10.1677L3.39268 11.4584C3.03643 11.8146 3.03643 12.3927 3.39268 12.749ZM20.8334 14.5833H44.7917C45.3647 14.5833 45.8334 14.1145 45.8334 13.5416V11.4583C45.8334 10.8854 45.3647 10.4166 44.7917 10.4166H20.8334C20.2605 10.4166 19.7917 10.8854 19.7917 11.4583V13.5416C19.7917 14.1145 20.2605 14.5833 20.8334 14.5833ZM44.7917 27.0833H20.8334C20.2605 27.0833 19.7917 26.6145 19.7917 26.0416V23.9583C19.7917 23.3854 20.2605 22.9166 20.8334 22.9166H44.7917C45.3647 22.9166 45.8334 23.3854 45.8334 23.9583V26.0416C45.8334 26.6145 45.3647 27.0833 44.7917 27.0833ZM3.39268 25.249L7.04268 28.899C7.39893 29.2563 7.97705 29.2563 8.3333 28.899L15.6354 21.5979C15.9916 21.2417 15.9916 20.6636 15.6354 20.3073L14.3448 19.0167C13.9885 18.6604 13.4104 18.6604 13.0541 19.0167L7.68851 24.3823L5.97393 22.6677C5.61768 22.3115 5.03955 22.3115 4.6833 22.6677L3.39268 23.9584C3.03643 24.3146 3.03643 24.8927 3.39268 25.249ZM44.7917 39.5833H20.8334C20.2605 39.5833 19.7917 39.1145 19.7917 38.5416V36.4583C19.7917 35.8854 20.2605 35.4166 20.8334 35.4166H44.7917C45.3647 35.4166 45.8334 35.8854 45.8334 36.4583V38.5416C45.8334 39.1145 45.3647 39.5833 44.7917 39.5833ZM3.39268 37.749L7.04268 41.399C7.39893 41.7563 7.97705 41.7563 8.3333 41.399L15.6354 34.0979C15.9916 33.7417 15.9916 33.1636 15.6354 32.8073L14.3448 31.5167C13.9885 31.1604 13.4104 31.1604 13.0541 31.5167L7.68851 36.8823L5.97393 35.1677C5.61768 34.8115 5.03955 34.8115 4.6833 35.1677L3.39268 36.4584C3.03643 36.8146 3.03643 37.3927 3.39268 37.749Z" fill="url(#paint0_radial)"/>
<defs>
<radialGradient id="paint0_radial" cx="0" cy="0" r="1" gradientUnits="userSpaceOnUse" gradientTransform="translate(45.8334 6.24951) rotate(140.331) scale(55.483 50.8634)">
<stop stop-color="#5DF8E3"/>
<stop offset="0.410668" stop-color="#54DDCB"/>
<stop offset="1" stop-color="#205CD2"/>
</radialGradient>
</defs>
</svg>
