<svg width="250" height="250" viewBox="0 0 250 250" fill="none" xmlns="http://www.w3.org/2000/svg">
<path fill-rule="evenodd" clip-rule="evenodd" d="M139.172 89.3992C139.172 89.3992 165.686 80.0305 193.03 96.455L193.216 106.359C193.216 106.359 203.389 103.268 213 106.938L203.575 115.388C203.575 115.388 179.029 87.4245 141.326 97.9542L139.172 89.3992ZM90.6475 156.76H98.8867C105.175 156.76 110.668 155.278 110.668 149.104C110.668 145.071 107.7 142.519 103.492 142.19C107.39 141.202 109.871 139.226 109.871 135.275C109.871 129.965 105.441 128.031 99.0189 128.031H90.6475V156.76ZM95.077 143.672H97.9555C101.765 143.672 105.973 144.29 105.973 148.734C105.973 152.602 102.385 153.385 98.3991 153.385H95.077V143.672ZM95.077 131.407H99.7282C102.297 131.407 105.441 132.27 105.441 135.686C105.441 139.926 101.809 140.297 97.5135 140.297H95.077V131.407ZM138.026 128.745C135.811 127.839 133.464 127.509 131.072 127.509C121.637 127.509 114.727 133.396 114.727 142.245C114.727 151.382 121.239 157.227 131.028 157.227C132.843 157.227 135.723 157.104 138.07 156.198L137.804 152.205C136.255 153.07 133.287 153.604 131.072 153.604C124.649 153.604 119.422 149.118 119.422 142.368C119.422 135.906 124.162 131.131 131.294 131.131C133.552 131.131 135.723 131.666 137.672 132.736L138.026 128.745ZM73.6951 137.407L68.9299 148.143H78.5135L73.6951 137.407ZM80.1753 151.795H67.1754L64.8392 156.792H60.2714L73.4961 128.214L86.8788 156.792H82.3703L80.1753 151.795ZM56.521 128.572C54.3958 127.872 51.9593 127.542 49.9223 127.542C44.3399 127.542 40 130.26 40 135.364C40 140.197 43.8916 141.897 47.4628 143.456C50.4908 144.779 53.2885 146 53.2885 148.947C53.2885 152.321 49.7446 153.638 47.2199 153.638C44.9612 153.638 42.3028 152.815 40.7975 152.238L40.3539 156.066C42.391 156.684 44.5176 157.261 46.6883 157.261C52.889 157.261 57.9838 154.831 57.9838 148.699C57.9838 143.33 53.7095 141.416 50.0092 139.76C47.1851 138.495 44.6953 137.38 44.6953 134.993C44.6953 131.988 47.6179 131.165 50.0985 131.165C52.4029 131.165 53.6424 131.536 55.9012 132.358L56.521 128.572ZM132.549 117.529L128.153 110.628C169.037 89.7726 198.675 119.863 198.675 119.863L192.013 125.306C164.114 100.289 132.549 117.529 132.549 117.529ZM156.803 119.883C156.803 119.883 172.712 118.047 185.452 131.265L179.34 137.427C179.34 137.427 173.042 128.677 156.803 127.926V119.883ZM174.433 142.325C166.05 135.036 156.803 136.432 156.803 136.432L157.185 157.261L174.433 142.325Z" fill="#040E1D"/>
</svg>
