<svg width="250" height="250" viewBox="0 0 250 250" fill="none" xmlns="http://www.w3.org/2000/svg">
<path fill-rule="evenodd" clip-rule="evenodd" d="M32.7394 151C49.6702 151 63.3831 137.285 63.3831 120.378C63.3831 108.152 56.2219 97.6048 45.8648 92.6948C45.8696 92.6938 45.8744 92.6928 45.8792 92.6918C45.8569 92.684 45.8339 92.6765 45.8104 92.6691C41.8492 90.8008 37.4226 89.7563 32.7516 89.7563C15.8208 89.7563 2.10791 103.472 2.10791 120.378C2.10791 137.285 15.8208 150.988 32.7394 151ZM45.8104 92.6691C45.2814 92.504 44.4548 92.4482 43.673 92.4482C37.298 92.4726 30.2648 95.1888 25.1332 99.4398C19.8796 103.8 15.7597 111.133 15.784 118.758C15.8206 130.293 24.5725 137.467 32.9952 137.443C43.3804 137.407 49.536 128.88 49.5116 121.085C49.4872 113.301 45.2454 107.674 35.9206 105.408C35.9084 105.311 35.8841 105.104 35.8841 104.909C35.8719 99.043 40.3011 93.858 45.8648 92.6948C45.8467 92.6862 45.8285 92.6777 45.8104 92.6691Z" fill="#040E1D"/>
<path d="M79.9239 110.719L85.7747 125.543L91.4305 110.719H97.2692L88.176 133.058H83.1663L73.8049 110.719H79.9239Z" fill="#040E1D"/>
<path d="M113.578 121.767C113.578 120.841 113.469 119.952 113.249 119.111C113.03 118.271 112.713 117.552 112.274 116.943C111.835 116.334 111.311 115.859 110.702 115.506C110.08 115.153 109.361 114.97 108.52 114.97C107.691 114.97 106.96 115.153 106.338 115.506C105.716 115.859 105.192 116.346 104.765 116.943C104.327 117.552 104.01 118.271 103.79 119.111C103.571 119.952 103.461 120.829 103.461 121.767C103.461 122.729 103.571 123.618 103.79 124.446C104.01 125.263 104.327 125.993 104.741 126.602C105.156 127.224 105.68 127.711 106.313 128.064C106.947 128.417 107.679 128.6 108.52 128.6C109.361 128.6 110.08 128.417 110.702 128.064C111.323 127.711 111.847 127.224 112.274 126.602C112.713 125.981 113.03 125.263 113.249 124.446C113.469 123.618 113.578 122.729 113.578 121.767ZM119.234 121.791C119.234 123.241 119.015 124.678 118.564 126.079C118.113 127.492 117.454 128.746 116.565 129.855C115.687 130.963 114.566 131.864 113.225 132.546C111.884 133.229 110.312 133.57 108.52 133.57C106.728 133.57 105.156 133.229 103.815 132.546C102.474 131.864 101.352 130.975 100.475 129.855C99.5972 128.746 98.9268 127.479 98.4758 126.079C98.0248 124.678 97.8054 123.241 97.8054 121.791C97.8054 120.342 98.0248 118.916 98.4758 117.528C98.9268 116.139 99.585 114.897 100.475 113.801C101.352 112.704 102.474 111.827 103.815 111.157C105.156 110.5 106.728 110.159 108.52 110.159C110.312 110.159 111.872 110.488 113.2 111.157C114.529 111.827 115.638 112.704 116.54 113.801C117.442 114.897 118.113 116.139 118.564 117.528C119.015 118.916 119.234 120.342 119.234 121.791Z" fill="#040E1D"/>
<path d="M136.506 115.628C135.397 115.189 134.373 114.982 133.41 114.982C132.423 114.982 131.582 115.165 130.875 115.542C130.168 115.92 129.583 116.419 129.12 117.053C128.656 117.686 128.315 118.405 128.084 119.197C127.852 119.988 127.742 120.804 127.742 121.633C127.742 122.558 127.84 123.46 128.047 124.312C128.242 125.165 128.559 125.908 128.973 126.541C129.388 127.175 129.912 127.686 130.546 128.076C131.18 128.466 131.923 128.661 132.789 128.661C133.496 128.661 134.215 128.466 134.958 128.076C135.69 127.686 136.214 127.236 136.531 126.7V115.628H136.506ZM136.97 133.058L136.738 131.341C136.214 131.925 135.519 132.449 134.654 132.9C133.788 133.35 132.776 133.57 131.606 133.57C130.07 133.57 128.705 133.241 127.535 132.595C126.365 131.95 125.378 131.085 124.573 130.001C123.769 128.917 123.159 127.662 122.745 126.249C122.33 124.824 122.123 123.35 122.123 121.803C122.123 120.354 122.342 118.929 122.769 117.54C123.196 116.151 123.854 114.909 124.732 113.813C125.609 112.717 126.706 111.84 128.035 111.17C129.363 110.512 130.911 110.171 132.703 110.171C133.873 110.171 135.141 110.39 136.494 110.816V102.156H142.247V133.07H136.97V133.058Z" fill="#040E1D"/>
<path d="M158.447 122.583C157.825 122.619 157.192 122.668 156.533 122.741C155.875 122.814 155.253 122.924 154.668 123.046C153.425 123.289 152.56 123.716 152.072 124.325C151.584 124.921 151.353 125.579 151.353 126.298C151.353 127.041 151.621 127.638 152.17 128.088C152.718 128.539 153.486 128.758 154.486 128.758C155.229 128.758 155.96 128.6 156.655 128.295C157.35 127.991 157.959 127.601 158.459 127.138V122.583H158.447ZM158.91 133.034L158.679 131.365C158.057 132.047 157.265 132.595 156.302 132.973C155.339 133.363 154.29 133.557 153.132 133.557C152.17 133.557 151.243 133.399 150.366 133.07C149.476 132.741 148.696 132.279 148.013 131.682C147.33 131.085 146.782 130.342 146.355 129.453C145.941 128.576 145.734 127.577 145.734 126.468C145.734 125.36 145.953 124.373 146.38 123.521C146.818 122.668 147.404 121.949 148.147 121.365C148.891 120.78 149.744 120.293 150.707 119.927C151.67 119.562 152.681 119.282 153.73 119.099C154.473 118.941 155.29 118.831 156.18 118.758C157.057 118.685 157.801 118.612 158.386 118.551V118.222C158.386 116.98 158.069 116.103 157.435 115.579C156.801 115.055 155.924 114.787 154.802 114.787C154.144 114.787 153.523 114.86 152.937 115.019C152.352 115.177 151.816 115.36 151.353 115.603C150.89 115.835 150.475 116.066 150.122 116.298C149.768 116.529 149.476 116.736 149.256 116.919L147.367 112.899C147.611 112.68 147.989 112.424 148.501 112.108C149.013 111.803 149.634 111.499 150.353 111.206C151.085 110.914 151.901 110.67 152.816 110.463C153.73 110.268 154.705 110.159 155.765 110.159C156.996 110.159 158.13 110.317 159.154 110.646C160.178 110.975 161.055 111.474 161.799 112.181C162.543 112.875 163.115 113.752 163.542 114.824C163.957 115.884 164.164 117.175 164.164 118.685V133.046H158.91V133.034Z" fill="#040E1D"/>
<path d="M186.372 131.036C186.153 131.194 185.824 131.401 185.361 131.682C184.898 131.962 184.325 132.23 183.63 132.485C182.935 132.741 182.131 132.973 181.216 133.155C180.29 133.338 179.254 133.436 178.084 133.436C176.731 133.436 175.439 133.204 174.195 132.741C172.952 132.278 171.843 131.572 170.892 130.622C169.929 129.672 169.161 128.478 168.601 127.041C168.028 125.603 167.747 123.898 167.747 121.937C167.747 119.976 168.028 118.259 168.576 116.785C169.137 115.311 169.88 114.081 170.831 113.106C171.77 112.12 172.867 111.401 174.098 110.926C175.329 110.451 176.621 110.207 177.974 110.207C179.266 110.207 180.388 110.378 181.363 110.719C182.326 111.06 183.167 111.474 183.874 111.986C184.581 112.497 185.154 113.058 185.605 113.667C186.043 114.276 186.409 114.86 186.689 115.408L182.46 118.259C181.997 117.467 181.424 116.724 180.729 116.03C180.034 115.335 179.144 114.994 178.035 114.994C176.804 114.994 175.743 115.542 174.829 116.626C173.927 117.71 173.476 119.404 173.476 121.706C173.476 123.91 173.939 125.603 174.854 126.761C175.78 127.93 177.109 128.515 178.852 128.515C179.681 128.515 180.424 128.429 181.082 128.259C181.741 128.088 182.313 127.893 182.813 127.662C183.301 127.431 183.715 127.199 184.032 126.956C184.349 126.712 184.593 126.505 184.739 126.359L186.372 131.036Z" fill="#040E1D"/>
<path d="M203.986 121.718C203.986 120.792 203.876 119.915 203.669 119.087C203.449 118.259 203.132 117.54 202.706 116.943C202.279 116.347 201.755 115.871 201.146 115.518C200.536 115.165 199.805 114.982 198.988 114.982C198.159 114.982 197.44 115.165 196.818 115.518C196.209 115.871 195.685 116.347 195.258 116.943C194.832 117.54 194.502 118.259 194.295 119.087C194.076 119.915 193.978 120.792 193.978 121.718C193.978 122.668 194.088 123.557 194.295 124.373C194.515 125.19 194.819 125.908 195.234 126.517C195.648 127.126 196.172 127.613 196.794 127.967C197.428 128.32 198.147 128.503 198.976 128.503C199.805 128.503 200.524 128.332 201.133 127.967C201.743 127.613 202.267 127.126 202.694 126.517C203.12 125.896 203.449 125.19 203.657 124.373C203.876 123.57 203.986 122.68 203.986 121.718ZM209.605 121.742C209.605 123.18 209.386 124.605 208.935 125.993C208.484 127.394 207.825 128.637 206.96 129.745C206.082 130.854 204.985 131.743 203.644 132.413C202.304 133.083 200.756 133.424 198.976 133.424C197.196 133.424 195.636 133.083 194.307 132.413C192.967 131.743 191.87 130.854 190.992 129.745C190.114 128.637 189.456 127.394 189.017 125.993C188.579 124.605 188.347 123.18 188.347 121.742C188.347 120.305 188.566 118.892 189.017 117.516C189.456 116.139 190.127 114.897 190.992 113.813C191.87 112.729 192.967 111.852 194.307 111.194C195.648 110.536 197.196 110.208 198.976 110.208C200.756 110.208 202.304 110.536 203.62 111.194C204.936 111.852 206.046 112.729 206.935 113.813C207.825 114.897 208.496 116.139 208.935 117.516C209.373 118.892 209.605 120.305 209.605 121.742Z" fill="#040E1D"/>
<path d="M240.188 132.924V119.903C240.188 118.429 239.908 117.248 239.359 116.334C238.811 115.433 237.774 114.982 236.275 114.982C235.849 114.982 235.41 115.055 234.959 115.189C234.52 115.323 234.093 115.482 233.691 115.677C233.289 115.859 232.935 116.054 232.631 116.249C232.326 116.444 232.082 116.627 231.899 116.773C231.96 117.138 232.021 117.552 232.082 118.015C232.143 118.478 232.18 118.977 232.18 119.538V132.924H226.475V119.903C226.475 119.233 226.426 118.588 226.317 117.991C226.207 117.394 226.012 116.87 225.744 116.432C225.463 115.993 225.11 115.64 224.659 115.372C224.22 115.116 223.659 114.982 222.977 114.982C222.111 114.982 221.307 115.214 220.539 115.677C219.771 116.139 219.125 116.627 218.613 117.15V132.924H212.908V110.756H218.15L218.381 112.412C219.064 111.803 219.893 111.279 220.892 110.853C221.892 110.427 222.891 110.208 223.915 110.208C224.964 110.208 226 110.366 227.024 110.695C228.047 111.011 229.01 111.572 229.9 112.376C230.912 111.767 232.033 111.243 233.24 110.829C234.459 110.415 235.751 110.208 237.141 110.208C238.798 110.208 240.188 110.427 241.309 110.853C242.431 111.279 243.333 111.901 244.003 112.692C244.686 113.496 245.161 114.471 245.454 115.64C245.746 116.809 245.892 118.137 245.892 119.647V132.936H240.188V132.924Z" fill="#040E1D"/>
</svg>
