<svg xmlns="http://www.w3.org/2000/svg" width="40" height="40" fill="none" viewBox="0 0 40 40">
    <path fill="url(#paint0_radial)" d="M27.2 23.2H12.8v13.65c0 .582.61.942 1.09.642L20 33.681l6.11 3.811c.48.3 1.09-.06 1.09-.642V23.2z"/>
    <path fill="url(#paint1_radial)" d="M32.871 14.713l-.95-.572c-.405-.243-.679-.643-.802-1.098-.004-.009-.004-.017-.007-.026-.127-.46-.089-.95.143-1.366l.538-.97c.551-.991-.153-2.213-1.288-2.232l-1.12-.02c-.474-.008-.913-.219-1.247-.553l-.01-.011c-.338-.335-.547-.775-.555-1.25l-.02-1.119c-.018-1.134-1.24-1.839-2.231-1.288l-.97.539c-.418.231-.906.269-1.365.143l-.026-.007c-.455-.124-.855-.398-1.098-.803l-.572-.95c-.583-.973-1.994-.973-2.577 0l-.568.946c-.245.409-.65.684-1.107.81l-.015.004c-.464.127-.956.09-1.377-.145l-.966-.536c-.99-.55-2.213.154-2.232 1.289l-.02 1.118c-.008.473-.22.914-.554 1.248l-.01.01c-.335.337-.776.546-1.249.555l-1.119.019c-1.134.018-1.839 1.239-1.288 2.232l.539.97c.231.418.269.906.143 1.365l-.009.026c-.124.456-.398.855-.802 1.099l-.95.571c-.973.583-.973 1.995 0 2.578l.95.571c.405.244.678.643.802 1.1.003.007.004.016.007.025.126.46.088.949-.143 1.365l-.538.97c-.551.991.153 2.214 1.288 2.232l1.119.02c.474.008.914.219 1.248.553l.01.01c.337.336.546.776.555 1.25l.018 1.119c.02 1.134 1.241 1.839 2.232 1.288l.97-.539c.418-.231.906-.269 1.365-.143l.026.007c.455.124.855.398 1.098.803l.572.95c.583.973 1.994.973 2.577 0l.571-.95c.244-.405.643-.679 1.099-.803l.026-.007c.459-.126.949-.088 1.365.143l.97.54c.99.55 2.212-.154 2.231-1.29l.02-1.119c.008-.474.218-.914.553-1.248l.01-.01c.335-.337.776-.546 1.249-.555l1.119-.019c1.134-.018 1.839-1.24 1.288-2.232l-.539-.97c-.23-.418-.269-.906-.142-1.365.003-.008.003-.017.006-.026.124-.456.398-.855.803-1.099l.95-.571c.979-.583.979-1.992.006-2.576z"/>
    <path stroke="#D0FBF6" stroke-miterlimit="10" stroke-width="2" d="M20 24c3.977 0 7.2-3.403 7.2-7.6 0-4.197-3.223-7.6-7.2-7.6-3.976 0-7.2 3.403-7.2 7.6 0 4.197 3.224 7.6 7.2 7.6z"/>
    <defs>
        <radialGradient id="paint0_radial" cx="0" cy="0" r="1" gradientTransform="rotate(135 8.795 17.233) scale(20.3647 18.9971)" gradientUnits="userSpaceOnUse">
            <stop stop-color="#5DF8E3"/>
            <stop offset=".411" stop-color="#54DDCB"/>
            <stop offset="1" stop-color="#205CD2"/>
        </radialGradient>
        <radialGradient id="paint1_radial" cx="0" cy="0" r="1" gradientTransform="matrix(-27.2 27.2 -25.3734 -25.3734 33.6 2.4)" gradientUnits="userSpaceOnUse">
            <stop stop-color="#5DF8E3"/>
            <stop offset=".411" stop-color="#54DDCB"/>
            <stop offset="1" stop-color="#205CD2"/>
        </radialGradient>
    </defs>
</svg>
