<svg xmlns="http://www.w3.org/2000/svg" width="48" height="48" fill="none" viewBox="0 0 48 48">
    <path fill="url(#paint0_radial)" d="M44 24c0 11.045-8.955 20-20 20S4 35.045 4 24 12.955 4 24 4s20 8.955 20 20z"/>
    <path fill="#D0FBF6" d="M23.77 34.508c.23.683 0 1.596-.229 2.055-.225.684-.454 1.597-.913 2.051-.454.459-.913.689-1.367.917-.684.454-1.142 1.367-1.826 2.055 0 .225-.913 1.386-1.142 1.386-.085.045-.166.086-.248.127-1.348-.42-2.628-.988-3.837-1.669l-.026-.072c0-.229-.225-1.6-.225-1.826-.229-.687-.459-1.6-.687-2.284-.454-1.142-1.367-2.284-1.367-3.651 0-1.143.225-2.28-.459-3.197-.913-1.142-2.739-1.142-3.652-1.826-1.372-.913-2.739-2.28-3.423-3.652-.163-.27-.273-.521-.363-.768C4.007 24.101 4 24.052 4 24c0-5.356 2.118-10.21 5.548-13.8 1.876-1.517 5.535-2.215 7.756-1.545.684.225 3.145 1.697 3.145 2.381 0 .229 0 .229-.229.459-.225.229-.455.229-.684.229-.684 0-2.839-.497-3.069-.727-1.372-.458-3.423 2.51-3.651 3.423-.229.687-.229 2.284.913 2.513.684 0 3.814-2.656 4.273-2.885 1.826-.225 3.237 1.34 3.696 2.941.684 1.826-3.175 3.591-4.547 4.05-.454.229-.683-.229-1.142 0-1.138.454-1.811 1.474-1.947 2.839-.115 1.155-.229 2.281-.454 3.423-.229 0-.698-.003-.698-.232v-.454c0-.689-.229-1.601-.913-1.83-.229-.224-.552.136-.781.136-.684 0-1.367-.687-2.051-.229-.459.454-.913 1.142-.913 1.826 0 .23 0 .459.225.684.459.229.913-.225 1.372 0 .454 0 .454.459.454.687.459.684.913 1.597 1.6 1.826h4.564c.684.229 1.826.454 2.284.913.224.454.224.913.454 1.367 1.142 1.142 2.509 1.142 3.88 1.6.456.229.686.454.685.913zM36.524 8.42c-.101.03-.202.057-.301.1-.684.229-2.469 3.525-2.926 4.208-.229.229-.454.684-.229.913 0 .229.229.229.459.229.454.229.516.324.974.549.229 0 .454.229.229.459 0 0 0 .229-.229.229-1.142 1.142-2.284 2.055-3.423 3.193-.23.231-.383.69-.383.914 0 .229.153.229.153.459s-.229.229-.459.454c-.454.229-.913.459-1.142.687-.225.454 0 1.142-.225 1.597-.23 1.142-.917 2.055-1.372 3.197-.459.684-.868 1.367-1.327 2.055 0 .913-.229 1.597.229 2.28 1.142 1.6 3.428.069 5.025.752.454.229.845.271 1.142.684.567.787.636 2.445.866 3.133.225.913.454 1.826.913 2.739.227 1.132.675 2.263.906 3.167C40.596 36.804 44 30.803 44 24c0-6.301-2.921-11.914-7.476-15.58zm-7.916.937c.68-.437 1.135-1.308 1.363-1.961.223-.438.907-1.308.68-1.961-.177-.34-.897-.544-1.423-.721C27.558 4.263 25.812 4 24 4c-.46 0-.911.038-1.363.069-.381.132-.709.356-.833.714-.228 1.089.68.87 1.586 1.089 0 0 .228 1.742.228 1.961.228 1.089-.455 1.742-.455 2.828 0 .656 0 1.745.455 2.18h.228c.228 0 .451-.219.907-.433.68-.438 1.363-1.089 2.042-1.527.679-.434 1.358-1.09 1.813-1.524z"/>
    <defs>
        <radialGradient id="paint0_radial" cx="0" cy="0" r="1" gradientTransform="matrix(-39.99997 39.99997 -37.31381 -37.31381 44 4)" gradientUnits="userSpaceOnUse">
            <stop stop-color="#5DF8E3"/>
            <stop offset=".411" stop-color="#54DDCB"/>
            <stop offset="1" stop-color="#205CD2"/>
        </radialGradient>
    </defs>
</svg>
