<svg xmlns="http://www.w3.org/2000/svg" width="48" height="48" fill="none" viewBox="0 0 48 48">
    <path fill="url(#paint0_radial)" fill-rule="evenodd" d="M3.257 12.239l3.504 3.504c.342.343.897.343 1.239 0l7.01-7.009c.342-.342.342-.897 0-1.239l-1.239-1.239c-.342-.342-.897-.342-1.239 0l-5.151 5.151-1.646-1.646c-.342-.342-.897-.342-1.239 0L3.257 11c-.342.342-.342.897 0 1.239zM20 13.999h23c.55 0 1-.45 1-1v-2c0-.55-.45-1-1-1H20c-.55 0-1 .45-1 1v2c0 .55.45 1 1 1zm23 12H20c-.55 0-1-.45-1-1v-2c0-.55.45-1 1-1h23c.55 0 1 .45 1 1v2c0 .55-.45 1-1 1zM3.257 24.24l3.504 3.504c.342.343.897.343 1.239 0l7.01-7.009c.342-.342.342-.897 0-1.239l-1.239-1.239c-.342-.342-.897-.342-1.239 0l-5.151 5.151-1.646-1.646c-.342-.342-.897-.342-1.239 0L3.257 23c-.342.342-.342.897 0 1.239zM43 37.999H20c-.55 0-1-.45-1-1v-2c0-.55.45-1 1-1h23c.55 0 1 .45 1 1v2c0 .55-.45 1-1 1zM3.257 36.24l3.504 3.504c.342.343.897.343 1.239 0l7.01-7.009c.342-.342.342-.897 0-1.239l-1.239-1.239c-.342-.342-.897-.342-1.239 0l-5.151 5.151-1.646-1.646c-.342-.342-.897-.342-1.239 0L3.257 35c-.342.342-.342.897 0 1.239z" clip-rule="evenodd"/>
    <defs>
        <radialGradient id="paint0_radial" cx="0" cy="0" r="1" gradientTransform="matrix(-40.99947 34.00096 -31.16993 -37.58573 44 6)" gradientUnits="userSpaceOnUse">
            <stop stop-color="#5DF8E3"/>
            <stop offset=".411" stop-color="#54DDCB"/>
            <stop offset="1" stop-color="#205CD2"/>
        </radialGradient>
    </defs>
</svg>
