<svg xmlns="http://www.w3.org/2000/svg" width="60" height="60" fill="none" viewBox="0 0 60 60">
    <path fill="#54DDCB" d="M12.533 47.501l-.034-34.968 34.968-.034.034 34.968-34.968.034zM15 15.03l.029 29.969 29.969-.029-.029-29.969-29.969.029z"/>
    <path fill="url(#paint0_radial)" fill-rule="evenodd" d="M24.207 27.547l-13.554.053c-1.869.002-3.399-1.525-3.4-3.393L7.2 10.653c-.002-1.869 1.525-3.399 3.393-3.4L24.147 7.2c1.869-.002 3.399 1.525 3.4 3.393l.053 13.554c.002 1.869-1.525 3.399-3.393 3.4zm24.8 25.194L33.86 52.8c-2.088.002-3.798-1.704-3.8-3.792L30 33.858c-.002-2.087 1.704-3.797 3.792-3.8L48.942 30c2.087-.002 3.797 1.704 3.8 3.792l.058 15.15c.002 2.087-1.704 3.797-3.792 3.8zM10.04 52.5l9.966-.039c1.374-.001 2.496-1.126 2.495-2.5l-.039-9.966c-.001-1.374-1.126-2.496-2.5-2.495l-9.966.039c-1.374.001-2.496 1.126-2.495 2.5l.039 9.966c.001 1.374 1.126 2.496 2.5 2.495z" clip-rule="evenodd"/>
    <path fill="#D0FBF6" d="M50.005 22.461l-9.966.039c-1.374.001-2.499-1.121-2.5-2.495l-.039-9.966c-.001-1.374 1.121-2.499 2.495-2.5l9.966-.039c1.374-.001 2.499 1.121 2.5 2.495l.039 9.966c.001 1.374-1.121 2.499-2.495 2.5z"/>
    <defs>
        <radialGradient id="paint0_radial" cx="0" cy="0" r="1" gradientTransform="rotate(135 24.909 14.535) scale(64.4881 60.1574)" gradientUnits="userSpaceOnUse">
            <stop stop-color="#5DF8E3"/>
            <stop offset=".411" stop-color="#54DDCB"/>
            <stop offset="1" stop-color="#205CD2"/>
        </radialGradient>
    </defs>
</svg>
