<svg xmlns="http://www.w3.org/2000/svg" width="40" height="40" fill="none" viewBox="0 0 40 40">
    <path fill="#54DDCB" d="M4.423 10.134c-.164.335-.256.706-.256 1.093V28.09c0 .928.514 1.78 1.336 2.212l12.945 6.814c.485.256 1.019.383 1.552.383V18.333L4.423 10.134z"/>
    <path fill="url(#paint0_radial)" d="M20 18.333V37.5c.533 0 1.067-.127 1.552-.383l12.946-6.814c.821-.432 1.335-1.284 1.335-2.212V11.227c0-.387-.092-.758-.255-1.093L20 18.334z"/>
    <path fill="#54DDCB" d="M20 18.333l15.578-8.199c-.245-.502-.651-.919-1.175-1.167L21.427 2.821c-.904-.428-1.951-.428-2.854 0L5.597 8.967c-.524.249-.93.666-1.174 1.167L20 18.334z"/>
    <path fill="#D0FBF6" d="M10.982 13.588c-.095.194-.149.409-.149.633v9.763c0 .538.298 1.031.774 1.281l7.495 3.944c.281.149.59.223.899.223V18.335l-9.02-4.747z" opacity=".8"/>
    <path fill="#D0FBF6" d="M20 18.335v11.097c.308 0 .617-.074.9-.223l7.494-3.944c.476-.25.774-.743.774-1.28V14.22c0-.224-.054-.438-.149-.633L20 18.335z"/>
    <path fill="#D0FBF6" d="M20 18.335l9.018-4.747c-.141-.29-.376-.531-.68-.675l-7.512-3.559c-.524-.247-1.13-.247-1.653 0l-7.512 3.559c-.303.143-.538.384-.68.675L20 18.335z" opacity=".5"/>
    <defs>
        <radialGradient id="paint0_radial" cx="0" cy="0" r="1" gradientTransform="rotate(120.053 14.994 15.4) scale(31.6162 25.5688)" gradientUnits="userSpaceOnUse">
            <stop stop-color="#5DF8E3"/>
            <stop offset=".411" stop-color="#54DDCB"/>
            <stop offset="1" stop-color="#205CD2"/>
        </radialGradient>
    </defs>
</svg>
