<svg xmlns="http://www.w3.org/2000/svg" width="60" height="60" fill="none" viewBox="0 0 60 60">
    <path fill="url(#paint0_radial)" d="M38.75 49.25l3.25.625c3.625.75 7-1.875 7.25-5.5L50 36.25l3.625-1.5c1.25-.5 1.75-2 1-3.25L50 23.75C49.25 14.25 43.875 5 30 5 16.25 5 8.75 14.25 8.75 25c0 4.625 1.625 9.875 4.125 13.25 2.25 3.125 3.375 6.875 3.375 10.625v3.5c0 1.381 1.119 2.5 2.5 2.5h17.5c1.381 0 2.5-1.119 2.5-2.5V49.25z"/>
    <path fill="#D0FBF6" d="M30 3.75h-2.5c-.69 0-1.25.56-1.25 1.25v22.5h5V5c0-.69-.56-1.25-1.25-1.25z"/>
    <path fill="#54DDCB" d="M50 43.75H37.612c-2.86 0-5.43-1.589-6.708-4.146L27.63 33.06l2.236-1.119 3.273 6.545c.852 1.705 2.566 2.764 4.472 2.764H50v2.5z"/>
    <path fill="#54DDCB" d="M28.75 37.5c4.142 0 7.5-3.358 7.5-7.5 0-4.142-3.358-7.5-7.5-7.5-4.142 0-7.5 3.358-7.5 7.5 0 4.142 3.358 7.5 7.5 7.5z"/>
    <path fill="#D0FBF6" d="M28.75 33.75c2.071 0 3.75-1.679 3.75-3.75 0-2.071-1.679-3.75-3.75-3.75-2.071 0-3.75 1.679-3.75 3.75 0 2.071 1.679 3.75 3.75 3.75zM50 45c1.38 0 2.5-1.12 2.5-2.5S51.38 40 50 40s-2.5 1.12-2.5 2.5S48.62 45 50 45z"/>
    <defs>
        <radialGradient id="paint0_radial" cx="0" cy="0" r="1" gradientTransform="rotate(132.826 26.397 14.502) scale(68.0036 63.2543)" gradientUnits="userSpaceOnUse">
            <stop stop-color="#5DF8E3"/>
            <stop offset=".411" stop-color="#54DDCB"/>
            <stop offset="1" stop-color="#205CD2"/>
        </radialGradient>
    </defs>
</svg>
