<?xml version="1.0" standalone="no"?>
<!DOCTYPE svg PUBLIC "-//W3C//DTD SVG 1.1//EN" "http://www.w3.org/Graphics/SVG/1.1/DTD/svg11.dtd" >
<svg xmlns="http://www.w3.org/2000/svg" xmlns:xlink="http://www.w3.org/1999/xlink" version="1.1">
<metadata>
Created by FontForge 20190801 at Fri Mar 18 20:53:36 2016
 By www-data
Copyright (c) 2015 Monotype Imaging Inc.  All rights reserved.
</metadata>
<defs>
<font id="NeueHaasUnicaW1GHeavy" horiz-adv-x="608" >
  <font-face 
    font-family="NeueHaasUnicaW1GHeavy"
    font-weight="800"
    font-stretch="normal"
    units-per-em="1000"
    panose-1="2 11 9 4 3 2 6 2 2 3"
    ascent="764"
    descent="-236"
    x-height="508"
    cap-height="712"
    bbox="-1000 -291 1216 1133"
    underline-thickness="50"
    underline-position="-125"
    unicode-range="U+0020-FEFF"
  />
<missing-glyph horiz-adv-x="648" 
d="M151 777h346q63 0 100 -37t37 -100v-568q0 -63 -37 -100t-100 -37h-346q-63 0 -100 37t-37 100v568q0 63 37 100t100 37zM497 708h-346q-31 0 -49.5 -18t-18.5 -50v-568q0 -31 18.5 -49.5t49.5 -18.5h346q32 0 50 18.5t18 49.5v568q0 32 -18 50t-50 18zM325 647
q86 0 135 -40.5t49 -111.5q0 -41 -14.5 -69.5t-55.5 -66.5q-40 -37 -52 -63q-13 -25 -13 -71h-111q-1 9 -1 38q0 49 12 77q11 27 51 68q29 29 38 46t9 39t-12.5 35t-34.5 13q-57 0 -57 -78h-135q1 89 51 136.5t141 47.5zM387 65h-136v119h136v-119z" />
    <glyph glyph-name="f_f" unicode="ff" horiz-adv-x="690" 
d="M657 600q-39 0 -56.5 -17.5t-17.5 -56.5v-18h94v-121h-94v-387h-164v387h-165v-387h-164v387h-81v121h81v37q0 176 183 176q43 0 79 -9v-114q-14 2 -24 2q-39 0 -56.5 -17.5t-17.5 -56.5v-18h165v37q0 176 183 176q43 0 79 -9v-114q-14 2 -24 2z" />
    <glyph glyph-name="f_f_i" unicode="ffi" horiz-adv-x="978" 
d="M419 508v37q0 176 183 176q43 0 79 -9v-114q-14 2 -24 2q-39 0 -56.5 -17.5t-17.5 -56.5v-18h94v-121h-94v-387h-164v387h-165v-387h-164v387h-81v121h81v37q0 176 183 176q43 0 79 -9v-114q-14 2 -24 2q-39 0 -56.5 -17.5t-17.5 -56.5v-18h165zM917 712v-131h-166v131
h166zM751 508h166v-508h-166v508z" />
    <glyph glyph-name="f_f_l" unicode="ffl" horiz-adv-x="978" 
d="M657 600q-39 0 -56.5 -17.5t-17.5 -56.5v-18h94v-121h-94v-387h-164v387h-165v-387h-164v387h-81v121h81v37q0 176 183 176q43 0 79 -9v-114q-14 2 -24 2q-39 0 -56.5 -17.5t-17.5 -56.5v-18h165v37q0 176 183 176q43 0 79 -9v-114q-14 2 -24 2zM917 0h-166v712h166v-712
z" />
    <glyph glyph-name="f_i" unicode="fi" horiz-adv-x="649" 
d="M90 508v37q0 176 183 176q43 0 79 -9v-114q-14 2 -24 2q-39 0 -56.5 -17.5t-17.5 -56.5v-18h94v-121h-94v-387h-164v387h-81v121h81zM588 712v-131h-166v131h166zM422 508h166v-508h-166v508z" />
    <glyph glyph-name="f_l" unicode="fl" horiz-adv-x="649" 
d="M328 600q-39 0 -56.5 -17.5t-17.5 -56.5v-18h94v-121h-94v-387h-164v387h-81v121h81v37q0 176 183 176q43 0 79 -9v-114q-14 2 -24 2zM588 0h-166v712h166v-712z" />
    <glyph glyph-name=".notdef" horiz-adv-x="648" 
d="M151 777h346q63 0 100 -37t37 -100v-568q0 -63 -37 -100t-100 -37h-346q-63 0 -100 37t-37 100v568q0 63 37 100t100 37zM497 708h-346q-31 0 -49.5 -18t-18.5 -50v-568q0 -31 18.5 -49.5t49.5 -18.5h346q32 0 50 18.5t18 49.5v568q0 32 -18 50t-50 18zM325 647
q86 0 135 -40.5t49 -111.5q0 -41 -14.5 -69.5t-55.5 -66.5q-40 -37 -52 -63q-13 -25 -13 -71h-111q-1 9 -1 38q0 49 12 77q11 27 51 68q29 29 38 46t9 39t-12.5 35t-34.5 13q-57 0 -57 -78h-135q1 89 51 136.5t141 47.5zM387 65h-136v119h136v-119z" />
    <glyph glyph-name=".null" horiz-adv-x="0" 
 />
    <glyph glyph-name="nonmarkingreturn" horiz-adv-x="333" 
 />
    <glyph glyph-name="NULL" horiz-adv-x="600" 
 />
    <glyph glyph-name="NULL" horiz-adv-x="600" 
 />
    <glyph glyph-name="space" unicode=" " horiz-adv-x="230" 
 />
    <glyph glyph-name="exclam" unicode="!" horiz-adv-x="346" 
d="M240 210h-134l-31 502h195zM261 0h-176v147h176v-147z" />
    <glyph glyph-name="quotedbl" unicode="&#x22;" horiz-adv-x="463" 
d="M191 432h-121l-18 280h158zM393 432h-121l-18 280h158z" />
    <glyph glyph-name="numbersign" unicode="#" horiz-adv-x="695" 
d="M545 397l-19 -119h97l-18 -115h-97l-26 -163h-135l26 163h-106l-26 -163h-135l26 163h-97l18 115h97l19 119h-97l18 115h97l26 162h135l-26 -162h106l26 162h135l-26 -162h97l-18 -115h-97zM410 397h-106l-19 -119h106z" />
    <glyph glyph-name="dollar" unicode="$" horiz-adv-x="628" 
d="M590 195q0 -86 -58 -140.5t-161 -66.5v-87h-118v86q-105 14 -160.5 73.5t-55.5 158.5h167q0 -109 113 -109q107 0 107 76q-4 36 -29.5 51.5t-110.5 38.5q-84 24 -128 44.5t-75 58.5q-33 41 -33 105q0 82 54.5 135.5t150.5 66.5v78h118v-78q97 -12 149 -68t52 -151h-163
q0 101 -101 101q-45 0 -70.5 -18.5t-25.5 -51.5q4 -38 27 -51.5t107 -34.5q88 -23 134 -43.5t77 -59.5q33 -43 33 -114z" />
    <glyph glyph-name="percent" unicode="%" horiz-adv-x="933" 
d="M331 -30h-100l371 734h100zM218 693q83 0 128.5 -53t45.5 -151t-45.5 -151t-128.5 -53t-128 53t-45 151t45 151t128 53zM218 603q-53 0 -53 -114q0 -115 53 -115t53 115q0 114 -53 114zM714 389q83 0 128.5 -53t45.5 -151t-45.5 -151t-128.5 -53t-128 53t-45 151t45 151
t128 53zM714 300q-53 0 -53 -115q0 -114 53 -114t53 114q0 115 -53 115z" />
    <glyph glyph-name="ampersand" unicode="&#x26;" horiz-adv-x="772" 
d="M569 0l-51 51q-81 -67 -209 -67t-198.5 56t-70.5 154q0 134 143 203q-41 41 -57 75.5t-16 79.5q0 79 59 127.5t154 48.5q97 0 154.5 -45.5t57.5 -121.5q0 -113 -126 -188l110 -110q24 47 24 129h160q-2 -142 -75 -239l153 -153h-212zM323 607q-27 0 -43 -16t-16 -44
q0 -23 11 -43t42 -51q65 47 65 97q0 25 -16.5 41t-42.5 16zM323 112q59 0 102 33l-152 153q-62 -39 -62 -96q0 -40 30.5 -65t81.5 -25z" />
    <glyph glyph-name="quotesingle" unicode="'" horiz-adv-x="262" 
d="M191 432h-121l-18 280h158z" />
    <glyph glyph-name="parenleft" unicode="(" horiz-adv-x="349" 
d="M185 741h134q-104 -221 -104 -444q0 -222 104 -444h-134q-75 107 -109.5 213.5t-34.5 230.5q0 125 34.5 231.5t109.5 212.5z" />
    <glyph glyph-name="parenright" unicode=")" horiz-adv-x="349" 
d="M30 741h134q75 -106 109.5 -212.5t34.5 -231.5q0 -124 -34.5 -230.5t-109.5 -213.5h-134q104 222 104 444q0 223 -104 444z" />
    <glyph glyph-name="asterisk" unicode="*" horiz-adv-x="448" 
d="M262 573l126 64l37 -115l-139 -22l99 -99l-97 -71l-64 125l-63 -125l-98 71l99 99l-139 22l37 115l126 -64l-23 139h122z" />
    <glyph glyph-name="plus" unicode="+" horiz-adv-x="566" 
d="M348 381h159v-129h-159v-159h-130v159h-159v129h159v160h130v-160z" />
    <glyph glyph-name="comma" unicode="," horiz-adv-x="274" 
d="M226 0l-91 -178h-98l69 178h-57v184h177v-184z" />
    <glyph glyph-name="hyphen" unicode="-" horiz-adv-x="337" 
d="M307 231h-277v122h277v-122z" />
    <glyph glyph-name="period" unicode="." horiz-adv-x="274" 
d="M225 0h-176v184h176v-184z" />
    <glyph glyph-name="slash" unicode="/" horiz-adv-x="503" 
d="M155 -89h-125l298 834h124z" />
    <glyph glyph-name="zero" unicode="0" horiz-adv-x="623" 
d="M311 690q136 0 209 -92t73 -261q0 -170 -73 -261.5t-209 -91.5t-209 91.5t-73 261.5q0 169 73 261t209 92zM311 556q-52 0 -79.5 -56.5t-27.5 -162.5t27.5 -163.5t79.5 -57.5t80 57.5t28 163.5q0 105 -28 162t-80 57z" />
    <glyph glyph-name="one" unicode="1" horiz-adv-x="623" 
d="M429 0h-171v435h-163v122q86 0 128.5 27.5t51.5 89.5h154v-674z" />
    <glyph glyph-name="two" unicode="2" horiz-adv-x="623" 
d="M310 690q114 0 183 -55t69 -145q-2 -83 -42.5 -131t-132.5 -96q-87 -45 -114.5 -69.5t-30.5 -56.5h337v-137h-538q-1 6 -1 31q2 111 42 176t152 129q62 35 90 54.5t45 42.5q17 25 17 55q0 32 -20 50.5t-56 18.5q-90 0 -90 -100h-171q1 111 69.5 172t191.5 61z" />
    <glyph glyph-name="three" unicode="3" horiz-adv-x="623" 
d="M310 690q117 0 185.5 -51.5t68.5 -139.5q0 -56 -28 -91.5t-89 -57.5v-2q66 -22 96.5 -60.5t30.5 -101.5q0 -92 -71.5 -147t-190.5 -55q-134 0 -205.5 61.5t-71.5 178.5h173q0 -107 104 -107q41 0 65.5 20.5t24.5 54.5q0 82 -121 82h-20v128h22q51 0 81.5 22t30.5 58
q0 35 -24 55t-64 20q-94 0 -94 -101h-169q0 110 70 172t196 62z" />
    <glyph glyph-name="four" unicode="4" horiz-adv-x="623" 
d="M604 140h-104v-140h-168v140h-320v136l265 398h223v-405h104v-129zM162 269h176v75q0 119 7 210h-2q-53 -95 -117 -191z" />
    <glyph glyph-name="five" unicode="5" horiz-adv-x="623" 
d="M539 537h-310l-14 -136h2q53 50 134 50q100 0 163 -62t63 -161q0 -111 -75 -177.5t-198 -66.5q-118 0 -188 55.5t-70 151.5h172q1 -35 25.5 -56t62.5 -21q97 0 97 106q0 50 -25 77t-70 27q-72 0 -87 -65l-167 11l38 404h447v-137z" />
    <glyph glyph-name="six" unicode="6" horiz-adv-x="623" 
d="M333 690q106 0 170 -54.5t71 -150.5h-172q-11 76 -78 76q-52 0 -83 -46.5t-34 -139.5h2q59 65 153 65q98 0 159 -60.5t61 -157.5q0 -106 -73 -172t-190 -66q-133 0 -204 86t-71 250q0 176 76.5 273t212.5 97zM320 319q-40 0 -65 -29t-25 -76q0 -44 24.5 -71.5t64.5 -27.5
q41 0 66 28t25 73q0 47 -24.5 75t-65.5 28z" />
    <glyph glyph-name="seven" unicode="7" horiz-adv-x="623" 
d="M568 674v-139q-75 -105 -131 -245t-83 -290h-184q35 164 97 302q63 142 135 230h-359v142h525z" />
    <glyph glyph-name="eight" unicode="8" horiz-adv-x="623" 
d="M311 690q113 0 184 -52t71 -136q0 -55 -33 -95.5t-90 -55.5v-2q63 -15 100.5 -59.5t37.5 -106.5q0 -93 -72.5 -146t-197.5 -53q-124 0 -196.5 53t-72.5 146q0 62 37.5 106.5t100.5 59.5v2q-57 15 -90 55.5t-33 95.5q0 84 70.5 136t183.5 52zM311 561q-42 0 -67 -20.5
t-25 -54.5q0 -36 24.5 -57t67.5 -21t68 21t25 57q0 34 -25 54.5t-68 20.5zM311 282q-45 0 -71.5 -23t-26.5 -61t26.5 -60.5t71.5 -22.5q46 0 72.5 22.5t26.5 60.5t-26.5 61t-72.5 23z" />
    <glyph glyph-name="nine" unicode="9" horiz-adv-x="623" 
d="M280 -16q-106 0 -170.5 55t-70.5 151h172q8 -76 78 -76q110 0 116 185h-2q-57 -65 -152 -65q-97 0 -159 61t-62 157q0 106 74 172t190 66q133 0 204 -86t71 -250q0 -176 -76.5 -273t-212.5 -97zM293 355q40 0 64.5 29t24.5 76q0 45 -24 72t-65 27t-65.5 -27.5
t-24.5 -72.5q0 -47 24.5 -75.5t65.5 -28.5z" />
    <glyph glyph-name="colon" unicode=":" horiz-adv-x="274" 
d="M225 0h-176v184h176v-184zM225 324h-176v184h176v-184z" />
    <glyph glyph-name="semicolon" unicode=";" horiz-adv-x="274" 
d="M226 0l-91 -178h-98l69 178h-57v184h177v-184zM225 324h-176v184h176v-184z" />
    <glyph glyph-name="less" unicode="&#x3c;" horiz-adv-x="566" 
d="M507 431l-295 -113v-2l295 -113v-138l-448 176v152l448 176v-138z" />
    <glyph glyph-name="equal" unicode="=" horiz-adv-x="566" 
d="M507 356h-448v124h448v-124zM507 153h-448v124h448v-124z" />
    <glyph glyph-name="greater" unicode="&#x3e;" horiz-adv-x="566" 
d="M507 393v-152l-448 -176v138l295 113v2l-295 113v138z" />
    <glyph glyph-name="question" unicode="?" horiz-adv-x="570" 
d="M287 727q116 0 182 -50t66 -139q0 -50 -20 -87q-21 -37 -79 -84q-56 -48 -72.5 -79t-16.5 -90h-140q-2 20 -2 44q0 66 16.5 100.5t74.5 86.5q42 39 53 58q12 19 12 48t-19.5 45.5t-54.5 16.5q-85 0 -87 -98h-172q1 110 68 169t191 59zM364 0h-176v147h176v-147z" />
    <glyph glyph-name="at" unicode="@" horiz-adv-x="870" 
d="M447 708q176 0 283.5 -104.5t107.5 -274.5q0 -125 -59.5 -193.5t-149.5 -68.5q-108 0 -128 81h-2q-43 -81 -129 -81q-72 0 -112 51.5t-41 146.5q1 113 56 183t140 70q74 0 102 -64h2q2 6 5.5 24.5t5.5 29.5h123q-18 -91 -29 -164q-12 -83 -12 -121q0 -55 41 -55
t67.5 42.5t26.5 118.5q0 130 -81 208.5t-217 78.5q-151 0 -237 -94.5t-86 -243.5q0 -143 83.5 -225t224.5 -82q131 0 217 52l42 -82q-109 -62 -259 -62q-184 0 -292.5 107t-108.5 292q-2 117 49 215.5t148 157.5t219 57zM435 404q-37 0 -60.5 -36t-23.5 -98q0 -42 15.5 -65
t43.5 -23q36 0 59 37.5t23 102.5q0 82 -57 82z" />
    <glyph glyph-name="A" unicode="A" horiz-adv-x="715" 
d="M487 151h-258l-46 -151h-182l243 712h227l243 -712h-182zM445 293l-15 48q-44 144 -72 259h-2q-31 -130 -70 -259l-14 -48h173z" />
    <glyph glyph-name="B" unicode="B" horiz-adv-x="664" 
d="M76 712h278q127 0 193 -48.5t66 -134.5q0 -121 -121 -163v-2q139 -31 139 -166q0 -91 -69 -144.5t-191 -53.5h-295v712zM246 578v-154h90q110 0 110 78q0 40 -25 58t-79 18h-96zM246 297v-162h94q60 0 86.5 19t26.5 60q0 43 -27 63t-89 20h-91z" />
    <glyph glyph-name="C" unicode="C" horiz-adv-x="715" 
d="M367 728q137 0 221 -74t89 -198h-179q-6 58 -40.5 90t-90.5 32q-71 0 -111.5 -59.5t-40.5 -162.5t40.5 -162.5t109.5 -59.5q56 0 91.5 33t42.5 93h181q-10 -131 -93.5 -203.5t-221.5 -72.5q-153 0 -242 100t-89 272t90 272t243 100z" />
    <glyph glyph-name="D" unicode="D" horiz-adv-x="742" 
d="M76 712h252q183 0 281.5 -92.5t98.5 -263.5t-98.5 -263.5t-281.5 -92.5h-252v712zM248 565v-418h76q204 0 204 209t-204 209h-76z" />
    <glyph glyph-name="E" unicode="E" horiz-adv-x="634" 
d="M579 567h-330v-135h308v-143h-308v-144h338v-145h-511v712h503v-145z" />
    <glyph glyph-name="F" unicode="F" horiz-adv-x="591" 
d="M566 564h-317v-164h294v-147h-294v-253h-173v712h490v-148z" />
    <glyph glyph-name="G" unicode="G" horiz-adv-x="751" 
d="M379 728q132 0 215 -66t92 -177h-186q-17 98 -121 98q-76 0 -120 -61.5t-44 -168.5q0 -109 43.5 -172t119.5 -63q67 0 104 38.5t39 109.5h-153v134h315v-400h-148v72h-2q-63 -86 -198 -86q-139 0 -220 98t-81 269q0 174 93 274.5t252 100.5z" />
    <glyph glyph-name="H" unicode="H" horiz-adv-x="761" 
d="M685 0h-173v295h-263v-295h-173v712h173v-270h263v270h173v-712z" />
    <glyph glyph-name="I" unicode="I" horiz-adv-x="325" 
d="M249 0h-173v712h173v-712z" />
    <glyph glyph-name="J" unicode="J" horiz-adv-x="410" 
d="M339 712v-471q0 -128 -59.5 -188.5t-186.5 -60.5q-47 0 -78 9v144q25 -5 45 -5q59 0 82.5 29.5t23.5 109.5v433h173z" />
    <glyph glyph-name="K" unicode="K" horiz-adv-x="690" 
d="M408 375l278 -375h-218l-217 328h-2v-328h-173v712h173v-307h2l209 307h207z" />
    <glyph glyph-name="L" unicode="L" horiz-adv-x="580" 
d="M249 147h322v-147h-495v712h173v-565z" />
    <glyph glyph-name="M" unicode="M" horiz-adv-x="1013" 
d="M937 0h-163v348q0 132 6 263h-2q-21 -90 -68 -259l-101 -352h-205l-101 352q-47 169 -68 259h-2q6 -131 6 -263v-348h-163v712h277l91 -316q33 -119 62 -262h2q20 110 61 262l92 316h276v-712z" />
    <glyph glyph-name="N" unicode="N" horiz-adv-x="801" 
d="M726 0h-250l-124 281q-69 155 -116 285h-2q8 -171 8 -300v-266h-166v712h249l125 -281q70 -162 116 -285h2q-8 142 -8 300v266h166v-712z" />
    <glyph glyph-name="O" unicode="O" horiz-adv-x="757" 
d="M379 728q158 0 251 -100.5t93 -271.5t-93 -271.5t-251 -100.5q-159 0 -252 100t-93 272t93 272t252 100zM379 578q-78 0 -121 -58.5t-43 -163.5t43 -163.5t121 -58.5q77 0 120 58.5t43 163.5t-43 163.5t-120 58.5z" />
    <glyph glyph-name="P" unicode="P" horiz-adv-x="654" 
d="M76 712h285q131 0 201 -62.5t70 -174.5t-70 -174t-201 -62h-112v-239h-173v712zM249 573v-195h88q118 0 118 97q0 98 -118 98h-88z" />
    <glyph glyph-name="Q" unicode="Q" horiz-adv-x="757" 
d="M723 356q0 -165 -86 -265l78 -88l-89 -82l-87 97q-69 -34 -161 -34q-158 0 -251 100.5t-93 271.5t93 271.5t251 100.5q159 0 252 -100t93 -272zM383 123q30 0 54 9l-91 101l91 82l88 -99q25 54 25 135q0 107 -44 167t-123 60t-123.5 -60t-44.5 -167t44.5 -167.5
t123.5 -60.5z" />
    <glyph glyph-name="R" unicode="R" horiz-adv-x="685" 
d="M76 712h289q262 0 262 -203q0 -65 -35 -110.5t-96 -63.5v-2q38 -13 61 -43.5t48 -99.5l69 -190h-186l-54 161q-19 57 -44.5 78t-75.5 21h-65v-260h-173v712zM249 578v-187h95q112 0 112 96q0 91 -119 91h-88z" />
    <glyph glyph-name="S" unicode="S" horiz-adv-x="645" 
d="M315 728q135 0 207 -59.5t72 -173.5h-180q0 48 -27.5 73.5t-78.5 25.5q-43 0 -68.5 -18.5t-25.5 -48.5q3 -34 29 -50t113 -38q93 -23 142.5 -46t81.5 -64q33 -43 33 -117q0 -103 -79.5 -165.5t-211.5 -62.5q-141 0 -219.5 65.5t-78.5 182.5h184q0 -110 118 -110
q49 0 77 20t28 55q-4 39 -26 52.5t-110 37.5q-95 24 -144 46.5t-81 62.5q-34 43 -34 115q0 98 76 157.5t203 59.5z" />
    <glyph glyph-name="T" unicode="T" horiz-adv-x="627" 
d="M618 565h-218v-565h-173v565h-218v147h609v-147z" />
    <glyph glyph-name="U" unicode="U" horiz-adv-x="725" 
d="M655 712v-436q0 -141 -76 -216.5t-217 -75.5q-140 0 -216 75.5t-76 216.5v436h173v-432q0 -70 30.5 -107t88.5 -37q59 0 89.5 37t30.5 107v432h173z" />
    <glyph glyph-name="V" unicode="V" horiz-adv-x="663" 
d="M444 0h-226l-214 712h181l77 -275q42 -144 68 -280h2q24 122 68 280l78 275h180z" />
    <glyph glyph-name="W" unicode="W" horiz-adv-x="991" 
d="M839 0h-230l-60 285q-35 154 -53 286h-2q-20 -137 -52 -286l-60 -285h-230l-144 712h168l48 -257q31 -172 46 -298h2q26 156 57 298l56 257h221l56 -257q32 -140 56 -298h2q22 164 47 298l47 257h169z" />
    <glyph glyph-name="X" unicode="X" horiz-adv-x="669" 
d="M446 365l222 -365h-204l-128 246h-2l-129 -246h-203l221 365l-209 347h199l121 -238h2l120 238h199z" />
    <glyph glyph-name="Y" unicode="Y" horiz-adv-x="663" 
d="M418 269v-269h-173v269l-244 443h192l62 -129q41 -83 76 -179h2q31 87 75 179l62 129h192z" />
    <glyph glyph-name="Z" unicode="Z" horiz-adv-x="593" 
d="M556 562l-329 -416v-2h345v-144h-552v150l329 416v2h-314v144h521v-150z" />
    <glyph glyph-name="bracketleft" unicode="[" horiz-adv-x="358" 
d="M338 636h-117v-683h117v-104h-273v892h273v-105z" />
    <glyph glyph-name="backslash" unicode="\" horiz-adv-x="503" 
d="M176 745l297 -834h-124l-298 834h125z" />
    <glyph glyph-name="bracketright" unicode="]" horiz-adv-x="358" 
d="M293 741v-892h-273v104h117v683h-117v105h273z" />
    <glyph glyph-name="asciicircum" unicode="^" horiz-adv-x="520" 
d="M513 371h-152l-100 211h-2l-100 -211h-152l166 341h174z" />
    <glyph glyph-name="underscore" unicode="_" horiz-adv-x="500" 
d="M500 -141h-500v91h500v-91z" />
    <glyph glyph-name="grave" unicode="`" horiz-adv-x="369" 
d="M241 712l78 -148h-128l-141 148h191z" />
    <glyph glyph-name="a" unicode="a" horiz-adv-x="561" 
d="M275 524q231 0 231 -206v-175q0 -91 15 -143h-150q-7 27 -7 66h-2q-58 -79 -165 -79q-80 0 -127.5 43.5t-47.5 112.5q0 68 47.5 107.5t154.5 56.5q51 9 122 14v18q0 80 -71 80q-70 0 -72 -71h-160q4 80 63.5 128t168.5 48zM346 212v18q-41 -1 -90 -10q-70 -13 -70 -65
q0 -27 17 -42.5t48 -15.5q44 0 70 26q25 26 25 89z" />
    <glyph glyph-name="b" unicode="b" horiz-adv-x="610" 
d="M227 453h2q49 69 139 69q97 0 154.5 -73t57.5 -195t-59 -195t-157 -73q-92 0 -141 77h-2v-63h-160v712h166v-259zM311 396q-42 0 -67.5 -38t-25.5 -104t25.5 -104t67.5 -38q43 0 69 38.5t26 103.5t-26 103.5t-69 38.5z" />
    <glyph glyph-name="c" unicode="c" horiz-adv-x="575" 
d="M295 524q106 0 176 -58.5t78 -151.5h-172q-4 40 -25.5 62.5t-55.5 22.5q-43 0 -67.5 -38t-24.5 -106q0 -69 24.5 -107t68.5 -38q34 0 55.5 25t23.5 69h173q-8 -101 -76.5 -160.5t-176.5 -59.5q-121 0 -193.5 74t-72.5 197q0 122 72 195.5t193 73.5z" />
    <glyph glyph-name="d" unicode="d" horiz-adv-x="610" 
d="M549 0h-160v63h-2q-49 -77 -141 -77q-98 0 -157 73t-59 195t57.5 195t154.5 73q90 0 139 -69h2v259h166v-712zM299 396q-43 0 -69 -38.5t-26 -103.5t26 -103.5t69 -38.5q42 0 67.5 38t25.5 104t-25.5 104t-67.5 38z" />
    <glyph glyph-name="e" unicode="e" horiz-adv-x="584" 
d="M292 95q35 0 58 17t27 44h169q-17 -75 -85.5 -123.5t-166.5 -48.5q-123 0 -193.5 76t-70.5 198q0 117 70.5 191.5t191.5 74.5q88 0 151.5 -43t90.5 -120q20 -52 20 -141h-361q6 -125 99 -125zM292 415q-83 0 -96 -101h191q-5 50 -30.5 75.5t-64.5 25.5z" />
    <glyph glyph-name="f" unicode="f" horiz-adv-x="361" 
d="M328 600q-39 0 -56.5 -17.5t-17.5 -56.5v-18h94v-121h-94v-387h-164v387h-81v121h81v37q0 176 183 176q43 0 79 -9v-114q-14 2 -24 2z" />
    <glyph glyph-name="g" unicode="g" horiz-adv-x="602" 
d="M240 522q90 0 144 -82h2v68h155v-475q0 -113 -65.5 -170.5t-189.5 -57.5q-105 0 -165.5 42.5t-68.5 120.5h161q2 -26 22 -41t54 -15q91 0 91 121v47h-2q-53 -74 -141 -74q-94 0 -150.5 70t-56.5 188q0 117 57.5 187.5t152.5 70.5zM292 392q-41 0 -65.5 -34.5t-24.5 -93.5
q0 -58 24.5 -92.5t65.5 -34.5q43 0 68 34.5t25 92.5q0 59 -25 93.5t-68 34.5z" />
    <glyph glyph-name="h" unicode="h" 
d="M227 457h2q52 64 137 64q88 0 137 -54t49 -155v-312h-166v294q0 98 -74 98q-40 0 -62.5 -33t-22.5 -96v-263h-166v712h166v-255z" />
    <glyph glyph-name="i" unicode="i" horiz-adv-x="288" 
d="M227 0h-166v508h166v-508zM227 581h-166v131h166v-131z" />
    <glyph glyph-name="j" unicode="j" horiz-adv-x="289" 
d="M228 508v-507q0 -96 -49 -143.5t-138 -47.5q-47 0 -80 9v116q12 -3 26 -3q40 0 57.5 21.5t17.5 75.5v479h166zM228 581h-166v131h166v-131z" />
    <glyph glyph-name="k" unicode="k" horiz-adv-x="566" 
d="M576 0h-204l-143 230h-2v-230h-166v712h166v-404h2l136 200h192l-181 -237z" />
    <glyph glyph-name="l" unicode="l" horiz-adv-x="288" 
d="M227 0h-166v712h166v-712z" />
    <glyph glyph-name="m" unicode="m" horiz-adv-x="908" 
d="M674 521q84 0 131 -54t47 -155v-312h-166v294q0 98 -67 98q-79 0 -79 -134v-258h-166v301q0 91 -67 91q-80 0 -80 -134v-258h-166v508h155v-58h2q53 71 143 71q108 0 150 -88q60 88 163 88z" />
    <glyph glyph-name="n" unicode="n" 
d="M366 521q88 0 137 -54t49 -155v-312h-166v294q0 98 -74 98q-40 0 -62.5 -33t-22.5 -96v-263h-166v508h155v-61h2q55 74 148 74z" />
    <glyph glyph-name="o" unicode="o" horiz-adv-x="604" 
d="M302 524q124 0 198 -73t74 -197t-74 -197t-198 -73t-198 73t-74 197t74 197t198 73zM302 398q-46 0 -71.5 -38.5t-25.5 -105.5t25.5 -105.5t71.5 -38.5t71.5 38.5t25.5 105.5t-25.5 105.5t-71.5 38.5z" />
    <glyph glyph-name="p" unicode="p" horiz-adv-x="610" 
d="M364 522q98 0 157 -73t59 -195t-57.5 -195t-154.5 -73q-90 0 -139 69h-2v-240h-166v693h160v-63h2q49 77 141 77zM311 396q-42 0 -67.5 -38t-25.5 -104t25.5 -104t67.5 -38q43 0 69 38.5t26 103.5t-26 103.5t-69 38.5z" />
    <glyph glyph-name="q" unicode="q" horiz-adv-x="610" 
d="M246 522q92 0 141 -77h2v63h160v-693h-166v240h-2q-49 -69 -139 -69q-97 0 -154.5 73t-57.5 195t59 195t157 73zM299 396q-43 0 -69 -38.5t-26 -103.5t26 -103.5t69 -38.5q42 0 67.5 38t25.5 104t-25.5 104t-67.5 38z" />
    <glyph glyph-name="r" unicode="r" horiz-adv-x="415" 
d="M360 516q26 0 48 -6v-142q-32 5 -51 5q-63 0 -96.5 -38.5t-33.5 -111.5v-223h-166v508h154v-70h2q52 78 143 78z" />
    <glyph glyph-name="s" unicode="s" horiz-adv-x="542" 
d="M267 524q108 0 166.5 -43.5t58.5 -126.5h-158q0 65 -68 65q-59 0 -59 -40q0 -22 20 -33t84 -27q72 -20 108.5 -36t62.5 -47q28 -34 28 -89q0 -75 -63 -119t-173 -44q-243 0 -243 181h167q0 -72 78 -72q30 0 47 11.5t17 30.5q-4 27 -23 37.5t-94 31.5q-66 17 -99 32
t-56 44q-25 31 -25 85q0 72 60 115.5t164 43.5z" />
    <glyph glyph-name="t" unicode="t" horiz-adv-x="378" 
d="M316 123q19 0 37 5v-125q-36 -11 -84 -11q-96 0 -139.5 40t-43.5 129v226h-79v121h79v137h166v-137h96v-121h-96v-188q0 -41 15 -58.5t49 -17.5z" />
    <glyph glyph-name="u" unicode="u" 
d="M242 -13q-88 0 -137 54t-49 155v312h166v-294q0 -98 74 -98q40 0 62.5 33t22.5 96v263h166v-508h-155v61h-2q-55 -74 -148 -74z" />
    <glyph glyph-name="v" unicode="v" horiz-adv-x="533" 
d="M377 0h-221l-164 508h176l50 -186q25 -100 47 -215h2q17 90 48 215l49 186h177z" />
    <glyph glyph-name="w" unicode="w" horiz-adv-x="848" 
d="M731 0h-227l-41 191q-24 118 -38 213h-2q-14 -95 -38 -213l-41 -191h-227l-113 508h162l33 -187q21 -119 32 -216h2q17 115 41 217l42 186h216l42 -186q24 -102 41 -217h2q11 97 32 216l33 187h162z" />
    <glyph glyph-name="x" unicode="x" horiz-adv-x="535" 
d="M371 261l170 -261h-190l-83 163h-2l-83 -163h-189l170 261l-159 247h188l73 -145h2l73 145h189z" />
    <glyph glyph-name="y" unicode="y" horiz-adv-x="530" 
d="M538 508l-169 -499q-39 -113 -92 -157t-152 -44q-42 0 -86 9v126q26 -8 51 -8q35 0 56 17.5t21 48.5q0 12 -5 32q-3 11 -23 66l-149 409h179l49 -170q32 -122 51 -212h2q21 106 51 213l47 169h169z" />
    <glyph glyph-name="z" unicode="z" horiz-adv-x="502" 
d="M465 377l-232 -248v-2h240v-127h-444v131l231 248v2h-222v127h427v-131z" />
    <glyph glyph-name="braceleft" unicode="{" horiz-adv-x="361" 
d="M333 741v-95q-42 -2 -59 -20.5t-17 -63.5v-132q0 -57 -24.5 -89t-76.5 -45v-3q52 -14 76.5 -46t24.5 -89v-132q0 -45 17 -63.5t59 -20.5v-95h-25q-113 0 -157 42t-44 143v123q0 41 -14.5 60t-52.5 29v100q38 10 52.5 29t14.5 60v123q0 101 44 143t157 42h25z" />
    <glyph glyph-name="bar" unicode="|" horiz-adv-x="297" 
d="M219 -205h-142v937h142v-937z" />
    <glyph glyph-name="braceright" unicode="}" horiz-adv-x="361" 
d="M28 741h25q113 0 156.5 -42t43.5 -143v-123q0 -41 14.5 -60t53.5 -29v-100q-39 -10 -53.5 -29t-14.5 -60v-123q0 -101 -43.5 -143t-156.5 -42h-25v95q42 2 59 20.5t17 63.5v132q0 57 24.5 89t76.5 46v3q-52 13 -76.5 45t-24.5 89v132q0 45 -17 63.5t-59 20.5v95z" />
    <glyph glyph-name="asciitilde" unicode="~" horiz-adv-x="600" 
d="M198 425q33 0 59.5 -11.5t68.5 -38.5q53 -36 79 -36q29 0 46.5 21t17.5 57h106q0 -93 -48.5 -150t-124.5 -57q-34 0 -61.5 12t-67.5 39q-53 35 -78 35q-29 0 -46.5 -21.5t-17.5 -56.5h-106q0 92 48.5 149.5t124.5 57.5z" />
    <glyph glyph-name="uni00A0" unicode="&#xa0;" horiz-adv-x="230" 
 />
    <glyph glyph-name="exclamdown" unicode="&#xa1;" horiz-adv-x="346" 
d="M84 508h177v-147h-177v147zM106 298h134l30 -502h-195z" />
    <glyph glyph-name="cent" unicode="&#xa2;" horiz-adv-x="628" 
d="M322 187q34 0 55.5 25t23.5 69h173q-7 -85 -58 -142t-134 -72v-95h-119v94q-97 17 -152.5 88t-55.5 178t55.5 177t152.5 87v95h119v-96q83 -16 134 -70.5t58 -133.5h-172q-4 40 -25.5 62.5t-55.5 22.5q-44 0 -68 -38t-24 -106q0 -69 24.5 -107t68.5 -38z" />
    <glyph glyph-name="sterling" unicode="&#xa3;" horiz-adv-x="628" 
d="M223 135h367v-135h-567v137q46 0 67.5 28t21.5 93v15h-89v128h89v41q0 122 64 185t185 63q108 0 171.5 -60t63.5 -162h-163q0 41 -19 63.5t-54 22.5q-79 0 -79 -111v-42h125v-128h-125v-13q0 -48 -13.5 -76.5t-44.5 -46.5v-2z" />
    <glyph glyph-name="currency" unicode="&#xa4;" horiz-adv-x="628" 
d="M532 291q0 -60 -27 -111l75 -80l-91 -85l-76 82q-46 -20 -99 -20t-99 20l-76 -82l-92 85l76 81q-27 47 -27 110q0 60 27 111l-76 80l92 85l76 -82q46 20 99 20t99 -20l76 82l91 -85l-75 -80q27 -51 27 -111zM314 187q45 0 72 28.5t27 75.5t-27 75.5t-72 28.5t-72.5 -28.5
t-27.5 -75.5t27.5 -75.5t72.5 -28.5z" />
    <glyph glyph-name="yen" unicode="&#xa5;" horiz-adv-x="628" 
d="M439 342h118v-73h-156v-38h156v-74h-156v-157h-174v157h-156v74h156v38h-156v73h118l-172 332h189l39 -87q40 -95 68 -179h2q28 84 68 179l39 87h189z" />
    <glyph glyph-name="brokenbar" unicode="&#xa6;" horiz-adv-x="297" 
d="M219 382h-142v350h142v-350zM219 -205h-142v350h142v-350z" />
    <glyph glyph-name="section" unicode="&#xa7;" horiz-adv-x="656" 
d="M326 728q218 0 230 -188h-161q-5 65 -69 65q-26 0 -41.5 -12.5t-15.5 -33.5q4 -29 19 -39.5t95 -40.5q79 -30 117.5 -51.5t64.5 -57.5q27 -41 27 -101q0 -92 -83 -145v-2q49 -37 49 -109q0 -81 -62.5 -129t-166.5 -48q-112 0 -173.5 48.5t-65.5 141.5h164q4 -66 72 -66
q29 0 46.5 13t17.5 35q-3 17 -6 25t-19 19t-37.5 21t-72.5 31q-72 30 -108 53t-59 57q-24 36 -24 92q0 91 84 142v2q-46 36 -46 102q0 81 62 129q62 47 162 47zM345 345l-101 43q-31 -21 -31 -60q0 -31 21.5 -52t83.5 -47q35 -14 97 -42q31 20 31 61q0 31 -21.5 52.5
t-79.5 44.5z" />
    <glyph glyph-name="dieresis" unicode="&#xa8;" horiz-adv-x="469" 
d="M193 581h-143v131h143v-131zM419 581h-142v131h142v-131z" />
    <glyph glyph-name="copyright" unicode="&#xa9;" horiz-adv-x="798" 
d="M399 727q160 2 261.5 -102t99.5 -269q2 -165 -99.5 -269t-261.5 -102q-160 -2 -261.5 102t-99.5 269q-2 165 99.5 269t261.5 102zM399 664q-135 0 -217 -85t-82 -223t82 -223t217 -85q134 0 217 85t83 223t-83 223t-217 85zM401 582q86 0 137.5 -45.5t55.5 -123.5h-114
q-2 36 -22.5 56.5t-56.5 20.5q-41 0 -65 -36t-24 -99q0 -61 23.5 -97t64.5 -36q35 0 56.5 21.5t25.5 58.5h115q-7 -81 -59.5 -126.5t-137.5 -45.5q-94 0 -148 60.5t-54 164.5q0 106 54 166.5t149 60.5z" />
    <glyph glyph-name="ordfeminine" unicode="&#xaa;" horiz-adv-x="419" 
d="M206 697q173 0 173 -148v-115q0 -65 12 -104h-122q-6 20 -6 45h-2q-42 -55 -118 -55q-58 0 -93 31.5t-35 80.5q0 48 35.5 76t113.5 40q50 8 84 9v13q0 48 -44 48q-42 0 -44 -45h-130q4 57 48.5 90.5t127.5 33.5zM248 477v12q-29 0 -57 -7q-42 -9 -42 -41q0 -37 40 -37
q27 0 44 17q15 16 15 56z" />
    <glyph glyph-name="guillemotleft" unicode="&#xab;" horiz-adv-x="570" 
d="M422 254l106 -200h-142l-114 200l114 200h142zM193 254l106 -200h-142l-114 200l114 200h142z" />
    <glyph glyph-name="logicalnot" unicode="&#xac;" horiz-adv-x="566" 
d="M507 126h-129v213h-319v129h448v-342z" />
    <glyph glyph-name="uni00AD" unicode="&#xad;" horiz-adv-x="337" 
d="M307 231h-277v122h277v-122z" />
    <glyph glyph-name="registered" unicode="&#xae;" horiz-adv-x="592" 
d="M296 728q113 0 182 -71t69 -187t-69 -187t-182 -71t-182 71t-69 187t69 187t182 71zM296 690q-95 0 -154 -61t-59 -159t59 -159t154 -61t154 61t59 159t-59 159t-154 61zM171 631h138q53 0 81 -23t28 -66q0 -29 -15.5 -49.5t-43.5 -27.5v-2q16 -4 26.5 -17t21.5 -42
l32 -86h-81l-26 73q-7 23 -19.5 32.5t-35.5 9.5h-29v-115h-77v313zM248 572v-82h40q55 0 55 43q0 39 -53 39h-42z" />
    <glyph glyph-name="overscore" unicode="&#xaf;" horiz-adv-x="459" 
d="M409 589h-359v103h359v-103z" />
    <glyph glyph-name="degree" unicode="&#xb0;" horiz-adv-x="348" 
d="M174 722q58 0 99.5 -41.5t41.5 -99.5t-41.5 -99.5t-99.5 -41.5q-59 0 -100.5 41.5t-41.5 99.5t42 99.5t100 41.5zM174 644q-26 0 -44.5 -18.5t-18.5 -44.5t18.5 -44.5t44.5 -18.5t44.5 18.5t18.5 44.5t-18.5 44.5t-44.5 18.5z" />
    <glyph glyph-name="plusminus" unicode="&#xb1;" horiz-adv-x="566" 
d="M347 433h160v-127h-160v-143h-128v143h-160v127h160v143h128v-143zM507 0h-448v127h448v-127z" />
    <glyph glyph-name="twosuperior" unicode="&#xb2;" horiz-adv-x="471" 
d="M236 813q87 0 139.5 -41t52.5 -104q0 -55 -31.5 -90t-98.5 -64q-59 -26 -79.5 -41t-22.5 -33h245v-110h-407q-2 22 -2 28q0 78 31.5 126.5t109.5 87.5q64 31 88 50.5t24 45.5q0 20 -13 31t-35 11q-57 0 -59 -65h-140q1 81 53 124.5t145 43.5z" />
    <glyph glyph-name="threesuperior" unicode="&#xb3;" horiz-adv-x="464" 
d="M233 813q90 0 141.5 -36t51.5 -98q0 -38 -20 -62.5t-64 -40.5v-2q47 -15 68.5 -41t21.5 -69q0 -67 -53.5 -106t-144.5 -39q-101 0 -155.5 44t-54.5 126h142q0 -68 68 -68q27 0 43 12t16 34q0 51 -79 51h-13v99h16q33 0 52 13t19 36q0 45 -56 45q-63 0 -63 -65h-137
q0 79 53 123t148 44z" />
    <glyph glyph-name="acute" unicode="&#xb4;" horiz-adv-x="369" 
d="M178 564h-128l78 148h191z" />
    <glyph glyph-name="mu" unicode="&#xb5;" horiz-adv-x="626" 
d="M550 508v-330q0 -34 10 -47.5t33 -13.5q12 0 24 3v-115q-44 -14 -98 -14q-96 0 -120 75h-2q-14 -34 -43.5 -53t-66.5 -19q-38 0 -60 16v-195h-166v693h166v-291q0 -101 73 -101q40 0 62 31.5t22 93.5v267h166z" />
    <glyph glyph-name="paragraph" unicode="&#xb6;" horiz-adv-x="684" 
d="M656 602h-80v-722h-119v722h-76v-722h-118v403h-18q-94 0 -149.5 58t-55.5 156t55.5 156.5t149.5 58.5h411v-110z" />
    <glyph glyph-name="middot" unicode="&#xb7;" horiz-adv-x="274" 
d="M225 214h-176v183h176v-183z" />
    <glyph glyph-name="cedilla" unicode="&#xb8;" horiz-adv-x="348" 
d="M215 0l-37 -60q17 5 33 5q39 0 63 -21t24 -57q0 -44 -34.5 -71.5t-93.5 -27.5q-64 0 -120 32l26 53q43 -22 81 -22q44 0 44 31q0 33 -44 33q-17 0 -31 -6l-29 27l51 84h67z" />
    <glyph glyph-name="onesuperior" unicode="&#xb9;" horiz-adv-x="335" 
d="M276 330h-140v288h-125v101q67 0 100 19.5t40 63.5h125v-472z" />
    <glyph glyph-name="ordmasculine" unicode="&#xba;" horiz-adv-x="444" 
d="M222 697q92 0 146.5 -51.5t54.5 -137.5q0 -87 -54.5 -138t-146.5 -51t-146.5 51t-54.5 138q0 86 54.5 137.5t146.5 51.5zM222 596q-28 0 -43.5 -23t-15.5 -65t15.5 -65t43.5 -23t43.5 23t15.5 65t-15.5 65t-43.5 23z" />
    <glyph glyph-name="guillemotright" unicode="&#xbb;" horiz-adv-x="570" 
d="M185 454l114 -200l-114 -200h-142l106 200l-106 200h142zM414 454l114 -200l-114 -200h-143l106 200l-106 200h143z" />
    <glyph glyph-name="onequarter" unicode="&#xbc;" horiz-adv-x="824" 
d="M242 270h-130v244h-103v89q97 0 115 71h118v-404zM231 0h-100l363 674h100zM814 76h-70v-76h-121v76h-197v94l159 234h159v-236h70v-92zM532 168h97v37q0 73 4 120h-1q-37 -67 -64 -106z" />
    <glyph glyph-name="onehalf" unicode="&#xbd;" horiz-adv-x="849" 
d="M242 270h-130v244h-103v89q97 0 115 71h118v-404zM231 0h-100l363 674h100zM644 414q76 0 121.5 -35t45.5 -91q0 -46 -28 -77t-85 -54q-52 -21 -69.5 -33.5t-19.5 -27.5h214v-96h-357q-1 5 -1 25q0 68 27 109.5t94 74.5q59 28 79 43.5t20 38.5q0 15 -11 24t-30 9
q-49 0 -49 -55h-124q0 69 45.5 107t127.5 38z" />
    <glyph glyph-name="threequarters" unicode="&#xbe;" horiz-adv-x="942" 
d="M203 684q77 0 124 -32t47 -85q0 -63 -74 -87v-1q79 -24 79 -96q0 -58 -45.5 -90.5t-128.5 -32.5q-88 0 -136 37.5t-48 109.5h124q0 -56 60 -56q23 0 37 10.5t14 27.5q0 40 -65 40h-14v87h13q29 0 46 11t17 30q0 17 -14 27t-37 10q-55 0 -55 -53h-120q0 67 46.5 105
t129.5 38zM349 0h-100l363 674h100zM932 76h-70v-76h-121v76h-197v94l159 234h159v-236h70v-92zM650 168h97v37q0 73 4 120h-1q-37 -67 -64 -106z" />
    <glyph glyph-name="questiondown" unicode="&#xbf;" horiz-adv-x="542" 
d="M205 508h177v-147h-177v147zM283 -219q-116 0 -182 50t-66 139q0 51 21 87q20 36 78 84q56 48 72.5 79t16.5 90h140q2 -20 2 -44q0 -66 -16.5 -100.5t-74.5 -86.5q-42 -39 -53 -57q-12 -21 -12 -49q0 -29 19.5 -45.5t54.5 -16.5q85 0 87 98h172q-2 -111 -69 -169.5
t-190 -58.5z" />
    <glyph glyph-name="Agrave" unicode="&#xc0;" horiz-adv-x="715" 
d="M487 151h-258l-46 -151h-182l243 712h227l243 -712h-182zM445 293l-15 48q-44 144 -72 259h-2q-31 -130 -70 -259l-14 -48h173zM375 911l78 -151h-128l-141 151h191z" />
    <glyph glyph-name="Aacute" unicode="&#xc1;" horiz-adv-x="715" 
d="M487 151h-258l-46 -151h-182l243 712h227l243 -712h-182zM445 293l-15 48q-44 144 -72 259h-2q-31 -130 -70 -259l-14 -48h173zM390 760h-128l78 151h191z" />
    <glyph glyph-name="Acircumflex" unicode="&#xc2;" horiz-adv-x="715" 
d="M487 151h-258l-46 -151h-182l243 712h227l243 -712h-182zM445 293l-15 48q-44 144 -72 259h-2q-31 -130 -70 -259l-14 -48h173zM279 911h156l120 -151h-138l-60 79l-60 -79h-138z" />
    <glyph glyph-name="Atilde" unicode="&#xc3;" horiz-adv-x="715" 
d="M487 151h-258l-46 -151h-182l243 712h227l243 -712h-182zM445 293l-15 48q-44 144 -72 259h-2q-31 -130 -70 -259l-14 -48h173zM463 911h89q-4 -67 -36.5 -105t-88.5 -38q-35 0 -83 25q-32 18 -51 18q-38 0 -42 -43h-89q3 67 35.5 105t88.5 38q30 0 84 -25q31 -18 50 -18
q37 0 43 43z" />
    <glyph glyph-name="Adieresis" unicode="&#xc4;" horiz-adv-x="715" 
d="M487 151h-258l-46 -151h-182l243 712h227l243 -712h-182zM445 293l-15 48q-44 144 -72 259h-2q-31 -130 -70 -259l-14 -48h173zM316 769h-143v131h143v-131zM542 769h-142v131h142v-131z" />
    <glyph glyph-name="Aring" unicode="&#xc5;" horiz-adv-x="715" 
d="M487 151h-258l-46 -151h-182l243 712h227l243 -712h-182zM445 293l-15 48q-44 144 -72 259h-2q-31 -130 -70 -259l-14 -48h173zM357 979q47 0 80.5 -33.5t33.5 -80.5t-33.5 -80t-80.5 -33t-80.5 33t-33.5 80t33.5 80.5t80.5 33.5zM357 921q-23 0 -39.5 -16.5t-16.5 -39.5
t16.5 -39.5t39.5 -16.5t39.5 16.5t16.5 39.5t-16.5 39.5t-39.5 16.5z" />
    <glyph glyph-name="AE" unicode="&#xc6;" horiz-adv-x="977" 
d="M930 145v-145h-410l-23 160h-245l-67 -160h-191l318 712h611v-145h-319l19 -135h276v-143h-256l21 -144h266zM477 303l-39 269h-14l-112 -269h165z" />
    <glyph glyph-name="Ccedilla" unicode="&#xc7;" horiz-adv-x="715" 
d="M499 260h181q-10 -122 -83.5 -194t-197.5 -81l-28 -45q17 5 33 5q39 0 63 -21t24 -57q0 -44 -34.5 -71.5t-93.5 -27.5q-64 0 -120 32l26 53q43 -22 81 -22q44 0 44 31q0 33 -44 33q-18 0 -31 -6l-29 27l42 69q-138 11 -218 110t-80 261q0 172 90 272t243 100
q137 0 221 -74t89 -198h-179q-6 58 -40.5 90t-90.5 32q-71 0 -111.5 -59.5t-40.5 -162.5t40.5 -162.5t109.5 -59.5q56 0 91.5 33t42.5 93z" />
    <glyph glyph-name="Egrave" unicode="&#xc8;" horiz-adv-x="634" 
d="M579 567h-330v-135h308v-143h-308v-144h338v-145h-511v712h503v-145zM346 911l78 -151h-128l-141 151h191z" />
    <glyph glyph-name="Eacute" unicode="&#xc9;" horiz-adv-x="634" 
d="M579 567h-330v-135h308v-143h-308v-144h338v-145h-511v712h503v-145zM361 760h-128l78 151h191z" />
    <glyph glyph-name="Ecircumflex" unicode="&#xca;" horiz-adv-x="634" 
d="M579 567h-330v-135h308v-143h-308v-144h338v-145h-511v712h503v-145zM250 911h156l120 -151h-138l-60 79l-60 -79h-138z" />
    <glyph glyph-name="Edieresis" unicode="&#xcb;" horiz-adv-x="634" 
d="M579 567h-330v-135h308v-143h-308v-144h338v-145h-511v712h503v-145zM287 769h-143v131h143v-131zM513 769h-142v131h142v-131z" />
    <glyph glyph-name="Igrave" unicode="&#xcc;" horiz-adv-x="325" 
d="M249 0h-173v712h173v-712zM180 911l78 -151h-128l-141 151h191z" />
    <glyph glyph-name="Iacute" unicode="&#xcd;" horiz-adv-x="325" 
d="M249 0h-173v712h173v-712zM195 760h-128l78 151h191z" />
    <glyph glyph-name="Icircumflex" unicode="&#xce;" horiz-adv-x="325" 
d="M249 0h-173v712h173v-712zM84 911h156l120 -151h-138l-60 79l-60 -79h-138z" />
    <glyph glyph-name="Idieresis" unicode="&#xcf;" horiz-adv-x="325" 
d="M249 0h-173v712h173v-712zM121 769h-143v131h143v-131zM347 769h-142v131h142v-131z" />
    <glyph glyph-name="Eth" unicode="&#xd0;" horiz-adv-x="744" 
d="M77 712h253q182 0 281 -92.5t99 -263.5t-99 -263.5t-281 -92.5h-253v303h-62v114h62v295zM250 147h76q204 0 204 209t-204 209h-76v-148h153v-114h-153v-156z" />
    <glyph glyph-name="Ntilde" unicode="&#xd1;" horiz-adv-x="801" 
d="M726 0h-250l-124 281q-69 155 -116 285h-2q8 -171 8 -300v-266h-166v712h249l125 -281q70 -162 116 -285h2q-8 142 -8 300v266h166v-712zM507 911h89q-4 -67 -36.5 -105t-88.5 -38q-35 0 -83 25q-32 18 -51 18q-38 0 -42 -43h-89q3 67 35.5 105t88.5 38q30 0 84 -25
q31 -18 50 -18q37 0 43 43z" />
    <glyph glyph-name="Ograve" unicode="&#xd2;" horiz-adv-x="757" 
d="M379 728q158 0 251 -100.5t93 -271.5t-93 -271.5t-251 -100.5q-159 0 -252 100t-93 272t93 272t252 100zM379 578q-78 0 -121 -58.5t-43 -163.5t43 -163.5t121 -58.5q77 0 120 58.5t43 163.5t-43 163.5t-120 58.5zM396 911l78 -151h-128l-141 151h191z" />
    <glyph glyph-name="Oacute" unicode="&#xd3;" horiz-adv-x="757" 
d="M379 728q158 0 251 -100.5t93 -271.5t-93 -271.5t-251 -100.5q-159 0 -252 100t-93 272t93 272t252 100zM379 578q-78 0 -121 -58.5t-43 -163.5t43 -163.5t121 -58.5q77 0 120 58.5t43 163.5t-43 163.5t-120 58.5zM411 760h-128l78 151h191z" />
    <glyph glyph-name="Ocircumflex" unicode="&#xd4;" horiz-adv-x="757" 
d="M379 728q158 0 251 -100.5t93 -271.5t-93 -271.5t-251 -100.5q-159 0 -252 100t-93 272t93 272t252 100zM379 578q-78 0 -121 -58.5t-43 -163.5t43 -163.5t121 -58.5q77 0 120 58.5t43 163.5t-43 163.5t-120 58.5zM300 911h156l120 -151h-138l-60 79l-60 -79h-138z" />
    <glyph glyph-name="Otilde" unicode="&#xd5;" horiz-adv-x="757" 
d="M379 728q158 0 251 -100.5t93 -271.5t-93 -271.5t-251 -100.5q-159 0 -252 100t-93 272t93 272t252 100zM379 578q-78 0 -121 -58.5t-43 -163.5t43 -163.5t121 -58.5q77 0 120 58.5t43 163.5t-43 163.5t-120 58.5zM485 911h89q-4 -67 -36.5 -105t-88.5 -38q-35 0 -83 25
q-32 18 -51 18q-38 0 -42 -43h-89q3 67 35.5 105t88.5 38q30 0 84 -25q32 -18 50 -18q37 0 43 43z" />
    <glyph glyph-name="Odieresis" unicode="&#xd6;" horiz-adv-x="757" 
d="M379 728q158 0 251 -100.5t93 -271.5t-93 -271.5t-251 -100.5q-159 0 -252 100t-93 272t93 272t252 100zM379 578q-78 0 -121 -58.5t-43 -163.5t43 -163.5t121 -58.5q77 0 120 58.5t43 163.5t-43 163.5t-120 58.5zM337 769h-143v131h143v-131zM563 769h-142v131h142v-131
z" />
    <glyph glyph-name="multiply" unicode="&#xd7;" horiz-adv-x="566" 
d="M550 488l-176 -176l176 -175l-91 -92l-176 176l-175 -176l-91 92l175 175l-175 176l91 91l175 -175l176 175z" />
    <glyph glyph-name="Oslash" unicode="&#xd8;" horiz-adv-x="757" 
d="M694 708l-61 -83q90 -98 90 -269t-93 -271.5t-251 -100.5q-107 0 -187 47l-58 -79l-71 52l61 83q-90 98 -90 269q0 172 93 272t252 100q109 0 186 -47l59 79zM207 356q0 -74 22 -128l245 330q-41 29 -95 29q-82 0 -127 -61t-45 -170zM379 125q82 0 127 61t45 170
q0 79 -22 129l-245 -331q41 -29 95 -29z" />
    <glyph glyph-name="Ugrave" unicode="&#xd9;" horiz-adv-x="725" 
d="M655 712v-436q0 -141 -76 -216.5t-217 -75.5q-140 0 -216 75.5t-76 216.5v436h173v-432q0 -70 30.5 -107t88.5 -37q59 0 89.5 37t30.5 107v432h173zM380 911l78 -151h-128l-141 151h191z" />
    <glyph glyph-name="Uacute" unicode="&#xda;" horiz-adv-x="725" 
d="M655 712v-436q0 -141 -76 -216.5t-217 -75.5q-140 0 -216 75.5t-76 216.5v436h173v-432q0 -70 30.5 -107t88.5 -37q59 0 89.5 37t30.5 107v432h173zM394 760h-128l78 151h191z" />
    <glyph glyph-name="Ucircumflex" unicode="&#xdb;" horiz-adv-x="725" 
d="M655 712v-436q0 -141 -76 -216.5t-217 -75.5q-140 0 -216 75.5t-76 216.5v436h173v-432q0 -70 30.5 -107t88.5 -37q59 0 89.5 37t30.5 107v432h173zM284 911h156l120 -151h-138l-60 79l-60 -79h-138z" />
    <glyph glyph-name="Udieresis" unicode="&#xdc;" horiz-adv-x="725" 
d="M655 712v-436q0 -141 -76 -216.5t-217 -75.5q-140 0 -216 75.5t-76 216.5v436h173v-432q0 -70 30.5 -107t88.5 -37q59 0 89.5 37t30.5 107v432h173zM320 769h-143v131h143v-131zM546 769h-142v131h142v-131z" />
    <glyph glyph-name="Yacute" unicode="&#xdd;" horiz-adv-x="663" 
d="M418 269v-269h-173v269l-244 443h192l62 -129q41 -83 76 -179h2q31 87 75 179l62 129h192zM364 760h-128l78 151h191z" />
    <glyph glyph-name="Thorn" unicode="&#xde;" horiz-adv-x="654" 
d="M249 604h111q131 0 201.5 -63t70.5 -176t-70 -176t-201 -63h-112v-126h-173v712h173v-108zM249 462v-194h84q122 0 122 97t-122 97h-84z" />
    <glyph glyph-name="germandbls" unicode="&#xdf;" horiz-adv-x="587" 
d="M298 728q106 0 168.5 -48t62.5 -129q0 -117 -123 -156v-2q153 -35 153 -188q0 -101 -63 -155t-177 -54q-22 0 -43 4v128q5 -1 19 -1q93 0 93 97q0 48 -26 73.5t-75 25.5h-11v132q95 0 95 78q0 69 -69 69q-40 0 -57.5 -25t-17.5 -79v-498h-166v509q0 103 63 161t174 58z
" />
    <glyph glyph-name="agrave" unicode="&#xe0;" horiz-adv-x="561" 
d="M275 524q231 0 231 -206v-175q0 -91 15 -143h-150q-7 27 -7 66h-2q-58 -79 -165 -79q-80 0 -127.5 43.5t-47.5 112.5q0 68 47.5 107.5t154.5 56.5q51 9 122 14v18q0 80 -71 80q-70 0 -72 -71h-160q4 80 63.5 128t168.5 48zM346 212v18q-41 -1 -90 -10q-70 -13 -70 -65
q0 -27 17 -42.5t48 -15.5q44 0 70 26q25 26 25 89zM287 712l78 -148h-128l-141 148h191z" />
    <glyph glyph-name="aacute" unicode="&#xe1;" horiz-adv-x="561" 
d="M275 524q231 0 231 -206v-175q0 -91 15 -143h-150q-7 27 -7 66h-2q-58 -79 -165 -79q-80 0 -127.5 43.5t-47.5 112.5q0 68 47.5 107.5t154.5 56.5q51 9 122 14v18q0 80 -71 80q-70 0 -72 -71h-160q4 80 63.5 128t168.5 48zM346 212v18q-41 -1 -90 -10q-70 -13 -70 -65
q0 -27 17 -42.5t48 -15.5q44 0 70 26q25 26 25 89zM302 564h-128l78 148h191z" />
    <glyph glyph-name="acircumflex" unicode="&#xe2;" horiz-adv-x="561" 
d="M275 524q231 0 231 -206v-175q0 -91 15 -143h-150q-7 27 -7 66h-2q-58 -79 -165 -79q-80 0 -127.5 43.5t-47.5 112.5q0 68 47.5 107.5t154.5 56.5q51 9 122 14v18q0 80 -71 80q-70 0 -72 -71h-160q4 80 63.5 128t168.5 48zM346 212v18q-41 -1 -90 -10q-70 -13 -70 -65
q0 -27 17 -42.5t48 -15.5q44 0 70 26q25 26 25 89zM327 564l-58 76l-58 -76h-138l118 148h156l118 -148h-138z" />
    <glyph glyph-name="atilde" unicode="&#xe3;" horiz-adv-x="561" 
d="M275 524q231 0 231 -206v-175q0 -91 15 -143h-150q-7 27 -7 66h-2q-58 -79 -165 -79q-80 0 -127.5 43.5t-47.5 112.5q0 68 47.5 107.5t154.5 56.5q51 9 122 14v18q0 80 -71 80q-70 0 -72 -71h-160q4 80 63.5 128t168.5 48zM346 212v18q-41 -1 -90 -10q-70 -13 -70 -65
q0 -27 17 -42.5t48 -15.5q44 0 70 26q25 26 25 89zM375 712h89q-4 -67 -36.5 -105t-88.5 -38q-35 0 -83 25q-32 18 -51 18q-38 0 -42 -43h-89q3 67 35.5 105t88.5 38q30 0 84 -25q31 -18 50 -18q37 0 43 43z" />
    <glyph glyph-name="adieresis" unicode="&#xe4;" horiz-adv-x="561" 
d="M275 524q231 0 231 -206v-175q0 -91 15 -143h-150q-7 27 -7 66h-2q-58 -79 -165 -79q-80 0 -127.5 43.5t-47.5 112.5q0 68 47.5 107.5t154.5 56.5q51 9 122 14v18q0 80 -71 80q-70 0 -72 -71h-160q4 80 63.5 128t168.5 48zM346 212v18q-41 -1 -90 -10q-70 -13 -70 -65
q0 -27 17 -42.5t48 -15.5q44 0 70 26q25 26 25 89zM228 581h-143v131h143v-131zM454 581h-142v131h142v-131z" />
    <glyph glyph-name="aring" unicode="&#xe5;" horiz-adv-x="561" 
d="M275 524q231 0 231 -206v-175q0 -91 15 -143h-150q-7 27 -7 66h-2q-58 -79 -165 -79q-80 0 -127.5 43.5t-47.5 112.5q0 68 47.5 107.5t154.5 56.5q51 9 122 14v18q0 80 -71 80q-70 0 -72 -71h-160q4 80 63.5 128t168.5 48zM346 212v18q-41 -1 -90 -10q-70 -13 -70 -65
q0 -27 17 -42.5t48 -15.5q44 0 70 26q25 26 25 89zM269 780q47 0 80.5 -34t33.5 -80q0 -47 -33.5 -80t-80.5 -33t-80.5 33t-33.5 80q0 46 33.5 80t80.5 34zM269 722q-23 0 -39.5 -16.5t-16.5 -39.5t16.5 -39.5t39.5 -16.5t39.5 16.5t16.5 39.5t-16.5 39.5t-39.5 16.5z" />
    <glyph glyph-name="ae" unicode="&#xe6;" horiz-adv-x="895" 
d="M607 95q33 0 55 16.5t27 44.5h169q-15 -74 -84 -123t-165 -49q-124 0 -190 85q-58 -85 -191 -85q-95 0 -150.5 44.5t-55.5 114.5q0 87 67 128t213 41h55v27q0 80 -77 80q-35 0 -55 -18.5t-21 -52.5h-160q4 80 65 128t172 48q113 0 168 -54q65 54 158 54q87 0 150 -43.5
t90 -119.5q18 -51 18 -141h-353q5 -125 95 -125zM607 415q-82 0 -94 -104h186q-4 50 -29 77t-63 27zM357 224h-47q-66 0 -95 -17t-29 -53q0 -28 18.5 -45t50.5 -17q45 0 74 27q28 31 28 93v12z" />
    <glyph glyph-name="ccedilla" unicode="&#xe7;" horiz-adv-x="575" 
d="M297 110q34 0 55.5 25t23.5 69h173q-8 -93 -67 -151.5t-155 -67.5l-28 -45q17 5 33 5q39 0 63 -21t24 -57q0 -44 -34.5 -71.5t-93.5 -27.5q-64 0 -120 32l26 53q43 -22 81 -22q44 0 44 31q0 33 -44 33q-18 0 -31 -6l-29 27l42 70q-106 11 -168 83t-62 186q0 122 72 195.5
t193 73.5q106 0 176 -58.5t78 -151.5h-172q-4 40 -25.5 62.5t-55.5 22.5q-43 0 -67.5 -38t-24.5 -106q0 -69 24.5 -107t68.5 -38z" />
    <glyph glyph-name="egrave" unicode="&#xe8;" horiz-adv-x="584" 
d="M292 95q35 0 58 17t27 44h169q-17 -75 -85.5 -123.5t-166.5 -48.5q-123 0 -193.5 76t-70.5 198q0 117 70.5 191.5t191.5 74.5q88 0 151.5 -43t90.5 -120q20 -52 20 -141h-361q6 -125 99 -125zM292 415q-83 0 -96 -101h191q-5 50 -30.5 75.5t-64.5 25.5zM309 712l78 -148
h-128l-141 148h191z" />
    <glyph glyph-name="eacute" unicode="&#xe9;" horiz-adv-x="584" 
d="M292 95q35 0 58 17t27 44h169q-17 -75 -85.5 -123.5t-166.5 -48.5q-123 0 -193.5 76t-70.5 198q0 117 70.5 191.5t191.5 74.5q88 0 151.5 -43t90.5 -120q20 -52 20 -141h-361q6 -125 99 -125zM292 415q-83 0 -96 -101h191q-5 50 -30.5 75.5t-64.5 25.5zM324 564h-128
l78 148h191z" />
    <glyph glyph-name="ecircumflex" unicode="&#xea;" horiz-adv-x="584" 
d="M292 95q35 0 58 17t27 44h169q-17 -75 -85.5 -123.5t-166.5 -48.5q-123 0 -193.5 76t-70.5 198q0 117 70.5 191.5t191.5 74.5q88 0 151.5 -43t90.5 -120q20 -52 20 -141h-361q6 -125 99 -125zM292 415q-83 0 -96 -101h191q-5 50 -30.5 75.5t-64.5 25.5zM349 564l-58 76
l-58 -76h-138l118 148h156l118 -148h-138z" />
    <glyph glyph-name="edieresis" unicode="&#xeb;" horiz-adv-x="584" 
d="M292 95q35 0 58 17t27 44h169q-17 -75 -85.5 -123.5t-166.5 -48.5q-123 0 -193.5 76t-70.5 198q0 117 70.5 191.5t191.5 74.5q88 0 151.5 -43t90.5 -120q20 -52 20 -141h-361q6 -125 99 -125zM292 415q-83 0 -96 -101h191q-5 50 -30.5 75.5t-64.5 25.5zM250 581h-143v131
h143v-131zM476 581h-142v131h142v-131z" />
    <glyph glyph-name="igrave" unicode="&#xec;" horiz-adv-x="288" 
d="M227 0h-166v508h166v-508zM162 712l78 -148h-128l-141 148h191z" />
    <glyph glyph-name="iacute" unicode="&#xed;" horiz-adv-x="288" 
d="M227 0h-166v508h166v-508zM176 564h-128l78 148h191z" />
    <glyph glyph-name="icircumflex" unicode="&#xee;" horiz-adv-x="288" 
d="M227 0h-166v508h166v-508zM325 566h-130l-51 71l-50 -71h-131l108 146h146z" />
    <glyph glyph-name="idieresis" unicode="&#xef;" horiz-adv-x="288" 
d="M227 0h-166v508h166v-508zM120 581h-133v131h133v-131zM300 581h-132v131h132v-131z" />
    <glyph glyph-name="eth" unicode="&#xf0;" horiz-adv-x="597" 
d="M483 521q84 -119 84 -259q0 -128 -73 -203t-197 -75q-122 0 -194.5 70t-72.5 186q0 119 62 191t165 72q33 0 66 -12v2q-27 32 -74 74l-129 -48l-26 68l91 34q-19 15 -62 45l138 62q32 -20 71 -51l126 47l26 -68l-90 -34q53 -50 89 -101zM300 107q44 0 69.5 39t25.5 106
q0 68 -25.5 106.5t-69.5 38.5t-69.5 -38.5t-25.5 -106.5q0 -67 25.5 -106t69.5 -39z" />
    <glyph glyph-name="ntilde" unicode="&#xf1;" 
d="M366 521q88 0 137 -54t49 -155v-312h-166v294q0 98 -74 98q-40 0 -62.5 -33t-22.5 -96v-263h-166v508h155v-61h2q55 74 148 74zM413 712h89q-4 -67 -36.5 -105t-88.5 -38q-35 0 -83 25q-32 18 -51 18q-38 0 -42 -43h-89q3 67 35.5 105t88.5 38q30 0 84 -25q32 -18 50 -18
q37 0 43 43z" />
    <glyph glyph-name="ograve" unicode="&#xf2;" horiz-adv-x="604" 
d="M302 524q124 0 198 -73t74 -197t-74 -197t-198 -73t-198 73t-74 197t74 197t198 73zM302 398q-46 0 -71.5 -38.5t-25.5 -105.5t25.5 -105.5t71.5 -38.5t71.5 38.5t25.5 105.5t-25.5 105.5t-71.5 38.5zM320 712l78 -148h-128l-141 148h191z" />
    <glyph glyph-name="oacute" unicode="&#xf3;" horiz-adv-x="604" 
d="M302 524q124 0 198 -73t74 -197t-74 -197t-198 -73t-198 73t-74 197t74 197t198 73zM302 398q-46 0 -71.5 -38.5t-25.5 -105.5t25.5 -105.5t71.5 -38.5t71.5 38.5t25.5 105.5t-25.5 105.5t-71.5 38.5zM334 564h-128l78 148h191z" />
    <glyph glyph-name="ocircumflex" unicode="&#xf4;" horiz-adv-x="604" 
d="M302 524q124 0 198 -73t74 -197t-74 -197t-198 -73t-198 73t-74 197t74 197t198 73zM302 398q-46 0 -71.5 -38.5t-25.5 -105.5t25.5 -105.5t71.5 -38.5t71.5 38.5t25.5 105.5t-25.5 105.5t-71.5 38.5zM360 564l-58 76l-58 -76h-138l118 148h156l118 -148h-138z" />
    <glyph glyph-name="otilde" unicode="&#xf5;" horiz-adv-x="604" 
d="M302 524q124 0 198 -73t74 -197t-74 -197t-198 -73t-198 73t-74 197t74 197t198 73zM302 398q-46 0 -71.5 -38.5t-25.5 -105.5t25.5 -105.5t71.5 -38.5t71.5 38.5t25.5 105.5t-25.5 105.5t-71.5 38.5zM408 712h89q-4 -67 -36.5 -105t-88.5 -38q-35 0 -83 25
q-31 18 -51 18q-38 0 -42 -43h-89q3 67 35.5 105t88.5 38q30 0 84 -25q31 -18 50 -18q37 0 43 43z" />
    <glyph glyph-name="odieresis" unicode="&#xf6;" horiz-adv-x="604" 
d="M302 524q124 0 198 -73t74 -197t-74 -197t-198 -73t-198 73t-74 197t74 197t198 73zM302 398q-46 0 -71.5 -38.5t-25.5 -105.5t25.5 -105.5t71.5 -38.5t71.5 38.5t25.5 105.5t-25.5 105.5t-71.5 38.5zM260 581h-143v131h143v-131zM486 581h-142v131h142v-131z" />
    <glyph glyph-name="divide" unicode="&#xf7;" horiz-adv-x="566" 
d="M353 441h-140v117h140v-117zM507 252h-448v129h448v-129zM353 75h-140v118h140v-118z" />
    <glyph glyph-name="oslash" unicode="&#xf8;" horiz-adv-x="604" 
d="M548 520l-50 -67q76 -74 76 -199q0 -124 -74 -197t-198 -73q-73 0 -133 27l-51 -69l-61 44l50 68q-77 75 -77 200q0 124 74 197t198 73q77 0 134 -28l51 70zM302 406q-51 0 -79.5 -41t-28.5 -111q0 -40 11 -76l155 209q-25 19 -58 19zM302 102q50 0 79 41t29 111
q0 38 -11 74l-154 -208q24 -18 57 -18z" />
    <glyph glyph-name="ugrave" unicode="&#xf9;" 
d="M242 -13q-88 0 -137 54t-49 155v312h166v-294q0 -98 74 -98q40 0 62.5 33t22.5 96v263h166v-508h-155v61h-2q-55 -74 -148 -74zM322 712l78 -148h-128l-141 148h191z" />
    <glyph glyph-name="uacute" unicode="&#xfa;" 
d="M242 -13q-88 0 -137 54t-49 155v312h166v-294q0 -98 74 -98q40 0 62.5 33t22.5 96v263h166v-508h-155v61h-2q-55 -74 -148 -74zM337 564h-128l78 148h191z" />
    <glyph glyph-name="ucircumflex" unicode="&#xfb;" 
d="M242 -13q-88 0 -137 54t-49 155v312h166v-294q0 -98 74 -98q40 0 62.5 33t22.5 96v263h166v-508h-155v61h-2q-55 -74 -148 -74zM362 564l-58 76l-58 -76h-138l118 148h156l118 -148h-138z" />
    <glyph glyph-name="udieresis" unicode="&#xfc;" 
d="M242 -13q-88 0 -137 54t-49 155v312h166v-294q0 -98 74 -98q40 0 62.5 33t22.5 96v263h166v-508h-155v61h-2q-55 -74 -148 -74zM263 581h-143v131h143v-131zM489 581h-142v131h142v-131z" />
    <glyph glyph-name="yacute" unicode="&#xfd;" horiz-adv-x="530" 
d="M538 508l-169 -499q-39 -113 -92 -157t-152 -44q-42 0 -86 9v126q26 -8 51 -8q35 0 56 17.5t21 48.5q0 12 -5 32q-3 11 -23 66l-149 409h179l49 -170q32 -122 51 -212h2q21 106 51 213l47 169h169zM299 564h-128l78 148h191z" />
    <glyph glyph-name="thorn" unicode="&#xfe;" horiz-adv-x="610" 
d="M227 453h2q49 69 137 69q97 0 155.5 -73.5t58.5 -194.5q0 -122 -57.5 -195t-154.5 -73q-90 0 -139 69h-2v-240h-166v897h166v-259zM311 396q-42 0 -67.5 -38t-25.5 -104t25.5 -104t67.5 -38q43 0 69 38.5t26 103.5t-26 103.5t-69 38.5z" />
    <glyph glyph-name="ydieresis" unicode="&#xff;" horiz-adv-x="530" 
d="M538 508l-169 -499q-39 -113 -92 -157t-152 -44q-42 0 -86 9v126q26 -8 51 -8q35 0 56 17.5t21 48.5q0 12 -5 32q-3 11 -23 66l-149 409h179l49 -170q32 -122 51 -212h2q21 106 51 213l47 169h169zM225 581h-143v131h143v-131zM451 581h-142v131h142v-131z" />
    <glyph glyph-name="Amacron" unicode="&#x100;" horiz-adv-x="715" 
d="M487 151h-258l-46 -151h-182l243 712h227l243 -712h-182zM445 293l-15 48q-44 144 -72 259h-2q-31 -130 -70 -259l-14 -48h173zM537 776h-359v103h359v-103z" />
    <glyph glyph-name="amacron" unicode="&#x101;" horiz-adv-x="561" 
d="M275 524q231 0 231 -206v-175q0 -91 15 -143h-150q-7 27 -7 66h-2q-58 -79 -165 -79q-80 0 -127.5 43.5t-47.5 112.5q0 68 47.5 107.5t154.5 56.5q51 9 122 14v18q0 80 -71 80q-70 0 -72 -71h-160q4 80 63.5 128t168.5 48zM346 212v18q-41 -1 -90 -10q-70 -13 -70 -65
q0 -27 17 -42.5t48 -15.5q44 0 70 26q25 26 25 89zM449 589h-359v103h359v-103z" />
    <glyph glyph-name="Abreve" unicode="&#x102;" horiz-adv-x="715" 
d="M487 151h-258l-46 -151h-182l243 712h227l243 -712h-182zM445 293l-15 48q-44 144 -72 259h-2q-31 -130 -70 -259l-14 -48h173zM429 911h106q-4 -73 -50.5 -113.5t-127.5 -40.5t-127.5 40.5t-50.5 113.5h106q5 -58 72 -58t72 58z" />
    <glyph glyph-name="abreve" unicode="&#x103;" horiz-adv-x="561" 
d="M275 524q231 0 231 -206v-175q0 -91 15 -143h-150q-7 27 -7 66h-2q-58 -79 -165 -79q-80 0 -127.5 43.5t-47.5 112.5q0 68 47.5 107.5t154.5 56.5q51 9 122 14v18q0 80 -71 80q-70 0 -72 -71h-160q4 80 63.5 128t168.5 48zM346 212v18q-41 -1 -90 -10q-70 -13 -70 -65
q0 -27 17 -42.5t48 -15.5q44 0 70 26q25 26 25 89zM341 712h106q-4 -73 -50.5 -113.5t-127.5 -40.5t-127.5 40.5t-50.5 113.5h106q5 -58 72 -58t72 58z" />
    <glyph glyph-name="Aogonek" unicode="&#x104;" horiz-adv-x="715" 
d="M487 151h-258l-46 -151h-182l243 712h227l243 -712h-182zM445 293l-15 48q-44 144 -72 259h-2q-31 -130 -70 -259l-14 -48h173zM585 0h129q-65 -43 -65 -79q0 -30 33 -30q20 0 35 7v-82q-42 -15 -93 -15q-60 0 -91.5 24t-31.5 67q0 59 84 108z" />
    <glyph glyph-name="aogonek" unicode="&#x105;" horiz-adv-x="561" 
d="M489 -109q20 0 35 7v-82q-42 -15 -93 -15q-60 0 -91.5 24t-31.5 67q0 59 84 108h-21q-7 27 -7 66h-2q-58 -79 -165 -79q-80 0 -127.5 43.5t-47.5 112.5q0 68 47.5 107.5t154.5 56.5q51 9 122 14v18q0 80 -71 80q-70 0 -72 -71h-160q4 80 63.5 128t168.5 48
q231 0 231 -206v-175q0 -91 15 -143q-65 -43 -65 -79q0 -30 33 -30zM346 212v18q-41 -1 -90 -10q-70 -13 -70 -65q0 -27 17 -42.5t48 -15.5q44 0 70 26q25 26 25 89z" />
    <glyph glyph-name="Cacute" unicode="&#x106;" horiz-adv-x="715" 
d="M367 728q137 0 221 -74t89 -198h-179q-6 58 -40.5 90t-90.5 32q-71 0 -111.5 -59.5t-40.5 -162.5t40.5 -162.5t109.5 -59.5q56 0 91.5 33t42.5 93h181q-10 -131 -93.5 -203.5t-221.5 -72.5q-153 0 -242 100t-89 272t90 272t243 100zM399 760h-128l78 151h191z" />
    <glyph glyph-name="cacute" unicode="&#x107;" horiz-adv-x="575" 
d="M295 524q106 0 176 -58.5t78 -151.5h-172q-4 40 -25.5 62.5t-55.5 22.5q-43 0 -67.5 -38t-24.5 -106q0 -69 24.5 -107t68.5 -38q34 0 55.5 25t23.5 69h173q-8 -101 -76.5 -160.5t-176.5 -59.5q-121 0 -193.5 74t-72.5 197q0 122 72 195.5t193 73.5zM328 564h-128l78 148
h191z" />
    <glyph glyph-name="Ccircumflex" unicode="&#x108;" horiz-adv-x="715" 
d="M367 728q137 0 221 -74t89 -198h-179q-6 58 -40.5 90t-90.5 32q-71 0 -111.5 -59.5t-40.5 -162.5t40.5 -162.5t109.5 -59.5q56 0 91.5 33t42.5 93h181q-10 -131 -93.5 -203.5t-221.5 -72.5q-153 0 -242 100t-89 272t90 272t243 100zM289 911h156l120 -151h-138l-60 79
l-60 -79h-138z" />
    <glyph glyph-name="ccircumflex" unicode="&#x109;" horiz-adv-x="575" 
d="M295 524q106 0 176 -58.5t78 -151.5h-172q-4 40 -25.5 62.5t-55.5 22.5q-43 0 -67.5 -38t-24.5 -106q0 -69 24.5 -107t68.5 -38q34 0 55.5 25t23.5 69h173q-8 -101 -76.5 -160.5t-176.5 -59.5q-121 0 -193.5 74t-72.5 197q0 122 72 195.5t193 73.5zM353 564l-58 76
l-58 -76h-138l118 148h156l118 -148h-138z" />
    <glyph glyph-name="Cdotaccent" unicode="&#x10a;" horiz-adv-x="715" 
d="M367 728q137 0 221 -74t89 -198h-179q-6 58 -40.5 90t-90.5 32q-71 0 -111.5 -59.5t-40.5 -162.5t40.5 -162.5t109.5 -59.5q56 0 91.5 33t42.5 93h181q-10 -131 -93.5 -203.5t-221.5 -72.5q-153 0 -242 100t-89 272t90 272t243 100zM450 769h-166v131h166v-131z" />
    <glyph glyph-name="cdotaccent" unicode="&#x10b;" horiz-adv-x="575" 
d="M295 524q106 0 176 -58.5t78 -151.5h-172q-4 40 -25.5 62.5t-55.5 22.5q-43 0 -67.5 -38t-24.5 -106q0 -69 24.5 -107t68.5 -38q34 0 55.5 25t23.5 69h173q-8 -101 -76.5 -160.5t-176.5 -59.5q-121 0 -193.5 74t-72.5 197q0 122 72 195.5t193 73.5zM378 581h-166v131h166
v-131z" />
    <glyph glyph-name="Ccaron" unicode="&#x10c;" horiz-adv-x="715" 
d="M367 728q137 0 221 -74t89 -198h-179q-6 58 -40.5 90t-90.5 32q-71 0 -111.5 -59.5t-40.5 -162.5t40.5 -162.5t109.5 -59.5q56 0 91.5 33t42.5 93h181q-10 -131 -93.5 -203.5t-221.5 -72.5q-153 0 -242 100t-89 272t90 272t243 100zM445 760h-156l-120 151h138l60 -79
l60 79h138z" />
    <glyph glyph-name="ccaron" unicode="&#x10d;" horiz-adv-x="575" 
d="M295 524q106 0 176 -58.5t78 -151.5h-172q-4 40 -25.5 62.5t-55.5 22.5q-43 0 -67.5 -38t-24.5 -106q0 -69 24.5 -107t68.5 -38q34 0 55.5 25t23.5 69h173q-8 -101 -76.5 -160.5t-176.5 -59.5q-121 0 -193.5 74t-72.5 197q0 122 72 195.5t193 73.5zM373 564h-156
l-118 148h138l58 -76l58 76h138z" />
    <glyph glyph-name="Dcaron" unicode="&#x10e;" horiz-adv-x="742" 
d="M76 712h252q183 0 281.5 -92.5t98.5 -263.5t-98.5 -263.5t-281.5 -92.5h-252v712zM248 565v-418h76q204 0 204 209t-204 209h-76zM418 760h-156l-120 151h138l60 -79l60 79h138z" />
    <glyph glyph-name="dcaron" unicode="&#x10f;" horiz-adv-x="610" 
d="M549 0h-160v63h-2q-49 -77 -141 -77q-98 0 -157 73t-59 195t57.5 195t154.5 73q90 0 139 -69h2v259h166v-712zM299 396q-43 0 -69 -38.5t-26 -103.5t26 -103.5t69 -38.5q42 0 67.5 38t25.5 104t-25.5 104t-67.5 38zM671 534h-94l24 178h130z" />
    <glyph glyph-name="Dcroat" unicode="&#x110;" horiz-adv-x="744" 
d="M77 712h253q182 0 281 -92.5t99 -263.5t-99 -263.5t-281 -92.5h-253v303h-62v114h62v295zM250 147h76q204 0 204 209t-204 209h-76v-148h153v-114h-153v-156z" />
    <glyph glyph-name="dslash" unicode="&#x111;" horiz-adv-x="604" 
d="M615 572h-66v-572h-160v63h-2q-49 -77 -141 -77q-98 0 -157 73t-59 195t57.5 195t154.5 73q90 0 139 -69h2v119h-128v78h128v62h166v-62h66v-78zM299 112q42 0 67.5 38t25.5 104t-25.5 104t-67.5 38q-43 0 -69 -38.5t-26 -103.5t26 -103.5t69 -38.5z" />
    <glyph glyph-name="Emacron" unicode="&#x112;" horiz-adv-x="634" 
d="M579 567h-330v-135h308v-143h-308v-144h338v-145h-511v712h503v-145zM508 776h-359v103h359v-103z" />
    <glyph glyph-name="emacron" unicode="&#x113;" horiz-adv-x="584" 
d="M292 95q35 0 58 17t27 44h169q-17 -75 -85.5 -123.5t-166.5 -48.5q-123 0 -193.5 76t-70.5 198q0 117 70.5 191.5t191.5 74.5q88 0 151.5 -43t90.5 -120q20 -52 20 -141h-361q6 -125 99 -125zM292 415q-83 0 -96 -101h191q-5 50 -30.5 75.5t-64.5 25.5zM471 589h-359v103
h359v-103z" />
    <glyph glyph-name="Ebreve" unicode="&#x114;" horiz-adv-x="634" 
d="M579 567h-330v-135h308v-143h-308v-144h338v-145h-511v712h503v-145zM400 911h106q-4 -73 -50.5 -113.5t-127.5 -40.5t-127.5 40.5t-50.5 113.5h106q5 -58 72 -58t72 58z" />
    <glyph glyph-name="ebreve" unicode="&#x115;" horiz-adv-x="584" 
d="M292 95q35 0 58 17t27 44h169q-17 -75 -85.5 -123.5t-166.5 -48.5q-123 0 -193.5 76t-70.5 198q0 117 70.5 191.5t191.5 74.5q88 0 151.5 -43t90.5 -120q20 -52 20 -141h-361q6 -125 99 -125zM292 415q-83 0 -96 -101h191q-5 50 -30.5 75.5t-64.5 25.5zM363 712h106
q-4 -73 -50.5 -113.5t-127.5 -40.5t-127.5 40.5t-50.5 113.5h106q5 -58 72 -58t72 58z" />
    <glyph glyph-name="Edotaccent" unicode="&#x116;" horiz-adv-x="634" 
d="M579 567h-330v-135h308v-143h-308v-144h338v-145h-511v712h503v-145zM411 769h-166v131h166v-131z" />
    <glyph glyph-name="edotaccent" unicode="&#x117;" horiz-adv-x="584" 
d="M292 95q35 0 58 17t27 44h169q-17 -75 -85.5 -123.5t-166.5 -48.5q-123 0 -193.5 76t-70.5 198q0 117 70.5 191.5t191.5 74.5q88 0 151.5 -43t90.5 -120q20 -52 20 -141h-361q6 -125 99 -125zM292 415q-83 0 -96 -101h191q-5 50 -30.5 75.5t-64.5 25.5zM374 581h-166v131
h166v-131z" />
    <glyph glyph-name="Eogonek" unicode="&#x118;" horiz-adv-x="634" 
d="M579 567h-330v-135h308v-143h-308v-144h338v-145h-511v712h503v-145zM458 0h129q-65 -43 -65 -79q0 -30 33 -30q20 0 35 7v-82q-42 -15 -93 -15q-60 0 -91.5 24t-31.5 67q0 59 84 108z" />
    <glyph glyph-name="eogonek" unicode="&#x119;" horiz-adv-x="584" 
d="M466 27q-58 -55 -58 -101q0 -35 34 -35q19 0 34 7v-82q-40 -15 -92 -15q-61 0 -92.5 24t-31.5 67q0 51 59 92v2q-22 -2 -25 -2q-123 0 -193.5 76t-70.5 198q0 117 70.5 191.5t191.5 74.5q88 0 151.5 -43t90.5 -120q20 -52 20 -141h-361q6 -125 99 -125q35 0 58 17t27 44
h169q-13 -65 -80 -129zM292 415q-83 0 -96 -101h191q-5 50 -30.5 75.5t-64.5 25.5z" />
    <glyph glyph-name="Ecaron" unicode="&#x11a;" horiz-adv-x="634" 
d="M579 567h-330v-135h308v-143h-308v-144h338v-145h-511v712h503v-145zM406 760h-156l-120 151h138l60 -79l60 79h138z" />
    <glyph glyph-name="ecaron" unicode="&#x11b;" horiz-adv-x="584" 
d="M292 95q35 0 58 17t27 44h169q-17 -75 -85.5 -123.5t-166.5 -48.5q-123 0 -193.5 76t-70.5 198q0 117 70.5 191.5t191.5 74.5q88 0 151.5 -43t90.5 -120q20 -52 20 -141h-361q6 -125 99 -125zM292 415q-83 0 -96 -101h191q-5 50 -30.5 75.5t-64.5 25.5zM369 564h-156
l-118 148h138l58 -76l58 76h138z" />
    <glyph glyph-name="Gcircumflex" unicode="&#x11c;" horiz-adv-x="751" 
d="M379 728q132 0 215 -66t92 -177h-186q-17 98 -121 98q-76 0 -120 -61.5t-44 -168.5q0 -109 43.5 -172t119.5 -63q67 0 104 38.5t39 109.5h-153v134h315v-400h-148v72h-2q-63 -86 -198 -86q-139 0 -220 98t-81 269q0 174 93 274.5t252 100.5zM294 911h156l120 -151h-138
l-60 79l-60 -79h-138z" />
    <glyph glyph-name="gcircumflex" unicode="&#x11d;" horiz-adv-x="602" 
d="M240 522q90 0 144 -82h2v68h155v-475q0 -113 -65.5 -170.5t-189.5 -57.5q-105 0 -165.5 42.5t-68.5 120.5h161q2 -26 22 -41t54 -15q91 0 91 121v47h-2q-53 -74 -141 -74q-94 0 -150.5 70t-56.5 188q0 117 57.5 187.5t152.5 70.5zM292 392q-41 0 -65.5 -34.5t-24.5 -93.5
q0 -58 24.5 -92.5t65.5 -34.5q43 0 68 34.5t25 92.5q0 59 -25 93.5t-68 34.5zM341 564l-58 76l-58 -76h-138l118 148h156l118 -148h-138z" />
    <glyph glyph-name="Gbreve" unicode="&#x11e;" horiz-adv-x="751" 
d="M379 728q132 0 215 -66t92 -177h-186q-17 98 -121 98q-76 0 -120 -61.5t-44 -168.5q0 -109 43.5 -172t119.5 -63q67 0 104 38.5t39 109.5h-153v134h315v-400h-148v72h-2q-63 -86 -198 -86q-139 0 -220 98t-81 269q0 174 93 274.5t252 100.5zM444 911h106
q-4 -73 -50.5 -113.5t-127.5 -40.5t-127.5 40.5t-50.5 113.5h106q5 -58 72 -58t72 58z" />
    <glyph glyph-name="gbreve" unicode="&#x11f;" horiz-adv-x="602" 
d="M240 522q90 0 144 -82h2v68h155v-475q0 -113 -65.5 -170.5t-189.5 -57.5q-105 0 -165.5 42.5t-68.5 120.5h161q2 -26 22 -41t54 -15q91 0 91 121v47h-2q-53 -74 -141 -74q-94 0 -150.5 70t-56.5 188q0 117 57.5 187.5t152.5 70.5zM292 392q-41 0 -65.5 -34.5t-24.5 -93.5
q0 -58 24.5 -92.5t65.5 -34.5q43 0 68 34.5t25 92.5q0 59 -25 93.5t-68 34.5zM355 712h106q-4 -73 -50.5 -113.5t-127.5 -40.5t-127.5 40.5t-50.5 113.5h106q5 -58 72 -58t72 58z" />
    <glyph glyph-name="Gdotaccent" unicode="&#x120;" horiz-adv-x="751" 
d="M379 728q132 0 215 -66t92 -177h-186q-17 98 -121 98q-76 0 -120 -61.5t-44 -168.5q0 -109 43.5 -172t119.5 -63q67 0 104 38.5t39 109.5h-153v134h315v-400h-148v72h-2q-63 -86 -198 -86q-139 0 -220 98t-81 269q0 174 93 274.5t252 100.5zM455 769h-166v131h166v-131z
" />
    <glyph glyph-name="gdotaccent" unicode="&#x121;" horiz-adv-x="602" 
d="M240 522q90 0 144 -82h2v68h155v-475q0 -113 -65.5 -170.5t-189.5 -57.5q-105 0 -165.5 42.5t-68.5 120.5h161q2 -26 22 -41t54 -15q91 0 91 121v47h-2q-53 -74 -141 -74q-94 0 -150.5 70t-56.5 188q0 117 57.5 187.5t152.5 70.5zM292 392q-41 0 -65.5 -34.5t-24.5 -93.5
q0 -58 24.5 -92.5t65.5 -34.5q43 0 68 34.5t25 92.5q0 59 -25 93.5t-68 34.5zM366 581h-166v131h166v-131z" />
    <glyph glyph-name="Gcommaaccent" unicode="&#x122;" horiz-adv-x="751" 
d="M379 728q132 0 215 -66t92 -177h-186q-17 98 -121 98q-76 0 -120 -61.5t-44 -168.5q0 -109 43.5 -172t119.5 -63q67 0 104 38.5t39 109.5h-153v134h315v-400h-148v72h-2q-63 -86 -198 -86q-139 0 -220 98t-81 269q0 174 93 274.5t252 100.5zM440 -166l-71 -109h-63
l46 109h-46v112h134v-112z" />
    <glyph glyph-name="gcommaaccent" unicode="&#x123;" horiz-adv-x="602" 
d="M240 522q90 0 144 -82h2v68h155v-475q0 -113 -65.5 -170.5t-189.5 -57.5q-105 0 -165.5 42.5t-68.5 120.5h161q2 -26 22 -41t54 -15q91 0 91 121v47h-2q-53 -74 -141 -74q-94 0 -150.5 70t-56.5 188q0 117 57.5 187.5t152.5 70.5zM292 392q-41 0 -65.5 -34.5t-24.5 -93.5
q0 -58 24.5 -92.5t65.5 -34.5q43 0 68 34.5t25 92.5q0 59 -25 93.5t-68 34.5zM304 684h46v-112h-134v112l71 109h63z" />
    <glyph glyph-name="Hcircumflex" unicode="&#x124;" horiz-adv-x="761" 
d="M685 0h-173v295h-263v-295h-173v712h173v-270h263v270h173v-712zM302 911h156l120 -151h-138l-60 79l-60 -79h-138z" />
    <glyph glyph-name="hcircumflex" unicode="&#x125;" 
d="M227 457h2q52 64 137 64q88 0 137 -54t49 -155v-312h-166v294q0 98 -74 98q-40 0 -62.5 -33t-22.5 -96v-263h-166v712h166v-255zM225 911h156l120 -151h-138l-60 79l-60 -79h-138z" />
    <glyph glyph-name="Hbar" unicode="&#x126;" horiz-adv-x="761" 
d="M738 564h-53v-564h-173v295h-263v-295h-173v564h-53v80h53v68h173v-68h263v68h173v-68h53v-80zM512 564h-263v-122h263v122z" />
    <glyph glyph-name="hbar" unicode="&#x127;" 
d="M366 521q88 0 137 -54t49 -155v-312h-166v294q0 98 -74 98q-40 0 -62.5 -33t-22.5 -96v-263h-166v572h-71v73h71v67h166v-67h122v-73h-122v-115h2q52 64 137 64z" />
    <glyph glyph-name="Itilde" unicode="&#x128;" horiz-adv-x="325" 
d="M249 0h-173v712h173v-712zM268 911h89q-4 -67 -36.5 -105t-88.5 -38q-35 0 -83 25q-31 18 -51 18q-38 0 -42 -43h-89q3 67 35.5 105t88.5 38q30 0 84 -25q31 -18 50 -18q37 0 43 43z" />
    <glyph glyph-name="itilde" unicode="&#x129;" horiz-adv-x="288" 
d="M227 0h-166v508h166v-508zM239 712h78q-4 -69 -33 -106.5t-82 -37.5q-31 0 -72 26q-29 19 -45 19q-33 0 -36 -45h-77q3 69 32.5 106.5t80.5 37.5q31 0 72 -26q28 -19 45 -19q33 0 37 45z" />
    <glyph glyph-name="Imacron" unicode="&#x12a;" horiz-adv-x="325" 
d="M249 0h-173v712h173v-712zM342 776h-359v103h359v-103z" />
    <glyph glyph-name="imacron" unicode="&#x12b;" horiz-adv-x="288" 
d="M227 0h-166v508h166v-508zM294 592h-300v103h300v-103z" />
    <glyph glyph-name="Ibreve" unicode="&#x12c;" horiz-adv-x="325" 
d="M249 0h-173v712h173v-712zM234 911h106q-4 -73 -50.5 -113.5t-127.5 -40.5t-127.5 40.5t-50.5 113.5h106q5 -58 72 -58t72 58z" />
    <glyph glyph-name="ibreve" unicode="&#x12d;" horiz-adv-x="288" 
d="M227 0h-166v508h166v-508zM206 712h100q-3 -73 -45 -113.5t-117 -40.5t-117 40t-45 114h100q5 -60 62 -60q58 0 62 60z" />
    <glyph glyph-name="Iogonek" unicode="&#x12e;" horiz-adv-x="325" 
d="M249 0h-173v712h173v-712zM120 0h129q-65 -43 -65 -79q0 -30 33 -30q20 0 35 7v-82q-42 -15 -93 -15q-60 0 -91.5 24t-31.5 67q0 59 84 108z" />
    <glyph glyph-name="iogonek" unicode="&#x12f;" horiz-adv-x="288" 
d="M227 581h-166v131h166v-131zM195 -109q20 0 35 7v-82q-42 -15 -93 -15q-60 0 -91.5 24t-31.5 67q0 59 84 108h-37v508h166v-508q-65 -43 -65 -79q0 -30 33 -30z" />
    <glyph glyph-name="Idot" unicode="&#x130;" horiz-adv-x="325" 
d="M249 0h-173v712h173v-712zM245 769h-166v131h166v-131z" />
    <glyph glyph-name="dotlessi" unicode="&#x131;" horiz-adv-x="288" 
d="M227 0h-166v508h166v-508z" />
    <glyph glyph-name="IJ" unicode="&#x132;" horiz-adv-x="735" 
d="M249 0h-173v712h173v-712zM664 712v-471q0 -128 -59.5 -188.5t-186.5 -60.5q-46 0 -78 9v144q25 -5 45 -5q59 0 82.5 29.5t23.5 109.5v433h173z" />
    <glyph glyph-name="ij" unicode="&#x133;" horiz-adv-x="577" 
d="M227 581h-166v131h166v-131zM516 581h-166v131h166v-131zM227 0h-166v508h166v-508zM516 508v-507q0 -96 -49 -143.5t-138 -47.5q-47 0 -80 9v116q12 -3 26 -3q40 0 57.5 21.5t17.5 75.5v479h166z" />
    <glyph glyph-name="Jcircumflex" unicode="&#x134;" horiz-adv-x="410" 
d="M339 712v-471q0 -128 -59.5 -188.5t-186.5 -60.5q-47 0 -78 9v144q25 -5 45 -5q59 0 82.5 29.5t23.5 109.5v433h173zM176 911h156l120 -151h-138l-60 79l-60 -79h-138z" />
    <glyph glyph-name="jcircumflex" unicode="&#x135;" horiz-adv-x="289" 
d="M228 508v-507q0 -96 -49 -143.5t-138 -47.5q-47 0 -80 9v116q12 -3 26 -3q40 0 57.5 21.5t17.5 75.5v479h166zM326 566h-130l-51 71l-50 -71h-131l108 146h146z" />
    <glyph glyph-name="Kcommaaccent" unicode="&#x136;" horiz-adv-x="690" 
d="M408 375l278 -375h-218l-217 328h-2v-328h-173v712h173v-307h2l209 307h207zM412 -166l-71 -109h-63l46 109h-46v112h134v-112z" />
    <glyph glyph-name="kcommaaccent" unicode="&#x137;" horiz-adv-x="566" 
d="M576 0h-204l-143 230h-2v-230h-166v712h166v-404h2l136 200h192l-181 -237zM364 -166l-71 -109h-63l46 109h-46v112h134v-112z" />
    <glyph glyph-name="kgreenlandic" unicode="&#x138;" horiz-adv-x="577" 
d="M576 0h-204l-143 230h-2v-230h-166v508h166v-200h2l136 200h192l-181 -237z" />
    <glyph glyph-name="Lacute" unicode="&#x139;" horiz-adv-x="580" 
d="M249 147h322v-147h-495v712h173v-565zM224 760h-128l78 151h191z" />
    <glyph glyph-name="lacute" unicode="&#x13a;" horiz-adv-x="288" 
d="M227 0h-166v712h166v-712zM189 768h-128l78 148h191z" />
    <glyph glyph-name="Lcommaaccent" unicode="&#x13b;" horiz-adv-x="580" 
d="M249 147h322v-147h-495v712h173v-565zM391 -166l-71 -109h-63l46 109h-46v112h134v-112z" />
    <glyph glyph-name="lcommaaccent" unicode="&#x13c;" horiz-adv-x="288" 
d="M227 0h-166v712h166v-712zM211 -166l-71 -109h-63l46 109h-46v112h134v-112z" />
    <glyph glyph-name="Lcaron" unicode="&#x13d;" horiz-adv-x="580" 
d="M249 147h322v-147h-495v712h173v-565zM379 483h-94l24 229h130z" />
    <glyph glyph-name="lcaron" unicode="&#x13e;" horiz-adv-x="288" 
d="M227 0h-166v712h166v-712zM349 534h-94l24 178h130z" />
    <glyph glyph-name="Ldot" unicode="&#x13f;" horiz-adv-x="663" 
d="M249 147h322v-147h-495v712h173v-565zM579 345h-176v183h176v-183z" />
    <glyph glyph-name="ldot" unicode="&#x140;" horiz-adv-x="513" 
d="M227 0h-166v712h166v-712zM489 264h-176v183h176v-183z" />
    <glyph glyph-name="Lslash" unicode="&#x141;" horiz-adv-x="587" 
d="M578 147v-147h-495v278l-71 -42v134l71 42v300h173v-212l144 86v-134l-144 -86v-219h322z" />
    <glyph glyph-name="lslash" unicode="&#x142;" horiz-adv-x="352" 
d="M342 397l-83 -49v-348h-166v269l-83 -49v127l83 49v316h166v-237l83 49v-127z" />
    <glyph glyph-name="Nacute" unicode="&#x143;" horiz-adv-x="801" 
d="M726 0h-250l-124 281q-69 155 -116 285h-2q8 -171 8 -300v-266h-166v712h249l125 -281q70 -162 116 -285h2q-8 142 -8 300v266h166v-712zM433 760h-128l78 151h191z" />
    <glyph glyph-name="nacute" unicode="&#x144;" 
d="M366 521q88 0 137 -54t49 -155v-312h-166v294q0 98 -74 98q-40 0 -62.5 -33t-22.5 -96v-263h-166v508h155v-61h2q55 74 148 74zM339 564h-128l78 148h191z" />
    <glyph glyph-name="Ncommaaccent" unicode="&#x145;" horiz-adv-x="801" 
d="M726 0h-250l-124 281q-69 155 -116 285h-2q8 -171 8 -300v-266h-166v712h249l125 -281q70 -162 116 -285h2q-8 142 -8 300v266h166v-712zM468 -166l-71 -109h-63l46 109h-46v112h134v-112z" />
    <glyph glyph-name="ncommaaccent" unicode="&#x146;" 
d="M366 521q88 0 137 -54t49 -155v-312h-166v294q0 98 -74 98q-40 0 -62.5 -33t-22.5 -96v-263h-166v508h155v-61h2q55 74 148 74zM374 -166l-71 -109h-63l46 109h-46v112h134v-112z" />
    <glyph glyph-name="Ncaron" unicode="&#x147;" horiz-adv-x="801" 
d="M726 0h-250l-124 281q-69 155 -116 285h-2q8 -171 8 -300v-266h-166v712h249l125 -281q70 -162 116 -285h2q-8 142 -8 300v266h166v-712zM478 760h-156l-120 151h138l60 -79l60 79h138z" />
    <glyph glyph-name="ncaron" unicode="&#x148;" 
d="M366 521q88 0 137 -54t49 -155v-312h-166v294q0 98 -74 98q-40 0 -62.5 -33t-22.5 -96v-263h-166v508h155v-61h2q55 74 148 74zM385 564h-156l-118 148h138l58 -76l58 76h138z" />
    <glyph glyph-name="napostrophe" unicode="&#x149;" horiz-adv-x="778" 
d="M207 556l-77 -152h-83l59 152h-49v156h150v-156zM536 521q88 0 137 -54t49 -155v-312h-166v294q0 98 -74 98q-40 0 -62.5 -33t-22.5 -96v-263h-166v508h155v-61h2q55 74 148 74z" />
    <glyph glyph-name="Eng" unicode="&#x14a;" horiz-adv-x="760" 
d="M684 712v-716q0 -95 -49.5 -142.5t-138.5 -47.5q-46 0 -79 9v114q12 -3 28 -3q68 0 68 59q0 19 -7 34q-9 19 -36 68l-122 218q-66 121 -114 228h-2q10 -114 10 -252v-281h-166v712h214l122 -218q63 -113 113 -228h2q-9 127 -9 253v193h166z" />
    <glyph glyph-name="eng" unicode="&#x14b;" 
d="M370 522q81 0 128 -47q29 -29 41.5 -69t12.5 -108v-295q0 -96 -49 -144t-138 -48q-45 0 -80 9v117q12 -3 26 -3q40 0 57.5 21.5t17.5 74.5v252q0 68 -23 91q-20 20 -51 20q-40 0 -62.5 -33t-22.5 -96v-264h-166v508h162v-56h2q55 70 145 70z" />
    <glyph glyph-name="Omacron" unicode="&#x14c;" horiz-adv-x="757" 
d="M379 728q158 0 251 -100.5t93 -271.5t-93 -271.5t-251 -100.5q-159 0 -252 100t-93 272t93 272t252 100zM379 578q-78 0 -121 -58.5t-43 -163.5t43 -163.5t121 -58.5q77 0 120 58.5t43 163.5t-43 163.5t-120 58.5zM558 776h-359v103h359v-103z" />
    <glyph glyph-name="omacron" unicode="&#x14d;" horiz-adv-x="604" 
d="M302 524q124 0 198 -73t74 -197t-74 -197t-198 -73t-198 73t-74 197t74 197t198 73zM302 398q-46 0 -71.5 -38.5t-25.5 -105.5t25.5 -105.5t71.5 -38.5t71.5 38.5t25.5 105.5t-25.5 105.5t-71.5 38.5zM481 589h-359v103h359v-103z" />
    <glyph glyph-name="Obreve" unicode="&#x14e;" horiz-adv-x="757" 
d="M379 728q158 0 251 -100.5t93 -271.5t-93 -271.5t-251 -100.5q-159 0 -252 100t-93 272t93 272t252 100zM379 578q-78 0 -121 -58.5t-43 -163.5t43 -163.5t121 -58.5q77 0 120 58.5t43 163.5t-43 163.5t-120 58.5zM451 911h106q-4 -73 -50.5 -113.5t-127.5 -40.5
t-127.5 40.5t-50.5 113.5h106q5 -58 72 -58t72 58z" />
    <glyph glyph-name="obreve" unicode="&#x14f;" horiz-adv-x="604" 
d="M302 524q124 0 198 -73t74 -197t-74 -197t-198 -73t-198 73t-74 197t74 197t198 73zM302 398q-46 0 -71.5 -38.5t-25.5 -105.5t25.5 -105.5t71.5 -38.5t71.5 38.5t25.5 105.5t-25.5 105.5t-71.5 38.5zM374 712h106q-4 -73 -50.5 -113.5t-127.5 -40.5t-127.5 40.5
t-50.5 113.5h106q5 -58 72 -58t72 58z" />
    <glyph glyph-name="Ohungarumlaut" unicode="&#x150;" horiz-adv-x="757" 
d="M379 728q158 0 251 -100.5t93 -271.5t-93 -271.5t-251 -100.5q-159 0 -252 100t-93 272t93 272t252 100zM379 578q-78 0 -121 -58.5t-43 -163.5t43 -163.5t121 -58.5q77 0 120 58.5t43 163.5t-43 163.5t-120 58.5zM301 760h-123l98 151h166zM507 760h-124l99 151h166z
" />
    <glyph glyph-name="ohungarumlaut" unicode="&#x151;" horiz-adv-x="604" 
d="M302 524q124 0 198 -73t74 -197t-74 -197t-198 -73t-198 73t-74 197t74 197t198 73zM302 398q-46 0 -71.5 -38.5t-25.5 -105.5t25.5 -105.5t71.5 -38.5t71.5 38.5t25.5 105.5t-25.5 105.5t-71.5 38.5zM235 564h-123l98 148h166zM441 564h-124l99 148h166z" />
    <glyph glyph-name="OE" unicode="&#x152;" horiz-adv-x="1021" 
d="M967 567h-331v-135h307v-143h-307v-144h338v-145h-555q-184 0 -284.5 93t-100.5 263t100.5 263t284.5 93h548v-145zM466 567h-47q-205 0 -205 -211t205 -211h47v422z" />
    <glyph glyph-name="oe" unicode="&#x153;" horiz-adv-x="938" 
d="M650 95q33 0 55 17t26 44h170q-17 -75 -84.5 -123.5t-165.5 -48.5q-112 0 -176 70q-67 -70 -176 -70q-123 0 -196 73t-73 197t73 197t196 73q109 0 176 -70q64 70 174 70q88 0 150.5 -43t89.5 -120q19 -54 19 -141h-354q6 -125 96 -125zM649 415q-37 0 -61 -25.5
t-31 -75.5h184q-4 50 -28.5 75.5t-63.5 25.5zM302 110q46 0 71.5 38.5t25.5 105.5t-25.5 105.5t-71.5 38.5t-71.5 -38.5t-25.5 -105.5t25.5 -105.5t71.5 -38.5z" />
    <glyph glyph-name="Racute" unicode="&#x154;" horiz-adv-x="685" 
d="M76 712h289q262 0 262 -203q0 -65 -35 -110.5t-96 -63.5v-2q38 -13 61 -43.5t48 -99.5l69 -190h-186l-54 161q-19 57 -44.5 78t-75.5 21h-65v-260h-173v712zM249 578v-187h95q112 0 112 96q0 91 -119 91h-88zM366 760h-128l78 151h191z" />
    <glyph glyph-name="racute" unicode="&#x155;" horiz-adv-x="415" 
d="M360 516q26 0 48 -6v-142q-32 5 -51 5q-63 0 -96.5 -38.5t-33.5 -111.5v-223h-166v508h154v-70h2q52 78 143 78zM252 564h-128l78 148h191z" />
    <glyph glyph-name="Rcommaaccent" unicode="&#x156;" horiz-adv-x="685" 
d="M76 712h289q262 0 262 -203q0 -65 -35 -110.5t-96 -63.5v-2q38 -13 61 -43.5t48 -99.5l69 -190h-186l-54 161q-19 57 -44.5 78t-75.5 21h-65v-260h-173v712zM249 578v-187h95q112 0 112 96q0 91 -119 91h-88zM421 -166l-71 -109h-63l46 109h-46v112h134v-112z" />
    <glyph glyph-name="rcommaaccent" unicode="&#x157;" horiz-adv-x="415" 
d="M360 516q26 0 48 -6v-142q-32 5 -51 5q-63 0 -96.5 -38.5t-33.5 -111.5v-223h-166v508h154v-70h2q52 78 143 78zM211 -166l-71 -109h-63l46 109h-46v112h134v-112z" />
    <glyph glyph-name="Rcaron" unicode="&#x158;" horiz-adv-x="685" 
d="M76 712h289q262 0 262 -203q0 -65 -35 -110.5t-96 -63.5v-2q38 -13 61 -43.5t48 -99.5l69 -190h-186l-54 161q-19 57 -44.5 78t-75.5 21h-65v-260h-173v712zM249 578v-187h95q112 0 112 96q0 91 -119 91h-88zM411 760h-156l-120 151h138l60 -79l60 79h138z" />
    <glyph glyph-name="rcaron" unicode="&#x159;" horiz-adv-x="415" 
d="M360 516q26 0 48 -6v-142q-32 5 -51 5q-63 0 -96.5 -38.5t-33.5 -111.5v-223h-166v508h154v-70h2q52 78 143 78zM297 564h-156l-118 148h138l58 -76l58 76h138z" />
    <glyph glyph-name="Sacute" unicode="&#x15a;" horiz-adv-x="645" 
d="M315 728q135 0 207 -59.5t72 -173.5h-180q0 48 -27.5 73.5t-78.5 25.5q-43 0 -68.5 -18.5t-25.5 -48.5q3 -34 29 -50t113 -38q93 -23 142.5 -46t81.5 -64q33 -43 33 -117q0 -103 -79.5 -165.5t-211.5 -62.5q-141 0 -219.5 65.5t-78.5 182.5h184q0 -110 118 -110
q49 0 77 20t28 55q-4 39 -26 52.5t-110 37.5q-95 24 -144 46.5t-81 62.5q-34 43 -34 115q0 98 76 157.5t203 59.5zM347 760h-128l78 151h191z" />
    <glyph glyph-name="sacute" unicode="&#x15b;" horiz-adv-x="542" 
d="M267 524q108 0 166.5 -43.5t58.5 -126.5h-158q0 65 -68 65q-59 0 -59 -40q0 -22 20 -33t84 -27q72 -20 108.5 -36t62.5 -47q28 -34 28 -89q0 -75 -63 -119t-173 -44q-243 0 -243 181h167q0 -72 78 -72q30 0 47 11.5t17 30.5q-4 27 -23 37.5t-94 31.5q-66 17 -99 32
t-56 44q-25 31 -25 85q0 72 60 115.5t164 43.5zM300 564h-128l78 148h191z" />
    <glyph glyph-name="Scircumflex" unicode="&#x15c;" horiz-adv-x="645" 
d="M315 728q135 0 207 -59.5t72 -173.5h-180q0 48 -27.5 73.5t-78.5 25.5q-43 0 -68.5 -18.5t-25.5 -48.5q3 -34 29 -50t113 -38q93 -23 142.5 -46t81.5 -64q33 -43 33 -117q0 -103 -79.5 -165.5t-211.5 -62.5q-141 0 -219.5 65.5t-78.5 182.5h184q0 -110 118 -110
q49 0 77 20t28 55q-4 39 -26 52.5t-110 37.5q-95 24 -144 46.5t-81 62.5q-34 43 -34 115q0 98 76 157.5t203 59.5zM236 911h156l120 -151h-138l-60 79l-60 -79h-138z" />
    <glyph glyph-name="scircumflex" unicode="&#x15d;" horiz-adv-x="542" 
d="M267 524q108 0 166.5 -43.5t58.5 -126.5h-158q0 65 -68 65q-59 0 -59 -40q0 -22 20 -33t84 -27q72 -20 108.5 -36t62.5 -47q28 -34 28 -89q0 -75 -63 -119t-173 -44q-243 0 -243 181h167q0 -72 78 -72q30 0 47 11.5t17 30.5q-4 27 -23 37.5t-94 31.5q-66 17 -99 32
t-56 44q-25 31 -25 85q0 72 60 115.5t164 43.5zM325 564l-58 76l-58 -76h-138l118 148h156l118 -148h-138z" />
    <glyph glyph-name="Scedilla" unicode="&#x15e;" horiz-adv-x="645" 
d="M613 212q0 -98 -72 -159.5t-192 -67.5l-28 -45q17 5 33 5q39 0 63 -21t24 -57q0 -44 -34.5 -71.5t-93.5 -27.5q-64 0 -120 32l26 53q43 -22 81 -22q44 0 44 31q0 33 -44 33q-18 0 -31 -6l-29 27l42 69q-123 10 -190.5 74.5t-67.5 172.5h184q0 -110 118 -110q49 0 77 20
t28 55q-4 39 -26 52.5t-110 37.5q-95 24 -144 46.5t-81 62.5q-34 43 -34 115q0 98 76 157.5t203 59.5q135 0 207 -59.5t72 -173.5h-180q0 48 -27.5 73.5t-78.5 25.5q-43 0 -68.5 -18.5t-25.5 -48.5q3 -34 29 -50t113 -38q93 -23 142.5 -46t81.5 -64q33 -43 33 -117z" />
    <glyph glyph-name="scedilla" unicode="&#x15f;" horiz-adv-x="542" 
d="M510 147q0 -69 -54.5 -112.5t-150.5 -49.5l-28 -45q17 5 33 5q39 0 63 -21t24 -57q0 -44 -34.5 -71.5t-93.5 -27.5q-64 0 -120 32l26 53q43 -22 81 -22q44 0 44 31q0 33 -44 33q-18 0 -31 -6l-29 27l42 69q-207 14 -207 180h167q0 -72 78 -72q30 0 47 11.5t17 30.5
q-4 27 -23 37.5t-94 31.5q-66 17 -99 32t-56 44q-25 31 -25 85q0 72 60 115.5t164 43.5q108 0 166.5 -43.5t58.5 -126.5h-158q0 65 -68 65q-59 0 -59 -40q0 -22 20 -33t84 -27q72 -20 108.5 -36t62.5 -47q28 -34 28 -89z" />
    <glyph glyph-name="Scaron" unicode="&#x160;" horiz-adv-x="645" 
d="M315 728q135 0 207 -59.5t72 -173.5h-180q0 48 -27.5 73.5t-78.5 25.5q-43 0 -68.5 -18.5t-25.5 -48.5q3 -34 29 -50t113 -38q93 -23 142.5 -46t81.5 -64q33 -43 33 -117q0 -103 -79.5 -165.5t-211.5 -62.5q-141 0 -219.5 65.5t-78.5 182.5h184q0 -110 118 -110
q49 0 77 20t28 55q-4 39 -26 52.5t-110 37.5q-95 24 -144 46.5t-81 62.5q-34 43 -34 115q0 98 76 157.5t203 59.5zM392 760h-156l-120 151h138l60 -79l60 79h138z" />
    <glyph glyph-name="scaron" unicode="&#x161;" horiz-adv-x="542" 
d="M267 524q108 0 166.5 -43.5t58.5 -126.5h-158q0 65 -68 65q-59 0 -59 -40q0 -22 20 -33t84 -27q72 -20 108.5 -36t62.5 -47q28 -34 28 -89q0 -75 -63 -119t-173 -44q-243 0 -243 181h167q0 -72 78 -72q30 0 47 11.5t17 30.5q-4 27 -23 37.5t-94 31.5q-66 17 -99 32
t-56 44q-25 31 -25 85q0 72 60 115.5t164 43.5zM345 564h-156l-118 148h138l58 -76l58 76h138z" />
    <glyph glyph-name="uni0162" unicode="&#x162;" horiz-adv-x="627" 
d="M618 565h-218v-565h-173v565h-218v147h609v-147zM381 -166l-71 -109h-63l46 109h-46v112h134v-112z" />
    <glyph glyph-name="uni0163" unicode="&#x163;" horiz-adv-x="378" 
d="M316 123q19 0 37 5v-125q-36 -11 -84 -11q-96 0 -139.5 40t-43.5 129v226h-79v121h79v137h166v-137h96v-121h-96v-188q0 -41 15 -58.5t49 -17.5zM144 -54h134v-112l-71 -109h-63l46 109h-46v112z" />
    <glyph glyph-name="Tcaron" unicode="&#x164;" horiz-adv-x="627" 
d="M618 565h-218v-565h-173v565h-218v147h609v-147zM391 760h-156l-120 151h138l60 -79l60 79h138z" />
    <glyph glyph-name="tcaron" unicode="&#x165;" horiz-adv-x="378" 
d="M316 123q19 0 37 5v-125q-36 -11 -84 -11q-96 0 -139.5 40t-43.5 129v226h-79v121h79v137h166v-137h96v-121h-96v-188q0 -41 15 -58.5t49 -17.5zM374 534h-94l24 178h130z" />
    <glyph glyph-name="Tbar" unicode="&#x166;" horiz-adv-x="627" 
d="M400 565v-173h132v-114h-132v-278h-173v278h-132v114h132v173h-218v147h609v-147h-218z" />
    <glyph glyph-name="tbar" unicode="&#x167;" horiz-adv-x="378" 
d="M316 120q19 0 37 5v-122q-36 -11 -84 -11q-96 0 -139 39.5t-43 129.5v59h-76v89h76v82h-80v117h80v137h165v-137h96v-117h-96v-82h91v-89h-91v-24q0 -41 14.5 -58.5t49.5 -17.5z" />
    <glyph glyph-name="Utilde" unicode="&#x168;" horiz-adv-x="725" 
d="M655 712v-436q0 -141 -76 -216.5t-217 -75.5q-140 0 -216 75.5t-76 216.5v436h173v-432q0 -70 30.5 -107t88.5 -37q59 0 89.5 37t30.5 107v432h173zM468 911h89q-4 -67 -36.5 -105t-88.5 -38q-35 0 -83 25q-31 18 -51 18q-38 0 -42 -43h-89q3 67 35.5 105t88.5 38
q30 0 84 -25q31 -18 50 -18q37 0 43 43z" />
    <glyph glyph-name="utilde" unicode="&#x169;" 
d="M242 -13q-88 0 -137 54t-49 155v312h166v-294q0 -98 74 -98q40 0 62.5 33t22.5 96v263h166v-508h-155v61h-2q-55 -74 -148 -74zM410 712h89q-4 -67 -36.5 -105t-88.5 -38q-35 0 -83 25q-31 18 -51 18q-38 0 -42 -43h-89q3 67 35.5 105t88.5 38q30 0 84 -25q31 -18 50 -18
q37 0 43 43z" />
    <glyph glyph-name="Umacron" unicode="&#x16a;" horiz-adv-x="725" 
d="M655 712v-436q0 -141 -76 -216.5t-217 -75.5q-140 0 -216 75.5t-76 216.5v436h173v-432q0 -70 30.5 -107t88.5 -37q59 0 89.5 37t30.5 107v432h173zM541 776h-359v103h359v-103z" />
    <glyph glyph-name="umacron" unicode="&#x16b;" 
d="M242 -13q-88 0 -137 54t-49 155v312h166v-294q0 -98 74 -98q40 0 62.5 33t22.5 96v263h166v-508h-155v61h-2q-55 -74 -148 -74zM484 589h-359v103h359v-103z" />
    <glyph glyph-name="Ubreve" unicode="&#x16c;" horiz-adv-x="725" 
d="M655 712v-436q0 -141 -76 -216.5t-217 -75.5q-140 0 -216 75.5t-76 216.5v436h173v-432q0 -70 30.5 -107t88.5 -37q59 0 89.5 37t30.5 107v432h173zM434 911h106q-4 -73 -50.5 -113.5t-127.5 -40.5t-127.5 40.5t-50.5 113.5h106q5 -58 72 -58t72 58z" />
    <glyph glyph-name="ubreve" unicode="&#x16d;" 
d="M242 -13q-88 0 -137 54t-49 155v312h166v-294q0 -98 74 -98q40 0 62.5 33t22.5 96v263h166v-508h-155v61h-2q-55 -74 -148 -74zM376 712h106q-4 -73 -50.5 -113.5t-127.5 -40.5t-127.5 40.5t-50.5 113.5h106q5 -58 72 -58t72 58z" />
    <glyph glyph-name="Uring" unicode="&#x16e;" horiz-adv-x="725" 
d="M655 712v-436q0 -141 -76 -216.5t-217 -75.5q-140 0 -216 75.5t-76 216.5v436h173v-432q0 -70 30.5 -107t88.5 -37q59 0 89.5 37t30.5 107v432h173zM362 979q46 0 80 -33.5t34 -80.5t-33.5 -80t-80.5 -33t-80.5 33t-33.5 80t34 80.5t80 33.5zM362 921q-23 0 -39.5 -16.5
t-16.5 -39.5t16.5 -39.5t39.5 -16.5t39.5 16.5t16.5 39.5t-16.5 39.5t-39.5 16.5z" />
    <glyph glyph-name="uring" unicode="&#x16f;" 
d="M242 -13q-88 0 -137 54t-49 155v312h166v-294q0 -98 74 -98q40 0 62.5 33t22.5 96v263h166v-508h-155v61h-2q-55 -74 -148 -74zM304 780q46 0 80 -34t34 -80q0 -47 -33.5 -80t-80.5 -33t-80.5 33t-33.5 80q0 46 34 80t80 34zM304 722q-23 0 -39.5 -16.5t-16.5 -39.5
t16.5 -39.5t39.5 -16.5t39.5 16.5t16.5 39.5t-16.5 39.5t-39.5 16.5z" />
    <glyph glyph-name="Uhungarumlaut" unicode="&#x170;" horiz-adv-x="725" 
d="M655 712v-436q0 -141 -76 -216.5t-217 -75.5q-140 0 -216 75.5t-76 216.5v436h173v-432q0 -70 30.5 -107t88.5 -37q59 0 89.5 37t30.5 107v432h173zM285 760h-123l98 151h166zM491 760h-124l99 151h166z" />
    <glyph glyph-name="uhungarumlaut" unicode="&#x171;" 
d="M242 -13q-88 0 -137 54t-49 155v312h166v-294q0 -98 74 -98q40 0 62.5 33t22.5 96v263h166v-508h-155v61h-2q-55 -74 -148 -74zM237 564h-123l98 148h166zM443 564h-124l99 148h166z" />
    <glyph glyph-name="Uogonek" unicode="&#x172;" horiz-adv-x="725" 
d="M655 712v-436q0 -163 -115 -255q-64 -52 -64 -96q0 -35 33 -35q21 0 34 6v-80q-37 -15 -89 -15q-122 0 -122 93q0 48 58 90v2q-24 -2 -28 -2q-140 0 -216 75.5t-76 216.5v436h173v-432q0 -70 30.5 -107t88.5 -37q59 0 89.5 37t30.5 107v432h173z" />
    <glyph glyph-name="uogonek" unicode="&#x173;" 
d="M516 -109q18 0 35 7v-82q-42 -15 -93 -15q-60 0 -91.5 24t-31.5 67q0 59 84 108h-27v61h-2q-55 -74 -148 -74q-88 0 -137 54t-49 155v312h166v-294q0 -98 74 -98q40 0 62.5 33t22.5 96v263h166v-508h1q-65 -43 -65 -79q0 -30 33 -30z" />
    <glyph glyph-name="Wcircumflex" unicode="&#x174;" horiz-adv-x="991" 
d="M839 0h-230l-60 285q-35 154 -53 286h-2q-20 -137 -52 -286l-60 -285h-230l-144 712h168l48 -257q31 -172 46 -298h2q26 156 57 298l56 257h221l56 -257q32 -140 56 -298h2q22 164 47 298l47 257h169zM416 911h156l120 -151h-138l-60 79l-60 -79h-138z" />
    <glyph glyph-name="wcircumflex" unicode="&#x175;" horiz-adv-x="848" 
d="M731 0h-227l-41 191q-24 118 -38 213h-2q-14 -95 -38 -213l-41 -191h-227l-113 508h162l33 -187q21 -119 32 -216h2q17 115 41 217l42 186h216l42 -186q24 -102 41 -217h2q11 97 32 216l33 187h162zM482 564l-58 76l-58 -76h-138l118 148h156l118 -148h-138z" />
    <glyph glyph-name="Ycircumflex" unicode="&#x176;" horiz-adv-x="663" 
d="M418 269v-269h-173v269l-244 443h192l62 -129q41 -83 76 -179h2q31 87 75 179l62 129h192zM253 911h156l120 -151h-138l-60 79l-60 -79h-138z" />
    <glyph glyph-name="ycircumflex" unicode="&#x177;" horiz-adv-x="530" 
d="M538 508l-169 -499q-39 -113 -92 -157t-152 -44q-42 0 -86 9v126q26 -8 51 -8q35 0 56 17.5t21 48.5q0 12 -5 32q-3 11 -23 66l-149 409h179l49 -170q32 -122 51 -212h2q21 106 51 213l47 169h169zM325 564l-58 76l-58 -76h-138l118 148h156l118 -148h-138z" />
    <glyph glyph-name="Ydieresis" unicode="&#x178;" horiz-adv-x="663" 
d="M418 269v-269h-173v269l-244 443h192l62 -129q41 -83 76 -179h2q31 87 75 179l62 129h192zM290 769h-143v131h143v-131zM516 769h-142v131h142v-131z" />
    <glyph glyph-name="Zacute" unicode="&#x179;" horiz-adv-x="593" 
d="M556 562l-329 -416v-2h345v-144h-552v150l329 416v2h-314v144h521v-150zM328 760h-128l78 151h191z" />
    <glyph glyph-name="zacute" unicode="&#x17a;" horiz-adv-x="502" 
d="M465 377l-232 -248v-2h240v-127h-444v131l231 248v2h-222v127h427v-131zM282 564h-128l78 148h191z" />
    <glyph glyph-name="Zdotaccent" unicode="&#x17b;" horiz-adv-x="593" 
d="M556 562l-329 -416v-2h345v-144h-552v150l329 416v2h-314v144h521v-150zM379 769h-166v131h166v-131z" />
    <glyph glyph-name="zdotaccent" unicode="&#x17c;" horiz-adv-x="502" 
d="M465 377l-232 -248v-2h240v-127h-444v131l231 248v2h-222v127h427v-131zM332 581h-166v131h166v-131z" />
    <glyph glyph-name="Zcaron" unicode="&#x17d;" horiz-adv-x="593" 
d="M556 562l-329 -416v-2h345v-144h-552v150l329 416v2h-314v144h521v-150zM374 760h-156l-120 151h138l60 -79l60 79h138z" />
    <glyph glyph-name="zcaron" unicode="&#x17e;" horiz-adv-x="502" 
d="M465 377l-232 -248v-2h240v-127h-444v131l231 248v2h-222v127h427v-131zM327 564h-156l-118 148h138l58 -76l58 76h138z" />
    <glyph glyph-name="longs" unicode="&#x17f;" horiz-adv-x="361" 
d="M273 721q43 0 79 -9v-114q-14 2 -24 2q-39 0 -56.5 -17.5t-17.5 -56.5v-526h-164v387h-81v121h81v37q0 176 183 176z" />
    <glyph glyph-name="Schwa" unicode="&#x18f;" horiz-adv-x="775" 
d="M379 728q168 0 265 -101t97 -270q2 -161 -96.5 -268t-259.5 -105q-160 0 -255.5 100.5t-95.5 270.5q0 34 3 55h524q-6 88 -55 133t-128 45q-57 0 -94 -26t-46 -70h-185q22 103 108.5 169.5t217.5 66.5zM385 125q69 0 114 40t58 116h-340q10 -75 55 -115.5t113 -40.5z" />
    <glyph glyph-name="florin" unicode="&#x192;" horiz-adv-x="628" 
d="M520 724q47 0 83 -10v-120q-23 6 -53 6q-40 0 -62.5 -19.5t-33.5 -64.5l-12 -48h111v-118h-139l-85 -334q-28 -110 -82 -159t-148 -49q-43 0 -74 9v121q22 -6 50 -6q40 0 61 21t35 77l82 320h-101v118h129l16 62q26 100 79.5 147t143.5 47z" />
    <glyph glyph-name="Aringacute" unicode="&#x1fa;" horiz-adv-x="715" 
d="M487 151h-258l-46 -151h-182l243 712h227l243 -712h-182zM445 293l-15 48q-44 144 -72 259h-2q-31 -130 -70 -259l-14 -48h173zM357 960q47 0 80.5 -34t33.5 -80q0 -47 -33.5 -80t-80.5 -33t-80.5 33t-33.5 80q0 46 33.5 80t80.5 34zM357 902q-23 0 -39.5 -16.5
t-16.5 -39.5t16.5 -39.5t39.5 -16.5t39.5 16.5t16.5 39.5t-16.5 39.5t-39.5 16.5zM390 982h-128l78 151h191z" />
    <glyph glyph-name="aringacute" unicode="&#x1fb;" horiz-adv-x="561" 
d="M275 524q231 0 231 -206v-175q0 -91 15 -143h-150q-7 27 -7 66h-2q-58 -79 -165 -79q-80 0 -127.5 43.5t-47.5 112.5q0 68 47.5 107.5t154.5 56.5q51 9 122 14v18q0 80 -71 80q-70 0 -72 -71h-160q4 80 63.5 128t168.5 48zM346 212v18q-41 -1 -90 -10q-70 -13 -70 -65
q0 -27 17 -42.5t48 -15.5q44 0 70 26q25 26 25 89zM269 772q47 0 80.5 -34t33.5 -80q0 -47 -33.5 -80t-80.5 -33t-80.5 33t-33.5 80q0 46 33.5 80t80.5 34zM269 714q-23 0 -39.5 -16.5t-16.5 -39.5t16.5 -39.5t39.5 -16.5t39.5 16.5t16.5 39.5t-16.5 39.5t-39.5 16.5z
M302 794h-128l78 148h191z" />
    <glyph glyph-name="AEacute" unicode="&#x1fc;" horiz-adv-x="977" 
d="M930 145v-145h-410l-23 160h-245l-67 -160h-191l318 712h611v-145h-319l19 -135h276v-143h-256l21 -144h266zM477 303l-39 269h-14l-112 -269h165zM549 760h-128l78 151h191z" />
    <glyph glyph-name="aeacute" unicode="&#x1fd;" horiz-adv-x="895" 
d="M607 95q33 0 55 16.5t27 44.5h169q-15 -74 -84 -123t-165 -49q-124 0 -190 85q-58 -85 -191 -85q-95 0 -150.5 44.5t-55.5 114.5q0 87 67 128t213 41h55v27q0 80 -77 80q-35 0 -55 -18.5t-21 -52.5h-160q4 80 65 128t172 48q113 0 168 -54q65 54 158 54q87 0 150 -43.5
t90 -119.5q18 -51 18 -141h-353q5 -125 95 -125zM607 415q-82 0 -94 -104h186q-4 50 -29 77t-63 27zM357 224h-47q-66 0 -95 -17t-29 -53q0 -28 18.5 -45t50.5 -17q45 0 74 27q28 31 28 93v12zM477 564h-128l78 148h191z" />
    <glyph glyph-name="Oslashacute" unicode="&#x1fe;" horiz-adv-x="757" 
d="M694 708l-61 -83q90 -98 90 -269t-93 -271.5t-251 -100.5q-107 0 -187 47l-58 -79l-71 52l61 83q-90 98 -90 269q0 172 93 272t252 100q109 0 186 -47l59 79zM207 356q0 -74 22 -128l245 330q-41 29 -95 29q-82 0 -127 -61t-45 -170zM379 125q82 0 127 61t45 170
q0 79 -22 129l-245 -331q41 -29 95 -29zM411 760h-128l78 151h191z" />
    <glyph glyph-name="oslashacute" unicode="&#x1ff;" horiz-adv-x="604" 
d="M548 520l-50 -67q76 -74 76 -199q0 -124 -74 -197t-198 -73q-73 0 -133 27l-51 -69l-61 44l50 68q-77 75 -77 200q0 124 74 197t198 73q77 0 134 -28l51 70zM302 406q-51 0 -79.5 -41t-28.5 -111q0 -40 11 -76l155 209q-25 19 -58 19zM302 102q50 0 79 41t29 111
q0 38 -11 74l-154 -208q24 -18 57 -18zM334 564h-128l78 148h191z" />
    <glyph glyph-name="Scommaaccent" unicode="&#x218;" horiz-adv-x="645" 
d="M315 728q135 0 207 -59.5t72 -173.5h-180q0 48 -27.5 73.5t-78.5 25.5q-43 0 -68.5 -18.5t-25.5 -48.5q3 -34 29 -50t113 -38q93 -23 142.5 -46t81.5 -64q33 -43 33 -117q0 -103 -79.5 -165.5t-211.5 -62.5q-141 0 -219.5 65.5t-78.5 182.5h184q0 -110 118 -110
q49 0 77 20t28 55q-4 39 -26 52.5t-110 37.5q-95 24 -144 46.5t-81 62.5q-34 43 -34 115q0 98 76 157.5t203 59.5zM384 -166l-71 -109h-63l46 109h-46v112h134v-112z" />
    <glyph glyph-name="scommaaccent" unicode="&#x219;" horiz-adv-x="542" 
d="M267 524q108 0 166.5 -43.5t58.5 -126.5h-158q0 65 -68 65q-59 0 -59 -40q0 -22 20 -33t84 -27q72 -20 108.5 -36t62.5 -47q28 -34 28 -89q0 -75 -63 -119t-173 -44q-243 0 -243 181h167q0 -72 78 -72q30 0 47 11.5t17 30.5q-4 27 -23 37.5t-94 31.5q-66 17 -99 32
t-56 44q-25 31 -25 85q0 72 60 115.5t164 43.5zM340 -166l-71 -109h-63l46 109h-46v112h134v-112z" />
    <glyph glyph-name="uni021A" unicode="&#x21a;" horiz-adv-x="627" 
d="M618 565h-218v-565h-173v565h-218v147h609v-147zM381 -166l-71 -109h-63l46 109h-46v112h134v-112z" />
    <glyph glyph-name="uni021B" unicode="&#x21b;" horiz-adv-x="378" 
d="M316 123q19 0 37 5v-125q-36 -11 -84 -11q-96 0 -139.5 40t-43.5 129v226h-79v121h79v137h166v-137h96v-121h-96v-188q0 -41 15 -58.5t49 -17.5zM278 -166l-71 -109h-63l46 109h-46v112h134v-112z" />
    <glyph glyph-name="dotlessj" unicode="&#x237;" horiz-adv-x="289" 
d="M228 508v-507q0 -96 -49 -143.5t-138 -47.5q-47 0 -80 9v116q12 -3 26 -3q40 0 57.5 21.5t17.5 75.5v479h166z" />
    <glyph glyph-name="schwa" unicode="&#x259;" horiz-adv-x="584" 
d="M287 524q125 0 196 -74.5t71 -194.5q0 -118 -71.5 -194.5t-191.5 -76.5q-119 0 -190 73t-71 196q0 14 2 38h358q-6 122 -101 122q-30 0 -51 -16t-26 -41h-169q17 73 83.5 120.5t160.5 47.5zM291 93q84 0 97 104h-192q5 -51 30.5 -77.5t64.5 -26.5z" />
    <glyph glyph-name="uni02BC" unicode="&#x2bc;" horiz-adv-x="266" 
d="M207 556l-77 -152h-83l59 152h-49v156h150v-156z" />
    <glyph glyph-name="circumflex" unicode="&#x2c6;" horiz-adv-x="492" 
d="M304 564l-58 76l-58 -76h-138l118 148h156l118 -148h-138z" />
    <glyph glyph-name="caron" unicode="&#x2c7;" horiz-adv-x="492" 
d="M324 564h-156l-118 148h138l58 -76l58 76h138z" />
    <glyph glyph-name="uni02C9" unicode="&#x2c9;" horiz-adv-x="459" 
d="M409 589h-359v103h359v-103z" />
    <glyph glyph-name="breve" unicode="&#x2d8;" horiz-adv-x="456" 
d="M300 712h106q-4 -73 -50.5 -113.5t-127.5 -40.5t-127.5 40.5t-50.5 113.5h106q5 -58 72 -58t72 58z" />
    <glyph glyph-name="dotaccent" unicode="&#x2d9;" horiz-adv-x="266" 
d="M216 581h-166v131h166v-131z" />
    <glyph glyph-name="ring" unicode="&#x2da;" horiz-adv-x="328" 
d="M164 780q46 0 80 -34t34 -80q0 -47 -33.5 -80t-80.5 -33t-80.5 33t-33.5 80q0 46 34 80t80 34zM164 722q-23 0 -39.5 -16.5t-16.5 -39.5t16.5 -39.5t39.5 -16.5t39.5 16.5t16.5 39.5t-16.5 39.5t-39.5 16.5z" />
    <glyph glyph-name="ogonek" unicode="&#x2db;" horiz-adv-x="316" 
d="M134 0h129q-65 -43 -65 -79q0 -30 33 -30q20 0 35 7v-82q-42 -15 -93 -15q-60 0 -91.5 24t-31.5 67q0 59 84 108z" />
    <glyph glyph-name="tilde" unicode="&#x2dc;" horiz-adv-x="490" 
d="M351 712h89q-4 -67 -36.5 -105t-88.5 -38q-35 0 -83 25q-32 18 -51 18q-38 0 -42 -43h-89q3 67 35.5 105t88.5 38q30 0 84 -25q32 -18 50 -18q37 0 43 43z" />
    <glyph glyph-name="hungarumlaut" unicode="&#x2dd;" horiz-adv-x="569" 
d="M173 564h-123l98 148h166zM379 564h-124l99 148h166z" />
    <glyph glyph-name="uni0312" unicode="&#x312;" horiz-adv-x="0" 
d="M138 684h46v-112h-134v112l71 109h63z" />
    <glyph glyph-name="commaaccent" unicode="&#x326;" horiz-adv-x="0" 
d="M184 -166l-71 -109h-63l46 109h-46v112h134v-112z" />
    <glyph glyph-name="uni0333" unicode="&#x333;" horiz-adv-x="0" 
d="M-500 -134h-500v84h500v-84zM-500 -291h-500v84h500v-84z" />
    <glyph glyph-name="numeralsigngreek" unicode="&#x374;" horiz-adv-x="234" 
d="M134 508h-104l27 204h147z" />
    <glyph glyph-name="numeralsignlowergreek" unicode="&#x375;" horiz-adv-x="234" 
d="M134 -92h-104l27 204h147z" />
    <glyph glyph-name="questiongreek" unicode="&#x37e;" horiz-adv-x="274" 
d="M225 324h-176v184h176v-184zM226 0l-91 -178h-98l69 178h-57v184h177v-184z" />
    <glyph glyph-name="tonos" unicode="&#x384;" horiz-adv-x="294" 
d="M173 566h-123l32 166h162z" />
    <glyph glyph-name="dieresistonos" unicode="&#x385;" horiz-adv-x="576" 
d="M320 566h-110l31 161h135zM179 577h-129v125h129v-125zM526 577h-129v125h129v-125z" />
    <glyph glyph-name="Alphatonos" unicode="&#x386;" horiz-adv-x="715" 
d="M487 151h-258l-46 -151h-182l243 712h227l243 -712h-182zM445 293l-15 48q-44 144 -72 259h-2q-31 -130 -70 -259l-14 -48h173zM106 506h-123l32 206h162z" />
    <glyph glyph-name="anoteleia" unicode="&#x387;" horiz-adv-x="274" 
d="M225 325h-176v183h176v-183z" />
    <glyph glyph-name="Epsilontonos" unicode="&#x388;" horiz-adv-x="634" 
d="M579 567h-330v-135h308v-143h-308v-144h338v-145h-511v712h503v-145zM-30 506h-123l32 206h162z" />
    <glyph glyph-name="Etatonos" unicode="&#x389;" horiz-adv-x="761" 
d="M685 0h-173v295h-263v-295h-173v712h173v-270h263v270h173v-712zM-30 506h-123l32 206h162z" />
    <glyph glyph-name="Iotatonos" unicode="&#x38a;" horiz-adv-x="325" 
d="M249 0h-173v712h173v-712zM-30 506h-123l32 206h162z" />
    <glyph glyph-name="Omicrontonos" unicode="&#x38c;" horiz-adv-x="757" 
d="M379 728q158 0 251 -100.5t93 -271.5t-93 -271.5t-251 -100.5q-159 0 -252 100t-93 272t93 272t252 100zM379 578q-78 0 -121 -58.5t-43 -163.5t43 -163.5t121 -58.5q77 0 120 58.5t43 163.5t-43 163.5t-120 58.5zM15 506h-123l32 206h162z" />
    <glyph glyph-name="Upsilontonos" unicode="&#x38e;" horiz-adv-x="663" 
d="M418 269v-269h-173v269l-244 443h192l62 -129q41 -83 76 -179h2q31 87 75 179l62 129h192zM-87 506h-123l32 206h162z" />
    <glyph glyph-name="Omegatonos" unicode="&#x38f;" horiz-adv-x="747" 
d="M373 728q153 0 244 -79t91 -232q0 -78 -33 -142t-99 -127v-2h143v-146h-299v152q54 55 80.5 110.5t26.5 126.5q0 91 -41.5 140t-112.5 49q-70 0 -111.5 -49t-41.5 -140q0 -71 26.5 -126.5t80.5 -110.5v-152h-299v146h143v2q-66 62 -99 126t-33 143q0 153 91 232t243 79z
M4 506h-123l32 206h162z" />
    <glyph glyph-name="iotadieresistonos" unicode="&#x390;" horiz-adv-x="334" 
d="M222 508v-296q0 -49 15 -70.5t49 -21.5q20 0 37 5v-123q-36 -10 -84 -10q-96 0 -139.5 45t-43.5 146v325h166zM171 566h-110l31 161h135zM30 577h-129v125h129v-125zM377 577h-129v125h129v-125z" />
    <glyph glyph-name="Alpha" unicode="&#x391;" horiz-adv-x="715" 
d="M487 151h-258l-46 -151h-182l243 712h227l243 -712h-182zM445 293l-15 48q-44 144 -72 259h-2q-31 -130 -70 -259l-14 -48h173z" />
    <glyph glyph-name="Beta" unicode="&#x392;" horiz-adv-x="664" 
d="M76 712h278q127 0 193 -48.5t66 -134.5q0 -121 -121 -163v-2q139 -31 139 -166q0 -91 -69 -144.5t-191 -53.5h-295v712zM246 578v-154h90q110 0 110 78q0 40 -25 58t-79 18h-96zM246 297v-162h94q60 0 86.5 19t26.5 60q0 43 -27 63t-89 20h-91z" />
    <glyph glyph-name="Gamma" unicode="&#x393;" horiz-adv-x="519" 
d="M76 0v712h434v-147h-261v-565h-173z" />
    <glyph glyph-name="uni0394" unicode="&#x394;" horiz-adv-x="714" 
d="M713 0h-712l245 712h224zM489 141l-61 200q-45 154 -71 259h-2q-26 -105 -71 -259l-60 -200h265z" />
    <glyph glyph-name="Epsilon" unicode="&#x395;" horiz-adv-x="634" 
d="M579 567h-330v-135h308v-143h-308v-144h338v-145h-511v712h503v-145z" />
    <glyph glyph-name="Zeta" unicode="&#x396;" horiz-adv-x="593" 
d="M556 562l-329 -416v-2h345v-144h-552v150l329 416v2h-314v144h521v-150z" />
    <glyph glyph-name="Eta" unicode="&#x397;" horiz-adv-x="761" 
d="M685 0h-173v295h-263v-295h-173v712h173v-270h263v270h173v-712z" />
    <glyph glyph-name="Theta" unicode="&#x398;" horiz-adv-x="757" 
d="M379 728q158 0 251 -100t93 -271t-93 -272t-251 -101t-251.5 101t-93.5 272t93.5 271t251.5 100zM379 586q-82 0 -127.5 -61t-45.5 -168q0 -108 45.5 -168.5t127.5 -60.5t127 60.5t45 168.5t-45.5 168.5t-126.5 60.5zM504 296h-250v121h250v-121z" />
    <glyph glyph-name="Iota" unicode="&#x399;" horiz-adv-x="325" 
d="M249 0h-173v712h173v-712z" />
    <glyph glyph-name="Kappa" unicode="&#x39a;" horiz-adv-x="690" 
d="M408 375l278 -375h-218l-217 328h-2v-328h-173v712h173v-307h2l209 307h207z" />
    <glyph glyph-name="Lambda" unicode="&#x39b;" horiz-adv-x="701" 
d="M700 0h-187l-96 335q-31 107 -66 257h-2q-27 -124 -65 -257l-96 -335h-187l234 712h230z" />
    <glyph glyph-name="Mu" unicode="&#x39c;" horiz-adv-x="1013" 
d="M937 0h-163v348q0 132 6 263h-2q-21 -90 -68 -259l-101 -352h-205l-101 352q-47 169 -68 259h-2q6 -131 6 -263v-348h-163v712h277l91 -316q33 -119 62 -262h2q20 110 61 262l92 316h276v-712z" />
    <glyph glyph-name="Nu" unicode="&#x39d;" horiz-adv-x="801" 
d="M726 0h-250l-124 281q-69 155 -116 285h-2q8 -171 8 -300v-266h-166v712h249l125 -281q70 -162 116 -285h2q-8 142 -8 300v266h166v-712z" />
    <glyph glyph-name="Xi" unicode="&#x39e;" horiz-adv-x="676" 
d="M615 551h-554v161h554v-161zM598 278h-520v161h520v-161zM629 0h-582v161h582v-161z" />
    <glyph glyph-name="Omicron" unicode="&#x39f;" horiz-adv-x="757" 
d="M379 728q158 0 251 -100.5t93 -271.5t-93 -271.5t-251 -100.5q-159 0 -252 100t-93 272t93 272t252 100zM379 578q-78 0 -121 -58.5t-43 -163.5t43 -163.5t121 -58.5q77 0 120 58.5t43 163.5t-43 163.5t-120 58.5z" />
    <glyph glyph-name="Pi" unicode="&#x3a0;" horiz-adv-x="750" 
d="M674 0h-172v565h-253v-565h-173v712h598v-712z" />
    <glyph glyph-name="Rho" unicode="&#x3a1;" horiz-adv-x="654" 
d="M76 712h285q131 0 201 -62.5t70 -174.5t-70 -174t-201 -62h-112v-239h-173v712zM249 573v-195h88q118 0 118 97q0 98 -118 98h-88z" />
    <glyph glyph-name="Sigma" unicode="&#x3a3;" horiz-adv-x="593" 
d="M558 566h-322v-2l158 -202l-171 -214v-2h349v-146h-548v150l166 212l-155 203v147h523v-146z" />
    <glyph glyph-name="Tau" unicode="&#x3a4;" horiz-adv-x="627" 
d="M618 565h-218v-565h-173v565h-218v147h609v-147z" />
    <glyph glyph-name="Upsilon" unicode="&#x3a5;" horiz-adv-x="663" 
d="M418 269v-269h-173v269l-244 443h192l62 -129q41 -83 76 -179h2q31 87 75 179l62 129h192z" />
    <glyph glyph-name="Phi" unicode="&#x3a6;" horiz-adv-x="860" 
d="M513 744v-67q151 -11 232 -91.5t81 -226.5q0 -145 -81 -226t-232 -92v-73h-166v73q-151 11 -232 93t-81 228q0 144 81 224t232 91v67h166zM351 176v366q-142 -12 -142 -180q0 -86 36.5 -133t105.5 -53zM509 542v-366q69 6 105.5 52.5t36.5 130.5t-36.5 130.5t-105.5 52.5
z" />
    <glyph glyph-name="Chi" unicode="&#x3a7;" horiz-adv-x="669" 
d="M446 365l222 -365h-204l-128 246h-2l-129 -246h-203l221 365l-209 347h199l121 -238h2l120 238h199z" />
    <glyph glyph-name="Psi" unicode="&#x3a8;" horiz-adv-x="860" 
d="M824 712v-235q0 -152 -76 -230t-233 -89v-158h-170v158q-157 11 -233 89t-76 230v235h170v-227q0 -92 32 -134t107 -49v410h170v-410q75 7 107 49t32 134v227h170z" />
    <glyph glyph-name="uni03A9" unicode="&#x3a9;" horiz-adv-x="747" 
d="M373 728q153 0 244 -79t91 -232q0 -78 -33 -142t-99 -127v-2h143v-146h-299v152q54 55 80.5 110.5t26.5 126.5q0 91 -41.5 140t-112.5 49q-70 0 -111.5 -49t-41.5 -140q0 -71 26.5 -126.5t80.5 -110.5v-152h-299v146h143v2q-66 62 -99 126t-33 143q0 153 91 232t243 79z
" />
    <glyph glyph-name="Iotadieresis" unicode="&#x3aa;" horiz-adv-x="325" 
d="M249 0h-173v712h173v-712zM121 785h-143v131h143v-131zM347 785h-142v131h142v-131z" />
    <glyph glyph-name="Upsilondieresis" unicode="&#x3ab;" horiz-adv-x="663" 
d="M418 269v-269h-173v269l-244 443h192l62 -129q41 -83 76 -179h2q31 87 75 179l62 129h192zM290 769h-143v131h143v-131zM516 769h-142v131h142v-131z" />
    <glyph glyph-name="alphatonos" unicode="&#x3ac;" horiz-adv-x="633" 
d="M246 522q94 0 142 -79h2q1 30 8 65h164q-10 -69 -10 -180v-150q0 -33 10 -47t32 -14q13 0 25 3v-115q-45 -14 -98 -14q-100 0 -126 74h-2q-50 -79 -148 -79q-97 0 -156 73t-59 195t59 195t157 73zM299 396q-43 0 -69 -38.5t-26 -103.5t26 -103.5t69 -38.5q42 0 67.5 38
t25.5 104t-25.5 104t-67.5 38zM358 566h-123l32 166h162z" />
    <glyph glyph-name="epsilontonos" unicode="&#x3ad;" horiz-adv-x="534" 
d="M263 524q109 0 172 -49t63 -135h-155q0 32 -20 50t-57 18q-31 0 -48.5 -13t-17.5 -36q0 -24 19.5 -37.5t54.5 -13.5h50v-105h-50q-83 0 -83 -53q0 -23 20 -36.5t53 -13.5q84 0 84 71h160q0 -92 -63 -139.5t-182 -47.5q-109 0 -170 40.5t-61 114.5q0 94 100 124v2
q-88 29 -88 110q0 69 59.5 109t159.5 40zM321 566h-123l32 166h162z" />
    <glyph glyph-name="etatonos" unicode="&#x3ae;" horiz-adv-x="629" 
d="M391 522q86 0 134 -54.5t48 -155.5v-497h-166v476q0 102 -74 102q-40 0 -62.5 -33.5t-22.5 -94.5v-265h-166v325q0 38 -10 53t-33 15q-15 0 -25 -3v112q50 15 93 15q52 0 81 -20.5t41 -66.5h2q56 92 160 92zM337 566h-123l32 166h162z" />
    <glyph glyph-name="iotatonos" unicode="&#x3af;" horiz-adv-x="334" 
d="M222 508v-296q0 -49 15 -70.5t49 -21.5q20 0 37 5v-123q-36 -10 -84 -10q-96 0 -139.5 45t-43.5 146v325h166zM200 566h-123l32 166h162z" />
    <glyph glyph-name="upsilondieresistonos" unicode="&#x3b0;" horiz-adv-x="613" 
d="M104 517q74 0 108 -38.5t34 -127.5v-154q0 -45 16.5 -66t52.5 -21q90 0 90 158q0 132 -34 240h161q37 -108 37 -253q0 -132 -63 -201.5t-188 -69.5q-120 0 -179.5 49.5t-59.5 152.5v128q0 44 -9.5 60.5t-33.5 16.5q-14 0 -25 -3v114q48 15 93 15zM328 566h-110l31 161
h135zM187 577h-129v125h129v-125zM534 577h-129v125h129v-125z" />
    <glyph glyph-name="alpha" unicode="&#x3b1;" horiz-adv-x="633" 
d="M246 522q94 0 142 -79h2q1 30 8 65h164q-10 -69 -10 -180v-150q0 -33 10 -47t32 -14q13 0 25 3v-115q-45 -14 -98 -14q-100 0 -126 74h-2q-50 -79 -148 -79q-97 0 -156 73t-59 195t59 195t157 73zM299 396q-43 0 -69 -38.5t-26 -103.5t26 -103.5t69 -38.5q42 0 67.5 38
t25.5 104t-25.5 104t-67.5 38z" />
    <glyph glyph-name="beta" unicode="&#x3b2;" horiz-adv-x="614" 
d="M310 728q111 0 176 -49t65 -134q0 -125 -124 -161v-2q159 -38 159 -186q0 -95 -61.5 -150.5t-168.5 -55.5q-90 0 -127 46h-2v-221h-166l1 668q0 116 65 180.5t183 64.5zM314 607q-87 0 -87 -119v-290q0 -40 22.5 -62.5t66.5 -22.5q47 0 73.5 26t26.5 74q0 100 -127 100
h-13v129h13q52 0 79 22.5t27 63.5q0 37 -21.5 58t-59.5 21z" />
    <glyph glyph-name="gamma" unicode="&#x3b3;" horiz-adv-x="573" 
d="M393 508h172q-15 -142 -62 -257q-46 -114 -140 -245v-12q0 -95 -11 -179h-166q11 84 11 179q0 64 -21 153q-22 91 -58 164q-21 46 -41.5 64t-46.5 18q-5 0 -23 -2v114q36 13 84 13q56 0 91 -26.5t64 -95.5q45 -104 61 -212h2q72 156 84 324z" />
    <glyph glyph-name="delta" unicode="&#x3b4;" horiz-adv-x="599" 
d="M303 722q115 0 208 -24v-130q-93 37 -186 37q-51 0 -51 -25q0 -14 22 -29.5t81 -44.5q99 -49 145.5 -114t46.5 -161q0 -112 -74 -179t-196 -67q-121 0 -195 66.5t-74 178.5q0 84 47 141.5t133 77.5v2q-60 40 -86 72.5t-26 72.5q0 126 205 126zM299 361q-44 0 -69 -34
t-25 -93t25 -93t69 -34t69.5 34t25.5 93t-25.5 93t-69.5 34z" />
    <glyph glyph-name="epsilon" unicode="&#x3b5;" horiz-adv-x="534" 
d="M263 524q109 0 172 -49t63 -135h-155q0 32 -20 50t-57 18q-31 0 -48.5 -13t-17.5 -36q0 -24 19.5 -37.5t54.5 -13.5h50v-105h-50q-83 0 -83 -53q0 -23 20 -36.5t53 -13.5q84 0 84 71h160q0 -92 -63 -139.5t-182 -47.5q-109 0 -170 40.5t-61 114.5q0 94 100 124v2
q-88 29 -88 110q0 69 59.5 109t159.5 40z" />
    <glyph glyph-name="zeta" unicode="&#x3b6;" horiz-adv-x="494" 
d="M478 712v-119q-274 -152 -274 -352q0 -55 32 -83.5t112 -41.5q74 -12 104 -47.5t30 -102.5q0 -58 -29 -111h-131q15 35 15 68q0 35 -21 52.5t-75 23.5q-115 14 -163 62t-48 143q0 111 68.5 210.5t193.5 176.5v2h-236v119h422z" />
    <glyph glyph-name="eta" unicode="&#x3b7;" horiz-adv-x="629" 
d="M391 522q86 0 134 -54.5t48 -155.5v-497h-166v476q0 102 -74 102q-40 0 -62.5 -33.5t-22.5 -94.5v-265h-166v325q0 38 -10 53t-33 15q-15 0 -25 -3v112q50 15 93 15q52 0 81 -20.5t41 -66.5h2q56 92 160 92z" />
    <glyph glyph-name="theta" unicode="&#x3b8;" horiz-adv-x="638" 
d="M319 727q138 0 212 -96t74 -275t-74 -275t-212 -96t-212 96t-74 275t74 275t212 96zM319 607q-102 0 -116 -195h231q-12 195 -115 195zM319 105q103 0 115 195h-231q14 -195 116 -195z" />
    <glyph glyph-name="iota" unicode="&#x3b9;" horiz-adv-x="334" 
d="M222 508v-296q0 -49 15 -70.5t49 -21.5q20 0 37 5v-123q-36 -10 -84 -10q-96 0 -139.5 45t-43.5 146v325h166z" />
    <glyph glyph-name="kappa" unicode="&#x3ba;" horiz-adv-x="584" 
d="M398 0l-133 166l-41 -46v-120h-166v508h166v-204h2l82 96q57 66 102 91q44 25 104 25q27 0 54 -8v-136q-15 6 -36 6q-75 0 -166 -98l230 -280h-198z" />
    <glyph glyph-name="lambda" unicode="&#x3bb;" horiz-adv-x="615" 
d="M164 722q89 -2 136.5 -43t95.5 -165l111 -297q23 -59 42 -81t45 -22q4 0 14 2v-116q-27 -9 -67 -9q-70 0 -107.5 31t-68.5 122q-25 70 -65 191h-1q-40 -109 -73 -193l-56 -142h-178l225 502q-18 51 -39.5 71.5t-56.5 20.5q-26 0 -48 -8v122q36 14 91 14z" />
    <glyph glyph-name="uni03BC" unicode="&#x3bc;" horiz-adv-x="626" 
d="M550 508v-330q0 -34 10 -47.5t33 -13.5q12 0 24 3v-115q-44 -14 -98 -14q-96 0 -120 75h-2q-14 -34 -43.5 -53t-66.5 -19q-38 0 -60 16v-195h-166v693h166v-291q0 -101 73 -101q40 0 62 31.5t22 93.5v267h166z" />
    <glyph glyph-name="nu" unicode="&#x3bd;" horiz-adv-x="561" 
d="M85 517q64 0 101 -38.5t53 -122.5l47 -237h2q53 128 72 205q19 76 19 145q0 21 -3 39h164q5 -23 5 -49q-2 -91 -29.5 -175t-121.5 -284h-225l-83 309q-13 48 -26 66t-36 18q-5 0 -19 -2v111q34 15 80 15z" />
    <glyph glyph-name="xi" unicode="&#x3be;" horiz-adv-x="499" 
d="M485 593h-105q-152 0 -152 -97q0 -36 29 -55.5t81 -19.5h108v-118h-97q-145 0 -145 -95q0 -42 31.5 -62t117.5 -32q74 -9 104 -44.5t30 -103.5q0 -61 -29 -111h-131q16 36 16 68q0 35 -26.5 54t-92.5 26q-100 10 -147 53t-47 121q0 147 154 181v2q-50 12 -77.5 43.5
t-27.5 78.5q0 85 74 109v2h-100v119h432v-119z" />
    <glyph glyph-name="omicron" unicode="&#x3bf;" horiz-adv-x="604" 
d="M302 524q124 0 198 -73t74 -197t-74 -197t-198 -73t-198 73t-74 197t74 197t198 73zM302 398q-46 0 -71.5 -38.5t-25.5 -105.5t25.5 -105.5t71.5 -38.5t71.5 38.5t25.5 105.5t-25.5 105.5t-71.5 38.5z" />
    <glyph glyph-name="pi" unicode="&#x3c0;" horiz-adv-x="682" 
d="M665 387h-92v-205q0 -38 11.5 -52.5t39.5 -14.5q18 0 27 3v-116q-36 -11 -90 -11q-81 0 -117.5 39t-36.5 129v228h-145v-387h-166v387h-88v121h657v-121z" />
    <glyph glyph-name="rho" unicode="&#x3c1;" horiz-adv-x="611" 
d="M316 524q121 0 193 -75.5t72 -201.5q0 -119 -65.5 -189.5t-175.5 -70.5q-78 0 -116 44h-2v-216h-166v439q0 123 71 196.5t189 73.5zM307 397q-43 0 -68.5 -39t-25.5 -104t25.5 -103t68.5 -38q47 0 73.5 37.5t26.5 103.5t-26.5 104.5t-73.5 38.5z" />
    <glyph glyph-name="sigma1" unicode="&#x3c2;" horiz-adv-x="570" 
d="M290 524q118 0 185 -59.5t74 -165.5h-172q-3 46 -26 73t-61 27q-41 0 -64.5 -32.5t-23.5 -90.5q0 -64 36.5 -100t116.5 -47q82 -12 115.5 -50.5t33.5 -111.5q0 -59 -29 -112h-131q15 33 15 68q0 38 -26 57.5t-95 27.5q-211 23 -211 251q0 125 70 195t193 70z" />
    <glyph glyph-name="sigma" unicode="&#x3c3;" horiz-adv-x="634" 
d="M625 389h-117v-2q60 -54 60 -149q0 -116 -72 -185t-194 -69q-124 0 -198 71.5t-74 191.5q0 119 74 190t198 71h323v-119zM301 392q-46 0 -71 -37t-25 -105q0 -67 25 -103.5t71 -36.5q48 0 73 36.5t25 103.5q0 69 -25 105.5t-73 36.5z" />
    <glyph glyph-name="tau" unicode="&#x3c4;" horiz-adv-x="482" 
d="M475 389h-156v-207q0 -38 11.5 -52.5t39.5 -14.5q18 0 27 3v-116q-36 -11 -90 -11q-81 0 -117.5 39t-36.5 129v230h-145v119h467v-119z" />
    <glyph glyph-name="upsilon" unicode="&#x3c5;" horiz-adv-x="613" 
d="M104 517q74 0 108 -38.5t34 -127.5v-154q0 -45 16.5 -66t52.5 -21q90 0 90 158q0 132 -34 240h161q37 -108 37 -253q0 -132 -63 -201.5t-188 -69.5q-120 0 -179.5 49.5t-59.5 152.5v128q0 44 -9.5 60.5t-33.5 16.5q-14 0 -25 -3v114q48 15 93 15z" />
    <glyph glyph-name="phi" unicode="&#x3c6;" horiz-adv-x="812" 
d="M782 254q0 -121 -79.5 -192.5t-217.5 -77.5v-169h-158v169q-138 6 -217.5 77.5t-79.5 192.5t79.5 192.5t217.5 77.5v138h158v-138q138 -6 217.5 -77.5t79.5 -192.5zM199 254q0 -70 33 -109t95 -43v304q-62 -4 -95 -43t-33 -109zM485 406v-304q62 4 95 43t33 109t-33 109
t-95 43z" />
    <glyph glyph-name="chi" unicode="&#x3c7;" horiz-adv-x="617" 
d="M96 522q67 0 104.5 -28t67.5 -99l45 -105h2l121 218h182l-209 -349l70 -148q23 -47 43.5 -64t52.5 -17q5 0 29 2v-111q-40 -15 -87 -15q-64 0 -102 28t-69 99l-40 91h-2l-128 -209h-183l221 335l-76 163q-23 50 -44 67.5t-54 17.5q-21 0 -33 -4v112q43 16 89 16z" />
    <glyph glyph-name="psi" unicode="&#x3c8;" horiz-adv-x="846" 
d="M802 263q0 -127 -73.5 -196t-219.5 -76v-176h-166v176q-287 14 -287 245v272h166v-255q0 -123 121 -137v546h166v-546q127 16 127 160q0 130 -39 232h164q41 -111 41 -245z" />
    <glyph glyph-name="omega" unicode="&#x3c9;" horiz-adv-x="853" 
d="M571 508h173q65 -127 65 -284q0 -239 -211 -239q-140 0 -171 106h-2q-31 -106 -171 -106q-210 0 -210 239q0 157 65 284h173q-66 -118 -66 -265q0 -134 71 -134q56 0 56 80v201h166v-201q0 -80 57 -80q71 0 71 134q0 147 -66 265z" />
    <glyph glyph-name="iotadieresis" unicode="&#x3ca;" horiz-adv-x="334" 
d="M222 508v-296q0 -49 15 -70.5t49 -21.5q20 0 37 5v-123q-36 -10 -84 -10q-96 0 -139.5 45t-43.5 146v325h166zM97 581h-143v131h143v-131zM323 581h-142v131h142v-131z" />
    <glyph glyph-name="upsilondieresis" unicode="&#x3cb;" horiz-adv-x="613" 
d="M104 517q74 0 108 -38.5t34 -127.5v-154q0 -45 16.5 -66t52.5 -21q90 0 90 158q0 132 -34 240h161q37 -108 37 -253q0 -132 -63 -201.5t-188 -69.5q-120 0 -179.5 49.5t-59.5 152.5v128q0 44 -9.5 60.5t-33.5 16.5q-14 0 -25 -3v114q48 15 93 15zM255 581h-143v131h143
v-131zM481 581h-142v131h142v-131z" />
    <glyph glyph-name="omicrontonos" unicode="&#x3cc;" horiz-adv-x="604" 
d="M302 524q124 0 198 -73t74 -197t-74 -197t-198 -73t-198 73t-74 197t74 197t198 73zM302 398q-46 0 -71.5 -38.5t-25.5 -105.5t25.5 -105.5t71.5 -38.5t71.5 38.5t25.5 105.5t-25.5 105.5t-71.5 38.5zM363 566h-123l32 166h162z" />
    <glyph glyph-name="upsilontonos" unicode="&#x3cd;" horiz-adv-x="613" 
d="M104 517q74 0 108 -38.5t34 -127.5v-154q0 -45 16.5 -66t52.5 -21q90 0 90 158q0 132 -34 240h161q37 -108 37 -253q0 -132 -63 -201.5t-188 -69.5q-120 0 -179.5 49.5t-59.5 152.5v128q0 44 -9.5 60.5t-33.5 16.5q-14 0 -25 -3v114q48 15 93 15zM357 566h-123l32 166
h162z" />
    <glyph glyph-name="omegatonos" unicode="&#x3ce;" horiz-adv-x="853" 
d="M571 508h173q65 -127 65 -284q0 -239 -211 -239q-140 0 -171 106h-2q-31 -106 -171 -106q-210 0 -210 239q0 157 65 284h173q-66 -118 -66 -265q0 -134 71 -134q56 0 56 80v201h166v-201q0 -80 57 -80q71 0 71 134q0 147 -66 265zM487 566h-123l32 166h162z" />
    <glyph glyph-name="uni0400" unicode="&#x400;" horiz-adv-x="634" 
d="M579 567h-330v-135h308v-143h-308v-144h338v-145h-511v712h503v-145zM346 911l78 -151h-128l-141 151h191z" />
    <glyph glyph-name="uni0401" unicode="&#x401;" horiz-adv-x="634" 
d="M579 567h-330v-135h308v-143h-308v-144h338v-145h-511v712h503v-145zM287 769h-143v131h143v-131zM513 769h-142v131h142v-131z" />
    <glyph glyph-name="uni0402" unicode="&#x402;" horiz-adv-x="819" 
d="M618 565h-218v-135q64 32 148 32q119 0 184 -62.5t65 -177.5q0 -109 -64.5 -172t-178.5 -63q-55 0 -95 13v135q30 -8 61 -8q103 0 103 95q0 99 -111 99q-66 0 -112 -27v-294h-173v565h-218v147h609v-147z" />
    <glyph glyph-name="uni0403" unicode="&#x403;" horiz-adv-x="519" 
d="M76 0v712h434v-147h-261v-565h-173zM325 760h-128l78 151h191z" />
    <glyph glyph-name="uni0404" unicode="&#x404;" horiz-adv-x="727" 
d="M513 257h179q-11 -129 -95.5 -201t-223.5 -72q-158 0 -248.5 99.5t-90.5 272.5q0 172 91 272t249 100q139 0 224 -73t91 -196h-176q-8 58 -44 90t-95 32q-61 0 -101.5 -40.5t-54.5 -114.5h227v-140h-227q13 -74 53.5 -114.5t101.5 -40.5q59 0 96 33t44 93z" />
    <glyph glyph-name="uni0405" unicode="&#x405;" horiz-adv-x="645" 
d="M315 728q135 0 207 -59.5t72 -173.5h-180q0 48 -27.5 73.5t-78.5 25.5q-43 0 -68.5 -18.5t-25.5 -48.5q3 -34 29 -50t113 -38q93 -23 142.5 -46t81.5 -64q33 -43 33 -117q0 -103 -79.5 -165.5t-211.5 -62.5q-141 0 -219.5 65.5t-78.5 182.5h184q0 -110 118 -110
q49 0 77 20t28 55q-4 39 -26 52.5t-110 37.5q-95 24 -144 46.5t-81 62.5q-34 43 -34 115q0 98 76 157.5t203 59.5z" />
    <glyph glyph-name="uni0406" unicode="&#x406;" horiz-adv-x="325" 
d="M249 0h-173v712h173v-712z" />
    <glyph glyph-name="uni0407" unicode="&#x407;" horiz-adv-x="325" 
d="M249 0h-173v712h173v-712zM121 769h-143v131h143v-131zM347 769h-142v131h142v-131z" />
    <glyph glyph-name="uni0408" unicode="&#x408;" horiz-adv-x="410" 
d="M339 712v-471q0 -128 -59.5 -188.5t-186.5 -60.5q-47 0 -78 9v144q25 -5 45 -5q59 0 82.5 29.5t23.5 109.5v433h173z" />
    <glyph glyph-name="uni0409" unicode="&#x409;" horiz-adv-x="1074" 
d="M669 473h112q131 0 201 -62t70 -174t-70 -174.5t-201 -62.5h-285v565h-175q-9 -241 -36 -362q-29 -123 -78 -166q-52 -44 -140 -44q-36 0 -56 7v140q10 -2 18 -2q47 0 71 43q23 41 37 162q12 108 20 369h512v-239zM669 334v-195h88q118 0 118 98q0 97 -118 97h-88z" />
    <glyph glyph-name="uni040A" unicode="&#x40a;" horiz-adv-x="1090" 
d="M685 473h112q131 0 201 -62t70 -174t-70 -174.5t-201 -62.5h-285v295h-263v-295h-173v712h173v-270h263v270h173v-239zM685 139h88q118 0 118 98q0 97 -118 97h-88v-195z" />
    <glyph glyph-name="uni040B" unicode="&#x40b;" horiz-adv-x="819" 
d="M559 440q111 0 170 -58t59 -166v-216h-173v182q0 54 -27 82.5t-78 28.5q-63 0 -110 -16v-277h-173v565h-218v147h609v-147h-218v-146q70 21 159 21z" />
    <glyph glyph-name="uni040C" unicode="&#x40c;" horiz-adv-x="690" 
d="M408 375l278 -375h-218l-217 328h-2v-328h-173v712h173v-307h2l209 307h207zM377 760h-128l78 151h191z" />
    <glyph glyph-name="uni040D" unicode="&#x40d;" horiz-adv-x="801" 
d="M242 712v-266q0 -129 -8 -300h2q47 130 116 285l124 281h250v-712h-166v266q0 158 8 300h-2q-46 -123 -116 -285l-125 -281h-249v712h166zM404 911l78 -151h-128l-141 151h191z" />
    <glyph glyph-name="uni040E" unicode="&#x40e;" horiz-adv-x="699" 
d="M698 712l-275 -570q-39 -81 -92 -116.5t-127 -35.5q-53 0 -89 10v142q19 -6 49 -6q36 0 57.5 17t21.5 47q0 20 -7 35q-15 33 -44 91l-191 386h188l83 -191l10 -24q48 -114 68 -166h2q41 110 76 190l82 191h188zM422 911h106q-4 -73 -50.5 -113.5t-127.5 -40.5
t-127.5 40.5t-50.5 113.5h106q5 -58 72 -58t72 58z" />
    <glyph glyph-name="uni040F" unicode="&#x40f;" horiz-adv-x="751" 
d="M675 0h-220v-160h-166v160h-213v712h174v-565h251v565h174v-712z" />
    <glyph glyph-name="uni0410" unicode="&#x410;" horiz-adv-x="715" 
d="M487 151h-258l-46 -151h-182l243 712h227l243 -712h-182zM445 293l-15 48q-44 144 -72 259h-2q-31 -130 -70 -259l-14 -48h173z" />
    <glyph glyph-name="uni0411" unicode="&#x411;" horiz-adv-x="676" 
d="M594 572h-348v-129h135q122 0 190.5 -59.5t68.5 -162.5t-68.5 -162t-190.5 -59h-305v712h518v-140zM246 310v-176h100q115 0 115 87q0 89 -115 89h-100z" />
    <glyph glyph-name="uni0412" unicode="&#x412;" horiz-adv-x="664" 
d="M76 712h278q127 0 193 -48.5t66 -134.5q0 -121 -121 -163v-2q139 -31 139 -166q0 -91 -69 -144.5t-191 -53.5h-295v712zM246 578v-154h90q110 0 110 78q0 40 -25 58t-79 18h-96zM246 297v-162h94q60 0 86.5 19t26.5 60q0 43 -27 63t-89 20h-91z" />
    <glyph glyph-name="uni0413" unicode="&#x413;" horiz-adv-x="519" 
d="M76 0v712h434v-147h-261v-565h-173z" />
    <glyph glyph-name="uni0414" unicode="&#x414;" horiz-adv-x="807" 
d="M796 147v-307h-166v160h-449v-160h-166v307h87q31 65 47 187q17 124 21 378h538v-565h88zM535 565h-201q-7 -272 -52 -418h253v418z" />
    <glyph glyph-name="uni0415" unicode="&#x415;" horiz-adv-x="634" 
d="M579 567h-330v-135h308v-143h-308v-144h338v-145h-511v712h503v-145z" />
    <glyph glyph-name="uni0416" unicode="&#x416;" horiz-adv-x="953" 
d="M721 372l228 -372h-204l-181 348h-2v-348h-170v348h-2l-182 -348h-204l228 372l-211 340h199l170 -324h2v324h170v-324h2l169 324h199z" />
    <glyph glyph-name="uni0417" unicode="&#x417;" horiz-adv-x="652" 
d="M326 727q132 0 207 -53t75 -149q0 -59 -29.5 -96t-95.5 -60v-2q71 -23 104 -64.5t33 -108.5q0 -98 -78 -154t-213 -56q-148 0 -228 64t-80 186h186q0 -110 122 -110q48 0 77 21.5t29 57.5q0 86 -131 86h-44v136h44q58 0 91 22.5t33 60.5q0 36 -28 57.5t-77 21.5
q-109 0 -109 -105h-183q0 116 78 180.5t217 64.5z" />
    <glyph glyph-name="uni0418" unicode="&#x418;" horiz-adv-x="801" 
d="M242 712v-266q0 -129 -8 -300h2q47 130 116 285l124 281h250v-712h-166v266q0 158 8 300h-2q-46 -123 -116 -285l-125 -281h-249v712h166z" />
    <glyph glyph-name="uni0419" unicode="&#x419;" horiz-adv-x="801" 
d="M242 712v-266q0 -129 -8 -300h2q47 130 116 285l124 281h250v-712h-166v266q0 158 8 300h-2q-46 -123 -116 -285l-125 -281h-249v712h166zM459 911h106q-4 -73 -50.5 -113.5t-127.5 -40.5t-127.5 40.5t-50.5 113.5h106q5 -58 72 -58t72 58z" />
    <glyph glyph-name="uni041A" unicode="&#x41a;" horiz-adv-x="690" 
d="M408 375l278 -375h-218l-217 328h-2v-328h-173v712h173v-307h2l209 307h207z" />
    <glyph glyph-name="uni041B" unicode="&#x41b;" horiz-adv-x="745" 
d="M669 0h-173v565h-175q-9 -241 -36 -362q-29 -123 -78 -166q-52 -44 -140 -44q-36 0 -56 7v140q10 -2 18 -2q47 0 71 43q23 41 37 162q12 108 20 369h512v-712z" />
    <glyph glyph-name="uni041C" unicode="&#x41c;" horiz-adv-x="1013" 
d="M937 0h-163v348q0 132 6 263h-2q-21 -90 -68 -259l-101 -352h-205l-101 352q-47 169 -68 259h-2q6 -131 6 -263v-348h-163v712h277l91 -316q33 -119 62 -262h2q20 110 61 262l92 316h276v-712z" />
    <glyph glyph-name="uni041D" unicode="&#x41d;" horiz-adv-x="761" 
d="M685 0h-173v295h-263v-295h-173v712h173v-270h263v270h173v-712z" />
    <glyph glyph-name="uni041E" unicode="&#x41e;" horiz-adv-x="757" 
d="M379 728q158 0 251 -100.5t93 -271.5t-93 -271.5t-251 -100.5q-159 0 -252 100t-93 272t93 272t252 100zM379 578q-78 0 -121 -58.5t-43 -163.5t43 -163.5t121 -58.5q77 0 120 58.5t43 163.5t-43 163.5t-120 58.5z" />
    <glyph glyph-name="uni041F" unicode="&#x41f;" horiz-adv-x="750" 
d="M674 0h-172v565h-253v-565h-173v712h598v-712z" />
    <glyph glyph-name="uni0420" unicode="&#x420;" horiz-adv-x="654" 
d="M76 712h285q131 0 201 -62.5t70 -174.5t-70 -174t-201 -62h-112v-239h-173v712zM249 573v-195h88q118 0 118 97q0 98 -118 98h-88z" />
    <glyph glyph-name="uni0421" unicode="&#x421;" horiz-adv-x="715" 
d="M367 728q137 0 221 -74t89 -198h-179q-6 58 -40.5 90t-90.5 32q-71 0 -111.5 -59.5t-40.5 -162.5t40.5 -162.5t109.5 -59.5q56 0 91.5 33t42.5 93h181q-10 -131 -93.5 -203.5t-221.5 -72.5q-153 0 -242 100t-89 272t90 272t243 100z" />
    <glyph glyph-name="uni0422" unicode="&#x422;" horiz-adv-x="627" 
d="M618 565h-218v-565h-173v565h-218v147h609v-147z" />
    <glyph glyph-name="uni0423" unicode="&#x423;" horiz-adv-x="699" 
d="M698 712l-275 -570q-39 -81 -92 -116.5t-127 -35.5q-53 0 -89 10v142q19 -6 49 -6q36 0 57.5 17t21.5 47q0 20 -7 35q-15 33 -44 91l-191 386h188l83 -191l10 -24q48 -114 68 -166h2q41 110 76 190l82 191h188z" />
    <glyph glyph-name="uni0424" unicode="&#x424;" horiz-adv-x="880" 
d="M846 356q0 -138 -83.5 -217t-239.5 -90v-75h-167v75q-156 11 -239 90t-83 217t83 217t239 90v75h167v-75q156 -11 239.5 -90t83.5 -217zM520 525v-338q72 10 110 53t38 116t-38 116t-110 53zM212 356q0 -73 37.5 -116t109.5 -53v338q-72 -10 -109.5 -53t-37.5 -116z" />
    <glyph glyph-name="uni0425" unicode="&#x425;" horiz-adv-x="669" 
d="M446 365l222 -365h-204l-128 246h-2l-129 -246h-203l221 365l-209 347h199l121 -238h2l120 238h199z" />
    <glyph glyph-name="uni0426" unicode="&#x426;" horiz-adv-x="779" 
d="M675 147h88v-307h-166v160h-521v712h174v-565h251v565h174v-565z" />
    <glyph glyph-name="uni0427" unicode="&#x427;" horiz-adv-x="697" 
d="M621 0h-173v258q-78 -20 -169 -20q-120 0 -184 58t-64 165v251h173v-217q0 -53 31.5 -81.5t90.5 -28.5q64 0 122 15v312h173v-712z" />
    <glyph glyph-name="uni0428" unicode="&#x428;" horiz-adv-x="1044" 
d="M968 0h-892v712h174v-565h185v565h174v-565h186v565h173v-712z" />
    <glyph glyph-name="uni0429" unicode="&#x429;" horiz-adv-x="1067" 
d="M968 147h88v-307h-166v160h-814v712h174v-565h185v565h174v-565h186v565h173v-565z" />
    <glyph glyph-name="uni042A" unicode="&#x42a;" horiz-adv-x="775" 
d="M370 473h112q131 0 201 -62t70 -174t-70 -174.5t-201 -62.5h-285v565h-188v147h361v-239zM370 334v-195h88q118 0 118 98q0 97 -118 97h-88z" />
    <glyph glyph-name="uni042B" unicode="&#x42b;" horiz-adv-x="979" 
d="M76 0v712h173v-239h112q131 0 201 -62t70 -174t-70 -174.5t-201 -62.5h-285zM903 0h-173v712h173v-712zM249 139h88q118 0 118 98q0 97 -118 97h-88v-195z" />
    <glyph glyph-name="uni042C" unicode="&#x42c;" horiz-adv-x="654" 
d="M76 0v712h173v-239h112q131 0 201 -62t70 -174t-70 -174.5t-201 -62.5h-285zM249 139h88q118 0 118 98q0 97 -118 97h-88v-195z" />
    <glyph glyph-name="uni042D" unicode="&#x42d;" horiz-adv-x="727" 
d="M353 728q158 0 249 -100t91 -272q0 -173 -90.5 -272.5t-247.5 -99.5q-139 0 -224 72t-96 201h179q8 -60 45 -93t96 -33q61 0 101 40.5t53 114.5h-227v140h227q-14 74 -54.5 114.5t-101.5 40.5q-59 0 -95 -32t-43 -90h-177q6 123 91.5 196t223.5 73z" />
    <glyph glyph-name="uni042E" unicode="&#x42e;" horiz-adv-x="1054" 
d="M689 728q153 0 242 -101t89 -272t-89 -271t-242 -100q-135 0 -221 79.5t-104 219.5h-115v-283h-173v712h173v-282h115q19 139 105 218.5t220 79.5zM690 134q71 0 111 58.5t40 162.5q0 105 -40 164t-111 59t-111.5 -58.5t-40.5 -163.5t40.5 -163.5t111.5 -58.5z" />
    <glyph glyph-name="uni042F" unicode="&#x42f;" horiz-adv-x="679" 
d="M604 712v-712h-174v252h-120h-6l-119 -252h-186l147 285q-109 55 -109 200q0 111 68 169t201 58h298zM430 578h-103q-119 0 -119 -96q0 -99 112 -99h110v195z" />
    <glyph glyph-name="uni0430" unicode="&#x430;" horiz-adv-x="561" 
d="M275 524q231 0 231 -206v-175q0 -91 15 -143h-150q-7 27 -7 66h-2q-58 -79 -165 -79q-80 0 -127.5 43.5t-47.5 112.5q0 68 47.5 107.5t154.5 56.5q51 9 122 14v18q0 80 -71 80q-70 0 -72 -71h-160q4 80 63.5 128t168.5 48zM346 212v18q-41 -1 -90 -10q-70 -13 -70 -65
q0 -27 17 -42.5t48 -15.5q44 0 70 26q25 26 25 89z" />
    <glyph glyph-name="uni0431" unicode="&#x431;" horiz-adv-x="607" 
d="M543 728v-134q-51 -14 -163 -19q-119 -4 -165 -42t-57 -130h2q42 88 173 88q109 0 173.5 -64.5t64.5 -173.5q0 -123 -73.5 -196t-195.5 -73q-130 0 -199.5 77.5t-69.5 224.5q1 156 34.5 244.5t99 126.5t180.5 47q140 10 196 24zM299 376q-94 0 -94 -131q0 -66 25 -102.5
t71 -36.5t71 35t25 100q0 64 -26 99.5t-72 35.5z" />
    <glyph glyph-name="uni0432" unicode="&#x432;" horiz-adv-x="568" 
d="M61 508h254q208 0 208 -137q0 -84 -96 -109v-2q109 -20 109 -118q0 -68 -55 -105t-157 -37h-263v508zM220 407v-104h66q76 0 76 52t-76 52h-66zM220 211v-110h65q85 0 85 55t-85 55h-65z" />
    <glyph glyph-name="uni0433" unicode="&#x433;" horiz-adv-x="452" 
d="M443 387h-216v-387h-166v508h382v-121z" />
    <glyph glyph-name="uni0434" unicode="&#x434;" horiz-adv-x="668" 
d="M660 121v-281h-164v160h-324v-160h-164v281h61q26 42 43 128q15 82 24 259h456v-387h68zM428 387h-136q-9 -168 -38 -266h174v266z" />
    <glyph glyph-name="uni0435" unicode="&#x435;" horiz-adv-x="584" 
d="M292 95q35 0 58 17t27 44h169q-17 -75 -85.5 -123.5t-166.5 -48.5q-123 0 -193.5 76t-70.5 198q0 117 70.5 191.5t191.5 74.5q88 0 151.5 -43t90.5 -120q20 -52 20 -141h-361q6 -125 99 -125zM292 415q-83 0 -96 -101h191q-5 50 -30.5 75.5t-64.5 25.5z" />
    <glyph glyph-name="uni0436" unicode="&#x436;" horiz-adv-x="795" 
d="M806 0h-196l-130 252h-2v-252h-161v252h-2l-131 -252h-195l177 272l-159 236h184l124 -221h2v221h161v-221h2l124 221h184l-159 -236z" />
    <glyph glyph-name="uni0437" unicode="&#x437;" horiz-adv-x="532" 
d="M269 524q100 0 159.5 -40t59.5 -109q0 -81 -88 -110v-2q53 -16 76.5 -45.5t23.5 -78.5q0 -75 -61 -115t-170 -40q-118 0 -181 47.5t-63 139.5h159q0 -71 85 -71q33 0 52.5 13.5t19.5 36.5q0 53 -83 53h-49v105h49q35 0 54.5 13.5t19.5 37.5q0 23 -17.5 36t-48.5 13
q-37 0 -57 -18t-20 -50h-154q0 86 63 135t171 49z" />
    <glyph glyph-name="uni0438" unicode="&#x438;" horiz-adv-x="687" 
d="M626 0h-161v180q0 100 9 201h-2q-28 -92 -75 -187l-96 -194h-240v508h161v-181q0 -109 -10 -200h2q29 88 76 187l96 194h240v-508z" />
    <glyph glyph-name="uni0439" unicode="&#x439;" horiz-adv-x="687" 
d="M626 0h-161v180q0 100 9 201h-2q-28 -92 -75 -187l-96 -194h-240v508h161v-181q0 -109 -10 -200h2q29 88 76 187l96 194h240v-508zM416 712h106q-4 -73 -50.5 -113.5t-127.5 -40.5t-127.5 40.5t-50.5 113.5h106q5 -58 72 -58t72 58z" />
    <glyph glyph-name="uni043A" unicode="&#x43a;" horiz-adv-x="577" 
d="M576 0h-204l-143 230h-2v-230h-166v508h166v-200h2l136 200h192l-181 -237z" />
    <glyph glyph-name="uni043B" unicode="&#x43b;" horiz-adv-x="594" 
d="M533 0h-166v387h-104q-6 -164 -28.5 -248.5t-61 -114t-111.5 -31.5q-34 0 -56 7v117q14 -2 20 -2q34 3 51 31t26.5 111t12.5 251h417v-508z" />
    <glyph glyph-name="uni043C" unicode="&#x43c;" horiz-adv-x="848" 
d="M787 0h-150v226q0 68 5 180h-1q-25 -102 -49 -178l-70 -228h-196l-71 228q-31 112 -48 178h-2q5 -112 5 -180v-226h-149v508h253l65 -211q23 -72 44 -186h2q16 95 43 186l65 211h254v-508z" />
    <glyph glyph-name="uni043D" unicode="&#x43d;" horiz-adv-x="622" 
d="M561 0h-166v198h-168v-198h-166v508h166v-190h168v190h166v-508z" />
    <glyph glyph-name="uni043E" unicode="&#x43e;" horiz-adv-x="604" 
d="M302 524q124 0 198 -73t74 -197t-74 -197t-198 -73t-198 73t-74 197t74 197t198 73zM302 398q-46 0 -71.5 -38.5t-25.5 -105.5t25.5 -105.5t71.5 -38.5t71.5 38.5t25.5 105.5t-25.5 105.5t-71.5 38.5z" />
    <glyph glyph-name="uni043F" unicode="&#x43f;" horiz-adv-x="615" 
d="M554 0h-166v387h-161v-387h-166v508h493v-508z" />
    <glyph glyph-name="uni0440" unicode="&#x440;" horiz-adv-x="610" 
d="M364 522q98 0 157 -73t59 -195t-57.5 -195t-154.5 -73q-90 0 -139 69h-2v-240h-166v693h160v-63h2q49 77 141 77zM311 396q-42 0 -67.5 -38t-25.5 -104t25.5 -104t67.5 -38q43 0 69 38.5t26 103.5t-26 103.5t-69 38.5z" />
    <glyph glyph-name="uni0441" unicode="&#x441;" horiz-adv-x="575" 
d="M295 524q106 0 176 -58.5t78 -151.5h-172q-4 40 -25.5 62.5t-55.5 22.5q-43 0 -67.5 -38t-24.5 -106q0 -69 24.5 -107t68.5 -38q34 0 55.5 25t23.5 69h173q-8 -101 -76.5 -160.5t-176.5 -59.5q-121 0 -193.5 74t-72.5 197q0 122 72 195.5t193 73.5z" />
    <glyph glyph-name="uni0442" unicode="&#x442;" horiz-adv-x="487" 
d="M483 387h-157v-387h-166v387h-156v121h479v-121z" />
    <glyph glyph-name="uni0443" unicode="&#x443;" horiz-adv-x="530" 
d="M538 508l-169 -499q-39 -113 -92 -157t-152 -44q-42 0 -86 9v126q26 -8 51 -8q35 0 56 17.5t21 48.5q0 12 -5 32q-3 11 -23 66l-149 409h179l49 -170q32 -122 51 -212h2q21 106 51 213l47 169h169z" />
    <glyph glyph-name="uni0444" unicode="&#x444;" horiz-adv-x="841" 
d="M502 712v-228q44 38 102 38q94 0 150.5 -73.5t56.5 -194.5q0 -122 -56.5 -195t-151.5 -73q-57 0 -101 37v-208h-163v208q-44 -37 -101 -37q-95 0 -151.5 73t-56.5 195t56.5 195t150.5 73q58 0 102 -38v228h163zM292 398q-42 0 -66.5 -39t-24.5 -105t24.5 -105t66.5 -39
q26 0 47 21v246q-21 21 -47 21zM549 398q-26 0 -47 -21v-246q21 -21 47 -21q42 0 66.5 39t24.5 105t-24.5 105t-66.5 39z" />
    <glyph glyph-name="uni0445" unicode="&#x445;" horiz-adv-x="535" 
d="M371 261l170 -261h-190l-83 163h-2l-83 -163h-189l170 261l-159 247h188l73 -145h2l73 145h189z" />
    <glyph glyph-name="uni0446" unicode="&#x446;" horiz-adv-x="628" 
d="M552 121h68v-281h-166v160h-393v508h166v-387h159v387h166v-387z" />
    <glyph glyph-name="uni0447" unicode="&#x447;" horiz-adv-x="573" 
d="M512 0h-166v177q-66 -17 -138 -17q-88 0 -135 41t-47 117v190h166v-157q0 -71 77 -71q41 0 77 12v216h166v-508z" />
    <glyph glyph-name="uni0448" unicode="&#x448;" horiz-adv-x="878" 
d="M817 0h-756v508h166v-387h129v387h166v-387h129v387h166v-508z" />
    <glyph glyph-name="uni0449" unicode="&#x449;" horiz-adv-x="893" 
d="M817 121h68v-281h-166v160h-658v508h166v-387h129v387h166v-387h129v387h166v-387z" />
    <glyph glyph-name="uni044A" unicode="&#x44a;" horiz-adv-x="649" 
d="M300 353h102q106 0 163 -45t57 -131q0 -87 -56.5 -132t-163.5 -45h-268v387h-130v121h296v-155zM300 240v-127h81q74 0 74 64q0 63 -74 63h-81z" />
    <glyph glyph-name="uni044B" unicode="&#x44b;" horiz-adv-x="838" 
d="M227 353h102q106 0 163 -45t57 -131q0 -87 -56.5 -132t-163.5 -45h-268v508h166v-155zM227 240v-127h81q74 0 74 64q0 63 -74 63h-81zM777 0h-166v508h166v-508z" />
    <glyph glyph-name="uni044C" unicode="&#x44c;" horiz-adv-x="576" 
d="M227 353h102q106 0 163 -45t57 -131q0 -87 -56.5 -132t-163.5 -45h-268v508h166v-155zM227 240v-127h81q74 0 74 64q0 63 -74 63h-81z" />
    <glyph glyph-name="uni044D" unicode="&#x44d;" horiz-adv-x="575" 
d="M280 524q121 0 193 -73.5t72 -195.5q0 -123 -72 -197t-193 -74q-109 0 -177.5 57t-76.5 154h162q2 -44 27 -69t64 -25q40 0 66 28t34 79h-157v102h155q-9 47 -34.5 73t-63.5 26t-62.5 -23t-28.5 -63h-162q9 89 78.5 145t175.5 56z" />
    <glyph glyph-name="uni044E" unicode="&#x44e;" horiz-adv-x="867" 
d="M567 524q124 0 197 -73t73 -197t-73 -197t-197 -73q-107 0 -177 56t-87 155h-76v-195h-166v508h166v-193h76q17 97 87 153t177 56zM567 110q45 0 70.5 38.5t25.5 105.5t-25.5 105.5t-70.5 38.5t-70.5 -38.5t-25.5 -105.5t25.5 -105.5t70.5 -38.5z" />
    <glyph glyph-name="uni044F" unicode="&#x44f;" horiz-adv-x="582" 
d="M521 508v-508h-162v157h-95h-2l-82 -157h-176l110 188q-80 44 -80 150q0 170 226 170h261zM359 393h-72q-92 0 -92 -62q0 -63 88 -63h76v125z" />
    <glyph glyph-name="uni0450" unicode="&#x450;" horiz-adv-x="584" 
d="M292 95q35 0 58 17t27 44h169q-17 -75 -85.5 -123.5t-166.5 -48.5q-123 0 -193.5 76t-70.5 198q0 117 70.5 191.5t191.5 74.5q88 0 151.5 -43t90.5 -120q20 -52 20 -141h-361q6 -125 99 -125zM292 415q-83 0 -96 -101h191q-5 50 -30.5 75.5t-64.5 25.5zM309 712l78 -148
h-128l-141 148h191z" />
    <glyph glyph-name="uni0451" unicode="&#x451;" horiz-adv-x="584" 
d="M292 95q35 0 58 17t27 44h169q-17 -75 -85.5 -123.5t-166.5 -48.5q-123 0 -193.5 76t-70.5 198q0 117 70.5 191.5t191.5 74.5q88 0 151.5 -43t90.5 -120q20 -52 20 -141h-361q6 -125 99 -125zM292 415q-83 0 -96 -101h191q-5 50 -30.5 75.5t-64.5 25.5zM250 581h-143v131
h143v-131zM476 581h-142v131h142v-131z" />
    <glyph glyph-name="uni0452" unicode="&#x452;" horiz-adv-x="610" 
d="M366 466q89 0 138.5 -54t49.5 -155v-256q0 -96 -49 -143.5t-138 -47.5q-47 0 -80 9v116q12 -3 26 -3q40 0 57.5 21.5t17.5 75.5v210q0 98 -75 98q-40 0 -63 -33t-23 -96v-208h-166v537h-71v98h71v77h166v-77h215v-98h-215v-135h2q52 64 137 64z" />
    <glyph glyph-name="uni0453" unicode="&#x453;" horiz-adv-x="452" 
d="M443 387h-216v-387h-166v508h382v-121zM285 564h-128l78 148h191z" />
    <glyph glyph-name="uni0454" unicode="&#x454;" horiz-adv-x="575" 
d="M297 101q39 0 63.5 25t26.5 69h162q-8 -97 -76 -154t-177 -57q-121 0 -193.5 74t-72.5 197q0 122 72 195.5t193 73.5q106 0 176 -56t78 -145h-161q-4 40 -29 63t-63 23t-63.5 -26t-34.5 -73h155v-102h-157q8 -51 34.5 -79t66.5 -28z" />
    <glyph glyph-name="uni0455" unicode="&#x455;" horiz-adv-x="542" 
d="M267 524q108 0 166.5 -43.5t58.5 -126.5h-158q0 65 -68 65q-59 0 -59 -40q0 -22 20 -33t84 -27q72 -20 108.5 -36t62.5 -47q28 -34 28 -89q0 -75 -63 -119t-173 -44q-243 0 -243 181h167q0 -72 78 -72q30 0 47 11.5t17 30.5q-4 27 -23 37.5t-94 31.5q-66 17 -99 32
t-56 44q-25 31 -25 85q0 72 60 115.5t164 43.5z" />
    <glyph glyph-name="uni0456" unicode="&#x456;" horiz-adv-x="288" 
d="M227 581h-166v131h166v-131zM227 0h-166v508h166v-508z" />
    <glyph glyph-name="uni0457" unicode="&#x457;" horiz-adv-x="288" 
d="M227 0h-166v508h166v-508zM120 581h-133v131h133v-131zM300 581h-132v131h132v-131z" />
    <glyph glyph-name="uni0458" unicode="&#x458;" horiz-adv-x="289" 
d="M228 581h-166v131h166v-131zM228 508v-507q0 -96 -49 -143.5t-138 -47.5q-47 0 -80 9v116q12 -3 26 -3q40 0 57.5 21.5t17.5 75.5v479h166z" />
    <glyph glyph-name="uni0459" unicode="&#x459;" horiz-adv-x="883" 
d="M533 353h103q106 0 162.5 -44.5t56.5 -131.5t-56.5 -132t-162.5 -45h-269v387h-104q-6 -164 -28.5 -248.5t-61 -114t-111.5 -31.5q-34 0 -56 7v117q14 -2 20 -2q34 3 51 31t26.5 111t12.5 251h417v-155zM533 240v-127h81q74 0 74 64q0 63 -74 63h-81z" />
    <glyph glyph-name="uni045A" unicode="&#x45a;" horiz-adv-x="908" 
d="M559 353h102q106 0 163 -45t57 -131q0 -87 -56.5 -132t-163.5 -45h-268v198h-166v-198h-166v508h166v-190h166v190h166v-155zM559 240v-127h81q74 0 74 64q0 63 -74 63h-81z" />
    <glyph glyph-name="uni045B" unicode="&#x45b;" horiz-adv-x="610" 
d="M366 466q89 0 138.5 -54t49.5 -155v-257h-166v239q0 98 -75 98q-40 0 -63 -33t-23 -96v-208h-166v537h-71v98h71v77h166v-77h215v-98h-215v-135h2q52 64 137 64z" />
    <glyph glyph-name="uni045C" unicode="&#x45c;" horiz-adv-x="577" 
d="M576 0h-204l-143 230h-2v-230h-166v508h166v-200h2l136 200h192l-181 -237zM328 564h-128l78 148h191z" />
    <glyph glyph-name="uni045D" unicode="&#x45d;" horiz-adv-x="687" 
d="M626 0h-161v180q0 100 9 201h-2q-28 -92 -75 -187l-96 -194h-240v508h161v-181q0 -109 -10 -200h2q29 88 76 187l96 194h240v-508zM362 712l78 -148h-128l-141 148h191z" />
    <glyph glyph-name="uni045E" unicode="&#x45e;" horiz-adv-x="530" 
d="M538 508l-169 -499q-39 -113 -92 -157t-152 -44q-42 0 -86 9v126q26 -8 51 -8q35 0 56 17.5t21 48.5q0 12 -5 32q-3 11 -23 66l-149 409h179l49 -170q32 -122 51 -212h2q21 106 51 213l47 169h169zM339 712h106q-4 -73 -50.5 -113.5t-127.5 -40.5t-127.5 40.5
t-50.5 113.5h106q5 -58 72 -58t72 58z" />
    <glyph glyph-name="uni045F" unicode="&#x45f;" horiz-adv-x="615" 
d="M554 0h-165v-160h-166v160h-162v508h166v-387h161v387h166v-508z" />
    <glyph glyph-name="uni0490" unicode="&#x490;" horiz-adv-x="519" 
d="M510 565h-261v-565h-173v712h268v134h166v-281z" />
    <glyph glyph-name="uni0491" unicode="&#x491;" horiz-adv-x="452" 
d="M443 387h-216v-387h-166v508h229v160h153v-281z" />
    <glyph glyph-name="uni0492" unicode="&#x492;" horiz-adv-x="521" 
d="M251 565v-192h134v-114h-134v-259h-174v259h-62v114h62v339h435v-147h-261z" />
    <glyph glyph-name="uni0493" unicode="&#x493;" horiz-adv-x="458" 
d="M234 387v-114h122v-100h-122v-173h-166v173h-56v100h56v235h382v-121h-216z" />
    <glyph glyph-name="uni0496" unicode="&#x496;" horiz-adv-x="953" 
d="M949 147v-307h-166v160h-38l-181 348h-2v-348h-170v348h-2l-182 -348h-204l228 372l-211 340h199l170 -324h2v324h170v-324h2l169 324h199l-211 -340l138 -225h90z" />
    <glyph glyph-name="uni0497" unicode="&#x497;" horiz-adv-x="795" 
d="M806 121v-281h-166v160h-30l-130 252h-2v-252h-161v252h-2l-131 -252h-195l177 272l-159 236h184l124 -221h2v221h161v-221h2l124 221h184l-159 -236l98 -151h79z" />
    <glyph glyph-name="uni049A" unicode="&#x49a;" horiz-adv-x="690" 
d="M686 147v-307h-166v160h-52l-217 328h-2v-328h-173v712h173v-307h2l209 307h207l-259 -337l169 -228h109z" />
    <glyph glyph-name="uni049B" unicode="&#x49b;" horiz-adv-x="577" 
d="M576 121v-281h-166v160h-38l-143 230h-2v-230h-166v508h166v-200h2l136 200h192l-181 -237l111 -150h89z" />
    <glyph glyph-name="uni049C" unicode="&#x49c;" horiz-adv-x="760" 
d="M399 295h-2v-151h-107v151h-44v-295h-170v712h170v-270h44v150h107v-150h2l140 270h200l-209 -338l226 -374h-204z" />
    <glyph glyph-name="uni049D" unicode="&#x49d;" horiz-adv-x="643" 
d="M349 209h-5v-110h-87v110h-35v-209h-161v508h161v-178h35v114h87v-114h7l100 178h184l-159 -236l177 -272h-195z" />
    <glyph glyph-name="uni04A2" unicode="&#x4a2;" horiz-adv-x="789" 
d="M773 -160h-166v160h-95v295h-263v-295h-173v712h173v-270h263v270h173v-565h88v-307z" />
    <glyph glyph-name="uni04A3" unicode="&#x4a3;" horiz-adv-x="637" 
d="M629 -160h-166v160h-68v198h-168v-198h-166v508h166v-190h168v190h166v-387h68v-281z" />
    <glyph glyph-name="uni04AE" unicode="&#x4ae;" horiz-adv-x="663" 
d="M418 269v-269h-173v269l-244 443h192l62 -129q41 -83 76 -179h2q31 87 75 179l62 129h192z" />
    <glyph glyph-name="uni04AF" unicode="&#x4af;" horiz-adv-x="533" 
d="M541 508l-192 -523v-170h-166v170l-191 523h176l50 -163q27 -93 47 -193h2q19 94 48 193l49 163h177z" />
    <glyph glyph-name="uni04B2" unicode="&#x4b2;" horiz-adv-x="669" 
d="M668 147v-307h-166v160h-38l-128 246h-2l-129 -246h-203l221 365l-209 347h199l121 -238h2l120 238h199l-209 -347l133 -218h89z" />
    <glyph glyph-name="uni04B3" unicode="&#x4b3;" horiz-adv-x="535" 
d="M541 121v-281h-166v160h-24l-83 163h-2l-83 -163h-189l170 261l-159 247h188l73 -145h2l73 145h189l-159 -247l91 -140h79z" />
    <glyph glyph-name="uni04B8" unicode="&#x4b8;" horiz-adv-x="697" 
d="M621 712v-712h-173v258q-19 -5 -65 -13v-129h-114v122q-115 2 -176.5 60t-61.5 163v251h173v-217q0 -78 65 -101v175h114v-181q38 5 65 12v312h173z" />
    <glyph glyph-name="uni04B9" unicode="&#x4b9;" horiz-adv-x="583" 
d="M522 508v-508h-163v179q-22 -7 -42 -10v-90h-87v81h-15q-91 0 -140 43t-49 122v183h163v-150q0 -59 41 -72v135h87v-137q22 3 42 10v214h163z" />
    <glyph glyph-name="uni04BA" unicode="&#x4ba;" horiz-adv-x="697" 
d="M76 712h173v-258q78 20 169 20q120 0 184 -58t64 -165v-251h-174v217q0 53 -31 81.5t-90 28.5q-65 0 -122 -15v-312h-173v712z" />
    <glyph glyph-name="uni04BB" unicode="&#x4bb;" 
d="M227 457h2q52 64 137 64q88 0 137 -54t49 -155v-312h-166v294q0 98 -74 98q-40 0 -62.5 -33t-22.5 -96v-263h-166v712h166v-255z" />
    <glyph glyph-name="uni04C0" unicode="&#x4c0;" horiz-adv-x="325" 
d="M249 0h-173v712h173v-712z" />
    <glyph glyph-name="uni04CF" unicode="&#x4cf;" horiz-adv-x="288" 
d="M227 0h-166v712h166v-712z" />
    <glyph glyph-name="uni04D8" unicode="&#x4d8;" horiz-adv-x="775" 
d="M379 728q168 0 265 -101t97 -270q2 -161 -96.5 -268t-259.5 -105q-160 0 -255.5 100.5t-95.5 270.5q0 34 3 55h524q-6 88 -55 133t-128 45q-57 0 -94 -26t-46 -70h-185q22 103 108.5 169.5t217.5 66.5zM385 125q69 0 114 40t58 116h-340q10 -75 55 -115.5t113 -40.5z" />
    <glyph glyph-name="uni04D9" unicode="&#x4d9;" horiz-adv-x="584" 
d="M287 524q125 0 196 -74.5t71 -194.5q0 -118 -71.5 -194.5t-191.5 -76.5q-119 0 -190 73t-71 196q0 14 2 38h358q-6 122 -101 122q-30 0 -51 -16t-26 -41h-169q17 73 83.5 120.5t160.5 47.5zM291 93q84 0 97 104h-192q5 -51 30.5 -77.5t64.5 -26.5z" />
    <glyph glyph-name="uni04E8" unicode="&#x4e8;" horiz-adv-x="757" 
d="M379 728q158 0 251 -100.5t93 -271.5t-93 -271.5t-251 -100.5q-159 0 -252 100t-93 272t93 272t252 100zM379 587q-69 0 -113 -43.5t-57 -122.5h340q-13 79 -57 122.5t-113 43.5zM379 125q69 0 113 43.5t57 122.5h-340q13 -79 57 -122.5t113 -43.5z" />
    <glyph glyph-name="uni04E9" unicode="&#x4e9;" horiz-adv-x="604" 
d="M302 524q124 0 198 -73t74 -197t-74 -197t-198 -73t-198 73t-74 197t74 197t198 73zM302 409q-43 0 -71 -29t-36 -81h215q-8 52 -36 81t-72 29zM302 99q43 0 71 29t36 81h-215q8 -52 36 -81t72 -29z" />
    <glyph glyph-name="Wgrave" unicode="&#x1e80;" horiz-adv-x="991" 
d="M839 0h-230l-60 285q-35 154 -53 286h-2q-20 -137 -52 -286l-60 -285h-230l-144 712h168l48 -257q31 -172 46 -298h2q26 156 57 298l56 257h221l56 -257q32 -140 56 -298h2q22 164 47 298l47 257h169zM512 911l78 -151h-128l-141 151h191z" />
    <glyph glyph-name="wgrave" unicode="&#x1e81;" horiz-adv-x="848" 
d="M731 0h-227l-41 191q-24 118 -38 213h-2q-14 -95 -38 -213l-41 -191h-227l-113 508h162l33 -187q21 -119 32 -216h2q17 115 41 217l42 186h216l42 -186q24 -102 41 -217h2q11 97 32 216l33 187h162zM442 712l78 -148h-128l-141 148h191z" />
    <glyph glyph-name="Wacute" unicode="&#x1e82;" horiz-adv-x="991" 
d="M839 0h-230l-60 285q-35 154 -53 286h-2q-20 -137 -52 -286l-60 -285h-230l-144 712h168l48 -257q31 -172 46 -298h2q26 156 57 298l56 257h221l56 -257q32 -140 56 -298h2q22 164 47 298l47 257h169zM526 760h-128l78 151h191z" />
    <glyph glyph-name="wacute" unicode="&#x1e83;" horiz-adv-x="848" 
d="M731 0h-227l-41 191q-24 118 -38 213h-2q-14 -95 -38 -213l-41 -191h-227l-113 508h162l33 -187q21 -119 32 -216h2q17 115 41 217l42 186h216l42 -186q24 -102 41 -217h2q11 97 32 216l33 187h162zM456 564h-128l78 148h191z" />
    <glyph glyph-name="Wdieresis" unicode="&#x1e84;" horiz-adv-x="991" 
d="M839 0h-230l-60 285q-35 154 -53 286h-2q-20 -137 -52 -286l-60 -285h-230l-144 712h168l48 -257q31 -172 46 -298h2q26 156 57 298l56 257h221l56 -257q32 -140 56 -298h2q22 164 47 298l47 257h169zM452 769h-143v131h143v-131zM678 769h-142v131h142v-131z" />
    <glyph glyph-name="wdieresis" unicode="&#x1e85;" horiz-adv-x="848" 
d="M731 0h-227l-41 191q-24 118 -38 213h-2q-14 -95 -38 -213l-41 -191h-227l-113 508h162l33 -187q21 -119 32 -216h2q17 115 41 217l42 186h216l42 -186q24 -102 41 -217h2q11 97 32 216l33 187h162zM382 581h-143v131h143v-131zM608 581h-142v131h142v-131z" />
    <glyph glyph-name="Germandbls" unicode="&#x1e9e;" horiz-adv-x="814" 
d="M731 586l-145 -161q196 -56 196 -229q0 -99 -68 -155t-186 -56q-117 0 -178 54t-61 159h156q0 -77 78 -77q80 0 80 77q0 110 -194 122v116l108 120q-43 32 -107 32q-171 0 -171 -182v-406h-173v402q0 159 91 242t265 83q95 0 175.5 -37.5t133.5 -103.5z" />
    <glyph glyph-name="Ygrave" unicode="&#x1ef2;" horiz-adv-x="663" 
d="M418 269v-269h-173v269l-244 443h192l62 -129q41 -83 76 -179h2q31 87 75 179l62 129h192zM349 911l78 -151h-128l-141 151h191z" />
    <glyph glyph-name="ygrave" unicode="&#x1ef3;" horiz-adv-x="530" 
d="M538 508l-169 -499q-39 -113 -92 -157t-152 -44q-42 0 -86 9v126q26 -8 51 -8q35 0 56 17.5t21 48.5q0 12 -5 32q-3 11 -23 66l-149 409h179l49 -170q32 -122 51 -212h2q21 106 51 213l47 169h169zM285 712l78 -148h-128l-141 148h191z" />
    <glyph glyph-name="uni2010" unicode="&#x2010;" horiz-adv-x="337" 
d="M307 231h-277v122h277v-122z" />
    <glyph glyph-name="endash" unicode="&#x2013;" horiz-adv-x="500" 
d="M480 231h-460v122h460v-122z" />
    <glyph glyph-name="emdash" unicode="&#x2014;" horiz-adv-x="1000" 
d="M980 231h-960v122h960v-122z" />
    <glyph glyph-name="uni2015" unicode="&#x2015;" horiz-adv-x="1000" 
d="M980 231h-960v122h960v-122z" />
    <glyph glyph-name="underscoredbl" unicode="&#x2017;" horiz-adv-x="500" 
d="M500 -134h-500v84h500v-84zM500 -291h-500v84h500v-84z" />
    <glyph glyph-name="quoteleft" unicode="&#x2018;" horiz-adv-x="266" 
d="M59 561l77 151h83l-59 -151h49v-157h-150v157z" />
    <glyph glyph-name="quoteright" unicode="&#x2019;" horiz-adv-x="266" 
d="M207 556l-77 -152h-83l59 152h-49v156h150v-156z" />
    <glyph glyph-name="quotesinglbase" unicode="&#x201a;" horiz-adv-x="266" 
d="M207 0l-77 -152h-83l59 152h-49v156h150v-156z" />
    <glyph glyph-name="quotereversed" unicode="&#x201b;" horiz-adv-x="266" 
d="M209 712v-156h-49l59 -152h-83l-77 152v156h150z" />
    <glyph glyph-name="quotedblleft" unicode="&#x201c;" horiz-adv-x="466" 
d="M59 561l77 151h83l-59 -151h49v-157h-150v157zM259 561l77 151h83l-59 -151h49v-157h-150v157z" />
    <glyph glyph-name="quotedblright" unicode="&#x201d;" horiz-adv-x="466" 
d="M207 556l-77 -152h-83l59 152h-49v156h150v-156zM407 556l-77 -152h-83l59 152h-49v156h150v-156z" />
    <glyph glyph-name="quotedblbase" unicode="&#x201e;" horiz-adv-x="466" 
d="M207 0l-77 -152h-83l59 152h-49v156h150v-156zM407 0l-77 -152h-83l59 152h-49v156h150v-156z" />
    <glyph glyph-name="dagger" unicode="&#x2020;" horiz-adv-x="606" 
d="M386 547h163v-139h-163v-528h-166v528h-163v138h163v166h166v-165z" />
    <glyph glyph-name="daggerdbl" unicode="&#x2021;" horiz-adv-x="606" 
d="M386 547h163v-136h-163v-230h163v-136h-163v-165h-166v165h-163v136h163v230h-163v136h163v165h166v-165z" />
    <glyph glyph-name="bullet" unicode="&#x2022;" horiz-adv-x="389" 
d="M195 201q-63 0 -109 46t-46 109t46 109t109 46t108.5 -46t45.5 -109t-45.5 -109t-108.5 -46z" />
    <glyph glyph-name="ellipsis" unicode="&#x2026;" horiz-adv-x="943" 
d="M225 0h-176v184h176v-184zM560 0h-176v184h176v-184zM894 0h-176v184h176v-184z" />
    <glyph glyph-name="perthousand" unicode="&#x2030;" horiz-adv-x="1117" 
d="M232 -30h-102l402 734h102zM183 693q73 0 113 -46t40 -131t-39.5 -131t-113.5 -46t-113.5 46t-39.5 131t40 131t113 46zM183 609q-45 0 -45 -93t45 -93t45 93t-45 93zM583 335q73 0 113 -46t40 -131t-39.5 -131t-113.5 -46t-113.5 46t-39.5 131t40 131t113 46zM934 335
q73 0 113 -46t40 -131t-39.5 -131t-113.5 -46t-113.5 46t-39.5 131t40 131t113 46zM583 251q-45 0 -45 -93t45 -93q46 0 46 93t-46 93zM934 251q-45 0 -45 -93t45 -93t45 93t-45 93z" />
    <glyph glyph-name="minute" unicode="&#x2032;" horiz-adv-x="237" 
d="M134 432h-104l31 242h146z" />
    <glyph glyph-name="second" unicode="&#x2033;" horiz-adv-x="430" 
d="M330 432h-104l31 242h146zM134 432h-104l31 242h146z" />
    <glyph glyph-name="guilsinglleft" unicode="&#x2039;" horiz-adv-x="342" 
d="M193 254l106 -200h-142l-114 200l114 200h142z" />
    <glyph glyph-name="guilsinglright" unicode="&#x203a;" horiz-adv-x="342" 
d="M185 454l114 -200l-114 -200h-142l106 200l-106 200h142z" />
    <glyph glyph-name="exclamdbl" unicode="&#x203c;" horiz-adv-x="612" 
d="M507 210h-134l-31 502h195zM528 0h-176v147h176v-147zM240 210h-134l-31 502h195zM261 0h-176v147h176v-147z" />
    <glyph glyph-name="interrobang" unicode="&#x203d;" horiz-adv-x="570" 
d="M377 712l-4 -63q78 -17 120 -65.5t42 -120.5q0 -58 -22 -95t-84 -76q-47 -30 -66 -49q-16 -17 -16 -45h-140q-2 24 -2 25q0 51 16.5 77t73.5 68q41 30 53.5 48.5t12.5 46.5q0 30 -19.5 47.5t-54.5 17.5q-87 0 -88 -90h-171q2 170 163 209l-3 65h189zM188 147h176v-147
h-176v147z" />
    <glyph glyph-name="overline" unicode="&#x203e;" horiz-adv-x="500" 
d="M500 776h-500v103h500v-103z" />
    <glyph glyph-name="fraction" unicode="&#x2044;" horiz-adv-x="149" 
d="M-57 0h-100l363 674h100z" />
    <glyph glyph-name="zero.superior" unicode="&#x2070;" horiz-adv-x="481" 
d="M241 813q101 0 156 -64.5t55 -182.5q0 -119 -55 -183t-156 -64q-102 0 -157 64t-55 183q0 118 55 182.5t157 64.5zM241 710q-71 0 -71 -144q0 -145 71 -145q69 0 69 145q0 144 -69 144z" />
    <glyph glyph-name="four.superior" unicode="&#x2074;" horiz-adv-x="466" 
d="M455 421h-81v-91h-136v91h-227v106l184 275h179v-280h81v-101zM129 522h115v48q0 53 5 136h-2q-26 -47 -74 -118z" />
    <glyph glyph-name="five.superior" unicode="&#x2075;" horiz-adv-x="466" 
d="M403 691h-224l-8 -78h2q41 32 98 32q72 0 117.5 -42.5t45.5 -110.5q0 -79 -55.5 -126t-147.5 -47q-93 0 -146 39.5t-53 110.5h140q1 -23 17 -36.5t42 -13.5q63 0 63 66q0 30 -16.5 47.5t-44.5 17.5q-46 0 -58 -42l-136 8l27 286h337v-111z" />
    <glyph glyph-name="six.superior" unicode="&#x2076;" horiz-adv-x="460" 
d="M244 813q81 0 130 -39.5t54 -108.5h-140q-6 49 -51 49q-70 0 -74 -118h2q41 41 110 41q71 0 115 -41.5t44 -108.5q0 -74 -55.5 -121t-141.5 -47q-100 0 -154 61t-54 177q0 120 57 188t158 68zM237 544q-26 0 -42 -17t-16 -46q0 -27 16 -43.5t42 -16.5t42.5 16.5
t16.5 44.5t-16 45t-43 17z" />
    <glyph glyph-name="seven.superior" unicode="&#x2077;" horiz-adv-x="414" 
d="M403 802v-108q-109 -144 -153 -364h-150q23 102 67.5 197.5t98.5 159.5h-255v115h392z" />
    <glyph glyph-name="eight.superior" unicode="&#x2078;" horiz-adv-x="461" 
d="M230 813q86 0 138.5 -36.5t52.5 -96.5q0 -39 -23.5 -66.5t-65.5 -37.5v-2q46 -9 73.5 -40t27.5 -75q0 -66 -54 -103t-149 -37t-148.5 37t-53.5 103q0 44 27.5 75t73.5 40v2q-41 10 -65.5 38t-24.5 66q0 60 52.5 96.5t138.5 36.5zM230 714q-28 0 -44 -12.5t-16 -34.5
q0 -23 16 -36t44 -13t44.5 13t16.5 36q0 22 -16.5 34.5t-44.5 12.5zM230 522q-29 0 -46 -14t-17 -38q0 -23 17 -37t46 -14q30 0 47 14t17 37q0 24 -17 38t-47 14z" />
    <glyph glyph-name="nine.superior" unicode="&#x2079;" horiz-adv-x="460" 
d="M216 319q-81 0 -130 39t-54 109h140q5 -49 51 -49q70 0 74 118h-2q-41 -41 -110 -41q-71 0 -115 41.5t-44 108.5q0 74 55 121t142 47q100 0 154 -61t54 -177q0 -120 -57 -188t-158 -68zM222 588q26 0 42.5 17.5t16.5 45.5q0 27 -16.5 43.5t-42.5 16.5t-42 -16.5
t-16 -44.5t16 -45t42 -17z" />
    <glyph glyph-name="plussuperior" unicode="&#x207a;" horiz-adv-x="412" 
d="M260 604h110v-105h-110v-107h-108v107h-110v105h110v108h108v-108z" />
    <glyph glyph-name="uni207B" unicode="&#x207b;" horiz-adv-x="412" 
d="M370 499h-328v105h328v-105z" />
    <glyph glyph-name="equalsuperior" unicode="&#x207c;" horiz-adv-x="412" 
d="M370 578h-328v99h328v-99zM370 426h-328v99h328v-99z" />
    <glyph glyph-name="parenleftsuperior" unicode="&#x207d;" horiz-adv-x="263" 
d="M134 849h108q-71 -156 -71 -311t71 -311h-108q-106 143 -106 311t106 311z" />
    <glyph glyph-name="parenrightsuperior" unicode="&#x207e;" horiz-adv-x="263" 
d="M129 227h-108q72 158 72 311q0 151 -72 311h108q106 -143 106 -311q0 -170 -106 -311z" />
    <glyph glyph-name="zero.inferior" unicode="&#x2080;" horiz-adv-x="481" 
d="M241 311q101 0 156 -64.5t55 -182.5q0 -119 -55 -183t-156 -64q-102 0 -157 64t-55 183q0 118 55 182.5t157 64.5zM241 208q-71 0 -71 -144q0 -145 71 -145q69 0 69 145q0 144 -69 144z" />
    <glyph glyph-name="one.inferior" unicode="&#x2081;" horiz-adv-x="335" 
d="M275 -172h-140v288h-125v101q67 0 100 19.5t40 63.5h125v-472z" />
    <glyph glyph-name="two.inferior" unicode="&#x2082;" horiz-adv-x="471" 
d="M236 311q87 0 139.5 -41t52.5 -104q0 -55 -31.5 -90t-98.5 -64q-59 -26 -79.5 -41t-22.5 -33h245v-110h-407q-2 22 -2 28q0 78 31.5 126.5t109.5 87.5q64 31 88 50.5t24 45.5q0 20 -13 31t-35 11q-57 0 -59 -65h-140q1 81 53 124.5t145 43.5z" />
    <glyph glyph-name="three.inferior" unicode="&#x2083;" horiz-adv-x="464" 
d="M233 311q90 0 141.5 -36t51.5 -98q0 -38 -20 -62.5t-64 -40.5v-2q47 -15 68.5 -41t21.5 -69q0 -67 -53.5 -106t-144.5 -39q-101 0 -155.5 44t-54.5 126h142q0 -68 68 -68q27 0 43 12t16 34q0 51 -79 51h-13v99h16q33 0 52 13t19 36q0 45 -56 45q-63 0 -63 -65h-137
q0 79 53 123t148 44z" />
    <glyph glyph-name="four.inferior" unicode="&#x2084;" horiz-adv-x="466" 
d="M454 -81h-81v-91h-136v91h-227v106l184 275h179v-280h81v-101zM128 20h115v48q0 53 5 136h-2q-26 -47 -74 -118z" />
    <glyph glyph-name="five.inferior" unicode="&#x2085;" horiz-adv-x="466" 
d="M403 189h-224l-8 -78h2q41 32 98 32q72 0 117.5 -42.5t45.5 -110.5q0 -79 -55.5 -126t-147.5 -47q-93 0 -146 39.5t-53 110.5h140q1 -23 17 -36.5t42 -13.5q63 0 63 66q0 30 -16.5 47.5t-44.5 17.5q-46 0 -58 -42l-136 8l27 286h337v-111z" />
    <glyph glyph-name="six.inferior" unicode="&#x2086;" horiz-adv-x="460" 
d="M244 311q81 0 130 -39.5t54 -108.5h-140q-6 49 -51 49q-70 0 -74 -118h2q41 41 110 41q71 0 115 -41.5t44 -108.5q0 -74 -55.5 -121t-141.5 -47q-100 0 -154 61t-54 177q0 120 57 188t158 68zM237 42q-26 0 -42 -17t-16 -46q0 -27 16 -43.5t42 -16.5t42.5 16.5t16.5 44.5
t-16 45t-43 17z" />
    <glyph glyph-name="seven.inferior" unicode="&#x2087;" horiz-adv-x="414" 
d="M402 300v-108q-109 -144 -153 -364h-150q23 102 67.5 197.5t98.5 159.5h-255v115h392z" />
    <glyph glyph-name="eight.inferior" unicode="&#x2088;" horiz-adv-x="461" 
d="M230 311q86 0 138.5 -36.5t52.5 -96.5q0 -39 -23.5 -66.5t-65.5 -37.5v-2q46 -9 73.5 -40t27.5 -75q0 -66 -54 -103t-149 -37t-148.5 37t-53.5 103q0 44 27.5 75t73.5 40v2q-41 10 -65.5 38t-24.5 66q0 60 52.5 96.5t138.5 36.5zM230 212q-28 0 -44 -12.5t-16 -34.5
q0 -23 16 -36t44 -13t44.5 13t16.5 36q0 22 -16.5 34.5t-44.5 12.5zM230 20q-29 0 -46 -14t-17 -38q0 -23 17 -37t46 -14q30 0 47 14t17 37q0 24 -17 38t-47 14z" />
    <glyph glyph-name="nine.inferior" unicode="&#x2089;" horiz-adv-x="460" 
d="M216 -183q-81 0 -130 39t-54 109h140q5 -49 51 -49q70 0 74 118h-2q-41 -41 -110 -41q-71 0 -115 41.5t-44 108.5q0 74 55 121t142 47q100 0 154 -61t54 -177q0 -120 -57 -188t-158 -68zM222 86q26 0 42.5 17.5t16.5 45.5q0 27 -16.5 43.5t-42.5 16.5t-42 -16.5
t-16 -44.5t16 -45t42 -17z" />
    <glyph glyph-name="uni208A" unicode="&#x208a;" horiz-adv-x="412" 
d="M260 102h110v-105h-110v-107h-108v107h-110v105h110v108h108v-108z" />
    <glyph glyph-name="uni208B" unicode="&#x208b;" horiz-adv-x="412" 
d="M370 -3h-328v105h328v-105z" />
    <glyph glyph-name="uni208C" unicode="&#x208c;" horiz-adv-x="412" 
d="M370 76h-328v99h328v-99zM370 -76h-328v99h328v-99z" />
    <glyph glyph-name="uni208D" unicode="&#x208d;" horiz-adv-x="263" 
d="M134 347h108q-71 -156 -71 -311t71 -311h-108q-106 143 -106 311t106 311z" />
    <glyph glyph-name="uni208E" unicode="&#x208e;" horiz-adv-x="263" 
d="M129 -275h-108q72 158 72 311q0 151 -72 311h108q106 -143 106 -311q0 -170 -106 -311z" />
    <glyph glyph-name="uni2099" unicode="&#x2099;" horiz-adv-x="449" 
d="M277 194q63 0 98 -38t35 -109v-219h-135v202q0 59 -45 59q-51 0 -51 -83v-178h-136v356h126v-41h1q40 51 107 51z" />
    <glyph glyph-name="franc" unicode="&#x20a3;" horiz-adv-x="628" 
d="M272 529v-106h292v-144h-292v-78h164v-119h-164v-82h-173v82h-76v119h76v473h488v-145h-315z" />
    <glyph glyph-name="lira" unicode="&#x20a4;" horiz-adv-x="628" 
d="M223 135h367v-135h-567v137q42 0 63 22t25 72h-88v73h89v38h-89v73h89v27q0 122 64 185t185 63q108 0 171.5 -60t63.5 -162h-163q0 41 -19 63.5t-54 22.5q-79 0 -79 -111v-28h125v-73h-125v-38h125v-73h-126q-7 -66 -57 -94v-2z" />
    <glyph glyph-name="peseta" unicode="&#x20a7;" horiz-adv-x="937" 
d="M875 123q19 0 37 5v-125q-36 -11 -84 -11q-96 0 -139.5 40t-43.5 129v226h-43q-15 -89 -83.5 -137.5t-184.5 -48.5h-85v-201h-173v674h258q109 0 176 -43t88 -123h47v137h166v-137h96v-121h-96v-188q0 -41 15 -58.5t49 -17.5zM249 340h61q118 0 118 97q0 98 -118 98h-61
v-195z" />
    <glyph glyph-name="Euro" unicode="&#x20ac;" horiz-adv-x="628" 
d="M446 214h169q-11 -108 -82 -169t-186 -61q-117 0 -190.5 66.5t-94.5 190.5h-61l14 73h40v23v15h-54l14 73h46q20 127 94.5 196t193.5 69q116 0 185 -61t77 -167h-166q-7 43 -32.5 66.5t-66.5 23.5q-95 0 -119 -127h210l-14 -73h-203v-15v-23h196l-14 -73h-173
q24 -119 117 -119q41 0 67 24.5t33 67.5z" />
    <glyph glyph-name="uni20B9" unicode="&#x20b9;" horiz-adv-x="628" 
d="M430 581v-2q38 -17 53 -57h114l-25 -93h-85q-23 -104 -158 -129v-2q65 -24 111 -121l87 -177h-199l-75 167q-24 51 -54 73.5t-73 22.5h-15v106h50q101 0 132 60h-262l26 93h241q-26 59 -129 59h-138l26 93h540l-25 -93h-142z" />
    <glyph glyph-name="uni20BA" unicode="&#x20ba;" horiz-adv-x="628" 
d="M429 325h181q0 -163 -90.5 -249t-259.5 -86q-83 0 -162 10v236l-85 -47v95l85 47v59l-85 -47v95l85 47v189h174v-108l161 88v-95l-161 -88v-59l161 88v-95l-161 -87v-178q76 0 116.5 46.5t40.5 138.5z" />
    <glyph glyph-name="uni20BC" unicode="&#x20bc;" horiz-adv-x="759" 
d="M36 0v301q0 152 65.5 230.5t200.5 89.5v91h155v-91q135 -11 200.5 -89.5t65.5 -230.5v-301h-155v293q0 93 -25.5 135t-85.5 48v-476h-155v476q-60 -6 -86 -48.5t-26 -134.5v-293h-154z" />
    <glyph glyph-name="uni20BD" unicode="&#x20bd;" horiz-adv-x="628" 
d="M86 674h267q122 0 186 -55t64 -154q0 -100 -64 -155t-186 -55h-94v-51h175v-112h-175v-92h-173v92h-74v112h74v51h-74v122h74v297zM259 552v-175h69q97 0 97 88q0 87 -97 87h-69z" />
    <glyph glyph-name="uni2105" unicode="&#x2105;" horiz-adv-x="964" 
d="M217 690q81 0 133 -41t59 -110h-140q-5 50 -50 50q-26 0 -41 -23t-15 -64q0 -43 15 -66t42 -23q21 0 34 15.5t14 41.5h141q-5 -73 -57 -115.5t-134 -42.5q-90 0 -143.5 51.5t-53.5 138.5q0 86 53 137t143 51zM344 0h-100l363 674h100zM745 362q92 0 146.5 -51.5
t54.5 -137.5q0 -87 -54.5 -138t-146.5 -51t-146.5 51t-54.5 138q0 86 54.5 137.5t146.5 51.5zM745 261q-28 0 -43.5 -23t-15.5 -65t15.5 -65t43.5 -23t43.5 23t15.5 65t-15.5 65t-43.5 23z" />
    <glyph glyph-name="uni2113" unicode="&#x2113;" horiz-adv-x="452" 
d="M237 206v-26q0 -39 15 -56.5t49 -17.5q25 0 46 7v-112q-42 -11 -88 -11q-95 0 -139.5 45t-44.5 141v10q-26 2 -47 6v84q22 -4 47 -6v188q0 129 39.5 180.5t129.5 51.5q78 0 122 -49t44 -149q0 -223 -173 -286zM274 591q-21 0 -29 -20t-8 -73v-193q81 55 81 189
q0 97 -44 97z" />
    <glyph glyph-name="uni2116" unicode="&#x2116;" horiz-adv-x="1216" 
d="M726 0h-250l-124 281q-69 155 -116 285h-2q8 -171 8 -300v-266h-166v712h249l125 -281q70 -162 116 -285h2q-8 142 -8 300v266h166v-712zM997 626q92 0 146 -51t54 -138t-54 -138t-146 -51t-146.5 51t-54.5 138t54.5 138t146.5 51zM997 525q-60 0 -60 -88q0 -41 16 -64.5
t44 -23.5t43.5 23.5t15.5 64.5q0 42 -15.5 65t-43.5 23zM1174 84h-358v115h358v-115z" />
    <glyph glyph-name="uni2117" unicode="&#x2117;" horiz-adv-x="798" 
d="M399 727q160 2 261.5 -102t99.5 -269q2 -165 -99.5 -269t-261.5 -102q-160 -2 -261.5 102t-99.5 269q-2 165 99.5 269t261.5 102zM399 664q-135 0 -217 -85t-82 -223t82 -223t217 -85q134 0 217 85t83 223t-83 223t-217 85zM250 571h183q85 0 128.5 -39t43.5 -110
t-44 -110.5t-128 -39.5h-73v-139h-110v438zM360 481v-118h58q74 0 74 59t-75 59h-57z" />
    <glyph glyph-name="trademark" unicode="&#x2122;" horiz-adv-x="857" 
d="M323 618h-103v-262h-112v262h-103v94h318v-94zM819 356h-99v161q0 70 2 128h-2q-21 -98 -28 -126l-38 -163h-131l-38 163l-9 42q-1 6 -4.5 20.5t-7 31t-6.5 32.5h-2q2 -114 2 -128v-161h-99v356h169l34 -143q16 -66 26 -131h2q10 69 25 131l34 143h170v-356z" />
    <glyph glyph-name="Omega" unicode="&#x2126;" horiz-adv-x="747" 
d="M373 728q153 0 244 -79t91 -232q0 -78 -33 -142t-99 -127v-2h143v-146h-299v152q54 55 80.5 110.5t26.5 126.5q0 91 -41.5 140t-112.5 49q-70 0 -111.5 -49t-41.5 -140q0 -71 26.5 -126.5t80.5 -110.5v-152h-299v146h143v2q-66 62 -99 126t-33 143q0 153 91 232t243 79z
" />
    <glyph glyph-name="estimated" unicode="&#x212e;" horiz-adv-x="863" 
d="M432 690q86 1 159.5 -28t122 -79t75.5 -116t26 -139h-612q-14 0 -14 -13v-167q0 -28 16 -44q92 -91 227 -91q71 0 134.5 30t104.5 80h69q-42 -60 -122 -97.5t-186 -37.5q-169 -1 -278 98.5t-107 250.5q-2 152 105 253.5t280 99.5zM432 664q-133 0 -227 -94
q-16 -15 -16 -41v-167q0 -12 14 -12h456q13 0 13 12v167q0 27 -15 41q-94 94 -225 94z" />
    <glyph glyph-name="oneeighth" unicode="&#x215b;" horiz-adv-x="839" 
d="M242 270h-130v244h-103v89q97 0 115 71h118v-404zM231 0h-100l363 674h100zM638 414q76 0 121.5 -32t45.5 -85q0 -32 -20.5 -55t-57.5 -31v-2q40 -8 64 -34.5t24 -62.5q0 -58 -47 -90t-130 -32t-130 32t-47 90q0 37 24 63t65 34v2q-37 8 -58 31t-21 55q0 53 46 85t121 32
zM638 328q-23 0 -37 -10.5t-14 -28.5t14 -29t37 -11t37 11t14 29t-14 28.5t-37 10.5zM638 163q-24 0 -38.5 -11.5t-14.5 -30.5q0 -20 14 -31.5t39 -11.5t39.5 11.5t14.5 31.5q0 19 -15 30.5t-39 11.5z" />
    <glyph glyph-name="threeeighths" unicode="&#x215c;" horiz-adv-x="957" 
d="M203 684q77 0 124 -32t47 -85q0 -63 -74 -87v-1q79 -24 79 -96q0 -58 -45.5 -90.5t-128.5 -32.5q-88 0 -136 37.5t-48 109.5h124q0 -56 60 -56q23 0 37 10.5t14 27.5q0 40 -65 40h-14v87h13q29 0 46 11t17 30q0 17 -14 27t-37 10q-55 0 -55 -53h-120q0 67 46.5 105
t129.5 38zM349 0h-100l363 674h100zM756 414q76 0 121.5 -32t45.5 -85q0 -32 -20.5 -55t-57.5 -31v-2q40 -8 64 -34.5t24 -62.5q0 -58 -47 -90t-130 -32t-130 32t-47 90q0 37 24 63t65 34v2q-37 8 -58 31t-21 55q0 53 46 85t121 32zM756 328q-23 0 -37 -10.5t-14 -28.5
t14 -29t37 -11t37 11t14 29t-14 28.5t-37 10.5zM756 163q-24 0 -38.5 -11.5t-14.5 -30.5q0 -20 14 -31.5t39 -11.5t39.5 11.5t14.5 31.5q0 19 -15 30.5t-39 11.5z" />
    <glyph glyph-name="fiveeighths" unicode="&#x215d;" horiz-adv-x="958" 
d="M353 577h-194l-7 -64h2q33 27 85 27q62 0 101.5 -37.5t39.5 -97.5q0 -66 -48 -105.5t-128 -39.5q-81 0 -128.5 34.5t-47.5 94.5h126q2 -42 50 -42q25 0 39.5 15.5t14.5 41.5q0 25 -14 39.5t-38 14.5q-42 0 -50 -36l-122 7l24 245h295v-97zM350 0h-100l363 674h100z
M757 414q76 0 121.5 -32t45.5 -85q0 -32 -20.5 -55t-57.5 -31v-2q40 -8 64 -34.5t24 -62.5q0 -58 -47 -90t-130 -32t-130 32t-47 90q0 37 24 63t65 34v2q-37 8 -58 31t-21 55q0 53 46 85t121 32zM757 328q-23 0 -37 -10.5t-14 -28.5t14 -29t37 -11t37 11t14 29t-14 28.5
t-37 10.5zM757 163q-24 0 -38.5 -11.5t-14.5 -30.5q0 -20 14 -31.5t39 -11.5t39.5 11.5t14.5 31.5q0 19 -15 30.5t-39 11.5z" />
    <glyph glyph-name="seveneighths" unicode="&#x215e;" horiz-adv-x="859" 
d="M348 674v-94q-94 -124 -132 -310h-133q20 87 58.5 169t84.5 137h-217v98h339zM251 0h-100l363 674h100zM658 414q76 0 121.5 -32t45.5 -85q0 -32 -20.5 -55t-57.5 -31v-2q40 -8 64 -34.5t24 -62.5q0 -58 -47 -90t-130 -32t-130 32t-47 90q0 37 24 63t65 34v2
q-37 8 -58 31t-21 55q0 53 46 85t121 32zM658 328q-23 0 -37 -10.5t-14 -28.5t14 -29t37 -11t37 11t14 29t-14 28.5t-37 10.5zM658 163q-24 0 -38.5 -11.5t-14.5 -30.5q0 -20 14 -31.5t39 -11.5t39.5 11.5t14.5 31.5q0 19 -15 30.5t-39 11.5z" />
    <glyph glyph-name="Sevenroman" unicode="&#x2166;" horiz-adv-x="1292" 
d="M444 0h-226l-214 712h181l77 -275q42 -144 68 -280h2q24 122 68 280l78 275h180zM892 0h-173v712h173v-712zM1216 0h-173v712h173v-712z" />
    <glyph glyph-name="partialdiff" unicode="&#x2202;" horiz-adv-x="632" 
d="M292 728q138 0 208.5 -89t70.5 -260q0 -194 -75.5 -294.5t-205.5 -100.5q-122 0 -189.5 65.5t-67.5 177.5q0 111 67 181.5t181 70.5q77 0 124 -44h2q1 5 1 21q0 64 -30.5 104t-78.5 40q-66 0 -75 -69h-169q9 93 70 145t167 52zM304 366q-46 0 -72.5 -38t-26.5 -101
q0 -55 23 -85t67 -30q47 0 73.5 36t26.5 99q0 56 -24 87.5t-67 31.5z" />
    <glyph glyph-name="increment" unicode="&#x2206;" horiz-adv-x="714" 
d="M713 0h-712l245 712h224zM489 141l-61 200q-45 154 -71 259h-2q-26 -105 -71 -259l-60 -200h265z" />
    <glyph glyph-name="product" unicode="&#x220f;" horiz-adv-x="702" 
d="M627 -120h-173v685h-205v-685h-173v832h551v-832z" />
    <glyph glyph-name="summation" unicode="&#x2211;" horiz-adv-x="527" 
d="M492 564h-269l161 -268l-161 -267h269v-149h-457v149l165 267l-165 268v148h457v-148z" />
    <glyph glyph-name="minus" unicode="&#x2212;" horiz-adv-x="566" 
d="M507 252h-448v129h448v-129z" />
    <glyph glyph-name="uni2215" unicode="&#x2215;" horiz-adv-x="503" 
d="M155 -89h-125l298 834h124z" />
    <glyph glyph-name="uni2219" unicode="&#x2219;" horiz-adv-x="371" 
d="M274 214h-176v183h176v-183z" />
    <glyph glyph-name="radical" unicode="&#x221a;" horiz-adv-x="674" 
d="M416 -120h-220l-88 373h-83v133h195l89 -372h2l199 698h144z" />
    <glyph glyph-name="infinity" unicode="&#x221e;" horiz-adv-x="706" 
d="M522 491q77 0 123 -50t46 -133t-46 -133t-123 -50q-99 0 -169 88q-70 -88 -169 -88q-77 0 -123 50t-46 133t46 133t123 50q99 0 169 -88q70 88 169 88zM199 247q42 0 86 61q-44 61 -86 61q-27 0 -42.5 -16.5t-15.5 -44.5t15.5 -44.5t42.5 -16.5zM507 247q27 0 42.5 16.5
t15.5 44.5t-15.5 44.5t-42.5 16.5q-42 0 -86 -61q44 -61 86 -61z" />
    <glyph glyph-name="integral" unicode="&#x222b;" horiz-adv-x="372" 
d="M286 721q43 0 79 -9v-114q-14 2 -23 2q-38 0 -56 -18t-18 -57v-543q0 -176 -183 -176q-42 0 -78 9v114q14 -2 23 -2q38 0 56 17.5t18 57.5v543q0 176 182 176z" />
    <glyph glyph-name="approxequal" unicode="&#x2248;" horiz-adv-x="566" 
d="M197 520q42 0 103 -41q44 -29 64 -29q22 0 34.5 15.5t12.5 41.5h98q0 -78 -38.5 -126.5t-101.5 -48.5q-42 0 -103 41q-44 29 -64 29q-22 0 -34.5 -15t-12.5 -42h-98q0 79 38 127t102 48zM197 302q42 0 103 -41q44 -29 64 -29q22 0 34.5 15t12.5 42h98q0 -78 -38.5 -126.5
t-101.5 -48.5q-42 0 -103 41q-44 29 -64 29q-22 0 -34.5 -15.5t-12.5 -41.5h-98q0 79 38 127t102 48z" />
    <glyph glyph-name="notequal" unicode="&#x2260;" horiz-adv-x="566" 
d="M361 356l-43 -79h189v-124h-256l-62 -113h-113l61 113h-78v124h146l42 79h-188v124h256l61 113h114l-62 -113h79v-124h-146z" />
    <glyph glyph-name="lessequal" unicode="&#x2264;" horiz-adv-x="566" 
d="M507 450l-295 -94v-2l295 -93v-124l-448 144v148l448 145v-124zM507 117v-117h-448v117h448z" />
    <glyph glyph-name="greaterequal" unicode="&#x2265;" horiz-adv-x="566" 
d="M507 429v-148l-448 -144v124l295 93v2l-295 94v124zM507 0h-448v117h448v-117z" />
    <glyph glyph-name="lozenge" unicode="&#x25ca;" horiz-adv-x="668" 
d="M628 356l-184 -356h-221l-183 356l183 356h221zM210 356l124 -238l123 238l-123 238z" />
    <glyph glyph-name="uniF8FF" unicode="&#xf8ff;" horiz-adv-x="648" 
 />
    <glyph glyph-name="ff" unicode="&#xfb00;" horiz-adv-x="690" 
d="M657 600q-39 0 -56.5 -17.5t-17.5 -56.5v-18h94v-121h-94v-387h-164v387h-165v-387h-164v387h-81v121h81v37q0 176 183 176q43 0 79 -9v-114q-14 2 -24 2q-39 0 -56.5 -17.5t-17.5 -56.5v-18h165v37q0 176 183 176q43 0 79 -9v-114q-14 2 -24 2z" />
    <glyph glyph-name="fi" unicode="&#xfb01;" horiz-adv-x="649" 
d="M90 508v37q0 176 183 176q43 0 79 -9v-114q-14 2 -24 2q-39 0 -56.5 -17.5t-17.5 -56.5v-18h94v-121h-94v-387h-164v387h-81v121h81zM588 712v-131h-166v131h166zM422 508h166v-508h-166v508z" />
    <glyph glyph-name="fl" unicode="&#xfb02;" horiz-adv-x="649" 
d="M328 600q-39 0 -56.5 -17.5t-17.5 -56.5v-18h94v-121h-94v-387h-164v387h-81v121h81v37q0 176 183 176q43 0 79 -9v-114q-14 2 -24 2zM588 0h-166v712h166v-712z" />
    <glyph glyph-name="ffi" unicode="&#xfb03;" horiz-adv-x="978" 
d="M419 508v37q0 176 183 176q43 0 79 -9v-114q-14 2 -24 2q-39 0 -56.5 -17.5t-17.5 -56.5v-18h94v-121h-94v-387h-164v387h-165v-387h-164v387h-81v121h81v37q0 176 183 176q43 0 79 -9v-114q-14 2 -24 2q-39 0 -56.5 -17.5t-17.5 -56.5v-18h165zM917 712v-131h-166v131
h166zM751 508h166v-508h-166v508z" />
    <glyph glyph-name="ffl" unicode="&#xfb04;" horiz-adv-x="978" 
d="M419 508v37q0 176 183 176q43 0 79 -9v-114q-14 2 -24 2q-39 0 -56.5 -17.5t-17.5 -56.5v-18h94v-121h-94v-387h-164v387h-165v-387h-164v387h-81v121h81v37q0 176 183 176q43 0 79 -9v-114q-14 2 -24 2q-39 0 -56.5 -17.5t-17.5 -56.5v-18h165zM917 712v-712h-166v712
h166z" />
    <glyph glyph-name="uniFEFF" unicode="&#xfeff;" horiz-adv-x="0" 
 />
    <glyph glyph-name="J.acute.loclNLD" horiz-adv-x="410" 
d="M339 712v-471q0 -128 -59.5 -188.5t-186.5 -60.5q-47 0 -78 9v144q25 -5 45 -5q59 0 82.5 29.5t23.5 109.5v433h173zM286 768h-128l78 148h191z" />
    <glyph glyph-name="Ccedilla.ss01" horiz-adv-x="715" 
d="M367 728q137 0 221 -74t89 -198h-179q-6 58 -40.5 90t-90.5 32q-71 0 -111.5 -59.5t-40.5 -162.5t40.5 -162.5t109.5 -59.5q56 0 91.5 33t42.5 93h181q-10 -131 -93.5 -203.5t-221.5 -72.5q-153 0 -242 100t-89 272t90 272t243 100zM354 -217h-176l141 168h133z" />
    <glyph glyph-name="Scedilla.ss01" horiz-adv-x="645" 
d="M315 728q135 0 207 -59.5t72 -173.5h-180q0 48 -27.5 73.5t-78.5 25.5q-43 0 -68.5 -18.5t-25.5 -48.5q3 -34 29 -50t113 -38q93 -23 142.5 -46t81.5 -64q33 -43 33 -117q0 -103 -79.5 -165.5t-211.5 -62.5q-141 0 -219.5 65.5t-78.5 182.5h184q0 -110 118 -110
q49 0 77 20t28 55q-4 39 -26 52.5t-110 37.5q-95 24 -144 46.5t-81 62.5q-34 43 -34 115q0 98 76 157.5t203 59.5zM304 -217h-176l141 168h133z" />
    <glyph glyph-name="uni0162.ss01" horiz-adv-x="627" 
d="M618 565h-218v-565h-173v565h-218v147h609v-147zM301 -217h-176l141 168h133z" />
    <glyph glyph-name="i.loclTRK" horiz-adv-x="288" 
d="M227 0h-166v508h166v-508zM227 581h-166v131h166v-131z" />
    <glyph glyph-name="j.acute.loclNLD" horiz-adv-x="289" 
d="M228 508v-507q0 -96 -49 -143.5t-138 -47.5q-47 0 -80 9v116q12 -3 26 -3q40 0 57.5 21.5t17.5 75.5v479h166zM177 564h-128l78 148h191z" />
    <glyph glyph-name="ccedilla.ss01" horiz-adv-x="575" 
d="M295 524q106 0 176 -58.5t78 -151.5h-172q-4 40 -25.5 62.5t-55.5 22.5q-43 0 -67.5 -38t-24.5 -106q0 -69 24.5 -107t68.5 -38q34 0 55.5 25t23.5 69h173q-8 -101 -76.5 -160.5t-176.5 -59.5q-121 0 -193.5 74t-72.5 197q0 122 72 195.5t193 73.5zM282 -217h-176
l141 168h133z" />
    <glyph glyph-name="scedilla.ss01" horiz-adv-x="542" 
d="M267 524q108 0 166.5 -43.5t58.5 -126.5h-158q0 65 -68 65q-59 0 -59 -40q0 -22 20 -33t84 -27q72 -20 108.5 -36t62.5 -47q28 -34 28 -89q0 -75 -63 -119t-173 -44q-243 0 -243 181h167q0 -72 78 -72q30 0 47 11.5t17 30.5q-4 27 -23 37.5t-94 31.5q-66 17 -99 32
t-56 44q-25 31 -25 85q0 72 60 115.5t164 43.5zM260 -217h-176l141 168h133z" />
    <glyph glyph-name="uni0163.ss01" horiz-adv-x="378" 
d="M316 123q19 0 37 5v-125q-36 -11 -84 -11q-96 0 -139.5 40t-43.5 129v226h-79v121h79v137h166v-137h96v-121h-96v-188q0 -41 15 -58.5t49 -17.5zM198 -217h-176l141 168h133z" />
    <glyph glyph-name="a.sups" horiz-adv-x="419" 
d="M206 697q173 0 173 -148v-115q0 -65 12 -104h-122q-6 20 -6 45h-2q-42 -55 -118 -55q-58 0 -93 31.5t-35 80.5q0 48 35.5 76t113.5 40q50 8 84 9v13q0 48 -44 48q-42 0 -44 -45h-130q4 57 48.5 90.5t127.5 33.5zM248 477v12q-29 0 -57 -7q-42 -9 -42 -41q0 -37 40 -37
q27 0 44 17q15 16 15 56z" />
    <glyph glyph-name="b.sups" horiz-adv-x="452" 
d="M179 652h2q33 44 95 44q71 0 113 -51t42 -137t-43 -137.5t-115 -51.5q-67 0 -98 52h-2v-41h-130v498h136v-176zM230 594q-27 0 -42.5 -23.5t-15.5 -62.5q0 -40 15.5 -63t42.5 -23t43.5 23.5t16.5 62.5q0 40 -16.5 63t-43.5 23z" />
    <glyph glyph-name="c.sups" horiz-adv-x="427" 
d="M217 697q81 0 133 -41t59 -110h-140q-5 50 -50 50q-26 0 -41 -23t-15 -64q0 -43 15 -66t42 -23q21 0 34 15.5t14 41.5h141q-5 -73 -57 -115.5t-134 -42.5q-90 0 -143.5 51.5t-53.5 138.5q0 86 53 137t143 51z" />
    <glyph glyph-name="d.sups" horiz-adv-x="453" 
d="M410 828v-498h-131v41h-1q-31 -52 -99 -52q-72 0 -115 51.5t-43 137.5t42 137t113 51q63 0 96 -44h2v176h136zM223 594q-28 0 -44 -23t-16 -63t16 -63t44 -23q27 0 42.5 23t15.5 63q0 39 -15.5 62.5t-42.5 23.5z" />
    <glyph glyph-name="e.sups" horiz-adv-x="431" 
d="M215 406q21 0 35.5 9.5t16.5 24.5h138q-12 -54 -64 -87.5t-124 -33.5q-91 0 -143.5 52.5t-52.5 138.5q0 81 52.5 134t141.5 53q137 0 180 -110q15 -34 15 -107h-256q5 -74 61 -74zM215 613q-51 0 -60 -62h119q-4 62 -59 62z" />
    <glyph glyph-name="egrave.sups" horiz-adv-x="431" 
d="M174 724l-118 104h164l73 -104h-119zM215 406q21 0 35.5 9.5t16.5 24.5h138q-12 -54 -64 -87.5t-124 -33.5q-91 0 -143.5 52.5t-52.5 138.5q0 81 52.5 134t141.5 53q137 0 180 -110q15 -34 15 -107h-256q5 -74 61 -74zM215 613q-51 0 -60 -62h119q-4 62 -59 62z" />
    <glyph glyph-name="f.sups" horiz-adv-x="274" 
d="M250 739q-27 0 -39.5 -11.5t-12.5 -37.5v-4h66v-97h-66v-259h-136v259h-56v97h56v19q0 131 143 131q26 0 63 -8v-91q-10 2 -18 2z" />
    <glyph glyph-name="g.sups" horiz-adv-x="445" 
d="M172 696q65 0 103 -57h1v47h127v-331q0 -163 -193 -163q-78 0 -122.5 30.5t-50.5 86.5h128q5 -35 47 -35q30 0 44.5 17.5t14.5 58.5v39h-2q-36 -49 -100 -49q-68 0 -108 48.5t-40 129.5q0 82 40.5 130t110.5 48zM217 595q-26 0 -41.5 -20.5t-15.5 -56.5t15.5 -56.5
t41.5 -20.5q27 0 42.5 21t15.5 56t-15.5 56t-42.5 21z" />
    <glyph glyph-name="h.sups" horiz-adv-x="449" 
d="M179 654h2q33 42 96 42t98 -38t35 -109v-219h-135v202q0 59 -45 59q-51 0 -51 -83v-178h-136v498h136v-174z" />
    <glyph glyph-name="i.sups" horiz-adv-x="221" 
d="M179 729h-136v99h136v-99zM179 330h-136v356h136v-356z" />
    <glyph glyph-name="j.sups" horiz-adv-x="224" 
d="M181 729h-136v99h136v-99zM181 686v-346q0 -70 -38 -106.5t-105 -36.5q-43 0 -65 7v93q16 -2 18 -2q28 0 41 15.5t13 53.5v322h136z" />
    <glyph glyph-name="k.sups" horiz-adv-x="425" 
d="M432 330h-165l-86 155h-2v-155h-136v499h136v-279h2l80 136h159l-123 -168z" />
    <glyph glyph-name="l.sups" horiz-adv-x="221" 
d="M179 330h-136v498h136v-498z" />
    <glyph glyph-name="m.sups" horiz-adv-x="667" 
d="M500 696q61 0 94.5 -38t33.5 -109v-219h-136v202q0 59 -40 59q-49 0 -49 -83v-178h-135v206q0 55 -40 55q-49 0 -49 -83v-178h-136v356h126v-41h2q38 51 104 51q76 0 108 -62q42 62 117 62z" />
    <glyph glyph-name="n.sups" horiz-adv-x="449" 
d="M277 696q63 0 98 -38t35 -109v-219h-135v202q0 59 -45 59q-51 0 -51 -83v-178h-136v356h126v-41h1q40 51 107 51z" />
    <glyph glyph-name="o.sups" horiz-adv-x="444" 
d="M222 697q92 0 146.5 -51.5t54.5 -137.5q0 -87 -54.5 -138t-146.5 -51t-146.5 51t-54.5 138q0 86 54.5 137.5t146.5 51.5zM222 596q-28 0 -43.5 -23t-15.5 -65t15.5 -65t43.5 -23t43.5 23t15.5 65t-15.5 65t-43.5 23z" />
    <glyph glyph-name="p.sups" horiz-adv-x="452" 
d="M273 696q72 0 115 -51t43 -137t-42 -137.5t-113 -51.5q-64 0 -95 44h-2v-162h-136v485h130v-41h2q32 51 98 51zM230 594q-27 0 -42.5 -23.5t-15.5 -62.5q0 -40 15.5 -63t42.5 -23t43.5 23.5t16.5 62.5q0 40 -16.5 63t-43.5 23z" />
    <glyph glyph-name="q.sups" horiz-adv-x="453" 
d="M179 696q67 0 99 -51h1v41h131v-485h-136v162h-2q-33 -44 -96 -44q-71 0 -113 51.5t-42 137.5t43 137t115 51zM223 594q-28 0 -44 -23t-16 -63t16 -63t44 -23q27 0 42.5 23t15.5 63q0 39 -15.5 62.5t-42.5 23.5z" />
    <glyph glyph-name="r.sups" horiz-adv-x="317" 
d="M276 691q23 0 36 -4v-115q-21 4 -41 4q-92 0 -92 -103v-143h-136v356h126v-48h2q38 53 105 53z" />
    <glyph glyph-name="s.sups" horiz-adv-x="405" 
d="M201 697q81 0 125 -30t44 -88h-129q0 39 -41 39q-36 0 -36 -23q0 -13 13.5 -20t58.5 -19q77 -20 110.5 -43.5t36.5 -77.5q0 -54 -46.5 -85t-129.5 -31q-185 0 -185 127h136q0 -44 49 -44q40 0 40 24q0 15 -15.5 23t-68.5 21q-36 10 -54.5 16.5t-38.5 19t-29 31.5t-10 47
q0 52 44 82.5t126 30.5z" />
    <glyph glyph-name="t.sups" horiz-adv-x="286" 
d="M241 430q17 0 27 3v-101q-41 -9 -67 -9q-73 0 -106.5 29t-33.5 93v144h-56v97h56v99h135v-99h68v-97h-68v-107q0 -28 10.5 -40t34.5 -12z" />
    <glyph glyph-name="u.sups" horiz-adv-x="449" 
d="M173 320q-63 0 -98.5 38t-35.5 109v219h136v-202q0 -59 44 -59q52 0 52 83v178h135v-356h-126v41h-1q-40 -51 -106 -51z" />
    <glyph glyph-name="v.sups" horiz-adv-x="400" 
d="M292 330h-184l-114 356h146l30 -120q17 -71 29 -148h2q12 77 29 148l30 120h146z" />
    <glyph glyph-name="w.sups" horiz-adv-x="635" 
d="M550 330h-180l-26 127q-18 86 -26 147h-1q-13 -90 -25 -147l-27 -127h-180l-82 356h131l21 -124q16 -102 19 -148h2q13 88 28 150l28 122h171l29 -122q18 -78 28 -150h2q3 46 19 148l20 124h131z" />
    <glyph glyph-name="x.sups" horiz-adv-x="402" 
d="M287 513l119 -183h-153l-51 108h-2l-51 -108h-153l119 183l-111 173h152l44 -98h2l44 98h152z" />
    <glyph glyph-name="y.sups" horiz-adv-x="401" 
d="M406 686l-111 -334q-30 -90 -69 -123.5t-112 -33.5q-37 0 -68 7v98q18 -5 34 -5q22 0 34.5 9.5t12.5 25.5q0 15 -23 73l-111 283h148l32 -119q21 -75 34 -147h2q15 86 31 148l28 118h138z" />
    <glyph glyph-name="z.sups" horiz-adv-x="371" 
d="M345 581l-155 -147v-2h161v-102h-330v105l155 147v2h-150v102h319v-105z" />
    <glyph glyph-name="a.smcp" horiz-adv-x="613" 
d="M406 97h-198l-29 -97h-178l193 548h225l194 -548h-178zM370 221l-11 35q-30 94 -51 183h-2q-22 -89 -51 -183l-10 -35h125z" />
    <glyph glyph-name="aacute.smcp" horiz-adv-x="613" 
d="M406 97h-198l-29 -97h-178l193 548h225l194 -548h-178zM370 221l-11 35q-30 94 -51 183h-2q-22 -89 -51 -183l-10 -35h125zM339 604h-128l78 148h191z" />
    <glyph glyph-name="abreve.smcp" horiz-adv-x="613" 
d="M406 97h-198l-29 -97h-178l193 548h225l194 -548h-178zM370 221l-11 35q-30 94 -51 183h-2q-22 -89 -51 -183l-10 -35h125zM379 752h106q-4 -73 -50.5 -113.5t-127.5 -40.5t-127.5 40.5t-50.5 113.5h106q5 -58 72 -58t72 58z" />
    <glyph glyph-name="acircumflex.smcp" horiz-adv-x="613" 
d="M406 97h-198l-29 -97h-178l193 548h225l194 -548h-178zM370 221l-11 35q-30 94 -51 183h-2q-22 -89 -51 -183l-10 -35h125zM364 604l-58 76l-58 -76h-138l118 148h156l118 -148h-138z" />
    <glyph glyph-name="adieresis.smcp" horiz-adv-x="613" 
d="M406 97h-198l-29 -97h-178l193 548h225l194 -548h-178zM370 221l-11 35q-30 94 -51 183h-2q-22 -89 -51 -183l-10 -35h125zM265 621h-143v131h143v-131zM491 621h-142v131h142v-131z" />
    <glyph glyph-name="agrave.smcp" horiz-adv-x="613" 
d="M406 97h-198l-29 -97h-178l193 548h225l194 -548h-178zM370 221l-11 35q-30 94 -51 183h-2q-22 -89 -51 -183l-10 -35h125zM324 752l78 -148h-128l-141 148h191z" />
    <glyph glyph-name="amacron.smcp" horiz-adv-x="613" 
d="M406 97h-198l-29 -97h-178l193 548h225l194 -548h-178zM370 221l-11 35q-30 94 -51 183h-2q-22 -89 -51 -183l-10 -35h125zM486 629h-359v103h359v-103z" />
    <glyph glyph-name="aogonek.smcp" horiz-adv-x="613" 
d="M406 97h-198l-29 -97h-178l193 548h225l194 -548h-178zM370 221l-11 35q-30 94 -51 183h-2q-22 -89 -51 -183l-10 -35h125zM484 0h129q-65 -43 -65 -79q0 -30 33 -30q20 0 35 7v-82q-42 -15 -93 -15q-60 0 -91.5 24t-31.5 67q0 59 84 108z" />
    <glyph glyph-name="aring.smcp" horiz-adv-x="613" 
d="M406 97h-198l-29 -97h-178l193 548h225l194 -548h-178zM370 221l-11 35q-30 94 -51 183h-2q-22 -89 -51 -183l-10 -35h125zM307 820q47 0 80.5 -34t33.5 -80q0 -47 -33.5 -80t-80.5 -33t-80.5 33t-33.5 80q0 46 33.5 80t80.5 34zM307 762q-23 0 -39.5 -16.5t-16.5 -39.5
t16.5 -39.5t39.5 -16.5t39.5 16.5t16.5 39.5t-16.5 39.5t-39.5 16.5z" />
    <glyph glyph-name="atilde.smcp" horiz-adv-x="613" 
d="M406 97h-198l-29 -97h-178l193 548h225l194 -548h-178zM370 221l-11 35q-30 94 -51 183h-2q-22 -89 -51 -183l-10 -35h125zM413 752h89q-4 -67 -36.5 -105t-88.5 -38q-35 0 -83 25q-32 18 -51 18q-38 0 -42 -43h-89q3 67 35.5 105t88.5 38q30 0 84 -25q32 -18 50 -18
q37 0 43 43z" />
    <glyph glyph-name="ae.smcp" horiz-adv-x="812" 
d="M769 130v-130h-344l-17 106h-196l-45 -106h-172l250 548h520v-130h-252l12 -79h220v-126h-200l13 -83h211zM389 233l-30 187h-12l-80 -187h122z" />
    <glyph glyph-name="b.smcp" horiz-adv-x="589" 
d="M68 548h256q105 0 159.5 -37t54.5 -104q0 -98 -99 -123v-2q114 -22 114 -128q0 -71 -58 -112.5t-160 -41.5h-267v548zM234 432v-101h59q81 0 81 51q0 50 -75 50h-65zM234 222v-105h61q47 0 65.5 11.5t18.5 39.5q0 29 -19.5 41.5t-65.5 12.5h-60z" />
    <glyph glyph-name="c.smcp" horiz-adv-x="612" 
d="M306 564q118 0 188.5 -58.5t74.5 -161.5h-175q-8 82 -88 82q-46 0 -73 -40.5t-27 -111.5q0 -72 27 -112t74 -40q36 0 59.5 22.5t28.5 62.5h177q-9 -107 -79 -165t-186 -58q-129 0 -202.5 77t-73.5 213q0 134 74.5 212t200.5 78z" />
    <glyph glyph-name="cacute.smcp" horiz-adv-x="612" 
d="M306 564q118 0 188.5 -58.5t74.5 -161.5h-175q-8 82 -88 82q-46 0 -73 -40.5t-27 -111.5q0 -72 27 -112t74 -40q36 0 59.5 22.5t28.5 62.5h177q-9 -107 -79 -165t-186 -58q-129 0 -202.5 77t-73.5 213q0 134 74.5 212t200.5 78zM338 604h-128l78 148h191z" />
    <glyph glyph-name="ccaron.smcp" horiz-adv-x="612" 
d="M306 564q118 0 188.5 -58.5t74.5 -161.5h-175q-8 82 -88 82q-46 0 -73 -40.5t-27 -111.5q0 -72 27 -112t74 -40q36 0 59.5 22.5t28.5 62.5h177q-9 -107 -79 -165t-186 -58q-129 0 -202.5 77t-73.5 213q0 134 74.5 212t200.5 78zM383 604h-156l-118 148h138l58 -76l58 76
h138z" />
    <glyph glyph-name="ccedilla.smcp" horiz-adv-x="612" 
d="M395 207h177q-8 -99 -69.5 -156.5t-163.5 -65.5l-28 -45q17 5 33 5q39 0 63 -21t24 -57q0 -44 -34.5 -71.5t-93.5 -27.5q-64 0 -120 32l26 53q43 -22 81 -22q44 0 44 31q0 33 -44 33q-18 0 -31 -6l-29 27l42 70q-113 10 -177 86t-64 202q0 134 74.5 212t200.5 78
q118 0 188.5 -58.5t74.5 -161.5h-175q-8 82 -88 82q-46 0 -73 -40.5t-27 -111.5q0 -72 27 -112t74 -40q36 0 59.5 22.5t28.5 62.5z" />
    <glyph glyph-name="ccircumflex.smcp" horiz-adv-x="612" 
d="M306 564q118 0 188.5 -58.5t74.5 -161.5h-175q-8 82 -88 82q-46 0 -73 -40.5t-27 -111.5q0 -72 27 -112t74 -40q36 0 59.5 22.5t28.5 62.5h177q-9 -107 -79 -165t-186 -58q-129 0 -202.5 77t-73.5 213q0 134 74.5 212t200.5 78zM363 604l-58 76l-58 -76h-138l118 148h156
l118 -148h-138z" />
    <glyph glyph-name="cdotaccent.smcp" horiz-adv-x="612" 
d="M306 564q118 0 188.5 -58.5t74.5 -161.5h-175q-8 82 -88 82q-46 0 -73 -40.5t-27 -111.5q0 -72 27 -112t74 -40q36 0 59.5 22.5t28.5 62.5h177q-9 -107 -79 -165t-186 -58q-129 0 -202.5 77t-73.5 213q0 134 74.5 212t200.5 78zM388 621h-166v131h166v-131z" />
    <glyph glyph-name="d.smcp" horiz-adv-x="636" 
d="M68 548h223q151 0 232.5 -71t81.5 -203q0 -131 -81.5 -202.5t-232.5 -71.5h-223v548zM237 413v-278h50q70 0 106.5 35.5t36.5 103.5t-36.5 103.5t-106.5 35.5h-50z" />
    <glyph glyph-name="eth.smcp" horiz-adv-x="640" 
d="M73 548h223q151 0 232.5 -71t81.5 -203q0 -131 -81.5 -202.5t-232.5 -71.5h-223v229h-59v96h59v223zM239 131h53q72 0 109 37t37 106t-37 106t-109 37h-53v-92h102v-96h-102v-98z" />
    <glyph glyph-name="dcaron.smcp" horiz-adv-x="636" 
d="M68 548h223q151 0 232.5 -71t81.5 -203q0 -131 -81.5 -202.5t-232.5 -71.5h-223v548zM237 413v-278h50q70 0 106.5 35.5t36.5 103.5t-36.5 103.5t-106.5 35.5h-50zM378 604h-156l-118 148h138l58 -76l58 76h138z" />
    <glyph glyph-name="dcroat.smcp" horiz-adv-x="640" 
d="M73 548h223q151 0 232.5 -71t81.5 -203q0 -131 -81.5 -202.5t-232.5 -71.5h-223v229h-59v96h59v223zM239 131h53q72 0 109 37t37 106t-37 106t-109 37h-53v-92h102v-96h-102v-98z" />
    <glyph glyph-name="e.smcp" horiz-adv-x="535" 
d="M489 418h-261v-79h241v-126h-241v-83h264v-130h-424v548h421v-130z" />
    <glyph glyph-name="eacute.smcp" horiz-adv-x="535" 
d="M489 418h-261v-79h241v-126h-241v-83h264v-130h-424v548h421v-130zM311 604h-128l78 148h191z" />
    <glyph glyph-name="ebreve.smcp" horiz-adv-x="535" 
d="M489 418h-261v-79h241v-126h-241v-83h264v-130h-424v548h421v-130zM351 752h106q-4 -73 -50.5 -113.5t-127.5 -40.5t-127.5 40.5t-50.5 113.5h106q5 -58 72 -58t72 58z" />
    <glyph glyph-name="ecaron.smcp" horiz-adv-x="535" 
d="M489 418h-261v-79h241v-126h-241v-83h264v-130h-424v548h421v-130zM356 604h-156l-118 148h138l58 -76l58 76h138z" />
    <glyph glyph-name="ecircumflex.smcp" horiz-adv-x="535" 
d="M489 418h-261v-79h241v-126h-241v-83h264v-130h-424v548h421v-130zM336 604l-58 76l-58 -76h-138l118 148h156l118 -148h-138z" />
    <glyph glyph-name="edieresis.smcp" horiz-adv-x="535" 
d="M489 418h-261v-79h241v-126h-241v-83h264v-130h-424v548h421v-130zM237 621h-143v131h143v-131zM463 621h-142v131h142v-131z" />
    <glyph glyph-name="edotaccent.smcp" horiz-adv-x="535" 
d="M489 418h-261v-79h241v-126h-241v-83h264v-130h-424v548h421v-130zM362 621h-166v131h166v-131z" />
    <glyph glyph-name="egrave.smcp" horiz-adv-x="535" 
d="M489 418h-261v-79h241v-126h-241v-83h264v-130h-424v548h421v-130zM296 752l78 -148h-128l-141 148h191z" />
    <glyph glyph-name="emacron.smcp" horiz-adv-x="535" 
d="M489 418h-261v-79h241v-126h-241v-83h264v-130h-424v548h421v-130zM458 629h-359v103h359v-103z" />
    <glyph glyph-name="eogonek.smcp" horiz-adv-x="535" 
d="M489 418h-261v-79h241v-126h-241v-83h264v-130h-424v548h421v-130zM364 0h129q-65 -43 -65 -79q0 -30 33 -30q20 0 35 7v-82q-42 -15 -93 -15q-60 0 -91.5 24t-31.5 67q0 59 84 108z" />
    <glyph glyph-name="f.smcp" horiz-adv-x="496" 
d="M477 415h-249v-101h231v-133h-231v-181h-160v548h409v-133z" />
    <glyph glyph-name="fi.smcp" horiz-adv-x="801" 
d="M477 415h-249v-101h231v-133h-231v-181h-160v548h409v-133zM734 0h-170v548h170v-548z" />
    <glyph glyph-name="fl.smcp" horiz-adv-x="995" 
d="M477 415h-249v-101h231v-133h-231v-181h-160v548h409v-133zM734 141h252v-141h-422v548h170v-407z" />
    <glyph glyph-name="g.smcp" horiz-adv-x="639" 
d="M322 564q110 0 179 -52t79 -141h-177q-12 62 -82 62q-54 0 -84.5 -42t-30.5 -119q0 -78 30.5 -121t84.5 -43q45 0 71.5 23t28.5 65h-110v118h267v-314h-143v46h-2q-53 -59 -153 -59q-115 0 -182 76.5t-67 208.5q0 135 78.5 213.5t212.5 78.5z" />
    <glyph glyph-name="gbreve.smcp" horiz-adv-x="639" 
d="M322 564q110 0 179 -52t79 -141h-177q-12 62 -82 62q-54 0 -84.5 -42t-30.5 -119q0 -78 30.5 -121t84.5 -43q45 0 71.5 23t28.5 65h-110v118h267v-314h-143v46h-2q-53 -59 -153 -59q-115 0 -182 76.5t-67 208.5q0 135 78.5 213.5t212.5 78.5zM388 752h106
q-4 -73 -50.5 -113.5t-127.5 -40.5t-127.5 40.5t-50.5 113.5h106q5 -58 72 -58t72 58z" />
    <glyph glyph-name="gcircumflex.smcp" horiz-adv-x="639" 
d="M322 564q110 0 179 -52t79 -141h-177q-12 62 -82 62q-54 0 -84.5 -42t-30.5 -119q0 -78 30.5 -121t84.5 -43q45 0 71.5 23t28.5 65h-110v118h267v-314h-143v46h-2q-53 -59 -153 -59q-115 0 -182 76.5t-67 208.5q0 135 78.5 213.5t212.5 78.5zM373 604l-58 76l-58 -76
h-138l118 148h156l118 -148h-138z" />
    <glyph glyph-name="gcommaaccent.smcp" horiz-adv-x="639" 
d="M322 564q110 0 179 -52t79 -141h-177q-12 62 -82 62q-54 0 -84.5 -42t-30.5 -119q0 -78 30.5 -121t84.5 -43q45 0 71.5 23t28.5 65h-110v118h267v-314h-143v46h-2q-53 -59 -153 -59q-115 0 -182 76.5t-67 208.5q0 135 78.5 213.5t212.5 78.5zM382 -166l-71 -109h-63
l46 109h-46v112h134v-112z" />
    <glyph glyph-name="gdotaccent.smcp" horiz-adv-x="639" 
d="M322 564q110 0 179 -52t79 -141h-177q-12 62 -82 62q-54 0 -84.5 -42t-30.5 -119q0 -78 30.5 -121t84.5 -43q45 0 71.5 23t28.5 65h-110v118h267v-314h-143v46h-2q-53 -59 -153 -59q-115 0 -182 76.5t-67 208.5q0 135 78.5 213.5t212.5 78.5zM399 621h-166v131h166v-131z
" />
    <glyph glyph-name="h.smcp" horiz-adv-x="663" 
d="M595 0h-170v212h-187v-212h-170v548h170v-196h187v196h170v-548z" />
    <glyph glyph-name="hbar.smcp" horiz-adv-x="663" 
d="M636 431h-41v-431h-170v212h-187v-212h-170v431h-41v68h41v49h170v-49h187v49h170v-49h41v-68zM425 431h-187v-79h187v79z" />
    <glyph glyph-name="uni0125.smcp" horiz-adv-x="663" 
d="M595 0h-170v212h-187v-212h-170v548h170v-196h187v196h170v-548zM389 604l-58 76l-58 -76h-138l118 148h156l118 -148h-138z" />
    <glyph glyph-name="i.smcp" horiz-adv-x="306" 
d="M238 0h-170v548h170v-548z" />
    <glyph glyph-name="iacute.smcp" horiz-adv-x="306" 
d="M238 0h-170v548h170v-548zM185 604h-128l78 148h191z" />
    <glyph glyph-name="ibreve.smcp" horiz-adv-x="306" 
d="M238 0h-170v548h170v-548zM215 752h100q-3 -73 -45 -113.5t-117 -40.5t-117 40t-45 114h100q5 -60 62 -60t62 60z" />
    <glyph glyph-name="icircumflex.smcp" horiz-adv-x="306" 
d="M238 0h-170v548h170v-548zM334 606h-130l-51 71l-50 -71h-131l108 146h146z" />
    <glyph glyph-name="idieresis.smcp" horiz-adv-x="306" 
d="M238 0h-170v548h170v-548zM129 621h-133v131h133v-131zM309 621h-132v131h132v-131z" />
    <glyph glyph-name="i.loclTRK.smcp" horiz-adv-x="306" 
d="M238 0h-170v548h170v-548zM236 621h-166v131h166v-131z" />
    <glyph glyph-name="igrave.smcp" horiz-adv-x="306" 
d="M238 0h-170v548h170v-548zM171 752l78 -148h-128l-141 148h191z" />
    <glyph glyph-name="ij.smcp" horiz-adv-x="669" 
d="M238 0h-170v548h170v-548zM606 548v-351q0 -106 -51.5 -155t-161.5 -49q-39 0 -73 8l-1 136q18 -3 36 -3q46 0 64 22.5t18 84.5v307h169z" />
    <glyph glyph-name="imacron.smcp" horiz-adv-x="306" 
d="M238 0h-170v548h170v-548zM303 632h-300v103h300v-103z" />
    <glyph glyph-name="iogonek.smcp" horiz-adv-x="306" 
d="M238 0h-170v548h170v-548zM109 0h129q-65 -43 -65 -79q0 -30 33 -30q20 0 35 7v-82q-42 -15 -93 -15q-60 0 -91.5 24t-31.5 67q0 59 84 108z" />
    <glyph glyph-name="itilde.smcp" horiz-adv-x="306" 
d="M238 0h-170v548h170v-548zM248 752h78q-4 -69 -33 -106.5t-82 -37.5q-31 0 -72 26q-29 19 -45 19q-33 0 -36 -45h-77q3 69 32.5 106.5t80.5 37.5q31 0 72 -26q28 -19 45 -19q33 0 37 45z" />
    <glyph glyph-name="j.smcp" horiz-adv-x="364" 
d="M300 548v-351q0 -106 -51.5 -155t-161.5 -49q-39 0 -73 8l-1 136q18 -3 36 -3q46 0 64 22.5t18 84.5v307h169z" />
    <glyph glyph-name="jcircumflex.smcp" horiz-adv-x="364" 
d="M300 548v-351q0 -106 -51.5 -155t-161.5 -49q-39 0 -73 8l-1 136q18 -3 36 -3q46 0 64 22.5t18 84.5v307h169zM393 606h-130l-51 71l-50 -71h-131l108 146h146z" />
    <glyph glyph-name="k.smcp" 
d="M394 290l210 -290h-210l-154 245h-2v-245h-170v548h170v-230h2l149 230h202z" />
    <glyph glyph-name="kcommaaccent.smcp" 
d="M394 290l210 -290h-210l-154 245h-2v-245h-170v548h170v-230h2l149 230h202zM374 -166l-71 -109h-63l46 109h-46v112h134v-112z" />
    <glyph glyph-name="l.smcp" horiz-adv-x="499" 
d="M238 141h252v-141h-422v548h170v-407z" />
    <glyph glyph-name="lacute.smcp" horiz-adv-x="499" 
d="M238 141h252v-141h-422v548h170v-407zM216 604h-128l78 148h191z" />
    <glyph glyph-name="lcaron.smcp" horiz-adv-x="499" 
d="M238 141h252v-141h-422v548h170v-407zM367 370h-94l24 178h130z" />
    <glyph glyph-name="lcommaaccent.smcp" horiz-adv-x="499" 
d="M238 141h252v-141h-422v548h170v-407zM334 -166l-71 -109h-63l46 109h-46v112h134v-112z" />
    <glyph glyph-name="ldot.smcp" horiz-adv-x="562" 
d="M238 141h252v-141h-422v548h170v-407zM516 277h-163v170h163v-170z" />
    <glyph glyph-name="j.acute.loclNLD.smcp" horiz-adv-x="364" 
d="M300 548v-351q0 -106 -51.5 -155t-161.5 -49q-39 0 -73 8l-1 136q18 -3 36 -3q46 0 64 22.5t18 84.5v307h169zM245 604h-128l78 148h191z" />
    <glyph glyph-name="lslash.smcp" horiz-adv-x="501" 
d="M492 141v-141h-421v213l-61 -34v112l61 34v223h169v-137l103 57v-112l-103 -57v-158h252z" />
    <glyph glyph-name="m.smcp" horiz-adv-x="900" 
d="M832 0h-160v261q0 77 5 199h-2q-22 -106 -48 -196l-73 -264h-207l-73 264q-19 67 -49 196h-2q6 -99 6 -199v-261h-161v548h274l63 -232q29 -108 44 -200h2q18 104 44 200l64 232h273v-548z" />
    <glyph glyph-name="n.smcp" horiz-adv-x="717" 
d="M649 0h-252l-89 208q-50 115 -82 209h-2q7 -95 7 -220v-197h-163v548h253l89 -208q47 -111 81 -209h2q-6 89 -6 220v197h162v-548z" />
    <glyph glyph-name="nacute.smcp" horiz-adv-x="717" 
d="M649 0h-252l-89 208q-50 115 -82 209h-2q7 -95 7 -220v-197h-163v548h253l89 -208q47 -111 81 -209h2q-6 89 -6 220v197h162v-548zM391 604h-128l78 148h191z" />
    <glyph glyph-name="ncaron.smcp" horiz-adv-x="717" 
d="M649 0h-252l-89 208q-50 115 -82 209h-2q7 -95 7 -220v-197h-163v548h253l89 -208q47 -111 81 -209h2q-6 89 -6 220v197h162v-548zM437 604h-156l-118 148h138l58 -76l58 76h138z" />
    <glyph glyph-name="ncommaaccent.smcp" horiz-adv-x="717" 
d="M649 0h-252l-89 208q-50 115 -82 209h-2q7 -95 7 -220v-197h-163v548h253l89 -208q47 -111 81 -209h2q-6 89 -6 220v197h162v-548zM426 -166l-71 -109h-63l46 109h-46v112h134v-112z" />
    <glyph glyph-name="eng.smcp" horiz-adv-x="665" 
d="M597 548v-555q0 -79 -45.5 -119.5t-125.5 -40.5q-45 0 -75 9v108q9 -3 24 -3q51 0 51 45q0 19 -37 82l-84 145q-51 88 -80 158h-2q8 -104 8 -183v-194h-163v548h207l84 -145q44 -77 82 -159h2q-8 88 -8 183v121h162z" />
    <glyph glyph-name="ntilde.smcp" horiz-adv-x="717" 
d="M649 0h-252l-89 208q-50 115 -82 209h-2q7 -95 7 -220v-197h-163v548h253l89 -208q47 -111 81 -209h2q-6 89 -6 220v197h162v-548zM465 752h89q-4 -67 -36.5 -105t-88.5 -38q-35 0 -83 25q-32 18 -51 18q-38 0 -42 -43h-89q3 67 35.5 105t88.5 38q30 0 84 -25
q32 -18 50 -18q37 0 43 43z" />
    <glyph glyph-name="o.smcp" horiz-adv-x="632" 
d="M316 564q131 0 208 -78.5t77 -211.5t-77 -211.5t-208 -78.5t-208 78.5t-77 211.5t77 211.5t208 78.5zM316 426q-53 0 -81.5 -39t-28.5 -113t28.5 -113t81.5 -39t81.5 39t28.5 113t-28.5 113t-81.5 39z" />
    <glyph glyph-name="oacute.smcp" horiz-adv-x="632" 
d="M316 564q131 0 208 -78.5t77 -211.5t-77 -211.5t-208 -78.5t-208 78.5t-77 211.5t77 211.5t208 78.5zM316 426q-53 0 -81.5 -39t-28.5 -113t28.5 -113t81.5 -39t81.5 39t28.5 113t-28.5 113t-81.5 39zM348 604h-128l78 148h191z" />
    <glyph glyph-name="obreve.smcp" horiz-adv-x="632" 
d="M316 564q131 0 208 -78.5t77 -211.5t-77 -211.5t-208 -78.5t-208 78.5t-77 211.5t77 211.5t208 78.5zM316 426q-53 0 -81.5 -39t-28.5 -113t28.5 -113t81.5 -39t81.5 39t28.5 113t-28.5 113t-81.5 39zM388 752h106q-4 -73 -50.5 -113.5t-127.5 -40.5t-127.5 40.5
t-50.5 113.5h106q5 -58 72 -58t72 58z" />
    <glyph glyph-name="ocircumflex.smcp" horiz-adv-x="632" 
d="M316 564q131 0 208 -78.5t77 -211.5t-77 -211.5t-208 -78.5t-208 78.5t-77 211.5t77 211.5t208 78.5zM316 426q-53 0 -81.5 -39t-28.5 -113t28.5 -113t81.5 -39t81.5 39t28.5 113t-28.5 113t-81.5 39zM374 604l-58 76l-58 -76h-138l118 148h156l118 -148h-138z" />
    <glyph glyph-name="odieresis.smcp" horiz-adv-x="632" 
d="M316 564q131 0 208 -78.5t77 -211.5t-77 -211.5t-208 -78.5t-208 78.5t-77 211.5t77 211.5t208 78.5zM316 426q-53 0 -81.5 -39t-28.5 -113t28.5 -113t81.5 -39t81.5 39t28.5 113t-28.5 113t-81.5 39zM274 621h-143v131h143v-131zM500 621h-142v131h142v-131z" />
    <glyph glyph-name="ograve.smcp" horiz-adv-x="632" 
d="M316 564q131 0 208 -78.5t77 -211.5t-77 -211.5t-208 -78.5t-208 78.5t-77 211.5t77 211.5t208 78.5zM316 426q-53 0 -81.5 -39t-28.5 -113t28.5 -113t81.5 -39t81.5 39t28.5 113t-28.5 113t-81.5 39zM334 752l78 -148h-128l-141 148h191z" />
    <glyph glyph-name="ohungarumlaut.smcp" horiz-adv-x="632" 
d="M316 564q131 0 208 -78.5t77 -211.5t-77 -211.5t-208 -78.5t-208 78.5t-77 211.5t77 211.5t208 78.5zM316 426q-53 0 -81.5 -39t-28.5 -113t28.5 -113t81.5 -39t81.5 39t28.5 113t-28.5 113t-81.5 39zM249 604h-123l98 148h166zM455 604h-124l99 148h166z" />
    <glyph glyph-name="omacron.smcp" horiz-adv-x="632" 
d="M316 564q131 0 208 -78.5t77 -211.5t-77 -211.5t-208 -78.5t-208 78.5t-77 211.5t77 211.5t208 78.5zM316 426q-53 0 -81.5 -39t-28.5 -113t28.5 -113t81.5 -39t81.5 39t28.5 113t-28.5 113t-81.5 39zM495 629h-359v103h359v-103z" />
    <glyph glyph-name="oslash.smcp" horiz-adv-x="634" 
d="M576 543l-47 -60q74 -80 74 -209q0 -133 -77.5 -211.5t-208.5 -78.5q-85 0 -147 33l-49 -63l-64 49l48 62q-74 79 -74 209q0 133 77.5 211.5t208.5 78.5q82 0 148 -33l47 61zM317 433q-59 0 -90.5 -41.5t-31.5 -117.5q0 -48 12 -81l174 223q-29 17 -64 17zM317 115
q59 0 90.5 41t31.5 118q0 48 -12 81l-174 -223q29 -17 64 -17z" />
    <glyph glyph-name="otilde.smcp" horiz-adv-x="632" 
d="M316 564q131 0 208 -78.5t77 -211.5t-77 -211.5t-208 -78.5t-208 78.5t-77 211.5t77 211.5t208 78.5zM316 426q-53 0 -81.5 -39t-28.5 -113t28.5 -113t81.5 -39t81.5 39t28.5 113t-28.5 113t-81.5 39zM422 752h89q-4 -67 -36.5 -105t-88.5 -38q-35 0 -83 25
q-31 18 -51 18q-38 0 -42 -43h-89q3 67 35.5 105t88.5 38q30 0 84 -25q31 -18 50 -18q37 0 43 43z" />
    <glyph glyph-name="oe.smcp" horiz-adv-x="845" 
d="M798 418h-260v-79h240v-126h-240v-83h264v-130h-457q-148 0 -231 72.5t-83 201.5t83 201.5t231 72.5h453v-130zM381 418h-33q-69 0 -105.5 -37.5t-36.5 -106.5t36.5 -106.5t105.5 -37.5h33v288z" />
    <glyph glyph-name="p.smcp" horiz-adv-x="578" 
d="M68 548h261q111 0 169.5 -51t58.5 -143t-58.5 -142.5t-169.5 -50.5h-91v-161h-170v548zM238 422v-136h60q85 0 85 68t-86 68h-59z" />
    <glyph glyph-name="thorn.smcp" horiz-adv-x="578" 
d="M238 474h91q110 0 169 -51.5t59 -143.5q0 -91 -59 -142t-169 -51h-91v-86h-170v548h170v-74zM238 348v-136h60q85 0 85 68t-86 68h-59z" />
    <glyph glyph-name="q.smcp" horiz-adv-x="632" 
d="M601 274q0 -124 -66 -200l61 -65l-81 -76l-71 75q-56 -24 -128 -24q-131 0 -208 78.5t-77 211.5t77 211.5t208 78.5t208 -78.5t77 -211.5zM205 271q0 -75 29.5 -115.5t84.5 -40.5q14 0 28 3l-65 68l76 71l64 -69q13 32 13 83q0 75 -29.5 115t-85.5 40t-85.5 -40
t-29.5 -115z" />
    <glyph glyph-name="r.smcp" horiz-adv-x="598" 
d="M68 548h268q214 0 214 -158q0 -49 -27.5 -84t-77.5 -50v-2q31 -11 49.5 -35t39.5 -78l54 -141h-181l-40 116q-14 40 -34 56t-56 16h-39v-188h-170v548zM238 429v-126h66q79 0 79 64q0 62 -83 62h-62z" />
    <glyph glyph-name="racute.smcp" horiz-adv-x="598" 
d="M68 548h268q214 0 214 -158q0 -49 -27.5 -84t-77.5 -50v-2q31 -11 49.5 -35t39.5 -78l54 -141h-181l-40 116q-14 40 -34 56t-56 16h-39v-188h-170v548zM238 429v-126h66q79 0 79 64q0 62 -83 62h-62zM329 604h-128l78 148h191z" />
    <glyph glyph-name="rcaron.smcp" horiz-adv-x="598" 
d="M68 548h268q214 0 214 -158q0 -49 -27.5 -84t-77.5 -50v-2q31 -11 49.5 -35t39.5 -78l54 -141h-181l-40 116q-14 40 -34 56t-56 16h-39v-188h-170v548zM238 429v-126h66q79 0 79 64q0 62 -83 62h-62zM374 604h-156l-118 148h138l58 -76l58 76h138z" />
    <glyph glyph-name="rcommaaccent.smcp" horiz-adv-x="598" 
d="M68 548h268q214 0 214 -158q0 -49 -27.5 -84t-77.5 -50v-2q31 -11 49.5 -35t39.5 -78l54 -141h-181l-40 116q-14 40 -34 56t-56 16h-39v-188h-170v548zM238 429v-126h66q79 0 79 64q0 62 -83 62h-62zM379 -166l-71 -109h-63l46 109h-46v112h134v-112z" />
    <glyph glyph-name="s.smcp" horiz-adv-x="543" 
d="M268 564q112 0 172.5 -46.5t60.5 -135.5h-164q0 66 -77 66q-31 0 -49 -12t-18 -33q3 -24 21.5 -34t86.5 -25q57 -14 90 -25.5t63.5 -31t44 -49t15.5 -72.5q0 -85 -65.5 -133.5t-178.5 -48.5q-117 0 -182.5 51t-65.5 143h167q0 -75 86 -75q35 0 55 14t20 37q0 24 -20 35
q-17 8 -84 26q-78 19 -118 36t-67 49q-29 34 -29 88q0 81 63 128.5t173 47.5z" />
    <glyph glyph-name="sacute.smcp" horiz-adv-x="543" 
d="M268 564q112 0 172.5 -46.5t60.5 -135.5h-164q0 66 -77 66q-31 0 -49 -12t-18 -33q3 -24 21.5 -34t86.5 -25q57 -14 90 -25.5t63.5 -31t44 -49t15.5 -72.5q0 -85 -65.5 -133.5t-178.5 -48.5q-117 0 -182.5 51t-65.5 143h167q0 -75 86 -75q35 0 55 14t20 37q0 24 -20 35
q-17 8 -84 26q-78 19 -118 36t-67 49q-29 34 -29 88q0 81 63 128.5t173 47.5zM300 604h-128l78 148h191z" />
    <glyph glyph-name="scaron.smcp" horiz-adv-x="543" 
d="M268 564q112 0 172.5 -46.5t60.5 -135.5h-164q0 66 -77 66q-31 0 -49 -12t-18 -33q3 -24 21.5 -34t86.5 -25q57 -14 90 -25.5t63.5 -31t44 -49t15.5 -72.5q0 -85 -65.5 -133.5t-178.5 -48.5q-117 0 -182.5 51t-65.5 143h167q0 -75 86 -75q35 0 55 14t20 37q0 24 -20 35
q-17 8 -84 26q-78 19 -118 36t-67 49q-29 34 -29 88q0 81 63 128.5t173 47.5zM345 604h-156l-118 148h138l58 -76l58 76h138z" />
    <glyph glyph-name="scedilla.smcp" horiz-adv-x="543" 
d="M514 166q0 -79 -56.5 -126.5t-155.5 -54.5l-28 -45q17 5 33 5q39 0 63 -21t24 -57q0 -44 -34.5 -71.5t-93.5 -27.5q-64 0 -120 32l26 53q43 -22 81 -22q44 0 44 31q0 33 -44 33q-17 0 -31 -6l-29 27l42 69q-102 8 -157.5 58t-55.5 135h167q0 -75 86 -75q35 0 55 14t20 37
q0 24 -20 35q-17 8 -84 26q-78 19 -118 36t-67 49q-29 34 -29 88q0 81 63 128.5t173 47.5q112 0 172.5 -46.5t60.5 -135.5h-164q0 66 -77 66q-31 0 -49 -12t-18 -33q3 -24 21.5 -34t86.5 -25q57 -14 90 -25.5t63.5 -31t44 -49t15.5 -72.5z" />
    <glyph glyph-name="scircumflex.smcp" horiz-adv-x="543" 
d="M268 564q112 0 172.5 -46.5t60.5 -135.5h-164q0 66 -77 66q-31 0 -49 -12t-18 -33q3 -24 21.5 -34t86.5 -25q57 -14 90 -25.5t63.5 -31t44 -49t15.5 -72.5q0 -85 -65.5 -133.5t-178.5 -48.5q-117 0 -182.5 51t-65.5 143h167q0 -75 86 -75q35 0 55 14t20 37q0 24 -20 35
q-17 8 -84 26q-78 19 -118 36t-67 49q-29 34 -29 88q0 81 63 128.5t173 47.5zM325 604l-58 76l-58 -76h-138l118 148h156l118 -148h-138z" />
    <glyph glyph-name="scommaaccent.smcp" horiz-adv-x="543" 
d="M268 564q112 0 172.5 -46.5t60.5 -135.5h-164q0 66 -77 66q-31 0 -49 -12t-18 -33q3 -24 21.5 -34t86.5 -25q57 -14 90 -25.5t63.5 -31t44 -49t15.5 -72.5q0 -85 -65.5 -133.5t-178.5 -48.5q-117 0 -182.5 51t-65.5 143h167q0 -75 86 -75q35 0 55 14t20 37q0 24 -20 35
q-17 8 -84 26q-78 19 -118 36t-67 49q-29 34 -29 88q0 81 63 128.5t173 47.5zM337 -166l-71 -109h-63l46 109h-46v112h134v-112z" />
    <glyph glyph-name="germandbls.smcp" horiz-adv-x="704" 
d="M630 447l-110 -119q148 -46 148 -176q0 -80 -56.5 -124t-155.5 -44q-197 0 -197 176h144q0 -51 50 -51q49 0 49 46q0 69 -149 80v101l76 80q-28 19 -71 19q-129 0 -129 -137v-298h-165v302q0 129 76 195.5t221 66.5q83 0 153 -31t116 -86z" />
    <glyph glyph-name="t.smcp" horiz-adv-x="524" 
d="M515 408h-168v-408h-170v408h-168v140h506v-140z" />
    <glyph glyph-name="tbar.smcp" horiz-adv-x="524" 
d="M347 408v-110h93v-98h-93v-200h-170v200h-93v98h93v110h-168v140h506v-140h-168z" />
    <glyph glyph-name="tcaron.smcp" horiz-adv-x="524" 
d="M515 408h-168v-408h-170v408h-168v140h506v-140zM340 604h-156l-118 148h138l58 -76l58 76h138z" />
    <glyph glyph-name="uni0163.smcp" horiz-adv-x="524" 
d="M515 408h-168v-408h-170v408h-168v140h506v-140zM329 -166l-71 -109h-63l46 109h-46v112h134v-112z" />
    <glyph glyph-name="uni021B.smcp" horiz-adv-x="524" 
d="M515 408h-168v-408h-170v408h-168v140h506v-140zM329 -166l-71 -109h-63l46 109h-46v112h134v-112z" />
    <glyph glyph-name="u.smcp" horiz-adv-x="628" 
d="M566 548v-330q0 -112 -65.5 -173t-186.5 -61t-186.5 61t-65.5 173v330h170v-327q0 -91 82 -91t82 91v327h170z" />
    <glyph glyph-name="uacute.smcp" horiz-adv-x="628" 
d="M566 548v-330q0 -112 -65.5 -173t-186.5 -61t-186.5 61t-65.5 173v330h170v-327q0 -91 82 -91t82 91v327h170zM346 604h-128l78 148h191z" />
    <glyph glyph-name="ubreve.smcp" horiz-adv-x="628" 
d="M566 548v-330q0 -112 -65.5 -173t-186.5 -61t-186.5 61t-65.5 173v330h170v-327q0 -91 82 -91t82 91v327h170zM386 752h106q-4 -73 -50.5 -113.5t-127.5 -40.5t-127.5 40.5t-50.5 113.5h106q5 -58 72 -58t72 58z" />
    <glyph glyph-name="ucircumflex.smcp" horiz-adv-x="628" 
d="M566 548v-330q0 -112 -65.5 -173t-186.5 -61t-186.5 61t-65.5 173v330h170v-327q0 -91 82 -91t82 91v327h170zM372 604l-58 76l-58 -76h-138l118 148h156l118 -148h-138z" />
    <glyph glyph-name="udieresis.smcp" horiz-adv-x="628" 
d="M566 548v-330q0 -112 -65.5 -173t-186.5 -61t-186.5 61t-65.5 173v330h170v-327q0 -91 82 -91t82 91v327h170zM272 621h-143v131h143v-131zM498 621h-142v131h142v-131z" />
    <glyph glyph-name="ugrave.smcp" horiz-adv-x="628" 
d="M566 548v-330q0 -112 -65.5 -173t-186.5 -61t-186.5 61t-65.5 173v330h170v-327q0 -91 82 -91t82 91v327h170zM332 752l78 -148h-128l-141 148h191z" />
    <glyph glyph-name="uhungarumlaut.smcp" horiz-adv-x="628" 
d="M566 548v-330q0 -112 -65.5 -173t-186.5 -61t-186.5 61t-65.5 173v330h170v-327q0 -91 82 -91t82 91v327h170zM247 604h-123l98 148h166zM453 604h-124l99 148h166z" />
    <glyph glyph-name="umacron.smcp" horiz-adv-x="628" 
d="M566 548v-330q0 -112 -65.5 -173t-186.5 -61t-186.5 61t-65.5 173v330h170v-327q0 -91 82 -91t82 91v327h170zM493 629h-359v103h359v-103z" />
    <glyph glyph-name="uogonek.smcp" horiz-adv-x="629" 
d="M566 548v-327q0 -121 -85 -205q-56 -56 -56 -94q0 -31 34 -31q20 0 35 7v-82q-42 -15 -93 -15q-59 0 -90.5 23.5t-31.5 66.5q0 52 66 97v2q-12 -2 -30 -2q-121 0 -186.5 60.5t-65.5 172.5v327h169v-324q0 -44 21.5 -67.5t61.5 -23.5q82 0 82 91v324h169z" />
    <glyph glyph-name="uring.smcp" horiz-adv-x="628" 
d="M566 548v-330q0 -112 -65.5 -173t-186.5 -61t-186.5 61t-65.5 173v330h170v-327q0 -91 82 -91t82 91v327h170zM314 820q46 0 80 -34t34 -80q0 -47 -33.5 -80t-80.5 -33t-80.5 33t-33.5 80q0 46 34 80t80 34zM314 762q-23 0 -39.5 -16.5t-16.5 -39.5t16.5 -39.5
t39.5 -16.5t39.5 16.5t16.5 39.5t-16.5 39.5t-39.5 16.5z" />
    <glyph glyph-name="utilde.smcp" horiz-adv-x="628" 
d="M566 548v-330q0 -112 -65.5 -173t-186.5 -61t-186.5 61t-65.5 173v330h170v-327q0 -91 82 -91t82 91v327h170zM420 752h89q-4 -67 -36.5 -105t-88.5 -38q-35 0 -83 25q-31 18 -51 18q-38 0 -42 -43h-89q3 67 35.5 105t88.5 38q30 0 84 -25q32 -18 50 -18q37 0 43 43z" />
    <glyph glyph-name="v.smcp" horiz-adv-x="575" 
d="M404 0h-233l-167 548h179l56 -207q31 -108 48 -205h2q16 102 47 205l56 207h179z" />
    <glyph glyph-name="w.smcp" horiz-adv-x="868" 
d="M749 0h-233l-45 219q-21 105 -36 205h-2q-10 -81 -36 -205l-44 -219h-233l-112 548h165l35 -192q20 -104 33 -220h2q12 82 40 220l42 192h219l42 -192q18 -84 40 -220h2q11 97 33 220l35 192h165z" />
    <glyph glyph-name="wacute.smcp" horiz-adv-x="868" 
d="M749 0h-233l-45 219q-21 105 -36 205h-2q-10 -81 -36 -205l-44 -219h-233l-112 548h165l35 -192q20 -104 33 -220h2q12 82 40 220l42 192h219l42 -192q18 -84 40 -220h2q11 97 33 220l35 192h165zM467 604h-128l78 148h191z" />
    <glyph glyph-name="wcircumflex.smcp" horiz-adv-x="868" 
d="M749 0h-233l-45 219q-21 105 -36 205h-2q-10 -81 -36 -205l-44 -219h-233l-112 548h165l35 -192q20 -104 33 -220h2q12 82 40 220l42 192h219l42 -192q18 -84 40 -220h2q11 97 33 220l35 192h165zM492 604l-58 76l-58 -76h-138l118 148h156l118 -148h-138z" />
    <glyph glyph-name="wdieresis.smcp" horiz-adv-x="868" 
d="M749 0h-233l-45 219q-21 105 -36 205h-2q-10 -81 -36 -205l-44 -219h-233l-112 548h165l35 -192q20 -104 33 -220h2q12 82 40 220l42 192h219l42 -192q18 -84 40 -220h2q11 97 33 220l35 192h165zM393 621h-143v131h143v-131zM619 621h-142v131h142v-131z" />
    <glyph glyph-name="wgrave.smcp" horiz-adv-x="868" 
d="M749 0h-233l-45 219q-21 105 -36 205h-2q-10 -81 -36 -205l-44 -219h-233l-112 548h165l35 -192q20 -104 33 -220h2q12 82 40 220l42 192h219l42 -192q18 -84 40 -220h2q11 97 33 220l35 192h165zM452 752l78 -148h-128l-141 148h191z" />
    <glyph glyph-name="x.smcp" horiz-adv-x="568" 
d="M390 284l176 -284h-191l-90 178h-2l-91 -178h-191l176 284l-165 264h187l84 -171h2l83 171h188z" />
    <glyph glyph-name="y.smcp" horiz-adv-x="558" 
d="M363 196v-196h-169v196l-193 352h186l41 -96q29 -61 50 -133h2q18 66 49 133l42 96h185z" />
    <glyph glyph-name="yacute.smcp" horiz-adv-x="558" 
d="M363 196v-196h-169v196l-193 352h186l41 -96q29 -61 50 -133h2q18 66 49 133l42 96h185zM311 604h-128l78 148h191z" />
    <glyph glyph-name="ycircumflex.smcp" horiz-adv-x="558" 
d="M363 196v-196h-169v196l-193 352h186l41 -96q29 -61 50 -133h2q18 66 49 133l42 96h185zM336 604l-58 76l-58 -76h-138l118 148h156l118 -148h-138z" />
    <glyph glyph-name="ydieresis.smcp" horiz-adv-x="558" 
d="M363 196v-196h-169v196l-193 352h186l41 -96q29 -61 50 -133h2q18 66 49 133l42 96h185zM237 621h-143v131h143v-131zM463 621h-142v131h142v-131z" />
    <glyph glyph-name="ygrave.smcp" horiz-adv-x="558" 
d="M363 196v-196h-169v196l-193 352h186l41 -96q29 -61 50 -133h2q18 66 49 133l42 96h185zM296 752l78 -148h-128l-141 148h191z" />
    <glyph glyph-name="z.smcp" horiz-adv-x="494" 
d="M463 404l-245 -264v-2h257v-138h-457v144l245 264v2h-232v138h432v-144z" />
    <glyph glyph-name="zacute.smcp" horiz-adv-x="494" 
d="M463 404l-245 -264v-2h257v-138h-457v144l245 264v2h-232v138h432v-144zM280 604h-128l78 148h191z" />
    </font>
</defs>
</svg>
