<?xml version="1.0" standalone="no"?>
<!DOCTYPE svg PUBLIC "-//W3C//DTD SVG 1.1//EN" "http://www.w3.org/Graphics/SVG/1.1/DTD/svg11.dtd" >
<svg xmlns="http://www.w3.org/2000/svg" xmlns:xlink="http://www.w3.org/1999/xlink" version="1.1">
<metadata>
Created by FontForge 20190801 at Thu Jan 10 23:48:39 2019
 By www-data
Copyright (c) 2015 Monotype Imaging Inc.  All rights reserved.
</metadata>
<defs>
<font id="NeueHaasUnicaMedium" horiz-adv-x="588" >
  <font-face 
    font-family="NeueHaasUnicaMedium"
    font-weight="500"
    font-stretch="normal"
    units-per-em="1000"
    panose-1="2 11 6 4 3 2 6 2 2 3"
    ascent="750"
    descent="-250"
    x-height="508"
    cap-height="712"
    bbox="-1000 -275 1136 1105"
    underline-thickness="50"
    underline-position="-250"
    unicode-range="U+0020-FEFF"
  />
<missing-glyph horiz-adv-x="633" 
d="M151 777h331q61 0 96.5 -36t35.5 -97v-576q0 -61 -35.5 -97t-96.5 -36h-331q-61 0 -97 35.5t-36 97.5v576q0 62 36 97.5t97 35.5zM482 721h-331q-35 0 -55.5 -21t-20.5 -56v-576q0 -35 20.5 -56t55.5 -21h331q35 0 55.5 21t20.5 56v576q0 35 -20.5 56t-55.5 21zM361 167
v-102h-111v102h111zM316 647q81 0 128 -40.5t47 -108.5q0 -42 -15 -71t-61 -70q-41 -37 -53.5 -64t-12.5 -82h-87q-1 10 -1 29q0 57 14 88t58 74q33 32 42.5 50t9.5 44q0 30 -18 47t-51 17q-76 0 -79 -89h-104q2 86 49.5 131t133.5 45z" />
    <glyph glyph-name="f_f" unicode="ff" horiz-adv-x="615" 
d="M576 632q-37 0 -55 -19.5t-18 -63.5v-41h98v-87h-98v-421h-113v421h-179v-421h-113v421h-86v87h86v54q0 157 154 157q25 0 60 -7v-84q-14 4 -28 4q-37 0 -55 -19.5t-18 -63.5v-41h179v54q0 157 154 157q26 0 59 -7v-84q-12 4 -27 4z" />
    <glyph glyph-name="f_f_i" unicode="ffi" horiz-adv-x="875" 
d="M211 508h179v54q0 157 154 157q26 0 59 -7v-84q-12 4 -27 4q-37 0 -55 -19.5t-18 -63.5v-41h98v-87h-98v-421h-113v421h-179v-421h-113v421h-86v87h86v54q0 157 154 157q25 0 60 -7v-84q-14 4 -28 4q-37 0 -55 -19.5t-18 -63.5v-41zM688 0v508h114v-508h-114zM688 712
h114v-109h-114v109z" />
    <glyph glyph-name="f_f_l" unicode="ffl" horiz-adv-x="875" 
d="M211 508h179v54q0 157 154 157q26 0 59 -7v-84q-12 4 -27 4q-37 0 -55 -19.5t-18 -63.5v-41h98v-87h-98v-421h-113v421h-179v-421h-113v421h-86v87h86v54q0 157 154 157q25 0 60 -7v-84q-14 4 -28 4q-37 0 -55 -19.5t-18 -63.5v-41zM688 712h114v-712h-114v712z" />
    <glyph glyph-name="f_i" unicode="fi" horiz-adv-x="583" 
d="M12 508h86v54q0 157 154 157q25 0 60 -7v-84q-14 4 -28 4q-37 0 -55 -19.5t-18 -63.5v-41h98v-87h-98v-421h-113v421h-86v87zM396 0v508h114v-508h-114zM396 712h114v-109h-114v109z" />
    <glyph glyph-name="f_l" unicode="fl" horiz-adv-x="583" 
d="M12 508h86v54q0 157 154 157q25 0 60 -7v-84q-14 4 -28 4q-37 0 -55 -19.5t-18 -63.5v-41h98v-87h-98v-421h-113v421h-86v87zM396 712h114v-712h-114v712z" />
    <glyph glyph-name=".notdef" horiz-adv-x="633" 
d="M151 777h331q61 0 96.5 -36t35.5 -97v-576q0 -61 -35.5 -97t-96.5 -36h-331q-61 0 -97 35.5t-36 97.5v576q0 62 36 97.5t97 35.5zM482 721h-331q-35 0 -55.5 -21t-20.5 -56v-576q0 -35 20.5 -56t55.5 -21h331q35 0 55.5 21t20.5 56v576q0 35 -20.5 56t-55.5 21zM361 167
v-102h-111v102h111zM316 647q81 0 128 -40.5t47 -108.5q0 -42 -15 -71t-61 -70q-41 -37 -53.5 -64t-12.5 -82h-87q-1 10 -1 29q0 57 14 88t58 74q33 32 42.5 50t9.5 44q0 30 -18 47t-51 17q-76 0 -79 -89h-104q2 86 49.5 131t133.5 45z" />
    <glyph glyph-name=".null" horiz-adv-x="0" 
 />
    <glyph glyph-name="nonmarkingreturn" horiz-adv-x="333" 
 />
    <glyph glyph-name="space" unicode=" " horiz-adv-x="230" 
 />
    <glyph glyph-name="space" unicode="&#xa0;" horiz-adv-x="230" 
 />
    <glyph glyph-name="exclam" unicode="!" horiz-adv-x="300" 
d="M214 119v-119h-129v119h129zM220 712l-26 -525h-89l-26 525h141z" />
    <glyph glyph-name="quotedbl" unicode="&#x22;" horiz-adv-x="404" 
d="M173 712l-13 -268h-83l-13 268h109zM340 712l-13 -268h-83l-13 268h109z" />
    <glyph glyph-name="numbersign" unicode="#" horiz-adv-x="660" 
d="M612 411h-108l-23 -146h108l-13 -83h-108l-29 -182h-98l29 182h-128l-29 -182h-98l29 182h-109l13 83h109l23 146h-109l13 83h109l29 180h98l-29 -180h128l29 180h98l-29 -180h108zM383 265l23 146h-128l-23 -146h128z" />
    <glyph glyph-name="dollar" unicode="$" horiz-adv-x="581" 
d="M542 184q0 -83 -58 -136t-158 -61v-86h-72v85q-104 9 -159.5 68.5t-55.5 165.5h111q0 -124 104 -143v224q-36 10 -60 18.5t-54 25t-48 35.5t-30.5 49t-12.5 68q0 81 55 132t150 59v76h72v-77q198 -18 198 -221h-110q0 112 -88 131v-205q40 -11 64.5 -19t57 -25t50.5 -37
t31 -52.5t13 -74.5zM326 280v-204q103 14 103 103q0 41 -24.5 62.5t-78.5 38.5zM163 506q0 -39 21.5 -59.5t69.5 -35.5v188q-91 -13 -91 -93z" />
    <glyph glyph-name="percent" unicode="%" horiz-adv-x="886" 
d="M682 373q76 0 117.5 -50.5t41.5 -143.5t-41.5 -143.5t-117.5 -50.5t-117.5 50.5t-41.5 143.5t41.5 143.5t117.5 50.5zM682 302q-66 0 -66 -123t66 -123q67 0 67 123t-67 123zM204 689q76 0 117.5 -50.5t41.5 -143.5t-41.5 -143.5t-117.5 -50.5t-117.5 50.5t-41.5 143.5
t41.5 143.5t117.5 50.5zM204 618q-66 0 -66 -123t66 -123t66 123t-66 123zM669 704l-377 -734h-75l377 734h75z" />
    <glyph glyph-name="ampersand" unicode="&#x26;" horiz-adv-x="743" 
d="M743 0h-156l-67 68q-81 -83 -218 -83q-119 0 -186 56t-67 150q0 140 152 208q-44 47 -60.5 81t-16.5 82q0 74 52 119.5t138 45.5q85 0 136 -43.5t51 -116.5q0 -59 -30 -104t-100 -85l150 -153q38 70 38 175h114q-2 -151 -74 -253zM312 84q78 0 140 53l-188 191
q-52 -28 -73 -59t-21 -71q0 -50 38.5 -82t103.5 -32zM314 632q-36 0 -57 -20t-21 -56q0 -28 14 -52t54 -65q88 53 88 119q0 33 -21.5 53.5t-56.5 20.5z" />
    <glyph glyph-name="quotesingle" unicode="'" horiz-adv-x="237" 
d="M173 712l-13 -268h-83l-13 268h109z" />
    <glyph glyph-name="parenleft" unicode="(" horiz-adv-x="310" 
d="M184 741h96q-58 -112 -84.5 -217.5t-26.5 -226.5q0 -229 111 -444h-96q-71 104 -104.5 210t-33.5 234q0 244 138 444z" />
    <glyph glyph-name="parenright" unicode=")" horiz-adv-x="310" 
d="M30 741h96q138 -200 138 -444q0 -128 -33.5 -234t-104.5 -210h-96q111 212 111 444q0 122 -26 227t-85 217z" />
    <glyph glyph-name="asterisk" unicode="*" horiz-adv-x="417" 
d="M253 712l-16 -135l124 56l27 -86l-133 -25l91 -98l-72 -53l-66 118l-66 -118l-72 53l91 98l-132 25l27 86l124 -56l-16 135h89z" />
    <glyph glyph-name="plus" unicode="+" horiz-adv-x="566" 
d="M328 533v-171h171v-91h-171v-170h-90v170h-171v91h171v171h90z" />
    <glyph glyph-name="comma" unicode="," horiz-adv-x="242" 
d="M187 142v-142l-63 -158h-71l46 158h-44v142h132z" />
    <glyph glyph-name="hyphen" unicode="-" horiz-adv-x="310" 
d="M280 339v-94h-250v94h250z" />
    <glyph glyph-name="period" unicode="." horiz-adv-x="242" 
d="M187 142v-142h-132v142h132z" />
    <glyph glyph-name="slash" unicode="/" horiz-adv-x="473" 
d="M422 745l-298 -834h-94l298 834h94z" />
    <glyph glyph-name="zero" unicode="0" horiz-adv-x="581" 
d="M291 689q124 0 190 -91t66 -261t-66 -261t-190 -91t-190.5 91t-66.5 261t66.5 261t190.5 91zM291 588q-65 0 -99.5 -64.5t-34.5 -186.5t34.5 -187.5t99.5 -65.5q64 0 98.5 65.5t34.5 187.5t-34.5 186.5t-98.5 64.5z" />
    <glyph glyph-name="one" unicode="1" horiz-adv-x="581" 
d="M375 674v-674h-118v474h-157v86q82 0 121.5 26.5t48.5 87.5h105z" />
    <glyph glyph-name="two" unicode="2" horiz-adv-x="581" 
d="M290 689q103 0 164.5 -52t61.5 -138q0 -44 -12 -78.5t-38.5 -62.5t-54.5 -48t-73 -46q-93 -55 -123.5 -89t-32.5 -77h350v-98h-486q-1 8 -1 21q0 103 39.5 168t156.5 133q84 49 118 83.5t34 88.5q0 43 -27.5 69t-75.5 26q-112 0 -117 -119h-119q3 105 65.5 162t170.5 57z
" />
    <glyph glyph-name="three" unicode="3" horiz-adv-x="581" 
d="M289 689q106 0 168 -51t62 -136q0 -112 -117 -154v-2q66 -22 97 -62t31 -105q0 -88 -66 -141t-174 -53q-118 0 -182.5 59t-64.5 168h120q0 -128 127 -128q54 0 87 27.5t33 72.5q0 106 -148 106h-24v97h24q64 0 101.5 28.5t37.5 75.5q0 44 -32 71.5t-84 27.5
q-56 0 -86 -30.5t-30 -91.5h-119q0 104 63.5 162.5t175.5 58.5z" />
    <glyph glyph-name="four" unicode="4" horiz-adv-x="581" 
d="M559 257v-95h-103v-162h-118v162h-321v102l281 410h158v-417h103zM199 359l-71 -102h213v87q0 105 5 237h-2q-49 -80 -145 -222z" />
    <glyph glyph-name="five" unicode="5" horiz-adv-x="581" 
d="M497 674v-98h-307l-18 -183h2q48 53 134 53q100 0 161 -61.5t61 -161.5q0 -108 -68 -173t-180 -65q-105 0 -167.5 53t-62.5 144h119q1 -46 32.5 -72t78.5 -26q59 0 92 35t33 99q0 63 -32.5 97.5t-88.5 34.5q-91 0 -112 -83l-117 8l38 399h402z" />
    <glyph glyph-name="six" unicode="6" horiz-adv-x="581" 
d="M312 689q95 0 152 -51.5t64 -142.5h-120q-14 95 -101 95q-66 0 -105.5 -56.5t-42.5 -171.5h2q61 78 160 78q97 0 157 -61.5t60 -159.5q0 -105 -67 -169.5t-175 -64.5q-121 0 -185 83t-64 246q0 181 69.5 278t195.5 97zM298 347q-54 0 -86.5 -36.5t-32.5 -96.5t31.5 -95
t85.5 -35t86.5 35.5t32.5 96.5q0 59 -32 95t-85 36z" />
    <glyph glyph-name="seven" unicode="7" horiz-adv-x="581" 
d="M43 674h485v-103q-168 -239 -228 -571h-130q39 181 104 329t137 244h-368v101z" />
    <glyph glyph-name="eight" unicode="8" horiz-adv-x="581" 
d="M291 689q102 0 167 -51t65 -134q0 -55 -32 -95t-88 -58v-2q63 -18 98.5 -61.5t35.5 -105.5q0 -90 -67.5 -143.5t-178.5 -53.5q-112 0 -179.5 53.5t-67.5 143.5q0 62 35.5 105.5t98.5 61.5v2q-56 18 -88 58t-32 95q0 83 65 134t168 51zM291 299q-57 0 -92 -29.5t-35 -77.5
q0 -49 34 -78t93 -29q58 0 92.5 29t34.5 78q0 47 -35 77t-92 30zM291 591q-53 0 -85.5 -26t-32.5 -69q0 -47 31.5 -74t86.5 -27q54 0 85.5 27t31.5 74q0 43 -32 69t-85 26z" />
    <glyph glyph-name="nine" unicode="9" horiz-adv-x="581" 
d="M255 -15q-94 0 -151.5 51.5t-64.5 142.5h120q14 -95 102 -95q66 0 105.5 56.5t42.5 171.5h-2q-61 -78 -160 -78q-97 0 -157 61.5t-60 159.5q0 105 67 169.5t175 64.5q120 0 184 -83t64 -246q0 -181 -69 -278t-196 -97zM270 327q53 0 86 37t33 96t-31.5 94.5t-85.5 35.5
q-55 0 -87 -35.5t-32 -96.5q0 -60 31.5 -95.5t85.5 -35.5z" />
    <glyph glyph-name="colon" unicode=":" horiz-adv-x="242" 
d="M187 142v-142h-132v142h132zM187 508v-142h-132v142h132z" />
    <glyph glyph-name="semicolon" unicode=";" horiz-adv-x="242" 
d="M187 508v-142h-132v142h132zM187 142v-142l-63 -158h-71l46 158h-44v142h132z" />
    <glyph glyph-name="less" unicode="&#x3c;" horiz-adv-x="566" 
d="M499 550v-100l-326 -132v-2l326 -132v-100l-432 180v106z" />
    <glyph glyph-name="equal" unicode="=" horiz-adv-x="566" 
d="M499 451v-91h-432v91h432zM499 273v-91h-432v91h432z" />
    <glyph glyph-name="greater" unicode="&#x3e;" horiz-adv-x="566" 
d="M67 550l432 -180v-106l-432 -180v100l326 132v2l-326 132v100z" />
    <glyph glyph-name="question" unicode="?" horiz-adv-x="532" 
d="M316 119v-119h-129v119h129zM269 726q103 0 164 -49.5t61 -133.5q0 -52 -21 -88t-83 -89q-56 -47 -72 -82t-16 -108h-99q-1 11 -1 31q0 75 19 115.5t80 94.5q46 42 59.5 65.5t13.5 57.5q0 39 -28 62.5t-77 23.5q-113 0 -119 -115h-118q4 106 65 160.5t172 54.5z" />
    <glyph glyph-name="at" unicode="@" horiz-adv-x="870" 
d="M446 699q173 0 277 -101.5t104 -269.5q0 -124 -56.5 -190t-140.5 -66q-99 0 -117 86h-2q-42 -86 -134 -86q-70 0 -109 50.5t-40 144.5q1 111 54.5 181t136.5 70q81 0 111 -73h2q9 51 12 63h93q-41 -198 -41 -290q0 -67 50 -67q45 0 75 45t30 132q0 134 -83 215t-222 81
q-153 0 -240 -98t-87 -249q0 -147 84.5 -230.5t227.5 -83.5q132 0 219 54l34 -66q-108 -63 -253 -63q-178 0 -283 104t-105 285q0 179 109.5 300.5t293.5 121.5zM435 431q-46 0 -76 -43.5t-30 -117.5q0 -54 20 -82t56 -28q44 0 73.5 44t29.5 128q0 47 -19 73t-54 26z" />
    <glyph glyph-name="A" unicode="A" horiz-adv-x="687" 
d="M557 0l-66 193h-295l-66 -193h-126l259 712h161l259 -712h-126zM232 297h223l-19 56q-60 178 -92 283h-2q-53 -174 -91 -283z" />
    <glyph glyph-name="B" unicode="B" horiz-adv-x="638" 
d="M88 0v712h245q124 0 186.5 -49t62.5 -133q0 -121 -121 -166v-2q137 -32 137 -167q0 -90 -65 -142.5t-180 -52.5h-265zM327 314h-119v-214h127q73 0 107 26t34 80t-35.5 81t-113.5 27zM332 613h-124v-203h118q140 0 140 102q0 101 -134 101z" />
    <glyph glyph-name="B" unicode="&#xe000;" horiz-adv-x="638" 
d="M88 0v712h245q124 0 186.5 -49t62.5 -133q0 -121 -121 -166v-2q137 -32 137 -167q0 -90 -65 -142.5t-180 -52.5h-265zM327 314h-119v-214h127q73 0 107 26t34 80t-35.5 81t-113.5 27zM332 613h-124v-203h118q140 0 140 102q0 101 -134 101z" />
    <glyph glyph-name="C" unicode="C" horiz-adv-x="695" 
d="M359 727q128 0 206 -72t83 -187h-121q-8 71 -52.5 111.5t-115.5 40.5q-91 0 -143 -70.5t-52 -193.5t51.5 -193.5t140.5 -70.5q71 0 116.5 41t55.5 114h123q-11 -123 -89 -192.5t-206 -69.5q-147 0 -231.5 99t-84.5 272t85.5 272t233.5 99z" />
    <glyph glyph-name="D" unicode="D" horiz-adv-x="729" 
d="M88 0v712h228q179 0 276 -92.5t97 -263.5t-97 -263.5t-276 -92.5h-228zM314 608h-107v-504h107q251 0 251 252t-251 252z" />
    <glyph glyph-name="E" unicode="E" horiz-adv-x="625" 
d="M564 712v-104h-356v-193h334v-103h-334v-208h366v-104h-486v712h476z" />
    <glyph glyph-name="E" unicode="&#xe001;" horiz-adv-x="625" 
d="M564 712v-104h-356v-193h334v-103h-334v-208h366v-104h-486v712h476z" />
    <glyph glyph-name="F" unicode="F" horiz-adv-x="579" 
d="M549 712v-104h-341v-219h317v-103h-317v-286h-120v712h461z" />
    <glyph glyph-name="G" unicode="G" horiz-adv-x="737" 
d="M370 727q126 0 202.5 -63t87.5 -170h-128q-11 61 -52.5 93.5t-109.5 32.5q-95 0 -150.5 -71.5t-55.5 -195.5q0 -125 54 -197t147 -72q84 0 132 50t49 151h-182v100h294v-385h-103v88h-2q-29 -47 -85.5 -74t-129.5 -27q-137 0 -217.5 98t-80.5 268q0 174 88.5 274
t241.5 100z" />
    <glyph glyph-name="H" unicode="H" horiz-adv-x="744" 
d="M655 712v-712h-119v318h-328v-318h-120v712h120v-290h328v290h119z" />
    <glyph glyph-name="I" unicode="I" horiz-adv-x="296" 
d="M208 712v-712h-120v712h120z" />
    <glyph glyph-name="J" unicode="J" horiz-adv-x="374" 
d="M171 712h120v-496q0 -113 -53.5 -167.5t-165.5 -54.5q-31 0 -57 7v103q21 -4 45 -4q58 0 84.5 30t26.5 107v475z" />
    <glyph glyph-name="K" unicode="K" horiz-adv-x="644" 
d="M614 712l-291 -339l317 -373h-155l-275 343h-2v-343h-120v712h120v-317h2l260 317h144z" />
    <glyph glyph-name="L" unicode="L" horiz-adv-x="568" 
d="M208 712v-608h350v-104h-470v712h120z" />
    <glyph glyph-name="M" unicode="M" horiz-adv-x="959" 
d="M871 712v-712h-116v358q0 150 4 270h-2q-35 -117 -86 -268l-123 -360h-137l-123 360q-51 151 -86 268h-2q4 -120 4 -270v-358h-116v712h193l115 -339q47 -137 82 -268h2q39 139 83 268l115 339h193z" />
    <glyph glyph-name="N" unicode="N" horiz-adv-x="766" 
d="M677 712v-712h-172l-154 298q-81 158 -151 306h-2q6 -162 6 -324v-280h-116v712h173l153 -298q81 -158 151 -306h2q-5 180 -5 324v280h115z" />
    <glyph glyph-name="O" unicode="O" horiz-adv-x="740" 
d="M370 727q153 0 241.5 -99.5t88.5 -271.5t-88.5 -271.5t-241.5 -99.5t-241.5 99.5t-88.5 271.5t88.5 271.5t241.5 99.5zM370 620q-95 0 -150.5 -71t-55.5 -193t55.5 -193t150.5 -71t150.5 71t55.5 193t-55.5 193t-150.5 71z" />
    <glyph glyph-name="P" unicode="P" horiz-adv-x="626" 
d="M88 0v712h257q123 0 189 -60t66 -162q0 -103 -66 -163t-189 -60h-137v-267h-120zM331 611h-123v-243h123q146 0 146 122q0 121 -146 121z" />
    <glyph glyph-name="Q" unicode="Q" horiz-adv-x="740" 
d="M700 356q0 -170 -87 -269l80 -89l-67 -63l-84 92q-75 -42 -171 -42q-153 0 -242 99.5t-89 271.5t89 271.5t242 99.5q152 0 240.5 -99.5t88.5 -271.5zM373 87q52 0 94 22l-97 107l69 64l96 -107q45 70 45 180q0 123 -55.5 195t-151.5 72q-97 0 -153 -72t-56 -195
t56 -194.5t153 -71.5z" />
    <glyph glyph-name="R" unicode="R" horiz-adv-x="653" 
d="M88 0v712h245q254 0 254 -197q0 -67 -35.5 -114t-96.5 -62v-2q38 -13 60 -41t46 -95l73 -201h-131l-60 179q-21 61 -49.5 84t-82.5 23h-103v-286h-120zM320 613h-112v-229h119q72 0 106 31.5t33 87.5q0 110 -146 110z" />
    <glyph glyph-name="S" unicode="S" horiz-adv-x="620" 
d="M295 727q129 0 195.5 -59.5t66.5 -174.5h-121q0 67 -37 101.5t-106 34.5q-58 0 -91.5 -25.5t-33.5 -69.5q0 -46 35 -68t128 -45q48 -12 78 -21t65.5 -26.5t55.5 -38.5t33.5 -54.5t13.5 -77.5q0 -99 -73 -158.5t-193 -59.5q-131 0 -204 64.5t-73 185.5h123
q0 -151 155 -151q66 0 103.5 29t37.5 79t-34 71t-127 44q-50 13 -78.5 21.5t-65.5 26t-56 38t-33 54t-14 76.5q0 91 68.5 147.5t181.5 56.5z" />
    <glyph glyph-name="S" unicode="&#xe002;" horiz-adv-x="620" 
d="M295 727q129 0 195.5 -59.5t66.5 -174.5h-121q0 67 -37 101.5t-106 34.5q-58 0 -91.5 -25.5t-33.5 -69.5q0 -46 35 -68t128 -45q48 -12 78 -21t65.5 -26.5t55.5 -38.5t33.5 -54.5t13.5 -77.5q0 -99 -73 -158.5t-193 -59.5q-131 0 -204 64.5t-73 185.5h123
q0 -151 155 -151q66 0 103.5 29t37.5 79t-34 71t-127 44q-50 13 -78.5 21.5t-65.5 26t-56 38t-33 54t-14 76.5q0 91 68.5 147.5t181.5 56.5z" />
    <glyph glyph-name="T" unicode="T" horiz-adv-x="607" 
d="M597 712v-104h-234v-608h-119v608h-234v104h587z" />
    <glyph glyph-name="U" unicode="U" horiz-adv-x="712" 
d="M510 712h119v-443q0 -138 -70.5 -211t-202.5 -73t-203 73t-71 211v443h120v-439q0 -89 40 -135t114 -46t114 46t40 135v439z" />
    <glyph glyph-name="V" unicode="V" horiz-adv-x="631" 
d="M625 712l-233 -712h-152l-234 712h123l97 -297q43 -128 89 -298h2q36 137 88 298l97 297h123z" />
    <glyph glyph-name="W" unicode="W" horiz-adv-x="936" 
d="M926 712l-157 -712h-161l-71 296q-40 168 -68 313h-2q-28 -145 -68 -313l-71 -296h-161l-157 712h118l58 -274q39 -180 63 -321h2q37 176 72 322l66 273h158l66 -273q35 -146 72 -322h2q21 123 62 321l59 274h118z" />
    <glyph glyph-name="X" unicode="X" horiz-adv-x="626" 
d="M608 712l-222 -348l234 -364h-140l-166 272h-2l-166 -272h-141l235 364l-223 348h139l156 -261h2l156 261h138z" />
    <glyph glyph-name="Y" unicode="Y" horiz-adv-x="626" 
d="M622 712l-249 -426v-286h-120v286l-250 426h136l78 -141q50 -90 95 -184h2q48 100 96 184l77 141h135z" />
    <glyph glyph-name="Z" unicode="Z" horiz-adv-x="574" 
d="M537 712v-109l-376 -499v-2h394v-102h-536v109l376 499v2h-362v102h504z" />
    <glyph glyph-name="bracketleft" unicode="[" horiz-adv-x="313" 
d="M296 741v-70h-115v-750h115v-70h-223v890h223z" />
    <glyph glyph-name="backslash" unicode="\" horiz-adv-x="473" 
d="M51 745h94l298 -834h-94z" />
    <glyph glyph-name="bracketright" unicode="]" horiz-adv-x="313" 
d="M17 741h223v-890h-223v70h115v750h-115v70z" />
    <glyph glyph-name="asciicircum" unicode="^" horiz-adv-x="473" 
d="M297 712l166 -341h-106l-120 251h-2l-120 -251h-105l166 341h121z" />
    <glyph glyph-name="underscore" unicode="_" horiz-adv-x="500" 
d="M500 -50v-63h-500v63h500z" />
    <glyph glyph-name="grave" unicode="`" horiz-adv-x="325" 
d="M50 712h143l82 -144h-93z" />
    <glyph glyph-name="a" unicode="a" horiz-adv-x="539" 
d="M263 523q102 0 155.5 -50t53.5 -149v-190q0 -82 13 -134h-103q-7 31 -7 71h-2q-56 -82 -171 -82q-78 0 -125 42.5t-47 108.5q0 65 44.5 104t150.5 56q64 11 137 15v20q0 105 -99 105q-46 0 -72 -24t-28 -65h-112q4 76 58.5 124t153.5 48zM362 216v25q-65 -4 -117 -13
q-55 -9 -77.5 -27t-22.5 -53q0 -34 23.5 -54.5t66.5 -20.5q58 0 92 34q20 21 27.5 44.5t7.5 64.5z" />
    <glyph glyph-name="b" unicode="b" horiz-adv-x="587" 
d="M187 712v-270h2q22 37 61.5 58t87.5 21q97 0 154 -72.5t57 -194.5q0 -121 -57.5 -193.5t-154.5 -72.5q-48 0 -88.5 21.5t-62.5 60.5h-2v-70h-111v712h114zM304 432q-56 0 -89.5 -47.5t-33.5 -130.5q0 -82 33.5 -130t89.5 -48q58 0 92 48.5t34 129.5t-34 129.5t-92 48.5z
" />
    <glyph glyph-name="b" unicode="&#xe003;" horiz-adv-x="587" 
d="M187 712v-270h2q22 37 61.5 58t87.5 21q97 0 154 -72.5t57 -194.5q0 -121 -57.5 -193.5t-154.5 -72.5q-48 0 -88.5 21.5t-62.5 60.5h-2v-70h-111v712h114zM304 432q-56 0 -89.5 -47.5t-33.5 -130.5q0 -82 33.5 -130t89.5 -48q58 0 92 48.5t34 129.5t-34 129.5t-92 48.5z
" />
    <glyph glyph-name="c" unicode="c" horiz-adv-x="548" 
d="M285 523q96 0 158.5 -55.5t70.5 -143.5h-119q-4 50 -34 79.5t-76 29.5q-60 0 -93.5 -47.5t-33.5 -131.5t33.5 -131.5t93.5 -47.5q46 0 75.5 33t33.5 85h120q-8 -93 -70 -150.5t-159 -57.5q-113 0 -180 73t-67 196t67 196t180 73z" />
    <glyph glyph-name="d" unicode="d" horiz-adv-x="587" 
d="M514 712v-712h-111v70h-2q-22 -39 -62.5 -60.5t-88.5 -21.5q-97 0 -154.5 72.5t-57.5 193.5q0 122 57 194.5t154 72.5q48 0 87.5 -21t61.5 -58h2v270h114zM283 432q-58 0 -92 -48.5t-34 -129.5t34 -129.5t92 -48.5q56 0 89.5 48t33.5 130q0 83 -33.5 130.5t-89.5 47.5z
" />
    <glyph glyph-name="e" unicode="e" horiz-adv-x="562" 
d="M284 69q48 0 78.5 23t38.5 61h117q-15 -72 -77 -120t-157 -48q-115 0 -180.5 75t-65.5 200q0 115 65.5 189t178.5 74q86 0 146.5 -46.5t81.5 -126.5q14 -45 14 -119h-373q3 -82 39.5 -122t93.5 -40zM282 439q-53 0 -87.5 -34t-41.5 -99h257q-6 65 -40.5 99t-87.5 34z" />
    <glyph glyph-name="f" unicode="f" horiz-adv-x="323" 
d="M284 632q-37 0 -55 -19.5t-18 -63.5v-41h98v-87h-98v-421h-113v421h-86v87h86v54q0 157 154 157q25 0 60 -7v-84q-14 4 -28 4z" />
    <glyph glyph-name="g" unicode="g" horiz-adv-x="582" 
d="M251 522q92 0 148 -85h2v71h108v-476q0 -112 -60.5 -168.5t-170.5 -56.5q-101 0 -157.5 42.5t-60.5 118.5h114q2 -37 30 -57t76 -20q59 0 88.5 34t29.5 111v50h-2q-55 -80 -147 -80q-97 0 -154 70t-57 188t58 188t155 70zM277 427q-55 0 -87.5 -44t-32.5 -119
t32.5 -119.5t87.5 -44.5q58 0 91.5 44.5t33.5 119.5t-33.5 119t-91.5 44z" />
    <glyph glyph-name="h" unicode="h" 
d="M187 712v-264h2q53 72 146 72q88 0 136.5 -53t48.5 -156v-311h-114v301q0 127 -103 127q-51 0 -83.5 -38t-32.5 -108v-282h-114v712h114z" />
    <glyph glyph-name="i" unicode="i" horiz-adv-x="260" 
d="M187 508v-508h-114v508h114zM187 712v-109h-114v109h114z" />
    <glyph glyph-name="j" unicode="j" horiz-adv-x="264" 
d="M77 508h114v-528q0 -88 -42.5 -129t-117.5 -41q-27 0 -58 7v85q13 -3 28 -3q39 0 57.5 21.5t18.5 74.5v513zM191 712v-109h-114v109h114z" />
    <glyph glyph-name="k" unicode="k" horiz-adv-x="522" 
d="M297 276l234 -276h-144l-198 246h-2v-246h-114v712h114v-412h2l185 208h133z" />
    <glyph glyph-name="l" unicode="l" horiz-adv-x="260" 
d="M187 712v-712h-114v712h114z" />
    <glyph glyph-name="m" unicode="m" horiz-adv-x="880" 
d="M638 520q82 0 128 -53t46 -154v-313h-114v302q0 126 -92 126q-50 0 -78.5 -40.5t-28.5 -113.5v-274h-114v314q0 54 -23.5 84t-67.5 30q-51 0 -79 -41t-28 -115v-272h-114v508h109v-61h2q54 73 141 73q110 0 150 -92q59 92 163 92z" />
    <glyph glyph-name="n" unicode="n" 
d="M335 520q88 0 136.5 -53t48.5 -156v-311h-114v301q0 127 -103 127q-51 0 -83.5 -38t-32.5 -108v-282h-114v508h108v-66h2q54 78 152 78z" />
    <glyph glyph-name="o" unicode="o" horiz-adv-x="577" 
d="M289 523q115 0 182.5 -72.5t67.5 -196.5t-67.5 -196.5t-182.5 -72.5t-183 72.5t-68 196.5t68 196.5t183 72.5zM289 433q-61 0 -96 -48t-35 -131t35 -131t96 -48t96 48t35 131t-35 131t-96 48z" />
    <glyph glyph-name="p" unicode="p" horiz-adv-x="587" 
d="M337 521q97 0 154.5 -72.5t57.5 -194.5t-57 -194t-154 -72q-48 0 -87.5 20.5t-61.5 57.5h-2v-251h-114v693h111v-70h2q22 39 62.5 61t88.5 22zM304 432q-56 0 -89.5 -47.5t-33.5 -130.5q0 -82 33.5 -130t89.5 -48q58 0 92 48.5t34 129.5t-34 129.5t-92 48.5z" />
    <glyph glyph-name="q" unicode="q" horiz-adv-x="587" 
d="M250 521q48 0 88.5 -22t62.5 -61h2v70h111v-693h-114v251h-2q-22 -37 -61.5 -57.5t-87.5 -20.5q-97 0 -154 72t-57 194t57.5 194.5t154.5 72.5zM283 432q-58 0 -92 -48.5t-34 -129.5t34 -129.5t92 -48.5q56 0 89.5 48t33.5 130q0 83 -33.5 130.5t-89.5 47.5z" />
    <glyph glyph-name="r" unicode="r" horiz-adv-x="377" 
d="M326 515q20 0 42 -5v-101q-19 4 -40 4q-68 0 -104.5 -42.5t-36.5 -121.5v-249h-114v508h106v-75h2q51 82 145 82z" />
    <glyph glyph-name="s" unicode="s" horiz-adv-x="509" 
d="M248 523q98 0 151.5 -44.5t54.5 -128.5h-110q0 90 -97 90q-40 0 -62 -16t-22 -44q0 -30 23 -43t92 -30q28 -7 35.5 -9t33 -9.5t34 -13t27.5 -15.5t26.5 -20.5t18 -25.5t14 -33.5t3.5 -40.5q0 -70 -58 -112.5t-155 -42.5q-104 0 -161.5 46.5t-58.5 135.5h116
q0 -47 27.5 -72t78.5 -25q43 0 67.5 17t24.5 46q0 36 -26 50.5t-102 33.5q-28 7 -37.5 9.5t-33.5 10t-34 14t-26.5 18.5t-23.5 25.5t-13 33t-6 43.5q0 68 55 110t144 42z" />
    <glyph glyph-name="s" unicode="&#xe004;" horiz-adv-x="509" 
d="M248 523q98 0 151.5 -44.5t54.5 -128.5h-110q0 90 -97 90q-40 0 -62 -16t-22 -44q0 -30 23 -43t92 -30q28 -7 35.5 -9t33 -9.5t34 -13t27.5 -15.5t26.5 -20.5t18 -25.5t14 -33.5t3.5 -40.5q0 -70 -58 -112.5t-155 -42.5q-104 0 -161.5 46.5t-58.5 135.5h116
q0 -47 27.5 -72t78.5 -25q43 0 67.5 17t24.5 46q0 36 -26 50.5t-102 33.5q-28 7 -37.5 9.5t-33.5 10t-34 14t-26.5 18.5t-23.5 25.5t-13 33t-6 43.5q0 68 55 110t144 42z" />
    <glyph glyph-name="t" unicode="t" horiz-adv-x="339" 
d="M277 87q22 0 35 5v-89q-31 -9 -64 -9q-81 0 -117.5 36.5t-36.5 119.5v271h-85v87h85v127h114v-127h99v-87h-99v-254q0 -43 16 -61.5t53 -18.5z" />
    <glyph glyph-name="u" unicode="u" 
d="M253 -12q-88 0 -136.5 53t-48.5 156v311h114v-301q0 -127 103 -127q51 0 83.5 38t32.5 108v282h114v-508h-108v66h-2q-54 -78 -152 -78z" />
    <glyph glyph-name="v" unicode="v" horiz-adv-x="490" 
d="M496 508l-177 -508h-148l-177 508h119l66 -207q33 -101 65 -222h2q32 121 65 222l66 207h119z" />
    <glyph glyph-name="w" unicode="w" horiz-adv-x="790" 
d="M784 508l-124 -508h-163l-52 210q-24 97 -49 219h-2q-25 -122 -49 -219l-52 -210h-163l-124 508h114l46 -204q28 -120 46 -225h2q19 93 50 221l51 208h160l51 -208q31 -128 50 -221h2q18 105 46 225l46 204h114z" />
    <glyph glyph-name="x" unicode="x" horiz-adv-x="494" 
d="M485 508l-168 -245l181 -263h-134l-116 188h-2l-116 -188h-134l181 263l-168 245h133l104 -165h2l104 165h133z" />
    <glyph glyph-name="y" unicode="y" horiz-adv-x="488" 
d="M376 508h118l-196 -530q-36 -96 -84.5 -132t-137.5 -36q-31 0 -57 7v93q23 -7 48 -7q46 0 70.5 20t42.5 73l-186 512h122l127 -378h2z" />
    <glyph glyph-name="y" unicode="&#xe006;" horiz-adv-x="488" 
d="M376 508h118l-196 -530q-36 -96 -84.5 -132t-137.5 -36q-31 0 -57 7v93q23 -7 48 -7q46 0 70.5 20t42.5 73l-186 512h122l127 -378h2z" />
    <glyph glyph-name="z" unicode="z" horiz-adv-x="476" 
d="M439 508v-95l-274 -320v-2h284v-91h-422v95l274 320v2h-264v91h402z" />
    <glyph glyph-name="braceleft" unicode="{" horiz-adv-x="320" 
d="M272 741h23v-68q-46 -2 -65 -23t-19 -72v-154q0 -54 -20.5 -84t-68.5 -43v-3q48 -14 68.5 -43.5t20.5 -84.5v-153q0 -52 19 -73t65 -22v-69h-23q-90 0 -128 40t-38 130v145q0 44 -14.5 64t-51.5 30v74q38 11 52 31.5t14 63.5v145q0 90 38 129.5t128 39.5z" />
    <glyph glyph-name="bar" unicode="|" horiz-adv-x="283" 
d="M193 732v-937h-103v937h103z" />
    <glyph glyph-name="braceright" unicode="}" horiz-adv-x="320" 
d="M24 673v68h24q90 0 127.5 -39.5t37.5 -129.5v-145q0 -43 14.5 -63.5t52.5 -31.5v-74q-38 -10 -52.5 -30.5t-14.5 -63.5v-145q0 -90 -37.5 -130t-127.5 -40h-24v69q46 1 65 22t19 73v153q0 54 21 84t68 44v3q-47 14 -68 43.5t-21 83.5v154q0 51 -19 72t-65 23z" />
    <glyph glyph-name="asciitilde" unicode="~" horiz-adv-x="589" 
d="M181 414q35 0 69.5 -16t56.5 -36t50 -36t52 -16q35 0 56.5 26t21.5 69h77q0 -83 -43.5 -134.5t-112.5 -51.5q-45 0 -86.5 26t-77 52t-65.5 26q-35 0 -56.5 -25.5t-21.5 -68.5h-76q0 83 43.5 134t112.5 51z" />
    <glyph glyph-name="exclamdown" unicode="&#xa1;" horiz-adv-x="300" 
d="M79 -204l26 525h89l26 -525h-141zM85 389v119h129v-119h-129z" />
    <glyph glyph-name="cent" unicode="&#xa2;" horiz-adv-x="581" 
d="M334 507v-347q32 10 52 40t23 72h120q-8 -85 -60 -140.5t-135 -65.5v-91h-72v91q-97 12 -153 83t-56 184q0 112 56 183t153 84v89h72v-89q82 -10 134.5 -64t60.5 -134h-119q-8 83 -76 105zM172 333q0 -69 23.5 -114t66.5 -59v346q-43 -14 -66.5 -59t-23.5 -114z" />
    <glyph glyph-name="sterling" unicode="&#xa3;" horiz-adv-x="581" 
d="M179 98v-2h363v-96h-518v97q47 0 70 31t23 102v55h-93v97h93v78q0 114 56.5 171.5t164.5 57.5q98 0 154 -56.5t56 -154.5h-115q0 54 -25 82.5t-70 28.5q-102 0 -102 -129v-78h124v-97h-124v-54q0 -54 -13 -83.5t-44 -49.5z" />
    <glyph glyph-name="currency" unicode="&#xa4;" horiz-adv-x="581" 
d="M507 291q0 -70 -33 -123l74 -78l-73 -68l-73 79q-46 -27 -111 -27q-63 0 -112 26l-73 -78l-72 68l73 78q-33 53 -33 123t33 123l-73 78l72 68l73 -78q49 26 112 26q65 0 111 -27l73 79l73 -68l-74 -78q33 -53 33 -123zM291 164q55 0 87.5 35t32.5 92t-32.5 92t-87.5 35
t-88 -35t-33 -92t33 -92t88 -35z" />
    <glyph glyph-name="yen" unicode="&#xa5;" horiz-adv-x="581" 
d="M570 674l-182 -320h129v-65h-166v-48h166v-64h-166v-177h-121v177h-166v64h166v48h-166v65h129l-182 320h134l53 -99q50 -96 92 -185h2q37 83 91 185l53 99h134z" />
    <glyph glyph-name="brokenbar" unicode="&#xa6;" horiz-adv-x="283" 
d="M193 732v-350h-103v350h103zM193 145v-350h-103v350h103z" />
    <glyph glyph-name="section" unicode="&#xa7;" horiz-adv-x="612" 
d="M303 727q196 0 205 -179h-115q-3 85 -90 85q-36 0 -57.5 -17t-21.5 -47q0 -34 21.5 -49.5t102.5 -48.5q56 -23 86.5 -38.5t60 -39t41.5 -54t12 -72.5q0 -92 -86 -146v-2q48 -37 48 -108q0 -77 -55.5 -120.5t-149.5 -43.5q-101 0 -158 45.5t-59 135.5h115q6 -87 100 -87
q40 0 64 18.5t24 51.5q0 36 -26.5 55.5t-119.5 59.5q-96 42 -138.5 81t-42.5 112q0 94 86 146v2q-45 37 -45 100q0 72 55.5 116t142.5 44zM221 415q-46 -30 -46 -79q0 -38 25.5 -64t98.5 -58q36 -14 92 -43q47 29 47 83q0 36 -24.5 62t-93.5 55q-49 20 -99 44z" />
    <glyph glyph-name="dieresis" unicode="&#xa8;" horiz-adv-x="408" 
d="M152 712v-109h-102v109h102zM358 712v-109h-102v109h102z" />
    <glyph glyph-name="copyright" unicode="&#xa9;" horiz-adv-x="806" 
d="M403 725q162 0 260.5 -101.5t98.5 -267.5t-98.5 -267.5t-260.5 -101.5q-161 0 -260 101.5t-99 267.5t99 267.5t260 101.5zM403 674q-139 0 -224 -87.5t-85 -230.5t85 -230.5t224 -87.5q140 0 225 87.5t85 230.5t-85 230.5t-225 87.5zM405 593q84 0 134.5 -46.5
t54.5 -122.5h-85q-4 44 -31.5 70.5t-72.5 26.5q-55 0 -87 -44.5t-32 -121.5q0 -76 31.5 -120t85.5 -44q45 0 74 27t34 73h86q-7 -80 -59 -126t-135 -46q-94 0 -148.5 63t-54.5 173q0 111 55 174.5t150 63.5z" />
    <glyph glyph-name="ordfeminine" unicode="&#xaa;" horiz-adv-x="402" 
d="M196 696q158 0 158 -142v-126q0 -58 10 -98h-88q-6 22 -6 48h-1q-41 -56 -122 -56q-58 0 -92 30t-34 78q0 47 33 74t112 39q64 9 93 10v14q0 65 -63 65q-62 0 -64 -57h-96q3 53 43.5 87t116.5 34zM259 480v16q-33 -2 -76 -9q-35 -6 -49.5 -18t-14.5 -33q0 -22 15 -35
t42 -13q39 0 60 22q23 22 23 70z" />
    <glyph glyph-name="guillemetleft" unicode="&#xab;" horiz-adv-x="498" 
d="M262 454l-109 -200l109 -200h-102l-114 200l114 200h102zM452 454l-110 -200l110 -200h-102l-114 200l114 200h102z" />
    <glyph glyph-name="logicalnot" unicode="&#xac;" horiz-adv-x="566" 
d="M499 458v-322h-91v230h-341v92h432z" />
    <glyph glyph-name="softhyphen" unicode="&#xad;" horiz-adv-x="310" 
d="M280 339v-94h-250v94h250z" />
    <glyph glyph-name="registered" unicode="&#xae;" horiz-adv-x="589" 
d="M295 727q112 0 180.5 -70.5t68.5 -186.5t-68.5 -186t-180.5 -70q-113 0 -181.5 70.5t-68.5 185.5q0 116 69 186.5t181 70.5zM295 692q-97 0 -156 -61t-59 -161t59 -161t156 -61t156 61t59 161t-59 161t-156 61zM179 316v317h122q54 0 81.5 -24t27.5 -67
q0 -27 -15.5 -48.5t-41.5 -28.5v-2q27 -6 45 -53l33 -94h-65l-27 79q-7 24 -20.5 34t-37.5 10h-41v-123h-61zM289 582h-49v-93h46q63 0 63 49q0 44 -60 44z" />
    <glyph glyph-name="macron" unicode="&#xaf;" horiz-adv-x="405" 
d="M355 685v-78h-305v78h305z" />
    <glyph glyph-name="degree" unicode="&#xb0;" horiz-adv-x="329" 
d="M165 722q53 0 90 -37.5t37 -90.5q0 -52 -37 -89.5t-90 -37.5t-90.5 37t-37.5 90t37.5 90.5t90.5 37.5zM165 660q-28 0 -47 -19t-19 -47q0 -27 19 -46t47 -19q27 0 46.5 19t19.5 46q0 28 -19.5 47t-46.5 19z" />
    <glyph glyph-name="plusminus" unicode="&#xb1;" horiz-adv-x="566" 
d="M499 91v-91h-432v91h432zM328 559v-163h171v-91h-171v-164h-90v164h-171v91h171v163h90z" />
    <glyph glyph-name="twosuperior" unicode="&#xb2;" horiz-adv-x="439" 
d="M221 813q78 0 125 -38.5t47 -99.5q0 -57 -33 -92.5t-98 -69.5q-65 -33 -86.5 -54t-22.5 -46h252v-83h-367q-2 6 -2 20q0 74 29.5 121t112.5 92q60 32 85 54.5t25 56.5q0 26 -18 42t-49 16q-73 0 -76 -77h-102q1 75 48.5 116.5t129.5 41.5z" />
    <glyph glyph-name="threesuperior" unicode="&#xb3;" horiz-adv-x="433" 
d="M216 813q81 0 128 -36t47 -97q0 -39 -20 -64t-64 -42v-2q47 -16 69 -43t22 -71q0 -63 -49.5 -101t-131.5 -38q-90 0 -138.5 42.5t-48.5 119.5h103q0 -81 84 -81q35 0 56.5 17t21.5 45q0 67 -98 67h-15v78h17q42 0 66.5 17t24.5 47q0 28 -20.5 44.5t-55.5 16.5
q-77 0 -77 -78h-101q0 75 47.5 117t132.5 42z" />
    <glyph glyph-name="acute" unicode="&#xb4;" horiz-adv-x="325" 
d="M275 712l-132 -144h-93l81 144h144z" />
    <glyph glyph-name="micro" unicode="&#xb5;" horiz-adv-x="598" 
d="M403 508h114v-352q0 -41 10.5 -56.5t34.5 -15.5q12 0 24 3v-84q-29 -10 -72 -10q-87 0 -102 81h-2q-16 -38 -51 -59.5t-81 -21.5q-61 0 -91 32v-210h-114v693h114v-300q0 -128 100 -128q51 0 83.5 38.5t32.5 108.5v281z" />
    <glyph glyph-name="paragraph" unicode="&#xb6;" horiz-adv-x="622" 
d="M599 712v-79h-80v-753h-85v753h-84v-753h-85v419h-28q-91 0 -144 55.5t-53 150.5t53 151t144 56h362z" />
    <glyph glyph-name="periodcentered" unicode="&#xb7;" horiz-adv-x="242" 
d="M187 376v-141h-132v141h132z" />
    <glyph glyph-name="cedilla" unicode="&#xb8;" horiz-adv-x="326" 
d="M152 0h51l-39 -62q9 4 29 4q35 0 59 -20t24 -54q0 -39 -30.5 -65t-86.5 -26q-57 0 -109 29l20 40q39 -21 79 -21q53 0 53 38q0 18 -13.5 29t-37.5 11q-17 0 -32 -6l-19 21z" />
    <glyph glyph-name="onesuperior" unicode="&#xb9;" horiz-adv-x="300" 
d="M233 802v-472h-102v317h-120v74q64 0 95 19t38 62h89z" />
    <glyph glyph-name="ordmasculine" unicode="&#xba;" horiz-adv-x="427" 
d="M214 696q85 0 135.5 -51t50.5 -137q0 -87 -50 -138t-136 -51t-136.5 51t-50.5 138q0 86 50.5 137t136.5 51zM214 620q-39 0 -61.5 -30t-22.5 -82t22.5 -82.5t61.5 -30.5t61 30t22 83t-22 82.5t-61 29.5z" />
    <glyph glyph-name="guillemetright" unicode="&#xbb;" horiz-adv-x="498" 
d="M46 454h102l114 -200l-114 -200h-102l109 200zM236 454h102l114 -200l-114 -200h-102l109 200z" />
    <glyph glyph-name="onequarter" unicode="&#xbc;" horiz-adv-x="761" 
d="M752 162v-74h-67v-88h-93v88h-197v77l167 239h123v-242h67zM520 218l-40 -56h116v46q0 65 3 128h-1q-40 -65 -78 -118zM108 270v265h-99v69q94 0 110 70h85v-404h-96zM479 674h82l-376 -674h-83z" />
    <glyph glyph-name="onehalf" unicode="&#xbd;" horiz-adv-x="792" 
d="M204 674v-404h-96v265h-99v69q94 0 110 70h85zM561 674l-376 -674h-83l377 674h82zM601 414q69 0 110 -33.5t41 -86.5q0 -49 -29.5 -81t-84.5 -58q-54 -26 -72.5 -42.5t-20.5 -36.5h219v-76h-326q-1 6 -1 19q0 65 26 105.5t98 78.5q28 15 40.5 22.5t28 19t21 23.5t5.5 27
q0 20 -15 32.5t-40 12.5q-60 0 -62 -64h-95q1 65 42.5 101.5t114.5 36.5z" />
    <glyph glyph-name="threequarters" unicode="&#xbe;" horiz-adv-x="885" 
d="M876 162v-74h-67v-88h-93v88h-197v77l167 239h123v-242h67zM644 218l-40 -56h116v46q0 65 3 128h-1q-40 -65 -78 -118zM352 379q0 -55 -43 -87t-117 -32q-79 0 -122.5 36.5t-43.5 103.5h95q0 -65 71 -65q30 0 48 13.5t18 35.5q0 54 -82 54h-14v71h13q35 0 56.5 14.5
t21.5 39.5q0 21 -17 34t-46 13q-66 0 -66 -62h-93q0 64 42.5 100t116.5 36q72 0 114 -31.5t42 -83.5q0 -63 -71 -90v-1q40 -13 58.5 -37t18.5 -62zM603 674h82l-376 -674h-83z" />
    <glyph glyph-name="questiondown" unicode="&#xbf;" horiz-adv-x="500" 
d="M263 -218q-103 0 -164 49.5t-61 133.5q0 53 20.5 89t82.5 88q56 47 72.5 82t16.5 108h99v-31q0 -75 -19 -115.5t-79 -94.5q-46 -41 -59.5 -64.5t-13.5 -58.5q0 -39 28 -62.5t77 -23.5q112 0 118 115h119q-4 -106 -65 -160.5t-172 -54.5zM216 389v119h129v-119h-129z" />
    <glyph glyph-name="Agrave" unicode="&#xc0;" horiz-adv-x="687" 
d="M557 0l-66 193h-295l-66 -193h-126l259 712h161l259 -712h-126zM232 297h223l-19 56q-60 178 -92 283h-2q-53 -174 -91 -283zM420 760h-93l-132 142h143z" />
    <glyph glyph-name="Aacute" unicode="&#xc1;" horiz-adv-x="687" 
d="M557 0l-66 193h-295l-66 -193h-126l259 712h161l259 -712h-126zM232 297h223l-19 56q-60 178 -92 283h-2q-53 -174 -91 -283zM492 902l-132 -142h-93l81 142h144z" />
    <glyph glyph-name="Acircumflex" unicode="&#xc2;" horiz-adv-x="687" 
d="M557 0l-66 193h-295l-66 -193h-126l259 712h161l259 -712h-126zM232 297h223l-19 56q-60 178 -92 283h-2q-53 -174 -91 -283zM343 842l-67 -82h-108l114 142h123l114 -142h-108z" />
    <glyph glyph-name="Atilde" unicode="&#xc3;" horiz-adv-x="687" 
d="M557 0l-66 193h-295l-66 -193h-126l259 712h161l259 -712h-126zM232 297h223l-19 56q-60 178 -92 283h-2q-53 -174 -91 -283zM277 823q-40 0 -46 -49h-68q3 59 32 92t78 33q34 0 76 -24t60 -24q41 0 46 48h68q-3 -59 -31.5 -92t-77.5 -33q-34 0 -76 24.5t-61 24.5z" />
    <glyph glyph-name="Adieresis" unicode="&#xc4;" horiz-adv-x="687" 
d="M557 0l-66 193h-295l-66 -193h-126l259 712h161l259 -712h-126zM232 297h223l-19 56q-60 178 -92 283h-2q-53 -174 -91 -283zM291 881v-109h-102v109h102zM497 881v-109h-102v109h102z" />
    <glyph glyph-name="Aring" unicode="&#xc5;" horiz-adv-x="687" 
d="M557 0l-66 193h-295l-66 -193h-126l259 712h161l259 -712h-126zM232 297h223l-19 56q-60 178 -92 283h-2q-53 -174 -91 -283zM343 751q-43 0 -73.5 30.5t-30.5 73.5t30.5 73.5t73.5 30.5t73.5 -30.5t30.5 -73.5t-30.5 -73.5t-73.5 -30.5zM343 911q-23 0 -39.5 -16.5
t-16.5 -39.5t16.5 -39.5t39.5 -16.5t39.5 16.5t16.5 39.5t-16.5 39.5t-39.5 16.5z" />
    <glyph glyph-name="AE" unicode="&#xc6;" horiz-adv-x="951" 
d="M616 104h284v-104h-385l-30 202h-264l-92 -202h-135l340 712h556v-104h-348l28 -193h298v-103h-283zM268 304h202l-45 310h-15z" />
    <glyph glyph-name="Ccedilla" unicode="&#xc7;" horiz-adv-x="695" 
d="M528 247h123q-10 -114 -79 -183t-184 -78l-30 -48q9 4 29 4q35 0 59 -20t24 -54q0 -39 -30.5 -65t-86.5 -26q-57 0 -109 29l20 40q39 -21 79 -21q53 0 53 38q0 18 -13.5 29t-37.5 11q-17 0 -32 -6l-19 21l43 67q-139 7 -218 105.5t-79 265.5q0 173 85.5 272t233.5 99
q128 0 206 -72t83 -187h-121q-8 71 -52.5 111.5t-115.5 40.5q-91 0 -143 -70.5t-52 -193.5t51.5 -193.5t140.5 -70.5q71 0 116.5 41t55.5 114z" />
    <glyph glyph-name="Egrave" unicode="&#xc8;" horiz-adv-x="625" 
d="M564 712v-104h-356v-193h334v-103h-334v-208h366v-104h-486v712h476zM177 902h143l82 -142h-93z" />
    <glyph glyph-name="Eacute" unicode="&#xc9;" horiz-adv-x="625" 
d="M564 712v-104h-356v-193h334v-103h-334v-208h366v-104h-486v712h476zM475 902l-132 -142h-93l81 142h144z" />
    <glyph glyph-name="Ecircumflex" unicode="&#xca;" horiz-adv-x="625" 
d="M564 712v-104h-356v-193h334v-103h-334v-208h366v-104h-486v712h476zM150 760l114 142h123l114 -142h-108l-68 82l-67 -82h-108z" />
    <glyph glyph-name="Edieresis" unicode="&#xcb;" horiz-adv-x="625" 
d="M564 712v-104h-356v-193h334v-103h-334v-208h366v-104h-486v712h476zM274 881v-109h-102v109h102zM480 881v-109h-102v109h102z" />
    <glyph glyph-name="Igrave" unicode="&#xcc;" horiz-adv-x="296" 
d="M208 712v-712h-120v712h120zM0 902h143l82 -142h-93z" />
    <glyph glyph-name="Iacute" unicode="&#xcd;" horiz-adv-x="296" 
d="M208 712v-712h-120v712h120zM298 902l-132 -142h-93l81 142h144z" />
    <glyph glyph-name="Icircumflex" unicode="&#xce;" horiz-adv-x="296" 
d="M208 712v-712h-120v712h120zM-27 760l114 142h123l114 -142h-108l-68 82l-67 -82h-108z" />
    <glyph glyph-name="Idieresis" unicode="&#xcf;" horiz-adv-x="296" 
d="M208 712v-712h-120v712h120zM96 881v-109h-102v109h102zM302 881v-109h-102v109h102z" />
    <glyph glyph-name="Eth" unicode="&#xd0;" horiz-adv-x="729" 
d="M88 405v307h228q179 0 276 -92.5t97 -263.5t-97 -263.5t-276 -92.5h-228v316h-64v89h64zM207 316v-212h107q251 0 251 252t-251 252h-107v-203h184v-89h-184z" />
    <glyph glyph-name="Ntilde" unicode="&#xd1;" horiz-adv-x="766" 
d="M677 712v-712h-172l-154 298q-81 158 -151 306h-2q6 -162 6 -324v-280h-116v712h173l153 -298q81 -158 151 -306h2q-5 180 -5 324v280h115zM495 899h68q-3 -59 -31.5 -92t-77.5 -33q-34 0 -76 24.5t-61 24.5q-40 0 -46 -49h-68q3 59 32 92t78 33q34 0 76 -24t60 -24
q41 0 46 48z" />
    <glyph glyph-name="Ograve" unicode="&#xd2;" horiz-adv-x="740" 
d="M370 727q153 0 241.5 -99.5t88.5 -271.5t-88.5 -271.5t-241.5 -99.5t-241.5 99.5t-88.5 271.5t88.5 271.5t241.5 99.5zM370 620q-95 0 -150.5 -71t-55.5 -193t55.5 -193t150.5 -71t150.5 71t55.5 193t-55.5 193t-150.5 71zM221 902h143l82 -142h-93z" />
    <glyph glyph-name="Oacute" unicode="&#xd3;" horiz-adv-x="740" 
d="M370 727q153 0 241.5 -99.5t88.5 -271.5t-88.5 -271.5t-241.5 -99.5t-241.5 99.5t-88.5 271.5t88.5 271.5t241.5 99.5zM370 620q-95 0 -150.5 -71t-55.5 -193t55.5 -193t150.5 -71t150.5 71t55.5 193t-55.5 193t-150.5 71zM519 902l-132 -142h-93l81 142h144z" />
    <glyph glyph-name="Ocircumflex" unicode="&#xd4;" horiz-adv-x="740" 
d="M370 727q153 0 241.5 -99.5t88.5 -271.5t-88.5 -271.5t-241.5 -99.5t-241.5 99.5t-88.5 271.5t88.5 271.5t241.5 99.5zM370 620q-95 0 -150.5 -71t-55.5 -193t55.5 -193t150.5 -71t150.5 71t55.5 193t-55.5 193t-150.5 71zM194 760l114 142h123l114 -142h-108l-68 82
l-67 -82h-108z" />
    <glyph glyph-name="Otilde" unicode="&#xd5;" horiz-adv-x="740" 
d="M370 727q153 0 241.5 -99.5t88.5 -271.5t-88.5 -271.5t-241.5 -99.5t-241.5 99.5t-88.5 271.5t88.5 271.5t241.5 99.5zM370 620q-95 0 -150.5 -71t-55.5 -193t55.5 -193t150.5 -71t150.5 71t55.5 193t-55.5 193t-150.5 71zM482 899h68q-3 -59 -31.5 -92t-77.5 -33
q-34 0 -76 24.5t-61 24.5q-40 0 -46 -49h-68q3 59 32 92t78 33q34 0 76 -24t60 -24q42 0 46 48z" />
    <glyph glyph-name="Odieresis" unicode="&#xd6;" horiz-adv-x="740" 
d="M370 727q153 0 241.5 -99.5t88.5 -271.5t-88.5 -271.5t-241.5 -99.5t-241.5 99.5t-88.5 271.5t88.5 271.5t241.5 99.5zM370 620q-95 0 -150.5 -71t-55.5 -193t55.5 -193t150.5 -71t150.5 71t55.5 193t-55.5 193t-150.5 71zM318 881v-109h-102v109h102zM524 881v-109h-102
v109h102z" />
    <glyph glyph-name="multiply" unicode="&#xd7;" horiz-adv-x="566" 
d="M472 559l64 -64l-189 -188l189 -189l-64 -64l-189 189l-188 -189l-65 64l189 189l-189 188l65 64l188 -188z" />
    <glyph glyph-name="Oslash" unicode="&#xd8;" horiz-adv-x="740" 
d="M622 750l55 -43l-62 -83q85 -99 85 -268q0 -172 -88.5 -271.5t-241.5 -99.5q-113 0 -192 56l-59 -79l-56 44l62 83q-85 99 -85 267q0 172 88.5 271.5t241.5 99.5q112 0 193 -56zM160 356q0 -103 38 -170l298 396q-52 43 -126 43q-97 0 -153.5 -72t-56.5 -197zM370 87
q97 0 153.5 72t56.5 197q0 103 -38 170l-297 -396q51 -43 125 -43z" />
    <glyph glyph-name="Ugrave" unicode="&#xd9;" horiz-adv-x="712" 
d="M510 712h119v-443q0 -138 -70.5 -211t-202.5 -73t-203 73t-71 211v443h120v-439q0 -89 40 -135t114 -46t114 46t40 135v439zM207 902h143l82 -142h-93z" />
    <glyph glyph-name="Uacute" unicode="&#xda;" horiz-adv-x="712" 
d="M510 712h119v-443q0 -138 -70.5 -211t-202.5 -73t-203 73t-71 211v443h120v-439q0 -89 40 -135t114 -46t114 46t40 135v439zM505 902l-132 -142h-93l81 142h144z" />
    <glyph glyph-name="Ucircumflex" unicode="&#xdb;" horiz-adv-x="712" 
d="M510 712h119v-443q0 -138 -70.5 -211t-202.5 -73t-203 73t-71 211v443h120v-439q0 -89 40 -135t114 -46t114 46t40 135v439zM180 760l114 142h123l114 -142h-108l-68 82l-67 -82h-108z" />
    <glyph glyph-name="Udieresis" unicode="&#xdc;" horiz-adv-x="712" 
d="M510 712h119v-443q0 -138 -70.5 -211t-202.5 -73t-203 73t-71 211v443h120v-439q0 -89 40 -135t114 -46t114 46t40 135v439zM304 881v-109h-102v109h102zM510 881v-109h-102v109h102z" />
    <glyph glyph-name="Yacute" unicode="&#xdd;" horiz-adv-x="626" 
d="M622 712l-249 -426v-286h-120v286l-250 426h136l78 -141q50 -90 95 -184h2q48 100 96 184l77 141h135zM462 902l-132 -142h-93l81 142h144z" />
    <glyph glyph-name="Thorn" unicode="&#xde;" horiz-adv-x="626" 
d="M208 712v-123h137q123 0 189 -60t66 -163t-66 -162.5t-189 -59.5h-137v-144h-120v712h120zM331 488h-123v-243h123q146 0 146 121q0 122 -146 122z" />
    <glyph glyph-name="germandbls" unicode="&#xdf;" horiz-adv-x="566" 
d="M288 727q95 0 151.5 -47.5t56.5 -126.5q0 -117 -118 -155v-2q73 -14 112.5 -62.5t39.5 -127.5q0 -99 -62.5 -155t-165.5 -56q-26 0 -51 5v94q10 -3 31 -3q63 0 96.5 32t33.5 94q0 60 -35 94t-99 34h-13v96q121 0 121 101q0 44 -25.5 68.5t-70.5 24.5q-103 0 -103 -133
v-502h-114v510q0 103 56.5 160t158.5 57z" />
    <glyph glyph-name="agrave" unicode="&#xe0;" horiz-adv-x="539" 
d="M263 523q102 0 155.5 -50t53.5 -149v-190q0 -82 13 -134h-103q-7 31 -7 71h-2q-56 -82 -171 -82q-78 0 -125 42.5t-47 108.5q0 65 44.5 104t150.5 56q64 11 137 15v20q0 105 -99 105q-46 0 -72 -24t-28 -65h-112q4 76 58.5 124t153.5 48zM362 216v25q-65 -4 -117 -13
q-55 -9 -77.5 -27t-22.5 -53q0 -34 23.5 -54.5t66.5 -20.5q58 0 92 34q20 21 27.5 44.5t7.5 64.5zM108 712h143l82 -144h-93z" />
    <glyph glyph-name="aacute" unicode="&#xe1;" horiz-adv-x="539" 
d="M263 523q102 0 155.5 -50t53.5 -149v-190q0 -82 13 -134h-103q-7 31 -7 71h-2q-56 -82 -171 -82q-78 0 -125 42.5t-47 108.5q0 65 44.5 104t150.5 56q64 11 137 15v20q0 105 -99 105q-46 0 -72 -24t-28 -65h-112q4 76 58.5 124t153.5 48zM362 216v25q-65 -4 -117 -13
q-55 -9 -77.5 -27t-22.5 -53q0 -34 23.5 -54.5t66.5 -20.5q58 0 92 34q20 21 27.5 44.5t7.5 64.5zM406 712l-132 -144h-93l81 144h144z" />
    <glyph glyph-name="acircumflex" unicode="&#xe2;" horiz-adv-x="539" 
d="M263 523q102 0 155.5 -50t53.5 -149v-190q0 -82 13 -134h-103q-7 31 -7 71h-2q-56 -82 -171 -82q-78 0 -125 42.5t-47 108.5q0 65 44.5 104t150.5 56q64 11 137 15v20q0 105 -99 105q-46 0 -72 -24t-28 -65h-112q4 76 58.5 124t153.5 48zM362 216v25q-65 -4 -117 -13
q-55 -9 -77.5 -27t-22.5 -53q0 -34 23.5 -54.5t66.5 -20.5q58 0 92 34q20 21 27.5 44.5t7.5 64.5zM432 568h-108l-67 84l-68 -84h-108l114 144h123z" />
    <glyph glyph-name="atilde" unicode="&#xe3;" horiz-adv-x="539" 
d="M263 523q102 0 155.5 -50t53.5 -149v-190q0 -82 13 -134h-103q-7 31 -7 71h-2q-56 -82 -171 -82q-78 0 -125 42.5t-47 108.5q0 65 44.5 104t150.5 56q64 11 137 15v20q0 105 -99 105q-46 0 -72 -24t-28 -65h-112q4 76 58.5 124t153.5 48zM362 216v25q-65 -4 -117 -13
q-55 -9 -77.5 -27t-22.5 -53q0 -34 23.5 -54.5t66.5 -20.5q58 0 92 34q20 21 27.5 44.5t7.5 64.5zM369 709h68q-3 -59 -31.5 -92t-77.5 -33q-34 0 -76 24t-61 24q-40 0 -46 -48h-68q3 59 32 92t78 33q34 0 76 -24.5t60 -24.5q41 0 46 49z" />
    <glyph glyph-name="adieresis" unicode="&#xe4;" horiz-adv-x="539" 
d="M263 523q102 0 155.5 -50t53.5 -149v-190q0 -82 13 -134h-103q-7 31 -7 71h-2q-56 -82 -171 -82q-78 0 -125 42.5t-47 108.5q0 65 44.5 104t150.5 56q64 11 137 15v20q0 105 -99 105q-46 0 -72 -24t-28 -65h-112q4 76 58.5 124t153.5 48zM362 216v25q-65 -4 -117 -13
q-55 -9 -77.5 -27t-22.5 -53q0 -34 23.5 -54.5t66.5 -20.5q58 0 92 34q20 21 27.5 44.5t7.5 64.5zM205 712v-109h-102v109h102zM411 712v-109h-102v109h102z" />
    <glyph glyph-name="aring" unicode="&#xe5;" horiz-adv-x="539" 
d="M263 523q102 0 155.5 -50t53.5 -149v-190q0 -82 13 -134h-103q-7 31 -7 71h-2q-56 -82 -171 -82q-78 0 -125 42.5t-47 108.5q0 65 44.5 104t150.5 56q64 11 137 15v20q0 105 -99 105q-46 0 -72 -24t-28 -65h-112q4 76 58.5 124t153.5 48zM362 216v25q-65 -4 -117 -13
q-55 -9 -77.5 -27t-22.5 -53q0 -34 23.5 -54.5t66.5 -20.5q58 0 92 34q20 21 27.5 44.5t7.5 64.5zM257 769q43 0 73.5 -30.5t30.5 -73.5t-30.5 -73.5t-73.5 -30.5t-73.5 30.5t-30.5 73.5t30.5 73.5t73.5 30.5zM257 721q-23 0 -39.5 -16.5t-16.5 -39.5t16.5 -39.5t39.5 -16.5
t39.5 16.5t16.5 39.5t-16.5 39.5t-39.5 16.5z" />
    <glyph glyph-name="ae" unicode="&#xe6;" horiz-adv-x="871" 
d="M600 69q45 0 74 23t36 61h117q-13 -72 -73.5 -120t-153.5 -48q-123 0 -185 98q-60 -98 -196 -98q-86 0 -137.5 43.5t-51.5 111.5q0 163 245 163h94v32q0 105 -102 105q-48 0 -74.5 -24t-28.5 -65h-113q5 76 60.5 124t155.5 48q117 0 168 -69q63 69 163 69
q83 0 142.5 -46.5t80.5 -126.5q12 -48 12 -119h-359q2 -82 36.5 -122t89.5 -40zM369 216v15h-81q-79 0 -111 -20.5t-32 -62.5q0 -36 24.5 -57.5t67.5 -21.5q61 0 95 36q21 21 29 45t8 66zM598 439q-51 0 -83.5 -35t-39.5 -101h244q-4 66 -37 101t-84 35z" />
    <glyph glyph-name="ccedilla" unicode="&#xe7;" horiz-adv-x="548" 
d="M285 75q46 0 75.5 33t33.5 85h120q-7 -85 -60 -141t-137 -65l-31 -49q9 4 29 4q35 0 59 -20t24 -54q0 -39 -30.5 -65t-86.5 -26q-57 0 -109 29l20 40q39 -21 79 -21q53 0 53 38q0 18 -13.5 29t-37.5 11q-17 0 -32 -6l-19 21l43 68q-105 7 -166 78.5t-61 189.5
q0 123 67 196t180 73q96 0 158.5 -55.5t70.5 -143.5h-119q-4 50 -34 79.5t-76 29.5q-60 0 -93.5 -47.5t-33.5 -131.5t33.5 -131.5t93.5 -47.5z" />
    <glyph glyph-name="egrave" unicode="&#xe8;" horiz-adv-x="562" 
d="M284 69q48 0 78.5 23t38.5 61h117q-15 -72 -77 -120t-157 -48q-115 0 -180.5 75t-65.5 200q0 115 65.5 189t178.5 74q86 0 146.5 -46.5t81.5 -126.5q14 -45 14 -119h-373q3 -82 39.5 -122t93.5 -40zM282 439q-53 0 -87.5 -34t-41.5 -99h257q-6 65 -40.5 99t-87.5 34z
M357 568h-93l-132 144h143z" />
    <glyph glyph-name="eacute" unicode="&#xe9;" horiz-adv-x="562" 
d="M284 69q48 0 78.5 23t38.5 61h117q-15 -72 -77 -120t-157 -48q-115 0 -180.5 75t-65.5 200q0 115 65.5 189t178.5 74q86 0 146.5 -46.5t81.5 -126.5q14 -45 14 -119h-373q3 -82 39.5 -122t93.5 -40zM282 439q-53 0 -87.5 -34t-41.5 -99h257q-6 65 -40.5 99t-87.5 34z
M429 712l-132 -144h-93l81 144h144z" />
    <glyph glyph-name="ecircumflex" unicode="&#xea;" horiz-adv-x="562" 
d="M284 69q48 0 78.5 23t38.5 61h117q-15 -72 -77 -120t-157 -48q-115 0 -180.5 75t-65.5 200q0 115 65.5 189t178.5 74q86 0 146.5 -46.5t81.5 -126.5q14 -45 14 -119h-373q3 -82 39.5 -122t93.5 -40zM282 439q-53 0 -87.5 -34t-41.5 -99h257q-6 65 -40.5 99t-87.5 34z
M281 652l-68 -84h-108l114 144h123l114 -144h-108z" />
    <glyph glyph-name="edieresis" unicode="&#xeb;" horiz-adv-x="562" 
d="M284 69q48 0 78.5 23t38.5 61h117q-15 -72 -77 -120t-157 -48q-115 0 -180.5 75t-65.5 200q0 115 65.5 189t178.5 74q86 0 146.5 -46.5t81.5 -126.5q14 -45 14 -119h-373q3 -82 39.5 -122t93.5 -40zM282 439q-53 0 -87.5 -34t-41.5 -99h257q-6 65 -40.5 99t-87.5 34z
M228 712v-109h-102v109h102zM434 712v-109h-102v109h102z" />
    <glyph glyph-name="igrave" unicode="&#xec;" horiz-adv-x="260" 
d="M187 508v-508h-114v508h114zM-19 712h143l82 -144h-93z" />
    <glyph glyph-name="iacute" unicode="&#xed;" horiz-adv-x="260" 
d="M187 508v-508h-114v508h114zM279 712l-132 -144h-93l81 144h144z" />
    <glyph glyph-name="icircumflex" unicode="&#xee;" horiz-adv-x="260" 
d="M187 508v-508h-114v508h114zM189 712l101 -143h-102l-58 85l-58 -85h-103l101 143h119z" />
    <glyph glyph-name="idieresis" unicode="&#xef;" horiz-adv-x="260" 
d="M187 508v-508h-114v508h114zM99 712v-109h-102v109h102zM263 712v-109h-103v109h103z" />
    <glyph glyph-name="eth" unicode="&#xf0;" horiz-adv-x="578" 
d="M540 258q0 -125 -67.5 -199t-182.5 -74q-116 0 -184 70.5t-68 191.5t61 192t164 71q48 0 89 -26v2q-40 50 -96 100l-130 -55l-23 54l103 44q-36 28 -67 49l87 49q36 -23 78 -57l125 53l23 -54l-99 -42q187 -170 187 -369zM289 75q61 0 96 48t35 130q0 83 -35 131t-96 48
t-96 -48t-35 -131q0 -82 35 -130t96 -48z" />
    <glyph glyph-name="ntilde" unicode="&#xf1;" 
d="M335 520q88 0 136.5 -53t48.5 -156v-311h-114v301q0 127 -103 127q-51 0 -83.5 -38t-32.5 -108v-282h-114v508h108v-66h2q54 78 152 78zM409 709h68q-3 -59 -31.5 -92t-77.5 -33q-34 0 -76 24t-61 24q-40 0 -46 -48h-68q3 59 32 92t78 33q34 0 76 -24.5t60 -24.5
q41 0 46 49z" />
    <glyph glyph-name="ograve" unicode="&#xf2;" horiz-adv-x="577" 
d="M289 523q115 0 182.5 -72.5t67.5 -196.5t-67.5 -196.5t-182.5 -72.5t-183 72.5t-68 196.5t68 196.5t183 72.5zM289 433q-61 0 -96 -48t-35 -131t35 -131t96 -48t96 48t35 131t-35 131t-96 48zM140 712h143l82 -144h-93z" />
    <glyph glyph-name="oacute" unicode="&#xf3;" horiz-adv-x="577" 
d="M289 523q115 0 182.5 -72.5t67.5 -196.5t-67.5 -196.5t-182.5 -72.5t-183 72.5t-68 196.5t68 196.5t183 72.5zM289 433q-61 0 -96 -48t-35 -131t35 -131t96 -48t96 48t35 131t-35 131t-96 48zM438 712l-132 -144h-93l81 144h144z" />
    <glyph glyph-name="ocircumflex" unicode="&#xf4;" horiz-adv-x="577" 
d="M289 523q115 0 182.5 -72.5t67.5 -196.5t-67.5 -196.5t-182.5 -72.5t-183 72.5t-68 196.5t68 196.5t183 72.5zM289 433q-61 0 -96 -48t-35 -131t35 -131t96 -48t96 48t35 131t-35 131t-96 48zM464 568h-108l-67 84l-68 -84h-108l114 144h123z" />
    <glyph glyph-name="otilde" unicode="&#xf5;" horiz-adv-x="577" 
d="M289 523q115 0 182.5 -72.5t67.5 -196.5t-67.5 -196.5t-182.5 -72.5t-183 72.5t-68 196.5t68 196.5t183 72.5zM289 433q-61 0 -96 -48t-35 -131t35 -131t96 -48t96 48t35 131t-35 131t-96 48zM401 709h68q-3 -59 -31.5 -92t-77.5 -33q-34 0 -76 24t-61 24q-40 0 -46 -48
h-68q3 59 32 92t78 33q34 0 76 -24.5t60 -24.5q41 0 46 49z" />
    <glyph glyph-name="odieresis" unicode="&#xf6;" horiz-adv-x="577" 
d="M289 523q115 0 182.5 -72.5t67.5 -196.5t-67.5 -196.5t-182.5 -72.5t-183 72.5t-68 196.5t68 196.5t183 72.5zM289 433q-61 0 -96 -48t-35 -131t35 -131t96 -48t96 48t35 131t-35 131t-96 48zM236 712v-109h-102v109h102zM442 712v-109h-102v109h102z" />
    <glyph glyph-name="divide" unicode="&#xf7;" horiz-adv-x="566" 
d="M333 538v-97h-100v97h100zM499 362v-91h-432v91h432zM333 192v-97h-100v97h100z" />
    <glyph glyph-name="oslash" unicode="&#xf8;" horiz-adv-x="578" 
d="M479 555l48 -37l-53 -70q66 -72 66 -194q0 -124 -68 -196.5t-183 -72.5q-81 0 -138 36l-51 -68l-48 36l53 70q-67 72 -67 195q0 124 68 196.5t183 72.5q80 0 139 -36zM289 437q-63 0 -100 -49.5t-37 -133.5q0 -62 20 -105l197 260q-34 28 -80 28zM289 71q63 0 100 49
t37 134q0 57 -20 105l-197 -261q33 -27 80 -27z" />
    <glyph glyph-name="ugrave" unicode="&#xf9;" 
d="M253 -12q-88 0 -136.5 53t-48.5 156v311h114v-301q0 -127 103 -127q51 0 83.5 38t32.5 108v282h114v-508h-108v66h-2q-54 -78 -152 -78zM145 712h143l82 -144h-93z" />
    <glyph glyph-name="uacute" unicode="&#xfa;" 
d="M253 -12q-88 0 -136.5 53t-48.5 156v311h114v-301q0 -127 103 -127q51 0 83.5 38t32.5 108v282h114v-508h-108v66h-2q-54 -78 -152 -78zM443 712l-132 -144h-93l81 144h144z" />
    <glyph glyph-name="ucircumflex" unicode="&#xfb;" 
d="M253 -12q-88 0 -136.5 53t-48.5 156v311h114v-301q0 -127 103 -127q51 0 83.5 38t32.5 108v282h114v-508h-108v66h-2q-54 -78 -152 -78zM469 568h-108l-67 84l-68 -84h-108l114 144h123z" />
    <glyph glyph-name="udieresis" unicode="&#xfc;" 
d="M253 -12q-88 0 -136.5 53t-48.5 156v311h114v-301q0 -127 103 -127q51 0 83.5 38t32.5 108v282h114v-508h-108v66h-2q-54 -78 -152 -78zM242 712v-109h-102v109h102zM448 712v-109h-102v109h102z" />
    <glyph glyph-name="yacute" unicode="&#xfd;" horiz-adv-x="488" 
d="M376 508h118l-196 -530q-36 -96 -84.5 -132t-137.5 -36q-31 0 -57 7v93q23 -7 48 -7q46 0 70.5 20t42.5 73l-186 512h122l127 -378h2zM393 712l-132 -144h-93l81 144h144z" />
    <glyph glyph-name="thorn" unicode="&#xfe;" horiz-adv-x="587" 
d="M187 712v-270h2q22 37 61.5 58t86.5 21q97 0 154.5 -72.5t57.5 -194.5t-57 -194t-154 -72q-48 0 -87.5 20.5t-61.5 57.5h-2v-251h-114v897h114zM304 432q-56 0 -89.5 -47.5t-33.5 -130.5q0 -82 33.5 -130t89.5 -48q58 0 92 48.5t34 129.5t-34 129.5t-92 48.5z" />
    <glyph glyph-name="ydieresis" unicode="&#xff;" horiz-adv-x="488" 
d="M376 508h118l-196 -530q-36 -96 -84.5 -132t-137.5 -36q-31 0 -57 7v93q23 -7 48 -7q46 0 70.5 20t42.5 73l-186 512h122l127 -378h2zM192 712v-109h-102v109h102zM398 712v-109h-102v109h102z" />
    <glyph glyph-name="Amacron" unicode="&#x100;" horiz-adv-x="687" 
d="M557 0l-66 193h-295l-66 -193h-126l259 712h161l259 -712h-126zM232 297h223l-19 56q-60 178 -92 283h-2q-53 -174 -91 -283zM496 861v-78h-305v78h305z" />
    <glyph glyph-name="amacron" unicode="&#x101;" horiz-adv-x="539" 
d="M263 523q102 0 155.5 -50t53.5 -149v-190q0 -82 13 -134h-103q-7 31 -7 71h-2q-56 -82 -171 -82q-78 0 -125 42.5t-47 108.5q0 65 44.5 104t150.5 56q64 11 137 15v20q0 105 -99 105q-46 0 -72 -24t-28 -65h-112q4 76 58.5 124t153.5 48zM362 216v25q-65 -4 -117 -13
q-55 -9 -77.5 -27t-22.5 -53q0 -34 23.5 -54.5t66.5 -20.5q58 0 92 34q20 21 27.5 44.5t7.5 64.5zM409 685v-78h-305v78h305z" />
    <glyph glyph-name="Abreve" unicode="&#x102;" horiz-adv-x="687" 
d="M557 0l-66 193h-295l-66 -193h-126l259 712h161l259 -712h-126zM232 297h223l-19 56q-60 178 -92 283h-2q-53 -174 -91 -283zM343 755q-73 0 -116.5 38.5t-48.5 108.5h80q8 -72 85 -72t85 72h81q-5 -70 -48.5 -108.5t-117.5 -38.5z" />
    <glyph glyph-name="abreve" unicode="&#x103;" horiz-adv-x="539" 
d="M263 523q102 0 155.5 -50t53.5 -149v-190q0 -82 13 -134h-103q-7 31 -7 71h-2q-56 -82 -171 -82q-78 0 -125 42.5t-47 108.5q0 65 44.5 104t150.5 56q64 11 137 15v20q0 105 -99 105q-46 0 -72 -24t-28 -65h-112q4 76 58.5 124t153.5 48zM362 216v25q-65 -4 -117 -13
q-55 -9 -77.5 -27t-22.5 -53q0 -34 23.5 -54.5t66.5 -20.5q58 0 92 34q20 21 27.5 44.5t7.5 64.5zM342 712h81q-5 -70 -48.5 -108.5t-117.5 -38.5q-73 0 -116.5 38.5t-48.5 108.5h80q8 -72 85 -72t85 72z" />
    <glyph glyph-name="Aogonek" unicode="&#x104;" horiz-adv-x="687" 
d="M648 -128q20 0 37 6v-62q-27 -11 -68 -11q-106 0 -106 83q0 32 18.5 57t59.5 55h-32l-66 193h-295l-66 -193h-126l259 712h161l259 -712h-1q-72 -51 -72 -95q0 -33 38 -33zM232 297h223l-19 56q-60 178 -92 283h-2q-53 -174 -91 -283z" />
    <glyph glyph-name="aogonek" unicode="&#x105;" horiz-adv-x="539" 
d="M451 -128q21 0 37 6v-62q-27 -11 -68 -11q-106 0 -106 83q0 32 18.5 57t59.5 55h-10q-7 31 -7 71h-2q-56 -82 -171 -82q-78 0 -125 42.5t-47 108.5q0 65 44.5 104t150.5 56q64 11 137 15v20q0 105 -99 105q-46 0 -72 -24t-28 -65h-112q4 76 58.5 124t153.5 48
q102 0 155.5 -50t53.5 -149v-190q0 -82 13 -134q-72 -51 -72 -95q0 -33 38 -33zM362 216v25q-65 -4 -117 -13q-55 -9 -77.5 -27t-22.5 -53q0 -34 23.5 -54.5t66.5 -20.5q58 0 92 34q20 21 27.5 44.5t7.5 64.5z" />
    <glyph glyph-name="Cacute" unicode="&#x106;" horiz-adv-x="695" 
d="M359 727q128 0 206 -72t83 -187h-121q-8 71 -52.5 111.5t-115.5 40.5q-91 0 -143 -70.5t-52 -193.5t51.5 -193.5t140.5 -70.5q71 0 116.5 41t55.5 114h123q-11 -123 -89 -192.5t-206 -69.5q-147 0 -231.5 99t-84.5 272t85.5 272t233.5 99zM508 902l-132 -142h-93l81 142
h144z" />
    <glyph glyph-name="cacute" unicode="&#x107;" horiz-adv-x="548" 
d="M285 523q96 0 158.5 -55.5t70.5 -143.5h-119q-4 50 -34 79.5t-76 29.5q-60 0 -93.5 -47.5t-33.5 -131.5t33.5 -131.5t93.5 -47.5q46 0 75.5 33t33.5 85h120q-8 -93 -70 -150.5t-159 -57.5q-113 0 -180 73t-67 196t67 196t180 73zM434 712l-132 -144h-93l81 144h144z" />
    <glyph glyph-name="Ccircumflex" unicode="&#x108;" horiz-adv-x="695" 
d="M359 727q128 0 206 -72t83 -187h-121q-8 71 -52.5 111.5t-115.5 40.5q-91 0 -143 -70.5t-52 -193.5t51.5 -193.5t140.5 -70.5q71 0 116.5 41t55.5 114h123q-11 -123 -89 -192.5t-206 -69.5q-147 0 -231.5 99t-84.5 272t85.5 272t233.5 99zM183 760l114 142h123l114 -142
h-108l-68 82l-67 -82h-108z" />
    <glyph glyph-name="ccircumflex" unicode="&#x109;" horiz-adv-x="548" 
d="M285 523q96 0 158.5 -55.5t70.5 -143.5h-119q-4 50 -34 79.5t-76 29.5q-60 0 -93.5 -47.5t-33.5 -131.5t33.5 -131.5t93.5 -47.5q46 0 75.5 33t33.5 85h120q-8 -93 -70 -150.5t-159 -57.5q-113 0 -180 73t-67 196t67 196t180 73zM461 568h-108l-67 84l-68 -84h-108
l114 144h123z" />
    <glyph glyph-name="Cdotaccent" unicode="&#x10a;" horiz-adv-x="695" 
d="M359 727q128 0 206 -72t83 -187h-121q-8 71 -52.5 111.5t-115.5 40.5q-91 0 -143 -70.5t-52 -193.5t51.5 -193.5t140.5 -70.5q71 0 116.5 41t55.5 114h123q-11 -123 -89 -192.5t-206 -69.5q-147 0 -231.5 99t-84.5 272t85.5 272t233.5 99zM416 878v-109h-114v109h114z
" />
    <glyph glyph-name="cdotaccent" unicode="&#x10b;" horiz-adv-x="548" 
d="M285 523q96 0 158.5 -55.5t70.5 -143.5h-119q-4 50 -34 79.5t-76 29.5q-60 0 -93.5 -47.5t-33.5 -131.5t33.5 -131.5t93.5 -47.5q46 0 75.5 33t33.5 85h120q-8 -93 -70 -150.5t-159 -57.5q-113 0 -180 73t-67 196t67 196t180 73zM342 712v-109h-114v109h114z" />
    <glyph glyph-name="Ccaron" unicode="&#x10c;" horiz-adv-x="695" 
d="M359 727q128 0 206 -72t83 -187h-121q-8 71 -52.5 111.5t-115.5 40.5q-91 0 -143 -70.5t-52 -193.5t51.5 -193.5t140.5 -70.5q71 0 116.5 41t55.5 114h123q-11 -123 -89 -192.5t-206 -69.5q-147 0 -231.5 99t-84.5 272t85.5 272t233.5 99zM534 902l-114 -142h-123
l-114 142h108l68 -82l67 82h108z" />
    <glyph glyph-name="ccaron" unicode="&#x10d;" horiz-adv-x="548" 
d="M285 523q96 0 158.5 -55.5t70.5 -143.5h-119q-4 50 -34 79.5t-76 29.5q-60 0 -93.5 -47.5t-33.5 -131.5t33.5 -131.5t93.5 -47.5q46 0 75.5 33t33.5 85h120q-8 -93 -70 -150.5t-159 -57.5q-113 0 -180 73t-67 196t67 196t180 73zM461 712l-114 -144h-123l-114 144h108
l68 -84l67 84h108z" />
    <glyph glyph-name="Dcaron" unicode="&#x10e;" horiz-adv-x="729" 
d="M88 0v712h228q179 0 276 -92.5t97 -263.5t-97 -263.5t-276 -92.5h-228zM314 608h-107v-504h107q251 0 251 252t-251 252zM507 902l-114 -142h-123l-114 142h108l68 -82l67 82h108z" />
    <glyph glyph-name="dcaron" unicode="&#x10f;" horiz-adv-x="587" 
d="M514 712v-712h-111v70h-2q-22 -39 -62.5 -60.5t-88.5 -21.5q-97 0 -154.5 72.5t-57.5 193.5q0 122 57 194.5t154 72.5q48 0 87.5 -21t61.5 -58h2v270h114zM283 432q-58 0 -92 -48.5t-34 -129.5t34 -129.5t92 -48.5q56 0 89.5 48t33.5 130q0 83 -33.5 130.5t-89.5 47.5z
M668 712l-57 -177h-66l28 177h95z" />
    <glyph glyph-name="Dcroat" unicode="&#x110;" horiz-adv-x="729" 
d="M88 405v307h228q179 0 276 -92.5t97 -263.5t-97 -263.5t-276 -92.5h-228v316h-64v89h64zM207 316v-212h107q251 0 251 252t-251 252h-107v-203h184v-89h-184z" />
    <glyph glyph-name="dcroat" unicode="&#x111;" horiz-adv-x="580" 
d="M579 642v-64h-65v-578h-111v70h-2q-22 -39 -62.5 -60.5t-88.5 -21.5q-97 0 -154.5 72.5t-57.5 193.5q0 122 57 194.5t154 72.5q48 0 87.5 -21t61.5 -58h2v136h-126v64h126v70h114v-70h65zM283 76q56 0 89.5 48t33.5 130q0 83 -33.5 130.5t-89.5 47.5q-58 0 -92 -48.5
t-34 -129.5t34 -129.5t92 -48.5z" />
    <glyph glyph-name="Emacron" unicode="&#x112;" horiz-adv-x="625" 
d="M564 712v-104h-356v-193h334v-103h-334v-208h366v-104h-486v712h476zM478 861v-78h-305v78h305z" />
    <glyph glyph-name="emacron" unicode="&#x113;" horiz-adv-x="562" 
d="M284 69q48 0 78.5 23t38.5 61h117q-15 -72 -77 -120t-157 -48q-115 0 -180.5 75t-65.5 200q0 115 65.5 189t178.5 74q86 0 146.5 -46.5t81.5 -126.5q14 -45 14 -119h-373q3 -82 39.5 -122t93.5 -40zM282 439q-53 0 -87.5 -34t-41.5 -99h257q-6 65 -40.5 99t-87.5 34z
M433 685v-78h-305v78h305z" />
    <glyph glyph-name="Ebreve" unicode="&#x114;" horiz-adv-x="625" 
d="M564 712v-104h-356v-193h334v-103h-334v-208h366v-104h-486v712h476zM411 902h81q-5 -70 -48.5 -108.5t-117.5 -38.5q-73 0 -116.5 38.5t-48.5 108.5h80q8 -72 85 -72t85 72z" />
    <glyph glyph-name="ebreve" unicode="&#x115;" horiz-adv-x="562" 
d="M284 69q48 0 78.5 23t38.5 61h117q-15 -72 -77 -120t-157 -48q-115 0 -180.5 75t-65.5 200q0 115 65.5 189t178.5 74q86 0 146.5 -46.5t81.5 -126.5q14 -45 14 -119h-373q3 -82 39.5 -122t93.5 -40zM282 439q-53 0 -87.5 -34t-41.5 -99h257q-6 65 -40.5 99t-87.5 34z
M280 565q-73 0 -116.5 38.5t-48.5 108.5h80q8 -72 85 -72t85 72h81q-5 -70 -48.5 -108.5t-117.5 -38.5z" />
    <glyph glyph-name="Edotaccent" unicode="&#x116;" horiz-adv-x="625" 
d="M564 712v-104h-356v-193h334v-103h-334v-208h366v-104h-486v712h476zM383 878v-109h-114v109h114z" />
    <glyph glyph-name="edotaccent" unicode="&#x117;" horiz-adv-x="562" 
d="M284 69q48 0 78.5 23t38.5 61h117q-15 -72 -77 -120t-157 -48q-115 0 -180.5 75t-65.5 200q0 115 65.5 189t178.5 74q86 0 146.5 -46.5t81.5 -126.5q14 -45 14 -119h-373q3 -82 39.5 -122t93.5 -40zM282 439q-53 0 -87.5 -34t-41.5 -99h257q-6 65 -40.5 99t-87.5 34z
M337 712v-109h-114v109h114z" />
    <glyph glyph-name="Eogonek" unicode="&#x118;" horiz-adv-x="625" 
d="M540 -128q20 0 37 6v-62q-27 -11 -68 -11q-106 0 -106 83q0 32 18.5 57t59.5 55h-393v712h476v-104h-356v-193h334v-103h-334v-208h366v-104q-72 -51 -72 -95q0 -33 38 -33z" />
    <glyph glyph-name="eogonek" unicode="&#x119;" horiz-adv-x="562" 
d="M284 69q48 0 78.5 23t38.5 61h117q-13 -66 -79 -129q-41 -37 -57 -62.5t-16 -52.5q0 -37 38 -37q20 0 37 6v-62q-27 -11 -68 -11q-106 0 -106 83q0 53 54 98v2q-16 -3 -37 -3q-115 0 -180.5 75t-65.5 200q0 115 65.5 189t178.5 74q86 0 146.5 -46.5t81.5 -126.5
q14 -45 14 -119h-373q3 -82 39.5 -122t93.5 -40zM282 439q-53 0 -87.5 -34t-41.5 -99h257q-6 65 -40.5 99t-87.5 34z" />
    <glyph glyph-name="Ecaron" unicode="&#x11a;" horiz-adv-x="625" 
d="M564 712v-104h-356v-193h334v-103h-334v-208h366v-104h-486v712h476zM501 902l-114 -142h-123l-114 142h108l68 -82l67 82h108z" />
    <glyph glyph-name="ecaron" unicode="&#x11b;" horiz-adv-x="562" 
d="M284 69q48 0 78.5 23t38.5 61h117q-15 -72 -77 -120t-157 -48q-115 0 -180.5 75t-65.5 200q0 115 65.5 189t178.5 74q86 0 146.5 -46.5t81.5 -126.5q14 -45 14 -119h-373q3 -82 39.5 -122t93.5 -40zM282 439q-53 0 -87.5 -34t-41.5 -99h257q-6 65 -40.5 99t-87.5 34z
M342 568h-123l-114 144h108l68 -84l67 84h108z" />
    <glyph glyph-name="Gcircumflex" unicode="&#x11c;" horiz-adv-x="737" 
d="M370 727q126 0 202.5 -63t87.5 -170h-128q-11 61 -52.5 93.5t-109.5 32.5q-95 0 -150.5 -71.5t-55.5 -195.5q0 -125 54 -197t147 -72q84 0 132 50t49 151h-182v100h294v-385h-103v88h-2q-29 -47 -85.5 -74t-129.5 -27q-137 0 -217.5 98t-80.5 268q0 174 88.5 274
t241.5 100zM187 760l114 142h123l114 -142h-108l-68 82l-67 -82h-108z" />
    <glyph glyph-name="gcircumflex" unicode="&#x11d;" horiz-adv-x="582" 
d="M251 522q92 0 148 -85h2v71h108v-476q0 -112 -60.5 -168.5t-170.5 -56.5q-101 0 -157.5 42.5t-60.5 118.5h114q2 -37 30 -57t76 -20q59 0 88.5 34t29.5 111v50h-2q-55 -80 -147 -80q-97 0 -154 70t-57 188t58 188t155 70zM277 427q-55 0 -87.5 -44t-32.5 -119
t32.5 -119.5t87.5 -44.5q58 0 91.5 44.5t33.5 119.5t-33.5 119t-91.5 44zM451 568h-108l-67 84l-68 -84h-108l114 144h123z" />
    <glyph glyph-name="Gbreve" unicode="&#x11e;" horiz-adv-x="737" 
d="M370 727q126 0 202.5 -63t87.5 -170h-128q-11 61 -52.5 93.5t-109.5 32.5q-95 0 -150.5 -71.5t-55.5 -195.5q0 -125 54 -197t147 -72q84 0 132 50t49 151h-182v100h294v-385h-103v88h-2q-29 -47 -85.5 -74t-129.5 -27q-137 0 -217.5 98t-80.5 268q0 174 88.5 274
t241.5 100zM448 902h81q-5 -70 -48.5 -108.5t-117.5 -38.5q-73 0 -116.5 38.5t-48.5 108.5h80q8 -72 85 -72t85 72z" />
    <glyph glyph-name="gbreve" unicode="&#x11f;" horiz-adv-x="582" 
d="M251 522q92 0 148 -85h2v71h108v-476q0 -112 -60.5 -168.5t-170.5 -56.5q-101 0 -157.5 42.5t-60.5 118.5h114q2 -37 30 -57t76 -20q59 0 88.5 34t29.5 111v50h-2q-55 -80 -147 -80q-97 0 -154 70t-57 188t58 188t155 70zM277 427q-55 0 -87.5 -44t-32.5 -119
t32.5 -119.5t87.5 -44.5q58 0 91.5 44.5t33.5 119.5t-33.5 119t-91.5 44zM360 712h81q-5 -70 -48.5 -108.5t-117.5 -38.5q-73 0 -116.5 38.5t-48.5 108.5h80q8 -72 85 -72t85 72z" />
    <glyph glyph-name="Gdotaccent" unicode="&#x120;" horiz-adv-x="737" 
d="M370 727q126 0 202.5 -63t87.5 -170h-128q-11 61 -52.5 93.5t-109.5 32.5q-95 0 -150.5 -71.5t-55.5 -195.5q0 -125 54 -197t147 -72q84 0 132 50t49 151h-182v100h294v-385h-103v88h-2q-29 -47 -85.5 -74t-129.5 -27q-137 0 -217.5 98t-80.5 268q0 174 88.5 274
t241.5 100zM420 878v-109h-114v109h114z" />
    <glyph glyph-name="gdotaccent" unicode="&#x121;" horiz-adv-x="582" 
d="M251 522q92 0 148 -85h2v71h108v-476q0 -112 -60.5 -168.5t-170.5 -56.5q-101 0 -157.5 42.5t-60.5 118.5h114q2 -37 30 -57t76 -20q59 0 88.5 34t29.5 111v50h-2q-55 -80 -147 -80q-97 0 -154 70t-57 188t58 188t155 70zM277 427q-55 0 -87.5 -44t-32.5 -119
t32.5 -119.5t87.5 -44.5q58 0 91.5 44.5t33.5 119.5t-33.5 119t-91.5 44zM333 712v-109h-114v109h114z" />
    <glyph glyph-name="Gcommaaccent" unicode="&#x122;" horiz-adv-x="737" 
d="M370 727q126 0 202.5 -63t87.5 -170h-128q-11 61 -52.5 93.5t-109.5 32.5q-95 0 -150.5 -71.5t-55.5 -195.5q0 -125 54 -197t147 -72q84 0 132 50t49 151h-182v100h294v-385h-103v88h-2q-29 -47 -85.5 -74t-129.5 -27q-137 0 -217.5 98t-80.5 268q0 174 88.5 274
t241.5 100zM416 -62v-96l-62 -106h-47l42 106h-40v96h107z" />
    <glyph glyph-name="gcommaaccent" unicode="&#x123;" horiz-adv-x="582" 
d="M251 522q92 0 148 -85h2v71h108v-476q0 -112 -60.5 -168.5t-170.5 -56.5q-101 0 -157.5 42.5t-60.5 118.5h114q2 -37 30 -57t76 -20q59 0 88.5 34t29.5 111v50h-2q-55 -80 -147 -80q-97 0 -154 70t-57 188t58 188t155 70zM277 427q-55 0 -87.5 -44t-32.5 -119
t32.5 -119.5t87.5 -44.5q58 0 91.5 44.5t33.5 119.5t-33.5 119t-91.5 44zM330 782l-42 -106h39v-96h-106v96l62 106h47z" />
    <glyph glyph-name="Hcircumflex" unicode="&#x124;" horiz-adv-x="744" 
d="M655 712v-712h-119v318h-328v-318h-120v712h120v-290h328v290h119zM196 760l114 142h123l114 -142h-108l-68 82l-67 -82h-108z" />
    <glyph glyph-name="hcircumflex" unicode="&#x125;" 
d="M187 712v-264h2q53 72 146 72q88 0 136.5 -53t48.5 -156v-311h-114v301q0 127 -103 127q-51 0 -83.5 -38t-32.5 -108v-282h-114v712h114zM118 760l114 142h123l114 -142h-108l-68 82l-67 -82h-108z" />
    <glyph glyph-name="Hbar" unicode="&#x126;" horiz-adv-x="744" 
d="M712 636v-65h-57v-571h-119v318h-328v-318h-120v571h-56v65h56v76h120v-76h328v76h119v-76h57zM536 422v149h-328v-149h328z" />
    <glyph glyph-name="hbar" unicode="&#x127;" 
d="M335 520q88 0 136.5 -53t48.5 -156v-311h-114v301q0 127 -103 127q-51 0 -83.5 -38t-32.5 -108v-282h-114v578h-72v58h72v76h114v-76h119v-58h-119v-130h2q53 72 146 72z" />
    <glyph glyph-name="Itilde" unicode="&#x128;" horiz-adv-x="296" 
d="M208 712v-712h-120v712h120zM260 899h68q-3 -59 -31.5 -92t-77.5 -33q-34 0 -76 24.5t-61 24.5q-40 0 -46 -49h-68q3 59 32 92t78 33q34 0 76 -24t60 -24q41 0 46 48z" />
    <glyph glyph-name="itilde" unicode="&#x129;" horiz-adv-x="260" 
d="M187 508v-508h-114v508h114zM229 709h60q-3 -59 -29.5 -92t-71.5 -33q-30 0 -65 25t-51 25q-36 0 -41 -50h-59q3 59 28.5 92t71.5 33q30 0 65 -25t51 -25q36 0 41 50z" />
    <glyph glyph-name="Imacron" unicode="&#x12a;" horiz-adv-x="296" 
d="M208 712v-712h-120v712h120zM301 861v-78h-305v78h305z" />
    <glyph glyph-name="imacron" unicode="&#x12b;" horiz-adv-x="260" 
d="M187 508v-508h-114v508h114zM265 688v-78h-271v78h271z" />
    <glyph glyph-name="Ibreve" unicode="&#x12c;" horiz-adv-x="296" 
d="M208 712v-712h-120v712h120zM233 902h81q-5 -70 -48.5 -108.5t-117.5 -38.5q-73 0 -116.5 38.5t-48.5 108.5h80q8 -72 85 -72t85 72z" />
    <glyph glyph-name="ibreve" unicode="&#x12d;" horiz-adv-x="260" 
d="M187 508v-508h-114v508h114zM203 712h76q-3 -69 -42 -108t-107 -39t-107 38.5t-42 108.5h75q3 -36 22 -55.5t52 -19.5t52 19.5t21 55.5z" />
    <glyph glyph-name="Iogonek" unicode="&#x12e;" horiz-adv-x="296" 
d="M174 -128q20 0 37 6v-62q-27 -11 -68 -11q-106 0 -106 83q0 32 18.5 57t59.5 55h-27v712h120v-712q-72 -51 -72 -95q0 -33 38 -33z" />
    <glyph glyph-name="iogonek" unicode="&#x12f;" horiz-adv-x="260" 
d="M153 -128q21 0 37 6v-62q-27 -11 -68 -11q-106 0 -106 83q0 32 18.5 57t59.5 55h-21v508h114v-508q-72 -51 -72 -95q0 -33 38 -33zM187 712v-109h-114v109h114z" />
    <glyph glyph-name="Idotaccent" unicode="&#x130;" horiz-adv-x="296" 
d="M208 712v-712h-120v712h120zM205 878v-109h-114v109h114z" />
    <glyph glyph-name="dotlessi" unicode="&#x131;" horiz-adv-x="260" 
d="M187 508v-508h-114v508h114z" />
    <glyph glyph-name="IJ" unicode="&#x132;" horiz-adv-x="670" 
d="M208 712v-712h-120v712h120zM467 712h120v-496q0 -113 -53.5 -167.5t-165.5 -54.5q-31 0 -57 7v103q21 -4 45 -4q58 0 84.5 30t26.5 107v475z" />
    <glyph glyph-name="ij" unicode="&#x133;" horiz-adv-x="524" 
d="M187 508v-508h-114v508h114zM337 508h114v-528q0 -88 -42.5 -129t-117.5 -41q-27 0 -58 7v85q13 -3 28 -3q39 0 57.5 21.5t18.5 74.5v513zM187 712v-109h-114v109h114zM451 712v-109h-114v109h114z" />
    <glyph glyph-name="Jcircumflex" unicode="&#x134;" horiz-adv-x="374" 
d="M171 712h120v-496q0 -113 -53.5 -167.5t-165.5 -54.5q-31 0 -57 7v103q21 -4 45 -4q58 0 84.5 30t26.5 107v475zM55 760l114 142h123l114 -142h-108l-68 82l-67 -82h-108z" />
    <glyph glyph-name="jcircumflex" unicode="&#x135;" horiz-adv-x="264" 
d="M77 508h114v-528q0 -88 -42.5 -129t-117.5 -41q-27 0 -58 7v85q13 -3 28 -3q39 0 57.5 21.5t18.5 74.5v513zM193 712l101 -143h-102l-58 85l-58 -85h-103l101 143h119z" />
    <glyph glyph-name="Kcommaaccent" unicode="&#x136;" horiz-adv-x="644" 
d="M614 712l-291 -339l317 -373h-155l-275 343h-2v-343h-120v712h120v-317h2l260 317h144zM383 -62v-96l-62 -106h-47l42 106h-40v96h107z" />
    <glyph glyph-name="kcommaaccent" unicode="&#x137;" horiz-adv-x="522" 
d="M297 276l234 -276h-144l-198 246h-2v-246h-114v712h114v-412h2l185 208h133zM229 -158v96h107v-96l-62 -106h-47l42 106h-40z" />
    <glyph glyph-name="kgreenlandic" unicode="&#x138;" horiz-adv-x="539" 
d="M297 276l234 -276h-144l-198 246h-2v-246h-114v508h114v-208h2l185 208h133z" />
    <glyph glyph-name="Lacute" unicode="&#x139;" horiz-adv-x="568" 
d="M208 712v-608h350v-104h-470v712h120zM328 902l-132 -142h-93l81 142h144z" />
    <glyph glyph-name="lacute" unicode="&#x13a;" horiz-adv-x="260" 
d="M187 712v-712h-114v712h114zM296 916l-132 -144h-93l81 144h144z" />
    <glyph glyph-name="Lcommaaccent" unicode="&#x13b;" horiz-adv-x="568" 
d="M208 712v-608h350v-104h-470v712h120zM377 -62v-96l-62 -106h-47l42 106h-40v96h107z" />
    <glyph glyph-name="lcommaaccent" unicode="&#x13c;" horiz-adv-x="260" 
d="M187 712v-712h-114v712h114zM184 -62v-96l-62 -106h-47l42 106h-40v96h107z" />
    <glyph glyph-name="Lcaron" unicode="&#x13d;" horiz-adv-x="568" 
d="M208 712v-608h350v-104h-470v712h120zM380 712l-57 -221h-66l28 221h95z" />
    <glyph glyph-name="lcaron" unicode="&#x13e;" horiz-adv-x="260" 
d="M187 712v-712h-114v712h114zM342 712l-57 -177h-66l28 177h95z" />
    <glyph glyph-name="Ldot" unicode="&#x13f;" horiz-adv-x="648" 
d="M208 712v-608h350v-104h-470v712h120zM533 493v-142h-132v142h132z" />
    <glyph glyph-name="ldot" unicode="&#x140;" horiz-adv-x="441" 
d="M187 712v-712h-114v712h114zM417 427v-142h-132v142h132z" />
    <glyph glyph-name="Lslash" unicode="&#x141;" horiz-adv-x="568" 
d="M208 104h350v-104h-470v292l-74 -44v102l74 44v318h120v-255l143 86v-103l-143 -86v-250z" />
    <glyph glyph-name="lslash" unicode="&#x142;" horiz-adv-x="309" 
d="M299 510v-97l-88 -52v-361h-114v307l-87 -52v97l87 52v308h114v-254z" />
    <glyph glyph-name="Nacute" unicode="&#x143;" horiz-adv-x="766" 
d="M677 712v-712h-172l-154 298q-81 158 -151 306h-2q6 -162 6 -324v-280h-116v712h173l153 -298q81 -158 151 -306h2q-5 180 -5 324v280h115zM532 902l-132 -142h-93l81 142h144z" />
    <glyph glyph-name="nacute" unicode="&#x144;" 
d="M335 520q88 0 136.5 -53t48.5 -156v-311h-114v301q0 127 -103 127q-51 0 -83.5 -38t-32.5 -108v-282h-114v508h108v-66h2q54 78 152 78zM446 712l-132 -144h-93l81 144h144z" />
    <glyph glyph-name="Ncommaaccent" unicode="&#x145;" horiz-adv-x="766" 
d="M677 712v-712h-172l-154 298q-81 158 -151 306h-2q6 -162 6 -324v-280h-116v712h173l153 -298q81 -158 151 -306h2q-5 180 -5 324v280h115zM437 -62v-96l-62 -106h-47l42 106h-40v96h107z" />
    <glyph glyph-name="ncommaaccent" unicode="&#x146;" 
d="M335 520q88 0 136.5 -53t48.5 -156v-311h-114v301q0 127 -103 127q-51 0 -83.5 -38t-32.5 -108v-282h-114v508h108v-66h2q54 78 152 78zM350 -62v-96l-62 -106h-47l42 106h-40v96h107z" />
    <glyph glyph-name="Ncaron" unicode="&#x147;" horiz-adv-x="766" 
d="M677 712v-712h-172l-154 298q-81 158 -151 306h-2q6 -162 6 -324v-280h-116v712h173l153 -298q81 -158 151 -306h2q-5 180 -5 324v280h115zM558 902l-114 -142h-123l-114 142h108l68 -82l67 82h108z" />
    <glyph glyph-name="ncaron" unicode="&#x148;" 
d="M335 520q88 0 136.5 -53t48.5 -156v-311h-114v301q0 127 -103 127q-51 0 -83.5 -38t-32.5 -108v-282h-114v508h108v-66h2q54 78 152 78zM472 712l-114 -144h-123l-114 144h108l68 -84l67 84h108z" />
    <glyph glyph-name="napostrophe" unicode="&#x149;" horiz-adv-x="722" 
d="M469 520q88 0 136.5 -53t48.5 -156v-311h-114v301q0 127 -103 127q-51 0 -83.5 -38t-32.5 -108v-282h-114v508h108v-66h2q54 78 152 78zM180 712v-125l-55 -140h-62l41 140h-39v125h115z" />
    <glyph glyph-name="Eng" unicode="&#x14a;" horiz-adv-x="745" 
d="M541 712h116v-737q0 -86 -43 -126.5t-118 -40.5q-26 0 -58 7v85q15 -3 30 -3q38 0 56 20t18 68v15l-194 324q-75 124 -149 261h-2q7 -133 7 -285v-300h-116v712h155l154 -258q91 -154 149 -262h2q-7 133 -7 285v235z" />
    <glyph glyph-name="eng" unicode="&#x14b;" 
d="M338 520q84 0 130 -49q52 -52 52 -173v-320q0 -86 -42.5 -126.5t-117.5 -40.5q-33 0 -58 7v85q14 -3 28 -3q39 0 57.5 20.5t18.5 71.5v296q0 66 -21 103.5t-81 37.5q-51 0 -84 -38t-33 -109v-282h-114v508h109v-66h2q52 78 154 78z" />
    <glyph glyph-name="Omacron" unicode="&#x14c;" horiz-adv-x="740" 
d="M370 727q153 0 241.5 -99.5t88.5 -271.5t-88.5 -271.5t-241.5 -99.5t-241.5 99.5t-88.5 271.5t88.5 271.5t241.5 99.5zM370 620q-95 0 -150.5 -71t-55.5 -193t55.5 -193t150.5 -71t150.5 71t55.5 193t-55.5 193t-150.5 71zM522 861v-78h-305v78h305z" />
    <glyph glyph-name="omacron" unicode="&#x14d;" horiz-adv-x="577" 
d="M289 523q115 0 182.5 -72.5t67.5 -196.5t-67.5 -196.5t-182.5 -72.5t-183 72.5t-68 196.5t68 196.5t183 72.5zM289 433q-61 0 -96 -48t-35 -131t35 -131t96 -48t96 48t35 131t-35 131t-96 48zM441 685v-78h-305v78h305z" />
    <glyph glyph-name="Obreve" unicode="&#x14e;" horiz-adv-x="740" 
d="M370 727q153 0 241.5 -99.5t88.5 -271.5t-88.5 -271.5t-241.5 -99.5t-241.5 99.5t-88.5 271.5t88.5 271.5t241.5 99.5zM370 620q-95 0 -150.5 -71t-55.5 -193t55.5 -193t150.5 -71t150.5 71t55.5 193t-55.5 193t-150.5 71zM455 902h81q-5 -70 -48.5 -108.5t-117.5 -38.5
q-73 0 -116.5 38.5t-48.5 108.5h80q8 -72 85 -72t85 72z" />
    <glyph glyph-name="obreve" unicode="&#x14f;" horiz-adv-x="577" 
d="M289 523q115 0 182.5 -72.5t67.5 -196.5t-67.5 -196.5t-182.5 -72.5t-183 72.5t-68 196.5t68 196.5t183 72.5zM289 433q-61 0 -96 -48t-35 -131t35 -131t96 -48t96 48t35 131t-35 131t-96 48zM373 712h81q-5 -70 -48.5 -108.5t-117.5 -38.5q-73 0 -116.5 38.5
t-48.5 108.5h80q8 -72 85 -72t85 72z" />
    <glyph glyph-name="Ohungarumlaut" unicode="&#x150;" horiz-adv-x="740" 
d="M370 727q153 0 241.5 -99.5t88.5 -271.5t-88.5 -271.5t-241.5 -99.5t-241.5 99.5t-88.5 271.5t88.5 271.5t241.5 99.5zM370 620q-95 0 -150.5 -71t-55.5 -193t55.5 -193t150.5 -71t150.5 71t55.5 193t-55.5 193t-150.5 71zM430 902l-138 -144h-92l101 144h129zM605 902
l-138 -144h-92l101 144h129z" />
    <glyph glyph-name="ohungarumlaut" unicode="&#x151;" horiz-adv-x="577" 
d="M289 523q115 0 182.5 -72.5t67.5 -196.5t-67.5 -196.5t-182.5 -72.5t-183 72.5t-68 196.5t68 196.5t183 72.5zM289 433q-61 0 -96 -48t-35 -131t35 -131t96 -48t96 48t35 131t-35 131t-96 48zM363 712l-138 -144h-92l101 144h129zM538 712l-138 -144h-92l101 144h129z
" />
    <glyph glyph-name="OE" unicode="&#x152;" horiz-adv-x="1010" 
d="M948 712v-104h-356v-193h334v-103h-334v-208h366v-104h-544q-179 0 -276.5 92.5t-97.5 263.5t97.5 263.5t276.5 92.5h534zM472 104v504h-58q-124 0 -187 -63.5t-63 -188.5t63 -188.5t187 -63.5h58z" />
    <glyph glyph-name="oe" unicode="&#x153;" horiz-adv-x="913" 
d="M641 69q45 0 74.5 23t36.5 61h116q-13 -72 -73.5 -120t-153.5 -48q-117 0 -178 88q-63 -88 -179 -88q-113 0 -179.5 72.5t-66.5 196.5t66.5 196.5t179.5 72.5q117 0 178 -87q63 87 177 87q83 0 142.5 -46.5t80.5 -126.5q13 -52 13 -119h-360q2 -82 36.5 -122t89.5 -40z
M284 75q58 0 92 48.5t34 130.5t-34 130.5t-92 48.5t-92 -48t-34 -131t34 -131t92 -48zM639 439q-50 0 -82.5 -34t-39.5 -99h244q-5 65 -38 99t-84 34z" />
    <glyph glyph-name="Racute" unicode="&#x154;" horiz-adv-x="653" 
d="M88 0v712h245q254 0 254 -197q0 -67 -35.5 -114t-96.5 -62v-2q38 -13 60 -41t46 -95l73 -201h-131l-60 179q-21 61 -49.5 84t-82.5 23h-103v-286h-120zM320 613h-112v-229h119q72 0 106 31.5t33 87.5q0 110 -146 110zM469 902l-132 -142h-93l81 142h144z" />
    <glyph glyph-name="racute" unicode="&#x155;" horiz-adv-x="377" 
d="M326 515q20 0 42 -5v-101q-19 4 -40 4q-68 0 -104.5 -42.5t-36.5 -121.5v-249h-114v508h106v-75h2q51 82 145 82zM357 712l-132 -144h-93l81 144h144z" />
    <glyph glyph-name="Rcommaaccent" unicode="&#x156;" horiz-adv-x="653" 
d="M88 0v712h245q254 0 254 -197q0 -67 -35.5 -114t-96.5 -62v-2q38 -13 60 -41t46 -95l73 -201h-131l-60 179q-21 61 -49.5 84t-82.5 23h-103v-286h-120zM320 613h-112v-229h119q72 0 106 31.5t33 87.5q0 110 -146 110zM397 -62v-96l-62 -106h-47l42 106h-40v96h107z" />
    <glyph glyph-name="rcommaaccent" unicode="&#x157;" horiz-adv-x="377" 
d="M326 515q20 0 42 -5v-101q-19 4 -40 4q-68 0 -104.5 -42.5t-36.5 -121.5v-249h-114v508h106v-75h2q51 82 145 82zM184 -62v-96l-62 -106h-47l42 106h-40v96h107z" />
    <glyph glyph-name="Rcaron" unicode="&#x158;" horiz-adv-x="653" 
d="M88 0v712h245q254 0 254 -197q0 -67 -35.5 -114t-96.5 -62v-2q38 -13 60 -41t46 -95l73 -201h-131l-60 179q-21 61 -49.5 84t-82.5 23h-103v-286h-120zM320 613h-112v-229h119q72 0 106 31.5t33 87.5q0 110 -146 110zM495 902l-114 -142h-123l-114 142h108l68 -82l67 82
h108z" />
    <glyph glyph-name="rcaron" unicode="&#x159;" horiz-adv-x="377" 
d="M326 515q20 0 42 -5v-101q-19 4 -40 4q-68 0 -104.5 -42.5t-36.5 -121.5v-249h-114v508h106v-75h2q51 82 145 82zM383 712l-114 -144h-123l-114 144h108l68 -84l67 84h108z" />
    <glyph glyph-name="Sacute" unicode="&#x15a;" horiz-adv-x="620" 
d="M295 727q129 0 195.5 -59.5t66.5 -174.5h-121q0 67 -37 101.5t-106 34.5q-58 0 -91.5 -25.5t-33.5 -69.5q0 -46 35 -68t128 -45q48 -12 78 -21t65.5 -26.5t55.5 -38.5t33.5 -54.5t13.5 -77.5q0 -99 -73 -158.5t-193 -59.5q-131 0 -204 64.5t-73 185.5h123
q0 -151 155 -151q66 0 103.5 29t37.5 79t-34 71t-127 44q-50 13 -78.5 21.5t-65.5 26t-56 38t-33 54t-14 76.5q0 91 68.5 147.5t181.5 56.5zM444 902l-132 -142h-93l81 142h144z" />
    <glyph glyph-name="sacute" unicode="&#x15b;" horiz-adv-x="509" 
d="M248 523q98 0 151.5 -44.5t54.5 -128.5h-110q0 90 -97 90q-40 0 -62 -16t-22 -44q0 -30 23 -43t92 -30q28 -7 35.5 -9t33 -9.5t34 -13t27.5 -15.5t26.5 -20.5t18 -25.5t14 -33.5t3.5 -40.5q0 -70 -58 -112.5t-155 -42.5q-104 0 -161.5 46.5t-58.5 135.5h116
q0 -47 27.5 -72t78.5 -25q43 0 67.5 17t24.5 46q0 36 -26 50.5t-102 33.5q-28 7 -37.5 9.5t-33.5 10t-34 14t-26.5 18.5t-23.5 25.5t-13 33t-6 43.5q0 68 55 110t144 42zM397 712l-132 -144h-93l81 144h144z" />
    <glyph glyph-name="Scircumflex" unicode="&#x15c;" horiz-adv-x="620" 
d="M295 727q129 0 195.5 -59.5t66.5 -174.5h-121q0 67 -37 101.5t-106 34.5q-58 0 -91.5 -25.5t-33.5 -69.5q0 -46 35 -68t128 -45q48 -12 78 -21t65.5 -26.5t55.5 -38.5t33.5 -54.5t13.5 -77.5q0 -99 -73 -158.5t-193 -59.5q-131 0 -204 64.5t-73 185.5h123
q0 -151 155 -151q66 0 103.5 29t37.5 79t-34 71t-127 44q-50 13 -78.5 21.5t-65.5 26t-56 38t-33 54t-14 76.5q0 91 68.5 147.5t181.5 56.5zM119 760l114 142h123l114 -142h-108l-68 82l-67 -82h-108z" />
    <glyph glyph-name="scircumflex" unicode="&#x15d;" horiz-adv-x="509" 
d="M248 523q98 0 151.5 -44.5t54.5 -128.5h-110q0 90 -97 90q-40 0 -62 -16t-22 -44q0 -30 23 -43t92 -30q28 -7 35.5 -9t33 -9.5t34 -13t27.5 -15.5t26.5 -20.5t18 -25.5t14 -33.5t3.5 -40.5q0 -70 -58 -112.5t-155 -42.5q-104 0 -161.5 46.5t-58.5 135.5h116
q0 -47 27.5 -72t78.5 -25q43 0 67.5 17t24.5 46q0 36 -26 50.5t-102 33.5q-28 7 -37.5 9.5t-33.5 10t-34 14t-26.5 18.5t-23.5 25.5t-13 33t-6 43.5q0 68 55 110t144 42zM423 568h-108l-67 84l-68 -84h-108l114 144h123z" />
    <glyph glyph-name="Scedilla" unicode="&#x15e;" horiz-adv-x="620" 
d="M577 203q0 -93 -65.5 -152t-175.5 -65l-30 -48q9 4 29 4q35 0 59 -20t24 -54q0 -39 -30.5 -65t-86.5 -26q-57 0 -109 29l20 40q39 -21 79 -21q53 0 53 38q0 18 -13.5 29t-37.5 11q-17 0 -32 -6l-19 21l43 68q-119 6 -185 70t-66 179h123q0 -151 155 -151q66 0 103.5 29
t37.5 79t-34 71t-127 44q-50 13 -78.5 21.5t-65.5 26t-56 38t-33 54t-14 76.5q0 91 68.5 147.5t181.5 56.5q129 0 195.5 -59.5t66.5 -174.5h-121q0 67 -37 101.5t-106 34.5q-58 0 -91.5 -25.5t-33.5 -69.5q0 -46 35 -68t128 -45q48 -12 78 -21t65.5 -26.5t55.5 -38.5
t33.5 -54.5t13.5 -77.5z" />
    <glyph glyph-name="scedilla" unicode="&#x15f;" horiz-adv-x="509" 
d="M470 140q0 -64 -49 -105.5t-134 -48.5l-30 -48q9 4 29 4q35 0 59 -20t24 -54q0 -39 -30.5 -65t-86.5 -26q-57 0 -109 29l20 40q39 -21 79 -21q53 0 53 38q0 18 -13.5 29t-37.5 11q-17 0 -32 -6l-19 21l43 68q-95 5 -146.5 50.5t-52.5 130.5h116q0 -47 27.5 -72t78.5 -25
q43 0 67.5 17t24.5 46q0 36 -26 50.5t-102 33.5q-28 7 -37.5 9.5t-33.5 10t-34 14t-26.5 18.5t-23.5 25.5t-13 33t-6 43.5q0 68 55 110t144 42q98 0 151.5 -44.5t54.5 -128.5h-110q0 90 -97 90q-40 0 -62 -16t-22 -44q0 -30 23 -43t92 -30q28 -7 35.5 -9t33 -9.5t34 -13
t27.5 -15.5t26.5 -20.5t18 -25.5t14 -33.5t3.5 -40.5z" />
    <glyph glyph-name="Scaron" unicode="&#x160;" horiz-adv-x="620" 
d="M295 727q129 0 195.5 -59.5t66.5 -174.5h-121q0 67 -37 101.5t-106 34.5q-58 0 -91.5 -25.5t-33.5 -69.5q0 -46 35 -68t128 -45q48 -12 78 -21t65.5 -26.5t55.5 -38.5t33.5 -54.5t13.5 -77.5q0 -99 -73 -158.5t-193 -59.5q-131 0 -204 64.5t-73 185.5h123
q0 -151 155 -151q66 0 103.5 29t37.5 79t-34 71t-127 44q-50 13 -78.5 21.5t-65.5 26t-56 38t-33 54t-14 76.5q0 91 68.5 147.5t181.5 56.5zM470 902l-114 -142h-123l-114 142h108l68 -82l67 82h108z" />
    <glyph glyph-name="scaron" unicode="&#x161;" horiz-adv-x="509" 
d="M248 523q98 0 151.5 -44.5t54.5 -128.5h-110q0 90 -97 90q-40 0 -62 -16t-22 -44q0 -30 23 -43t92 -30q28 -7 35.5 -9t33 -9.5t34 -13t27.5 -15.5t26.5 -20.5t18 -25.5t14 -33.5t3.5 -40.5q0 -70 -58 -112.5t-155 -42.5q-104 0 -161.5 46.5t-58.5 135.5h116
q0 -47 27.5 -72t78.5 -25q43 0 67.5 17t24.5 46q0 36 -26 50.5t-102 33.5q-28 7 -37.5 9.5t-33.5 10t-34 14t-26.5 18.5t-23.5 25.5t-13 33t-6 43.5q0 68 55 110t144 42zM423 712l-114 -144h-123l-114 144h108l68 -84l67 84h108z" />
    <glyph glyph-name="Tcedilla" unicode="&#x162;" horiz-adv-x="607" 
d="M597 712v-104h-234v-608h-119v608h-234v104h587zM358 -62v-96l-62 -106h-47l42 106h-40v96h107z" />
    <glyph glyph-name="tcedilla" unicode="&#x163;" horiz-adv-x="339" 
d="M277 87q22 0 35 5v-89q-31 -9 -64 -9q-81 0 -117.5 36.5t-36.5 119.5v271h-85v87h85v127h114v-127h99v-87h-99v-254q0 -43 16 -61.5t53 -18.5zM136 -158v96h107v-96l-62 -106h-47l42 106h-40z" />
    <glyph glyph-name="Tcaron" unicode="&#x164;" horiz-adv-x="607" 
d="M597 712v-104h-234v-608h-119v608h-234v104h587zM479 902l-114 -142h-123l-114 142h108l68 -82l67 82h108z" />
    <glyph glyph-name="tcaron" unicode="&#x165;" horiz-adv-x="339" 
d="M307 421h-99v-254q0 -43 16 -61.5t53 -18.5q22 0 35 5v-89q-31 -9 -64 -9q-81 0 -117.5 36.5t-36.5 119.5v271h-85v87h85v127h114v-127h99v-87zM363 712l-57 -177h-66l28 177h95z" />
    <glyph glyph-name="Tbar" unicode="&#x166;" horiz-adv-x="607" 
d="M597 608h-234v-204h139v-88h-139v-316h-119v316h-138v88h138v204h-234v104h587v-104z" />
    <glyph glyph-name="tbar" unicode="&#x167;" horiz-adv-x="337" 
d="M277 87q22 0 35 5v-89q-31 -9 -64 -9q-81 0 -117 36.5t-36 119.5v84h-83v71h83v116h-86v87h86v127h113v-127h99v-87h-99v-116h96v-71h-96v-67q0 -43 16 -61.5t53 -18.5z" />
    <glyph glyph-name="Utilde" unicode="&#x168;" horiz-adv-x="712" 
d="M510 712h119v-443q0 -138 -70.5 -211t-202.5 -73t-203 73t-71 211v443h120v-439q0 -89 40 -135t114 -46t114 46t40 135v439zM468 899h68q-3 -59 -31.5 -92t-77.5 -33q-34 0 -76 24.5t-61 24.5q-40 0 -46 -49h-68q3 59 32 92t78 33q34 0 76 -24t60 -24q42 0 46 48z" />
    <glyph glyph-name="utilde" unicode="&#x169;" 
d="M253 -12q-88 0 -136.5 53t-48.5 156v311h114v-301q0 -127 103 -127q51 0 83.5 38t32.5 108v282h114v-508h-108v66h-2q-54 -78 -152 -78zM406 709h68q-3 -59 -31.5 -92t-77.5 -33q-34 0 -76 24t-61 24q-40 0 -46 -48h-68q3 59 32 92t78 33q34 0 76 -24.5t60 -24.5
q41 0 46 49z" />
    <glyph glyph-name="Umacron" unicode="&#x16a;" horiz-adv-x="712" 
d="M510 712h119v-443q0 -138 -70.5 -211t-202.5 -73t-203 73t-71 211v443h120v-439q0 -89 40 -135t114 -46t114 46t40 135v439zM508 861v-78h-305v78h305z" />
    <glyph glyph-name="umacron" unicode="&#x16b;" 
d="M253 -12q-88 0 -136.5 53t-48.5 156v311h114v-301q0 -127 103 -127q51 0 83.5 38t32.5 108v282h114v-508h-108v66h-2q-54 -78 -152 -78zM446 685v-78h-305v78h305z" />
    <glyph glyph-name="Ubreve" unicode="&#x16c;" horiz-adv-x="712" 
d="M510 712h119v-443q0 -138 -70.5 -211t-202.5 -73t-203 73t-71 211v443h120v-439q0 -89 40 -135t114 -46t114 46t40 135v439zM441 902h81q-5 -70 -48.5 -108.5t-117.5 -38.5q-73 0 -116.5 38.5t-48.5 108.5h80q8 -72 85 -72t85 72z" />
    <glyph glyph-name="ubreve" unicode="&#x16d;" 
d="M253 -12q-88 0 -136.5 53t-48.5 156v311h114v-301q0 -127 103 -127q51 0 83.5 38t32.5 108v282h114v-508h-108v66h-2q-54 -78 -152 -78zM379 712h81q-5 -70 -48.5 -108.5t-117.5 -38.5q-73 0 -116.5 38.5t-48.5 108.5h80q8 -72 85 -72t85 72z" />
    <glyph glyph-name="Uring" unicode="&#x16e;" horiz-adv-x="712" 
d="M510 712h119v-443q0 -138 -70.5 -211t-202.5 -73t-203 73t-71 211v443h120v-439q0 -89 40 -135t114 -46t114 46t40 135v439zM356 959q44 0 74 -30.5t30 -73.5t-30 -73.5t-74 -30.5t-74 30.5t-30 73.5t30 73.5t74 30.5zM356 911q-23 0 -39.5 -16.5t-16.5 -39.5t16.5 -39.5
t39.5 -16.5t39.5 16.5t16.5 39.5t-16.5 39.5t-39.5 16.5z" />
    <glyph glyph-name="uring" unicode="&#x16f;" 
d="M253 -12q-88 0 -136.5 53t-48.5 156v311h114v-301q0 -127 103 -127q51 0 83.5 38t32.5 108v282h114v-508h-108v66h-2q-54 -78 -152 -78zM294 769q44 0 74 -30.5t30 -73.5t-30 -73.5t-74 -30.5t-74 30.5t-30 73.5t30 73.5t74 30.5zM294 721q-23 0 -39.5 -16.5t-16.5 -39.5
t16.5 -39.5t39.5 -16.5t39.5 16.5t16.5 39.5t-16.5 39.5t-39.5 16.5z" />
    <glyph glyph-name="Uhungarumlaut" unicode="&#x170;" horiz-adv-x="712" 
d="M510 712h119v-443q0 -138 -70.5 -211t-202.5 -73t-203 73t-71 211v443h120v-439q0 -89 40 -135t114 -46t114 46t40 135v439zM416 902l-138 -144h-92l101 144h129zM591 902l-138 -144h-92l101 144h129z" />
    <glyph glyph-name="uhungarumlaut" unicode="&#x171;" 
d="M253 -12q-88 0 -136.5 53t-48.5 156v311h114v-301q0 -127 103 -127q51 0 83.5 38t32.5 108v282h114v-508h-108v66h-2q-54 -78 -152 -78zM368 712l-138 -144h-92l101 144h129zM543 712l-138 -144h-92l101 144h129z" />
    <glyph glyph-name="Uogonek" unicode="&#x172;" horiz-adv-x="712" 
d="M510 712h119v-443q0 -165 -114 -256q-71 -54 -71 -101q0 -40 38 -40q20 0 37 6v-62q-27 -11 -68 -11q-106 0 -106 87q0 28 13.5 50t43.5 46v2q-23 -5 -46 -5q-132 0 -203 73t-71 211v443h120v-439q0 -89 40 -135t114 -46t114 46t40 135v439z" />
    <glyph glyph-name="uogonek" unicode="&#x173;" 
d="M480 -128q20 0 37 6v-62q-27 -11 -68 -11q-106 0 -106 83q0 32 18.5 57t59.5 55h-14v66h-2q-54 -78 -152 -78q-88 0 -136.5 53t-48.5 156v311h114v-301q0 -127 103 -127q51 0 83.5 38t32.5 108v282h114v-508h-1q-72 -51 -72 -95q0 -33 38 -33z" />
    <glyph glyph-name="Wcircumflex" unicode="&#x174;" horiz-adv-x="936" 
d="M926 712l-157 -712h-161l-71 296q-40 168 -68 313h-2q-28 -145 -68 -313l-71 -296h-161l-157 712h118l58 -274q39 -180 63 -321h2q37 176 72 322l66 273h158l66 -273q35 -146 72 -322h2q21 123 62 321l59 274h118zM291 760l114 142h123l114 -142h-108l-68 82l-67 -82
h-108z" />
    <glyph glyph-name="wcircumflex" unicode="&#x175;" horiz-adv-x="790" 
d="M784 508l-124 -508h-163l-52 210q-24 97 -49 219h-2q-25 -122 -49 -219l-52 -210h-163l-124 508h114l46 -204q28 -120 46 -225h2q19 93 50 221l51 208h160l51 -208q31 -128 50 -221h2q18 105 46 225l46 204h114zM570 568h-108l-67 84l-68 -84h-108l114 144h123z" />
    <glyph glyph-name="Ycircumflex" unicode="&#x176;" horiz-adv-x="626" 
d="M622 712l-249 -426v-286h-120v286l-250 426h136l78 -141q50 -90 95 -184h2q48 100 96 184l77 141h135zM137 760l114 142h123l114 -142h-108l-68 82l-67 -82h-108z" />
    <glyph glyph-name="ycircumflex" unicode="&#x177;" horiz-adv-x="488" 
d="M376 508h118l-196 -530q-36 -96 -84.5 -132t-137.5 -36q-31 0 -57 7v93q23 -7 48 -7q46 0 70.5 20t42.5 73l-186 512h122l127 -378h2zM419 568h-108l-67 84l-68 -84h-108l114 144h123z" />
    <glyph glyph-name="Ydieresis" unicode="&#x178;" horiz-adv-x="626" 
d="M622 712l-249 -426v-286h-120v286l-250 426h136l78 -141q50 -90 95 -184h2q48 100 96 184l77 141h135zM261 881v-109h-102v109h102zM467 881v-109h-102v109h102z" />
    <glyph glyph-name="Zacute" unicode="&#x179;" horiz-adv-x="574" 
d="M537 712v-109l-376 -499v-2h394v-102h-536v109l376 499v2h-362v102h504zM434 902l-132 -142h-93l81 142h144z" />
    <glyph glyph-name="zacute" unicode="&#x17a;" horiz-adv-x="476" 
d="M439 508v-95l-274 -320v-2h284v-91h-422v95l274 320v2h-264v91h402zM379 712l-132 -144h-93l81 144h144z" />
    <glyph glyph-name="Zdotaccent" unicode="&#x17b;" horiz-adv-x="574" 
d="M537 712v-109l-376 -499v-2h394v-102h-536v109l376 499v2h-362v102h504zM342 878v-109h-114v109h114z" />
    <glyph glyph-name="zdotaccent" unicode="&#x17c;" horiz-adv-x="476" 
d="M439 508v-95l-274 -320v-2h284v-91h-422v95l274 320v2h-264v91h402zM287 712v-109h-114v109h114z" />
    <glyph glyph-name="Zcaron" unicode="&#x17d;" horiz-adv-x="574" 
d="M537 712v-109l-376 -499v-2h394v-102h-536v109l376 499v2h-362v102h504zM460 902l-114 -142h-123l-114 142h108l68 -82l67 82h108z" />
    <glyph glyph-name="zcaron" unicode="&#x17e;" horiz-adv-x="476" 
d="M439 508v-95l-274 -320v-2h284v-91h-422v95l274 320v2h-264v91h402zM405 712l-114 -144h-123l-114 144h108l68 -84l67 84h108z" />
    <glyph glyph-name="longs" unicode="&#x17f;" horiz-adv-x="323" 
d="M252 719q25 0 60 -7v-84q-14 4 -28 4q-37 0 -55 -19.5t-18 -63.5v-549h-113v421h-86v87h86v54q0 157 154 157z" />
    <glyph glyph-name="Schwa" unicode="&#x18f;" horiz-adv-x="752" 
d="M365 727q161 0 254.5 -100t93.5 -270q0 -164 -92.5 -268t-248.5 -104q-153 0 -242.5 100t-89.5 270q0 22 2 42h546q-6 112 -67.5 168.5t-156.5 56.5q-73 0 -119 -34.5t-59 -90.5h-128q21 100 100.5 165t206.5 65zM372 92q88 0 145 53.5t68 150.5h-420q10 -99 66.5 -151.5
t140.5 -52.5z" />
    <glyph glyph-name="florin" unicode="&#x192;" horiz-adv-x="581" 
d="M492 721q38 0 68 -8v-91q-19 6 -47 6q-43 0 -66.5 -22t-36.5 -76l-16 -62h110v-86h-130l-97 -382q-26 -105 -70.5 -147.5t-127.5 -42.5q-35 0 -57 7v91q18 -6 44 -6q40 0 61.5 22t38.5 86l94 372h-101v86h121l19 72q24 96 69 138.5t124 42.5z" />
    <glyph glyph-name="Aringacute" unicode="&#x1fa;" horiz-adv-x="687" 
d="M557 0l-66 193h-295l-66 -193h-126l259 712h161l259 -712h-126zM232 297h223l-19 56q-60 178 -92 283h-2q-53 -174 -91 -283zM343 733q-43 0 -73.5 30.5t-30.5 73.5t30.5 73.5t73.5 30.5q44 0 74.5 -30.5t30.5 -73.5t-30.5 -73.5t-74.5 -30.5zM343 893q-23 0 -39.5 -16.5
t-16.5 -39.5t16.5 -39.5t39.5 -16.5q24 0 40 16.5t16 39.5t-16 39.5t-40 16.5zM492 1105l-131 -143h-94l82 143h143z" />
    <glyph glyph-name="aringacute" unicode="&#x1fb;" horiz-adv-x="539" 
d="M263 523q102 0 155.5 -50t53.5 -149v-190q0 -82 13 -134h-103q-7 31 -7 71h-2q-56 -82 -171 -82q-78 0 -125 42.5t-47 108.5q0 65 44.5 104t150.5 56q64 11 137 15v20q0 105 -99 105q-46 0 -72 -24t-28 -65h-112q4 76 58.5 124t153.5 48zM362 216v25q-65 -4 -117 -13
q-55 -9 -77.5 -27t-22.5 -53q0 -34 23.5 -54.5t66.5 -20.5q58 0 92 34q20 21 27.5 44.5t7.5 64.5zM257 754q43 0 73.5 -30t30.5 -74t-30.5 -74t-73.5 -30t-73.5 30t-30.5 74t30.5 74t73.5 30zM257 706q-23 0 -39.5 -16.5t-16.5 -39.5t16.5 -39.5t39.5 -16.5t39.5 16.5
t16.5 39.5t-16.5 39.5t-39.5 16.5zM406 922l-132 -145h-93l81 145h144z" />
    <glyph glyph-name="AEacute" unicode="&#x1fc;" horiz-adv-x="951" 
d="M616 104h284v-104h-385l-30 202h-264l-92 -202h-135l340 712h556v-104h-348l28 -193h298v-103h-283zM268 304h202l-45 310h-15zM662 902l-132 -142h-93l81 142h144z" />
    <glyph glyph-name="aeacute" unicode="&#x1fd;" horiz-adv-x="871" 
d="M600 69q45 0 74 23t36 61h117q-13 -72 -73.5 -120t-153.5 -48q-123 0 -185 98q-60 -98 -196 -98q-86 0 -137.5 43.5t-51.5 111.5q0 163 245 163h94v32q0 105 -102 105q-48 0 -74.5 -24t-28.5 -65h-113q5 76 60.5 124t155.5 48q117 0 168 -69q63 69 163 69
q83 0 142.5 -46.5t80.5 -126.5q12 -48 12 -119h-359q2 -82 36.5 -122t89.5 -40zM369 216v15h-81q-79 0 -111 -20.5t-32 -62.5q0 -36 24.5 -57.5t67.5 -21.5q61 0 95 36q21 21 29 45t8 66zM598 439q-51 0 -83.5 -35t-39.5 -101h244q-4 66 -37 101t-84 35zM581 712l-132 -144
h-93l81 144h144z" />
    <glyph glyph-name="Oslashacute" unicode="&#x1fe;" horiz-adv-x="740" 
d="M622 750l55 -43l-62 -83q85 -99 85 -268q0 -172 -88.5 -271.5t-241.5 -99.5q-113 0 -192 56l-59 -79l-56 44l62 83q-85 99 -85 267q0 172 88.5 271.5t241.5 99.5q112 0 193 -56zM160 356q0 -103 38 -170l298 396q-52 43 -126 43q-97 0 -153.5 -72t-56.5 -197zM370 87
q97 0 153.5 72t56.5 197q0 103 -38 170l-297 -396q51 -43 125 -43zM519 902l-132 -142h-93l81 142h144z" />
    <glyph glyph-name="oslashacute" unicode="&#x1ff;" horiz-adv-x="578" 
d="M479 555l48 -37l-53 -70q66 -72 66 -194q0 -124 -68 -196.5t-183 -72.5q-81 0 -138 36l-51 -68l-48 36l53 70q-67 72 -67 195q0 124 68 196.5t183 72.5q80 0 139 -36zM289 437q-63 0 -100 -49.5t-37 -133.5q0 -62 20 -105l197 260q-34 28 -80 28zM289 71q63 0 100 49
t37 134q0 57 -20 105l-197 -261q33 -27 80 -27zM438 712l-132 -144h-93l81 144h144z" />
    <glyph glyph-name="Scommaaccent" unicode="&#x218;" horiz-adv-x="620" 
d="M295 727q129 0 195.5 -59.5t66.5 -174.5h-121q0 67 -37 101.5t-106 34.5q-58 0 -91.5 -25.5t-33.5 -69.5q0 -46 35 -68t128 -45q48 -12 78 -21t65.5 -26.5t55.5 -38.5t33.5 -54.5t13.5 -77.5q0 -99 -73 -158.5t-193 -59.5q-131 0 -204 64.5t-73 185.5h123
q0 -151 155 -151q66 0 103.5 29t37.5 79t-34 71t-127 44q-50 13 -78.5 21.5t-65.5 26t-56 38t-33 54t-14 76.5q0 91 68.5 147.5t181.5 56.5zM359 -62v-96l-62 -106h-47l42 106h-40v96h107z" />
    <glyph glyph-name="scommaaccent" unicode="&#x219;" horiz-adv-x="509" 
d="M248 523q98 0 151.5 -44.5t54.5 -128.5h-110q0 90 -97 90q-40 0 -62 -16t-22 -44q0 -30 23 -43t92 -30q28 -7 35.5 -9t33 -9.5t34 -13t27.5 -15.5t26.5 -20.5t18 -25.5t14 -33.5t3.5 -40.5q0 -70 -58 -112.5t-155 -42.5q-104 0 -161.5 46.5t-58.5 135.5h116
q0 -47 27.5 -72t78.5 -25q43 0 67.5 17t24.5 46q0 36 -26 50.5t-102 33.5q-28 7 -37.5 9.5t-33.5 10t-34 14t-26.5 18.5t-23.5 25.5t-13 33t-6 43.5q0 68 55 110t144 42zM310 -62v-96l-62 -106h-47l42 106h-40v96h107z" />
    <glyph glyph-name="Tcommaaccent" unicode="&#x21a;" horiz-adv-x="607" 
d="M597 712v-104h-234v-608h-119v608h-234v104h587zM358 -62v-96l-62 -106h-47l42 106h-40v96h107z" />
    <glyph glyph-name="tcommaaccent" unicode="&#x21b;" horiz-adv-x="339" 
d="M277 87q22 0 35 5v-89q-31 -9 -64 -9q-81 0 -117.5 36.5t-36.5 119.5v271h-85v87h85v127h114v-127h99v-87h-99v-254q0 -43 16 -61.5t53 -18.5zM136 -158v96h107v-96l-62 -106h-47l42 106h-40z" />
    <glyph glyph-name="dotlessj" unicode="&#x237;" horiz-adv-x="264" 
d="M77 508h114v-528q0 -88 -42.5 -129t-117.5 -41q-27 0 -58 7v85q13 -3 28 -3q39 0 57.5 21.5t18.5 74.5v513z" />
    <glyph glyph-name="schwa" unicode="&#x259;" horiz-adv-x="562" 
d="M274 523q117 0 183.5 -73.5t66.5 -195.5q0 -118 -66 -193.5t-179 -75.5q-111 0 -176 72.5t-65 196.5q0 15 2 29h371q-3 79 -40.5 117.5t-96.5 38.5q-44 0 -72 -22.5t-35 -58.5h-117q15 71 73.5 118t150.5 47zM279 69q54 0 88.5 36t41.5 103h-257q6 -68 40.5 -103.5
t86.5 -35.5z" />
    <glyph glyph-name="apostrophemod" unicode="&#x2bc;" horiz-adv-x="246" 
d="M180 712v-125l-55 -140h-62l41 140h-39v125h115z" />
    <glyph glyph-name="circumflex" unicode="&#x2c6;" horiz-adv-x="451" 
d="M401 568h-108l-67 84l-68 -84h-108l114 144h123z" />
    <glyph glyph-name="caron" unicode="&#x2c7;" horiz-adv-x="451" 
d="M401 712l-114 -144h-123l-114 144h108l68 -84l67 84h108z" />
    <glyph glyph-name="firsttonechinese" unicode="&#x2c9;" horiz-adv-x="405" 
d="M355 685v-78h-305v78h305z" />
    <glyph glyph-name="breve" unicode="&#x2d8;" horiz-adv-x="431" 
d="M300 712h81q-5 -70 -48.5 -108.5t-117.5 -38.5q-73 0 -116.5 38.5t-48.5 108.5h80q8 -72 85 -72t85 72z" />
    <glyph glyph-name="dotaccent" unicode="&#x2d9;" horiz-adv-x="214" 
d="M164 712v-109h-114v109h114z" />
    <glyph glyph-name="ring" unicode="&#x2da;" horiz-adv-x="308" 
d="M154 769q44 0 74 -30.5t30 -73.5t-30 -73.5t-74 -30.5t-74 30.5t-30 73.5t30 73.5t74 30.5zM154 721q-23 0 -39.5 -16.5t-16.5 -39.5t16.5 -39.5t39.5 -16.5t39.5 16.5t16.5 39.5t-16.5 39.5t-39.5 16.5z" />
    <glyph glyph-name="ogonek" unicode="&#x2db;" horiz-adv-x="274" 
d="M129 1l92 -1q-72 -51 -72 -95q0 -33 38 -33q21 0 37 6v-62q-27 -11 -68 -11q-106 0 -106 83q0 32 19 58t60 55z" />
    <glyph glyph-name="tilde" unicode="&#x2dc;" horiz-adv-x="460" 
d="M342 709h68q-3 -59 -31.5 -92t-77.5 -33q-34 0 -76 24t-61 24q-40 0 -46 -48h-68q3 59 32 92t78 33q34 0 76 -24.5t60 -24.5q41 0 46 49z" />
    <glyph glyph-name="hungarumlaut" unicode="&#x2dd;" horiz-adv-x="505" 
d="M280 712l-138 -144h-92l101 144h129zM455 712l-138 -144h-92l101 144h129z" />
    <glyph glyph-name="commaturnedabovecomb" unicode="&#x312;" horiz-adv-x="0" 
d="M159 782l-42 -106h39v-96h-106v96l62 106h47z" />
    <glyph glyph-name="commaaccent" unicode="&#x326;" horiz-adv-x="0" 
d="M159 -62v-96l-62 -106h-47l42 106h-40v96h107z" />
    <glyph glyph-name="dbllowlinecomb" unicode="&#x333;" horiz-adv-x="0" 
d="M-500 -50v-60h-500v60h500zM-500 -187v-60h-500v60h500z" />
    <glyph glyph-name="numeralgreek" unicode="&#x374;" horiz-adv-x="197" 
d="M167 712l-64 -204h-73l33 204h104z" />
    <glyph glyph-name="lowernumeralgreek" unicode="&#x375;" horiz-adv-x="197" 
d="M167 112l-64 -204h-73l33 204h104z" />
    <glyph glyph-name="questiongreek" unicode="&#x37e;" horiz-adv-x="242" 
d="M187 508v-142h-132v142h132zM187 142v-142l-63 -158h-71l46 158h-44v142h132z" />
    <glyph glyph-name="tonos" unicode="&#x384;" horiz-adv-x="250" 
d="M200 732l-64 -162h-87l39 162h112z" />
    <glyph glyph-name="dieresistonos" unicode="&#x385;" horiz-adv-x="499" 
d="M145 692v-109h-95v109h95zM319 721l-52 -151h-79l35 151h96zM449 692v-109h-95v109h95z" />
    <glyph glyph-name="Alphatonos" unicode="&#x386;" horiz-adv-x="687" 
d="M557 0l-66 193h-295l-66 -193h-126l259 712h161l259 -712h-126zM232 297h223l-19 56q-60 178 -92 283h-2q-53 -174 -91 -283zM175 712l-64 -202h-87l39 202h112z" />
    <glyph glyph-name="anoteleia" unicode="&#x387;" horiz-adv-x="242" 
d="M187 508v-142h-132v142h132z" />
    <glyph glyph-name="Epsilontonos" unicode="&#x388;" horiz-adv-x="625" 
d="M564 712v-104h-356v-193h334v-103h-334v-208h366v-104h-486v712h476zM36 712l-64 -202h-87l39 202h112z" />
    <glyph glyph-name="Etatonos" unicode="&#x389;" horiz-adv-x="744" 
d="M655 712v-712h-119v318h-328v-318h-120v712h120v-290h328v290h119zM36 712l-64 -202h-87l39 202h112z" />
    <glyph glyph-name="Iotatonos" unicode="&#x38a;" horiz-adv-x="296" 
d="M208 712v-712h-120v712h120zM36 712l-64 -202h-87l39 202h112z" />
    <glyph glyph-name="Omicrontonos" unicode="&#x38c;" horiz-adv-x="740" 
d="M370 727q153 0 241.5 -99.5t88.5 -271.5t-88.5 -271.5t-241.5 -99.5t-241.5 99.5t-88.5 271.5t88.5 271.5t241.5 99.5zM370 620q-95 0 -150.5 -71t-55.5 -193t55.5 -193t150.5 -71t150.5 71t55.5 193t-55.5 193t-150.5 71zM75 712l-64 -202h-87l39 202h112z" />
    <glyph glyph-name="Upsilontonos" unicode="&#x38e;" horiz-adv-x="626" 
d="M622 712l-249 -426v-286h-120v286l-250 426h136l78 -141q50 -90 95 -184h2q48 100 96 184l77 141h135zM-22 712l-64 -202h-87l39 202h112z" />
    <glyph glyph-name="Omegatonos" unicode="&#x38f;" horiz-adv-x="731" 
d="M366 727q146 0 233 -80t87 -235q0 -91 -39 -164t-110 -144v-2h160v-102h-275v107q68 69 104 136t36 153q0 110 -53.5 167t-142.5 57t-142.5 -57t-53.5 -167q0 -86 36 -153t103 -136v-107h-275v102h160v2q-71 72 -110 144.5t-39 163.5q0 155 87.5 235t233.5 80zM68 712
l-64 -202h-87l39 202h112z" />
    <glyph glyph-name="iotadieresistonos" unicode="&#x390;" horiz-adv-x="297" 
d="M68 508h114v-324q0 -52 15.5 -74.5t52.5 -22.5q21 0 36 5v-90q-27 -8 -65 -8q-81 0 -117 40t-36 132v342zM21 692v-109h-95v109h95zM195 721l-52 -151h-79l35 151h96zM325 692v-109h-95v109h95z" />
    <glyph glyph-name="Alpha" unicode="&#x391;" horiz-adv-x="687" 
d="M557 0l-66 193h-295l-66 -193h-126l259 712h161l259 -712h-126zM232 297h223l-19 56q-60 178 -92 283h-2q-53 -174 -91 -283z" />
    <glyph glyph-name="Beta" unicode="&#x392;" horiz-adv-x="638" 
d="M88 0v712h245q124 0 186.5 -49t62.5 -133q0 -121 -121 -166v-2q137 -32 137 -167q0 -90 -65 -142.5t-180 -52.5h-265zM327 314h-119v-214h127q73 0 107 26t34 80t-35.5 81t-113.5 27zM332 613h-124v-203h118q140 0 140 102q0 101 -134 101z" />
    <glyph glyph-name="Gamma" unicode="&#x393;" horiz-adv-x="498" 
d="M208 0h-120v712h400v-104h-280v-608z" />
    <glyph glyph-name="Delta" unicode="&#x394;" horiz-adv-x="687" 
d="M426 712l257 -712h-679l260 712h162zM165 104h355l-85 249q-49 146 -91 283h-2q-32 -105 -92 -283z" />
    <glyph glyph-name="Epsilon" unicode="&#x395;" horiz-adv-x="625" 
d="M564 712v-104h-356v-193h334v-103h-334v-208h366v-104h-486v712h476z" />
    <glyph glyph-name="Zeta" unicode="&#x396;" horiz-adv-x="574" 
d="M537 712v-109l-376 -499v-2h394v-102h-536v109l376 499v2h-362v102h504z" />
    <glyph glyph-name="Eta" unicode="&#x397;" horiz-adv-x="744" 
d="M655 712v-712h-119v318h-328v-318h-120v712h120v-290h328v290h119z" />
    <glyph glyph-name="Theta" unicode="&#x398;" horiz-adv-x="740" 
d="M370 727q153 0 241.5 -99.5t88.5 -270.5q0 -172 -88.5 -272t-241.5 -100t-241.5 100t-88.5 272q0 171 88.5 270.5t241.5 99.5zM370 624q-97 0 -153.5 -72t-56.5 -195q0 -124 56.5 -196t153.5 -72t153.5 72t56.5 196q0 123 -56.5 195t-153.5 72zM508 405v-97h-276v97h276z
" />
    <glyph glyph-name="Iota" unicode="&#x399;" horiz-adv-x="296" 
d="M208 712v-712h-120v712h120z" />
    <glyph glyph-name="Kappa" unicode="&#x39a;" horiz-adv-x="644" 
d="M614 712l-291 -339l317 -373h-155l-275 343h-2v-343h-120v712h120v-317h2l260 317h144z" />
    <glyph glyph-name="Lambda" unicode="&#x39b;" horiz-adv-x="672" 
d="M418 712l250 -712h-130l-115 349q-41 124 -86 281h-2q-45 -157 -86 -281l-115 -349h-130l250 712h164z" />
    <glyph glyph-name="Mu" unicode="&#x39c;" horiz-adv-x="959" 
d="M871 712v-712h-116v358q0 150 4 270h-2q-35 -117 -86 -268l-123 -360h-137l-123 360q-51 151 -86 268h-2q4 -120 4 -270v-358h-116v712h193l115 -339q47 -137 82 -268h2q39 139 83 268l115 339h193z" />
    <glyph glyph-name="Nu" unicode="&#x39d;" horiz-adv-x="766" 
d="M677 712v-712h-172l-154 298q-81 158 -151 306h-2q6 -162 6 -324v-280h-116v712h173l153 -298q81 -158 151 -306h2q-5 180 -5 324v280h115z" />
    <glyph glyph-name="Xi" unicode="&#x39e;" horiz-adv-x="668" 
d="M615 120v-120h-562v120h562zM584 418v-120h-500v120h500zM601 712v-120h-534v120h534z" />
    <glyph glyph-name="Omicron" unicode="&#x39f;" horiz-adv-x="740" 
d="M370 727q153 0 241.5 -99.5t88.5 -271.5t-88.5 -271.5t-241.5 -99.5t-241.5 99.5t-88.5 271.5t88.5 271.5t241.5 99.5zM370 620q-95 0 -150.5 -71t-55.5 -193t55.5 -193t150.5 -71t150.5 71t55.5 193t-55.5 193t-150.5 71z" />
    <glyph glyph-name="Pi" unicode="&#x3a0;" horiz-adv-x="733" 
d="M645 712v-712h-119v608h-318v-608h-120v712h557z" />
    <glyph glyph-name="Rho" unicode="&#x3a1;" horiz-adv-x="626" 
d="M88 0v712h257q123 0 189 -60t66 -162q0 -103 -66 -163t-189 -60h-137v-267h-120zM331 611h-123v-243h123q146 0 146 122q0 121 -146 121z" />
    <glyph glyph-name="Sigma" unicode="&#x3a3;" horiz-adv-x="573" 
d="M540 712v-102h-361v-2l182 -246l-195 -257v-3h388v-102h-532v106l195 256l-184 248v102h507z" />
    <glyph glyph-name="Tau" unicode="&#x3a4;" horiz-adv-x="607" 
d="M597 712v-104h-234v-608h-119v608h-234v104h587z" />
    <glyph glyph-name="Upsilon" unicode="&#x3a5;" horiz-adv-x="626" 
d="M622 712l-249 -426v-286h-120v286l-250 426h136l78 -141q50 -90 95 -184h2q48 100 96 184l77 141h135z" />
    <glyph glyph-name="Phi" unicode="&#x3a6;" horiz-adv-x="812" 
d="M348 740h116v-70q146 -8 227 -87t81 -224q0 -144 -81.5 -223.5t-226.5 -87.5v-76h-116v76q-146 8 -227 88t-81 226q0 144 81 222t227 86v70zM348 148v422q-89 -5 -137 -57.5t-48 -150.5q0 -100 48 -154.5t137 -59.5zM464 570v-422q88 5 136.5 59t48.5 152q0 99 -48 152.5
t-137 58.5z" />
    <glyph glyph-name="Chi" unicode="&#x3a7;" horiz-adv-x="626" 
d="M608 712l-222 -348l234 -364h-140l-166 272h-2l-166 -272h-141l235 364l-223 348h139l156 -261h2l156 261h138z" />
    <glyph glyph-name="Psi" unicode="&#x3a8;" horiz-adv-x="811" 
d="M648 712h120v-225q0 -156 -73.5 -231.5t-229.5 -83.5v-172h-119v172q-156 8 -229.5 83.5t-73.5 231.5v225h120v-222q0 -109 42 -158t141 -54v434h119v-434q100 5 141.5 54t41.5 158v222z" />
    <glyph glyph-name="Omega" unicode="&#x3a9;" horiz-adv-x="731" 
d="M366 727q146 0 233 -80t87 -235q0 -91 -39 -164t-110 -144v-2h160v-102h-275v107q68 69 104 136t36 153q0 110 -53.5 167t-142.5 57t-142.5 -57t-53.5 -167q0 -86 36 -153t103 -136v-107h-275v102h160v2q-71 72 -110 144.5t-39 163.5q0 155 87.5 235t233.5 80z" />
    <glyph glyph-name="Iotadieresis" unicode="&#x3aa;" horiz-adv-x="296" 
d="M208 712v-712h-120v712h120zM96 916v-109h-102v109h102zM302 916v-109h-102v109h102z" />
    <glyph glyph-name="Upsilondieresis" unicode="&#x3ab;" horiz-adv-x="626" 
d="M622 712l-249 -426v-286h-120v286l-250 426h136l78 -141q50 -90 95 -184h2q48 100 96 184l77 141h135zM261 881v-109h-102v109h102zM467 881v-109h-102v109h102z" />
    <glyph glyph-name="alphatonos" unicode="&#x3ac;" horiz-adv-x="600" 
d="M250 521q49 0 90 -23t63 -64h2q2 40 8 74h111q-10 -72 -10 -180v-172q0 -41 10.5 -57t34.5 -16q12 0 24 3v-83q-30 -10 -72 -10q-90 0 -105 82h-2q-22 -41 -63.5 -64t-91.5 -23q-97 0 -154 72t-57 194t57.5 194.5t154.5 72.5zM283 432q-58 0 -92 -48.5t-34 -129.5
t34 -129.5t92 -48.5q56 0 89.5 48t33.5 130q0 83 -33.5 130.5t-89.5 47.5zM390 732l-64 -162h-87l39 162h112z" />
    <glyph glyph-name="epsilontonos" unicode="&#x3ad;" horiz-adv-x="505" 
d="M249 523q99 0 155.5 -46t56.5 -127h-114q0 86 -95 86q-40 0 -63 -18t-23 -50t27 -51t73 -19h50v-85h-50q-112 0 -112 -73q0 -31 26.5 -49.5t70.5 -18.5q105 0 105 89h115q0 -86 -57 -131t-163 -45q-97 0 -154 40t-57 111q0 93 103 125v2q-90 32 -90 115q0 67 53 106
t143 39zM354 732l-64 -162h-87l39 162h112z" />
    <glyph glyph-name="etatonos" unicode="&#x3ae;" horiz-adv-x="601" 
d="M353 520q86 0 133 -53t47 -157v-495h-114v483q0 132 -102 132q-51 0 -83.5 -39t-32.5 -108v-283h-114v348q0 44 -11 61.5t-35 17.5q-13 0 -24 -3v80q33 11 67 11q88 0 103 -89h2q54 94 164 94zM373 732l-64 -162h-87l39 162h112z" />
    <glyph glyph-name="iotatonos" unicode="&#x3af;" horiz-adv-x="297" 
d="M68 508h114v-324q0 -52 15.5 -74.5t52.5 -22.5q21 0 36 5v-90q-27 -8 -65 -8q-81 0 -117 40t-36 132v342zM231 732l-64 -162h-87l39 162h112z" />
    <glyph glyph-name="upsilondieresistonos" unicode="&#x3b0;" horiz-adv-x="589" 
d="M83 515q61 0 89 -32.5t28 -113.5v-181q0 -112 102 -112q121 0 121 181q0 140 -36 251h111q38 -116 38 -259q0 -128 -57.5 -196t-174.5 -68q-219 0 -219 194v164q0 47 -10.5 64t-34.5 17q-13 0 -25 -3v83q35 11 68 11zM177 692v-109h-95v109h95zM351 721l-52 -151h-79
l35 151h96zM481 692v-109h-95v109h95z" />
    <glyph glyph-name="alpha" unicode="&#x3b1;" horiz-adv-x="600" 
d="M250 521q49 0 90 -23t63 -64h2q2 40 8 74h111q-10 -72 -10 -180v-172q0 -41 10.5 -57t34.5 -16q12 0 24 3v-83q-30 -10 -72 -10q-90 0 -105 82h-2q-22 -41 -63.5 -64t-91.5 -23q-97 0 -154 72t-57 194t57.5 194.5t154.5 72.5zM283 432q-58 0 -92 -48.5t-34 -129.5
t34 -129.5t92 -48.5q56 0 89.5 48t33.5 130q0 83 -33.5 130.5t-89.5 47.5z" />
    <glyph glyph-name="beta" unicode="&#x3b2;" horiz-adv-x="595" 
d="M302 727q102 0 160.5 -48t58.5 -130q0 -129 -125 -163v-2q163 -31 163 -190q0 -94 -61 -149t-166 -55t-143 60h-2v-235h-114l1 664q0 120 59 184t169 64zM305 639q-61 0 -89.5 -38t-28.5 -119v-290q0 -54 30.5 -84t92.5 -30t97 34t35 94q0 129 -171 129h-15v92h15
q141 0 141 111q0 48 -28 74.5t-79 26.5z" />
    <glyph glyph-name="gamma" unicode="&#x3b3;" horiz-adv-x="539" 
d="M409 508h118q-15 -143 -62 -257t-140 -245v-12q0 -89 -11 -179h-114q11 90 11 179q0 71 -24 171t-67 183q-23 46 -43.5 62.5t-45.5 16.5q-9 0 -23 -2v81q32 10 63 10q45 0 76 -23.5t61 -86.5q63 -130 81 -274h2q52 95 80 182.5t38 193.5z" />
    <glyph glyph-name="delta" unicode="&#x3b4;" horiz-adv-x="578" 
d="M277 722q112 0 209 -28v-97q-98 39 -195 39q-67 0 -67 -33q0 -20 27 -39t94 -54q97 -51 145.5 -117.5t48.5 -164.5q0 -111 -68 -177t-182 -66t-182.5 65.5t-68.5 177.5q0 89 47.5 151t134.5 92v2q-63 39 -89.5 68.5t-26.5 70.5q0 110 173 110zM290 420
q-132 -47 -132 -192q0 -71 35.5 -112.5t95.5 -41.5t95.5 42t35.5 114q0 128 -130 190z" />
    <glyph glyph-name="epsilon" unicode="&#x3b5;" horiz-adv-x="505" 
d="M249 523q99 0 155.5 -46t56.5 -127h-114q0 86 -95 86q-40 0 -63 -18t-23 -50t27 -51t73 -19h50v-85h-50q-112 0 -112 -73q0 -31 26.5 -49.5t70.5 -18.5q105 0 105 89h115q0 -86 -57 -131t-163 -45q-97 0 -154 40t-57 111q0 93 103 125v2q-90 32 -90 115q0 67 53 106
t143 39z" />
    <glyph glyph-name="zeta" unicode="&#x3b6;" horiz-adv-x="468" 
d="M64 712h380v-85q-287 -165 -287 -389q0 -64 35.5 -97t121.5 -45q78 -11 109 -45t31 -93q0 -57 -27 -103h-93q18 37 18 74q0 35 -21 53.5t-80 24.5q-114 13 -163.5 63.5t-49.5 145.5q0 120 72 225t197 184v2h-243v85z" />
    <glyph glyph-name="eta" unicode="&#x3b7;" horiz-adv-x="601" 
d="M353 520q86 0 133 -53t47 -157v-495h-114v483q0 132 -102 132q-51 0 -83.5 -39t-32.5 -108v-283h-114v348q0 44 -11 61.5t-35 17.5q-13 0 -24 -3v80q33 11 67 11q88 0 103 -89h2q54 94 164 94z" />
    <glyph glyph-name="theta" unicode="&#x3b8;" horiz-adv-x="608" 
d="M303 726q127 0 196.5 -97t69.5 -273t-69.5 -273t-196.5 -97q-125 0 -194.5 97t-69.5 273t69.5 273t194.5 97zM303 72q66 0 104 63t44 180h-295q6 -117 44 -180t103 -63zM303 640q-65 0 -103 -63t-44 -180h295q-6 117 -44 180t-104 63z" />
    <glyph glyph-name="iota" unicode="&#x3b9;" horiz-adv-x="297" 
d="M68 508h114v-324q0 -52 15.5 -74.5t52.5 -22.5q21 0 36 5v-90q-27 -8 -65 -8q-81 0 -117 40t-36 132v342z" />
    <glyph glyph-name="kappa" unicode="&#x3ba;" horiz-adv-x="541" 
d="M550 0h-140l-180 200l-46 -51v-149h-114v508h114v-228h2l99 113q60 70 103.5 95.5t98.5 25.5q18 0 42 -6v-95q-11 4 -30 4q-43 0 -84.5 -27.5t-101.5 -96.5l-13 -15z" />
    <glyph glyph-name="lambda" unicode="&#x3bb;" horiz-adv-x="580" 
d="M132 720q77 0 122.5 -43t91.5 -163l125 -333q23 -59 42 -79.5t44 -20.5q7 0 15 2v-83q-23 -7 -48 -7q-57 0 -89.5 28.5t-61.5 110.5q-46 122 -92 252h-1l-93 -220l-71 -164h-122l230 506q-25 70 -51 96.5t-66 26.5q-27 0 -48 -8v87q29 12 73 12z" />
    <glyph glyph-name="mu" unicode="&#x3bc;" horiz-adv-x="598" 
d="M403 508h114v-352q0 -41 10.5 -56.5t34.5 -15.5q12 0 24 3v-84q-29 -10 -72 -10q-87 0 -102 81h-2q-16 -38 -51 -59.5t-81 -21.5q-61 0 -91 32v-210h-114v693h114v-300q0 -128 100 -128q51 0 83.5 38.5t32.5 108.5v281z" />
    <glyph glyph-name="nu" unicode="&#x3bd;" horiz-adv-x="526" 
d="M65 515q52 0 84.5 -33.5t52.5 -111.5l74 -278h2q68 142 93 224t25 153q0 21 -3 39h112q5 -19 5 -45q0 -84 -32.5 -176.5t-131.5 -286.5h-149l-102 337q-16 52 -30.5 71t-38.5 19q-11 0 -19 -3v80q24 11 58 11z" />
    <glyph glyph-name="xi" unicode="&#x3be;" horiz-adv-x="474" 
d="M457 712v-85h-87q-90 0 -137 -31t-47 -89q0 -46 37.5 -70.5t98.5 -24.5h96v-84h-84q-90 0 -133.5 -33t-43.5 -89q0 -50 36.5 -75.5t127.5 -35.5q78 -9 109 -43t31 -94q0 -57 -27 -103h-93q19 40 19 74q0 35 -24.5 55t-90.5 26q-207 19 -207 178q0 145 150 180v2
q-50 14 -78 47.5t-28 82.5q0 94 84 125v2h-107v85h398z" />
    <glyph glyph-name="omicron" unicode="&#x3bf;" horiz-adv-x="577" 
d="M289 523q115 0 182.5 -72.5t67.5 -196.5t-67.5 -196.5t-182.5 -72.5t-183 72.5t-68 196.5t68 196.5t183 72.5zM289 433q-61 0 -96 -48t-35 -131t35 -131t96 -48t96 48t35 131t-35 131t-96 48z" />
    <glyph glyph-name="pi" unicode="&#x3c0;" horiz-adv-x="662" 
d="M644 508v-87h-109v-256q0 -47 15.5 -65.5t47.5 -18.5q18 0 29 4v-83q-32 -9 -70 -9q-69 0 -102.5 36t-33.5 122v270h-198v-421h-114v421h-99v87h634z" />
    <glyph glyph-name="rho" unicode="&#x3c1;" horiz-adv-x="590" 
d="M305 523q114 0 180.5 -73.5t66.5 -199.5q0 -121 -63 -191.5t-171 -70.5q-95 0 -134 61h-2v-234h-114v439q0 123 64.5 196t172.5 73zM300 432q-57 0 -90 -48t-33 -130q0 -81 33 -128.5t90 -47.5q62 0 97 46.5t35 129.5t-35 130.5t-97 47.5z" />
    <glyph glyph-name="sigmafinal" unicode="&#x3c2;" horiz-adv-x="534" 
d="M278 523q108 0 168 -56t67 -152h-118q-5 55 -35 87t-82 32q-58 0 -91 -41.5t-33 -116.5t39 -115t124 -52q83 -11 115.5 -48.5t32.5 -102.5q0 -56 -26 -103h-94q18 37 18 74q0 40 -23.5 61t-90.5 29q-215 22 -215 246q0 121 65 189.5t179 68.5z" />
    <glyph glyph-name="sigma" unicode="&#x3c3;" horiz-adv-x="607" 
d="M596 508v-85h-137v-2q78 -54 78 -179q0 -119 -66.5 -188t-181.5 -69q-116 0 -183.5 70.5t-67.5 191.5t67.5 191t183.5 70h307zM288 425q-61 0 -95.5 -46t-34.5 -129t34 -129t96 -46q63 0 97.5 46t34.5 129t-34.5 129t-97.5 46z" />
    <glyph glyph-name="tau" unicode="&#x3c4;" horiz-adv-x="467" 
d="M457 508v-85h-173v-258q0 -47 15.5 -65.5t47.5 -18.5q18 0 29 4v-83q-32 -9 -70 -9q-69 0 -102.5 36t-33.5 122v272h-160v85h447z" />
    <glyph glyph-name="upsilon" unicode="&#x3c5;" horiz-adv-x="589" 
d="M83 515q61 0 89 -32.5t28 -113.5v-181q0 -112 102 -112q121 0 121 181q0 140 -36 251h111q38 -116 38 -259q0 -128 -57.5 -196t-174.5 -68q-219 0 -219 194v164q0 47 -10.5 64t-34.5 17q-13 0 -25 -3v83q35 11 68 11z" />
    <glyph glyph-name="phi" unicode="&#x3c6;" horiz-adv-x="775" 
d="M737 254q0 -122 -79 -193t-216 -76v-170h-109v170q-137 5 -216 76t-79 193t79 193t216 76v139h109v-139q137 -5 216 -76t79 -193zM154 254q0 -85 46.5 -133t132.5 -51v368q-86 -3 -132.5 -51t-46.5 -133zM442 438v-368q86 3 132 51t46 133t-46 133t-132 51z" />
    <glyph glyph-name="chi" unicode="&#x3c7;" horiz-adv-x="587" 
d="M79 520q60 0 94.5 -26.5t63.5 -94.5l61 -141h2l152 250h127l-219 -348l81 -177q24 -53 45.5 -70t53.5 -17q20 0 35 4v-81q-30 -11 -70 -11q-58 0 -92.5 26.5t-64.5 95.5l-57 131h-2l-158 -246h-127l228 341l-86 187q-24 53 -45 71t-56 18q-20 0 -37 -6v80q30 14 71 14z
" />
    <glyph glyph-name="psi" unicode="&#x3c8;" horiz-adv-x="796" 
d="M742 256q0 -253 -283 -265v-176h-114v175q-137 5 -207 62t-70 172v284h114v-272q0 -77 40.5 -114.5t122.5 -42.5v583h114v-583q169 12 169 185q0 133 -40 244h113q41 -112 41 -252z" />
    <glyph glyph-name="omega" unicode="&#x3c9;" horiz-adv-x="807" 
d="M569 508h119q65 -127 65 -284q0 -238 -192 -238q-127 0 -157 101h-2q-30 -101 -156 -101q-192 0 -192 238q0 157 65 284h119q-66 -123 -66 -271q0 -163 95 -163q79 0 79 106v204h114v-204q0 -106 80 -106q95 0 95 163q0 148 -66 271z" />
    <glyph glyph-name="iotadieresis" unicode="&#x3ca;" horiz-adv-x="297" 
d="M68 508h114v-324q0 -52 15.5 -74.5t52.5 -22.5q21 0 36 5v-90q-27 -8 -65 -8q-81 0 -117 40t-36 132v342zM73 712v-109h-102v109h102zM279 712v-109h-102v109h102z" />
    <glyph glyph-name="upsilondieresis" unicode="&#x3cb;" horiz-adv-x="589" 
d="M83 515q61 0 89 -32.5t28 -113.5v-181q0 -112 102 -112q121 0 121 181q0 140 -36 251h111q38 -116 38 -259q0 -128 -57.5 -196t-174.5 -68q-219 0 -219 194v164q0 47 -10.5 64t-34.5 17q-13 0 -25 -3v83q35 11 68 11zM229 712v-109h-102v109h102zM435 712v-109h-102v109
h102z" />
    <glyph glyph-name="omicrontonos" unicode="&#x3cc;" horiz-adv-x="577" 
d="M289 523q115 0 182.5 -72.5t67.5 -196.5t-67.5 -196.5t-182.5 -72.5t-183 72.5t-68 196.5t68 196.5t183 72.5zM289 433q-61 0 -96 -48t-35 -131t35 -131t96 -48t96 48t35 131t-35 131t-96 48zM395 732l-64 -162h-87l39 162h112z" />
    <glyph glyph-name="upsilontonos" unicode="&#x3cd;" horiz-adv-x="589" 
d="M83 515q61 0 89 -32.5t28 -113.5v-181q0 -112 102 -112q121 0 121 181q0 140 -36 251h111q38 -116 38 -259q0 -128 -57.5 -196t-174.5 -68q-219 0 -219 194v164q0 47 -10.5 64t-34.5 17q-13 0 -25 -3v83q35 11 68 11zM388 732l-64 -162h-87l39 162h112z" />
    <glyph glyph-name="omegatonos" unicode="&#x3ce;" horiz-adv-x="807" 
d="M569 508h119q65 -127 65 -284q0 -238 -192 -238q-127 0 -157 101h-2q-30 -101 -156 -101q-192 0 -192 238q0 157 65 284h119q-66 -123 -66 -271q0 -163 95 -163q79 0 79 106v204h114v-204q0 -106 80 -106q95 0 95 163q0 148 -66 271zM510 732l-64 -162h-87l39 162h112z
" />
    <glyph glyph-name="Iegravecy" unicode="&#x400;" horiz-adv-x="625" 
d="M564 712v-104h-356v-193h334v-103h-334v-208h366v-104h-486v712h476zM177 902h143l82 -142h-93z" />
    <glyph glyph-name="Iocy" unicode="&#x401;" horiz-adv-x="625" 
d="M564 712v-104h-356v-193h334v-103h-334v-208h366v-104h-486v712h476zM274 881v-109h-102v109h102zM480 881v-109h-102v109h102z" />
    <glyph glyph-name="Djecy" unicode="&#x402;" horiz-adv-x="788" 
d="M597 712v-104h-234v-185q70 35 156 35q116 0 179.5 -62.5t63.5 -173.5q0 -107 -64 -170.5t-176 -63.5q-56 0 -90 12v101q32 -9 75 -9q66 0 100.5 33.5t34.5 95.5q0 133 -142 133q-76 0 -137 -33v-321h-119v608h-234v104h587z" />
    <glyph glyph-name="Gjecy" unicode="&#x403;" horiz-adv-x="498" 
d="M208 0h-120v712h400v-104h-280v-608zM437 902l-132 -142h-93l81 142h144z" />
    <glyph glyph-name="Ecy" unicode="&#x404;" horiz-adv-x="702" 
d="M535 247h123q-11 -123 -90 -192.5t-208 -69.5q-149 0 -234.5 99.5t-85.5 271.5t86.5 271.5t236.5 99.5q129 0 208 -72t84 -187h-122q-8 71 -53 111.5t-117 40.5q-82 0 -133.5 -56t-62.5 -156h282v-104h-282q11 -100 61.5 -156t131.5 -56q72 0 118 41t57 114z" />
    <glyph glyph-name="Dzecy" unicode="&#x405;" horiz-adv-x="620" 
d="M295 727q129 0 195.5 -59.5t66.5 -174.5h-121q0 67 -37 101.5t-106 34.5q-58 0 -91.5 -25.5t-33.5 -69.5q0 -46 35 -68t128 -45q48 -12 78 -21t65.5 -26.5t55.5 -38.5t33.5 -54.5t13.5 -77.5q0 -99 -73 -158.5t-193 -59.5q-131 0 -204 64.5t-73 185.5h123
q0 -151 155 -151q66 0 103.5 29t37.5 79t-34 71t-127 44q-50 13 -78.5 21.5t-65.5 26t-56 38t-33 54t-14 76.5q0 91 68.5 147.5t181.5 56.5z" />
    <glyph glyph-name="Icy" unicode="&#x406;" horiz-adv-x="296" 
d="M208 712v-712h-120v712h120z" />
    <glyph glyph-name="Yicy" unicode="&#x407;" horiz-adv-x="296" 
d="M208 712v-712h-120v712h120zM96 881v-109h-102v109h102zM302 881v-109h-102v109h102z" />
    <glyph glyph-name="Jecy" unicode="&#x408;" horiz-adv-x="374" 
d="M171 712h120v-496q0 -113 -53.5 -167.5t-165.5 -54.5q-31 0 -57 7v103q21 -4 45 -4q58 0 84.5 30t26.5 107v475z" />
    <glyph glyph-name="Ljecy" unicode="&#x409;" horiz-adv-x="1051" 
d="M633 712v-267h137q123 0 189 -60t66 -163q0 -102 -66 -162t-189 -60h-257v608h-228q-8 -259 -33.5 -391t-70 -177t-127.5 -45q-28 0 -43 5v99q10 -2 18 -2q32 0 52 14t36.5 50t26 107.5t16 176.5t10.5 267h463zM756 344h-123v-243h123q146 0 146 121q0 122 -146 122z" />
    <glyph glyph-name="Njecy" unicode="&#x40a;" horiz-adv-x="1073" 
d="M655 712v-267h138q123 0 189 -60t66 -163q0 -102 -66 -162t-189 -60h-257v323h-328v-323h-120v712h120v-286h328v286h119zM655 344v-243h124q146 0 146 121q0 122 -146 122h-124z" />
    <glyph glyph-name="Tshecy" unicode="&#x40b;" horiz-adv-x="787" 
d="M532 436q106 0 163 -56.5t57 -160.5v-219h-120v198q0 134 -129 134q-77 0 -140 -20v-312h-119v608h-234v104h587v-104h-234v-196q73 24 169 24z" />
    <glyph glyph-name="Kjecy" unicode="&#x40c;" horiz-adv-x="644" 
d="M614 712l-291 -339l317 -373h-155l-275 343h-2v-343h-120v712h120v-317h2l260 317h144zM476 902l-132 -142h-93l81 142h144z" />
    <glyph glyph-name="Iigravecy" unicode="&#x40d;" horiz-adv-x="766" 
d="M88 712h116v-280q0 -162 -6 -324h2q70 148 151 306l154 298h172v-712h-115v280q0 144 5 324h-2q-70 -148 -151 -306l-153 -298h-173v712zM227 902h143l82 -142h-93z" />
    <glyph glyph-name="Ushortcy" unicode="&#x40e;" horiz-adv-x="666" 
d="M532 712h130l-280 -574q-39 -79 -88 -112.5t-115 -33.5q-47 0 -74 8v101q20 -6 49 -6q41 0 67.5 19.5t45.5 65.5l-264 532h130l100 -217q46 -101 99 -221h2q69 158 99 220zM418 902h81q-5 -70 -48.5 -108.5t-117.5 -38.5q-73 0 -116.5 38.5t-48.5 108.5h80q8 -72 85 -72
t85 72z" />
    <glyph glyph-name="Dzhecy" unicode="&#x40f;" horiz-adv-x="734" 
d="M645 712v-712h-225v-160h-114v160h-218v712h120v-608h318v608h119z" />
    <glyph glyph-name="Acy" unicode="&#x410;" horiz-adv-x="687" 
d="M557 0l-66 193h-295l-66 -193h-126l259 712h161l259 -712h-126zM232 297h223l-19 56q-60 178 -92 283h-2q-53 -174 -91 -283z" />
    <glyph glyph-name="Becy" unicode="&#x411;" horiz-adv-x="648" 
d="M567 712v-101h-359v-180h158q115 0 179.5 -58t64.5 -158t-64.5 -157.5t-179.5 -57.5h-278v712h479zM343 330h-135v-229h135q70 0 107 29.5t37 84.5q0 56 -37 85.5t-107 29.5z" />
    <glyph glyph-name="Vecy" unicode="&#x412;" horiz-adv-x="638" 
d="M88 0v712h245q124 0 186.5 -49t62.5 -133q0 -121 -121 -166v-2q137 -32 137 -167q0 -90 -65 -142.5t-180 -52.5h-265zM327 314h-119v-214h127q73 0 107 26t34 80t-35.5 81t-113.5 27zM332 613h-124v-203h118q140 0 140 102q0 101 -134 101z" />
    <glyph glyph-name="Gecy" unicode="&#x413;" horiz-adv-x="498" 
d="M208 0h-120v712h400v-104h-280v-608z" />
    <glyph glyph-name="Decy" unicode="&#x414;" horiz-adv-x="762" 
d="M659 104h86v-264h-114v160h-499v-160h-114v264h79q34 64 52.5 198.5t23.5 409.5h486v-608zM539 104v504h-251q-9 -353 -64 -504h315z" />
    <glyph glyph-name="Iecy" unicode="&#x415;" horiz-adv-x="625" 
d="M564 712v-104h-356v-193h334v-103h-334v-208h366v-104h-486v712h476z" />
    <glyph glyph-name="Zhecy" unicode="&#x416;" horiz-adv-x="897" 
d="M867 712l-242 -339l268 -373h-144l-239 359h-2v-359h-118v359h-2l-240 -359h-144l268 373l-241 339h139l218 -333h2v333h118v-333h2l217 333h140z" />
    <glyph glyph-name="Zecy" unicode="&#x417;" horiz-adv-x="625" 
d="M312 726q122 0 191 -52.5t69 -144.5q0 -62 -31.5 -100.5t-95.5 -61.5v-2q71 -22 105.5 -64.5t34.5 -111.5q0 -93 -74.5 -148.5t-197.5 -55.5q-136 0 -209.5 62t-73.5 176h128q0 -135 155 -135q66 0 104.5 29t38.5 77q0 113 -170 113h-50v101h50q74 0 116.5 29.5
t42.5 79.5q0 49 -37 77.5t-101 28.5q-140 0 -140 -130h-129q0 110 72.5 171.5t201.5 61.5z" />
    <glyph glyph-name="Iicy" unicode="&#x418;" horiz-adv-x="766" 
d="M88 712h116v-280q0 -162 -6 -324h2q70 148 151 306l154 298h172v-712h-115v280q0 144 5 324h-2q-70 -148 -151 -306l-153 -298h-173v712z" />
    <glyph glyph-name="Iishortcy" unicode="&#x419;" horiz-adv-x="766" 
d="M88 712h116v-280q0 -162 -6 -324h2q70 148 151 306l154 298h172v-712h-115v280q0 144 5 324h-2q-70 -148 -151 -306l-153 -298h-173v712zM461 902h81q-5 -70 -48.5 -108.5t-117.5 -38.5q-73 0 -116.5 38.5t-48.5 108.5h80q8 -72 85 -72t85 72z" />
    <glyph glyph-name="Kacy" unicode="&#x41a;" horiz-adv-x="644" 
d="M614 712l-291 -339l317 -373h-155l-275 343h-2v-343h-120v712h120v-317h2l260 317h144z" />
    <glyph glyph-name="Elcy" unicode="&#x41b;" horiz-adv-x="721" 
d="M633 712v-712h-120v608h-228q-8 -259 -33.5 -391t-70 -177t-127.5 -45q-28 0 -43 5v99q10 -2 18 -2q32 0 52 14t36.5 50t26 107.5t16 176.5t10.5 267h463z" />
    <glyph glyph-name="Emcy" unicode="&#x41c;" horiz-adv-x="959" 
d="M871 712v-712h-116v358q0 150 4 270h-2q-35 -117 -86 -268l-123 -360h-137l-123 360q-51 151 -86 268h-2q4 -120 4 -270v-358h-116v712h193l115 -339q47 -137 82 -268h2q39 139 83 268l115 339h193z" />
    <glyph glyph-name="Ency" unicode="&#x41d;" horiz-adv-x="744" 
d="M655 712v-712h-119v318h-328v-318h-120v712h120v-290h328v290h119z" />
    <glyph glyph-name="Ocy" unicode="&#x41e;" horiz-adv-x="740" 
d="M370 727q153 0 241.5 -99.5t88.5 -271.5t-88.5 -271.5t-241.5 -99.5t-241.5 99.5t-88.5 271.5t88.5 271.5t241.5 99.5zM370 620q-95 0 -150.5 -71t-55.5 -193t55.5 -193t150.5 -71t150.5 71t55.5 193t-55.5 193t-150.5 71z" />
    <glyph glyph-name="Pecy" unicode="&#x41f;" horiz-adv-x="733" 
d="M645 712v-712h-119v608h-318v-608h-120v712h557z" />
    <glyph glyph-name="Ercy" unicode="&#x420;" horiz-adv-x="626" 
d="M88 0v712h257q123 0 189 -60t66 -162q0 -103 -66 -163t-189 -60h-137v-267h-120zM331 611h-123v-243h123q146 0 146 122q0 121 -146 121z" />
    <glyph glyph-name="Escy" unicode="&#x421;" horiz-adv-x="695" 
d="M359 727q128 0 206 -72t83 -187h-121q-8 71 -52.5 111.5t-115.5 40.5q-91 0 -143 -70.5t-52 -193.5t51.5 -193.5t140.5 -70.5q71 0 116.5 41t55.5 114h123q-11 -123 -89 -192.5t-206 -69.5q-147 0 -231.5 99t-84.5 272t85.5 272t233.5 99z" />
    <glyph glyph-name="Tecy" unicode="&#x422;" horiz-adv-x="607" 
d="M597 712v-104h-234v-608h-119v608h-234v104h587z" />
    <glyph glyph-name="Ucy" unicode="&#x423;" horiz-adv-x="666" 
d="M532 712h130l-280 -574q-39 -79 -88 -112.5t-115 -33.5q-47 0 -74 8v101q20 -6 49 -6q41 0 67.5 19.5t45.5 65.5l-264 532h130l100 -217q46 -101 99 -221h2q69 158 99 220z" />
    <glyph glyph-name="Efcy" unicode="&#x424;" horiz-adv-x="844" 
d="M805 356q0 -138 -85 -216.5t-240 -86.5v-78h-117v78q-154 8 -238.5 87t-84.5 216t84.5 216t238.5 87v78h117v-78q155 -8 240 -86.5t85 -216.5zM164 356q0 -88 52 -141t147 -61v404q-95 -8 -147 -61t-52 -141zM480 558v-404q96 8 148.5 61t52.5 141t-52.5 141t-148.5 61z
" />
    <glyph glyph-name="Hacy" unicode="&#x425;" horiz-adv-x="626" 
d="M608 712l-222 -348l234 -364h-140l-166 272h-2l-166 -272h-141l235 364l-223 348h139l156 -261h2l156 261h138z" />
    <glyph glyph-name="Tsecy" unicode="&#x426;" horiz-adv-x="754" 
d="M645 712v-608h86v-264h-114v160h-529v712h120v-608h318v608h119z" />
    <glyph glyph-name="Checy" unicode="&#x427;" horiz-adv-x="661" 
d="M573 712v-712h-120v282q-82 -23 -179 -23q-116 0 -177.5 56t-61.5 160v237h119v-215q0 -65 38 -99.5t111 -34.5q80 0 150 20v329h120z" />
    <glyph glyph-name="Shacy" unicode="&#x428;" horiz-adv-x="1024" 
d="M936 712v-712h-848v712h120v-608h245v608h119v-608h245v608h119z" />
    <glyph glyph-name="Shchacy" unicode="&#x429;" horiz-adv-x="1039" 
d="M936 712v-608h86v-264h-114v160h-820v712h120v-608h245v608h119v-608h245v608h119z" />
    <glyph glyph-name="Hardsigncy" unicode="&#x42a;" horiz-adv-x="751" 
d="M333 712v-267h137q124 0 190 -60t66 -163q0 -102 -66 -162t-190 -60h-256v608h-204v104h323zM457 344h-124v-243h124q146 0 146 121q0 122 -146 122z" />
    <glyph glyph-name="Yerucy" unicode="&#x42b;" horiz-adv-x="922" 
d="M345 0h-257v712h120v-267h137q123 0 189 -60t66 -163q0 -102 -66 -162t-189 -60zM208 344v-243h123q146 0 146 121q0 122 -146 122h-123zM834 712v-712h-120v712h120z" />
    <glyph glyph-name="Softsigncy" unicode="&#x42c;" horiz-adv-x="626" 
d="M345 0h-257v712h120v-267h137q123 0 189 -60t66 -163q0 -102 -66 -162t-189 -60zM208 344v-243h123q146 0 146 121q0 122 -146 122h-123z" />
    <glyph glyph-name="Ereversedcy" unicode="&#x42d;" horiz-adv-x="702" 
d="M339 727q150 0 236.5 -99.5t86.5 -271.5t-85.5 -271.5t-234.5 -99.5q-129 0 -208 69.5t-90 192.5h123q10 -73 56 -114t119 -41q81 0 131.5 56t61.5 156h-282v104h282q-11 100 -62.5 156t-133.5 56q-72 0 -117.5 -40.5t-53.5 -111.5h-121q5 115 84 187t208 72z" />
    <glyph glyph-name="Iucy" unicode="&#x42e;" horiz-adv-x="1010" 
d="M653 727q147 0 232 -99.5t85 -271.5t-85 -271.5t-232 -99.5q-135 0 -218.5 85t-96.5 234h-130v-304h-120v712h120v-304h130q13 149 96.5 234t218.5 85zM653 92q89 0 141 71t52 193t-52 193t-141 71t-141 -71t-52 -193t52 -193t141 -71z" />
    <glyph glyph-name="Iacy" unicode="&#x42f;" horiz-adv-x="646" 
d="M296 712h261v-712h-119v281h-142l-23 1l-138 -282h-131l158 303q-120 49 -120 195q0 102 64 158t190 56zM438 378v235h-129q-146 0 -146 -115q-1 -56 33.5 -88t105.5 -32h136z" />
    <glyph glyph-name="acy" unicode="&#x430;" horiz-adv-x="539" 
d="M263 523q102 0 155.5 -50t53.5 -149v-190q0 -82 13 -134h-103q-7 31 -7 71h-2q-56 -82 -171 -82q-78 0 -125 42.5t-47 108.5q0 65 44.5 104t150.5 56q64 11 137 15v20q0 105 -99 105q-46 0 -72 -24t-28 -65h-112q4 76 58.5 124t153.5 48zM362 216v25q-65 -4 -117 -13
q-55 -9 -77.5 -27t-22.5 -53q0 -34 23.5 -54.5t66.5 -20.5q58 0 92 34q20 21 27.5 44.5t7.5 64.5z" />
    <glyph glyph-name="becy" unicode="&#x431;" horiz-adv-x="587" 
d="M520 727v-98q-49 -13 -163 -21q-121 -8 -167 -55t-60 -158h2q43 103 177 103q108 0 171.5 -66.5t63.5 -180.5q0 -123 -67.5 -194.5t-183.5 -71.5q-120 0 -185.5 76t-65.5 217q0 119 17 199t55 128t90 70t130 28q130 10 186 24zM290 413q-130 0 -130 -163q0 -83 35 -129
t98 -46q62 0 96.5 44t34.5 124t-35.5 125t-98.5 45z" />
    <glyph glyph-name="vecy" unicode="&#x432;" horiz-adv-x="538" 
d="M73 0v508h216q197 0 197 -135q0 -86 -91 -111v-2q103 -20 103 -118q0 -68 -51 -105t-143 -37h-231zM276 221h-92v-143h92q106 0 106 72q0 71 -106 71zM274 430h-90v-136h90q99 0 99 68t-99 68z" />
    <glyph glyph-name="gecy" unicode="&#x433;" horiz-adv-x="429" 
d="M418 508v-87h-231v-421h-114v508h345z" />
    <glyph glyph-name="decy" unicode="&#x434;" horiz-adv-x="612" 
d="M532 87h69v-247h-114v160h-363v-160h-114v247h62q28 44 44.5 135.5t25.5 285.5h390v-421zM418 87v334h-167q-13 -231 -50 -334h217z" />
    <glyph glyph-name="iecy" unicode="&#x435;" horiz-adv-x="562" 
d="M284 69q48 0 78.5 23t38.5 61h117q-15 -72 -77 -120t-157 -48q-115 0 -180.5 75t-65.5 200q0 115 65.5 189t178.5 74q86 0 146.5 -46.5t81.5 -126.5q14 -45 14 -119h-373q3 -82 39.5 -122t93.5 -40zM282 439q-53 0 -87.5 -34t-41.5 -99h257q-6 65 -40.5 99t-87.5 34z" />
    <glyph glyph-name="zhecy" unicode="&#x436;" horiz-adv-x="724" 
d="M531 276l203 -276h-140l-174 263h-2v-263h-112v263h-2l-174 -263h-140l203 276l-182 232h130l163 -225h2v225h112v-225h2l163 225h130z" />
    <glyph glyph-name="zecy" unicode="&#x437;" horiz-adv-x="503" 
d="M254 523q90 0 143 -39t53 -106q0 -83 -90 -115v-2q102 -31 102 -125q0 -71 -56.5 -111t-153.5 -40q-106 0 -163 45t-57 131h115q0 -89 105 -89q44 0 70.5 18.5t26.5 49.5q0 73 -112 73h-50v85h50q46 0 73 19t27 51t-23 50t-63 18q-95 0 -95 -86h-114q0 82 56.5 127.5
t155.5 45.5z" />
    <glyph glyph-name="iicy" unicode="&#x438;" horiz-adv-x="646" 
d="M573 508v-508h-115v192q0 96 5 214h-2q-43 -95 -102 -200l-117 -206h-169v508h115v-193q0 -107 -6 -213h2q47 100 103 200l117 206h169z" />
    <glyph glyph-name="iishortcy" unicode="&#x439;" horiz-adv-x="646" 
d="M573 508v-508h-115v192q0 96 5 214h-2q-43 -95 -102 -200l-117 -206h-169v508h115v-193q0 -107 -6 -213h2q47 100 103 200l117 206h169zM408 712h81q-5 -70 -48.5 -108.5t-117.5 -38.5q-73 0 -116.5 38.5t-48.5 108.5h80q8 -72 85 -72t85 72z" />
    <glyph glyph-name="kacy" unicode="&#x43a;" horiz-adv-x="539" 
d="M297 276l234 -276h-144l-198 246h-2v-246h-114v508h114v-208h2l185 208h133z" />
    <glyph glyph-name="elcy" unicode="&#x43b;" horiz-adv-x="563" 
d="M490 508v-508h-114v421h-146q-4 -176 -25.5 -270.5t-57 -125t-97.5 -30.5q-22 0 -44 5v83q10 -2 19 -2q35 0 54 30t30 122.5t14 274.5h367z" />
    <glyph glyph-name="emcy" unicode="&#x43c;" horiz-adv-x="801" 
d="M728 508v-508h-107v240q0 93 3 186h-1q-24 -75 -65 -185l-90 -241h-136l-89 241q-41 110 -65 185h-2q3 -93 3 -186v-240h-106v508h181l84 -225q30 -81 61 -191h2q28 97 62 191l83 225h182z" />
    <glyph glyph-name="ency" unicode="&#x43d;" horiz-adv-x="601" 
d="M528 508v-508h-114v213h-227v-213h-114v508h114v-208h227v208h114z" />
    <glyph glyph-name="ocy" unicode="&#x43e;" horiz-adv-x="577" 
d="M289 523q115 0 182.5 -72.5t67.5 -196.5t-67.5 -196.5t-182.5 -72.5t-183 72.5t-68 196.5t68 196.5t183 72.5zM289 433q-61 0 -96 -48t-35 -131t35 -131t96 -48t96 48t35 131t-35 131t-96 48z" />
    <glyph glyph-name="pecy" unicode="&#x43f;" horiz-adv-x="593" 
d="M520 508v-508h-114v421h-219v-421h-114v508h447z" />
    <glyph glyph-name="ercy" unicode="&#x440;" horiz-adv-x="587" 
d="M337 521q97 0 154.5 -72.5t57.5 -194.5t-57 -194t-154 -72q-48 0 -87.5 20.5t-61.5 57.5h-2v-251h-114v693h111v-70h2q22 39 62.5 61t88.5 22zM304 432q-56 0 -89.5 -47.5t-33.5 -130.5q0 -82 33.5 -130t89.5 -48q58 0 92 48.5t34 129.5t-34 129.5t-92 48.5z" />
    <glyph glyph-name="escy" unicode="&#x441;" horiz-adv-x="548" 
d="M285 523q96 0 158.5 -55.5t70.5 -143.5h-119q-4 50 -34 79.5t-76 29.5q-60 0 -93.5 -47.5t-33.5 -131.5t33.5 -131.5t93.5 -47.5q46 0 75.5 33t33.5 85h120q-8 -93 -70 -150.5t-159 -57.5q-113 0 -180 73t-67 196t67 196t180 73z" />
    <glyph glyph-name="tecy" unicode="&#x442;" horiz-adv-x="462" 
d="M456 508v-87h-167v-421h-115v421h-168v87h450z" />
    <glyph glyph-name="ucy" unicode="&#x443;" horiz-adv-x="488" 
d="M376 508h118l-196 -530q-36 -96 -84.5 -132t-137.5 -36q-31 0 -57 7v93q23 -7 48 -7q46 0 70.5 20t42.5 73l-186 512h122l127 -378h2z" />
    <glyph glyph-name="efcy" unicode="&#x444;" horiz-adv-x="803" 
d="M345 712h114v-229q44 38 103 38q93 0 148 -72.5t55 -194.5t-55 -194t-149 -72q-57 0 -102 36v-209h-114v209q-47 -36 -102 -36q-94 0 -149.5 72t-55.5 194t55 194.5t148 72.5q58 0 104 -38v229zM276 432q-55 0 -87 -48.5t-32 -129.5t32 -129.5t87 -48.5q39 0 69 30v295
q-29 31 -69 31zM527 432q-40 0 -68 -31v-295q28 -30 68 -30q55 0 87.5 48.5t32.5 129.5t-32.5 129.5t-87.5 48.5z" />
    <glyph glyph-name="hacy" unicode="&#x445;" horiz-adv-x="494" 
d="M485 508l-168 -245l181 -263h-134l-116 188h-2l-116 -188h-134l181 263l-168 245h133l104 -165h2l104 165h133z" />
    <glyph glyph-name="tsecy" unicode="&#x446;" horiz-adv-x="600" 
d="M520 508v-421h69v-247h-114v160h-402v508h114v-421h219v421h114z" />
    <glyph glyph-name="checy" unicode="&#x447;" horiz-adv-x="540" 
d="M467 508v-508h-114v193q-68 -19 -141 -19q-87 0 -134.5 41t-47.5 116v177h114v-155q0 -92 105 -92q55 0 104 17v230h114z" />
    <glyph glyph-name="shacy" unicode="&#x448;" horiz-adv-x="846" 
d="M773 508v-508h-700v508h114v-421h179v421h114v-421h179v421h114z" />
    <glyph glyph-name="shchacy" unicode="&#x449;" horiz-adv-x="852" 
d="M773 508v-421h65v-247h-114v160h-651v508h114v-421h179v421h114v-421h179v421h114z" />
    <glyph glyph-name="hardsigncy" unicode="&#x44a;" horiz-adv-x="609" 
d="M261 508v-176h118q97 0 148.5 -43t51.5 -123t-51.5 -123t-148.5 -43h-232v421h-141v87h255zM367 247h-106v-162h106q97 0 97 81t-97 81z" />
    <glyph glyph-name="yerucy" unicode="&#x44b;" horiz-adv-x="765" 
d="M187 508v-176h118q97 0 148.5 -43t51.5 -123t-51.5 -123t-148.5 -43h-232v508h114zM293 247h-106v-162h106q97 0 97 81t-97 81zM692 508v-508h-114v508h114z" />
    <glyph glyph-name="softsigncy" unicode="&#x44c;" horiz-adv-x="538" 
d="M187 508v-176h118q97 0 148.5 -43t51.5 -123t-51.5 -123t-148.5 -43h-232v508h114zM293 247h-106v-162h106q97 0 97 81t-97 81z" />
    <glyph glyph-name="ereversedcy" unicode="&#x44d;" horiz-adv-x="548" 
d="M263 523q113 0 180 -73t67 -196t-67 -196t-180 -73q-97 0 -159 56.5t-70 147.5h117q4 -52 35 -84.5t78 -32.5q53 0 86 38.5t41 106.5h-195v84h194q-9 64 -42 99.5t-84 35.5q-48 0 -79 -30.5t-35 -77.5h-116q8 84 70 139.5t159 55.5z" />
    <glyph glyph-name="iucy" unicode="&#x44e;" horiz-adv-x="817" 
d="M529 523q115 0 182.5 -72.5t67.5 -196.5t-67.5 -196.5t-182.5 -72.5q-105 0 -171 60t-78 165h-93v-210h-114v508h114v-211l93 1q12 105 78 165t171 60zM529 75q61 0 96 48t35 131t-35 131t-96 48t-96 -48t-35 -131t35 -131t96 -48z" />
    <glyph glyph-name="iacy" unicode="&#x44f;" horiz-adv-x="546" 
d="M252 508h221v-508h-112v178h-125l-101 -178h-123l121 198q-92 40 -92 148q0 78 53 120t158 42zM361 261v161h-98q-111 0 -111 -79q0 -82 106 -82h103z" />
    <glyph glyph-name="iegravecy" unicode="&#x450;" horiz-adv-x="562" 
d="M284 69q48 0 78.5 23t38.5 61h117q-15 -72 -77 -120t-157 -48q-115 0 -180.5 75t-65.5 200q0 115 65.5 189t178.5 74q86 0 146.5 -46.5t81.5 -126.5q14 -45 14 -119h-373q3 -82 39.5 -122t93.5 -40zM282 439q-53 0 -87.5 -34t-41.5 -99h257q-6 65 -40.5 99t-87.5 34z
M357 568h-93l-132 144h143z" />
    <glyph glyph-name="iocy" unicode="&#x451;" horiz-adv-x="562" 
d="M284 69q48 0 78.5 23t38.5 61h117q-15 -72 -77 -120t-157 -48q-115 0 -180.5 75t-65.5 200q0 115 65.5 189t178.5 74q86 0 146.5 -46.5t81.5 -126.5q14 -45 14 -119h-373q3 -82 39.5 -122t93.5 -40zM282 439q-53 0 -87.5 -34t-41.5 -99h257q-6 65 -40.5 99t-87.5 34z
M228 712v-109h-102v109h102zM434 712v-109h-102v109h102z" />
    <glyph glyph-name="djecy" unicode="&#x452;" 
d="M335 466q88 0 136.5 -53t48.5 -156v-280q0 -86 -42.5 -126.5t-117.5 -40.5q-26 0 -58 7v85q14 -3 28 -3q39 0 57.5 21t18.5 72v255q0 127 -103 127q-51 0 -83.5 -38t-32.5 -108v-228h-114v552h-72v74h72v86h114v-86h219v-74h-219v-158h2q53 72 146 72z" />
    <glyph glyph-name="gjecy" unicode="&#x453;" horiz-adv-x="429" 
d="M418 508v-87h-231v-421h-114v508h345zM395 712l-132 -144h-93l81 144h144z" />
    <glyph glyph-name="ecy" unicode="&#x454;" horiz-adv-x="548" 
d="M285 72q47 0 77.5 32.5t34.5 84.5h117q-8 -91 -70 -147.5t-159 -56.5q-113 0 -180 73t-67 196t67 196t180 73q97 0 159 -55.5t70 -139.5h-116q-4 47 -34.5 77.5t-78.5 30.5q-52 0 -85 -35.5t-42 -99.5h194v-84h-195q8 -68 41 -106.5t87 -38.5z" />
    <glyph glyph-name="dzecy" unicode="&#x455;" horiz-adv-x="509" 
d="M248 523q98 0 151.5 -44.5t54.5 -128.5h-110q0 90 -97 90q-40 0 -62 -16t-22 -44q0 -30 23 -43t92 -30q28 -7 35.5 -9t33 -9.5t34 -13t27.5 -15.5t26.5 -20.5t18 -25.5t14 -33.5t3.5 -40.5q0 -70 -58 -112.5t-155 -42.5q-104 0 -161.5 46.5t-58.5 135.5h116
q0 -47 27.5 -72t78.5 -25q43 0 67.5 17t24.5 46q0 36 -26 50.5t-102 33.5q-28 7 -37.5 9.5t-33.5 10t-34 14t-26.5 18.5t-23.5 25.5t-13 33t-6 43.5q0 68 55 110t144 42z" />
    <glyph glyph-name="icy" unicode="&#x456;" horiz-adv-x="260" 
d="M187 508v-508h-114v508h114zM187 712v-109h-114v109h114z" />
    <glyph glyph-name="yicy" unicode="&#x457;" horiz-adv-x="260" 
d="M187 508v-508h-114v508h114zM99 712v-109h-102v109h102zM263 712v-109h-103v109h103z" />
    <glyph glyph-name="jecy" unicode="&#x458;" horiz-adv-x="264" 
d="M77 508h114v-528q0 -88 -42.5 -129t-117.5 -41q-27 0 -58 7v85q13 -3 28 -3q39 0 57.5 21.5t18.5 74.5v513zM191 712v-109h-114v109h114z" />
    <glyph glyph-name="ljecy" unicode="&#x459;" horiz-adv-x="841" 
d="M490 508v-176h118q97 0 148.5 -43t51.5 -123t-51.5 -123t-148.5 -43h-232v421h-146q-4 -176 -25.5 -270.5t-57 -125t-97.5 -30.5q-22 0 -44 5v83q10 -2 19 -2q35 0 54 30t30 122.5t14 274.5h367zM596 247h-106v-162h106q97 0 97 81t-97 81z" />
    <glyph glyph-name="njecy" unicode="&#x45a;" horiz-adv-x="879" 
d="M528 508v-176h118q97 0 148.5 -43t51.5 -123t-51.5 -123t-148.5 -43h-232v222h-227v-222h-114v508h114v-199h227v199h114zM634 247h-106v-162h106q97 0 97 81t-97 81z" />
    <glyph glyph-name="tshecy" unicode="&#x45b;" 
d="M335 466q88 0 136.5 -53t48.5 -156v-257h-114v247q0 127 -103 127q-51 0 -83.5 -38t-32.5 -108v-228h-114v552h-72v74h72v86h114v-86h219v-74h-219v-158h2q53 72 146 72z" />
    <glyph glyph-name="kjecy" unicode="&#x45c;" horiz-adv-x="539" 
d="M297 276l234 -276h-144l-198 246h-2v-246h-114v508h114v-208h2l185 208h133zM429 712l-132 -144h-93l81 144h144z" />
    <glyph glyph-name="iigravecy" unicode="&#x45d;" horiz-adv-x="646" 
d="M573 508v-508h-115v192q0 96 5 214h-2q-43 -95 -102 -200l-117 -206h-169v508h115v-193q0 -107 -6 -213h2q47 100 103 200l117 206h169zM175 712h143l82 -144h-93z" />
    <glyph glyph-name="ushortcy" unicode="&#x45e;" horiz-adv-x="488" 
d="M376 508h118l-196 -530q-36 -96 -84.5 -132t-137.5 -36q-31 0 -57 7v93q23 -7 48 -7q46 0 70.5 20t42.5 73l-186 512h122l127 -378h2zM329 712h81q-5 -70 -48.5 -108.5t-117.5 -38.5q-73 0 -116.5 38.5t-48.5 108.5h80q8 -72 85 -72t85 72z" />
    <glyph glyph-name="dzhecy" unicode="&#x45f;" horiz-adv-x="593" 
d="M520 508v-508h-168v-160h-114v160h-165v508h114v-421h219v421h114z" />
    <glyph glyph-name="Gheupturncy" unicode="&#x490;" horiz-adv-x="498" 
d="M488 855v-247h-280v-608h-120v712h286v143h114z" />
    <glyph glyph-name="gheupturncy" unicode="&#x491;" horiz-adv-x="429" 
d="M418 668v-247h-231v-421h-114v508h237v160h108z" />
    <glyph glyph-name="Ghestrokecy" unicode="&#x492;" horiz-adv-x="498" 
d="M488 608h-280v-231h145v-89h-145v-288h-120v288h-64v89h64v335h400v-104z" />
    <glyph glyph-name="ghestrokecy" unicode="&#x493;" horiz-adv-x="433" 
d="M421 421h-231v-144h129v-80h-129v-197h-114v197h-59v80h59v231h345v-87z" />
    <glyph glyph-name="Zhedescendercy" unicode="&#x496;" horiz-adv-x="897" 
d="M818 104h75v-264h-114v160h-30l-239 359h-2v-359h-118v359h-2l-240 -359h-144l268 373l-241 339h139l218 -333h2v333h118v-333h2l217 333h140l-242 -339z" />
    <glyph glyph-name="zhedescendercy" unicode="&#x497;" horiz-adv-x="724" 
d="M670 87h64v-247h-114v160h-26l-174 263h-2v-263h-112v263h-2l-174 -263h-140l203 276l-182 232h130l163 -225h2v225h112v-225h2l163 225h130l-182 -232z" />
    <glyph glyph-name="Kadescendercy" unicode="&#x49a;" horiz-adv-x="644" 
d="M552 104h88v-264h-114v160h-41l-275 343h-2v-343h-120v712h120v-317h2l260 317h144l-291 -339z" />
    <glyph glyph-name="kadescendercy" unicode="&#x49b;" horiz-adv-x="539" 
d="M457 87h74v-247h-114v160h-30l-198 246h-2v-246h-114v508h114v-208h2l185 208h133l-210 -232z" />
    <glyph glyph-name="Kaverticalstrokecy" unicode="&#x49c;" horiz-adv-x="715" 
d="M567 0l-212 318h-4v-163h-94v163h-51v-318h-118v712h118v-290h51v163h94v-163h5l189 290h140l-240 -339l266 -373h-144z" />
    <glyph glyph-name="kaverticalstrokecy" unicode="&#x49d;" horiz-adv-x="593" 
d="M461 0l-151 230h-4v-127h-77v127h-45v-230h-111v508h111v-191h45v124h77v-124h6l138 191h130l-181 -232l203 -276h-141z" />
    <glyph glyph-name="Endescendercy" unicode="&#x4a2;" horiz-adv-x="764" 
d="M741 104v-264h-114v160h-91v318h-328v-318h-120v712h120v-290h328v290h119v-608h86z" />
    <glyph glyph-name="endescendercy" unicode="&#x4a3;" horiz-adv-x="607" 
d="M597 87v-247h-114v160h-69v213h-227v-213h-114v508h114v-208h227v208h114v-421h69z" />
    <glyph glyph-name="Ustraitcy" unicode="&#x4ae;" horiz-adv-x="626" 
d="M622 712l-249 -426v-286h-120v286l-250 426h136l78 -141q50 -90 95 -184h2q48 100 96 184l77 141h135z" />
    <glyph glyph-name="ustraitcy" unicode="&#x4af;" horiz-adv-x="490" 
d="M377 508h119l-194 -519v-174h-114v174l-194 519h119l66 -188q32 -90 65 -203h2q33 113 65 203z" />
    <glyph glyph-name="Hadescendercy" unicode="&#x4b2;" horiz-adv-x="626" 
d="M553 104h69v-264h-114v160h-28l-166 272h-2l-166 -272h-141l235 364l-223 348h139l156 -261h2l156 261h138l-222 -348z" />
    <glyph glyph-name="hadescendercy" unicode="&#x4b3;" horiz-adv-x="494" 
d="M438 87h60v-247h-114v160h-20l-116 188h-2l-116 -188h-134l181 263l-168 245h133l104 -165h2l104 165h133l-168 -245z" />
    <glyph glyph-name="Cheverticalstrokecy" unicode="&#x4b8;" horiz-adv-x="661" 
d="M453 712h120v-712h-120v282q-40 -12 -97 -18v-140h-102v135q-106 5 -162.5 60.5t-56.5 155.5v237h119v-215q0 -107 100 -129v199h102v-201q54 5 97 17v329z" />
    <glyph glyph-name="cheverticalstrokecy" unicode="&#x4b9;" horiz-adv-x="540" 
d="M353 508h114v-508h-114v193q-35 -10 -66 -14v-97h-78v92q-86 1 -132.5 42t-46.5 115v177h114v-155q0 -74 65 -88v153h78v-155q38 5 66 15v230z" />
    <glyph glyph-name="Shhacy" unicode="&#x4ba;" horiz-adv-x="661" 
d="M88 0v712h120v-282q84 23 179 23q116 0 178 -56t62 -160v-237h-120v215q0 65 -38 99.5t-111 34.5q-80 0 -150 -20v-329h-120z" />
    <glyph glyph-name="shhacy" unicode="&#x4bb;" 
d="M187 712v-264h2q53 72 146 72q88 0 136.5 -53t48.5 -156v-311h-114v301q0 127 -103 127q-51 0 -83.5 -38t-32.5 -108v-282h-114v712h114z" />
    <glyph glyph-name="Palochkacy" unicode="&#x4c0;" horiz-adv-x="296" 
d="M208 712v-712h-120v712h120z" />
    <glyph glyph-name="palochkacy" unicode="&#x4cf;" horiz-adv-x="260" 
d="M187 712v-712h-114v712h114z" />
    <glyph glyph-name="Schwacy" unicode="&#x4d8;" horiz-adv-x="752" 
d="M365 727q161 0 254.5 -100t93.5 -270q0 -164 -92.5 -268t-248.5 -104q-153 0 -242.5 100t-89.5 270q0 22 2 42h546q-6 112 -67.5 168.5t-156.5 56.5q-73 0 -119 -34.5t-59 -90.5h-128q21 100 100.5 165t206.5 65zM372 92q88 0 145 53.5t68 150.5h-420q10 -99 66.5 -151.5
t140.5 -52.5z" />
    <glyph glyph-name="schwacy" unicode="&#x4d9;" horiz-adv-x="562" 
d="M274 523q117 0 183.5 -73.5t66.5 -195.5q0 -118 -66 -193.5t-179 -75.5q-111 0 -176 72.5t-65 196.5q0 15 2 29h371q-3 79 -40.5 117.5t-96.5 38.5q-44 0 -72 -22.5t-35 -58.5h-117q15 71 73.5 118t150.5 47zM279 69q54 0 88.5 36t41.5 103h-257q6 -68 40.5 -103.5
t86.5 -35.5z" />
    <glyph glyph-name="Obarredcy" unicode="&#x4e8;" horiz-adv-x="740" 
d="M370 727q153 0 241.5 -99.5t88.5 -271.5t-88.5 -271.5t-241.5 -99.5t-241.5 99.5t-88.5 271.5t88.5 271.5t241.5 99.5zM370 87q88 0 143.5 57.5t66.5 159.5h-420q12 -102 67.5 -159.5t142.5 -57.5zM370 625q-87 0 -142.5 -57.5t-67.5 -159.5h420q-11 102 -66.5 159.5
t-143.5 57.5z" />
    <glyph glyph-name="obarredcy" unicode="&#x4e9;" horiz-adv-x="578" 
d="M289 523q115 0 183 -72.5t68 -196.5t-68 -196.5t-183 -72.5t-183 72.5t-68 196.5t68 196.5t183 72.5zM289 71q55 0 91 38.5t44 106.5h-270q8 -68 44 -106.5t91 -38.5zM289 437q-55 0 -91 -38.5t-44 -105.5h269q-8 67 -43.5 105.5t-90.5 38.5z" />
    <glyph glyph-name="Wgrave" unicode="&#x1e80;" horiz-adv-x="936" 
d="M926 712l-157 -712h-161l-71 296q-40 168 -68 313h-2q-28 -145 -68 -313l-71 -296h-161l-157 712h118l58 -274q39 -180 63 -321h2q37 176 72 322l66 273h158l66 -273q35 -146 72 -322h2q21 123 62 321l59 274h118zM318 902h143l82 -142h-93z" />
    <glyph glyph-name="wgrave" unicode="&#x1e81;" horiz-adv-x="790" 
d="M784 508l-124 -508h-163l-52 210q-24 97 -49 219h-2q-25 -122 -49 -219l-52 -210h-163l-124 508h114l46 -204q28 -120 46 -225h2q19 93 50 221l51 208h160l51 -208q31 -128 50 -221h2q18 105 46 225l46 204h114zM246 712h143l82 -144h-93z" />
    <glyph glyph-name="Wacute" unicode="&#x1e82;" horiz-adv-x="936" 
d="M926 712l-157 -712h-161l-71 296q-40 168 -68 313h-2q-28 -145 -68 -313l-71 -296h-161l-157 712h118l58 -274q39 -180 63 -321h2q37 176 72 322l66 273h158l66 -273q35 -146 72 -322h2q21 123 62 321l59 274h118zM616 902l-132 -142h-93l81 142h144z" />
    <glyph glyph-name="wacute" unicode="&#x1e83;" horiz-adv-x="790" 
d="M784 508l-124 -508h-163l-52 210q-24 97 -49 219h-2q-25 -122 -49 -219l-52 -210h-163l-124 508h114l46 -204q28 -120 46 -225h2q19 93 50 221l51 208h160l51 -208q31 -128 50 -221h2q18 105 46 225l46 204h114zM544 712l-132 -144h-93l81 144h144z" />
    <glyph glyph-name="Wdieresis" unicode="&#x1e84;" horiz-adv-x="936" 
d="M926 712l-157 -712h-161l-71 296q-40 168 -68 313h-2q-28 -145 -68 -313l-71 -296h-161l-157 712h118l58 -274q39 -180 63 -321h2q37 176 72 322l66 273h158l66 -273q35 -146 72 -322h2q21 123 62 321l59 274h118zM415 881v-109h-102v109h102zM621 881v-109h-102v109h102
z" />
    <glyph glyph-name="wdieresis" unicode="&#x1e85;" horiz-adv-x="790" 
d="M784 508l-124 -508h-163l-52 210q-24 97 -49 219h-2q-25 -122 -49 -219l-52 -210h-163l-124 508h114l46 -204q28 -120 46 -225h2q19 93 50 221l51 208h160l51 -208q31 -128 50 -221h2q18 105 46 225l46 204h114zM343 712v-109h-102v109h102zM549 712v-109h-102v109h102z
" />
    <glyph glyph-name="Germandbls" unicode="&#x1e9e;" horiz-adv-x="785" 
d="M688 594l-157 -170q212 -49 212 -231q0 -98 -65 -152t-174 -54q-111 0 -169.5 51t-58.5 149h117q0 -100 109 -100q54 0 85 28t31 80q0 70 -54.5 105.5t-162.5 43.5v84l137 147q-56 51 -144 51q-196 0 -196 -208v-418h-120v416q0 151 83.5 230.5t239.5 79.5
q89 0 163.5 -35.5t123.5 -96.5z" />
    <glyph glyph-name="Ygrave" unicode="&#x1ef2;" horiz-adv-x="626" 
d="M622 712l-249 -426v-286h-120v286l-250 426h136l78 -141q50 -90 95 -184h2q48 100 96 184l77 141h135zM164 902h143l82 -142h-93z" />
    <glyph glyph-name="ygrave" unicode="&#x1ef3;" horiz-adv-x="488" 
d="M376 508h118l-196 -530q-36 -96 -84.5 -132t-137.5 -36q-31 0 -57 7v93q23 -7 48 -7q46 0 70.5 20t42.5 73l-186 512h122l127 -378h2zM95 712h143l82 -144h-93z" />
    <glyph glyph-name="hyphentwo" unicode="&#x2010;" horiz-adv-x="310" 
d="M280 339v-94h-250v94h250z" />
    <glyph glyph-name="endash" unicode="&#x2013;" horiz-adv-x="500" 
d="M480 339v-94h-460v94h460z" />
    <glyph glyph-name="emdash" unicode="&#x2014;" horiz-adv-x="1000" 
d="M980 339v-94h-960v94h960z" />
    <glyph glyph-name="horizontalbar" unicode="&#x2015;" horiz-adv-x="1000" 
d="M980 339v-94h-960v94h960z" />
    <glyph glyph-name="underscoredbl" unicode="&#x2017;" horiz-adv-x="500" 
d="M500 -50v-60h-500v60h500zM500 -187v-60h-500v60h500z" />
    <glyph glyph-name="quoteleft" unicode="&#x2018;" horiz-adv-x="246" 
d="M65 447v125l56 140h62l-41 -140h39v-125h-116z" />
    <glyph glyph-name="quoteright" unicode="&#x2019;" horiz-adv-x="246" 
d="M180 712v-125l-55 -140h-62l41 140h-39v125h115z" />
    <glyph glyph-name="quotesinglbase" unicode="&#x201a;" horiz-adv-x="246" 
d="M180 125v-125l-55 -140h-62l41 140h-39v125h115z" />
    <glyph glyph-name="quotereversed" unicode="&#x201b;" horiz-adv-x="246" 
d="M65 712h116v-125h-39l41 -140h-62l-56 140v125z" />
    <glyph glyph-name="quotedblleft" unicode="&#x201c;" horiz-adv-x="417" 
d="M65 447v125l56 140h62l-41 -140h39v-125h-116zM237 447v125l55 140h62l-41 -140h39v-125h-115z" />
    <glyph glyph-name="quotedblright" unicode="&#x201d;" horiz-adv-x="417" 
d="M180 712v-125l-55 -140h-62l41 140h-39v125h115zM351 712v-125l-55 -140h-62l41 140h-39v125h115z" />
    <glyph glyph-name="quotedblbase" unicode="&#x201e;" horiz-adv-x="417" 
d="M180 125v-125l-55 -140h-62l41 140h-39v125h115zM351 125v-125l-55 -140h-62l41 140h-39v125h115z" />
    <glyph glyph-name="dagger" unicode="&#x2020;" horiz-adv-x="550" 
d="M333 712v-183h163v-92h-163v-557h-115v557h-164v92h164v183h115z" />
    <glyph glyph-name="daggerdbl" unicode="&#x2021;" horiz-adv-x="550" 
d="M333 712v-183h163v-92h-163v-261h163v-93h-163v-203h-115v203h-164v93h164v261h-164v92h164v183h115z" />
    <glyph glyph-name="bullet" unicode="&#x2022;" horiz-adv-x="347" 
d="M174 229q-53 0 -90.5 37.5t-37.5 89.5q0 53 37.5 90t90.5 37t90 -37t37 -90t-37 -90t-90 -37z" />
    <glyph glyph-name="ellipsis" unicode="&#x2026;" horiz-adv-x="826" 
d="M187 142v-142h-132v142h132zM478 142v-142h-131v142h131zM770 142v-142h-131v142h131z" />
    <glyph glyph-name="perthousand" unicode="&#x2030;" horiz-adv-x="1052" 
d="M543 322q68 0 104.5 -44t36.5 -125q0 -80 -37 -124t-104 -44t-103.5 44t-36.5 124q0 81 36.5 125t103.5 44zM543 254q-26 0 -41 -26.5t-15 -74.5t15 -74.5t41 -26.5q27 0 42 26.5t15 74.5q0 101 -57 101zM882 322q67 0 103.5 -44t36.5 -125q0 -80 -36.5 -124t-103.5 -44
t-103.5 44t-36.5 124q0 81 36.5 125t103.5 44zM882 254q-56 0 -56 -101t56 -101t56 101t-56 101zM170 689q67 0 104 -44t37 -124q0 -81 -36.5 -124.5t-104.5 -43.5q-67 0 -103.5 43.5t-36.5 124.5q0 80 36.5 124t103.5 44zM170 622q-26 0 -41 -26.5t-15 -74.5t15 -74.5
t41 -26.5q57 0 57 101q0 48 -15 74.5t-42 26.5zM606 704l-421 -734h-77l421 734h77z" />
    <glyph glyph-name="minute" unicode="&#x2032;" horiz-adv-x="201" 
d="M171 674l-68 -230h-73l36 230h105z" />
    <glyph glyph-name="second" unicode="&#x2033;" horiz-adv-x="365" 
d="M171 674l-68 -230h-73l36 230h105zM338 674l-68 -230h-73l36 230h105z" />
    <glyph glyph-name="guilsinglleft" unicode="&#x2039;" horiz-adv-x="308" 
d="M262 454l-109 -200l109 -200h-102l-114 200l114 200h102z" />
    <glyph glyph-name="guilsinglright" unicode="&#x203a;" horiz-adv-x="308" 
d="M46 454h102l114 -200l-114 -200h-102l109 200z" />
    <glyph glyph-name="exclamdouble" unicode="&#x203c;" horiz-adv-x="537" 
d="M214 119v-119h-129v119h129zM452 119v-119h-129v119h129zM220 712l-26 -525h-89l-26 525h141zM458 712l-26 -525h-89l-26 525h141z" />
    <glyph glyph-name="interrobang" unicode="&#x203d;" horiz-adv-x="532" 
d="M199 0v119h129v-119h-129zM199 712h124l-3 -61q81 -11 127.5 -55.5t46.5 -112.5q0 -55 -20.5 -91t-82.5 -84q-49 -38 -63.5 -62t-14.5 -70h-94l-14 365q-51 -24 -55 -94h-118q3 84 46.5 135t122.5 66zM335 389q23 24 31 42t8 46q0 54 -58 71l-8 -185h2q7 8 25 26z" />
    <glyph glyph-name="overline" unicode="&#x203e;" horiz-adv-x="500" 
d="M500 861v-78h-500v78h500z" />
    <glyph glyph-name="fraction" unicode="&#x2044;" horiz-adv-x="148" 
d="M303 674l-376 -674h-83l377 674h82z" />
    <glyph glyph-name="zerosuperior" unicode="&#x2070;" horiz-adv-x="451" 
d="M226 813q92 0 142 -64t50 -183t-50 -183t-142 -64q-93 0 -142.5 64t-49.5 183t49.5 183t142.5 64zM226 732q-43 0 -66 -43t-23 -123q0 -81 23 -124t66 -43t65.5 43.5t22.5 123.5t-22.5 123t-65.5 43z" />
    <glyph glyph-name="foursuperior" unicode="&#x2074;" horiz-adv-x="427" 
d="M416 514v-78h-78v-106h-99v106h-228v83l195 283h132v-288h78zM151 584l-49 -70h140v56q0 52 4 154h-2q-22 -36 -93 -140z" />
    <glyph glyph-name="fivesuperior" unicode="&#x2075;" horiz-adv-x="433" 
d="M372 802v-83h-221l-11 -110h2q35 35 95 35q72 0 116.5 -43t44.5 -113q0 -77 -50.5 -123t-133.5 -46q-82 0 -130 38.5t-48 104.5h102q1 -30 21.5 -46.5t53.5 -16.5q38 0 59.5 22.5t21.5 62.5q0 39 -21.5 61t-57.5 22q-59 0 -74 -53l-100 6l27 282h304z" />
    <glyph glyph-name="sixsuperior" unicode="&#x2076;" horiz-adv-x="432" 
d="M230 813q73 0 117 -37t49 -104h-103q-9 62 -67 62q-90 0 -96 -146h2q41 49 113 49q70 0 113.5 -42t43.5 -110q0 -74 -50.5 -120t-130.5 -46q-90 0 -138.5 59t-48.5 174q0 125 51.5 193t144.5 68zM222 563q-35 0 -56.5 -23t-21.5 -60t21.5 -59t56.5 -22t56 22.5t21 59.5
t-21 59.5t-56 22.5z" />
    <glyph glyph-name="sevensuperior" unicode="&#x2077;" horiz-adv-x="383" 
d="M11 802h361v-83q-117 -160 -161 -389h-110q52 234 170 387h-260v85z" />
    <glyph glyph-name="eightsuperior" unicode="&#x2078;" horiz-adv-x="434" 
d="M217 813q77 0 125.5 -36.5t48.5 -95.5q0 -37 -23 -64.5t-63 -40.5v-2q45 -12 71 -42.5t26 -73.5q0 -64 -50.5 -101.5t-134.5 -37.5t-134.5 37.5t-50.5 101.5q0 43 25.5 73.5t70.5 42.5v2q-40 13 -63 40.5t-23 64.5q0 59 48.5 95.5t126.5 36.5zM217 534q-38 0 -60.5 -18.5
t-22.5 -49.5t22.5 -49t60.5 -18t60 18t22 49t-22.5 49.5t-59.5 18.5zM217 734q-35 0 -56.5 -16.5t-21.5 -43.5q0 -29 21 -46.5t57 -17.5q35 0 56 17.5t21 46.5q0 27 -21 43.5t-56 16.5z" />
    <glyph glyph-name="ninesuperior" unicode="&#x2079;" horiz-adv-x="432" 
d="M202 319q-72 0 -116 37t-49 104h102q9 -62 67 -62q92 0 96 146h-2q-40 -49 -113 -49q-70 0 -113.5 42t-43.5 110q0 74 50.5 120t130.5 46q90 0 139 -59t49 -174q0 -125 -52 -193t-145 -68zM210 569q35 0 56.5 23t21.5 60t-21.5 59t-56.5 22t-56 -22.5t-21 -59.5t21 -59.5
t56 -22.5z" />
    <glyph glyph-name="plussuperior" unicode="&#x207a;" horiz-adv-x="410" 
d="M245 706v-116h118v-77h-118v-115h-79v115h-119v77h119v116h79z" />
    <glyph glyph-name="minussuperior" unicode="&#x207b;" horiz-adv-x="410" 
d="M363 590v-77h-316v77h316z" />
    <glyph glyph-name="equalsuperior" unicode="&#x207c;" horiz-adv-x="410" 
d="M363 656v-75h-316v75h316zM363 522v-75h-316v75h316z" />
    <glyph glyph-name="parenleftsuperior" unicode="&#x207d;" horiz-adv-x="235" 
d="M133 849h81q-77 -154 -77 -311t77 -311h-81q-101 143 -101 311q0 169 101 311z" />
    <glyph glyph-name="parenrightsuperior" unicode="&#x207e;" horiz-adv-x="235" 
d="M102 227h-81q77 154 77 311t-77 311h81q101 -143 101 -311q0 -169 -101 -311z" />
    <glyph glyph-name="zeroinferior" unicode="&#x2080;" horiz-adv-x="451" 
d="M226 311q92 0 142 -64t50 -183t-50 -183t-142 -64q-93 0 -142.5 64t-49.5 183t49.5 183t142.5 64zM226 230q-43 0 -66 -43t-23 -123q0 -81 23 -124t66 -43t65.5 43.5t22.5 123.5t-22.5 123t-65.5 43z" />
    <glyph glyph-name="oneinferior" unicode="&#x2081;" horiz-adv-x="300" 
d="M232 300v-472h-102v317h-120v74q64 0 95 19t38 62h89z" />
    <glyph glyph-name="twoinferior" unicode="&#x2082;" horiz-adv-x="439" 
d="M221 311q78 0 125 -38.5t47 -99.5q0 -57 -33 -92.5t-98 -69.5q-65 -33 -86.5 -54t-22.5 -46h252v-83h-367q-2 6 -2 20q0 74 29.5 121t112.5 92q60 32 85 54.5t25 56.5q0 26 -18 42t-49 16q-73 0 -76 -77h-102q1 75 48.5 116.5t129.5 41.5z" />
    <glyph glyph-name="threeinferior" unicode="&#x2083;" horiz-adv-x="433" 
d="M216 311q81 0 128 -36t47 -97q0 -39 -20 -64t-64 -42v-2q47 -16 69 -43t22 -71q0 -63 -49.5 -101t-131.5 -38q-90 0 -138.5 42.5t-48.5 119.5h103q0 -81 84 -81q35 0 56.5 17t21.5 45q0 67 -98 67h-15v78h17q42 0 66.5 17t24.5 47q0 28 -20.5 44.5t-55.5 16.5
q-77 0 -77 -78h-101q0 75 47.5 117t132.5 42z" />
    <glyph glyph-name="fourinferior" unicode="&#x2084;" horiz-adv-x="427" 
d="M415 12v-78h-78v-106h-99v106h-228v83l195 283h132v-288h78zM150 82l-49 -70h140v56q0 52 4 154h-2q-22 -36 -93 -140z" />
    <glyph glyph-name="fiveinferior" unicode="&#x2085;" horiz-adv-x="433" 
d="M372 300v-83h-221l-11 -110h2q35 35 95 35q72 0 116.5 -43t44.5 -113q0 -77 -50.5 -123t-133.5 -46q-82 0 -130 38.5t-48 104.5h102q1 -30 21.5 -46.5t53.5 -16.5q38 0 59.5 22.5t21.5 62.5q0 39 -21.5 61t-57.5 22q-59 0 -74 -53l-100 6l27 282h304z" />
    <glyph glyph-name="sixinferior" unicode="&#x2086;" horiz-adv-x="432" 
d="M230 311q73 0 117 -37t49 -104h-103q-9 62 -67 62q-90 0 -96 -146h2q41 49 113 49q70 0 113.5 -42t43.5 -110q0 -74 -50.5 -120t-130.5 -46q-90 0 -138.5 59t-48.5 174q0 125 51.5 193t144.5 68zM222 61q-35 0 -56.5 -23t-21.5 -60t21.5 -59t56.5 -22t56 22.5t21 59.5
t-21 59.5t-56 22.5z" />
    <glyph glyph-name="seveninferior" unicode="&#x2087;" horiz-adv-x="383" 
d="M10 300h361v-83q-117 -160 -161 -389h-110q52 234 170 387h-260v85z" />
    <glyph glyph-name="eightinferior" unicode="&#x2088;" horiz-adv-x="434" 
d="M217 311q77 0 125.5 -36.5t48.5 -95.5q0 -37 -23 -64.5t-63 -40.5v-2q45 -12 71 -42.5t26 -73.5q0 -64 -50.5 -101.5t-134.5 -37.5t-134.5 37.5t-50.5 101.5q0 43 25.5 73.5t70.5 42.5v2q-40 13 -63 40.5t-23 64.5q0 59 48.5 95.5t126.5 36.5zM217 232q-35 0 -56.5 -16.5
t-21.5 -43.5q0 -29 21 -46.5t57 -17.5q35 0 56 17.5t21 46.5q0 27 -21 43.5t-56 16.5zM217 32q-38 0 -60.5 -18.5t-22.5 -49.5t22.5 -49t60.5 -18t60 18t22 49t-22.5 49.5t-59.5 18.5z" />
    <glyph glyph-name="nineinferior" unicode="&#x2089;" horiz-adv-x="432" 
d="M202 -183q-72 0 -116 37t-49 104h102q9 -62 67 -62q92 0 96 146h-2q-40 -49 -113 -49q-70 0 -113.5 42t-43.5 110q0 74 50.5 120t130.5 46q90 0 139 -59t49 -174q0 -125 -52 -193t-145 -68zM210 67q35 0 56.5 23t21.5 60t-21.5 59t-56.5 22t-56 -22.5t-21 -59.5t21 -59.5
t56 -22.5z" />
    <glyph glyph-name="plusinferior" unicode="&#x208a;" horiz-adv-x="411" 
d="M245 204v-116h118v-77h-118v-115h-79v115h-118v77h118v116h79z" />
    <glyph glyph-name="minusinferior" unicode="&#x208b;" horiz-adv-x="411" 
d="M363 88v-77h-315v77h315z" />
    <glyph glyph-name="equalinferior" unicode="&#x208c;" horiz-adv-x="411" 
d="M363 154v-75h-315v75h315zM363 20v-75h-315v75h315z" />
    <glyph glyph-name="parenleftinferior" unicode="&#x208d;" horiz-adv-x="235" 
d="M133 347h81q-77 -154 -77 -311t77 -311h-81q-101 143 -101 311q0 169 101 311z" />
    <glyph glyph-name="parenrightinferior" unicode="&#x208e;" horiz-adv-x="235" 
d="M102 -275h-81q77 154 77 311t-77 311h81q101 -143 101 -311q0 -169 -101 -311z" />
    <glyph glyph-name="ninferior" unicode="&#x2099;" horiz-adv-x="434" 
d="M253 193q64 0 98.5 -37.5t34.5 -109.5v-218h-97v208q0 79 -65 79q-34 0 -54.5 -24.5t-20.5 -71.5v-191h-98v356h93v-44h1q39 53 108 53z" />
    <glyph glyph-name="franc" unicode="&#x20a3;" horiz-adv-x="581" 
d="M552 570h-327v-157h303v-104h-303v-105h168v-89h-168v-115h-120v115h-81v89h81v470h447v-104z" />
    <glyph glyph-name="lira" unicode="&#x20a4;" horiz-adv-x="581" 
d="M179 98v-2h363v-96h-518v97q47 0 70 31t23 102v8h-93v64h93v48h-93v65h93v45q0 114 56.5 171.5t164.5 57.5q98 0 154 -56.5t56 -154.5h-115q0 54 -25 82.5t-70 28.5q-102 0 -102 -129v-45h124v-65h-124v-48h124v-64h-124v-7q0 -54 -13 -83.5t-44 -49.5z" />
    <glyph glyph-name="peseta" unicode="&#x20a7;" horiz-adv-x="867" 
d="M805 87q21 0 36 5v-89q-31 -9 -65 -9q-81 0 -117 36.5t-36 119.5v271h-58q-9 -90 -74 -141t-179 -51h-104v-229h-120v674h224q105 0 168.5 -44t80.5 -122h62v127h114v-127h99v-87h-99v-254q0 -43 15.5 -61.5t52.5 -18.5zM208 573v-243h90q146 0 146 122q0 121 -146 121
h-90z" />
    <glyph glyph-name="euro" unicode="&#x20ac;" horiz-adv-x="581" 
d="M450 207h117q-10 -105 -75 -163.5t-169 -58.5q-110 0 -178 66.5t-86 193.5h-58l12 64h41l-1 28v20h-52l12 65h45q16 130 85 198.5t182 68.5q106 0 168.5 -57.5t69.5 -161.5h-114q-8 57 -39.5 88t-84.5 31q-124 0 -149 -167h237l-12 -65h-231v-20q0 -19 1 -28h221l-12 -64
h-203q26 -160 146 -160q52 0 85.5 32t41.5 90z" />
    <glyph glyph-name="rupeeIndian" unicode="&#x20b9;" horiz-adv-x="581" 
d="M533 599h-156v-2q51 -22 64 -76h113l-21 -75h-91q-24 -110 -163 -136v-2q65 -25 113 -124l90 -184h-136l-81 173q-27 59 -61.5 84t-84.5 25h-16v80h45q129 0 160 84h-280l21 75h262q-21 78 -154 78h-129l21 75h505z" />
    <glyph glyph-name="liraTurkish" unicode="&#x20ba;" horiz-adv-x="581" 
d="M436 320h124q0 -160 -88.5 -243t-251.5 -83q-60 0 -114 6v259l-90 -49v80l90 49v77l-90 -49v80l90 49v178h120v-121l166 90v-80l-166 -90v-76l166 90v-80l-166 -90v-218q102 0 156 56t54 165z" />
    <glyph glyph-name="uni20BC" unicode="&#x20bc;" horiz-adv-x="686" 
d="M153 0h-110v304q0 151 59.5 224.5t185.5 81.5v102h110v-102q126 -8 185.5 -81.5t59.5 -224.5v-304h-110v301q0 104 -30.5 151t-104.5 52v-504h-110v504q-73 -5 -104 -52t-31 -151v-301z" />
    <glyph glyph-name="ruble" unicode="&#x20bd;" horiz-adv-x="581" 
d="M91 356v318h232q114 0 174 -55t60 -150q0 -96 -60 -151t-174 -55h-114v-61h189v-89h-189v-113h-118v113h-81v89h81v61h-81v93h81zM309 581h-100v-225h100q63 0 94.5 29.5t31.5 83.5q0 53 -31.5 82.5t-94.5 29.5z" />
    <glyph glyph-name="careof" unicode="&#x2105;" horiz-adv-x="918" 
d="M705 362q86 0 136.5 -51t50.5 -137q0 -88 -50.5 -138.5t-136.5 -50.5q-85 0 -135.5 51t-50.5 138q0 86 50.5 137t135.5 51zM705 286q-38 0 -60.5 -30t-22.5 -82t22.5 -82.5t60.5 -30.5q39 0 61.5 30.5t22.5 82.5t-22.5 82t-61.5 30zM210 689q73 0 120 -40.5t53 -103.5
h-102q-2 29 -21 48t-49 19q-38 0 -59.5 -29.5t-21.5 -81.5t21.5 -82.5t59.5 -30.5q29 0 48.5 21t21.5 53h102q-5 -67 -52 -108.5t-121 -41.5q-84 0 -133.5 51t-49.5 138q0 86 49.5 137t133.5 51zM681 674l-377 -674h-82l376 674h83z" />
    <glyph glyph-name="literSign" unicode="&#x2113;" horiz-adv-x="445" 
d="M208 203v-44q0 -44 17 -64.5t54 -20.5q26 0 48 8v-81q-35 -11 -76 -11q-80 0 -118 40.5t-38 126.5v32q-22 1 -53 7v66q31 -6 53 -7v219q0 120 34 167.5t109 47.5q65 0 105 -46.5t40 -148.5q0 -121 -46.5 -193.5t-128.5 -97.5zM256 613q-26 0 -37 -24.5t-11 -91.5v-221
q104 50 104 218q0 119 -56 119z" />
    <glyph glyph-name="numero" unicode="&#x2116;" horiz-adv-x="1162" 
d="M1116 186v-88h-336v88h336zM677 712v-712h-172l-154 298q-81 158 -151 306h-2q6 -162 6 -324v-280h-116v712h173l153 -298q81 -158 151 -306h2q-5 180 -5 324v280h115zM949 618q86 0 136.5 -51t50.5 -137q0 -88 -50.5 -138.5t-136.5 -50.5q-85 0 -135.5 51t-50.5 138
q0 86 50.5 137t135.5 51zM949 542q-38 0 -60.5 -30t-22.5 -82t22.5 -82.5t60.5 -30.5q39 0 61.5 30.5t22.5 82.5t-22.5 82t-61.5 30z" />
    <glyph glyph-name="published" unicode="&#x2117;" horiz-adv-x="806" 
d="M403 725q162 0 260.5 -101.5t98.5 -267.5t-98.5 -267.5t-260.5 -101.5q-161 0 -260 101.5t-99 267.5t99 267.5t260 101.5zM403 674q-139 0 -224 -87.5t-85 -230.5t85 -230.5t224 -87.5q140 0 225 87.5t85 230.5t-85 230.5t-225 87.5zM263 121v460h172q85 0 129.5 -39
t44.5 -109q0 -69 -44.5 -108.5t-129.5 -39.5h-89v-164h-83zM426 510h-80v-153h80q96 0 96 76q0 77 -96 77z" />
    <glyph glyph-name="trademark" unicode="&#x2122;" horiz-adv-x="815" 
d="M310 712v-71h-111v-285h-83v285h-111v71h305zM771 712v-356h-77v166q0 44 2 128h-2q-6 -21 -17.5 -63t-17.5 -63l-49 -168h-95l-49 168q-24 84 -35 126h-2q2 -84 2 -128v-166h-77v356h129l43 -149q20 -67 35 -132h2q15 65 35 132l44 149h129z" />
    <glyph glyph-name="Ohm" unicode="&#x2126;" horiz-adv-x="731" 
d="M366 727q146 0 233 -80t87 -235q0 -91 -39 -164t-110 -144v-2h160v-102h-275v107q68 69 104 136t36 153q0 110 -53.5 167t-142.5 57t-142.5 -57t-53.5 -167q0 -86 36 -153t103 -136v-107h-275v102h160v2q-71 72 -110 144.5t-39 163.5q0 155 87.5 235t233.5 80z" />
    <glyph glyph-name="estimated" unicode="&#x212e;" horiz-adv-x="862" 
d="M431 689q176 0 279.5 -105t103.5 -257h-611q-14 0 -14 -12v-167q0 -29 16 -44q93 -91 226 -91q72 0 135.5 30.5t103.5 79.5h69q-40 -56 -118 -95.5t-190 -39.5q-172 0 -278 98t-106 251q0 152 104.5 252t279.5 100zM431 663q-132 0 -226 -94q-16 -14 -16 -41v-166
q0 -13 14 -13h455q13 0 13 13v166q0 27 -15 41q-95 94 -225 94z" />
    <glyph glyph-name="oneeighth" unicode="&#x215b;" horiz-adv-x="787" 
d="M596 414q69 0 112 -32t43 -83q0 -66 -73 -88v-2q39 -10 60.5 -35.5t21.5 -61.5q0 -56 -44.5 -89t-119.5 -33t-119 33t-44 89q0 36 22 61.5t61 35.5v2q-74 22 -74 88q0 51 43 83t111 32zM596 172q-30 0 -49 -15t-19 -40t18.5 -39t49.5 -14q32 0 50.5 14t18.5 39t-19 40
t-50 15zM596 342q-29 0 -46 -13.5t-17 -35.5q0 -23 17 -37t46 -14q30 0 47.5 14t17.5 37t-17.5 36t-47.5 13zM204 674v-404h-96v265h-99v69q94 0 110 70h85zM561 674l-376 -674h-83l377 674h82z" />
    <glyph glyph-name="threeeighths" unicode="&#x215c;" horiz-adv-x="911" 
d="M720 414q69 0 112 -32t43 -83q0 -66 -73 -88v-2q39 -10 60.5 -35.5t21.5 -61.5q0 -56 -44.5 -89t-119.5 -33t-119 33t-44 89q0 36 22 61.5t61 35.5v2q-74 22 -74 88q0 51 43 83t111 32zM720 172q-30 0 -49 -15t-19 -40t18.5 -39t49.5 -14q32 0 50.5 14t18.5 39t-19 40
t-50 15zM720 342q-29 0 -46 -13.5t-17 -35.5q0 -23 17 -37t46 -14q30 0 47.5 14t17.5 37t-17.5 36t-47.5 13zM190 684q72 0 114 -31.5t42 -83.5q0 -63 -71 -90v-1q40 -13 58.5 -37t18.5 -62q0 -55 -43 -87t-117 -32q-79 0 -122.5 36.5t-43.5 103.5h95q0 -65 71 -65
q30 0 48 13.5t18 35.5q0 54 -82 54h-14v71h13q35 0 56.5 14.5t21.5 39.5q0 21 -17 34t-46 13q-66 0 -66 -62h-93q0 64 42.5 100t116.5 36zM685 674l-376 -674h-83l377 674h82z" />
    <glyph glyph-name="fiveeighths" unicode="&#x215d;" horiz-adv-x="911" 
d="M719 414q69 0 112 -32t43 -83q0 -66 -73 -88v-2q39 -10 60.5 -35.5t21.5 -61.5q0 -56 -44.5 -89t-119.5 -33t-119 33t-44 89q0 36 22 61.5t61 35.5v2q-74 22 -74 88q0 51 43 83t111 32zM719 172q-30 0 -49 -15t-19 -40t18.5 -39t49.5 -14q32 0 50.5 14t18.5 39t-19 40
t-50 15zM719 342q-29 0 -46 -13.5t-17 -35.5q0 -23 17 -37t46 -14q30 0 47.5 14t17.5 37t-17.5 36t-47.5 13zM329 674v-77h-192l-9 -85h2q31 28 82 28q63 0 101.5 -37.5t38.5 -99.5q0 -65 -44 -104t-118 -39q-72 0 -115 33.5t-43 90.5h95q1 -24 18 -37.5t44 -13.5
q32 0 50.5 19t18.5 51q0 31 -18 48.5t-48 17.5q-52 0 -63 -43l-93 5l24 243h269zM685 674l-376 -674h-83l377 674h82z" />
    <glyph glyph-name="seveneighths" unicode="&#x215e;" horiz-adv-x="815" 
d="M624 414q69 0 112 -32t43 -83q0 -66 -73 -88v-2q39 -10 60.5 -35.5t21.5 -61.5q0 -56 -44.5 -89t-119.5 -33t-119 33t-44 89q0 36 22 61.5t61 35.5v2q-74 22 -74 88q0 51 43 83t111 32zM624 172q-30 0 -49 -15t-19 -40t18.5 -39t49.5 -14q32 0 50.5 14t18.5 39t-19 40
t-50 15zM624 342q-29 0 -46 -13.5t-17 -35.5q0 -23 17 -37t46 -14q30 0 47.5 14t17.5 37t-17.5 36t-47.5 13zM9 674h317v-76q-98 -131 -138 -328h-101q46 200 145 326h-223v78zM589 674l-376 -674h-83l377 674h82z" />
    <glyph glyph-name="Sevenroman" unicode="&#x2166;" horiz-adv-x="1204" 
d="M625 712l-233 -712h-152l-234 712h123l97 -297q43 -128 89 -298h2q36 137 88 298l97 297h123zM819 712v-712h-120v712h120zM1115 712v-712h-120v712h120z" />
    <glyph glyph-name="partialdiff" unicode="&#x2202;" horiz-adv-x="613" 
d="M280 727q130 0 198 -89t68 -260q0 -198 -74 -295.5t-192 -97.5q-114 0 -176 65t-62 173q0 112 64.5 184t174.5 72q100 0 148 -69h2q1 9 1 27q0 86 -41.5 139t-105.5 53q-87 0 -100 -88h-120q9 86 63 136t152 50zM293 389q-60 0 -96 -47t-36 -120q0 -66 31.5 -102.5
t91.5 -36.5q62 0 97.5 45t35.5 117q0 66 -33 105t-91 39z" />
    <glyph glyph-name="increment" unicode="&#x2206;" horiz-adv-x="687" 
d="M426 712l257 -712h-679l260 712h162zM165 104h355l-85 249q-49 146 -91 283h-2q-32 -105 -92 -283z" />
    <glyph glyph-name="product" unicode="&#x220f;" horiz-adv-x="670" 
d="M582 712v-832h-119v728h-255v-728h-120v832h494z" />
    <glyph glyph-name="summation" unicode="&#x2211;" horiz-adv-x="500" 
d="M465 712v-105h-298l187 -313l-187 -309h298v-105h-430v105l189 309l-189 313v105h430z" />
    <glyph glyph-name="minus" unicode="&#x2212;" horiz-adv-x="566" 
d="M499 362v-91h-432v91h432z" />
    <glyph glyph-name="divisionslash" unicode="&#x2215;" horiz-adv-x="473" 
d="M422 745l-298 -834h-94l298 834h94z" />
    <glyph glyph-name="bulletoperator" unicode="&#x2219;" horiz-adv-x="353" 
d="M242 376v-141h-131v141h131z" />
    <glyph glyph-name="radical" unicode="&#x221a;" horiz-adv-x="608" 
d="M588 712l-238 -832h-149l-94 397h-82v92h159l93 -389h2l209 732h100z" />
    <glyph glyph-name="infinity" unicode="&#x221e;" horiz-adv-x="651" 
d="M488 469q66 0 107 -44t41 -117t-41 -117t-107 -44q-53 0 -90.5 24.5t-72.5 68.5q-34 -44 -71 -68.5t-90 -24.5q-67 0 -108 44t-41 117t41 117t108 44q53 0 90 -24.5t71 -68.5q35 44 72.5 68.5t90.5 24.5zM173 234q30 0 54 19t50 55q-26 36 -50 55t-54 19q-33 0 -51 -20
t-18 -54t18 -54t51 -20zM478 234q33 0 51 20t18 54t-18 54t-51 20q-30 0 -54 -19t-50 -55q26 -36 50 -55t54 -19z" />
    <glyph glyph-name="integral" unicode="&#x222b;" horiz-adv-x="333" 
d="M264 719q25 0 60 -7v-84q-12 4 -28 4q-37 0 -55 -19.5t-18 -63.5v-584q0 -157 -154 -157q-25 0 -60 7v84q12 -4 27 -4q38 0 56 19.5t18 63.5v584q0 157 154 157z" />
    <glyph glyph-name="approxequal" unicode="&#x2248;" horiz-adv-x="566" 
d="M191 302q35 0 68.5 -21t61.5 -42t51 -21q27 0 41.5 19t14.5 52h75q0 -71 -35 -114t-93 -43q-35 0 -68 21t-61.5 41.5t-51.5 20.5q-27 0 -41.5 -19t-14.5 -51h-75q0 70 35 113.5t93 43.5zM191 502q35 0 68.5 -21t61.5 -41.5t51 -20.5q27 0 41.5 19t14.5 51h75
q0 -70 -35 -113.5t-93 -43.5q-35 0 -68 21t-61.5 42t-51.5 21q-27 0 -41.5 -19t-14.5 -52h-75q0 71 35 114t93 43z" />
    <glyph glyph-name="notequal" unicode="&#x2260;" horiz-adv-x="566" 
d="M499 360h-146l-53 -87h199v-91h-253l-73 -122h-87l73 122h-92v91h146l53 87h-199v91h253l73 122h87l-73 -122h92v-91z" />
    <glyph glyph-name="lessequal" unicode="&#x2264;" horiz-adv-x="566" 
d="M67 89h432v-89h-432v89zM499 550v-94l-326 -119v-2l326 -120v-94l-432 157v115z" />
    <glyph glyph-name="greaterequal" unicode="&#x2265;" horiz-adv-x="566" 
d="M499 89v-89h-432v89h432zM67 550l432 -157v-115l-432 -157v94l326 120v2l-326 119v94z" />
    <glyph glyph-name="lozenge" unicode="&#x25ca;" horiz-adv-x="621" 
d="M386 712l195 -356l-195 -356h-151l-195 356l195 356h151zM310 630l-152 -274l152 -274l153 274z" />
    <glyph glyph-name="apple" unicode="&#xf8ff;" horiz-adv-x="633" 
d="M151 777h331q61 0 96.5 -36t35.5 -97v-576q0 -61 -35.5 -97t-96.5 -36h-331q-61 0 -97 35.5t-36 97.5v576q0 62 36 97.5t97 35.5zM482 721h-331q-35 0 -55.5 -21t-20.5 -56v-576q0 -35 20.5 -56t55.5 -21h331q35 0 55.5 21t20.5 56v576q0 35 -20.5 56t-55.5 21zM361 167
v-102h-111v102h111zM316 647q81 0 128 -40.5t47 -108.5q0 -42 -15 -71t-61 -70q-41 -37 -53.5 -64t-12.5 -82h-87q-1 10 -1 29q0 57 14 88t58 74q33 32 42.5 50t9.5 44q0 30 -18 47t-51 17q-76 0 -79 -89h-104q2 86 49.5 131t133.5 45z" />
    <glyph glyph-name="ff" unicode="&#xfb00;" horiz-adv-x="615" 
d="M576 632q-37 0 -55 -19.5t-18 -63.5v-41h98v-87h-98v-421h-113v421h-179v-421h-113v421h-86v87h86v54q0 157 154 157q25 0 60 -7v-84q-14 4 -28 4q-37 0 -55 -19.5t-18 -63.5v-41h179v54q0 157 154 157q26 0 59 -7v-84q-12 4 -27 4z" />
    <glyph glyph-name="fi" unicode="&#xfb01;" horiz-adv-x="583" 
d="M12 508h86v54q0 157 154 157q25 0 60 -7v-84q-14 4 -28 4q-37 0 -55 -19.5t-18 -63.5v-41h98v-87h-98v-421h-113v421h-86v87zM396 0v508h114v-508h-114zM396 712h114v-109h-114v109z" />
    <glyph glyph-name="fl" unicode="&#xfb02;" horiz-adv-x="583" 
d="M12 508h86v54q0 157 154 157q25 0 60 -7v-84q-14 4 -28 4q-37 0 -55 -19.5t-18 -63.5v-41h98v-87h-98v-421h-113v421h-86v87zM396 712h114v-712h-114v712z" />
    <glyph glyph-name="ffi" unicode="&#xfb03;" horiz-adv-x="875" 
d="M211 508h179v54q0 157 154 157q26 0 59 -7v-84q-12 4 -27 4q-37 0 -55 -19.5t-18 -63.5v-41h98v-87h-98v-421h-113v421h-179v-421h-113v421h-86v87h86v54q0 157 154 157q25 0 60 -7v-84q-14 4 -28 4q-37 0 -55 -19.5t-18 -63.5v-41zM688 0v508h114v-508h-114zM688 712
h114v-109h-114v109z" />
    <glyph glyph-name="ffl" unicode="&#xfb04;" horiz-adv-x="875" 
d="M211 508h179v54q0 157 154 157q26 0 59 -7v-84q-12 4 -27 4q-37 0 -55 -19.5t-18 -63.5v-41h98v-87h-98v-421h-113v421h-179v-421h-113v421h-86v87h86v54q0 157 154 157q25 0 60 -7v-84q-14 4 -28 4q-37 0 -55 -19.5t-18 -63.5v-41zM688 712h114v-712h-114v712z" />
    <glyph glyph-name="uniFEFF" unicode="&#xfeff;" horiz-adv-x="0" 
 />
    <glyph glyph-name="J.acute.loclNLD" horiz-adv-x="374" 
d="M171 712h120v-496q0 -113 -53.5 -167.5t-165.5 -54.5q-31 0 -57 7v103q21 -4 45 -4q58 0 84.5 30t26.5 107v475zM380 916l-132 -144h-93l81 144h144z" />
    <glyph glyph-name="Ccedilla.ss01" horiz-adv-x="695" 
d="M359 727q128 0 206 -72t83 -187h-121q-8 71 -52.5 111.5t-115.5 40.5q-91 0 -143 -70.5t-52 -193.5t51.5 -193.5t140.5 -70.5q71 0 116.5 41t55.5 114h123q-11 -123 -89 -192.5t-206 -69.5q-147 0 -231.5 99t-84.5 272t85.5 272t233.5 99zM420 -49l-99 -165h-136l135 165
h100z" />
    <glyph glyph-name="Scedilla.ss01" horiz-adv-x="620" 
d="M295 727q129 0 195.5 -59.5t66.5 -174.5h-121q0 67 -37 101.5t-106 34.5q-58 0 -91.5 -25.5t-33.5 -69.5q0 -46 35 -68t128 -45q48 -12 78 -21t65.5 -26.5t55.5 -38.5t33.5 -54.5t13.5 -77.5q0 -99 -73 -158.5t-193 -59.5q-131 0 -204 64.5t-73 185.5h123
q0 -151 155 -151q66 0 103.5 29t37.5 79t-34 71t-127 44q-50 13 -78.5 21.5t-65.5 26t-56 38t-33 54t-14 76.5q0 91 68.5 147.5t181.5 56.5zM369 -49l-99 -165h-136l135 165h100z" />
    <glyph glyph-name="Tcedilla.ss01" horiz-adv-x="607" 
d="M597 712v-104h-234v-608h-119v608h-234v104h587zM367 -49l-99 -165h-136l135 165h100z" />
    <glyph glyph-name="idotaccent" horiz-adv-x="260" 
d="M187 508v-508h-114v508h114zM187 712v-109h-114v109h114z" />
    <glyph glyph-name="j.acute.loclNLD" horiz-adv-x="264" 
d="M77 508h114v-528q0 -88 -42.5 -129t-117.5 -41q-27 0 -58 7v85q13 -3 28 -3q39 0 57.5 21.5t18.5 74.5v513zM283 712l-132 -144h-93l81 144h144z" />
    <glyph glyph-name="ccedilla.ss01" horiz-adv-x="548" 
d="M285 523q96 0 158.5 -55.5t70.5 -143.5h-119q-4 50 -34 79.5t-76 29.5q-60 0 -93.5 -47.5t-33.5 -131.5t33.5 -131.5t93.5 -47.5q46 0 75.5 33t33.5 85h120q-8 -93 -70 -150.5t-159 -57.5q-113 0 -180 73t-67 196t67 196t180 73zM349 -49l-99 -165h-136l135 165h100z" />
    <glyph glyph-name="scedilla.ss01" horiz-adv-x="509" 
d="M248 523q98 0 151.5 -44.5t54.5 -128.5h-110q0 90 -97 90q-40 0 -62 -16t-22 -44q0 -30 23 -43t92 -30q28 -7 35.5 -9t33 -9.5t34 -13t27.5 -15.5t26.5 -20.5t18 -25.5t14 -33.5t3.5 -40.5q0 -70 -58 -112.5t-155 -42.5q-104 0 -161.5 46.5t-58.5 135.5h116
q0 -47 27.5 -72t78.5 -25q43 0 67.5 17t24.5 46q0 36 -26 50.5t-102 33.5q-28 7 -37.5 9.5t-33.5 10t-34 14t-26.5 18.5t-23.5 25.5t-13 33t-6 43.5q0 68 55 110t144 42zM319 -49l-99 -165h-136l135 165h100z" />
    <glyph glyph-name="tcedilla.ss01" horiz-adv-x="339" 
d="M277 87q22 0 35 5v-89q-31 -9 -64 -9q-81 0 -117.5 36.5t-36.5 119.5v271h-85v87h85v127h114v-127h99v-87h-99v-254q0 -43 16 -61.5t53 -18.5zM17 -214l135 165h100l-99 -165h-136z" />
    <glyph glyph-name="a.sups" horiz-adv-x="402" 
d="M196 696q158 0 158 -142v-126q0 -58 10 -98h-88q-6 22 -6 48h-1q-41 -56 -122 -56q-58 0 -92 30t-34 78q0 47 33 74t112 39q64 9 93 10v14q0 65 -63 65q-62 0 -64 -57h-96q3 53 43.5 87t116.5 34zM259 480v16q-33 -2 -76 -9q-35 -6 -49.5 -18t-14.5 -33q0 -22 15 -35
t42 -13q39 0 60 22q23 22 23 70z" />
    <glyph glyph-name="b.sups" horiz-adv-x="435" 
d="M149 828v-184h2q34 52 103 52q70 0 112 -51t42 -137q0 -85 -42.5 -136t-112.5 -51q-72 0 -105 55h-2v-46h-95v498h98zM224 620q-36 0 -58 -30.5t-22 -81.5t22 -81.5t58 -30.5q37 0 59.5 31t22.5 81q0 51 -22.5 81.5t-59.5 30.5z" />
    <glyph glyph-name="c.sups" horiz-adv-x="407" 
d="M210 696q73 0 120 -40.5t53 -102.5h-102q-2 28 -21 47.5t-49 19.5q-38 0 -59.5 -29.5t-21.5 -81.5q0 -53 21.5 -83t59.5 -30q29 0 48.5 20.5t21.5 52.5h102q-5 -67 -52 -108.5t-121 -41.5q-84 0 -133.5 51t-49.5 139q0 86 49.5 136.5t133.5 50.5z" />
    <glyph glyph-name="d.sups" horiz-adv-x="435" 
d="M286 828h98v-498h-95v46h-2q-15 -26 -43 -40.5t-62 -14.5q-70 0 -112.5 51t-42.5 136q0 86 42 137t112 51q69 0 103 -52h2v184zM211 620q-37 0 -59.5 -30.5t-22.5 -81.5q0 -50 22.5 -81t59.5 -31q36 0 58 30.5t22 81.5t-22 81.5t-58 30.5z" />
    <glyph glyph-name="e.sups" horiz-adv-x="415" 
d="M209 388q31 0 50.5 14t24.5 36h100q-11 -51 -57.5 -85t-116.5 -34q-86 0 -134.5 53t-48.5 139q0 81 48.5 133t132.5 52q64 0 108 -31t61 -86q11 -34 11 -92h-265q2 -51 25.5 -75t60.5 -24zM208 629q-73 0 -83 -83h166q-4 41 -26.5 62t-56.5 21z" />
    <glyph glyph-name="egrave.sups" horiz-adv-x="415" 
d="M209 388q31 0 50.5 14t24.5 36h100q-11 -51 -57.5 -85t-116.5 -34q-86 0 -134.5 53t-48.5 139q0 81 48.5 133t132.5 52q64 0 108 -31t61 -86q11 -34 11 -92h-265q2 -51 25.5 -75t60.5 -24zM208 629q-73 0 -83 -83h166q-4 41 -26.5 62t-56.5 21zM271 727h-89l-108 101h127
z" />
    <glyph glyph-name="f.sups" horiz-adv-x="246" 
d="M218 761q-52 0 -52 -54v-21h69v-73h-69v-283h-98v283h-60v73h60v32q0 116 121 116q23 0 49 -6v-69q-10 2 -20 2z" />
    <glyph glyph-name="g.sups" horiz-adv-x="430" 
d="M180 696q66 0 105 -57h2v47h92v-333q0 -159 -176 -159q-73 0 -115 30t-45 84h95q3 -48 66 -48q40 0 60 21.5t20 71.5v39h-2q-37 -53 -104 -53q-69 0 -110 48.5t-41 129.5q0 82 41.5 130.5t111.5 48.5zM206 620q-36 0 -57 -28t-21 -75t21 -74.5t57 -27.5q37 0 59 27.5
t22 74.5t-22 75t-59 28z" />
    <glyph glyph-name="h.sups" horiz-adv-x="434" 
d="M149 828v-180h2q36 47 102 47q64 0 98.5 -37.5t34.5 -109.5v-218h-97v208q0 79 -65 79q-34 0 -54.5 -24t-20.5 -72v-191h-98v498h98z" />
    <glyph glyph-name="i.sups" horiz-adv-x="200" 
d="M149 686v-356h-98v356h98zM149 828v-83h-98v83h98z" />
    <glyph glyph-name="j.sups" horiz-adv-x="204" 
d="M55 686h98v-365q0 -64 -33 -94t-90 -30q-24 0 -49 5v72q7 -2 21 -2q27 0 40 14t13 49v351zM153 828v-83h-98v83h98z" />
    <glyph glyph-name="k.sups" horiz-adv-x="392" 
d="M240 522l159 -192h-123l-125 167h-2v-167h-98v499h98v-285h2l115 142h117z" />
    <glyph glyph-name="l.sups" horiz-adv-x="200" 
d="M149 828v-498h-98v498h98z" />
    <glyph glyph-name="m.sups" horiz-adv-x="646" 
d="M472 695q60 0 93.5 -37.5t33.5 -108.5v-219h-98v209q0 78 -58 78q-33 0 -51 -25.5t-18 -73.5v-188h-98v215q0 72 -58 72q-33 0 -51 -26t-18 -74v-187h-98v356h93v-42h2q39 51 101 51q77 0 109 -64q40 64 116 64z" />
    <glyph glyph-name="n.sups" horiz-adv-x="434" 
d="M253 695q64 0 98.5 -37.5t34.5 -109.5v-218h-97v208q0 79 -65 79q-34 0 -54.5 -24.5t-20.5 -71.5v-191h-98v356h93v-44h1q39 53 108 53z" />
    <glyph glyph-name="o.sups" horiz-adv-x="427" 
d="M214 696q85 0 135.5 -51t50.5 -137q0 -87 -50 -138t-136 -51t-136.5 51t-50.5 138q0 86 50.5 137t136.5 51zM214 620q-39 0 -61.5 -30t-22.5 -82t22.5 -82.5t61.5 -30.5t61 30t22 83t-22 82.5t-61 29.5z" />
    <glyph glyph-name="p.sups" horiz-adv-x="435" 
d="M253 696q70 0 112.5 -51t42.5 -137q0 -85 -42 -136t-112 -51t-103 51h-2v-171h-98v485h95v-46h2q34 56 105 56zM224 620q-36 0 -58 -30.5t-22 -81.5t22 -81.5t58 -30.5q37 0 59.5 31t22.5 81q0 51 -22.5 81.5t-59.5 30.5z" />
    <glyph glyph-name="q.sups" horiz-adv-x="435" 
d="M182 696q33 0 61.5 -15t43.5 -41h2v46h95v-485h-98v171h-2q-33 -51 -103 -51t-112 51t-42 136q0 86 42.5 137t112.5 51zM211 620q-37 0 -59.5 -30.5t-22.5 -81.5q0 -50 22.5 -81t59.5 -31q36 0 58 30.5t22 81.5t-22 81.5t-58 30.5z" />
    <glyph glyph-name="r.sups" horiz-adv-x="288" 
d="M250 690q17 0 32 -3v-86q-13 4 -33 4q-48 0 -74 -29t-26 -83v-163h-98v356h92v-51h2q36 55 105 55z" />
    <glyph glyph-name="s.sups" horiz-adv-x="381" 
d="M187 696q73 0 114 -30.5t41 -88.5h-95q0 54 -61 54q-54 0 -54 -35q0 -19 15.5 -27t64.5 -20q28 -7 41.5 -11t36.5 -14t34 -21t20.5 -29.5t9.5 -42.5q0 -51 -43 -81.5t-117 -30.5q-166 0 -168 128h99q0 -60 70 -60q28 0 44 10t16 27q0 22 -18 31.5t-73 22.5q-71 18 -94 35
q-35 25 -35 75q0 48 40.5 78t111.5 30z" />
    <glyph glyph-name="t.sups" horiz-adv-x="257" 
d="M212 404q17 0 26 3v-75q-24 -7 -52 -7q-63 0 -91 26.5t-28 86.5v175h-60v73h60v92h97v-92h70v-73h-70v-155q0 -29 11 -41.5t37 -12.5z" />
    <glyph glyph-name="u.sups" horiz-adv-x="433" 
d="M181 321q-64 0 -99 37.5t-35 109.5v218h98v-208q0 -79 65 -79q34 0 54.5 24.5t20.5 71.5v191h97v-356h-92v44h-1q-39 -53 -108 -53z" />
    <glyph glyph-name="v.sups" horiz-adv-x="368" 
d="M372 686l-123 -356h-130l-124 356h105l42 -135q23 -78 41 -152h2q11 49 41 152l42 135h104z" />
    <glyph glyph-name="w.sups" horiz-adv-x="590" 
d="M586 686l-88 -356h-135l-34 139q-14 53 -33 151h-2q-19 -97 -32 -151l-35 -139h-134l-88 356h96l30 -136q25 -125 29 -153h2q16 81 33 151l35 138h131l34 -138q16 -63 34 -151h1q15 84 30 153l29 136h97z" />
    <glyph glyph-name="x.sups" horiz-adv-x="371" 
d="M364 686l-118 -172l128 -184h-113l-74 124h-2l-75 -124h-113l128 184l-118 172h112l66 -111h2l65 111h112z" />
    <glyph glyph-name="y.sups" horiz-adv-x="369" 
d="M272 686h101l-132 -358q-27 -75 -62.5 -103t-101.5 -28q-33 0 -49 5v75q14 -5 33 -5q30 0 45.5 13t26.5 46l-137 355h106l85 -259h2z" />
    <glyph glyph-name="z.sups" horiz-adv-x="351" 
d="M326 686v-79l-186 -198v-2h192v-77h-313v79l186 198v2h-179v77h300z" />
    <glyph glyph-name="a.smcp" horiz-adv-x="575" 
d="M446 0l-43 127h-230l-44 -127h-125l205 548h157l205 -548h-125zM207 226h163l-14 39q-35 97 -67 203h-2q-32 -106 -67 -203z" />
    <glyph glyph-name="aacute.smcp" horiz-adv-x="575" 
d="M446 0l-43 127h-230l-44 -127h-125l205 548h157l205 -548h-125zM207 226h163l-14 39q-35 97 -67 203h-2q-32 -106 -67 -203zM437 752l-132 -144h-93l81 144h144z" />
    <glyph glyph-name="abreve.smcp" horiz-adv-x="575" 
d="M446 0l-43 127h-230l-44 -127h-125l205 548h157l205 -548h-125zM207 226h163l-14 39q-35 97 -67 203h-2q-32 -106 -67 -203zM287 605q-73 0 -116.5 38.5t-48.5 108.5h80q8 -72 85 -72t85 72h81q-5 -70 -48.5 -108.5t-117.5 -38.5z" />
    <glyph glyph-name="acircumflex.smcp" horiz-adv-x="575" 
d="M446 0l-43 127h-230l-44 -127h-125l205 548h157l205 -548h-125zM207 226h163l-14 39q-35 97 -67 203h-2q-32 -106 -67 -203zM288 692l-68 -84h-108l114 144h123l114 -144h-108z" />
    <glyph glyph-name="adieresis.smcp" horiz-adv-x="575" 
d="M446 0l-43 127h-230l-44 -127h-125l205 548h157l205 -548h-125zM207 226h163l-14 39q-35 97 -67 203h-2q-32 -106 -67 -203zM235 752v-109h-102v109h102zM441 752v-109h-102v109h102z" />
    <glyph glyph-name="agrave.smcp" horiz-adv-x="575" 
d="M446 0l-43 127h-230l-44 -127h-125l205 548h157l205 -548h-125zM207 226h163l-14 39q-35 97 -67 203h-2q-32 -106 -67 -203zM364 608h-93l-132 144h143z" />
    <glyph glyph-name="amacron.smcp" horiz-adv-x="575" 
d="M446 0l-43 127h-230l-44 -127h-125l205 548h157l205 -548h-125zM207 226h163l-14 39q-35 97 -67 203h-2q-32 -106 -67 -203zM440 725v-78h-305v78h305z" />
    <glyph glyph-name="aogonek.smcp" horiz-adv-x="575" 
d="M537 -128q21 0 37 6v-62q-27 -11 -68 -11q-106 0 -106 83q0 32 18.5 57t59.5 55h-32l-43 127h-230l-44 -127h-125l205 548h157l205 -548q-72 -51 -72 -95q0 -33 38 -33zM207 226h163l-14 39q-35 97 -67 203h-2q-32 -106 -67 -203z" />
    <glyph glyph-name="aring.smcp" horiz-adv-x="575" 
d="M446 0l-43 127h-230l-44 -127h-125l205 548h157l205 -548h-125zM207 226h163l-14 39q-35 97 -67 203h-2q-32 -106 -67 -203zM287 601q-43 0 -73.5 30.5t-30.5 73.5t30.5 73.5t73.5 30.5t73.5 -30.5t30.5 -73.5t-30.5 -73.5t-73.5 -30.5zM287 761q-23 0 -39.5 -16.5
t-16.5 -39.5t16.5 -39.5t39.5 -16.5t39.5 16.5t16.5 39.5t-16.5 39.5t-39.5 16.5z" />
    <glyph glyph-name="atilde.smcp" horiz-adv-x="575" 
d="M446 0l-43 127h-230l-44 -127h-125l205 548h157l205 -548h-125zM207 226h163l-14 39q-35 97 -67 203h-2q-32 -106 -67 -203zM222 672q-40 0 -46 -48h-68q3 59 32 92t78 33q34 0 76 -24.5t60 -24.5q41 0 46 49h68q-3 -59 -31.5 -92t-77.5 -33q-34 0 -76 24t-61 24z" />
    <glyph glyph-name="ae.smcp" horiz-adv-x="793" 
d="M521 100h224v-100h-326l-21 136h-209l-64 -136h-130l268 548h476v-100h-274l19 -120h236v-99h-220zM234 234h148l-34 217h-12z" />
    <glyph glyph-name="b.smcp" horiz-adv-x="556" 
d="M79 0v548h212q102 0 154 -38t52 -103q0 -97 -100 -125v-2q113 -23 113 -128q0 -70 -54.5 -111t-150.5 -41h-226zM277 233h-81v-139h86q57 0 81.5 15.5t24.5 52.5t-26 54t-85 17zM281 455h-85v-133h80q105 0 105 67q0 34 -23.5 50t-76.5 16z" />
    <glyph glyph-name="c.smcp" horiz-adv-x="598" 
d="M300 563q109 0 175 -56t71 -151h-123q-5 49 -38 76t-85 27q-65 0 -102.5 -49.5t-37.5 -135.5q0 -87 37.5 -136t102.5 -49q51 0 84 27.5t40 78.5h125q-9 -99 -75 -154.5t-174 -55.5q-123 0 -193.5 77t-70.5 212t70.5 212t193.5 77z" />
    <glyph glyph-name="cacute.smcp" horiz-adv-x="598" 
d="M300 563q109 0 175 -56t71 -151h-123q-5 49 -38 76t-85 27q-65 0 -102.5 -49.5t-37.5 -135.5q0 -87 37.5 -136t102.5 -49q51 0 84 27.5t40 78.5h125q-9 -99 -75 -154.5t-174 -55.5q-123 0 -193.5 77t-70.5 212t70.5 212t193.5 77zM449 752l-132 -144h-93l81 144h144z" />
    <glyph glyph-name="ccaron.smcp" horiz-adv-x="598" 
d="M300 563q109 0 175 -56t71 -151h-123q-5 49 -38 76t-85 27q-65 0 -102.5 -49.5t-37.5 -135.5q0 -87 37.5 -136t102.5 -49q51 0 84 27.5t40 78.5h125q-9 -99 -75 -154.5t-174 -55.5q-123 0 -193.5 77t-70.5 212t70.5 212t193.5 77zM475 752l-114 -144h-123l-114 144h108
l68 -84l67 84h108z" />
    <glyph glyph-name="ccedilla.smcp" horiz-adv-x="598" 
d="M424 195h125q-8 -92 -65.5 -146.5t-152.5 -62.5l-30 -48q9 4 29 4q35 0 59 -20t24 -54q0 -39 -30.5 -65t-86.5 -26q-57 0 -109 29l20 40q39 -21 79 -21q53 0 53 38q0 18 -13.5 29t-37.5 11q-17 0 -32 -6l-19 21l43 68q-114 6 -179 82.5t-65 205.5q0 135 70.5 212
t193.5 77q109 0 175 -56t71 -151h-123q-5 49 -38 76t-85 27q-65 0 -102.5 -49.5t-37.5 -135.5q0 -87 37.5 -136t102.5 -49q51 0 84 27.5t40 78.5z" />
    <glyph glyph-name="ccircumflex.smcp" horiz-adv-x="598" 
d="M300 563q109 0 175 -56t71 -151h-123q-5 49 -38 76t-85 27q-65 0 -102.5 -49.5t-37.5 -135.5q0 -87 37.5 -136t102.5 -49q51 0 84 27.5t40 78.5h125q-9 -99 -75 -154.5t-174 -55.5q-123 0 -193.5 77t-70.5 212t70.5 212t193.5 77zM475 608h-108l-67 84l-68 -84h-108
l114 144h123z" />
    <glyph glyph-name="cdotaccent.smcp" horiz-adv-x="598" 
d="M300 563q109 0 175 -56t71 -151h-123q-5 49 -38 76t-85 27q-65 0 -102.5 -49.5t-37.5 -135.5q0 -87 37.5 -136t102.5 -49q51 0 84 27.5t40 78.5h125q-9 -99 -75 -154.5t-174 -55.5q-123 0 -193.5 77t-70.5 212t70.5 212t193.5 77zM356 752v-109h-114v109h114z" />
    <glyph glyph-name="d.smcp" horiz-adv-x="615" 
d="M79 0v548h195q147 0 226.5 -71t79.5 -203q0 -131 -79.5 -202.5t-226.5 -71.5h-195zM272 446h-75v-344h75q90 0 137 43.5t47 128.5t-47 128.5t-137 43.5z" />
    <glyph glyph-name="eth.smcp" horiz-adv-x="618" 
d="M82 317v231h195q147 0 226.5 -71t79.5 -203q0 -131 -79.5 -202.5t-226.5 -71.5h-195v238h-62v79h62zM200 238v-136h75q90 0 137 43.5t47 128.5t-47 128.5t-137 43.5h-75v-129h128v-79h-128z" />
    <glyph glyph-name="dcaron.smcp" horiz-adv-x="615" 
d="M79 0v548h195q147 0 226.5 -71t79.5 -203q0 -131 -79.5 -202.5t-226.5 -71.5h-195zM272 446h-75v-344h75q90 0 137 43.5t47 128.5t-47 128.5t-137 43.5zM458 752l-114 -144h-123l-114 144h108l68 -84l67 84h108z" />
    <glyph glyph-name="dcroat.smcp" horiz-adv-x="618" 
d="M82 317v231h195q147 0 226.5 -71t79.5 -203q0 -131 -79.5 -202.5t-226.5 -71.5h-195v238h-62v79h62zM200 238v-136h75q90 0 137 43.5t47 128.5t-47 128.5t-137 43.5h-75v-129h128v-79h-128z" />
    <glyph glyph-name="e.smcp" horiz-adv-x="531" 
d="M478 548v-100h-281v-120h262v-99h-262v-129h287v-100h-404v548h398z" />
    <glyph glyph-name="eacute.smcp" horiz-adv-x="531" 
d="M478 548v-100h-281v-120h262v-99h-262v-129h287v-100h-404v548h398zM428 752l-132 -144h-93l81 144h144z" />
    <glyph glyph-name="ebreve.smcp" horiz-adv-x="531" 
d="M478 548v-100h-281v-120h262v-99h-262v-129h287v-100h-404v548h398zM364 752h81q-5 -70 -48.5 -108.5t-117.5 -38.5q-73 0 -116.5 38.5t-48.5 108.5h80q8 -72 85 -72t85 72z" />
    <glyph glyph-name="ecaron.smcp" horiz-adv-x="531" 
d="M478 548v-100h-281v-120h262v-99h-262v-129h287v-100h-404v548h398zM454 752l-114 -144h-123l-114 144h108l68 -84l67 84h108z" />
    <glyph glyph-name="ecircumflex.smcp" horiz-adv-x="531" 
d="M478 548v-100h-281v-120h262v-99h-262v-129h287v-100h-404v548h398zM454 608h-108l-67 84l-68 -84h-108l114 144h123z" />
    <glyph glyph-name="edieresis.smcp" horiz-adv-x="531" 
d="M478 548v-100h-281v-120h262v-99h-262v-129h287v-100h-404v548h398zM227 752v-109h-102v109h102zM433 752v-109h-102v109h102z" />
    <glyph glyph-name="edotaccent.smcp" horiz-adv-x="531" 
d="M478 548v-100h-281v-120h262v-99h-262v-129h287v-100h-404v548h398zM336 752v-109h-114v109h114z" />
    <glyph glyph-name="egrave.smcp" horiz-adv-x="531" 
d="M478 548v-100h-281v-120h262v-99h-262v-129h287v-100h-404v548h398zM130 752h143l82 -144h-93z" />
    <glyph glyph-name="emacron.smcp" horiz-adv-x="531" 
d="M478 548v-100h-281v-120h262v-99h-262v-129h287v-100h-404v548h398zM431 725v-78h-305v78h305z" />
    <glyph glyph-name="eogonek.smcp" horiz-adv-x="531" 
d="M450 -128q20 0 37 6v-62q-27 -11 -68 -11q-106 0 -106 83q0 32 18.5 57t59.5 55h-311v548h398v-100h-281v-120h262v-99h-262v-129h287v-100q-72 -51 -72 -95q0 -33 38 -33z" />
    <glyph glyph-name="f.smcp" horiz-adv-x="489" 
d="M466 548v-101h-269v-141h250v-101h-250v-205h-118v548h387z" />
    <glyph glyph-name="fi.smcp" horiz-adv-x="765" 
d="M466 548v-101h-269v-141h250v-101h-250v-205h-118v548h387zM686 548v-548h-117v548h117z" />
    <glyph glyph-name="fl.smcp" horiz-adv-x="970" 
d="M466 548v-101h-269v-141h250v-101h-250v-205h-118v548h387zM686 548v-447h274v-101h-391v548h117z" />
    <glyph glyph-name="g.smcp" horiz-adv-x="623" 
d="M311 563q102 0 166.5 -49t75.5 -135h-125q-18 83 -117 83q-69 0 -110 -50.5t-41 -139.5t39.5 -140t107.5 -51q62 0 97 33.5t36 97.5h-136v93h248v-305h-102v56h-2q-54 -68 -167 -68t-179 76t-66 208q0 135 74 213t201 78z" />
    <glyph glyph-name="gbreve.smcp" horiz-adv-x="623" 
d="M311 563q102 0 166.5 -49t75.5 -135h-125q-18 83 -117 83q-69 0 -110 -50.5t-41 -139.5t39.5 -140t107.5 -51q62 0 97 33.5t36 97.5h-136v93h248v-305h-102v56h-2q-54 -68 -167 -68t-179 76t-66 208q0 135 74 213t201 78zM389 752h81q-5 -70 -48.5 -108.5t-117.5 -38.5
q-73 0 -116.5 38.5t-48.5 108.5h80q8 -72 85 -72t85 72z" />
    <glyph glyph-name="gcircumflex.smcp" horiz-adv-x="623" 
d="M311 563q102 0 166.5 -49t75.5 -135h-125q-18 83 -117 83q-69 0 -110 -50.5t-41 -139.5t39.5 -140t107.5 -51q62 0 97 33.5t36 97.5h-136v93h248v-305h-102v56h-2q-54 -68 -167 -68t-179 76t-66 208q0 135 74 213t201 78zM479 608h-108l-67 84l-68 -84h-108l114 144h123z
" />
    <glyph glyph-name="gcommaaccent.smcp" horiz-adv-x="623" 
d="M311 563q102 0 166.5 -49t75.5 -135h-125q-18 83 -117 83q-69 0 -110 -50.5t-41 -139.5t39.5 -140t107.5 -51q62 0 97 33.5t36 97.5h-136v93h248v-305h-102v56h-2q-54 -68 -167 -68t-179 76t-66 208q0 135 74 213t201 78zM360 -62v-96l-62 -106h-47l42 106h-40v96h107z
" />
    <glyph glyph-name="gdotaccent.smcp" horiz-adv-x="623" 
d="M311 563q102 0 166.5 -49t75.5 -135h-125q-18 83 -117 83q-69 0 -110 -50.5t-41 -139.5t39.5 -140t107.5 -51q62 0 97 33.5t36 97.5h-136v93h248v-305h-102v56h-2q-54 -68 -167 -68t-179 76t-66 208q0 135 74 213t201 78zM361 752v-109h-114v109h114z" />
    <glyph glyph-name="h.smcp" horiz-adv-x="636" 
d="M556 548v-548h-117v233h-242v-233h-117v548h117v-214h242v214h117z" />
    <glyph glyph-name="hbar.smcp" horiz-adv-x="636" 
d="M599 494v-59h-43v-435h-117v233h-242v-233h-117v435h-43v59h43v54h117v-54h242v54h117v-54h43zM439 334v101h-242v-101h242z" />
    <glyph glyph-name="hcircumflex.smcp" horiz-adv-x="636" 
d="M556 548v-548h-117v233h-242v-233h-117v548h117v-214h242v214h117zM493 608h-108l-67 84l-68 -84h-108l114 144h123z" />
    <glyph glyph-name="i.smcp" horiz-adv-x="277" 
d="M197 548v-548h-117v548h117z" />
    <glyph glyph-name="iacute.smcp" horiz-adv-x="277" 
d="M197 548v-548h-117v548h117zM288 752l-132 -144h-93l81 144h144z" />
    <glyph glyph-name="ibreve.smcp" horiz-adv-x="277" 
d="M197 548v-548h-117v548h117zM212 752h76q-3 -69 -42 -108t-107 -39t-107 38.5t-42 108.5h75q3 -36 22 -55.5t52 -19.5t52 19.5t21 55.5z" />
    <glyph glyph-name="icircumflex.smcp" horiz-adv-x="277" 
d="M197 548v-548h-117v548h117zM197 752l101 -143h-102l-58 85l-58 -85h-103l101 143h119z" />
    <glyph glyph-name="idieresis.smcp" horiz-adv-x="277" 
d="M197 548v-548h-117v548h117zM108 752v-109h-102v109h102zM272 752v-109h-103v109h103z" />
    <glyph glyph-name="idotaccent.smcp" horiz-adv-x="277" 
d="M197 548v-548h-117v548h117zM195 752v-109h-114v109h114z" />
    <glyph glyph-name="igrave.smcp" horiz-adv-x="277" 
d="M197 548v-548h-117v548h117zM-10 752h143l82 -144h-93z" />
    <glyph glyph-name="ij.smcp" horiz-adv-x="603" 
d="M197 548v-548h-117v548h117zM411 548h117v-370q0 -94 -45 -138.5t-139 -44.5q-32 0 -53 6l-1 98q18 -3 36 -3q46 0 65.5 22.5t19.5 81.5v348z" />
    <glyph glyph-name="imacron.smcp" horiz-adv-x="277" 
d="M197 548v-548h-117v548h117zM274 728v-78h-271v78h271z" />
    <glyph glyph-name="iogonek.smcp" horiz-adv-x="277" 
d="M163 -128q21 0 37 6v-62q-27 -11 -68 -11q-106 0 -106 83q0 32 18.5 57t59.5 55h-24v548h117v-548q-72 -51 -72 -95q0 -33 38 -33z" />
    <glyph glyph-name="itilde.smcp" horiz-adv-x="277" 
d="M197 548v-548h-117v548h117zM237 749h60q-3 -59 -29.5 -92t-71.5 -33q-30 0 -65 25t-51 25q-36 0 -41 -50h-59q3 59 28.5 92t71.5 33q30 0 65 -25t51 -25q36 0 41 50z" />
    <glyph glyph-name="j.smcp" horiz-adv-x="326" 
d="M134 548h117v-370q0 -94 -45 -138.5t-139 -44.5q-32 0 -53 6l-1 98q18 -3 36 -3q46 0 65.5 22.5t19.5 81.5v348z" />
    <glyph glyph-name="jcircumflex.smcp" horiz-adv-x="326" 
d="M134 548h117v-370q0 -94 -45 -138.5t-139 -44.5q-32 0 -53 6l-1 98q18 -3 36 -3q46 0 65.5 22.5t19.5 81.5v348zM252 752l101 -143h-102l-58 85l-58 -85h-103l101 143h119z" />
    <glyph glyph-name="k.smcp" horiz-adv-x="556" 
d="M532 548l-221 -260l240 -288h-151l-200 257h-3v-257h-117v548h117v-239h3l189 239h143z" />
    <glyph glyph-name="kcommaaccent.smcp" horiz-adv-x="556" 
d="M532 548l-221 -260l240 -288h-151l-200 257h-3v-257h-117v548h117v-239h3l189 239h143zM340 -62v-96l-62 -106h-47l42 106h-40v96h107z" />
    <glyph glyph-name="l.smcp" horiz-adv-x="481" 
d="M197 548v-447h274v-101h-391v548h117z" />
    <glyph glyph-name="lacute.smcp" horiz-adv-x="481" 
d="M197 548v-447h274v-101h-391v548h117zM317 752l-132 -144h-93l81 144h144z" />
    <glyph glyph-name="lcaron.smcp" horiz-adv-x="481" 
d="M197 548v-447h274v-101h-391v548h117zM367 548l-57 -177h-66l28 177h95z" />
    <glyph glyph-name="lcommaaccent.smcp" horiz-adv-x="481" 
d="M197 548v-447h274v-101h-391v548h117zM323 -62v-96l-62 -106h-47l42 106h-40v96h107z" />
    <glyph glyph-name="ldot.smcp" horiz-adv-x="541" 
d="M197 548v-447h274v-101h-391v548h117zM475 419v-142h-131v142h131z" />
    <glyph glyph-name="j.acute.loclNLD.smcp" horiz-adv-x="326" 
d="M134 548h117v-370q0 -94 -45 -138.5t-139 -44.5q-32 0 -53 6l-1 98q18 -3 36 -3q46 0 65.5 22.5t19.5 81.5v348zM343 752l-132 -144h-93l81 144h144z" />
    <glyph glyph-name="lslash.smcp" horiz-adv-x="480" 
d="M196 101h274v-101h-392v226l-66 -37v89l66 37v233h118v-173l109 61v-89l-109 -61v-185z" />
    <glyph glyph-name="m.smcp" horiz-adv-x="826" 
d="M747 548v-548h-114v268q0 112 4 201h-2q-37 -123 -62 -200l-90 -269h-140l-90 269q-25 77 -62 200h-2q4 -89 4 -201v-268h-113v548h190l82 -247q39 -118 60 -203h2q21 85 60 203l82 247h191z" />
    <glyph glyph-name="n.smcp" horiz-adv-x="660" 
d="M580 548v-548h-171l-111 221q-48 94 -108 224h-2q5 -99 5 -238v-207h-113v548h171l112 -221q50 -101 107 -224h2q-5 99 -5 238v207h113z" />
    <glyph glyph-name="nacute.smcp" horiz-adv-x="660" 
d="M580 548v-548h-171l-111 221q-48 94 -108 224h-2q5 -99 5 -238v-207h-113v548h171l112 -221q50 -101 107 -224h2q-5 99 -5 238v207h113zM479 752l-132 -144h-93l81 144h144z" />
    <glyph glyph-name="ncaron.smcp" horiz-adv-x="660" 
d="M580 548v-548h-171l-111 221q-48 94 -108 224h-2q5 -99 5 -238v-207h-113v548h171l112 -221q50 -101 107 -224h2q-5 99 -5 238v207h113zM505 752l-114 -144h-123l-114 144h108l68 -84l67 84h108z" />
    <glyph glyph-name="ncommaaccent.smcp" horiz-adv-x="660" 
d="M580 548v-548h-171l-111 221q-48 94 -108 224h-2q5 -99 5 -238v-207h-113v548h171l112 -221q50 -101 107 -224h2q-5 99 -5 238v207h113zM384 -62v-96l-62 -106h-47l42 106h-40v96h107z" />
    <glyph glyph-name="eng.smcp" horiz-adv-x="644" 
d="M451 548h114v-569q0 -73 -38 -107t-105 -34q-31 0 -55 6v80q16 -2 25 -2q57 0 57 56v22l-148 237q-60 96 -111 190h-2q5 -118 5 -212v-215h-113v548h151l112 -178q62 -99 112 -190h2q-6 86 -6 212v156z" />
    <glyph glyph-name="ntilde.smcp" horiz-adv-x="660" 
d="M580 548v-548h-171l-111 221q-48 94 -108 224h-2q5 -99 5 -238v-207h-113v548h171l112 -221q50 -101 107 -224h2q-5 99 -5 238v207h113zM442 749h68q-3 -59 -31.5 -92t-77.5 -33q-34 0 -76 24t-61 24q-40 0 -46 -48h-68q3 59 32 92t78 33q34 0 76 -24.5t60 -24.5
q41 0 46 49z" />
    <glyph glyph-name="o.smcp" horiz-adv-x="621" 
d="M311 563q127 0 200.5 -77.5t73.5 -211.5t-73.5 -211.5t-200.5 -77.5t-201 77.5t-74 211.5t74 211.5t201 77.5zM311 461q-71 0 -111.5 -50t-40.5 -137t40.5 -137t111.5 -50q70 0 110.5 50t40.5 137t-40.5 137t-110.5 50z" />
    <glyph glyph-name="oacute.smcp" horiz-adv-x="621" 
d="M311 563q127 0 200.5 -77.5t73.5 -211.5t-73.5 -211.5t-200.5 -77.5t-201 77.5t-74 211.5t74 211.5t201 77.5zM311 461q-71 0 -111.5 -50t-40.5 -137t40.5 -137t111.5 -50q70 0 110.5 50t40.5 137t-40.5 137t-110.5 50zM460 752l-132 -144h-93l81 144h144z" />
    <glyph glyph-name="obreve.smcp" horiz-adv-x="621" 
d="M311 563q127 0 200.5 -77.5t73.5 -211.5t-73.5 -211.5t-200.5 -77.5t-201 77.5t-74 211.5t74 211.5t201 77.5zM311 461q-71 0 -111.5 -50t-40.5 -137t40.5 -137t111.5 -50q70 0 110.5 50t40.5 137t-40.5 137t-110.5 50zM395 752h81q-5 -70 -48.5 -108.5t-117.5 -38.5
q-73 0 -116.5 38.5t-48.5 108.5h80q8 -72 85 -72t85 72z" />
    <glyph glyph-name="ocircumflex.smcp" horiz-adv-x="621" 
d="M311 563q127 0 200.5 -77.5t73.5 -211.5t-73.5 -211.5t-200.5 -77.5t-201 77.5t-74 211.5t74 211.5t201 77.5zM311 461q-71 0 -111.5 -50t-40.5 -137t40.5 -137t111.5 -50q70 0 110.5 50t40.5 137t-40.5 137t-110.5 50zM486 608h-108l-67 84l-68 -84h-108l114 144h123z
" />
    <glyph glyph-name="odieresis.smcp" horiz-adv-x="621" 
d="M311 563q127 0 200.5 -77.5t73.5 -211.5t-73.5 -211.5t-200.5 -77.5t-201 77.5t-74 211.5t74 211.5t201 77.5zM311 461q-71 0 -111.5 -50t-40.5 -137t40.5 -137t111.5 -50q70 0 110.5 50t40.5 137t-40.5 137t-110.5 50zM258 752v-109h-102v109h102zM464 752v-109h-102
v109h102z" />
    <glyph glyph-name="ograve.smcp" horiz-adv-x="621" 
d="M311 563q127 0 200.5 -77.5t73.5 -211.5t-73.5 -211.5t-200.5 -77.5t-201 77.5t-74 211.5t74 211.5t201 77.5zM311 461q-71 0 -111.5 -50t-40.5 -137t40.5 -137t111.5 -50q70 0 110.5 50t40.5 137t-40.5 137t-110.5 50zM162 752h143l82 -144h-93z" />
    <glyph glyph-name="ohungarumlaut.smcp" horiz-adv-x="621" 
d="M311 563q127 0 200.5 -77.5t73.5 -211.5t-73.5 -211.5t-200.5 -77.5t-201 77.5t-74 211.5t74 211.5t201 77.5zM311 461q-71 0 -111.5 -50t-40.5 -137t40.5 -137t111.5 -50q70 0 110.5 50t40.5 137t-40.5 137t-110.5 50zM385 752l-138 -144h-92l101 144h129zM560 752
l-138 -144h-92l101 144h129z" />
    <glyph glyph-name="omacron.smcp" horiz-adv-x="621" 
d="M311 563q127 0 200.5 -77.5t73.5 -211.5t-73.5 -211.5t-200.5 -77.5t-201 77.5t-74 211.5t74 211.5t201 77.5zM311 461q-71 0 -111.5 -50t-40.5 -137t40.5 -137t111.5 -50q70 0 110.5 50t40.5 137t-40.5 137t-110.5 50zM463 725v-78h-305v78h305z" />
    <glyph glyph-name="oslash.smcp" horiz-adv-x="621" 
d="M511 584l54 -42l-49 -62q69 -77 69 -206q0 -134 -73.5 -211.5t-200.5 -77.5q-88 0 -154 39l-48 -61l-54 42l50 63q-69 77 -69 206q0 134 74 211.5t201 77.5q87 0 153 -39zM311 465q-73 0 -115 -51t-42 -140q0 -68 24 -113l220 279q-38 25 -87 25zM311 83q73 0 114.5 51
t41.5 140q0 65 -24 113l-220 -279q37 -25 88 -25z" />
    <glyph glyph-name="otilde.smcp" horiz-adv-x="621" 
d="M311 563q127 0 200.5 -77.5t73.5 -211.5t-73.5 -211.5t-200.5 -77.5t-201 77.5t-74 211.5t74 211.5t201 77.5zM311 461q-71 0 -111.5 -50t-40.5 -137t40.5 -137t111.5 -50q70 0 110.5 50t40.5 137t-40.5 137t-110.5 50zM422 749h68q-3 -59 -31.5 -92t-77.5 -33
q-34 0 -76 24t-61 24q-40 0 -46 -48h-68q3 59 32 92t78 33q34 0 76 -24.5t60 -24.5q41 0 46 49z" />
    <glyph glyph-name="oe.smcp" horiz-adv-x="841" 
d="M787 548v-100h-281v-120h262v-99h-262v-129h287v-100h-450q-145 0 -226 72.5t-81 201.5q0 130 81 202t226 72h444zM388 100v348h-43q-89 0 -137.5 -45.5t-48.5 -128.5t48.5 -128.5t137.5 -45.5h43z" />
    <glyph glyph-name="p.smcp" horiz-adv-x="537" 
d="M80 0v548h217q105 0 160 -48.5t55 -133.5q0 -84 -55 -132t-160 -48h-100v-186h-117zM283 450h-86v-167h87q108 0 108 84q0 83 -109 83z" />
    <glyph glyph-name="thorn.smcp" horiz-adv-x="537" 
d="M197 548v-88h100q105 0 160 -48t55 -133t-55 -133t-160 -48h-100v-98h-117v548h117zM283 363h-86v-168h87q108 0 108 84t-109 84z" />
    <glyph glyph-name="q.smcp" horiz-adv-x="621" 
d="M585 274q0 -128 -68 -205l62 -64l-65 -61l-67 71q-59 -30 -136 -30q-127 0 -201 77.5t-74 211.5t74 211.5t201 77.5t200.5 -77.5t73.5 -211.5zM159 273q0 -88 41 -139t112 -51q32 0 60 11l-73 76l63 62l75 -80q28 48 28 121q0 87 -40.5 137.5t-112.5 50.5
q-71 0 -112 -50.5t-41 -137.5z" />
    <glyph glyph-name="r.smcp" horiz-adv-x="557" 
d="M80 0v548h214q209 0 209 -154q0 -50 -28 -86t-77 -49v-2q30 -10 47 -32.5t38 -75.5l57 -149h-126l-46 130q-16 44 -38 61t-64 17h-69v-208h-117zM279 455h-82v-156h86q102 0 102 81q0 75 -106 75z" />
    <glyph glyph-name="racute.smcp" horiz-adv-x="557" 
d="M80 0v548h214q209 0 209 -154q0 -50 -28 -86t-77 -49v-2q30 -10 47 -32.5t38 -75.5l57 -149h-126l-46 130q-16 44 -38 61t-64 17h-69v-208h-117zM279 455h-82v-156h86q102 0 102 81q0 75 -106 75zM427 752l-132 -144h-93l81 144h144z" />
    <glyph glyph-name="rcaron.smcp" horiz-adv-x="557" 
d="M80 0v548h214q209 0 209 -154q0 -50 -28 -86t-77 -49v-2q30 -10 47 -32.5t38 -75.5l57 -149h-126l-46 130q-16 44 -38 61t-64 17h-69v-208h-117zM279 455h-82v-156h86q102 0 102 81q0 75 -106 75zM453 752l-114 -144h-123l-114 144h108l68 -84l67 84h108z" />
    <glyph glyph-name="rcommaaccent.smcp" horiz-adv-x="557" 
d="M80 0v548h214q209 0 209 -154q0 -50 -28 -86t-77 -49v-2q30 -10 47 -32.5t38 -75.5l57 -149h-126l-46 130q-16 44 -38 61t-64 17h-69v-208h-117zM279 455h-82v-156h86q102 0 102 81q0 75 -106 75zM348 -62v-96l-62 -106h-47l42 106h-40v96h107z" />
    <glyph glyph-name="s.smcp" horiz-adv-x="529" 
d="M253 563q108 0 164 -46.5t56 -135.5h-117q0 91 -106 91q-43 0 -67.5 -17.5t-24.5 -46.5q0 -31 26.5 -46t98.5 -31q50 -12 79.5 -22t62.5 -29t48 -48.5t15 -71.5q0 -80 -61 -127.5t-164 -47.5q-109 0 -170.5 50.5t-61.5 144.5h119q0 -103 115 -103q49 0 76.5 19.5
t27.5 54.5q0 32 -26.5 47t-96.5 32q-42 10 -65 16.5t-54 20t-46.5 29.5t-27.5 42t-12 60q0 74 57.5 119.5t154.5 45.5z" />
    <glyph glyph-name="sacute.smcp" horiz-adv-x="529" 
d="M253 563q108 0 164 -46.5t56 -135.5h-117q0 91 -106 91q-43 0 -67.5 -17.5t-24.5 -46.5q0 -31 26.5 -46t98.5 -31q50 -12 79.5 -22t62.5 -29t48 -48.5t15 -71.5q0 -80 -61 -127.5t-164 -47.5q-109 0 -170.5 50.5t-61.5 144.5h119q0 -103 115 -103q49 0 76.5 19.5
t27.5 54.5q0 32 -26.5 47t-96.5 32q-42 10 -65 16.5t-54 20t-46.5 29.5t-27.5 42t-12 60q0 74 57.5 119.5t154.5 45.5zM402 752l-132 -144h-93l81 144h144z" />
    <glyph glyph-name="scaron.smcp" horiz-adv-x="529" 
d="M253 563q108 0 164 -46.5t56 -135.5h-117q0 91 -106 91q-43 0 -67.5 -17.5t-24.5 -46.5q0 -31 26.5 -46t98.5 -31q50 -12 79.5 -22t62.5 -29t48 -48.5t15 -71.5q0 -80 -61 -127.5t-164 -47.5q-109 0 -170.5 50.5t-61.5 144.5h119q0 -103 115 -103q49 0 76.5 19.5
t27.5 54.5q0 32 -26.5 47t-96.5 32q-42 10 -65 16.5t-54 20t-46.5 29.5t-27.5 42t-12 60q0 74 57.5 119.5t154.5 45.5zM428 752l-114 -144h-123l-114 144h108l68 -84l67 84h108z" />
    <glyph glyph-name="scedilla.smcp" horiz-adv-x="529" 
d="M488 160q0 -74 -52 -120t-142 -54l-30 -48q9 4 29 4q35 0 59 -20t24 -54q0 -39 -30.5 -65t-86.5 -26q-57 0 -109 29l20 40q39 -21 79 -21q53 0 53 38q0 18 -13.5 29t-37.5 11q-17 0 -32 -6l-19 21l43 67q-100 5 -156 55.5t-56 139.5h119q0 -103 115 -103q49 0 76.5 19.5
t27.5 54.5q0 32 -26.5 47t-96.5 32q-42 10 -65 16.5t-54 20t-46.5 29.5t-27.5 42t-12 60q0 74 57.5 119.5t154.5 45.5q108 0 164 -46.5t56 -135.5h-117q0 91 -106 91q-43 0 -67.5 -17.5t-24.5 -46.5q0 -31 26.5 -46t98.5 -31q50 -12 79.5 -22t62.5 -29t48 -48.5t15 -71.5z
" />
    <glyph glyph-name="scircumflex.smcp" horiz-adv-x="529" 
d="M253 563q108 0 164 -46.5t56 -135.5h-117q0 91 -106 91q-43 0 -67.5 -17.5t-24.5 -46.5q0 -31 26.5 -46t98.5 -31q50 -12 79.5 -22t62.5 -29t48 -48.5t15 -71.5q0 -80 -61 -127.5t-164 -47.5q-109 0 -170.5 50.5t-61.5 144.5h119q0 -103 115 -103q49 0 76.5 19.5
t27.5 54.5q0 32 -26.5 47t-96.5 32q-42 10 -65 16.5t-54 20t-46.5 29.5t-27.5 42t-12 60q0 74 57.5 119.5t154.5 45.5zM428 608h-108l-67 84l-68 -84h-108l114 144h123z" />
    <glyph glyph-name="scommaaccent.smcp" horiz-adv-x="529" 
d="M253 563q108 0 164 -46.5t56 -135.5h-117q0 91 -106 91q-43 0 -67.5 -17.5t-24.5 -46.5q0 -31 26.5 -46t98.5 -31q50 -12 79.5 -22t62.5 -29t48 -48.5t15 -71.5q0 -80 -61 -127.5t-164 -47.5q-109 0 -170.5 50.5t-61.5 144.5h119q0 -103 115 -103q49 0 76.5 19.5
t27.5 54.5q0 32 -26.5 47t-96.5 32q-42 10 -65 16.5t-54 20t-46.5 29.5t-27.5 42t-12 60q0 74 57.5 119.5t154.5 45.5zM317 -62v-96l-62 -106h-47l42 106h-40v96h107z" />
    <glyph glyph-name="germandbls.smcp" horiz-adv-x="679" 
d="M589 453l-119 -125q162 -40 162 -177q0 -80 -53.5 -123t-145.5 -43t-140 41.5t-48 123.5h110q0 -71 76 -71q80 0 80 74q0 47 -41.5 71t-125.5 30v80l97 101q-38 32 -99 32q-150 0 -150 -156v-311h-117v313q0 121 69.5 185.5t199.5 64.5q76 0 140 -30t105 -80z" />
    <glyph glyph-name="t.smcp" horiz-adv-x="508" 
d="M498 548v-100h-185v-448h-118v448h-185v100h488z" />
    <glyph glyph-name="tbar.smcp" horiz-adv-x="508" 
d="M498 448h-185v-141h104v-79h-104v-228h-118v228h-105v79h105v141h-185v100h488v-100z" />
    </font>
</defs>
</svg>
