<?xml version="1.0" standalone="no"?>
<!DOCTYPE svg PUBLIC "-//W3C//DTD SVG 1.1//EN" "http://www.w3.org/Graphics/SVG/1.1/DTD/svg11.dtd" >
<svg xmlns="http://www.w3.org/2000/svg" xmlns:xlink="http://www.w3.org/1999/xlink" version="1.1">
<metadata>
Created by FontForge 20190801 at Thu Jan 10 23:48:26 2019
 By www-data
Copyright (c) 2015 Monotype Imaging Inc.  All rights reserved.
</metadata>
<defs>
<font id="NeueHaasUnicaLight" horiz-adv-x="563" >
  <font-face 
    font-family="NeueHaasUnicaLight"
    font-weight="300"
    font-stretch="normal"
    units-per-em="1000"
    panose-1="2 11 4 4 3 2 6 2 2 3"
    ascent="750"
    descent="-250"
    x-height="508"
    cap-height="712"
    bbox="-1000 -275 1089 1082"
    underline-thickness="50"
    underline-position="-250"
    unicode-range="U+0020-FEFF"
  />
<missing-glyph horiz-adv-x="614" 
d="M151 777h312q59 0 93.5 -34.5t34.5 -93.5v-586q0 -59 -34.5 -93.5t-93.5 -34.5h-312q-59 0 -93.5 34.5t-34.5 93.5v586q0 59 34.5 93.5t93.5 34.5zM463 736h-312q-40 0 -63.5 -23.5t-23.5 -63.5v-586q0 -40 23.5 -63.5t63.5 -23.5h312q40 0 63.5 23.5t23.5 63.5v586
q0 40 -23.5 63.5t-63.5 23.5zM325 146v-81h-77v81h77zM302 646q74 0 120 -40t46 -105q0 -44 -16 -73.5t-68 -73.5q-45 -37 -57 -65t-12 -95h-57v25q0 62 15.5 95t64.5 78q40 35 51 56t11 53q0 41 -26 64t-72 23q-103 0 -109 -107h-63q4 81 48.5 123t123.5 42z" />
    <glyph glyph-name="f_f" unicode="ff" horiz-adv-x="541" 
d="M495 663q-37 0 -55 -21t-18 -69v-65h102v-52h-102v-456h-62v456h-192v-456h-62v456h-91v52h91v71q0 137 125 137q20 0 42 -4v-53q-14 4 -32 4q-37 0 -55 -21t-18 -69v-65h192v71q0 137 125 137q21 0 41 -4v-53q-14 4 -31 4z" />
    <glyph glyph-name="f_f_i" unicode="ffi" horiz-adv-x="769" 
d="M168 508h192v71q0 137 125 137q21 0 41 -4v-53q-14 4 -31 4q-37 0 -55 -21t-18 -69v-65h102v-52h-102v-456h-62v456h-192v-456h-62v456h-91v52h91v71q0 137 125 137q20 0 42 -4v-53q-14 4 -32 4q-37 0 -55 -21t-18 -69v-65zM624 0v508h62v-508h-62zM624 712h62v-88h-62
v88z" />
    <glyph glyph-name="f_f_l" unicode="ffl" horiz-adv-x="769" 
d="M168 508h192v71q0 137 125 137q21 0 41 -4v-53q-14 4 -31 4q-37 0 -55 -21t-18 -69v-65h102v-52h-102v-456h-62v456h-192v-456h-62v456h-91v52h91v71q0 137 125 137q20 0 42 -4v-53q-14 4 -32 4q-37 0 -55 -21t-18 -69v-65zM624 712h62v-712h-62v712z" />
    <glyph glyph-name="f_i" unicode="fi" horiz-adv-x="516" 
d="M15 508h91v71q0 137 125 137q20 0 42 -4v-53q-14 4 -32 4q-37 0 -55 -21t-18 -69v-65h103v-52h-103v-456h-62v456h-91v52zM370 0v508h62v-508h-62zM370 712h62v-88h-62v88z" />
    <glyph glyph-name="f_l" unicode="fl" horiz-adv-x="516" 
d="M15 508h91v71q0 137 125 137q20 0 42 -4v-53q-14 4 -32 4q-37 0 -55 -21t-18 -69v-65h103v-52h-103v-456h-62v456h-91v52zM370 712h62v-712h-62v712z" />
    <glyph glyph-name=".notdef" horiz-adv-x="614" 
d="M151 777h312q59 0 93.5 -34.5t34.5 -93.5v-586q0 -59 -34.5 -93.5t-93.5 -34.5h-312q-59 0 -93.5 34.5t-34.5 93.5v586q0 59 34.5 93.5t93.5 34.5zM463 736h-312q-40 0 -63.5 -23.5t-23.5 -63.5v-586q0 -40 23.5 -63.5t63.5 -23.5h312q40 0 63.5 23.5t23.5 63.5v586
q0 40 -23.5 63.5t-63.5 23.5zM325 146v-81h-77v81h77zM302 646q74 0 120 -40t46 -105q0 -44 -16 -73.5t-68 -73.5q-45 -37 -57 -65t-12 -95h-57v25q0 62 15.5 95t64.5 78q40 35 51 56t11 53q0 41 -26 64t-72 23q-103 0 -109 -107h-63q4 81 48.5 123t123.5 42z" />
    <glyph glyph-name=".null" horiz-adv-x="0" 
 />
    <glyph glyph-name="nonmarkingreturn" horiz-adv-x="333" 
 />
    <glyph glyph-name="space" unicode=" " horiz-adv-x="230" 
 />
    <glyph glyph-name="space" unicode="&#xa0;" horiz-adv-x="230" 
 />
    <glyph glyph-name="exclam" unicode="!" horiz-adv-x="251" 
d="M165 93v-93h-79v93h79zM167 712l-16 -548h-51l-16 548h83z" />
    <glyph glyph-name="quotedbl" unicode="&#x22;" horiz-adv-x="340" 
d="M136 712l-10 -258h-45l-10 258h65zM269 712l-9 -258h-46l-9 258h64z" />
    <glyph glyph-name="numbersign" unicode="#" horiz-adv-x="637" 
d="M594 429h-126l-29 -181h127l-8 -49h-126l-32 -199h-54l32 199h-161l-32 -199h-55l32 199h-127l8 49h126l29 181h-127l8 49h127l31 196h55l-31 -196h161l31 196h54l-31 -196h126zM385 248l29 181h-161l-29 -181h161z" />
    <glyph glyph-name="dollar" unicode="$" horiz-adv-x="544" 
d="M498 175q0 -80 -53 -130.5t-146 -56.5v-87h-54v87q-97 8 -148 67t-52 165h68q0 -158 132 -173v274q-44 12 -71 23.5t-57 32.5t-44.5 54.5t-14.5 79.5q0 77 49.5 123.5t137.5 51.5v78h54v-78q188 -15 188 -220h-67q0 78 -29.5 116.5t-91.5 44.5v-251q39 -11 62 -19t53 -24
t45.5 -35.5t27 -50.5t11.5 -72zM299 306v-260q63 5 97 38t34 90q0 59 -30.5 85t-100.5 47zM126 511q0 -53 28 -78t91 -43v238q-119 -9 -119 -117z" />
    <glyph glyph-name="percent" unicode="%" horiz-adv-x="841" 
d="M649 359q71 0 109 -48.5t38 -137.5t-38 -137.5t-109 -48.5t-109 48.5t-38 137.5t38 137.5t109 48.5zM649 306q-39 0 -60.5 -34.5t-21.5 -98.5t21.5 -98t60.5 -34t61 34t22 98q0 63 -22 98t-61 35zM192 687q71 0 109 -48.5t38 -138.5q0 -89 -38.5 -137t-108.5 -48
t-108.5 48t-38.5 137q0 90 38 138.5t109 48.5zM192 633q-39 0 -60.5 -34.5t-21.5 -98.5t21.5 -98t60.5 -34t61 34.5t22 97.5q0 64 -22 98.5t-61 34.5zM640 704l-378 -734h-60l377 734h61z" />
    <glyph glyph-name="ampersand" unicode="&#x26;" horiz-adv-x="724" 
d="M716 0h-90l-93 93q-91 -107 -231 -107q-108 0 -175 56.5t-67 145.5q0 137 164 215q-51 53 -69 88t-18 83q0 67 45.5 109t116.5 42q74 0 118.5 -42t44.5 -109q0 -62 -31 -103.5t-109 -80.5l204 -202q49 87 49 209h65q0 -147 -68 -254zM303 44q111 0 188 91l-229 229
q-75 -37 -104.5 -77.5t-29.5 -97.5q0 -63 48.5 -104t126.5 -41zM299 669q-47 0 -74 -25.5t-27 -70.5q0 -35 17 -64t68 -81q69 34 93.5 67.5t24.5 77.5q0 43 -27 69.5t-75 26.5z" />
    <glyph glyph-name="quotesingle" unicode="'" horiz-adv-x="207" 
d="M136 712l-10 -258h-45l-10 258h65z" />
    <glyph glyph-name="parenleft" unicode="(" horiz-adv-x="274" 
d="M187 741h57q-62 -110 -91 -215t-29 -229t29 -229t91 -215h-57q-132 200 -132 444t132 444z" />
    <glyph glyph-name="parenright" unicode=")" horiz-adv-x="274" 
d="M30 741h58q131 -200 131 -444t-131 -444h-58q63 109 91.5 214t28.5 230t-28.5 230t-91.5 214z" />
    <glyph glyph-name="asterisk" unicode="*" horiz-adv-x="398" 
d="M233 712l-16 -138l125 56l22 -66l-134 -23l91 -98l-56 -43l-66 122l-66 -122l-57 43l91 98l-133 23l22 66l125 -56l-16 138h68z" />
    <glyph glyph-name="plus" unicode="+" horiz-adv-x="566" 
d="M311 526v-181h181v-57h-181v-180h-56v180h-181v57h181v181h56z" />
    <glyph glyph-name="comma" unicode="," horiz-adv-x="210" 
d="M148 92v-92l-41 -130h-45l30 130h-30v92h86z" />
    <glyph glyph-name="hyphen" unicode="-" horiz-adv-x="290" 
d="M260 323v-62h-230v62h230z" />
    <glyph glyph-name="period" unicode="." horiz-adv-x="210" 
d="M148 92v-92h-86v92h86z" />
    <glyph glyph-name="slash" unicode="/" horiz-adv-x="442" 
d="M391 745l-297 -834h-64l297 834h64z" />
    <glyph glyph-name="zero" unicode="0" horiz-adv-x="544" 
d="M272 687q113 0 172 -89.5t59 -260.5q0 -170 -59.5 -260t-171.5 -90q-113 0 -172.5 90t-59.5 260q0 171 59.5 260.5t172.5 89.5zM272 626q-80 0 -121.5 -73.5t-41.5 -215.5t41.5 -216.5t121.5 -74.5t121.5 74.5t41.5 216.5t-41.5 215.5t-121.5 73.5z" />
    <glyph glyph-name="one" unicode="1" horiz-adv-x="544" 
d="M319 674v-674h-65v509h-145v53q77 0 112.5 25.5t45.5 86.5h52z" />
    <glyph glyph-name="two" unicode="2" horiz-adv-x="544" 
d="M272 687q91 0 147.5 -51.5t56.5 -133.5q0 -80 -46.5 -129.5t-146.5 -107.5q-100 -59 -134 -103t-34 -103h376v-59h-442q-1 7 -1 19q0 100 39 162t161 134q90 51 125 87.5t35 98.5q0 56 -37.5 90.5t-99.5 34.5q-136 0 -146 -143h-68q4 95 62.5 149.5t152.5 54.5z" />
    <glyph glyph-name="three" unicode="3" horiz-adv-x="544" 
d="M264 687q98 0 155.5 -49.5t57.5 -131.5q0 -117 -116 -160v-2q128 -43 128 -169q0 -83 -62.5 -135.5t-161.5 -52.5q-103 0 -161 55.5t-58 152.5h68q0 -73 38.5 -110.5t112.5 -37.5q69 0 112.5 36t43.5 94q0 66 -45 101t-129 35h-29v59h29q76 0 119.5 35t43.5 94
q0 57 -41 91.5t-108 34.5q-69 0 -106 -36.5t-37 -107.5h-67q0 96 57.5 150t155.5 54z" />
    <glyph glyph-name="four" unicode="4" horiz-adv-x="544" 
d="M518 242v-57h-119v-185h-64v185h-313v64l291 425h86v-432h119zM169 362l-82 -120h249v362h-2q-31 -47 -89 -131t-76 -111z" />
    <glyph glyph-name="five" unicode="5" horiz-adv-x="544" 
d="M458 674v-59h-303l-21 -233h2q48 59 138 59q98 0 156 -60t58 -162q0 -106 -61 -169t-163 -63q-94 0 -150.5 51t-56.5 139h67q1 -61 39.5 -95.5t99.5 -34.5q72 0 114.5 46t42.5 124q0 76 -40.5 120t-109.5 44q-114 0 -143 -108l-66 5l37 396h360z" />
    <glyph glyph-name="six" unicode="6" horiz-adv-x="544" 
d="M288 687q85 0 137 -48t62 -133h-68q-22 121 -131 121q-81 0 -127 -70.5t-49 -211.5h2q61 94 172 94q95 0 153 -61t58 -161q0 -103 -60.5 -166.5t-158.5 -63.5q-111 0 -169.5 81t-58.5 241q0 184 62 281t176 97zM279 380q-67 0 -110 -45.5t-43 -116.5q0 -78 41 -124.5
t111 -46.5q68 0 109.5 46.5t41.5 123.5q0 73 -41.5 118t-108.5 45z" />
    <glyph glyph-name="seven" unicode="7" horiz-adv-x="544" 
d="M43 674h448v-60q-179 -258 -252 -614h-74q86 363 255 615h-377v59z" />
    <glyph glyph-name="eight" unicode="8" horiz-adv-x="544" 
d="M272 687q93 0 152.5 -51.5t59.5 -132.5q0 -104 -116 -153v-2q129 -44 129 -165q0 -87 -63 -141.5t-162 -54.5q-100 0 -162.5 54t-62.5 142q0 121 128 165v2q-115 49 -115 153q0 81 59.5 132.5t152.5 51.5zM272 318q-69 0 -113 -37.5t-44 -95.5q0 -63 43 -100t114 -37
q70 0 113.5 37.5t43.5 99.5q0 58 -44 95.5t-113 37.5zM272 627q-65 0 -105 -34t-40 -90q0 -57 39.5 -91.5t105.5 -34.5t105 34.5t39 91.5q0 56 -40 90t-104 34z" />
    <glyph glyph-name="nine" unicode="9" horiz-adv-x="544" 
d="M254 -13q-85 0 -137 48t-62 133h68q22 -121 132 -121q81 0 126.5 70.5t48.5 211.5h-2q-60 -94 -172 -94q-94 0 -152.5 61.5t-58.5 160.5q0 103 61 166.5t159 63.5q111 0 169.5 -81t58.5 -241q0 -184 -62.5 -281t-176.5 -97zM264 294q67 0 109.5 45.5t42.5 116.5
q0 78 -40.5 124.5t-110.5 46.5q-68 0 -109.5 -46.5t-41.5 -123.5q0 -73 41 -118t109 -45z" />
    <glyph glyph-name="colon" unicode=":" horiz-adv-x="210" 
d="M148 92v-92h-86v92h86zM148 508v-92h-86v92h86z" />
    <glyph glyph-name="semicolon" unicode=";" horiz-adv-x="210" 
d="M148 508v-92h-86v92h86zM148 92v-92l-41 -130h-45l30 130h-30v92h86z" />
    <glyph glyph-name="less" unicode="&#x3c;" horiz-adv-x="566" 
d="M492 531v-62l-359 -151v-2l359 -151v-62l-418 176v76z" />
    <glyph glyph-name="equal" unicode="=" horiz-adv-x="566" 
d="M492 421v-56h-418v56h418zM492 268v-56h-418v56h418z" />
    <glyph glyph-name="greater" unicode="&#x3e;" horiz-adv-x="566" 
d="M74 531l418 -176v-76l-418 -176v62l359 151v2l-359 151v62z" />
    <glyph glyph-name="question" unicode="?" horiz-adv-x="501" 
d="M269 93v-93h-78v93h78zM252 725q93 0 151 -49.5t58 -128.5q0 -54 -21.5 -91.5t-88.5 -92.5q-59 -49 -75.5 -85.5t-16.5 -122.5h-58v29q0 80 20.5 121.5t84.5 96.5q55 47 71 75t16 69q0 55 -38.5 87.5t-102.5 32.5q-70 0 -109.5 -36.5t-43.5 -106.5h-64q5 98 61.5 150
t155.5 52z" />
    <glyph glyph-name="at" unicode="@" horiz-adv-x="865" 
d="M442 688q168 0 269 -99t101 -263q0 -120 -52.5 -184t-130.5 -64q-91 0 -104 93h-2q-43 -93 -141 -93q-67 0 -105.5 50t-39.5 142q1 110 53 179t134 69q89 0 121 -84h2q5 37 13 74h58q-42 -198 -42 -296q0 -81 62 -81q50 0 83.5 49.5t33.5 145.5q0 140 -85.5 224.5
t-227.5 84.5q-154 0 -242.5 -102t-88.5 -258q0 -150 85.5 -236.5t230.5 -86.5q130 0 221 57l25 -46q-104 -64 -246 -64q-171 0 -272 100.5t-101 275.5q0 177 105 295t283 118zM432 464q-58 0 -95 -53.5t-37 -140.5q0 -67 25.5 -102t72.5 -35q54 0 90.5 53t36.5 158
q0 57 -24 88.5t-69 31.5z" />
    <glyph glyph-name="A" unicode="A" horiz-adv-x="664" 
d="M588 0l-89 230h-334l-89 -230h-70l282 712h89l281 -712h-70zM188 290h287l-28 74q-7 17 -49 126t-65 169h-2q-79 -207 -114 -295z" />
    <glyph glyph-name="B" unicode="B" horiz-adv-x="615" 
d="M101 0v712h221q114 0 172 -48.5t58 -131.5q0 -59 -30 -102.5t-86 -63.5v-2q60 -15 95.5 -60t35.5 -108q0 -90 -60.5 -143t-168.5 -53h-237zM313 335h-147v-278h164q169 0 169 140q0 138 -186 138zM316 655h-150v-263h147q173 0 173 131q0 132 -170 132z" />
    <glyph glyph-name="B" unicode="&#xe000;" horiz-adv-x="615" 
d="M101 0v712h221q114 0 172 -48.5t58 -131.5q0 -59 -30 -102.5t-86 -63.5v-2q60 -15 95.5 -60t35.5 -108q0 -90 -60.5 -143t-168.5 -53h-237zM313 335h-147v-278h164q169 0 169 140q0 138 -186 138zM316 655h-150v-263h147q173 0 173 131q0 132 -170 132z" />
    <glyph glyph-name="C" unicode="C" horiz-adv-x="683" 
d="M351 725q123 0 197 -70t80 -181h-68q-8 87 -64.5 138.5t-144.5 51.5q-110 0 -173.5 -82.5t-63.5 -225.5t63 -225.5t172 -82.5q87 0 145 52.5t70 141.5h68q-11 -116 -86.5 -185.5t-196.5 -69.5q-141 0 -222.5 98.5t-81.5 270.5t82 270.5t224 98.5z" />
    <glyph glyph-name="D" unicode="D" horiz-adv-x="718" 
d="M101 0v712h208q174 0 269 -92.5t95 -263.5t-95 -263.5t-269 -92.5h-208zM309 653h-143v-594h143q142 0 218.5 77t76.5 220t-76.5 220t-218.5 77z" />
    <glyph glyph-name="E" unicode="E" horiz-adv-x="610" 
d="M544 712v-59h-378v-258h359v-59h-359v-277h390v-59h-455v712h443z" />
    <glyph glyph-name="E" unicode="&#xe001;" horiz-adv-x="610" 
d="M544 712v-59h-378v-258h359v-59h-359v-277h390v-59h-455v712h443z" />
    <glyph glyph-name="F" unicode="F" horiz-adv-x="568" 
d="M534 712v-59h-368v-269h346v-59h-346v-325h-65v712h433z" />
    <glyph glyph-name="G" unicode="G" horiz-adv-x="724" 
d="M360 725q117 0 192 -60.5t84 -162.5h-68q-13 77 -67 119.5t-141 42.5q-115 0 -180.5 -83t-65.5 -227q0 -143 63 -224.5t173 -81.5q101 0 162.5 63.5t61.5 201.5h-209v59h272v-372h-61v109h-2q-27 -55 -90 -88t-141 -33q-137 0 -217.5 98t-80.5 268q0 172 84.5 271.5
t230.5 99.5z" />
    <glyph glyph-name="H" unicode="H" horiz-adv-x="731" 
d="M630 712v-712h-65v340h-399v-340h-65v712h65v-313h399v313h65z" />
    <glyph glyph-name="I" unicode="I" horiz-adv-x="267" 
d="M166 712v-712h-65v712h65z" />
    <glyph glyph-name="J" unicode="J" horiz-adv-x="337" 
d="M176 712h66v-519q0 -98 -48 -147.5t-137 -49.5q-24 0 -42 5v60q21 -4 41 -4q120 0 120 138v517z" />
    <glyph glyph-name="K" unicode="K" horiz-adv-x="607" 
d="M570 712l-331 -340l363 -372h-91l-343 357h-2v-357h-65v712h65v-325h2l314 325h88z" />
    <glyph glyph-name="L" unicode="L" horiz-adv-x="553" 
d="M166 712v-653h377v-59h-442v712h65z" />
    <glyph glyph-name="M" unicode="M" horiz-adv-x="909" 
d="M808 712v-712h-65v365q0 184 1 276h-2q-23 -59 -108 -278l-142 -363h-76l-141 363q-12 31 -49.5 127.5t-58.5 150.5h-2q1 -92 1 -276v-365h-65v712h105l141 -364l106 -278h2q21 55 61.5 160.5t45.5 117.5l141 364h105z" />
    <glyph glyph-name="N" unicode="N" horiz-adv-x="745" 
d="M644 712v-712h-99l-185 316q-35 60 -99.5 170.5t-93.5 160.5h-2q0 -59 0.5 -178t0.5 -178v-291h-65v712h99l185 -316q35 -60 99.5 -170.5t93.5 -160.5h2q-1 119 -1 356v291h65z" />
    <glyph glyph-name="O" unicode="O" horiz-adv-x="724" 
d="M362 725q145 0 230.5 -100t85.5 -269t-85.5 -269t-230.5 -100t-231 100t-86 269t86 269t231 100zM362 664q-114 0 -181 -83.5t-67 -224.5t67 -224.5t181 -83.5q113 0 180.5 83.5t67.5 224.5t-67.5 224.5t-180.5 83.5z" />
    <glyph glyph-name="P" unicode="P" horiz-adv-x="606" 
d="M101 0v712h232q117 0 180 -55.5t63 -151.5t-63 -152t-180 -56h-167v-297h-65zM332 653h-166v-297h166q86 0 131 39t45 110q0 70 -45 109t-131 39z" />
    <glyph glyph-name="Q" unicode="Q" horiz-adv-x="723" 
d="M677 356q0 -173 -89 -274l79 -84l-45 -43l-79 86q-76 -54 -178 -54q-146 0 -233 100t-87 269t87 269t233 100q143 0 227.5 -100t84.5 -269zM365 48q77 0 133 41l-91 98l45 42l91 -98q66 85 66 225t-66 224t-178 84q-115 0 -183 -83.5t-68 -224.5t68 -224.5t183 -83.5z
" />
    <glyph glyph-name="R" unicode="R" horiz-adv-x="627" 
d="M101 0v712h209q123 0 183.5 -49t60.5 -141q0 -69 -38 -117.5t-100 -61.5v-2q39 -12 60.5 -39.5t45.5 -93.5l75 -208h-71l-68 198q-23 66 -54 91t-91 25h-147v-314h-65zM309 653h-143v-280h148q87 0 130.5 40.5t42.5 107.5q0 132 -178 132z" />
    <glyph glyph-name="S" unicode="S" horiz-adv-x="599" 
d="M282 725q248 0 248 -234h-66q0 175 -182 175q-75 0 -116 -34.5t-41 -94.5t40.5 -87.5t139.5 -51.5q48 -12 77.5 -21t63.5 -25.5t53 -37t31.5 -52t12.5 -72.5q0 -93 -65.5 -148t-177.5 -55q-122 0 -188.5 64t-66.5 186h65q0 -97 50 -143.5t140 -46.5q86 0 131.5 37
t45.5 105q0 61 -42 89t-146 54q-60 15 -95.5 28t-69.5 35.5t-49.5 57t-15.5 83.5q0 85 60 137t163 52z" />
    <glyph glyph-name="S" unicode="&#xe002;" horiz-adv-x="599" 
d="M282 725q248 0 248 -234h-66q0 175 -182 175q-75 0 -116 -34.5t-41 -94.5t40.5 -87.5t139.5 -51.5q48 -12 77.5 -21t63.5 -25.5t53 -37t31.5 -52t12.5 -72.5q0 -93 -65.5 -148t-177.5 -55q-122 0 -188.5 64t-66.5 186h65q0 -97 50 -143.5t140 -46.5q86 0 131.5 37
t45.5 105q0 61 -42 89t-146 54q-60 15 -95.5 28t-69.5 35.5t-49.5 57t-15.5 83.5q0 85 60 137t163 52z" />
    <glyph glyph-name="T" unicode="T" horiz-adv-x="592" 
d="M582 712v-59h-254v-653h-65v653h-253v59h572z" />
    <glyph glyph-name="U" unicode="U" horiz-adv-x="699" 
d="M539 712h65v-448q0 -136 -65 -206.5t-189 -70.5t-189.5 71t-65.5 206v448h65v-447q0 -108 49.5 -162.5t140.5 -54.5q90 0 139.5 54.5t49.5 162.5v447z" />
    <glyph glyph-name="V" unicode="V" horiz-adv-x="617" 
d="M610 712l-257 -712h-88l-258 712h69l232 -649h2q19 52 55.5 156t54.5 156l121 337h69z" />
    <glyph glyph-name="W" unicode="W" horiz-adv-x="896" 
d="M885 712l-174 -712h-102l-80 325q-54 218 -80 327h-2q-26 -109 -80 -327l-80 -325h-102l-174 712h66l74 -303q29 -116 85 -348h2q14 58 42.5 175t43.5 175l74 301h100l74 -301q14 -58 42.5 -175t43.5 -175h2l84 348l75 303h66z" />
    <glyph glyph-name="X" unicode="X" horiz-adv-x="617" 
d="M593 712l-244 -345l258 -367h-80l-218 313h-2l-218 -313h-79l258 367l-244 345h79l204 -292h2l205 292h79z" />
    <glyph glyph-name="Y" unicode="Y" horiz-adv-x="602" 
d="M597 712l-263 -408v-304h-66v304l-263 408h77l98 -154q40 -63 120 -191h2q80 128 121 191l97 154h77z" />
    <glyph glyph-name="Z" unicode="Z" horiz-adv-x="558" 
d="M521 712v-68l-429 -583v-2h448v-59h-523v68l429 583v2h-420v59h495z" />
    <glyph glyph-name="bracketleft" unicode="[" horiz-adv-x="281" 
d="M261 741v-48h-121v-793h121v-48h-182v889h182z" />
    <glyph glyph-name="backslash" unicode="\" horiz-adv-x="442" 
d="M51 745h64l297 -834h-64z" />
    <glyph glyph-name="bracketright" unicode="]" horiz-adv-x="281" 
d="M20 741h182v-889h-182v48h121v793h-121v48z" />
    <glyph glyph-name="asciicircum" unicode="^" horiz-adv-x="426" 
d="M247 712l166 -341h-59l-140 290h-2l-140 -290h-59l166 341h68z" />
    <glyph glyph-name="underscore" unicode="_" horiz-adv-x="500" 
d="M500 -50v-38h-500v38h500z" />
    <glyph glyph-name="grave" unicode="`" horiz-adv-x="274" 
d="M50 712h84l90 -141h-59z" />
    <glyph glyph-name="a" unicode="a" horiz-adv-x="524" 
d="M256 521q89 0 139.5 -49t50.5 -146v-201q0 -72 11 -125h-58q-7 34 -7 77h-2q-52 -87 -181 -87q-77 0 -124.5 41t-47.5 105q0 65 43.5 102t149.5 54q73 12 156 18v24q0 68 -35 101t-95 33q-62 0 -96 -30.5t-37 -82.5h-65q5 74 56.5 120t141.5 46zM386 219v39
q-65 -5 -148 -18q-75 -11 -105 -34t-30 -66q0 -45 31.5 -71.5t87.5 -26.5q74 0 117 45q27 28 37 55.5t10 76.5z" />
    <glyph glyph-name="b" unicode="b" horiz-adv-x="565" 
d="M145 712v-279h2q20 40 63 64t97 24q98 0 156 -72t58 -194t-58 -194t-156 -72q-54 0 -97 24t-63 64h-2v-77h-62v712h62zM297 469q-71 0 -113 -58.5t-42 -155.5t42 -155.5t113 -58.5q73 0 116 58t43 156t-43 156t-116 58z" />
    <glyph glyph-name="b" unicode="&#xe003;" horiz-adv-x="565" 
d="M145 712v-279h2q20 40 63 64t97 24q98 0 156 -72t58 -194t-58 -194t-156 -72q-54 0 -97 24t-63 64h-2v-77h-62v712h62zM297 469q-71 0 -113 -58.5t-42 -155.5t42 -155.5t113 -58.5q73 0 116 58t43 156t-43 156t-116 58z" />
    <glyph glyph-name="c" unicode="c" horiz-adv-x="521" 
d="M274 521q86 0 142.5 -52t63.5 -136h-65q-5 59 -44 96.5t-97 37.5q-76 0 -119.5 -57t-43.5 -156q0 -100 43.5 -156.5t119.5 -56.5q57 0 96.5 40.5t44.5 99.5h65q-7 -84 -63 -139t-143 -55q-107 0 -168.5 71.5t-61.5 195.5t61.5 195.5t168.5 71.5z" />
    <glyph glyph-name="d" unicode="d" horiz-adv-x="565" 
d="M482 712v-712h-62v77h-2q-20 -40 -63 -64t-97 -24q-98 0 -156 72t-58 194t58 194t156 72q54 0 97 -24t63 -64h2v279h62zM268 469q-73 0 -116 -58t-43 -156t43 -156t116 -58q71 0 113 58.5t42 155.5t-42 155.5t-113 58.5z" />
    <glyph glyph-name="e" unicode="e" horiz-adv-x="539" 
d="M276 40q61 0 100 30.5t51 80.5h64q-13 -70 -68.5 -117t-146.5 -47q-108 0 -170 74.5t-62 201.5q0 115 61.5 186.5t166.5 71.5q85 0 141.5 -48t73.5 -133q8 -36 8 -98h-388q2 -98 49 -150t120 -52zM272 468q-70 0 -115 -47t-49 -128h327q-5 83 -49 129t-114 46z" />
    <glyph glyph-name="f" unicode="f" horiz-adv-x="287" 
d="M241 663q-37 0 -55 -21t-18 -69v-65h103v-52h-103v-456h-62v456h-91v52h91v71q0 137 125 137q20 0 42 -4v-53q-14 4 -32 4z" />
    <glyph glyph-name="g" unicode="g" horiz-adv-x="565" 
d="M262 521q104 0 156 -89h2v76h62v-477q0 -110 -54 -166.5t-159 -56.5q-95 0 -149 42.5t-55 117.5h63q1 -51 39 -79.5t102 -28.5q77 0 114 42.5t37 131.5v60h-2q-53 -89 -156 -89q-100 0 -159 70.5t-59 187.5t59 187.5t159 70.5zM264 468q-71 0 -113 -56t-42 -149t42 -149
t113 -56q74 0 116.5 55t42.5 150t-42.5 150t-116.5 55z" />
    <glyph glyph-name="h" unicode="h" 
d="M145 712v-272h2q51 79 157 79q88 0 134.5 -53t46.5 -157v-309h-62v306q0 86 -33 122.5t-97 36.5q-63 0 -105.5 -43.5t-42.5 -120.5v-301h-62v712h62z" />
    <glyph glyph-name="i" unicode="i" horiz-adv-x="228" 
d="M145 508v-508h-62v508h62zM145 712v-88h-62v88h62z" />
    <glyph glyph-name="j" unicode="j" horiz-adv-x="235" 
d="M90 508h62v-545q0 -152 -133 -152q-19 0 -36 4v54q17 -3 30 -3q38 0 57.5 22.5t19.5 75.5v544zM152 712v-88h-62v88h62z" />
    <glyph glyph-name="k" unicode="k" horiz-adv-x="479" 
d="M211 280l275 -280h-86l-253 262h-2v-262h-62v712h62v-417h2l226 213h84z" />
    <glyph glyph-name="l" unicode="l" horiz-adv-x="228" 
d="M145 712v-712h-62v712h62z" />
    <glyph glyph-name="m" unicode="m" horiz-adv-x="845" 
d="M601 519q81 0 123.5 -51.5t42.5 -152.5v-315h-62v311q0 84 -28.5 119t-85.5 35q-61 0 -98 -45t-37 -119v-301h-62v327q0 65 -30 101.5t-84 36.5q-61 0 -98 -47t-37 -125v-293h-62v508h62v-66h2q55 77 142 77q52 0 92 -26.5t59 -74.5q50 101 161 101z" />
    <glyph glyph-name="n" unicode="n" 
d="M304 519q88 0 134.5 -53t46.5 -157v-309h-62v306q0 86 -33 122.5t-97 36.5q-63 0 -105.5 -43.5t-42.5 -120.5v-301h-62v508h61v-69h2q52 80 158 80z" />
    <glyph glyph-name="o" unicode="o" horiz-adv-x="552" 
d="M276 521q108 0 170 -71.5t62 -195.5t-62 -195.5t-170 -71.5t-170 71.5t-62 195.5t62 195.5t170 71.5zM276 467q-78 0 -122.5 -57t-44.5 -156t44.5 -156t122.5 -57q79 0 123.5 57t44.5 156t-44.5 156t-123.5 57z" />
    <glyph glyph-name="p" unicode="p" horiz-adv-x="565" 
d="M307 521q98 0 156 -72t58 -194t-58 -194t-156 -72q-54 0 -97 24t-63 64h-2v-262h-62v693h62v-75h2q20 40 63 64t97 24zM297 469q-71 0 -113 -58.5t-42 -155.5t42 -155.5t113 -58.5q73 0 116 58t43 156t-43 156t-116 58z" />
    <glyph glyph-name="q" unicode="q" horiz-adv-x="565" 
d="M258 521q54 0 97 -24t63 -64h2v75h62v-693h-62v262h-2q-20 -40 -63 -64t-97 -24q-98 0 -156 72t-58 194t58 194t156 72zM268 469q-73 0 -116 -58t-43 -156t43 -156t116 -58q71 0 113 58.5t42 155.5t-42 155.5t-113 58.5z" />
    <glyph glyph-name="r" unicode="r" horiz-adv-x="347" 
d="M301 512q19 0 34 -3v-59q-16 2 -32 2q-76 0 -117 -48t-41 -136v-268h-62v508h61v-80h2q52 84 155 84z" />
    <glyph glyph-name="s" unicode="s" horiz-adv-x="479" 
d="M230 521q90 0 140 -45.5t51 -128.5h-62q0 57 -34 88.5t-95 31.5q-52 0 -83.5 -23t-31.5 -61q0 -43 25.5 -58t102.5 -33q30 -7 41.5 -9.5t37.5 -10.5t37.5 -14.5t29.5 -19t26 -26t14.5 -33.5t6.5 -44q0 -66 -52 -107t-138 -41q-96 0 -150 48t-55 136h63q0 -62 37 -96
t105 -34q57 0 92.5 25t35.5 65q0 47 -30.5 65t-120.5 39q-28 7 -37 9t-33 9.5t-33.5 13t-25.5 17t-23 23.5t-12.5 30.5t-5.5 40.5q0 64 49.5 103.5t127.5 39.5z" />
    <glyph glyph-name="s" unicode="&#xe004;" horiz-adv-x="479" 
d="M230 521q90 0 140 -45.5t51 -128.5h-62q0 57 -34 88.5t-95 31.5q-52 0 -83.5 -23t-31.5 -61q0 -43 25.5 -58t102.5 -33q30 -7 41.5 -9.5t37.5 -10.5t37.5 -14.5t29.5 -19t26 -26t14.5 -33.5t6.5 -44q0 -66 -52 -107t-138 -41q-96 0 -150 48t-55 136h63q0 -62 37 -96
t105 -34q57 0 92.5 25t35.5 65q0 47 -30.5 65t-120.5 39q-28 7 -37 9t-33 9.5t-33.5 13t-25.5 17t-23 23.5t-12.5 30.5t-5.5 40.5q0 64 49.5 103.5t127.5 39.5z" />
    <glyph glyph-name="t" unicode="t" horiz-adv-x="302" 
d="M238 51q19 0 35 4v-53q-22 -5 -46 -5q-66 0 -95 32t-29 105v322h-91v52h91v118h62v-118h103v-52h-103v-321q0 -45 16.5 -64.5t56.5 -19.5z" />
    <glyph glyph-name="u" unicode="u" 
d="M259 -11q-88 0 -134.5 53t-46.5 157v309h62v-306q0 -86 33 -122.5t97 -36.5q63 0 105.5 43.5t42.5 120.5v301h62v-508h-61v69h-2q-23 -37 -64.5 -58.5t-93.5 -21.5z" />
    <glyph glyph-name="v" unicode="v" horiz-adv-x="450" 
d="M455 508l-190 -508h-80l-190 508h67l80 -220q7 -19 36.5 -100.5t45.5 -127.5h2q16 46 45.5 127.5t36.5 100.5l80 220h67z" />
    <glyph glyph-name="w" unicode="w" horiz-adv-x="750" 
d="M742 508l-147 -508h-89l-66 230q-40 138 -64 222h-2q-24 -84 -64 -222l-66 -230h-89l-147 508h64l62 -220q20 -68 65 -232h2l127 452h94l127 -452h2q45 164 65 232l62 220h64z" />
    <glyph glyph-name="x" unicode="x" horiz-adv-x="467" 
d="M448 508l-178 -242l197 -266h-77l-156 219h-2l-156 -219h-76l196 266l-178 242h76l138 -198h2l139 198h75z" />
    <glyph glyph-name="y" unicode="y" horiz-adv-x="456" 
d="M394 508h67l-210 -532q-39 -98 -80 -131.5t-116 -33.5q-22 0 -37 4v55q15 -4 36 -4q55 0 82 25.5t59 108.5l-200 508h67l165 -429h2z" />
    <glyph glyph-name="y" unicode="&#xe006;" horiz-adv-x="456" 
d="M394 508h67l-210 -532q-39 -98 -80 -131.5t-116 -33.5q-22 0 -37 4v55q15 -4 36 -4q55 0 82 25.5t59 108.5l-200 508h67l165 -429h2z" />
    <glyph glyph-name="z" unicode="z" horiz-adv-x="461" 
d="M426 508v-58l-324 -394v-2h334v-54h-411v58l324 394v2h-314v54h391z" />
    <glyph glyph-name="braceleft" unicode="{" horiz-adv-x="283" 
d="M237 741h22v-44q-50 -1 -71 -25t-21 -81v-173q0 -51 -17.5 -78t-61.5 -42v-3q44 -15 61.5 -42t17.5 -78v-173q0 -57 21 -81t71 -25v-44h-22q-67 0 -98.5 37t-31.5 117v167q0 45 -15 67t-52 33v47q37 11 52 33t15 67v167q0 80 31.5 117t98.5 37z" />
    <glyph glyph-name="bar" unicode="|" horiz-adv-x="262" 
d="M160 732v-937h-58v937h58z" />
    <glyph glyph-name="braceright" unicode="}" horiz-adv-x="283" 
d="M23 697v44h22q67 0 99 -37t32 -117v-167q0 -45 14.5 -67t52.5 -33v-47q-38 -11 -52.5 -33t-14.5 -67v-167q0 -80 -32 -117t-99 -37h-22v44q50 1 71 25t21 81v173q0 51 17.5 78t61.5 42v3q-44 15 -61.5 42t-17.5 78v173q0 57 -21 81t-71 25z" />
    <glyph glyph-name="asciitilde" unicode="~" horiz-adv-x="578" 
d="M166 405q38 0 73.5 -18.5t59 -41.5t55 -41.5t60.5 -18.5q41 0 65.5 30t24.5 79h49q0 -74 -39 -120t-101 -46q-38 0 -74 19t-59.5 41.5t-55 41.5t-60.5 19q-41 0 -65.5 -30t-24.5 -79h-49q0 74 39 119.5t102 45.5z" />
    <glyph glyph-name="exclamdown" unicode="&#xa1;" horiz-adv-x="251" 
d="M84 -204l16 548h51l16 -548h-83zM86 415v93h79v-93h-79z" />
    <glyph glyph-name="cent" unicode="&#xa2;" horiz-adv-x="544" 
d="M312 544v-420q47 10 77.5 48.5t34.5 88.5h66q-6 -77 -54.5 -130t-123.5 -62v-92h-54v91q-96 9 -150 79t-54 187t54 187t150 79v87h54v-88q75 -8 123.5 -59t54.5 -127h-65q-4 51 -35 87t-78 44zM120 334q0 -90 36.5 -145.5t101.5 -65.5v422q-65 -10 -101.5 -65.5
t-36.5 -145.5z" />
    <glyph glyph-name="sterling" unicode="&#xa3;" horiz-adv-x="544" 
d="M139 58v-2h357v-56h-472v56q100 0 100 136v109h-100v56h100v122q0 102 49.5 155t140.5 53q87 0 136.5 -53t49.5 -147h-62q0 68 -33 104t-91 36q-62 0 -94.5 -38t-32.5 -110v-122h127v-56h-127v-109q0 -96 -48 -134z" />
    <glyph glyph-name="currency" unicode="&#xa4;" horiz-adv-x="544" 
d="M480 291q0 -81 -42 -137l79 -82l-45 -43l-77 83q-53 -36 -123 -36q-71 0 -123 36l-78 -83l-44 43l78 83q-41 57 -41 136t41 136l-78 83l44 43l78 -83q52 36 123 36q70 0 123 -36l77 83l45 -43l-79 -82q42 -56 42 -137zM272 135q67 0 106.5 42.5t39.5 113.5t-39.5 113.5
t-106.5 42.5t-107 -42.5t-40 -113.5t40 -113.5t107 -42.5z" />
    <glyph glyph-name="yen" unicode="&#xa5;" horiz-adv-x="544" 
d="M536 674l-198 -307h145v-53h-179v-65h179v-53h-179v-196h-65v196h-179v53h179v65h-179v53h145l-198 307h77l187 -298h2l187 298h76z" />
    <glyph glyph-name="brokenbar" unicode="&#xa6;" horiz-adv-x="262" 
d="M160 732v-350h-58v350h58zM160 145v-350h-58v350h58z" />
    <glyph glyph-name="section" unicode="&#xa7;" horiz-adv-x="545" 
d="M263 725q82 0 126.5 -42.5t45.5 -121.5h-63q-1 109 -109 109q-48 0 -75.5 -24t-27.5 -66q0 -43 24 -62.5t114 -61.5q109 -50 146 -86.5t37 -102.5q0 -94 -84 -144v-2q50 -41 50 -113q0 -73 -48 -114t-131 -41q-89 0 -136.5 44t-48.5 131h63q1 -60 30 -90t92 -30
q55 0 84.5 26.5t29.5 73.5q0 20 -5.5 35t-13.5 26.5t-30 25t-40.5 23t-59.5 29.5q-98 47 -133.5 83t-35.5 102q0 92 80 140v2q-49 40 -49 106q0 65 46.5 105t121.5 40zM186 445q-62 -48 -62 -106q0 -42 29.5 -72.5t109.5 -67.5q51 -22 92 -49q66 46 66 110q0 43 -28 71.5
t-110 65.5q-47 20 -97 48z" />
    <glyph glyph-name="dieresis" unicode="&#xa8;" horiz-adv-x="345" 
d="M111 712v-88h-61v88h61zM295 712v-88h-61v88h61z" />
    <glyph glyph-name="copyright" unicode="&#xa9;" horiz-adv-x="814" 
d="M407 723q161 0 259.5 -101t98.5 -266t-98.5 -266t-259.5 -101t-259.5 101t-98.5 266t98.5 266t259.5 101zM407 680q-143 0 -229.5 -89t-86.5 -235t86.5 -235t229.5 -89q142 0 229 89t87 235t-87 235t-229 89zM408 605q84 0 133.5 -47.5t53.5 -121.5h-63q-5 51 -38 81
t-86 30q-66 0 -103.5 -51t-37.5 -140t37.5 -140t102.5 -51q52 0 86 31t41 84h64q-8 -79 -58.5 -126t-132.5 -47q-95 0 -150 66.5t-55 182.5q0 115 55.5 182t150.5 67z" />
    <glyph glyph-name="ordfeminine" unicode="&#xaa;" horiz-adv-x="383" 
d="M187 695q67 0 104 -34.5t37 -103.5v-136q0 -53 9 -91h-49q-5 28 -5 53h-2q-38 -60 -129 -60q-57 0 -91.5 29t-34.5 75t32.5 72.5t110.5 38.5q62 9 107 12v14q0 87 -89 87q-42 0 -65 -19.5t-25 -52.5h-56q3 51 41.5 83.5t104.5 32.5zM276 483v23q-45 -3 -100 -12
q-52 -8 -72.5 -22t-20.5 -42q0 -29 21 -46t59 -17q54 0 83.5 30.5t29.5 85.5z" />
    <glyph glyph-name="guillemetleft" unicode="&#xab;" horiz-adv-x="430" 
d="M226 454l-112 -200l112 -200h-62l-114 200l114 200h62zM380 454l-113 -200l113 -200h-63l-114 200l114 200h63z" />
    <glyph glyph-name="logicalnot" unicode="&#xac;" horiz-adv-x="566" 
d="M492 450v-306h-56v249h-362v57h418z" />
    <glyph glyph-name="softhyphen" unicode="&#xad;" horiz-adv-x="290" 
d="M260 323v-62h-230v62h230z" />
    <glyph glyph-name="registered" unicode="&#xae;" horiz-adv-x="584" 
d="M292 725q111 0 179 -70t68 -184t-68 -184t-179 -70t-179 70t-68 184t68 184t179 70zM292 693q-97 0 -156 -61t-59 -161t59 -161t156 -61t156 61t59 161t-59 161t-156 61zM184 315v320h112q52 0 79.5 -24t27.5 -68q0 -27 -15.5 -49.5t-40.5 -27.5v-2q28 -7 42 -49l34 -100
h-52l-27 85q-7 25 -21 35.5t-39 10.5h-53v-131h-47zM288 593h-57v-105h53q70 0 70 55q0 50 -66 50z" />
    <glyph glyph-name="macron" unicode="&#xaf;" horiz-adv-x="363" 
d="M313 676v-52h-263v52h263z" />
    <glyph glyph-name="degree" unicode="&#xb0;" horiz-adv-x="309" 
d="M154 722q47 0 80 -33t33 -80t-33 -80t-80 -33q-46 0 -79 33t-33 80t33 80t79 33zM154 677q-28 0 -47.5 -20t-19.5 -48t19.5 -47.5t47.5 -19.5t48.5 19.5t20.5 47.5t-20.5 48t-48.5 20z" />
    <glyph glyph-name="plusminus" unicode="&#xb1;" horiz-adv-x="566" 
d="M492 56v-56h-418v56h418zM311 546v-180h181v-56h-181v-180h-56v180h-181v56h181v180h56z" />
    <glyph glyph-name="twosuperior" unicode="&#xb2;" horiz-adv-x="402" 
d="M204 812q67 0 108.5 -36.5t41.5 -95.5q0 -56 -34.5 -92t-104.5 -76q-69 -39 -93.5 -67.5t-24.5 -64.5h268v-50h-324q-2 5 -2 15q0 72 28.5 116.5t116.5 93.5q61 34 85.5 59t24.5 66q0 36 -24.5 58t-66.5 22q-92 0 -98 -94h-59q3 68 46 107t112 39z" />
    <glyph glyph-name="threesuperior" unicode="&#xb3;" horiz-adv-x="396" 
d="M193 812q72 0 114 -35.5t42 -93.5q0 -78 -81 -111v-2q47 -17 68 -44.5t21 -72.5q0 -58 -46 -95.5t-117 -37.5q-76 0 -119 40t-43 109h58q0 -98 104 -98q46 0 75 23t29 61q0 89 -120 89h-18v50h18q52 0 82.5 22.5t30.5 62.5q0 37 -27 59t-73 22q-97 0 -97 -95h-58
q0 69 42.5 108t114.5 39z" />
    <glyph glyph-name="acute" unicode="&#xb4;" horiz-adv-x="274" 
d="M224 712l-115 -141h-59l90 141h84z" />
    <glyph glyph-name="micro" unicode="&#xb5;" horiz-adv-x="568" 
d="M419 508h62v-375q0 -49 10.5 -66.5t37.5 -17.5q13 0 24 4v-51q-20 -7 -47 -7q-40 0 -60 19t-24 63h-2q-20 -39 -61 -62t-92 -23q-86 0 -122 53v-230h-62v693h62v-303q0 -86 32 -123t95 -37q62 0 104.5 44t42.5 121v298z" />
    <glyph glyph-name="paragraph" unicode="&#xb6;" horiz-adv-x="555" 
d="M533 712v-45h-80v-787h-48v787h-89v-787h-48v436h-40q-86 0 -137 54t-51 144q0 91 51 144.5t137 53.5h305z" />
    <glyph glyph-name="periodcentered" unicode="&#xb7;" horiz-adv-x="210" 
d="M148 351v-91h-86v91h86z" />
    <glyph glyph-name="cedilla" unicode="&#xb8;" horiz-adv-x="305" 
d="M153 0h43l-42 -63q10 2 23 2q33 0 55.5 -19.5t22.5 -52.5q0 -36 -27 -60.5t-78 -24.5q-53 0 -100 27l15 32q37 -20 78 -20q60 0 60 44q0 20 -15 31.5t-41 11.5q-16 0 -31 -5l-16 18z" />
    <glyph glyph-name="onesuperior" unicode="&#xb9;" horiz-adv-x="248" 
d="M172 802v-472h-56v348h-105v45q56 0 82.5 18t33.5 61h45z" />
    <glyph glyph-name="ordmasculine" unicode="&#xba;" horiz-adv-x="405" 
d="M203 695q80 0 125.5 -50t45.5 -137q0 -88 -45.5 -138t-125.5 -50q-79 0 -125.5 50.5t-46.5 137.5t46.5 137t125.5 50zM203 649q-53 0 -83.5 -38t-30.5 -103t30.5 -103t83.5 -38q54 0 84.5 38t30.5 103t-30.5 103t-84.5 38z" />
    <glyph glyph-name="guillemetright" unicode="&#xbb;" horiz-adv-x="430" 
d="M50 454h62l114 -200l-114 -200h-62l112 200zM203 454h63l114 -200l-114 -200h-63l113 200z" />
    <glyph glyph-name="onequarter" unicode="&#xbc;" horiz-adv-x="682" 
d="M672 153v-50h-67v-103h-56v103h-193v55l174 246h75v-251h67zM457 215l-44 -62h137v190h-2q-38 -55 -91 -128zM99 270v291h-90v46q48 0 71.5 15.5t29.5 51.5h45v-404h-56zM457 674h65l-392 -674h-65z" />
    <glyph glyph-name="onehalf" unicode="&#xbd;" horiz-adv-x="717" 
d="M155 674v-404h-56v291h-90v46q48 0 71.5 15.5t29.5 51.5h45zM522 674l-392 -674h-65l392 674h65zM545 413q59 0 95 -31.5t36 -82.5q0 -48 -31 -81t-89 -65q-56 -31 -76.5 -53.5t-20.5 -49.5h227v-50h-284q-1 4 -1 14q0 63 24.5 101t101.5 82q50 28 70.5 48.5t20.5 54.5
q0 27 -20 44t-54 17q-74 0 -79 -75h-57q2 59 40 93t97 34z" />
    <glyph glyph-name="threequarters" unicode="&#xbe;" horiz-adv-x="808" 
d="M798 153v-50h-67v-103h-56v103h-193v55l174 246h75v-251h67zM583 215l-44 -62h137v190h-2q-38 -55 -91 -128zM312 376q0 -51 -39.5 -83t-102.5 -32q-67 0 -105 34.5t-38 96.5h57q0 -79 86 -79q38 0 61 17.5t23 47.5q0 72 -101 72h-13v50h13q43 0 68.5 18.5t25.5 49.5
q0 29 -20.5 46t-57.5 17q-81 0 -81 -76h-57q0 60 37.5 94t101.5 34q63 0 99 -30t36 -81q0 -34 -15 -56t-51 -38v-2q73 -29 73 -100zM583 674h65l-392 -674h-65z" />
    <glyph glyph-name="questiondown" unicode="&#xbf;" horiz-adv-x="466" 
d="M249 -217q-93 0 -151 49.5t-58 128.5q0 54 21.5 91.5t88.5 92.5q59 49 75.5 85.5t16.5 122.5h58v-29q0 -80 -20.5 -121.5t-84.5 -96.5q-55 -47 -71 -75t-16 -69q0 -55 38.5 -87.5t102.5 -32.5q70 0 109.5 36.5t43.5 106.5h64q-6 -98 -62 -150t-155 -52zM231 415v93h79
v-93h-79z" />
    <glyph glyph-name="Agrave" unicode="&#xc0;" horiz-adv-x="664" 
d="M588 0l-89 230h-334l-89 -230h-70l282 712h89l281 -712h-70zM188 290h287l-28 74q-7 17 -49 126t-65 169h-2q-79 -207 -114 -295zM390 760h-59l-115 135h84z" />
    <glyph glyph-name="Aacute" unicode="&#xc1;" horiz-adv-x="664" 
d="M588 0l-89 230h-334l-89 -230h-70l282 712h89l281 -712h-70zM188 290h287l-28 74q-7 17 -49 126t-65 169h-2q-79 -207 -114 -295zM448 895l-115 -135h-59l90 135h84z" />
    <glyph glyph-name="Acircumflex" unicode="&#xc2;" horiz-adv-x="664" 
d="M588 0l-89 230h-334l-89 -230h-70l282 712h89l281 -712h-70zM188 290h287l-28 74q-7 17 -49 126t-65 169h-2q-79 -207 -114 -295zM332 855l-80 -95h-69l114 135h71l114 -135h-69z" />
    <glyph glyph-name="Atilde" unicode="&#xc3;" horiz-adv-x="664" 
d="M588 0l-89 230h-334l-89 -230h-70l282 712h89l281 -712h-70zM188 290h287l-28 74q-7 17 -49 126t-65 169h-2q-79 -207 -114 -295zM262 834q-41 0 -46 -54h-48q3 51 27.5 78t65.5 27q31 0 76.5 -26.5t65.5 -26.5q41 0 46 53h48q-3 -51 -27.5 -78t-65.5 -27q-31 0 -76.5 27
t-65.5 27z" />
    <glyph glyph-name="Adieresis" unicode="&#xc4;" horiz-adv-x="664" 
d="M588 0l-89 230h-334l-89 -230h-70l282 712h89l281 -712h-70zM188 290h287l-28 74q-7 17 -49 126t-65 169h-2q-79 -207 -114 -295zM270 866v-88h-61v88h61zM454 866v-88h-61v88h61z" />
    <glyph glyph-name="Aring" unicode="&#xc5;" horiz-adv-x="664" 
d="M588 0l-89 230h-334l-89 -230h-70l282 712h89l281 -712h-70zM188 290h287l-28 74q-7 17 -49 126t-65 169h-2q-79 -207 -114 -295zM332 753q-40 0 -68.5 28.5t-28.5 68.5t28.5 68t68.5 28t68 -28t28 -68t-28 -68.5t-68 -28.5zM332 909q-25 0 -42.5 -17.5t-17.5 -41.5
q0 -25 17.5 -42.5t42.5 -17.5t42 17.5t17 42.5q0 24 -17 41.5t-42 17.5z" />
    <glyph glyph-name="AE" unicode="&#xc6;" horiz-adv-x="924" 
d="M567 59h302v-59h-359l-37 247h-281l-124 -247h-74l357 712h506v-59h-380l39 -258h322v-59h-313zM221 306h243l-52 347h-17z" />
    <glyph glyph-name="Ccedilla" unicode="&#xc7;" horiz-adv-x="683" 
d="M564 242h68q-11 -108 -78 -176.5t-175 -77.5l-34 -51q10 2 23 2q33 0 55.5 -19.5t22.5 -52.5q0 -36 -27 -60.5t-78 -24.5q-53 0 -100 27l15 32q37 -20 78 -20q60 0 60 44q0 20 -15 31.5t-41 11.5q-16 0 -31 -5l-16 18l44 66q-135 5 -212.5 103.5t-77.5 265.5
q0 172 82 270.5t224 98.5q123 0 197 -70t80 -181h-68q-8 87 -64.5 138.5t-144.5 51.5q-110 0 -173.5 -82.5t-63.5 -225.5t63 -225.5t172 -82.5q87 0 145 52.5t70 141.5z" />
    <glyph glyph-name="Egrave" unicode="&#xc8;" horiz-adv-x="610" 
d="M544 712v-59h-378v-258h359v-59h-359v-277h390v-59h-455v712h443zM206 895h84l90 -135h-59z" />
    <glyph glyph-name="Eacute" unicode="&#xc9;" horiz-adv-x="610" 
d="M544 712v-59h-378v-258h359v-59h-359v-277h390v-59h-455v712h443zM439 895l-115 -135h-59l90 135h84z" />
    <glyph glyph-name="Ecircumflex" unicode="&#xca;" horiz-adv-x="610" 
d="M544 712v-59h-378v-258h359v-59h-359v-277h390v-59h-455v712h443zM173 760l114 135h71l114 -135h-69l-81 95l-80 -95h-69z" />
    <glyph glyph-name="Edieresis" unicode="&#xcb;" horiz-adv-x="610" 
d="M544 712v-59h-378v-258h359v-59h-359v-277h390v-59h-455v712h443zM260 866v-88h-61v88h61zM444 866v-88h-61v88h61z" />
    <glyph glyph-name="Igrave" unicode="&#xcc;" horiz-adv-x="267" 
d="M166 712v-712h-65v712h65zM17 895h84l90 -135h-59z" />
    <glyph glyph-name="Iacute" unicode="&#xcd;" horiz-adv-x="267" 
d="M166 712v-712h-65v712h65zM250 895l-115 -135h-59l90 135h84z" />
    <glyph glyph-name="Icircumflex" unicode="&#xce;" horiz-adv-x="267" 
d="M166 712v-712h-65v712h65zM-16 760l114 135h71l114 -135h-69l-81 95l-80 -95h-69z" />
    <glyph glyph-name="Idieresis" unicode="&#xcf;" horiz-adv-x="267" 
d="M166 712v-712h-65v712h65zM71 866v-88h-61v88h61zM255 866v-88h-61v88h61z" />
    <glyph glyph-name="Eth" unicode="&#xd0;" horiz-adv-x="718" 
d="M101 388v324h208q174 0 269 -92.5t95 -263.5t-95 -263.5t-269 -92.5h-208v333h-66v55h66zM166 333v-274h143q142 0 218.5 77t76.5 220t-76.5 220t-218.5 77h-143v-265h220v-55h-220z" />
    <glyph glyph-name="Ntilde" unicode="&#xd1;" horiz-adv-x="745" 
d="M644 712v-712h-99l-185 316q-35 60 -99.5 170.5t-93.5 160.5h-2q0 -59 0.5 -178t0.5 -178v-291h-65v712h99l185 -316q35 -60 99.5 -170.5t93.5 -160.5h2q-1 119 -1 356v291h65zM489 885h48q-3 -51 -27.5 -78t-65.5 -27q-31 0 -76.5 27t-65.5 27q-41 0 -46 -54h-48
q3 51 27.5 78t65.5 27q31 0 76.5 -26.5t65.5 -26.5q41 0 46 53z" />
    <glyph glyph-name="Ograve" unicode="&#xd2;" horiz-adv-x="724" 
d="M362 725q145 0 230.5 -100t85.5 -269t-85.5 -269t-230.5 -100t-231 100t-86 269t86 269t231 100zM362 664q-114 0 -181 -83.5t-67 -224.5t67 -224.5t181 -83.5q113 0 180.5 83.5t67.5 224.5t-67.5 224.5t-180.5 83.5zM246 895h84l90 -135h-59z" />
    <glyph glyph-name="Oacute" unicode="&#xd3;" horiz-adv-x="724" 
d="M362 725q145 0 230.5 -100t85.5 -269t-85.5 -269t-230.5 -100t-231 100t-86 269t86 269t231 100zM362 664q-114 0 -181 -83.5t-67 -224.5t67 -224.5t181 -83.5q113 0 180.5 83.5t67.5 224.5t-67.5 224.5t-180.5 83.5zM478 895l-115 -135h-59l90 135h84z" />
    <glyph glyph-name="Ocircumflex" unicode="&#xd4;" horiz-adv-x="724" 
d="M362 725q145 0 230.5 -100t85.5 -269t-85.5 -269t-230.5 -100t-231 100t-86 269t86 269t231 100zM362 664q-114 0 -181 -83.5t-67 -224.5t67 -224.5t181 -83.5q113 0 180.5 83.5t67.5 224.5t-67.5 224.5t-180.5 83.5zM212 760l114 135h71l114 -135h-69l-81 95l-80 -95
h-69z" />
    <glyph glyph-name="Otilde" unicode="&#xd5;" horiz-adv-x="724" 
d="M362 725q145 0 230.5 -100t85.5 -269t-85.5 -269t-230.5 -100t-231 100t-86 269t86 269t231 100zM362 664q-114 0 -181 -83.5t-67 -224.5t67 -224.5t181 -83.5q113 0 180.5 83.5t67.5 224.5t-67.5 224.5t-180.5 83.5zM478 885h48q-3 -51 -27.5 -78t-65.5 -27
q-31 0 -76.5 27t-65.5 27q-41 0 -46 -54h-48q3 51 27.5 78t65.5 27q31 0 76.5 -26.5t65.5 -26.5q41 0 46 53z" />
    <glyph glyph-name="Odieresis" unicode="&#xd6;" horiz-adv-x="724" 
d="M362 725q145 0 230.5 -100t85.5 -269t-85.5 -269t-230.5 -100t-231 100t-86 269t86 269t231 100zM362 664q-114 0 -181 -83.5t-67 -224.5t67 -224.5t181 -83.5q113 0 180.5 83.5t67.5 224.5t-67.5 224.5t-180.5 83.5zM300 866v-88h-61v88h61zM484 866v-88h-61v88h61z" />
    <glyph glyph-name="multiply" unicode="&#xd7;" horiz-adv-x="566" 
d="M479 541l39 -39l-197 -196l197 -196l-39 -39l-196 197l-196 -197l-39 39l197 196l-197 196l39 39l196 -196z" />
    <glyph glyph-name="Oslash" unicode="&#xd8;" horiz-adv-x="724" 
d="M617 740l45 -34l-65 -86q81 -100 81 -264q0 -169 -85.5 -269t-230.5 -100q-115 0 -195 65l-60 -80l-45 35l65 85q-82 99 -82 264q0 169 86 269t231 100q115 0 194 -65zM113 356q0 -127 56 -208l348 460q-64 56 -155 56q-114 0 -181.5 -83.5t-67.5 -224.5zM362 48
q114 0 181 83.5t67 224.5q0 129 -55 208l-348 -460q64 -56 155 -56z" />
    <glyph glyph-name="Ugrave" unicode="&#xd9;" horiz-adv-x="699" 
d="M539 712h65v-448q0 -136 -65 -206.5t-189 -70.5t-189.5 71t-65.5 206v448h65v-447q0 -108 49.5 -162.5t140.5 -54.5q90 0 139.5 54.5t49.5 162.5v447zM233 895h84l90 -135h-59z" />
    <glyph glyph-name="Uacute" unicode="&#xda;" horiz-adv-x="699" 
d="M539 712h65v-448q0 -136 -65 -206.5t-189 -70.5t-189.5 71t-65.5 206v448h65v-447q0 -108 49.5 -162.5t140.5 -54.5q90 0 139.5 54.5t49.5 162.5v447zM466 895l-115 -135h-59l90 135h84z" />
    <glyph glyph-name="Ucircumflex" unicode="&#xdb;" horiz-adv-x="699" 
d="M539 712h65v-448q0 -136 -65 -206.5t-189 -70.5t-189.5 71t-65.5 206v448h65v-447q0 -108 49.5 -162.5t140.5 -54.5q90 0 139.5 54.5t49.5 162.5v447zM200 760l114 135h71l114 -135h-69l-81 95l-80 -95h-69z" />
    <glyph glyph-name="Udieresis" unicode="&#xdc;" horiz-adv-x="699" 
d="M539 712h65v-448q0 -136 -65 -206.5t-189 -70.5t-189.5 71t-65.5 206v448h65v-447q0 -108 49.5 -162.5t140.5 -54.5q90 0 139.5 54.5t49.5 162.5v447zM288 866v-88h-61v88h61zM472 866v-88h-61v88h61z" />
    <glyph glyph-name="Yacute" unicode="&#xdd;" horiz-adv-x="602" 
d="M597 712l-263 -408v-304h-66v304l-263 408h77l98 -154q40 -63 120 -191h2q80 128 121 191l97 154h77zM417 895l-115 -135h-59l90 135h84z" />
    <glyph glyph-name="Thorn" unicode="&#xde;" horiz-adv-x="606" 
d="M166 712v-136h167q117 0 180 -55.5t63 -151.5t-63 -152t-180 -56h-167v-161h-65v712h65zM332 517h-166v-297h166q86 0 131 39t45 110q0 70 -45 109t-131 39z" />
    <glyph glyph-name="germandbls" unicode="&#xdf;" horiz-adv-x="548" 
d="M281 725q86 0 138 -46.5t52 -123.5q0 -118 -111 -154v-2q66 -13 105.5 -62.5t39.5 -129.5q0 -101 -61 -157t-171 -56q-28 0 -52 6v56q19 -6 49 -6q80 0 125.5 41.5t45.5 116.5t-44 118.5t-120 43.5h-15v58q72 0 109 32t37 91q0 55 -34.5 87t-92.5 32q-66 0 -101 -41.5
t-35 -121.5v-507h-62v510q0 102 51.5 158.5t146.5 56.5z" />
    <glyph glyph-name="agrave" unicode="&#xe0;" horiz-adv-x="524" 
d="M256 521q89 0 139.5 -49t50.5 -146v-201q0 -72 11 -125h-58q-7 34 -7 77h-2q-52 -87 -181 -87q-77 0 -124.5 41t-47.5 105q0 65 43.5 102t149.5 54q73 12 156 18v24q0 68 -35 101t-95 33q-62 0 -96 -30.5t-37 -82.5h-65q5 74 56.5 120t141.5 46zM386 219v39
q-65 -5 -148 -18q-75 -11 -105 -34t-30 -66q0 -45 31.5 -71.5t87.5 -26.5q74 0 117 45q27 28 37 55.5t10 76.5zM133 712h84l90 -141h-59z" />
    <glyph glyph-name="aacute" unicode="&#xe1;" horiz-adv-x="524" 
d="M256 521q89 0 139.5 -49t50.5 -146v-201q0 -72 11 -125h-58q-7 34 -7 77h-2q-52 -87 -181 -87q-77 0 -124.5 41t-47.5 105q0 65 43.5 102t149.5 54q73 12 156 18v24q0 68 -35 101t-95 33q-62 0 -96 -30.5t-37 -82.5h-65q5 74 56.5 120t141.5 46zM386 219v39
q-65 -5 -148 -18q-75 -11 -105 -34t-30 -66q0 -45 31.5 -71.5t87.5 -26.5q74 0 117 45q27 28 37 55.5t10 76.5zM365 712l-115 -141h-59l90 141h84z" />
    <glyph glyph-name="acircumflex" unicode="&#xe2;" horiz-adv-x="524" 
d="M256 521q89 0 139.5 -49t50.5 -146v-201q0 -72 11 -125h-58q-7 34 -7 77h-2q-52 -87 -181 -87q-77 0 -124.5 41t-47.5 105q0 65 43.5 102t149.5 54q73 12 156 18v24q0 68 -35 101t-95 33q-62 0 -96 -30.5t-37 -82.5h-65q5 74 56.5 120t141.5 46zM386 219v39
q-65 -5 -148 -18q-75 -11 -105 -34t-30 -66q0 -45 31.5 -71.5t87.5 -26.5q74 0 117 45q27 28 37 55.5t10 76.5zM398 571h-69l-80 101l-81 -101h-69l114 141h71z" />
    <glyph glyph-name="atilde" unicode="&#xe3;" horiz-adv-x="524" 
d="M256 521q89 0 139.5 -49t50.5 -146v-201q0 -72 11 -125h-58q-7 34 -7 77h-2q-52 -87 -181 -87q-77 0 -124.5 41t-47.5 105q0 65 43.5 102t149.5 54q73 12 156 18v24q0 68 -35 101t-95 33q-62 0 -96 -30.5t-37 -82.5h-65q5 74 56.5 120t141.5 46zM386 219v39
q-65 -5 -148 -18q-75 -11 -105 -34t-30 -66q0 -45 31.5 -71.5t87.5 -26.5q74 0 117 45q27 28 37 55.5t10 76.5zM365 703h48q-3 -51 -27.5 -78t-65.5 -27q-31 0 -76.5 26.5t-65.5 26.5q-41 0 -46 -53h-48q3 51 27.5 78t65.5 27q31 0 76.5 -27t65.5 -27q41 0 46 54z" />
    <glyph glyph-name="adieresis" unicode="&#xe4;" horiz-adv-x="524" 
d="M256 521q89 0 139.5 -49t50.5 -146v-201q0 -72 11 -125h-58q-7 34 -7 77h-2q-52 -87 -181 -87q-77 0 -124.5 41t-47.5 105q0 65 43.5 102t149.5 54q73 12 156 18v24q0 68 -35 101t-95 33q-62 0 -96 -30.5t-37 -82.5h-65q5 74 56.5 120t141.5 46zM386 219v39
q-65 -5 -148 -18q-75 -11 -105 -34t-30 -66q0 -45 31.5 -71.5t87.5 -26.5q74 0 117 45q27 28 37 55.5t10 76.5zM187 712v-88h-61v88h61zM371 712v-88h-61v88h61z" />
    <glyph glyph-name="aring" unicode="&#xe5;" horiz-adv-x="524" 
d="M256 521q89 0 139.5 -49t50.5 -146v-201q0 -72 11 -125h-58q-7 34 -7 77h-2q-52 -87 -181 -87q-77 0 -124.5 41t-47.5 105q0 65 43.5 102t149.5 54q73 12 156 18v24q0 68 -35 101t-95 33q-62 0 -96 -30.5t-37 -82.5h-65q5 74 56.5 120t141.5 46zM386 219v39
q-65 -5 -148 -18q-75 -11 -105 -34t-30 -66q0 -45 31.5 -71.5t87.5 -26.5q74 0 117 45q27 28 37 55.5t10 76.5zM249 764q40 0 68 -28.5t28 -68.5t-28 -68.5t-68 -28.5q-41 0 -69 28t-28 69q0 40 28.5 68.5t68.5 28.5zM249 726q-25 0 -42.5 -17t-17.5 -42t17.5 -42.5
t42.5 -17.5t42 17.5t17 42.5t-17 42t-42 17z" />
    <glyph glyph-name="ae" unicode="&#xe6;" horiz-adv-x="854" 
d="M600 40q57 0 93.5 30.5t47.5 80.5h64q-11 -70 -64.5 -117t-140.5 -47q-129 0 -185 121q-26 -57 -79 -89t-125 -32q-78 0 -126 42t-48 108q0 156 224 156h125v41q0 67 -34 100.5t-96 33.5q-61 0 -95.5 -31t-37.5 -82h-65q5 73 57.5 119.5t140.5 46.5q128 0 167 -98
q56 98 173 98q79 0 134 -49t72 -132q7 -38 7 -99h-368q3 -98 46.5 -149.5t112.5 -51.5zM386 219v22h-117q-90 0 -128 -25t-38 -77q0 -46 31.5 -73t87.5 -27q76 0 117 46q27 28 37 55.5t10 78.5zM596 468q-67 0 -109 -47t-46 -128h307q-4 83 -45.5 129t-106.5 46z" />
    <glyph glyph-name="ccedilla" unicode="&#xe7;" horiz-adv-x="521" 
d="M274 41q57 0 96.5 40.5t44.5 99.5h65q-6 -75 -52 -127.5t-118 -63.5l-35 -53q10 2 23 2q33 0 55.5 -19.5t22.5 -52.5q0 -36 -27 -60.5t-78 -24.5q-53 0 -100 27l15 32q37 -20 78 -20q60 0 60 44q0 20 -15 31.5t-41 11.5q-16 0 -31 -5l-16 18l44 66q-103 3 -162 74
t-59 193q0 124 61.5 195.5t168.5 71.5q86 0 142.5 -52t63.5 -136h-65q-5 59 -44 96.5t-97 37.5q-76 0 -119.5 -57t-43.5 -156q0 -100 43.5 -156.5t119.5 -56.5z" />
    <glyph glyph-name="egrave" unicode="&#xe8;" horiz-adv-x="539" 
d="M276 40q61 0 100 30.5t51 80.5h64q-13 -70 -68.5 -117t-146.5 -47q-108 0 -170 74.5t-62 201.5q0 115 61.5 186.5t166.5 71.5q85 0 141.5 -48t73.5 -133q8 -36 8 -98h-388q2 -98 49 -150t120 -52zM272 468q-70 0 -115 -47t-49 -128h327q-5 83 -49 129t-114 46zM327 571
h-59l-115 141h84z" />
    <glyph glyph-name="eacute" unicode="&#xe9;" horiz-adv-x="539" 
d="M276 40q61 0 100 30.5t51 80.5h64q-13 -70 -68.5 -117t-146.5 -47q-108 0 -170 74.5t-62 201.5q0 115 61.5 186.5t166.5 71.5q85 0 141.5 -48t73.5 -133q8 -36 8 -98h-388q2 -98 49 -150t120 -52zM272 468q-70 0 -115 -47t-49 -128h327q-5 83 -49 129t-114 46zM385 712
l-115 -141h-59l90 141h84z" />
    <glyph glyph-name="ecircumflex" unicode="&#xea;" horiz-adv-x="539" 
d="M276 40q61 0 100 30.5t51 80.5h64q-13 -70 -68.5 -117t-146.5 -47q-108 0 -170 74.5t-62 201.5q0 115 61.5 186.5t166.5 71.5q85 0 141.5 -48t73.5 -133q8 -36 8 -98h-388q2 -98 49 -150t120 -52zM272 468q-70 0 -115 -47t-49 -128h327q-5 83 -49 129t-114 46zM270 672
l-81 -101h-69l114 141h71l114 -141h-69z" />
    <glyph glyph-name="edieresis" unicode="&#xeb;" horiz-adv-x="539" 
d="M276 40q61 0 100 30.5t51 80.5h64q-13 -70 -68.5 -117t-146.5 -47q-108 0 -170 74.5t-62 201.5q0 115 61.5 186.5t166.5 71.5q85 0 141.5 -48t73.5 -133q8 -36 8 -98h-388q2 -98 49 -150t120 -52zM272 468q-70 0 -115 -47t-49 -128h327q-5 83 -49 129t-114 46zM207 712
v-88h-61v88h61zM391 712v-88h-61v88h61z" />
    <glyph glyph-name="igrave" unicode="&#xec;" horiz-adv-x="228" 
d="M145 508v-508h-62v508h62zM-2 712h84l90 -141h-59z" />
    <glyph glyph-name="iacute" unicode="&#xed;" horiz-adv-x="228" 
d="M145 508v-508h-62v508h62zM231 712l-115 -141h-59l90 141h84z" />
    <glyph glyph-name="icircumflex" unicode="&#xee;" horiz-adv-x="228" 
d="M145 508v-508h-62v508h62zM151 712l98 -140h-67l-68 101l-67 -101h-68l98 140h74z" />
    <glyph glyph-name="idieresis" unicode="&#xef;" horiz-adv-x="228" 
d="M145 508v-508h-62v508h62zM73 712v-88h-61v88h61zM217 712v-88h-61v88h61z" />
    <glyph glyph-name="eth" unicode="&#xf0;" horiz-adv-x="553" 
d="M509 254q0 -124 -62.5 -195.5t-170.5 -71.5t-170 70.5t-62 194.5q0 121 60 191t164 70q70 0 120 -45v2q-47 66 -125 135l-136 -65l-20 43l116 55q-41 33 -73 53l41 34q28 -18 84 -62l120 58l20 -43l-101 -48q95 -86 145 -174.5t50 -201.5zM276 41q79 0 124 56.5t45 154.5
t-45 154.5t-124 56.5q-78 0 -122.5 -56.5t-44.5 -154.5t44.5 -154.5t122.5 -56.5z" />
    <glyph glyph-name="ntilde" unicode="&#xf1;" 
d="M304 519q88 0 134.5 -53t46.5 -157v-309h-62v306q0 86 -33 122.5t-97 36.5q-63 0 -105.5 -43.5t-42.5 -120.5v-301h-62v508h61v-69h2q52 80 158 80zM401 703h48q-3 -51 -27.5 -78t-65.5 -27q-31 0 -76.5 26.5t-65.5 26.5q-41 0 -46 -53h-48q3 51 27.5 78t65.5 27
q31 0 76.5 -27t65.5 -27q41 0 46 54z" />
    <glyph glyph-name="ograve" unicode="&#xf2;" horiz-adv-x="552" 
d="M276 521q108 0 170 -71.5t62 -195.5t-62 -195.5t-170 -71.5t-170 71.5t-62 195.5t62 195.5t170 71.5zM276 467q-78 0 -122.5 -57t-44.5 -156t44.5 -156t122.5 -57q79 0 123.5 57t44.5 156t-44.5 156t-123.5 57zM160 712h84l90 -141h-59z" />
    <glyph glyph-name="oacute" unicode="&#xf3;" horiz-adv-x="552" 
d="M276 521q108 0 170 -71.5t62 -195.5t-62 -195.5t-170 -71.5t-170 71.5t-62 195.5t62 195.5t170 71.5zM276 467q-78 0 -122.5 -57t-44.5 -156t44.5 -156t122.5 -57q79 0 123.5 57t44.5 156t-44.5 156t-123.5 57zM392 712l-115 -141h-59l90 141h84z" />
    <glyph glyph-name="ocircumflex" unicode="&#xf4;" horiz-adv-x="552" 
d="M276 521q108 0 170 -71.5t62 -195.5t-62 -195.5t-170 -71.5t-170 71.5t-62 195.5t62 195.5t170 71.5zM276 467q-78 0 -122.5 -57t-44.5 -156t44.5 -156t122.5 -57q79 0 123.5 57t44.5 156t-44.5 156t-123.5 57zM426 571h-69l-80 101l-81 -101h-69l114 141h71z" />
    <glyph glyph-name="otilde" unicode="&#xf5;" horiz-adv-x="552" 
d="M276 521q108 0 170 -71.5t62 -195.5t-62 -195.5t-170 -71.5t-170 71.5t-62 195.5t62 195.5t170 71.5zM276 467q-78 0 -122.5 -57t-44.5 -156t44.5 -156t122.5 -57q79 0 123.5 57t44.5 156t-44.5 156t-123.5 57zM393 703h48q-3 -51 -27.5 -78t-65.5 -27q-31 0 -76.5 26.5
t-65.5 26.5q-41 0 -46 -53h-48q3 51 27.5 78t65.5 27q31 0 76.5 -27t65.5 -27q41 0 46 54z" />
    <glyph glyph-name="odieresis" unicode="&#xf6;" horiz-adv-x="552" 
d="M276 521q108 0 170 -71.5t62 -195.5t-62 -195.5t-170 -71.5t-170 71.5t-62 195.5t62 195.5t170 71.5zM276 467q-78 0 -122.5 -57t-44.5 -156t44.5 -156t122.5 -57q79 0 123.5 57t44.5 156t-44.5 156t-123.5 57zM214 712v-88h-61v88h61zM398 712v-88h-61v88h61z" />
    <glyph glyph-name="divide" unicode="&#xf7;" horiz-adv-x="566" 
d="M316 513v-72h-66v72h66zM492 345v-57h-418v57h418zM316 193v-72h-66v72h66z" />
    <glyph glyph-name="oslash" unicode="&#xf8;" horiz-adv-x="553" 
d="M467 546l39 -31l-55 -71q58 -70 58 -190q0 -124 -62.5 -195.5t-170.5 -71.5q-81 0 -139 42l-51 -66l-39 31l54 70q-57 71 -57 190q0 124 62 195.5t170 71.5q82 0 140 -43zM276 467q-78 0 -123 -57t-45 -156q0 -84 32 -137l240 314q-42 36 -104 36zM276 41q79 0 124 57
t45 156q0 86 -33 138l-239 -315q42 -36 103 -36z" />
    <glyph glyph-name="ugrave" unicode="&#xf9;" 
d="M259 -11q-88 0 -134.5 53t-46.5 157v309h62v-306q0 -86 33 -122.5t97 -36.5q63 0 105.5 43.5t42.5 120.5v301h62v-508h-61v69h-2q-23 -37 -64.5 -58.5t-93.5 -21.5zM166 712h84l90 -141h-59z" />
    <glyph glyph-name="uacute" unicode="&#xfa;" 
d="M259 -11q-88 0 -134.5 53t-46.5 157v309h62v-306q0 -86 33 -122.5t97 -36.5q63 0 105.5 43.5t42.5 120.5v301h62v-508h-61v69h-2q-23 -37 -64.5 -58.5t-93.5 -21.5zM398 712l-115 -141h-59l90 141h84z" />
    <glyph glyph-name="ucircumflex" unicode="&#xfb;" 
d="M259 -11q-88 0 -134.5 53t-46.5 157v309h62v-306q0 -86 33 -122.5t97 -36.5q63 0 105.5 43.5t42.5 120.5v301h62v-508h-61v69h-2q-23 -37 -64.5 -58.5t-93.5 -21.5zM432 571h-69l-80 101l-81 -101h-69l114 141h71z" />
    <glyph glyph-name="udieresis" unicode="&#xfc;" 
d="M259 -11q-88 0 -134.5 53t-46.5 157v309h62v-306q0 -86 33 -122.5t97 -36.5q63 0 105.5 43.5t42.5 120.5v301h62v-508h-61v69h-2q-23 -37 -64.5 -58.5t-93.5 -21.5zM220 712v-88h-61v88h61zM404 712v-88h-61v88h61z" />
    <glyph glyph-name="yacute" unicode="&#xfd;" horiz-adv-x="456" 
d="M394 508h67l-210 -532q-39 -98 -80 -131.5t-116 -33.5q-22 0 -37 4v55q15 -4 36 -4q55 0 82 25.5t59 108.5l-200 508h67l165 -429h2zM345 712l-115 -141h-59l90 141h84z" />
    <glyph glyph-name="thorn" unicode="&#xfe;" horiz-adv-x="565" 
d="M145 712v-279h2q20 40 63 64t97 24q98 0 156 -72t58 -194t-58 -194t-156 -72q-54 0 -97 24t-63 64h-2v-262h-62v897h62zM297 469q-71 0 -113 -58.5t-42 -155.5t42 -155.5t113 -58.5q73 0 116 58t43 156t-43 156t-116 58z" />
    <glyph glyph-name="ydieresis" unicode="&#xff;" horiz-adv-x="456" 
d="M394 508h67l-210 -532q-39 -98 -80 -131.5t-116 -33.5q-22 0 -37 4v55q15 -4 36 -4q55 0 82 25.5t59 108.5l-200 508h67l165 -429h2zM166 712v-88h-61v88h61zM350 712v-88h-61v88h61z" />
    <glyph glyph-name="Amacron" unicode="&#x100;" horiz-adv-x="664" 
d="M588 0l-89 230h-334l-89 -230h-70l282 712h89l281 -712h-70zM188 290h287l-28 74q-7 17 -49 126t-65 169h-2q-79 -207 -114 -295zM463 845v-52h-263v52h263z" />
    <glyph glyph-name="amacron" unicode="&#x101;" horiz-adv-x="524" 
d="M256 521q89 0 139.5 -49t50.5 -146v-201q0 -72 11 -125h-58q-7 34 -7 77h-2q-52 -87 -181 -87q-77 0 -124.5 41t-47.5 105q0 65 43.5 102t149.5 54q73 12 156 18v24q0 68 -35 101t-95 33q-62 0 -96 -30.5t-37 -82.5h-65q5 74 56.5 120t141.5 46zM386 219v39
q-65 -5 -148 -18q-75 -11 -105 -34t-30 -66q0 -45 31.5 -71.5t87.5 -26.5q74 0 117 45q27 28 37 55.5t10 76.5zM380 676v-52h-263v52h263z" />
    <glyph glyph-name="Abreve" unicode="&#x102;" horiz-adv-x="664" 
d="M588 0l-89 230h-334l-89 -230h-70l282 712h89l281 -712h-70zM188 290h287l-28 74q-7 17 -49 126t-65 169h-2q-79 -207 -114 -295zM332 756q-64 0 -102 36.5t-44 102.5h51q6 -43 30.5 -66.5t64.5 -23.5q81 0 95 90h51q-6 -66 -44 -102.5t-102 -36.5z" />
    <glyph glyph-name="abreve" unicode="&#x103;" horiz-adv-x="524" 
d="M256 521q89 0 139.5 -49t50.5 -146v-201q0 -72 11 -125h-58q-7 34 -7 77h-2q-52 -87 -181 -87q-77 0 -124.5 41t-47.5 105q0 65 43.5 102t149.5 54q73 12 156 18v24q0 68 -35 101t-95 33q-62 0 -96 -30.5t-37 -82.5h-65q5 74 56.5 120t141.5 46zM386 219v39
q-65 -5 -148 -18q-75 -11 -105 -34t-30 -66q0 -45 31.5 -71.5t87.5 -26.5q74 0 117 45q27 28 37 55.5t10 76.5zM344 712h51q-6 -66 -44 -102.5t-102 -36.5t-102 36.5t-44 102.5h51q12 -89 95 -89q81 0 95 89z" />
    <glyph glyph-name="Aogonek" unicode="&#x104;" horiz-adv-x="664" 
d="M621 -147q22 0 40 7v-44q-19 -8 -49 -8q-92 0 -92 75q0 32 18.5 58.5t59.5 58.5h-10l-89 230h-334l-89 -230h-70l282 712h89l281 -712q-80 -60 -80 -110q0 -37 43 -37zM188 290h287l-28 74q-7 17 -49 126t-65 169h-2q-79 -207 -114 -295z" />
    <glyph glyph-name="aogonek" unicode="&#x105;" horiz-adv-x="524" 
d="M420 -147q22 0 40 7v-44q-19 -8 -49 -8q-92 0 -92 75q0 32 19 59t61 59q-7 34 -7 76h-2q-52 -87 -181 -87q-77 0 -124.5 41t-47.5 105q0 65 43.5 102t149.5 54q73 12 156 18v24q0 68 -35 101t-95 33q-62 0 -96 -30.5t-37 -82.5h-65q5 74 56.5 120t141.5 46
q89 0 139.5 -49t50.5 -146v-201q0 -72 11 -125q-80 -60 -80 -110q0 -37 43 -37zM386 219v39q-65 -5 -148 -18q-75 -11 -105 -34t-30 -66q0 -45 31.5 -71.5t87.5 -26.5q74 0 117 45q27 28 37 55.5t10 76.5z" />
    <glyph glyph-name="Cacute" unicode="&#x106;" horiz-adv-x="683" 
d="M351 725q123 0 197 -70t80 -181h-68q-8 87 -64.5 138.5t-144.5 51.5q-110 0 -173.5 -82.5t-63.5 -225.5t63 -225.5t172 -82.5q87 0 145 52.5t70 141.5h68q-11 -116 -86.5 -185.5t-196.5 -69.5q-141 0 -222.5 98.5t-81.5 270.5t82 270.5t224 98.5zM467 895l-115 -135h-59
l90 135h84z" />
    <glyph glyph-name="cacute" unicode="&#x107;" horiz-adv-x="521" 
d="M274 521q86 0 142.5 -52t63.5 -136h-65q-5 59 -44 96.5t-97 37.5q-76 0 -119.5 -57t-43.5 -156q0 -100 43.5 -156.5t119.5 -56.5q57 0 96.5 40.5t44.5 99.5h65q-7 -84 -63 -139t-143 -55q-107 0 -168.5 71.5t-61.5 195.5t61.5 195.5t168.5 71.5zM390 712l-115 -141h-59
l90 141h84z" />
    <glyph glyph-name="Ccircumflex" unicode="&#x108;" horiz-adv-x="683" 
d="M351 725q123 0 197 -70t80 -181h-68q-8 87 -64.5 138.5t-144.5 51.5q-110 0 -173.5 -82.5t-63.5 -225.5t63 -225.5t172 -82.5q87 0 145 52.5t70 141.5h68q-11 -116 -86.5 -185.5t-196.5 -69.5q-141 0 -222.5 98.5t-81.5 270.5t82 270.5t224 98.5zM201 760l114 135h71
l114 -135h-69l-81 95l-80 -95h-69z" />
    <glyph glyph-name="ccircumflex" unicode="&#x109;" horiz-adv-x="521" 
d="M274 521q86 0 142.5 -52t63.5 -136h-65q-5 59 -44 96.5t-97 37.5q-76 0 -119.5 -57t-43.5 -156q0 -100 43.5 -156.5t119.5 -56.5q57 0 96.5 40.5t44.5 99.5h65q-7 -84 -63 -139t-143 -55q-107 0 -168.5 71.5t-61.5 195.5t61.5 195.5t168.5 71.5zM424 571h-69l-80 101
l-81 -101h-69l114 141h71z" />
    <glyph glyph-name="Cdotaccent" unicode="&#x10a;" horiz-adv-x="683" 
d="M351 725q123 0 197 -70t80 -181h-68q-8 87 -64.5 138.5t-144.5 51.5q-110 0 -173.5 -82.5t-63.5 -225.5t63 -225.5t172 -82.5q87 0 145 52.5t70 141.5h68q-11 -116 -86.5 -185.5t-196.5 -69.5q-141 0 -222.5 98.5t-81.5 270.5t82 270.5t224 98.5zM381 857v-88h-62v88h62z
" />
    <glyph glyph-name="cdotaccent" unicode="&#x10b;" horiz-adv-x="521" 
d="M274 521q86 0 142.5 -52t63.5 -136h-65q-5 59 -44 96.5t-97 37.5q-76 0 -119.5 -57t-43.5 -156q0 -100 43.5 -156.5t119.5 -56.5q57 0 96.5 40.5t44.5 99.5h65q-7 -84 -63 -139t-143 -55q-107 0 -168.5 71.5t-61.5 195.5t61.5 195.5t168.5 71.5zM305 712v-88h-62v88h62z
" />
    <glyph glyph-name="Ccaron" unicode="&#x10c;" horiz-adv-x="683" 
d="M351 725q123 0 197 -70t80 -181h-68q-8 87 -64.5 138.5t-144.5 51.5q-110 0 -173.5 -82.5t-63.5 -225.5t63 -225.5t172 -82.5q87 0 145 52.5t70 141.5h68q-11 -116 -86.5 -185.5t-196.5 -69.5q-141 0 -222.5 98.5t-81.5 270.5t82 270.5t224 98.5zM500 895l-114 -135h-71
l-114 135h69l81 -95l80 95h69z" />
    <glyph glyph-name="ccaron" unicode="&#x10d;" horiz-adv-x="521" 
d="M274 521q86 0 142.5 -52t63.5 -136h-65q-5 59 -44 96.5t-97 37.5q-76 0 -119.5 -57t-43.5 -156q0 -100 43.5 -156.5t119.5 -56.5q57 0 96.5 40.5t44.5 99.5h65q-7 -84 -63 -139t-143 -55q-107 0 -168.5 71.5t-61.5 195.5t61.5 195.5t168.5 71.5zM424 712l-114 -141h-71
l-114 141h69l81 -101l80 101h69z" />
    <glyph glyph-name="Dcaron" unicode="&#x10e;" horiz-adv-x="718" 
d="M101 0v712h208q174 0 269 -92.5t95 -263.5t-95 -263.5t-269 -92.5h-208zM309 653h-143v-594h143q142 0 218.5 77t76.5 220t-76.5 220t-218.5 77zM476 895l-114 -135h-71l-114 135h69l81 -95l80 95h69z" />
    <glyph glyph-name="dcaron" unicode="&#x10f;" horiz-adv-x="565" 
d="M482 712v-712h-62v77h-2q-20 -40 -63 -64t-97 -24q-98 0 -156 72t-58 194t58 194t156 72q54 0 97 -24t63 -64h2v279h62zM268 469q-73 0 -116 -58t-43 -156t43 -156t116 -58q71 0 113 58.5t42 155.5t-42 155.5t-113 58.5zM614 712l-54 -176h-41l31 176h64z" />
    <glyph glyph-name="Dcroat" unicode="&#x110;" horiz-adv-x="718" 
d="M101 388v324h208q174 0 269 -92.5t95 -263.5t-95 -263.5t-269 -92.5h-208v333h-66v55h66zM166 333v-274h143q142 0 218.5 77t76.5 220t-76.5 220t-218.5 77h-143v-265h220v-55h-220z" />
    <glyph glyph-name="dcroat" unicode="&#x111;" horiz-adv-x="560" 
d="M546 629v-46h-64v-583h-62v77h-2q-20 -40 -63 -64t-97 -24q-98 0 -156 72t-58 194t58 194t156 72q54 0 97 -24t63 -64h2v150h-137v46h137v83h62v-83h64zM268 41q71 0 113 58.5t42 155.5t-42 155.5t-113 58.5q-73 0 -116 -58t-43 -156t43 -156t116 -58z" />
    <glyph glyph-name="Emacron" unicode="&#x112;" horiz-adv-x="610" 
d="M544 712v-59h-378v-258h359v-59h-359v-277h390v-59h-455v712h443zM453 845v-52h-263v52h263z" />
    <glyph glyph-name="emacron" unicode="&#x113;" horiz-adv-x="539" 
d="M276 40q61 0 100 30.5t51 80.5h64q-13 -70 -68.5 -117t-146.5 -47q-108 0 -170 74.5t-62 201.5q0 115 61.5 186.5t166.5 71.5q85 0 141.5 -48t73.5 -133q8 -36 8 -98h-388q2 -98 49 -150t120 -52zM272 468q-70 0 -115 -47t-49 -128h327q-5 83 -49 129t-114 46zM400 676
v-52h-263v52h263z" />
    <glyph glyph-name="Ebreve" unicode="&#x114;" horiz-adv-x="610" 
d="M544 712v-59h-378v-258h359v-59h-359v-277h390v-59h-455v712h443zM417 895h51q-6 -66 -44 -102.5t-102 -36.5t-102 36.5t-44 102.5h51q6 -43 30.5 -66.5t64.5 -23.5q81 0 95 90z" />
    <glyph glyph-name="ebreve" unicode="&#x115;" horiz-adv-x="539" 
d="M276 40q61 0 100 30.5t51 80.5h64q-13 -70 -68.5 -117t-146.5 -47q-108 0 -170 74.5t-62 201.5q0 115 61.5 186.5t166.5 71.5q85 0 141.5 -48t73.5 -133q8 -36 8 -98h-388q2 -98 49 -150t120 -52zM272 468q-70 0 -115 -47t-49 -128h327q-5 83 -49 129t-114 46zM269 573
q-64 0 -102 36.5t-44 102.5h51q12 -89 95 -89q81 0 95 89h51q-6 -66 -44 -102.5t-102 -36.5z" />
    <glyph glyph-name="Edotaccent" unicode="&#x116;" horiz-adv-x="610" 
d="M544 712v-59h-378v-258h359v-59h-359v-277h390v-59h-455v712h443zM353 857v-88h-62v88h62z" />
    <glyph glyph-name="edotaccent" unicode="&#x117;" horiz-adv-x="539" 
d="M276 40q61 0 100 30.5t51 80.5h64q-13 -70 -68.5 -117t-146.5 -47q-108 0 -170 74.5t-62 201.5q0 115 61.5 186.5t166.5 71.5q85 0 141.5 -48t73.5 -133q8 -36 8 -98h-388q2 -98 49 -150t120 -52zM272 468q-70 0 -115 -47t-49 -128h327q-5 83 -49 129t-114 46zM300 712
v-88h-62v88h62z" />
    <glyph glyph-name="Eogonek" unicode="&#x118;" horiz-adv-x="610" 
d="M519 -147q22 0 40 7v-44q-19 -8 -49 -8q-92 0 -92 75q0 32 18.5 58.5t59.5 58.5h-395v712h443v-59h-378v-258h359v-59h-359v-277h390v-59q-80 -60 -80 -110q0 -37 43 -37z" />
    <glyph glyph-name="eogonek" unicode="&#x119;" horiz-adv-x="539" 
d="M276 40q61 0 100 30.5t51 80.5h64q-13 -72 -77 -127q-48 -42 -66.5 -70.5t-18.5 -59.5q0 -41 43 -41q22 0 40 7v-44q-21 -8 -49 -8q-92 0 -92 75q0 55 52 107v2q-25 -5 -47 -5q-108 0 -170 74.5t-62 201.5q0 115 61.5 186.5t166.5 71.5q85 0 141.5 -48t73.5 -133
q8 -36 8 -98h-388q2 -98 49 -150t120 -52zM272 468q-70 0 -115 -47t-49 -128h327q-5 83 -49 129t-114 46z" />
    <glyph glyph-name="Ecaron" unicode="&#x11a;" horiz-adv-x="610" 
d="M544 712v-59h-378v-258h359v-59h-359v-277h390v-59h-455v712h443zM472 895l-114 -135h-71l-114 135h69l81 -95l80 95h69z" />
    <glyph glyph-name="ecaron" unicode="&#x11b;" horiz-adv-x="539" 
d="M276 40q61 0 100 30.5t51 80.5h64q-13 -70 -68.5 -117t-146.5 -47q-108 0 -170 74.5t-62 201.5q0 115 61.5 186.5t166.5 71.5q85 0 141.5 -48t73.5 -133q8 -36 8 -98h-388q2 -98 49 -150t120 -52zM272 468q-70 0 -115 -47t-49 -128h327q-5 83 -49 129t-114 46zM305 571
h-71l-114 141h69l81 -101l80 101h69z" />
    <glyph glyph-name="Gcircumflex" unicode="&#x11c;" horiz-adv-x="724" 
d="M360 725q117 0 192 -60.5t84 -162.5h-68q-13 77 -67 119.5t-141 42.5q-115 0 -180.5 -83t-65.5 -227q0 -143 63 -224.5t173 -81.5q101 0 162.5 63.5t61.5 201.5h-209v59h272v-372h-61v109h-2q-27 -55 -90 -88t-141 -33q-137 0 -217.5 98t-80.5 268q0 172 84.5 271.5
t230.5 99.5zM206 760l114 135h71l114 -135h-69l-81 95l-80 -95h-69z" />
    <glyph glyph-name="gcircumflex" unicode="&#x11d;" horiz-adv-x="565" 
d="M262 521q104 0 156 -89h2v76h62v-477q0 -110 -54 -166.5t-159 -56.5q-95 0 -149 42.5t-55 117.5h63q1 -51 39 -79.5t102 -28.5q77 0 114 42.5t37 131.5v60h-2q-53 -89 -156 -89q-100 0 -159 70.5t-59 187.5t59 187.5t159 70.5zM264 468q-71 0 -113 -56t-42 -149t42 -149
t113 -56q74 0 116.5 55t42.5 150t-42.5 150t-116.5 55zM423 571h-69l-80 101l-81 -101h-69l114 141h71z" />
    <glyph glyph-name="Gbreve" unicode="&#x11e;" horiz-adv-x="724" 
d="M360 725q117 0 192 -60.5t84 -162.5h-68q-13 77 -67 119.5t-141 42.5q-115 0 -180.5 -83t-65.5 -227q0 -143 63 -224.5t173 -81.5q101 0 162.5 63.5t61.5 201.5h-209v59h272v-372h-61v109h-2q-27 -55 -90 -88t-141 -33q-137 0 -217.5 98t-80.5 268q0 172 84.5 271.5
t230.5 99.5zM451 895h51q-6 -66 -44 -102.5t-102 -36.5t-102 36.5t-44 102.5h51q6 -43 30.5 -66.5t64.5 -23.5q81 0 95 90z" />
    <glyph glyph-name="gbreve" unicode="&#x11f;" horiz-adv-x="565" 
d="M262 521q104 0 156 -89h2v76h62v-477q0 -110 -54 -166.5t-159 -56.5q-95 0 -149 42.5t-55 117.5h63q1 -51 39 -79.5t102 -28.5q77 0 114 42.5t37 131.5v60h-2q-53 -89 -156 -89q-100 0 -159 70.5t-59 187.5t59 187.5t159 70.5zM264 468q-71 0 -113 -56t-42 -149t42 -149
t113 -56q74 0 116.5 55t42.5 150t-42.5 150t-116.5 55zM368 712h51q-6 -66 -44 -102.5t-102 -36.5t-102 36.5t-44 102.5h51q12 -89 95 -89q81 0 95 89z" />
    <glyph glyph-name="Gdotaccent" unicode="&#x120;" horiz-adv-x="724" 
d="M360 725q117 0 192 -60.5t84 -162.5h-68q-13 77 -67 119.5t-141 42.5q-115 0 -180.5 -83t-65.5 -227q0 -143 63 -224.5t173 -81.5q101 0 162.5 63.5t61.5 201.5h-209v59h272v-372h-61v109h-2q-27 -55 -90 -88t-141 -33q-137 0 -217.5 98t-80.5 268q0 172 84.5 271.5
t230.5 99.5zM386 857v-88h-62v88h62z" />
    <glyph glyph-name="gdotaccent" unicode="&#x121;" horiz-adv-x="565" 
d="M262 521q104 0 156 -89h2v76h62v-477q0 -110 -54 -166.5t-159 -56.5q-95 0 -149 42.5t-55 117.5h63q1 -51 39 -79.5t102 -28.5q77 0 114 42.5t37 131.5v60h-2q-53 -89 -156 -89q-100 0 -159 70.5t-59 187.5t59 187.5t159 70.5zM264 468q-71 0 -113 -56t-42 -149t42 -149
t113 -56q74 0 116.5 55t42.5 150t-42.5 150t-116.5 55zM304 712v-88h-62v88h62z" />
    <glyph glyph-name="Gcommaaccent" unicode="&#x122;" horiz-adv-x="724" 
d="M360 725q117 0 192 -60.5t84 -162.5h-68q-13 77 -67 119.5t-141 42.5q-115 0 -180.5 -83t-65.5 -227q0 -143 63 -224.5t173 -81.5q101 0 162.5 63.5t61.5 201.5h-209v59h272v-372h-61v109h-2q-27 -55 -90 -88t-141 -33q-137 0 -217.5 98t-80.5 268q0 172 84.5 271.5
t230.5 99.5zM391 -68v-81l-49 -102h-29l35 102h-28v81h71z" />
    <glyph glyph-name="gcommaaccent" unicode="&#x123;" horiz-adv-x="565" 
d="M262 521q104 0 156 -89h2v76h62v-477q0 -110 -54 -166.5t-159 -56.5q-95 0 -149 42.5t-55 117.5h63q1 -51 39 -79.5t102 -28.5q77 0 114 42.5t37 131.5v60h-2q-53 -89 -156 -89q-100 0 -159 70.5t-59 187.5t59 187.5t159 70.5zM264 468q-71 0 -113 -56t-42 -149t42 -149
t113 -56q74 0 116.5 55t42.5 150t-42.5 150t-116.5 55zM312 769l-35 -102h28v-81h-71v81l49 102h29z" />
    <glyph glyph-name="Hcircumflex" unicode="&#x124;" horiz-adv-x="731" 
d="M630 712v-712h-65v340h-399v-340h-65v712h65v-313h399v313h65zM216 760l114 135h71l114 -135h-69l-81 95l-80 -95h-69z" />
    <glyph glyph-name="hcircumflex" unicode="&#x125;" 
d="M145 712v-272h2q51 79 157 79q88 0 134.5 -53t46.5 -157v-309h-62v306q0 86 -33 122.5t-97 36.5q-63 0 -105.5 -43.5t-42.5 -120.5v-301h-62v712h62zM133 760l114 135h71l114 -135h-69l-81 95l-80 -95h-69z" />
    <glyph glyph-name="Hbar" unicode="&#x126;" horiz-adv-x="731" 
d="M690 629v-53h-60v-576h-65v340h-399v-340h-65v576h-60v53h60v83h65v-83h399v83h65v-83h60zM565 399v177h-399v-177h399z" />
    <glyph glyph-name="hbar" unicode="&#x127;" 
d="M304 519q88 0 134.5 -53t46.5 -157v-309h-62v306q0 86 -33 122.5t-97 36.5q-63 0 -105.5 -43.5t-42.5 -120.5v-301h-62v583h-69v46h69v83h62v-83h132v-46h-132v-143h2q51 79 157 79z" />
    <glyph glyph-name="Itilde" unicode="&#x128;" horiz-adv-x="267" 
d="M166 712v-712h-65v712h65zM250 885h48q-3 -51 -27.5 -78t-65.5 -27q-31 0 -76.5 27t-65.5 27q-41 0 -46 -54h-48q3 51 27.5 78t65.5 27q31 0 76.5 -26.5t65.5 -26.5q41 0 46 53z" />
    <glyph glyph-name="itilde" unicode="&#x129;" horiz-adv-x="228" 
d="M145 508v-508h-62v508h62zM214 703h44q-2 -50 -25 -77.5t-61 -27.5q-27 0 -63.5 27t-53.5 27q-36 0 -41 -54h-44q2 51 24.5 78t60.5 27q28 0 64 -27.5t53 -27.5q37 0 42 55z" />
    <glyph glyph-name="Imacron" unicode="&#x12a;" horiz-adv-x="267" 
d="M166 712v-712h-65v712h65zM264 845v-52h-263v52h263z" />
    <glyph glyph-name="imacron" unicode="&#x12b;" horiz-adv-x="228" 
d="M145 508v-508h-62v508h62zM235 676v-51h-242v51h242z" />
    <glyph glyph-name="Ibreve" unicode="&#x12c;" horiz-adv-x="267" 
d="M166 712v-712h-65v712h65zM229 895h51q-6 -66 -44 -102.5t-102 -36.5t-102 36.5t-44 102.5h51q6 -43 30.5 -66.5t64.5 -23.5q81 0 95 90z" />
    <glyph glyph-name="ibreve" unicode="&#x12d;" horiz-adv-x="228" 
d="M145 508v-508h-62v508h62zM193 712h51q-2 -66 -35.5 -102.5t-93.5 -36.5t-93.5 36.5t-35.5 102.5h50q6 -90 79 -90t78 90z" />
    <glyph glyph-name="Iogonek" unicode="&#x12e;" horiz-adv-x="267" 
d="M129 -147q22 0 40 7v-44q-19 -8 -49 -8q-92 0 -92 75q0 32 18.5 58.5t59.5 58.5h-5v712h65v-712q-80 -60 -80 -110q0 -37 43 -37z" />
    <glyph glyph-name="iogonek" unicode="&#x12f;" horiz-adv-x="228" 
d="M108 -147q22 0 40 7v-44q-19 -8 -49 -8q-92 0 -92 75q0 32 18.5 58.5t59.5 58.5h-2v508h62v-508q-80 -60 -80 -110q0 -37 43 -37zM145 712v-88h-62v88h62z" />
    <glyph glyph-name="Idotaccent" unicode="&#x130;" horiz-adv-x="267" 
d="M166 712v-712h-65v712h65zM164 857v-88h-62v88h62z" />
    <glyph glyph-name="dotlessi" unicode="&#x131;" horiz-adv-x="228" 
d="M145 508v-508h-62v508h62z" />
    <glyph glyph-name="IJ" unicode="&#x132;" horiz-adv-x="604" 
d="M166 712v-712h-65v712h65zM443 712h66v-519q0 -98 -48 -147.5t-137 -49.5q-24 0 -42 5v60q21 -4 41 -4q120 0 120 138v517z" />
    <glyph glyph-name="ij" unicode="&#x133;" horiz-adv-x="463" 
d="M145 508v-508h-62v508h62zM318 508h62v-545q0 -152 -133 -152q-19 0 -36 4v54q17 -3 30 -3q38 0 57.5 22.5t19.5 75.5v544zM145 712v-88h-62v88h62zM380 712v-88h-62v88h62z" />
    <glyph glyph-name="Jcircumflex" unicode="&#x134;" horiz-adv-x="337" 
d="M176 712h66v-519q0 -98 -48 -147.5t-137 -49.5q-24 0 -42 5v60q21 -4 41 -4q120 0 120 138v517zM60 760l114 135h71l114 -135h-69l-81 95l-80 -95h-69z" />
    <glyph glyph-name="jcircumflex" unicode="&#x135;" horiz-adv-x="235" 
d="M90 508h62v-545q0 -152 -133 -152q-19 0 -36 4v54q17 -3 30 -3q38 0 57.5 22.5t19.5 75.5v544zM158 712l98 -140h-67l-68 101l-67 -101h-68l98 140h74z" />
    <glyph glyph-name="Kcommaaccent" unicode="&#x136;" horiz-adv-x="607" 
d="M570 712l-331 -340l363 -372h-91l-343 357h-2v-357h-65v712h65v-325h2l314 325h88zM361 -68v-81l-49 -102h-29l35 102h-28v81h71z" />
    <glyph glyph-name="kcommaaccent" unicode="&#x137;" horiz-adv-x="479" 
d="M211 280l275 -280h-86l-253 262h-2v-262h-62v712h62v-417h2l226 213h84zM230 -149v81h71v-81l-49 -102h-29l35 102h-28z" />
    <glyph glyph-name="kgreenlandic" unicode="&#x138;" horiz-adv-x="496" 
d="M211 280l275 -280h-86l-253 262h-2v-262h-62v508h62v-213h2l226 213h84z" />
    <glyph glyph-name="Lacute" unicode="&#x139;" horiz-adv-x="553" 
d="M166 712v-653h377v-59h-442v712h65zM282 895l-115 -135h-59l90 135h84z" />
    <glyph glyph-name="lacute" unicode="&#x13a;" horiz-adv-x="228" 
d="M145 712v-712h-62v712h62zM252 916l-115 -141h-59l90 141h84z" />
    <glyph glyph-name="Lcommaaccent" unicode="&#x13b;" horiz-adv-x="553" 
d="M166 712v-653h377v-59h-442v712h65zM358 -68v-81l-49 -102h-29l35 102h-28v81h71z" />
    <glyph glyph-name="lcommaaccent" unicode="&#x13c;" horiz-adv-x="228" 
d="M145 712v-712h-62v712h62zM150 -68v-81l-49 -102h-29l35 102h-28v81h71z" />
    <glyph glyph-name="Lcaron" unicode="&#x13d;" horiz-adv-x="553" 
d="M166 712v-653h377v-59h-442v712h65zM329 712l-54 -215h-41l31 215h64z" />
    <glyph glyph-name="lcaron" unicode="&#x13e;" horiz-adv-x="228" 
d="M145 712v-712h-62v712h62zM279 712l-54 -176h-41l31 176h64z" />
    <glyph glyph-name="Ldot" unicode="&#x13f;" horiz-adv-x="633" 
d="M166 712v-653h377v-59h-442v712h65zM493 449v-92h-86v92h86z" />
    <glyph glyph-name="ldot" unicode="&#x140;" horiz-adv-x="356" 
d="M145 712v-712h-62v712h62zM335 402v-92h-86v92h86z" />
    <glyph glyph-name="Lslash" unicode="&#x141;" horiz-adv-x="553" 
d="M166 59h377v-59h-442v316l-84 -50v63l84 50v333h65v-301l152 91v-63l-152 -91v-289z" />
    <glyph glyph-name="lslash" unicode="&#x142;" horiz-adv-x="262" 
d="M252 507v-59l-90 -53v-395h-62v363l-90 -53v59l90 53v290h62v-258z" />
    <glyph glyph-name="Nacute" unicode="&#x143;" horiz-adv-x="745" 
d="M644 712v-712h-99l-185 316q-35 60 -99.5 170.5t-93.5 160.5h-2q0 -59 0.5 -178t0.5 -178v-291h-65v712h99l185 -316q35 -60 99.5 -170.5t93.5 -160.5h2q-1 119 -1 356v291h65zM489 895l-115 -135h-59l90 135h84z" />
    <glyph glyph-name="nacute" unicode="&#x144;" 
d="M304 519q88 0 134.5 -53t46.5 -157v-309h-62v306q0 86 -33 122.5t-97 36.5q-63 0 -105.5 -43.5t-42.5 -120.5v-301h-62v508h61v-69h2q52 80 158 80zM400 712l-115 -141h-59l90 141h84z" />
    <glyph glyph-name="Ncommaaccent" unicode="&#x145;" horiz-adv-x="745" 
d="M644 712v-712h-99l-185 316q-35 60 -99.5 170.5t-93.5 160.5h-2q0 -59 0.5 -178t0.5 -178v-291h-65v712h99l185 -316q35 -60 99.5 -170.5t93.5 -160.5h2q-1 119 -1 356v291h65zM409 -68v-81l-49 -102h-29l35 102h-28v81h71z" />
    <glyph glyph-name="ncommaaccent" unicode="&#x146;" 
d="M304 519q88 0 134.5 -53t46.5 -157v-309h-62v306q0 86 -33 122.5t-97 36.5q-63 0 -105.5 -43.5t-42.5 -120.5v-301h-62v508h61v-69h2q52 80 158 80zM320 -68v-81l-49 -102h-29l35 102h-28v81h71z" />
    <glyph glyph-name="Ncaron" unicode="&#x147;" horiz-adv-x="745" 
d="M644 712v-712h-99l-185 316q-35 60 -99.5 170.5t-93.5 160.5h-2q0 -59 0.5 -178t0.5 -178v-291h-65v712h99l185 -316q35 -60 99.5 -170.5t93.5 -160.5h2q-1 119 -1 356v291h65zM522 895l-114 -135h-71l-114 135h69l81 -95l80 95h69z" />
    <glyph glyph-name="ncaron" unicode="&#x148;" 
d="M304 519q88 0 134.5 -53t46.5 -157v-309h-62v306q0 86 -33 122.5t-97 36.5q-63 0 -105.5 -43.5t-42.5 -120.5v-301h-62v508h61v-69h2q52 80 158 80zM434 712l-114 -141h-71l-114 141h69l81 -101l80 101h69z" />
    <glyph glyph-name="napostrophe" unicode="&#x149;" horiz-adv-x="666" 
d="M407 519q88 0 134.5 -53t46.5 -157v-309h-62v306q0 86 -33 122.5t-97 36.5q-63 0 -105.5 -43.5t-42.5 -120.5v-301h-62v508h62v-69h2q23 37 64.5 58.5t92.5 21.5zM156 712v-90l-40 -128h-44l29 128h-29v90h84z" />
    <glyph glyph-name="Eng" unicode="&#x14a;" horiz-adv-x="743" 
d="M578 712h64v-759q0 -142 -135 -142q-20 0 -36 4v54q17 -3 30 -3q39 0 58 20t19 68v46l-411 645h-2q0 -57 0.5 -173t0.5 -173v-299h-65v712h97l180 -284q22 -35 62.5 -98t73.5 -115t62 -99h2v596z" />
    <glyph glyph-name="eng" unicode="&#x14b;" 
d="M304 519q83 0 132 -51q27 -29 38 -67.5t11 -101.5v-346q0 -142 -132 -142q-20 0 -36 4v54q15 -3 29 -3q39 0 58 20.5t19 68.5v340q0 81 -27 126t-103 45q-62 0 -105 -44t-43 -121v-301h-62v508h62v-69h2q51 80 157 80z" />
    <glyph glyph-name="Omacron" unicode="&#x14c;" horiz-adv-x="724" 
d="M362 725q145 0 230.5 -100t85.5 -269t-85.5 -269t-230.5 -100t-231 100t-86 269t86 269t231 100zM362 664q-114 0 -181 -83.5t-67 -224.5t67 -224.5t181 -83.5q113 0 180.5 83.5t67.5 224.5t-67.5 224.5t-180.5 83.5zM493 845v-52h-263v52h263z" />
    <glyph glyph-name="omacron" unicode="&#x14d;" horiz-adv-x="552" 
d="M276 521q108 0 170 -71.5t62 -195.5t-62 -195.5t-170 -71.5t-170 71.5t-62 195.5t62 195.5t170 71.5zM276 467q-78 0 -122.5 -57t-44.5 -156t44.5 -156t122.5 -57q79 0 123.5 57t44.5 156t-44.5 156t-123.5 57zM407 676v-52h-263v52h263z" />
    <glyph glyph-name="Obreve" unicode="&#x14e;" horiz-adv-x="724" 
d="M362 725q145 0 230.5 -100t85.5 -269t-85.5 -269t-230.5 -100t-231 100t-86 269t86 269t231 100zM362 664q-114 0 -181 -83.5t-67 -224.5t67 -224.5t181 -83.5q113 0 180.5 83.5t67.5 224.5t-67.5 224.5t-180.5 83.5zM457 895h51q-6 -66 -44 -102.5t-102 -36.5t-102 36.5
t-44 102.5h51q6 -43 30.5 -66.5t64.5 -23.5q81 0 95 90z" />
    <glyph glyph-name="obreve" unicode="&#x14f;" horiz-adv-x="552" 
d="M276 521q108 0 170 -71.5t62 -195.5t-62 -195.5t-170 -71.5t-170 71.5t-62 195.5t62 195.5t170 71.5zM276 467q-78 0 -122.5 -57t-44.5 -156t44.5 -156t122.5 -57q79 0 123.5 57t44.5 156t-44.5 156t-123.5 57zM371 712h51q-6 -66 -44 -102.5t-102 -36.5t-102 36.5
t-44 102.5h51q12 -89 95 -89q81 0 95 89z" />
    <glyph glyph-name="Ohungarumlaut" unicode="&#x150;" horiz-adv-x="724" 
d="M362 725q145 0 230.5 -100t85.5 -269t-85.5 -269t-230.5 -100t-231 100t-86 269t86 269t231 100zM362 664q-114 0 -181 -83.5t-67 -224.5t67 -224.5t181 -83.5q113 0 180.5 83.5t67.5 224.5t-67.5 224.5t-180.5 83.5zM429 895l-134 -142h-56l110 142h80zM574 895
l-134 -142h-56l110 142h80z" />
    <glyph glyph-name="ohungarumlaut" unicode="&#x151;" horiz-adv-x="552" 
d="M276 521q108 0 170 -71.5t62 -195.5t-62 -195.5t-170 -71.5t-170 71.5t-62 195.5t62 195.5t170 71.5zM276 467q-78 0 -122.5 -57t-44.5 -156t44.5 -156t122.5 -57q79 0 123.5 57t44.5 156t-44.5 156t-123.5 57zM345 712l-134 -141h-56l110 141h80zM490 712l-134 -141h-56
l110 141h80z" />
    <glyph glyph-name="OE" unicode="&#x152;" horiz-adv-x="989" 
d="M922 712v-59h-377v-258h358v-59h-358v-277h389v-59h-530q-172 0 -265.5 92.5t-93.5 263.5t93.5 263.5t265.5 92.5h518zM479 59v594h-75q-140 0 -215 -77t-75 -220t75 -220t215 -77h75z" />
    <glyph glyph-name="oe" unicode="&#x153;" horiz-adv-x="882" 
d="M628 40q58 0 94.5 30.5t46.5 80.5h64q-11 -70 -64.5 -117t-140.5 -47q-131 0 -185 125q-52 -125 -182 -125q-101 0 -159 71.5t-58 195.5t58 195.5t159 71.5q129 0 181 -122q25 58 71.5 90t110.5 32q79 0 134 -49t72 -132q8 -43 8 -98h-369q2 -98 46 -150t113 -52zM261 41
q71 0 112.5 57t41.5 156t-41.5 156t-112.5 57t-111.5 -57t-40.5 -156t40.5 -156t111.5 -57zM624 468q-67 0 -109 -47t-46 -128h307q-4 83 -45 129t-107 46z" />
    <glyph glyph-name="Racute" unicode="&#x154;" horiz-adv-x="627" 
d="M101 0v712h209q123 0 183.5 -49t60.5 -141q0 -69 -38 -117.5t-100 -61.5v-2q39 -12 60.5 -39.5t45.5 -93.5l75 -208h-71l-68 198q-23 66 -54 91t-91 25h-147v-314h-65zM309 653h-143v-280h148q87 0 130.5 40.5t42.5 107.5q0 132 -178 132zM427 895l-115 -135h-59l90 135
h84z" />
    <glyph glyph-name="racute" unicode="&#x155;" horiz-adv-x="347" 
d="M301 512q19 0 34 -3v-59q-16 2 -32 2q-76 0 -117 -48t-41 -136v-268h-62v508h61v-80h2q52 84 155 84zM322 712l-115 -141h-59l90 141h84z" />
    <glyph glyph-name="Rcommaaccent" unicode="&#x156;" horiz-adv-x="627" 
d="M101 0v712h209q123 0 183.5 -49t60.5 -141q0 -69 -38 -117.5t-100 -61.5v-2q39 -12 60.5 -39.5t45.5 -93.5l75 -208h-71l-68 198q-23 66 -54 91t-91 25h-147v-314h-65zM309 653h-143v-280h148q87 0 130.5 40.5t42.5 107.5q0 132 -178 132zM372 -68v-81l-49 -102h-29
l35 102h-28v81h71z" />
    <glyph glyph-name="rcommaaccent" unicode="&#x157;" horiz-adv-x="347" 
d="M301 512q19 0 34 -3v-59q-16 2 -32 2q-76 0 -117 -48t-41 -136v-268h-62v508h61v-80h2q52 84 155 84zM150 -68v-81l-49 -102h-29l35 102h-28v81h71z" />
    <glyph glyph-name="Rcaron" unicode="&#x158;" horiz-adv-x="627" 
d="M101 0v712h209q123 0 183.5 -49t60.5 -141q0 -69 -38 -117.5t-100 -61.5v-2q39 -12 60.5 -39.5t45.5 -93.5l75 -208h-71l-68 198q-23 66 -54 91t-91 25h-147v-314h-65zM309 653h-143v-280h148q87 0 130.5 40.5t42.5 107.5q0 132 -178 132zM460 895l-114 -135h-71
l-114 135h69l81 -95l80 95h69z" />
    <glyph glyph-name="rcaron" unicode="&#x159;" horiz-adv-x="347" 
d="M301 512q19 0 34 -3v-59q-16 2 -32 2q-76 0 -117 -48t-41 -136v-268h-62v508h61v-80h2q52 84 155 84zM356 712l-114 -141h-71l-114 141h69l81 -101l80 101h69z" />
    <glyph glyph-name="Sacute" unicode="&#x15a;" horiz-adv-x="599" 
d="M282 725q248 0 248 -234h-66q0 175 -182 175q-75 0 -116 -34.5t-41 -94.5t40.5 -87.5t139.5 -51.5q48 -12 77.5 -21t63.5 -25.5t53 -37t31.5 -52t12.5 -72.5q0 -93 -65.5 -148t-177.5 -55q-122 0 -188.5 64t-66.5 186h65q0 -97 50 -143.5t140 -46.5q86 0 131.5 37
t45.5 105q0 61 -42 89t-146 54q-60 15 -95.5 28t-69.5 35.5t-49.5 57t-15.5 83.5q0 85 60 137t163 52zM398 895l-115 -135h-59l90 135h84z" />
    <glyph glyph-name="sacute" unicode="&#x15b;" horiz-adv-x="479" 
d="M230 521q90 0 140 -45.5t51 -128.5h-62q0 57 -34 88.5t-95 31.5q-52 0 -83.5 -23t-31.5 -61q0 -43 25.5 -58t102.5 -33q30 -7 41.5 -9.5t37.5 -10.5t37.5 -14.5t29.5 -19t26 -26t14.5 -33.5t6.5 -44q0 -66 -52 -107t-138 -41q-96 0 -150 48t-55 136h63q0 -62 37 -96
t105 -34q57 0 92.5 25t35.5 65q0 47 -30.5 65t-120.5 39q-28 7 -37 9t-33 9.5t-33.5 13t-25.5 17t-23 23.5t-12.5 30.5t-5.5 40.5q0 64 49.5 103.5t127.5 39.5zM346 712l-115 -141h-59l90 141h84z" />
    <glyph glyph-name="Scircumflex" unicode="&#x15c;" horiz-adv-x="599" 
d="M282 725q248 0 248 -234h-66q0 175 -182 175q-75 0 -116 -34.5t-41 -94.5t40.5 -87.5t139.5 -51.5q48 -12 77.5 -21t63.5 -25.5t53 -37t31.5 -52t12.5 -72.5q0 -93 -65.5 -148t-177.5 -55q-122 0 -188.5 64t-66.5 186h65q0 -97 50 -143.5t140 -46.5q86 0 131.5 37
t45.5 105q0 61 -42 89t-146 54q-60 15 -95.5 28t-69.5 35.5t-49.5 57t-15.5 83.5q0 85 60 137t163 52zM133 760l114 135h71l114 -135h-69l-81 95l-80 -95h-69z" />
    <glyph glyph-name="scircumflex" unicode="&#x15d;" horiz-adv-x="479" 
d="M230 521q90 0 140 -45.5t51 -128.5h-62q0 57 -34 88.5t-95 31.5q-52 0 -83.5 -23t-31.5 -61q0 -43 25.5 -58t102.5 -33q30 -7 41.5 -9.5t37.5 -10.5t37.5 -14.5t29.5 -19t26 -26t14.5 -33.5t6.5 -44q0 -66 -52 -107t-138 -41q-96 0 -150 48t-55 136h63q0 -62 37 -96
t105 -34q57 0 92.5 25t35.5 65q0 47 -30.5 65t-120.5 39q-28 7 -37 9t-33 9.5t-33.5 13t-25.5 17t-23 23.5t-12.5 30.5t-5.5 40.5q0 64 49.5 103.5t127.5 39.5zM379 571h-69l-80 101l-81 -101h-69l114 141h71z" />
    <glyph glyph-name="Scedilla" unicode="&#x15e;" horiz-adv-x="599" 
d="M543 190q0 -85 -55.5 -139t-152.5 -62l-34 -52q10 2 23 2q33 0 55.5 -19.5t22.5 -52.5q0 -36 -27 -60.5t-78 -24.5q-53 0 -100 27l15 32q37 -20 78 -20q60 0 60 44q0 20 -15 31.5t-41 11.5q-16 0 -31 -5l-16 18l44 66q-118 2 -182 66t-64 184h65q0 -97 50 -143.5
t140 -46.5q86 0 131.5 37t45.5 105q0 61 -42 89t-146 54q-60 15 -95.5 28t-69.5 35.5t-49.5 57t-15.5 83.5q0 85 60 137t163 52q248 0 248 -234h-66q0 175 -182 175q-75 0 -116 -34.5t-41 -94.5t40.5 -87.5t139.5 -51.5q48 -12 77.5 -21t63.5 -25.5t53 -37t31.5 -52
t12.5 -72.5z" />
    <glyph glyph-name="scedilla" unicode="&#x15f;" horiz-adv-x="479" 
d="M436 135q0 -59 -41.5 -98.5t-112.5 -47.5l-35 -52q10 2 23 2q33 0 55.5 -19.5t22.5 -52.5q0 -36 -27 -60.5t-78 -24.5q-53 0 -100 27l15 32q37 -20 78 -20q60 0 60 44q0 20 -15 31.5t-41 11.5q-16 0 -31 -5l-16 18l44 66q-92 2 -143.5 50t-52.5 134h63q0 -62 37 -96
t105 -34q57 0 92.5 25t35.5 65q0 47 -30.5 65t-120.5 39q-28 7 -37 9t-33 9.5t-33.5 13t-25.5 17t-23 23.5t-12.5 30.5t-5.5 40.5q0 64 49.5 103.5t127.5 39.5q90 0 140 -45.5t51 -128.5h-62q0 57 -34 88.5t-95 31.5q-52 0 -83.5 -23t-31.5 -61q0 -43 25.5 -58t102.5 -33
q30 -7 41.5 -9.5t37.5 -10.5t37.5 -14.5t29.5 -19t26 -26t14.5 -33.5t6.5 -44z" />
    <glyph glyph-name="Scaron" unicode="&#x160;" horiz-adv-x="599" 
d="M282 725q248 0 248 -234h-66q0 175 -182 175q-75 0 -116 -34.5t-41 -94.5t40.5 -87.5t139.5 -51.5q48 -12 77.5 -21t63.5 -25.5t53 -37t31.5 -52t12.5 -72.5q0 -93 -65.5 -148t-177.5 -55q-122 0 -188.5 64t-66.5 186h65q0 -97 50 -143.5t140 -46.5q86 0 131.5 37
t45.5 105q0 61 -42 89t-146 54q-60 15 -95.5 28t-69.5 35.5t-49.5 57t-15.5 83.5q0 85 60 137t163 52zM432 895l-114 -135h-71l-114 135h69l81 -95l80 95h69z" />
    <glyph glyph-name="scaron" unicode="&#x161;" horiz-adv-x="479" 
d="M230 521q90 0 140 -45.5t51 -128.5h-62q0 57 -34 88.5t-95 31.5q-52 0 -83.5 -23t-31.5 -61q0 -43 25.5 -58t102.5 -33q30 -7 41.5 -9.5t37.5 -10.5t37.5 -14.5t29.5 -19t26 -26t14.5 -33.5t6.5 -44q0 -66 -52 -107t-138 -41q-96 0 -150 48t-55 136h63q0 -62 37 -96
t105 -34q57 0 92.5 25t35.5 65q0 47 -30.5 65t-120.5 39q-28 7 -37 9t-33 9.5t-33.5 13t-25.5 17t-23 23.5t-12.5 30.5t-5.5 40.5q0 64 49.5 103.5t127.5 39.5zM379 712l-114 -141h-71l-114 141h69l81 -101l80 101h69z" />
    <glyph glyph-name="Tcedilla" unicode="&#x162;" horiz-adv-x="592" 
d="M582 712v-59h-254v-653h-65v653h-253v59h572zM332 -68v-81l-49 -102h-29l35 102h-28v81h71z" />
    <glyph glyph-name="tcedilla" unicode="&#x163;" horiz-adv-x="302" 
d="M238 51q19 0 35 4v-53q-22 -5 -46 -5q-66 0 -95 32t-29 105v322h-91v52h91v118h62v-118h103v-52h-103v-321q0 -45 16.5 -64.5t56.5 -19.5zM134 -149v81h71v-81l-49 -102h-29l35 102h-28z" />
    <glyph glyph-name="Tcaron" unicode="&#x164;" horiz-adv-x="592" 
d="M582 712v-59h-254v-653h-65v653h-253v59h572zM445 895l-114 -135h-71l-114 135h69l81 -95l80 95h69z" />
    <glyph glyph-name="tcaron" unicode="&#x165;" horiz-adv-x="302" 
d="M268 456h-103v-321q0 -45 16.5 -64.5t56.5 -19.5q19 0 35 4v-53q-22 -5 -46 -5q-66 0 -95 32t-29 105v322h-91v52h91v118h62v-118h103v-52zM298 712l-54 -176h-41l31 176h64z" />
    <glyph glyph-name="Tbar" unicode="&#x166;" horiz-adv-x="592" 
d="M582 653h-254v-240h145v-54h-145v-359h-65v359h-144v54h144v240h-253v59h572v-59z" />
    <glyph glyph-name="tbar" unicode="&#x167;" horiz-adv-x="298" 
d="M238 51q19 0 35 4v-53q-22 -5 -46 -5q-66 0 -95 32t-29 105v117h-88v48h88v157h-91v52h91v118h62v-118h103v-52h-103v-157h100v-48h-100v-116q0 -45 16.5 -64.5t56.5 -19.5z" />
    <glyph glyph-name="Utilde" unicode="&#x168;" horiz-adv-x="699" 
d="M539 712h65v-448q0 -136 -65 -206.5t-189 -70.5t-189.5 71t-65.5 206v448h65v-447q0 -108 49.5 -162.5t140.5 -54.5q90 0 139.5 54.5t49.5 162.5v447zM466 885h48q-3 -51 -27.5 -78t-65.5 -27q-31 0 -76.5 27t-65.5 27q-41 0 -46 -54h-48q3 51 27.5 78t65.5 27
q31 0 76.5 -26.5t65.5 -26.5q41 0 46 53z" />
    <glyph glyph-name="utilde" unicode="&#x169;" 
d="M259 -11q-88 0 -134.5 53t-46.5 157v309h62v-306q0 -86 33 -122.5t97 -36.5q63 0 105.5 43.5t42.5 120.5v301h62v-508h-61v69h-2q-23 -37 -64.5 -58.5t-93.5 -21.5zM399 703h48q-3 -51 -27.5 -78t-65.5 -27q-31 0 -76.5 26.5t-65.5 26.5q-41 0 -46 -53h-48q3 51 27.5 78
t65.5 27q31 0 76.5 -27t65.5 -27q41 0 46 54z" />
    <glyph glyph-name="Umacron" unicode="&#x16a;" horiz-adv-x="699" 
d="M539 712h65v-448q0 -136 -65 -206.5t-189 -70.5t-189.5 71t-65.5 206v448h65v-447q0 -108 49.5 -162.5t140.5 -54.5q90 0 139.5 54.5t49.5 162.5v447zM481 845v-52h-263v52h263z" />
    <glyph glyph-name="umacron" unicode="&#x16b;" 
d="M259 -11q-88 0 -134.5 53t-46.5 157v309h62v-306q0 -86 33 -122.5t97 -36.5q63 0 105.5 43.5t42.5 120.5v301h62v-508h-61v69h-2q-23 -37 -64.5 -58.5t-93.5 -21.5zM413 676v-52h-263v52h263z" />
    <glyph glyph-name="Ubreve" unicode="&#x16c;" horiz-adv-x="699" 
d="M539 712h65v-448q0 -136 -65 -206.5t-189 -70.5t-189.5 71t-65.5 206v448h65v-447q0 -108 49.5 -162.5t140.5 -54.5q90 0 139.5 54.5t49.5 162.5v447zM445 895h51q-6 -66 -44 -102.5t-102 -36.5t-102 36.5t-44 102.5h51q6 -43 30.5 -66.5t64.5 -23.5q81 0 95 90z" />
    <glyph glyph-name="ubreve" unicode="&#x16d;" 
d="M259 -11q-88 0 -134.5 53t-46.5 157v309h62v-306q0 -86 33 -122.5t97 -36.5q63 0 105.5 43.5t42.5 120.5v301h62v-508h-61v69h-2q-23 -37 -64.5 -58.5t-93.5 -21.5zM377 712h51q-6 -66 -44 -102.5t-102 -36.5t-102 36.5t-44 102.5h51q12 -89 95 -89q81 0 95 89z" />
    <glyph glyph-name="Uring" unicode="&#x16e;" horiz-adv-x="699" 
d="M539 712h65v-448q0 -136 -65 -206.5t-189 -70.5t-189.5 71t-65.5 206v448h65v-447q0 -108 49.5 -162.5t140.5 -54.5q90 0 139.5 54.5t49.5 162.5v447zM350 946q40 0 68 -28t28 -68t-28 -68.5t-68 -28.5t-68.5 28.5t-28.5 68.5t28.5 68t68.5 28zM350 909
q-25 0 -42.5 -17.5t-17.5 -41.5q0 -25 17.5 -42.5t42.5 -17.5t42 17.5t17 42.5q0 24 -17 41.5t-42 17.5z" />
    <glyph glyph-name="uring" unicode="&#x16f;" 
d="M259 -11q-88 0 -134.5 53t-46.5 157v309h62v-306q0 -86 33 -122.5t97 -36.5q63 0 105.5 43.5t42.5 120.5v301h62v-508h-61v69h-2q-23 -37 -64.5 -58.5t-93.5 -21.5zM282 764q40 0 68 -28.5t28 -68.5t-28 -68.5t-68 -28.5t-68.5 28t-28.5 69q0 40 28.5 68.5t68.5 28.5z
M282 726q-25 0 -42.5 -17t-17.5 -42t17.5 -42.5t42.5 -17.5t42 17.5t17 42.5t-17 42t-42 17z" />
    <glyph glyph-name="Uhungarumlaut" unicode="&#x170;" horiz-adv-x="699" 
d="M539 712h65v-448q0 -136 -65 -206.5t-189 -70.5t-189.5 71t-65.5 206v448h65v-447q0 -108 49.5 -162.5t140.5 -54.5q90 0 139.5 54.5t49.5 162.5v447zM417 895l-134 -142h-56l110 142h80zM562 895l-134 -142h-56l110 142h80z" />
    <glyph glyph-name="uhungarumlaut" unicode="&#x171;" 
d="M259 -11q-88 0 -134.5 53t-46.5 157v309h62v-306q0 -86 33 -122.5t97 -36.5q63 0 105.5 43.5t42.5 120.5v301h62v-508h-61v69h-2q-23 -37 -64.5 -58.5t-93.5 -21.5zM351 712l-134 -141h-56l110 141h80zM496 712l-134 -141h-56l110 141h80z" />
    <glyph glyph-name="Uogonek" unicode="&#x172;" horiz-adv-x="699" 
d="M539 712h65v-448q0 -90 -28.5 -150t-85.5 -106q-45 -35 -62.5 -60t-17.5 -51q0 -44 44 -44q22 0 39 7v-44q-19 -8 -48 -8q-93 0 -93 81q0 29 15 53t49 53v2q-33 -10 -66 -10q-124 0 -189.5 71t-65.5 206v448h65v-447q0 -108 49.5 -162.5t140.5 -54.5q90 0 139.5 54.5
t49.5 162.5v447z" />
    <glyph glyph-name="uogonek" unicode="&#x173;" 
d="M443 -147q22 0 40 7v-44q-19 -8 -49 -8q-92 0 -92 75q0 32 18.5 58.5t59.5 58.5h-1v69h-2q-23 -37 -64.5 -58.5t-93.5 -21.5q-88 0 -134.5 53t-46.5 157v309h62v-306q0 -86 33 -122.5t97 -36.5q63 0 105.5 43.5t42.5 120.5v301h62v-508q-80 -60 -80 -110q0 -37 43 -37z
" />
    <glyph glyph-name="Wcircumflex" unicode="&#x174;" horiz-adv-x="896" 
d="M885 712l-174 -712h-102l-80 325q-54 218 -80 327h-2q-26 -109 -80 -327l-80 -325h-102l-174 712h66l74 -303q29 -116 85 -348h2q14 58 42.5 175t43.5 175l74 301h100l74 -301q14 -58 42.5 -175t43.5 -175h2l84 348l75 303h66zM299 760l114 135h71l114 -135h-69l-81 95
l-80 -95h-69z" />
    <glyph glyph-name="wcircumflex" unicode="&#x175;" horiz-adv-x="750" 
d="M742 508l-147 -508h-89l-66 230q-40 138 -64 222h-2q-24 -84 -64 -222l-66 -230h-89l-147 508h64l62 -220q20 -68 65 -232h2l127 452h94l127 -452h2q45 164 65 232l62 220h64zM524 571h-69l-80 101l-81 -101h-69l114 141h71z" />
    <glyph glyph-name="Ycircumflex" unicode="&#x176;" horiz-adv-x="602" 
d="M597 712l-263 -408v-304h-66v304l-263 408h77l98 -154q40 -63 120 -191h2q80 128 121 191l97 154h77zM152 760l114 135h71l114 -135h-69l-81 95l-80 -95h-69z" />
    <glyph glyph-name="ycircumflex" unicode="&#x177;" horiz-adv-x="456" 
d="M394 508h67l-210 -532q-39 -98 -80 -131.5t-116 -33.5q-22 0 -37 4v55q15 -4 36 -4q55 0 82 25.5t59 108.5l-200 508h67l165 -429h2zM378 571h-69l-80 101l-81 -101h-69l114 141h71z" />
    <glyph glyph-name="Ydieresis" unicode="&#x178;" horiz-adv-x="602" 
d="M597 712l-263 -408v-304h-66v304l-263 408h77l98 -154q40 -63 120 -191h2q80 128 121 191l97 154h77zM239 866v-88h-61v88h61zM423 866v-88h-61v88h61z" />
    <glyph glyph-name="Zacute" unicode="&#x179;" horiz-adv-x="558" 
d="M521 712v-68l-429 -583v-2h448v-59h-523v68l429 583v2h-420v59h495zM389 895l-115 -135h-59l90 135h84z" />
    <glyph glyph-name="zacute" unicode="&#x17a;" horiz-adv-x="461" 
d="M426 508v-58l-324 -394v-2h334v-54h-411v58l324 394v2h-314v54h391zM337 712l-115 -141h-59l90 141h84z" />
    <glyph glyph-name="Zdotaccent" unicode="&#x17b;" horiz-adv-x="558" 
d="M521 712v-68l-429 -583v-2h448v-59h-523v68l429 583v2h-420v59h495zM304 857v-88h-62v88h62z" />
    <glyph glyph-name="zdotaccent" unicode="&#x17c;" horiz-adv-x="461" 
d="M426 508v-58l-324 -394v-2h334v-54h-411v58l324 394v2h-314v54h391zM251 712v-88h-62v88h62z" />
    <glyph glyph-name="Zcaron" unicode="&#x17d;" horiz-adv-x="558" 
d="M521 712v-68l-429 -583v-2h448v-59h-523v68l429 583v2h-420v59h495zM423 895l-114 -135h-71l-114 135h69l81 -95l80 95h69z" />
    <glyph glyph-name="zcaron" unicode="&#x17e;" horiz-adv-x="461" 
d="M426 508v-58l-324 -394v-2h334v-54h-411v58l324 394v2h-314v54h391zM370 712l-114 -141h-71l-114 141h69l81 -101l80 101h69z" />
    <glyph glyph-name="longs" unicode="&#x17f;" horiz-adv-x="287" 
d="M231 716q20 0 42 -4v-53q-14 4 -32 4q-37 0 -55 -21t-18 -69v-573h-62v456h-91v52h91v71q0 137 125 137z" />
    <glyph glyph-name="Schwa" unicode="&#x18f;" horiz-adv-x="729" 
d="M351 725q154 0 243.5 -100t89.5 -269q0 -166 -87.5 -267.5t-237.5 -101.5q-145 0 -229.5 99.5t-84.5 269.5q0 10 2 24h568q-4 135 -76 209.5t-188 74.5q-88 0 -145.5 -45t-72.5 -119h-72q17 98 93 161.5t197 63.5zM359 48q112 0 181 74t74 199h-500q6 -129 72.5 -201
t172.5 -72z" />
    <glyph glyph-name="florin" unicode="&#x192;" horiz-adv-x="544" 
d="M478 717q22 0 44 -5v-57q-20 5 -40 5q-45 0 -70.5 -25t-39.5 -85l-21 -82h110v-50h-122l-109 -431q-25 -98 -61.5 -137t-106.5 -39q-22 0 -39 5v57q17 -5 35 -5q43 0 67.5 26t43.5 101l106 423h-101v50h113l23 90q22 88 59.5 123.5t108.5 35.5z" />
    <glyph glyph-name="Aringacute" unicode="&#x1fa;" horiz-adv-x="664" 
d="M588 0l-89 230h-334l-89 -230h-70l282 712h89l281 -712h-70zM188 290h287l-28 74q-7 17 -49 126t-65 169h-2q-79 -207 -114 -295zM332 733q-40 0 -68.5 28.5t-28.5 68.5t28.5 68t68.5 28t68.5 -28t28.5 -68t-28.5 -68.5t-68.5 -28.5zM332 889q-25 0 -42.5 -17t-17.5 -42
t17.5 -42.5t42.5 -17.5q26 0 43 17t17 43q0 25 -17.5 42t-42.5 17zM448 1082l-114 -135h-60l90 135h84z" />
    <glyph glyph-name="aringacute" unicode="&#x1fb;" horiz-adv-x="524" 
d="M256 521q89 0 139.5 -49t50.5 -146v-201q0 -72 11 -125h-58q-7 34 -7 77h-2q-52 -87 -181 -87q-77 0 -124.5 41t-47.5 105q0 65 43.5 102t149.5 54q73 12 156 18v24q0 68 -35 101t-95 33q-62 0 -96 -30.5t-37 -82.5h-65q5 74 56.5 120t141.5 46zM386 219v39
q-65 -5 -148 -18q-75 -11 -105 -34t-30 -66q0 -45 31.5 -71.5t87.5 -26.5q74 0 117 45q27 28 37 55.5t10 76.5zM249 741q40 0 68.5 -28t28.5 -68t-28.5 -68.5t-68.5 -28.5q-41 0 -69 28t-28 69q0 40 28.5 68t68.5 28zM249 704q-25 0 -42.5 -17.5t-17.5 -41.5
q0 -25 17.5 -42.5t42.5 -17.5t42 17t17 43q0 24 -17 41.5t-42 17.5zM365 909l-115 -141h-59l90 141h84z" />
    <glyph glyph-name="AEacute" unicode="&#x1fc;" horiz-adv-x="924" 
d="M567 59h302v-59h-359l-37 247h-281l-124 -247h-74l357 712h506v-59h-380l39 -258h322v-59h-313zM221 306h243l-52 347h-17zM618 895l-115 -135h-59l90 135h84z" />
    <glyph glyph-name="aeacute" unicode="&#x1fd;" horiz-adv-x="854" 
d="M600 40q57 0 93.5 30.5t47.5 80.5h64q-11 -70 -64.5 -117t-140.5 -47q-129 0 -185 121q-26 -57 -79 -89t-125 -32q-78 0 -126 42t-48 108q0 156 224 156h125v41q0 67 -34 100.5t-96 33.5q-61 0 -95.5 -31t-37.5 -82h-65q5 73 57.5 119.5t140.5 46.5q128 0 167 -98
q56 98 173 98q79 0 134 -49t72 -132q7 -38 7 -99h-368q3 -98 46.5 -149.5t112.5 -51.5zM386 219v22h-117q-90 0 -128 -25t-38 -77q0 -46 31.5 -73t87.5 -27q76 0 117 46q27 28 37 55.5t10 78.5zM596 468q-67 0 -109 -47t-46 -128h307q-4 83 -45.5 129t-106.5 46zM541 712
l-115 -141h-59l90 141h84z" />
    <glyph glyph-name="Oslashacute" unicode="&#x1fe;" horiz-adv-x="724" 
d="M617 740l45 -34l-65 -86q81 -100 81 -264q0 -169 -85.5 -269t-230.5 -100q-115 0 -195 65l-60 -80l-45 35l65 85q-82 99 -82 264q0 169 86 269t231 100q115 0 194 -65zM113 356q0 -127 56 -208l348 460q-64 56 -155 56q-114 0 -181.5 -83.5t-67.5 -224.5zM362 48
q114 0 181 83.5t67 224.5q0 129 -55 208l-348 -460q64 -56 155 -56zM478 895l-115 -135h-59l90 135h84z" />
    <glyph glyph-name="oslashacute" unicode="&#x1ff;" horiz-adv-x="553" 
d="M467 546l39 -31l-55 -71q58 -70 58 -190q0 -124 -62.5 -195.5t-170.5 -71.5q-81 0 -139 42l-51 -66l-39 31l54 70q-57 71 -57 190q0 124 62 195.5t170 71.5q82 0 140 -43zM276 467q-78 0 -123 -57t-45 -156q0 -84 32 -137l240 314q-42 36 -104 36zM276 41q79 0 124 57
t45 156q0 86 -33 138l-239 -315q42 -36 103 -36zM393 712l-115 -141h-59l90 141h84z" />
    <glyph glyph-name="Scommaaccent" unicode="&#x218;" horiz-adv-x="599" 
d="M282 725q248 0 248 -234h-66q0 175 -182 175q-75 0 -116 -34.5t-41 -94.5t40.5 -87.5t139.5 -51.5q48 -12 77.5 -21t63.5 -25.5t53 -37t31.5 -52t12.5 -72.5q0 -93 -65.5 -148t-177.5 -55q-122 0 -188.5 64t-66.5 186h65q0 -97 50 -143.5t140 -46.5q86 0 131.5 37
t45.5 105q0 61 -42 89t-146 54q-60 15 -95.5 28t-69.5 35.5t-49.5 57t-15.5 83.5q0 85 60 137t163 52zM335 -68v-81l-49 -102h-29l35 102h-28v81h71z" />
    <glyph glyph-name="scommaaccent" unicode="&#x219;" horiz-adv-x="479" 
d="M230 521q90 0 140 -45.5t51 -128.5h-62q0 57 -34 88.5t-95 31.5q-52 0 -83.5 -23t-31.5 -61q0 -43 25.5 -58t102.5 -33q30 -7 41.5 -9.5t37.5 -10.5t37.5 -14.5t29.5 -19t26 -26t14.5 -33.5t6.5 -44q0 -66 -52 -107t-138 -41q-96 0 -150 48t-55 136h63q0 -62 37 -96
t105 -34q57 0 92.5 25t35.5 65q0 47 -30.5 65t-120.5 39q-28 7 -37 9t-33 9.5t-33.5 13t-25.5 17t-23 23.5t-12.5 30.5t-5.5 40.5q0 64 49.5 103.5t127.5 39.5zM282 -68v-81l-49 -102h-29l35 102h-28v81h71z" />
    <glyph glyph-name="Tcommaaccent" unicode="&#x21a;" horiz-adv-x="592" 
d="M582 712v-59h-254v-653h-65v653h-253v59h572zM332 -68v-81l-49 -102h-29l35 102h-28v81h71z" />
    <glyph glyph-name="tcommaaccent" unicode="&#x21b;" horiz-adv-x="302" 
d="M238 51q19 0 35 4v-53q-22 -5 -46 -5q-66 0 -95 32t-29 105v322h-91v52h91v118h62v-118h103v-52h-103v-321q0 -45 16.5 -64.5t56.5 -19.5zM134 -149v81h71v-81l-49 -102h-29l35 102h-28z" />
    <glyph glyph-name="dotlessj" unicode="&#x237;" horiz-adv-x="235" 
d="M90 508h62v-545q0 -152 -133 -152q-19 0 -36 4v54q17 -3 30 -3q38 0 57.5 22.5t19.5 75.5v544z" />
    <glyph glyph-name="schwa" unicode="&#x259;" horiz-adv-x="539" 
d="M259 521q110 0 173 -72.5t63 -194.5q0 -119 -62 -193t-168 -74q-102 0 -161.5 72t-59.5 195q0 14 1 20h387q-3 94 -50.5 144t-122.5 50q-57 0 -93.5 -30.5t-46.5 -80.5h-64q12 70 64.5 117t139.5 47zM265 40q72 0 117 49t49 134h-327q5 -87 48.5 -135t112.5 -48z" />
    <glyph glyph-name="apostrophemod" unicode="&#x2bc;" horiz-adv-x="229" 
d="M156 712v-90l-40 -128h-44l29 128h-29v90h84z" />
    <glyph glyph-name="circumflex" unicode="&#x2c6;" horiz-adv-x="399" 
d="M349 571h-69l-80 101l-81 -101h-69l114 141h71z" />
    <glyph glyph-name="caron" unicode="&#x2c7;" horiz-adv-x="399" 
d="M349 712l-114 -141h-71l-114 141h69l81 -101l80 101h69z" />
    <glyph glyph-name="firsttonechinese" unicode="&#x2c9;" horiz-adv-x="363" 
d="M313 676v-52h-263v52h263z" />
    <glyph glyph-name="breve" unicode="&#x2d8;" horiz-adv-x="392" 
d="M291 712h51q-6 -66 -44 -102.5t-102 -36.5t-102 36.5t-44 102.5h51q12 -89 95 -89q81 0 95 89z" />
    <glyph glyph-name="dotaccent" unicode="&#x2d9;" horiz-adv-x="162" 
d="M112 712v-88h-62v88h62z" />
    <glyph glyph-name="ring" unicode="&#x2da;" horiz-adv-x="293" 
d="M147 764q40 0 68 -28.5t28 -68.5t-28 -68.5t-68 -28.5q-41 0 -69 28t-28 69q0 40 28.5 68.5t68.5 28.5zM147 726q-25 0 -42.5 -17t-17.5 -42t17.5 -42.5t42.5 -17.5t42 17.5t17 42.5t-17 42t-42 17z" />
    <glyph glyph-name="ogonek" unicode="&#x2db;" horiz-adv-x="241" 
d="M132 3l56 -3q-80 -60 -80 -110q0 -37 43 -37q22 0 40 7v-44q-19 -8 -49 -8q-92 0 -92 75q0 33 19.5 60t62.5 60z" />
    <glyph glyph-name="tilde" unicode="&#x2dc;" horiz-adv-x="429" 
d="M331 703h48q-3 -51 -27.5 -78t-65.5 -27q-31 0 -76.5 26.5t-65.5 26.5q-41 0 -46 -53h-48q3 51 27.5 78t65.5 27q31 0 76.5 -27t65.5 -27q41 0 46 54z" />
    <glyph glyph-name="hungarumlaut" unicode="&#x2dd;" horiz-adv-x="435" 
d="M240 712l-134 -141h-56l110 141h80zM385 712l-134 -141h-56l110 141h80z" />
    <glyph glyph-name="commaturnedabovecomb" unicode="&#x312;" horiz-adv-x="0" 
d="M128 769l-35 -102h28v-81h-71v81l49 102h29z" />
    <glyph glyph-name="commaaccent" unicode="&#x326;" horiz-adv-x="0" 
d="M128 -68v-81l-49 -102h-29l35 102h-28v81h71z" />
    <glyph glyph-name="dbllowlinecomb" unicode="&#x333;" horiz-adv-x="0" 
d="M-500 -50v-38h-500v38h500zM-500 -172v-38h-500v38h500z" />
    <glyph glyph-name="numeralgreek" unicode="&#x374;" horiz-adv-x="162" 
d="M132 712l-60 -204h-42l38 204h64z" />
    <glyph glyph-name="lowernumeralgreek" unicode="&#x375;" horiz-adv-x="162" 
d="M132 112l-60 -204h-42l38 204h64z" />
    <glyph glyph-name="questiongreek" unicode="&#x37e;" horiz-adv-x="210" 
d="M148 508v-92h-86v92h86zM148 92v-92l-41 -130h-45l30 130h-30v92h86z" />
    <glyph glyph-name="tonos" unicode="&#x384;" horiz-adv-x="205" 
d="M157 732l-58 -157h-51l45 157h64z" />
    <glyph glyph-name="dieresistonos" unicode="&#x385;" horiz-adv-x="417" 
d="M110 681v-92h-60v92h60zM260 716l-48 -141h-49l39 141h58zM367 681v-92h-60v92h60z" />
    <glyph glyph-name="Alphatonos" unicode="&#x386;" horiz-adv-x="664" 
d="M588 0l-89 230h-334l-89 -230h-70l282 712h89l281 -712h-70zM188 290h287l-28 74q-7 17 -49 126t-65 169h-2q-79 -207 -114 -295zM175 712l-58 -197h-51l45 197h64z" />
    <glyph glyph-name="anoteleia" unicode="&#x387;" horiz-adv-x="210" 
d="M148 508v-92h-86v92h86z" />
    <glyph glyph-name="Epsilontonos" unicode="&#x388;" horiz-adv-x="610" 
d="M544 712v-59h-378v-258h359v-59h-359v-277h390v-59h-455v712h443zM32 712l-58 -197h-51l45 197h64z" />
    <glyph glyph-name="Etatonos" unicode="&#x389;" horiz-adv-x="731" 
d="M630 712v-712h-65v340h-399v-340h-65v712h65v-313h399v313h65zM32 712l-58 -197h-51l45 197h64z" />
    <glyph glyph-name="Iotatonos" unicode="&#x38a;" horiz-adv-x="267" 
d="M166 712v-712h-65v712h65zM32 712l-58 -197h-51l45 197h64z" />
    <glyph glyph-name="Omicrontonos" unicode="&#x38c;" horiz-adv-x="724" 
d="M362 725q145 0 230.5 -100t85.5 -269t-85.5 -269t-230.5 -100t-231 100t-86 269t86 269t231 100zM362 664q-114 0 -181 -83.5t-67 -224.5t67 -224.5t181 -83.5q113 0 180.5 83.5t67.5 224.5t-67.5 224.5t-180.5 83.5zM63 712l-58 -197h-51l45 197h64z" />
    <glyph glyph-name="Upsilontonos" unicode="&#x38e;" horiz-adv-x="602" 
d="M597 712l-263 -408v-304h-66v304l-263 408h77l98 -154q40 -63 120 -191h2q80 128 121 191l97 154h77zM-27 712l-58 -197h-51l45 197h64z" />
    <glyph glyph-name="Omegatonos" unicode="&#x38f;" horiz-adv-x="726" 
d="M363 725q142 0 226.5 -80.5t84.5 -235.5q0 -100 -44 -182.5t-125 -165.5v-2h180v-59h-253v61q85 87 129.5 166.5t44.5 177.5q0 127 -66 193t-177 66q-110 0 -176 -66t-66 -193q0 -99 44.5 -178t128.5 -166v-61h-253v59h180v2q-81 83 -125 165.5t-44 182.5q0 155 85 235.5
t226 80.5zM60 712l-58 -197h-51l45 197h64z" />
    <glyph glyph-name="iotadieresistonos" unicode="&#x390;" horiz-adv-x="259" 
d="M78 508h62v-363q0 -51 17 -73t56 -22q19 0 36 5v-53q-26 -6 -47 -6q-66 0 -95 34.5t-29 112.5v365zM12 681v-92h-60v92h60zM162 716l-48 -141h-49l39 141h58zM269 681v-92h-60v92h60z" />
    <glyph glyph-name="Alpha" unicode="&#x391;" horiz-adv-x="664" 
d="M588 0l-89 230h-334l-89 -230h-70l282 712h89l281 -712h-70zM188 290h287l-28 74q-7 17 -49 126t-65 169h-2q-79 -207 -114 -295z" />
    <glyph glyph-name="Beta" unicode="&#x392;" horiz-adv-x="615" 
d="M101 0v712h221q114 0 172 -48.5t58 -131.5q0 -59 -30 -102.5t-86 -63.5v-2q60 -15 95.5 -60t35.5 -108q0 -90 -60.5 -143t-168.5 -53h-237zM313 335h-147v-278h164q169 0 169 140q0 138 -186 138zM316 655h-150v-263h147q173 0 173 131q0 132 -170 132z" />
    <glyph glyph-name="Gamma" unicode="&#x393;" horiz-adv-x="478" 
d="M166 0h-65v712h367v-59h-302v-653z" />
    <glyph glyph-name="Delta" unicode="&#x394;" horiz-adv-x="664" 
d="M377 712l281 -712h-652l282 712h89zM99 59h466l-118 305q-7 17 -49 126t-65 169h-2q-23 -60 -65 -169t-49 -126z" />
    <glyph glyph-name="Epsilon" unicode="&#x395;" horiz-adv-x="610" 
d="M544 712v-59h-378v-258h359v-59h-359v-277h390v-59h-455v712h443z" />
    <glyph glyph-name="Zeta" unicode="&#x396;" horiz-adv-x="558" 
d="M521 712v-68l-429 -583v-2h448v-59h-523v68l429 583v2h-420v59h495z" />
    <glyph glyph-name="Eta" unicode="&#x397;" horiz-adv-x="731" 
d="M630 712v-712h-65v340h-399v-340h-65v712h65v-313h399v313h65z" />
    <glyph glyph-name="Theta" unicode="&#x398;" horiz-adv-x="724" 
d="M362 725q145 0 230.5 -100t85.5 -269t-85.5 -269t-230.5 -100t-231 100t-86 269t86 269t231 100zM362 664q-114 0 -181.5 -83.5t-67.5 -224.5t67.5 -224.5t181.5 -83.5t181 83.5t67 224.5t-67 224.5t-181 83.5zM510 389v-64h-297v64h297z" />
    <glyph glyph-name="Iota" unicode="&#x399;" horiz-adv-x="267" 
d="M166 712v-712h-65v712h65z" />
    <glyph glyph-name="Kappa" unicode="&#x39a;" horiz-adv-x="607" 
d="M570 712l-331 -340l363 -372h-91l-343 357h-2v-357h-65v712h65v-325h2l314 325h88z" />
    <glyph glyph-name="Lambda" unicode="&#x39b;" horiz-adv-x="647" 
d="M370 712l272 -712h-73l-135 363q-19 51 -54.5 147t-54.5 146h-2q-19 -51 -54.5 -146.5t-54.5 -146.5l-136 -363h-72l272 712h92z" />
    <glyph glyph-name="Mu" unicode="&#x39c;" horiz-adv-x="909" 
d="M808 712v-712h-65v365q0 184 1 276h-2q-23 -59 -108 -278l-142 -363h-76l-141 363q-12 31 -49.5 127.5t-58.5 150.5h-2q1 -92 1 -276v-365h-65v712h105l141 -364l106 -278h2q21 55 61.5 160.5t45.5 117.5l141 364h105z" />
    <glyph glyph-name="Nu" unicode="&#x39d;" horiz-adv-x="745" 
d="M644 712v-712h-99l-185 316q-35 60 -99.5 170.5t-93.5 160.5h-2q0 -59 0.5 -178t0.5 -178v-291h-65v712h99l185 -316q35 -60 99.5 -170.5t93.5 -160.5h2q-1 119 -1 356v291h65z" />
    <glyph glyph-name="Xi" unicode="&#x39e;" horiz-adv-x="654" 
d="M595 65v-65h-536v65h536zM564 389v-65h-474v65h474zM581 712v-65h-508v65h508z" />
    <glyph glyph-name="Omicron" unicode="&#x39f;" horiz-adv-x="724" 
d="M362 725q145 0 230.5 -100t85.5 -269t-85.5 -269t-230.5 -100t-231 100t-86 269t86 269t231 100zM362 664q-114 0 -181 -83.5t-67 -224.5t67 -224.5t181 -83.5q113 0 180.5 83.5t67.5 224.5t-67.5 224.5t-180.5 83.5z" />
    <glyph glyph-name="Pi" unicode="&#x3a0;" horiz-adv-x="721" 
d="M620 712v-712h-65v653h-389v-653h-65v712h519z" />
    <glyph glyph-name="Rho" unicode="&#x3a1;" horiz-adv-x="606" 
d="M101 0v712h232q117 0 180 -55.5t63 -151.5t-63 -152t-180 -56h-167v-297h-65zM332 653h-166v-297h166q86 0 131 39t45 110q0 70 -45 109t-131 39z" />
    <glyph glyph-name="Sigma" unicode="&#x3a3;" horiz-adv-x="548" 
d="M517 712v-59h-404v-2l210 -289l-220 -300v-3h428v-59h-511v59l222 303l-211 291v59h486z" />
    <glyph glyph-name="Tau" unicode="&#x3a4;" horiz-adv-x="592" 
d="M582 712v-59h-254v-653h-65v653h-253v59h572z" />
    <glyph glyph-name="Upsilon" unicode="&#x3a5;" horiz-adv-x="602" 
d="M597 712l-263 -408v-304h-66v304l-263 408h77l98 -154q40 -63 120 -191h2q80 128 121 191l97 154h77z" />
    <glyph glyph-name="Phi" unicode="&#x3a6;" horiz-adv-x="770" 
d="M353 736h64v-71q145 -5 226.5 -84t81.5 -222t-81.5 -222t-226.5 -84v-77h-64v77q-145 5 -226.5 84t-81.5 222t81.5 222t226.5 84v71zM353 113v492q-113 -3 -176 -66.5t-63 -179.5t63 -179.5t176 -66.5zM417 605v-492q114 3 176.5 66t62.5 180t-62.5 180t-176.5 66z" />
    <glyph glyph-name="Chi" unicode="&#x3a7;" horiz-adv-x="617" 
d="M593 712l-244 -345l258 -367h-80l-218 313h-2l-218 -313h-79l258 367l-244 345h79l204 -292h2l205 292h79z" />
    <glyph glyph-name="Psi" unicode="&#x3a8;" horiz-adv-x="752" 
d="M637 712h65v-218q0 -157 -70.5 -228.5t-223.5 -76.5v-189h-65v189q-153 5 -223.5 76.5t-70.5 228.5v218h66v-217q0 -128 52.5 -183t175.5 -59v459h65v-459q124 4 176.5 59t52.5 183v217z" />
    <glyph glyph-name="Omega" unicode="&#x3a9;" horiz-adv-x="726" 
d="M363 725q142 0 226.5 -80.5t84.5 -235.5q0 -100 -44 -182.5t-125 -165.5v-2h180v-59h-253v61q85 87 129.5 166.5t44.5 177.5q0 127 -66 193t-177 66q-110 0 -176 -66t-66 -193q0 -99 44.5 -178t128.5 -166v-61h-253v59h180v2q-81 83 -125 165.5t-44 182.5q0 155 85 235.5
t226 80.5z" />
    <glyph glyph-name="Iotadieresis" unicode="&#x3aa;" horiz-adv-x="267" 
d="M166 712v-712h-65v712h65zM71 916v-88h-61v88h61zM255 916v-88h-61v88h61z" />
    <glyph glyph-name="Upsilondieresis" unicode="&#x3ab;" horiz-adv-x="602" 
d="M597 712l-263 -408v-304h-66v304l-263 408h77l98 -154q40 -63 120 -191h2q80 128 121 191l97 154h77zM239 866v-88h-61v88h61zM423 866v-88h-61v88h61z" />
    <glyph glyph-name="alphatonos" unicode="&#x3ac;" horiz-adv-x="574" 
d="M258 521q56 0 99.5 -25.5t63.5 -68.5h2q2 42 8 81h62q-11 -68 -11 -180v-197q0 -49 10.5 -66.5t37.5 -17.5q13 0 24 4v-49q-21 -7 -48 -7q-39 0 -59 20t-25 67h-2q-20 -43 -63.5 -68t-98.5 -25q-98 0 -156 72t-58 194t58 194t156 72zM268 469q-73 0 -116 -58t-43 -156
t43 -156t116 -58q71 0 113 58.5t42 155.5t-42 155.5t-113 58.5zM358 732l-58 -157h-51l45 157h64z" />
    <glyph glyph-name="epsilontonos" unicode="&#x3ad;" horiz-adv-x="480" 
d="M240 521q87 0 138.5 -43t51.5 -118h-65q0 105 -122 105q-54 0 -84 -23t-30 -67q0 -41 36.5 -66.5t95.5 -25.5h51v-52h-51q-71 0 -108.5 -25t-37.5 -73q0 -41 34 -65.5t95 -24.5q129 0 129 107h67q0 -77 -52 -120t-144 -43q-91 0 -143 39t-52 107q0 93 101 126v2
q-87 34 -87 119q0 65 47.5 103t129.5 38zM323 732l-58 -157h-51l45 157h64z" />
    <glyph glyph-name="etatonos" unicode="&#x3ae;" horiz-adv-x="572" 
d="M313 519q88 0 134.5 -53t46.5 -157v-494h-62v490q0 87 -33 124t-97 37q-62 0 -105 -44t-43 -121v-301h-62v370q0 51 -11.5 70t-36.5 19q-13 0 -24 -4v51q21 7 39 7q75 0 87 -84h2q54 90 165 90zM337 732l-58 -157h-51l45 157h64z" />
    <glyph glyph-name="iotatonos" unicode="&#x3af;" horiz-adv-x="259" 
d="M78 508h62v-363q0 -51 17 -73t56 -22q19 0 36 5v-53q-26 -6 -47 -6q-66 0 -95 34.5t-29 112.5v365zM191 732l-58 -157h-51l45 157h64z" />
    <glyph glyph-name="upsilondieresistonos" unicode="&#x3b0;" horiz-adv-x="564" 
d="M61 513q49 0 71 -28t22 -99v-207q0 -72 33.5 -105t101.5 -33q152 0 152 208q0 145 -39 259h61q40 -117 40 -260q0 -261 -214 -261q-198 0 -198 189v200q0 49 -10.5 66t-36.5 17q-13 0 -24 -4v51q18 7 41 7zM169 681v-92h-60v92h60zM319 716l-48 -141h-49l39 141h58z
M426 681v-92h-60v92h60z" />
    <glyph glyph-name="alpha" unicode="&#x3b1;" horiz-adv-x="574" 
d="M258 521q56 0 99.5 -25.5t63.5 -68.5h2q2 42 8 81h62q-11 -68 -11 -180v-197q0 -49 10.5 -66.5t37.5 -17.5q13 0 24 4v-49q-21 -7 -48 -7q-39 0 -59 20t-25 67h-2q-20 -43 -63.5 -68t-98.5 -25q-98 0 -156 72t-58 194t58 194t156 72zM268 469q-73 0 -116 -58t-43 -156
t43 -156t116 -58q71 0 113 58.5t42 155.5t-42 155.5t-113 58.5z" />
    <glyph glyph-name="beta" unicode="&#x3b2;" horiz-adv-x="572" 
d="M293 725q92 0 144 -46.5t52 -126.5q0 -63 -32 -105.5t-86 -57.5v-2q71 -11 115 -59t44 -135q0 -94 -61 -148.5t-166 -54.5q-119 0 -156 69h-2v-244h-62v659q0 251 210 251zM294 670q-78 0 -113.5 -46.5t-35.5 -146.5v-288q0 -67 39 -105.5t117 -38.5q77 0 121 40.5
t44 113.5q0 82 -53 119.5t-162 37.5h-17v58h17q175 0 175 133q0 58 -34 90.5t-98 32.5z" />
    <glyph glyph-name="gamma" unicode="&#x3b3;" horiz-adv-x="505" 
d="M425 508h64q-15 -142 -61.5 -256t-139.5 -245v-13q0 -89 -11 -179h-62q11 90 11 179q0 78 -28 188t-76 201q-24 45 -44 60.5t-46 15.5q-12 0 -23 -3v51q20 6 41 6q37 0 63.5 -20t55.5 -76q41 -78 67.5 -169.5t33.5 -167.5h2q69 110 105 208.5t48 219.5z" />
    <glyph glyph-name="delta" unicode="&#x3b4;" horiz-adv-x="553" 
d="M249 722q111 0 210 -33v-59q-99 38 -204 38q-83 0 -83 -44q0 -25 30.5 -47t107.5 -63q102 -54 150 -121.5t48 -167.5q0 -109 -63 -173.5t-168 -64.5q-106 0 -169.5 64.5t-63.5 173.5q0 97 49 163.5t139 97.5v2q-71 41 -97.5 67t-26.5 70q0 97 141 97zM287 457
q-85 -26 -131.5 -84.5t-46.5 -147.5q0 -84 46 -134t122 -50q77 0 122.5 50t45.5 135q0 79 -38.5 133.5t-119.5 97.5z" />
    <glyph glyph-name="epsilon" unicode="&#x3b5;" horiz-adv-x="480" 
d="M240 521q87 0 138.5 -43t51.5 -118h-65q0 105 -122 105q-54 0 -84 -23t-30 -67q0 -41 36.5 -66.5t95.5 -25.5h51v-52h-51q-71 0 -108.5 -25t-37.5 -73q0 -41 34 -65.5t95 -24.5q129 0 129 107h67q0 -77 -52 -120t-144 -43q-91 0 -143 39t-52 107q0 93 101 126v2
q-87 34 -87 119q0 65 47.5 103t129.5 38z" />
    <glyph glyph-name="zeta" unicode="&#x3b6;" horiz-adv-x="439" 
d="M70 712h338v-52q-141 -85 -220.5 -193t-79.5 -232q0 -76 38.5 -114t127.5 -48q82 -9 117.5 -40t35.5 -84q0 -50 -25 -94h-57q21 41 21 80q0 35 -22 54t-82 25q-219 24 -219 216q0 126 76 236t203 192v2h-252v52z" />
    <glyph glyph-name="eta" unicode="&#x3b7;" horiz-adv-x="572" 
d="M313 519q88 0 134.5 -53t46.5 -157v-494h-62v490q0 87 -33 124t-97 37q-62 0 -105 -44t-43 -121v-301h-62v370q0 51 -11.5 70t-36.5 19q-13 0 -24 -4v51q21 7 39 7q75 0 87 -84h2q54 90 165 90z" />
    <glyph glyph-name="theta" unicode="&#x3b8;" horiz-adv-x="579" 
d="M288 725q115 0 179.5 -97.5t64.5 -271.5t-64.5 -271.5t-179.5 -97.5q-113 0 -177.5 98t-64.5 271t64.5 271t177.5 98zM288 41q82 0 129 76t51 213h-359q5 -137 52 -213t127 -76zM288 671q-80 0 -127 -76t-52 -213h359q-4 137 -51 213t-129 76z" />
    <glyph glyph-name="iota" unicode="&#x3b9;" horiz-adv-x="259" 
d="M78 508h62v-363q0 -51 17 -73t56 -22q19 0 36 5v-53q-26 -6 -47 -6q-66 0 -95 34.5t-29 112.5v365z" />
    <glyph glyph-name="kappa" unicode="&#x3ba;" horiz-adv-x="503" 
d="M505 0h-86l-223 233l-51 -57v-176h-62v508h62v-250h2l115 130q65 73 106.5 98.5t92.5 25.5q13 0 31 -4v-55q-12 3 -25 3q-41 0 -80.5 -26.5t-104.5 -99.5l-47 -53z" />
    <glyph glyph-name="lambda" unicode="&#x3bb;" horiz-adv-x="547" 
d="M97 717q69 0 112 -42.5t88 -160.5l139 -368q21 -57 40 -76.5t44 -19.5q7 0 17 2v-52q-16 -4 -29 -4q-44 0 -72 25t-56 100q-14 39 -117 310h-2q-38 -82 -112 -244l-86 -187h-68l236 511q-33 87 -63 119.5t-78 32.5q-28 0 -46 -7v52q19 9 53 9z" />
    <glyph glyph-name="mu" unicode="&#x3bc;" horiz-adv-x="568" 
d="M419 508h62v-375q0 -49 10.5 -66.5t37.5 -17.5q13 0 24 4v-51q-20 -7 -47 -7q-40 0 -60 19t-24 63h-2q-20 -39 -61 -62t-92 -23q-86 0 -122 53v-230h-62v693h62v-303q0 -86 32 -123t95 -37q62 0 104.5 44t42.5 121v298z" />
    <glyph glyph-name="nu" unicode="&#x3bd;" horiz-adv-x="495" 
d="M45 512q42 0 67.5 -28t49.5 -100l106 -319h2q85 156 115.5 242.5t30.5 160.5q0 20 -3 40h61q4 -19 4 -42q0 -84 -35.5 -177t-143.5 -289h-74l-123 365q-18 54 -34 73.5t-41 19.5q-9 0 -17 -2v50q14 6 35 6z" />
    <glyph glyph-name="xi" unicode="&#x3be;" horiz-adv-x="448" 
d="M427 712v-52h-67q-104 0 -160 -37t-56 -105q0 -55 45 -84t116 -29h83v-52h-71q-107 0 -157.5 -40t-50.5 -109q0 -61 40 -92t132 -39q153 -14 153 -124q0 -50 -25 -94h-57q21 41 21 80q0 36 -22.5 55.5t-82.5 24.5q-225 19 -225 186q0 143 147 176v2q-49 14 -78 49.5
t-29 86.5q0 101 93 143v2h-113v52h364z" />
    <glyph glyph-name="omicron" unicode="&#x3bf;" horiz-adv-x="552" 
d="M276 521q108 0 170 -71.5t62 -195.5t-62 -195.5t-170 -71.5t-170 71.5t-62 195.5t62 195.5t170 71.5zM276 467q-78 0 -122.5 -57t-44.5 -156t44.5 -156t122.5 -57q79 0 123.5 57t44.5 156t-44.5 156t-123.5 57z" />
    <glyph glyph-name="pi" unicode="&#x3c0;" horiz-adv-x="642" 
d="M623 508v-52h-125v-306q0 -57 18.5 -79t55.5 -22q14 0 30 4v-51q-21 -7 -50 -7q-58 0 -87 34t-29 115v312h-252v-456h-62v456h-109v52h610z" />
    <glyph glyph-name="rho" unicode="&#x3c1;" horiz-adv-x="565" 
d="M292 521q106 0 167.5 -71.5t61.5 -195.5q0 -123 -61 -194t-165 -71q-111 0 -153 79h-2v-253h-62v439q0 123 58 195t156 72zM292 467q-71 0 -111.5 -57t-40.5 -156q0 -98 40.5 -154.5t111.5 -56.5q77 0 121 56t44 155q0 100 -44 156.5t-121 56.5z" />
    <glyph glyph-name="sigmafinal" unicode="&#x3c2;" horiz-adv-x="497" 
d="M266 521q95 0 149 -51t61 -139h-64q-5 62 -43 99t-103 37q-75 0 -117.5 -50.5t-42.5 -140.5q0 -88 38.5 -133t127.5 -56q82 -10 118 -44.5t36 -93.5q0 -49 -24 -94h-58q21 41 21 80q0 42 -22 64t-83 29q-219 25 -219 243q0 117 60 183.5t165 66.5z" />
    <glyph glyph-name="sigma" unicode="&#x3c3;" horiz-adv-x="581" 
d="M568 508v-52h-151v-2q91 -57 91 -208q0 -120 -62.5 -189.5t-169.5 -69.5t-169.5 70t-62.5 191t62.5 190.5t169.5 69.5h292zM276 457q-78 0 -122 -55t-44 -153t44 -153t122 -55q80 0 124.5 55t44.5 153t-44.5 153t-124.5 55z" />
    <glyph glyph-name="tau" unicode="&#x3c4;" horiz-adv-x="466" 
d="M453 508v-52h-196v-306q0 -57 18.5 -79t55.5 -22q14 0 30 4v-51q-21 -7 -50 -7q-58 0 -87 34t-29 115v312h-182v52h440z" />
    <glyph glyph-name="upsilon" unicode="&#x3c5;" horiz-adv-x="564" 
d="M61 513q49 0 71 -28t22 -99v-207q0 -72 33.5 -105t101.5 -33q152 0 152 208q0 145 -39 259h61q40 -117 40 -260q0 -261 -214 -261q-198 0 -198 189v200q0 49 -10.5 66t-36.5 17q-13 0 -24 -4v51q18 7 41 7z" />
    <glyph glyph-name="phi" unicode="&#x3c6;" horiz-adv-x="735" 
d="M690 254q0 -122 -78.5 -193.5t-213.5 -73.5v-172h-61v172q-135 2 -214 73.5t-79 193.5t79 193.5t214 73.5v141h61v-141q135 -2 213.5 -73.5t78.5 -193.5zM108 254q0 -99 60.5 -155t168.5 -58v426q-108 -2 -168.5 -58t-60.5 -155zM398 467v-426q108 1 168 57.5t60 155.5
t-60 155.5t-168 57.5z" />
    <glyph glyph-name="chi" unicode="&#x3c7;" horiz-adv-x="558" 
d="M59 517q55 0 87 -24.5t60 -90.5l77 -183h2l184 289h72l-224 -348l88 -204q24 -57 45.5 -74.5t55.5 -17.5q19 0 41 5v-52q-22 -7 -51 -7q-52 0 -83.5 24t-60.5 93l-76 179h-2l-188 -291h-71l230 346l-92 211q-24 56 -45 73.5t-58 17.5q-24 0 -41 -7v51q20 10 50 10z" />
    <glyph glyph-name="psi" unicode="&#x3c8;" horiz-adv-x="741" 
d="M679 249q0 -250 -272 -259v-175h-62v175q-267 6 -267 222v296h62v-287q0 -89 51 -131.5t154 -45.5v618h62v-618q210 9 210 208q0 142 -41 256h62q41 -115 41 -259z" />
    <glyph glyph-name="omega" unicode="&#x3c9;" horiz-adv-x="756" 
d="M564 508h65q65 -127 65 -284q0 -237 -173 -237q-111 0 -143 91h-1q-32 -91 -142 -91q-173 0 -173 237q0 157 65 284h64q-66 -126 -66 -278q0 -189 119 -189q103 0 103 134v204h62v-204q0 -134 103 -134q118 0 118 189q0 152 -66 278z" />
    <glyph glyph-name="iotadieresis" unicode="&#x3ca;" horiz-adv-x="259" 
d="M78 508h62v-363q0 -51 17 -73t56 -22q19 0 36 5v-53q-26 -6 -47 -6q-66 0 -95 34.5t-29 112.5v365zM47 712v-88h-61v88h61zM231 712v-88h-61v88h61z" />
    <glyph glyph-name="upsilondieresis" unicode="&#x3cb;" horiz-adv-x="564" 
d="M61 513q49 0 71 -28t22 -99v-207q0 -72 33.5 -105t101.5 -33q152 0 152 208q0 145 -39 259h61q40 -117 40 -260q0 -261 -214 -261q-198 0 -198 189v200q0 49 -10.5 66t-36.5 17q-13 0 -24 -4v51q18 7 41 7zM205 712v-88h-61v88h61zM389 712v-88h-61v88h61z" />
    <glyph glyph-name="omicrontonos" unicode="&#x3cc;" horiz-adv-x="552" 
d="M276 521q108 0 170 -71.5t62 -195.5t-62 -195.5t-170 -71.5t-170 71.5t-62 195.5t62 195.5t170 71.5zM276 467q-78 0 -122.5 -57t-44.5 -156t44.5 -156t122.5 -57q79 0 123.5 57t44.5 156t-44.5 156t-123.5 57zM357 732l-58 -157h-51l45 157h64z" />
    <glyph glyph-name="upsilontonos" unicode="&#x3cd;" horiz-adv-x="564" 
d="M61 513q49 0 71 -28t22 -99v-207q0 -72 33.5 -105t101.5 -33q152 0 152 208q0 145 -39 259h61q40 -117 40 -260q0 -261 -214 -261q-198 0 -198 189v200q0 49 -10.5 66t-36.5 17q-13 0 -24 -4v51q18 7 41 7zM349 732l-58 -157h-51l45 157h64z" />
    <glyph glyph-name="omegatonos" unicode="&#x3ce;" horiz-adv-x="756" 
d="M564 508h65q65 -127 65 -284q0 -237 -173 -237q-111 0 -143 91h-1q-32 -91 -142 -91q-173 0 -173 237q0 157 65 284h64q-66 -126 -66 -278q0 -189 119 -189q103 0 103 134v204h62v-204q0 -134 103 -134q118 0 118 189q0 152 -66 278zM460 732l-58 -157h-51l45 157h64z
" />
    <glyph glyph-name="Iegravecy" unicode="&#x400;" horiz-adv-x="610" 
d="M544 712v-59h-378v-258h359v-59h-359v-277h390v-59h-455v712h443zM206 895h84l90 -135h-59z" />
    <glyph glyph-name="Iocy" unicode="&#x401;" horiz-adv-x="610" 
d="M544 712v-59h-378v-258h359v-59h-359v-277h390v-59h-455v712h443zM260 866v-88h-61v88h61zM444 866v-88h-61v88h61z" />
    <glyph glyph-name="Djecy" unicode="&#x402;" horiz-adv-x="760" 
d="M582 712v-59h-254v-243q75 39 162 39q115 0 177.5 -60.5t62.5 -169.5q0 -105 -65 -167t-175 -62q-53 0 -84 10v60q33 -11 83 -11q82 0 129 46t47 124q0 83 -45 127t-132 44q-86 0 -160 -41v-349h-65v653h-253v59h572z" />
    <glyph glyph-name="Gjecy" unicode="&#x403;" horiz-adv-x="478" 
d="M166 0h-65v712h367v-59h-302v-653zM401 895l-115 -135h-59l90 135h84z" />
    <glyph glyph-name="Ecy" unicode="&#x404;" horiz-adv-x="684" 
d="M564 242h68q-11 -116 -86.5 -185.5t-196.5 -69.5q-141 0 -222.5 98.5t-81.5 270.5t82 270.5t224 98.5q124 0 198 -70t80 -181h-69q-8 87 -64.5 138.5t-144.5 51.5q-104 0 -166.5 -74t-69.5 -204h349v-59h-349q6 -131 68.5 -205t165.5 -74q87 0 145 52.5t70 141.5z" />
    <glyph glyph-name="Dzecy" unicode="&#x405;" horiz-adv-x="599" 
d="M282 725q248 0 248 -234h-66q0 175 -182 175q-75 0 -116 -34.5t-41 -94.5t40.5 -87.5t139.5 -51.5q48 -12 77.5 -21t63.5 -25.5t53 -37t31.5 -52t12.5 -72.5q0 -93 -65.5 -148t-177.5 -55q-122 0 -188.5 64t-66.5 186h65q0 -97 50 -143.5t140 -46.5q86 0 131.5 37
t45.5 105q0 61 -42 89t-146 54q-60 15 -95.5 28t-69.5 35.5t-49.5 57t-15.5 83.5q0 85 60 137t163 52z" />
    <glyph glyph-name="Icy" unicode="&#x406;" horiz-adv-x="267" 
d="M166 712v-712h-65v712h65z" />
    <glyph glyph-name="Yicy" unicode="&#x407;" horiz-adv-x="267" 
d="M166 712v-712h-65v712h65zM71 866v-88h-61v88h61zM255 866v-88h-61v88h61z" />
    <glyph glyph-name="Jecy" unicode="&#x408;" horiz-adv-x="337" 
d="M176 712h66v-519q0 -98 -48 -147.5t-137 -49.5q-24 0 -42 5v60q21 -4 41 -4q120 0 120 138v517z" />
    <glyph glyph-name="Ljecy" unicode="&#x409;" horiz-adv-x="1033" 
d="M593 712v-297h167q117 0 180 -56t63 -152t-63 -151.5t-180 -55.5h-232v653h-286q-6 -278 -28 -419.5t-60.5 -189.5t-111.5 -48q-19 0 -30 4v56q10 -2 18 -2q42 0 66.5 22.5t43 95.5t26.5 198.5t13 341.5h414zM759 356h-166v-297h166q86 0 131 39t45 109q0 71 -45 110
t-131 39z" />
    <glyph glyph-name="Njecy" unicode="&#x40a;" horiz-adv-x="1070" 
d="M630 712v-297h168q117 0 180 -56t63 -152t-63.5 -151.5t-179.5 -55.5h-233v354h-399v-354h-65v712h65v-299h399v299h65zM630 356v-297h166q86 0 131 39t45 109q0 71 -45 110t-131 39h-166z" />
    <glyph glyph-name="Tshecy" unicode="&#x40b;" horiz-adv-x="758" 
d="M505 432q104 0 159.5 -55t55.5 -157v-220h-65v215q0 77 -40 117.5t-117 40.5q-92 0 -170 -26v-347h-65v653h-253v59h572v-59h-254v-247q84 26 177 26z" />
    <glyph glyph-name="Kjecy" unicode="&#x40c;" horiz-adv-x="607" 
d="M570 712l-331 -340l363 -372h-91l-343 357h-2v-357h-65v712h65v-325h2l314 325h88zM432 895l-115 -135h-59l90 135h84z" />
    <glyph glyph-name="Iigravecy" unicode="&#x40d;" horiz-adv-x="745" 
d="M101 712h65v-291q0 -59 -0.5 -178t-0.5 -178h2q29 50 93.5 160.5t99.5 170.5l185 316h99v-712h-65v291q0 237 1 356h-2q-29 -50 -93.5 -160.5t-99.5 -170.5l-185 -316h-99v712zM256 895h84l90 -135h-59z" />
    <glyph glyph-name="Ushortcy" unicode="&#x40e;" horiz-adv-x="633" 
d="M555 712h72l-286 -578q-38 -76 -83 -108.5t-105 -32.5q-35 0 -57 7v58q20 -6 49 -6q46 0 77.5 23t59.5 78l-276 559h72l116 -241q80 -168 121 -252h2q100 207 121 250zM412 895h51q-6 -66 -44 -102.5t-102 -36.5t-102 36.5t-44 102.5h51q6 -43 30.5 -66.5t64.5 -23.5
q81 0 95 90z" />
    <glyph glyph-name="Dzhecy" unicode="&#x40f;" horiz-adv-x="721" 
d="M620 712v-712h-229v-160h-62v160h-228v712h65v-653h389v653h65z" />
    <glyph glyph-name="Acy" unicode="&#x410;" horiz-adv-x="664" 
d="M588 0l-89 230h-334l-89 -230h-70l282 712h89l281 -712h-70zM188 290h287l-28 74q-7 17 -49 126t-65 169h-2q-79 -207 -114 -295z" />
    <glyph glyph-name="Becy" unicode="&#x411;" horiz-adv-x="615" 
d="M534 712v-59h-368v-247h179q108 0 168.5 -54.5t60.5 -148.5t-60.5 -148.5t-168.5 -54.5h-244v712h433zM334 347h-168v-288h168q82 0 127 38t45 106t-45 106t-127 38z" />
    <glyph glyph-name="Vecy" unicode="&#x412;" horiz-adv-x="615" 
d="M101 0v712h221q114 0 172 -48.5t58 -131.5q0 -59 -30 -102.5t-86 -63.5v-2q60 -15 95.5 -60t35.5 -108q0 -90 -60.5 -143t-168.5 -53h-237zM313 335h-147v-278h164q169 0 169 140q0 138 -186 138zM316 655h-150v-263h147q173 0 173 131q0 132 -170 132z" />
    <glyph glyph-name="Gecy" unicode="&#x413;" horiz-adv-x="478" 
d="M166 0h-65v712h367v-59h-302v-653z" />
    <glyph glyph-name="Decy" unicode="&#x414;" horiz-adv-x="699" 
d="M597 59h78v-219h-62v160h-536v-160h-62v219h65q39 64 61 209t27 444h429v-653zM532 59v594h-301q-9 -445 -76 -594h377z" />
    <glyph glyph-name="Iecy" unicode="&#x415;" horiz-adv-x="610" 
d="M544 712v-59h-378v-258h359v-59h-359v-277h390v-59h-455v712h443z" />
    <glyph glyph-name="Zhecy" unicode="&#x416;" horiz-adv-x="856" 
d="M822 712l-286 -340l315 -372h-84l-304 364h-2v-364h-66v364h-2l-304 -364h-84l314 372l-285 340h81l278 -333h2v333h66v-333h2l278 333h81z" />
    <glyph glyph-name="Zecy" unicode="&#x417;" horiz-adv-x="603" 
d="M295 724q114 0 179.5 -51.5t65.5 -138.5q0 -124 -132 -169v-2q147 -42 147 -178q0 -89 -70 -143.5t-188 -54.5q-122 0 -191 58.5t-69 159.5h72q0 -77 48 -117t140 -40q88 0 137 37.5t49 101.5q0 69 -54.5 106.5t-153.5 37.5h-57v60h57q90 0 142.5 37t52.5 100
q0 62 -48 98.5t-130 36.5q-85 0 -131.5 -39.5t-46.5 -114.5h-71q0 101 68.5 158t183.5 57z" />
    <glyph glyph-name="Iicy" unicode="&#x418;" horiz-adv-x="745" 
d="M101 712h65v-291q0 -59 -0.5 -178t-0.5 -178h2q29 50 93.5 160.5t99.5 170.5l185 316h99v-712h-65v291q0 237 1 356h-2q-29 -50 -93.5 -160.5t-99.5 -170.5l-185 -316h-99v712z" />
    <glyph glyph-name="Iishortcy" unicode="&#x419;" horiz-adv-x="745" 
d="M101 712h65v-291q0 -59 -0.5 -178t-0.5 -178h2q29 50 93.5 160.5t99.5 170.5l185 316h99v-712h-65v291q0 237 1 356h-2q-29 -50 -93.5 -160.5t-99.5 -170.5l-185 -316h-99v712zM467 895h51q-6 -66 -44 -102.5t-102 -36.5t-102 36.5t-44 102.5h51q6 -43 30.5 -66.5
t64.5 -23.5q81 0 95 90z" />
    <glyph glyph-name="Kacy" unicode="&#x41a;" horiz-adv-x="607" 
d="M570 712l-331 -340l363 -372h-91l-343 357h-2v-357h-65v712h65v-325h2l314 325h88z" />
    <glyph glyph-name="Elcy" unicode="&#x41b;" horiz-adv-x="694" 
d="M593 712v-712h-65v653h-286q-6 -278 -28 -419.5t-60.5 -189.5t-111.5 -48q-19 0 -30 4v56q10 -2 18 -2q42 0 66.5 22.5t43 95.5t26.5 198.5t13 341.5h414z" />
    <glyph glyph-name="Emcy" unicode="&#x41c;" horiz-adv-x="909" 
d="M808 712v-712h-65v365q0 184 1 276h-2q-23 -59 -108 -278l-142 -363h-76l-141 363q-12 31 -49.5 127.5t-58.5 150.5h-2q1 -92 1 -276v-365h-65v712h105l141 -364l106 -278h2q21 55 61.5 160.5t45.5 117.5l141 364h105z" />
    <glyph glyph-name="Ency" unicode="&#x41d;" horiz-adv-x="731" 
d="M630 712v-712h-65v340h-399v-340h-65v712h65v-313h399v313h65z" />
    <glyph glyph-name="Ocy" unicode="&#x41e;" horiz-adv-x="724" 
d="M362 725q145 0 230.5 -100t85.5 -269t-85.5 -269t-230.5 -100t-231 100t-86 269t86 269t231 100zM362 664q-114 0 -181 -83.5t-67 -224.5t67 -224.5t181 -83.5q113 0 180.5 83.5t67.5 224.5t-67.5 224.5t-180.5 83.5z" />
    <glyph glyph-name="Pecy" unicode="&#x41f;" horiz-adv-x="721" 
d="M620 712v-712h-65v653h-389v-653h-65v712h519z" />
    <glyph glyph-name="Ercy" unicode="&#x420;" horiz-adv-x="606" 
d="M101 0v712h232q117 0 180 -55.5t63 -151.5t-63 -152t-180 -56h-167v-297h-65zM332 653h-166v-297h166q86 0 131 39t45 110q0 70 -45 109t-131 39z" />
    <glyph glyph-name="Escy" unicode="&#x421;" horiz-adv-x="683" 
d="M351 725q123 0 197 -70t80 -181h-68q-8 87 -64.5 138.5t-144.5 51.5q-110 0 -173.5 -82.5t-63.5 -225.5t63 -225.5t172 -82.5q87 0 145 52.5t70 141.5h68q-11 -116 -86.5 -185.5t-196.5 -69.5q-141 0 -222.5 98.5t-81.5 270.5t82 270.5t224 98.5z" />
    <glyph glyph-name="Tecy" unicode="&#x422;" horiz-adv-x="592" 
d="M582 712v-59h-254v-653h-65v653h-253v59h572z" />
    <glyph glyph-name="Ucy" unicode="&#x423;" horiz-adv-x="633" 
d="M555 712h72l-286 -578q-38 -76 -83 -108.5t-105 -32.5q-35 0 -57 7v58q20 -6 49 -6q46 0 77.5 23t59.5 78l-276 559h72l116 -241q80 -168 121 -252h2q100 207 121 250z" />
    <glyph glyph-name="Efcy" unicode="&#x424;" horiz-adv-x="809" 
d="M764 356q0 -135 -87 -214.5t-240 -84.5v-80h-65v80q-153 5 -240 84.5t-87 214.5t87 214.5t240 84.5v80h65v-80q153 -5 240 -84.5t87 -214.5zM114 356q0 -106 69 -170t189 -69v478q-120 -5 -189 -69t-69 -170zM437 595v-478q120 5 189.5 69t69.5 170t-69.5 170t-189.5 69z
" />
    <glyph glyph-name="Hacy" unicode="&#x425;" horiz-adv-x="617" 
d="M593 712l-244 -345l258 -367h-80l-218 313h-2l-218 -313h-79l258 367l-244 345h79l204 -292h2l205 292h79z" />
    <glyph glyph-name="Tsecy" unicode="&#x426;" horiz-adv-x="723" 
d="M620 712v-653h78v-219h-62v160h-535v712h65v-653h389v653h65z" />
    <glyph glyph-name="Checy" unicode="&#x427;" horiz-adv-x="625" 
d="M525 712v-712h-66v309q-89 -26 -188 -26q-113 0 -173 54.5t-60 155.5v219h65v-212q0 -77 45 -117.5t132 -40.5q96 0 179 26v344h66z" />
    <glyph glyph-name="Shacy" unicode="&#x428;" horiz-adv-x="1017" 
d="M916 712v-712h-815v712h65v-653h310v653h65v-653h310v653h65z" />
    <glyph glyph-name="Shchacy" unicode="&#x429;" horiz-adv-x="1018" 
d="M916 712v-653h78v-219h-62v160h-831v712h65v-653h310v653h65v-653h310v653h65z" />
    <glyph glyph-name="Hardsigncy" unicode="&#x42a;" horiz-adv-x="738" 
d="M298 712v-297h167q117 0 180.5 -56t63.5 -152t-63.5 -151.5t-180.5 -55.5h-232v653h-223v59h288zM464 356h-166v-297h166q86 0 131 39t45 109q0 71 -45 110t-131 39z" />
    <glyph glyph-name="Yerucy" unicode="&#x42b;" horiz-adv-x="873" 
d="M333 0h-232v712h65v-297h167q117 0 180 -56t63 -152t-63 -151.5t-180 -55.5zM166 356v-297h166q86 0 131 39t45 109q0 71 -45 110t-131 39h-166zM772 712v-712h-65v712h65z" />
    <glyph glyph-name="Softsigncy" unicode="&#x42c;" horiz-adv-x="606" 
d="M333 0h-232v712h65v-297h167q117 0 180 -56t63 -152t-63 -151.5t-180 -55.5zM166 356v-297h166q86 0 131 39t45 109q0 71 -45 110t-131 39h-166z" />
    <glyph glyph-name="Ereversedcy" unicode="&#x42d;" horiz-adv-x="684" 
d="M333 725q142 0 223.5 -98.5t81.5 -270.5t-81 -270.5t-222 -98.5q-121 0 -197 69.5t-87 185.5h69q11 -89 69 -141.5t146 -52.5q103 0 165.5 74t68.5 205h-350v59h350q-7 130 -70 204t-166 74q-88 0 -145 -52t-65 -138h-68q6 111 80 181t198 70z" />
    <glyph glyph-name="Iucy" unicode="&#x42e;" horiz-adv-x="959" 
d="M613 725q137 0 218.5 -100t81.5 -269t-81.5 -269t-218.5 -100q-131 0 -212 92t-88 248h-147v-327h-65v712h65v-326h147q8 156 88.5 247.5t211.5 91.5zM613 48q106 0 169 83.5t63 224.5t-63 224.5t-169 83.5t-169 -83.5t-63 -224.5t63 -224.5t169 -83.5z" />
    <glyph glyph-name="Iacy" unicode="&#x42f;" horiz-adv-x="613" 
d="M289 712h223v-712h-65v314h-158q-18 0 -48 2l-157 -316h-75l169 329q-133 41 -133 186q0 94 61.5 145.5t182.5 51.5zM447 373v280h-157q-178 0 -178 -138q-1 -64 42.5 -103t130.5 -39h162z" />
    <glyph glyph-name="acy" unicode="&#x430;" horiz-adv-x="524" 
d="M256 521q89 0 139.5 -49t50.5 -146v-201q0 -72 11 -125h-58q-7 34 -7 77h-2q-52 -87 -181 -87q-77 0 -124.5 41t-47.5 105q0 65 43.5 102t149.5 54q73 12 156 18v24q0 68 -35 101t-95 33q-62 0 -96 -30.5t-37 -82.5h-65q5 74 56.5 120t141.5 46zM386 219v39
q-65 -5 -148 -18q-75 -11 -105 -34t-30 -66q0 -45 31.5 -71.5t87.5 -26.5q74 0 117 45q27 28 37 55.5t10 76.5z" />
    <glyph glyph-name="becy" unicode="&#x431;" horiz-adv-x="562" 
d="M498 725v-59q-35 -9 -164 -23q-120 -12 -167 -67t-63 -185h2q45 116 177 116q108 0 171.5 -69t63.5 -188q0 -123 -62 -193t-170 -70q-110 0 -171.5 75t-61.5 209q0 160 29.5 251.5t86 130t154.5 47.5q122 12 175 25zM282 455q-165 0 -165 -199q0 -101 45 -158t124 -57
t123 54t44 151q0 98 -46 153.5t-125 55.5z" />
    <glyph glyph-name="vecy" unicode="&#x432;" horiz-adv-x="516" 
d="M83 0v508h191q89 0 135.5 -35.5t46.5 -96.5q0 -88 -85 -115v-2q42 -9 69 -40t27 -77q0 -67 -46.5 -104.5t-129.5 -37.5h-208zM272 234h-127v-182h127q129 0 129 91t-129 91zM265 456h-120v-172h120q125 0 125 86t-125 86z" />
    <glyph glyph-name="gecy" unicode="&#x433;" horiz-adv-x="405" 
d="M391 508v-52h-246v-456h-62v508h308z" />
    <glyph glyph-name="decy" unicode="&#x434;" horiz-adv-x="556" 
d="M473 52h67v-212h-62v160h-403v-160h-62v212h57q30 43 48.5 142.5t26.5 313.5h328v-456zM411 52v404h-207q-14 -300 -64 -404h271z" />
    <glyph glyph-name="iecy" unicode="&#x435;" horiz-adv-x="539" 
d="M276 40q61 0 100 30.5t51 80.5h64q-13 -70 -68.5 -117t-146.5 -47q-108 0 -170 74.5t-62 201.5q0 115 61.5 186.5t166.5 71.5q85 0 141.5 -48t73.5 -133q8 -36 8 -98h-388q2 -98 49 -150t120 -52zM272 468q-70 0 -115 -47t-49 -128h327q-5 83 -49 129t-114 46z" />
    <glyph glyph-name="zhecy" unicode="&#x436;" horiz-adv-x="652" 
d="M426 280l233 -280h-86l-214 271h-2v-271h-62v271h-2l-214 -271h-86l233 280l-208 228h84l191 -222h2v222h62v-222h2l191 222h84z" />
    <glyph glyph-name="zecy" unicode="&#x437;" horiz-adv-x="477" 
d="M237 521q82 0 129 -38t47 -103q0 -85 -87 -119v-2q101 -33 101 -126q0 -68 -52 -107t-142 -39q-93 0 -144.5 43t-51.5 120h66q0 -107 130 -107q61 0 95 24.5t34 65.5q0 48 -38 73t-109 25h-51v52h51q59 0 96 25.5t37 66.5q0 44 -30 67t-84 23q-123 0 -123 -105h-64
q0 75 51 118t139 43z" />
    <glyph glyph-name="iicy" unicode="&#x438;" horiz-adv-x="598" 
d="M515 508v-508h-65v442h-2q-24 -41 -70.5 -117.5t-63.5 -105.5l-132 -219h-99v508h65v-199q0 -162 -1 -243h2q24 41 70.5 117.5t63.5 105.5l133 219h99z" />
    <glyph glyph-name="iishortcy" unicode="&#x439;" horiz-adv-x="598" 
d="M515 508v-508h-65v442h-2q-24 -41 -70.5 -117.5t-63.5 -105.5l-132 -219h-99v508h65v-199q0 -162 -1 -243h2q24 41 70.5 117.5t63.5 105.5l133 219h99zM394 712h51q-6 -66 -44 -102.5t-102 -36.5t-102 36.5t-44 102.5h51q12 -89 95 -89q81 0 95 89z" />
    <glyph glyph-name="kacy" unicode="&#x43a;" horiz-adv-x="496" 
d="M211 280l275 -280h-86l-253 262h-2v-262h-62v508h62v-213h2l226 213h84z" />
    <glyph glyph-name="elcy" unicode="&#x43b;" horiz-adv-x="540" 
d="M457 508v-508h-62v456h-200q-3 -191 -21.5 -292t-49.5 -134t-87 -33q-19 0 -31 3v51q10 -2 20 -2q41 0 62 32.5t33 131.5t15 295h321z" />
    <glyph glyph-name="emcy" unicode="&#x43c;" horiz-adv-x="734" 
d="M651 508v-508h-61v446h-2q-16 -40 -79 -194l-104 -252h-76l-103 252q-42 99 -80 194h-2v-446h-61v508h103l99 -242q27 -65 81 -200h2q13 33 40.5 100.5t40.5 99.5l100 242h102z" />
    <glyph glyph-name="ency" unicode="&#x43d;" horiz-adv-x="576" 
d="M493 508v-508h-62v228h-286v-228h-62v508h62v-228h286v228h62z" />
    <glyph glyph-name="ocy" unicode="&#x43e;" horiz-adv-x="552" 
d="M276 521q108 0 170 -71.5t62 -195.5t-62 -195.5t-170 -71.5t-170 71.5t-62 195.5t62 195.5t170 71.5zM276 467q-78 0 -122.5 -57t-44.5 -156t44.5 -156t122.5 -57q79 0 123.5 57t44.5 156t-44.5 156t-123.5 57z" />
    <glyph glyph-name="pecy" unicode="&#x43f;" horiz-adv-x="568" 
d="M485 508v-508h-62v456h-278v-456h-62v508h402z" />
    <glyph glyph-name="ercy" unicode="&#x440;" horiz-adv-x="565" 
d="M307 521q98 0 156 -72t58 -194t-58 -194t-156 -72q-54 0 -97 24t-63 64h-2v-262h-62v693h62v-75h2q20 40 63 64t97 24zM297 469q-71 0 -113 -58.5t-42 -155.5t42 -155.5t113 -58.5q73 0 116 58t43 156t-43 156t-116 58z" />
    <glyph glyph-name="escy" unicode="&#x441;" horiz-adv-x="521" 
d="M274 521q86 0 142.5 -52t63.5 -136h-65q-5 59 -44 96.5t-97 37.5q-76 0 -119.5 -57t-43.5 -156q0 -100 43.5 -156.5t119.5 -56.5q57 0 96.5 40.5t44.5 99.5h65q-7 -84 -63 -139t-143 -55q-107 0 -168.5 71.5t-61.5 195.5t61.5 195.5t168.5 71.5z" />
    <glyph glyph-name="tecy" unicode="&#x442;" horiz-adv-x="439" 
d="M432 507v-51h-180v-456h-64v456h-181v52z" />
    <glyph glyph-name="ucy" unicode="&#x443;" horiz-adv-x="456" 
d="M394 508h67l-210 -532q-39 -98 -80 -131.5t-116 -33.5q-22 0 -37 4v55q15 -4 36 -4q55 0 82 25.5t59 108.5l-200 508h67l165 -429h2z" />
    <glyph glyph-name="efcy" unicode="&#x444;" horiz-adv-x="770" 
d="M354 712h62v-232q46 41 106 41q94 0 149 -72t55 -194t-55 -194t-149 -72q-60 0 -106 38v-212h-62v212q-46 -38 -106 -38q-93 0 -148.5 72.5t-55.5 193.5t55.5 193.5t148.5 72.5q60 0 106 -41v232zM259 469q-68 0 -109 -58.5t-41 -155.5t41 -155.5t109 -58.5q55 0 95 42
v341q-40 45 -95 45zM512 469q-56 0 -96 -45v-341q40 -42 96 -42q68 0 109 58.5t41 155.5t-41 155.5t-109 58.5z" />
    <glyph glyph-name="hacy" unicode="&#x445;" horiz-adv-x="467" 
d="M448 508l-178 -242l197 -266h-77l-156 219h-2l-156 -219h-76l196 266l-178 242h76l138 -198h2l139 198h75z" />
    <glyph glyph-name="tsecy" unicode="&#x446;" horiz-adv-x="569" 
d="M485 508v-456h67v-212h-62v160h-407v508h62v-456h278v456h62z" />
    <glyph glyph-name="checy" unicode="&#x447;" horiz-adv-x="503" 
d="M420 508v-508h-62v211q-65 -20 -139 -20q-90 0 -138 41.5t-48 117.5v158h62v-152q0 -54 33.5 -83t97.5 -29q71 0 132 21v243h62z" />
    <glyph glyph-name="shacy" unicode="&#x448;" horiz-adv-x="829" 
d="M746 508v-508h-663v508h62v-456h238v456h62v-456h239v456h62z" />
    <glyph glyph-name="shchacy" unicode="&#x449;" horiz-adv-x="829" 
d="M746 508v-456h57v-212h-62v160h-658v508h62v-456h238v456h62v-456h239v456h62z" />
    <glyph glyph-name="hardsigncy" unicode="&#x44a;" horiz-adv-x="577" 
d="M229 508v-200h130q91 0 140.5 -41t49.5 -113t-49.5 -113t-140.5 -41h-192v456h-160v52h222zM362 256h-133v-204h133q123 0 123 102t-123 102z" />
    <glyph glyph-name="yerucy" unicode="&#x44b;" horiz-adv-x="691" 
d="M145 508v-200h130q91 0 140.5 -41t49.5 -113t-49.5 -113t-140.5 -41h-192v508h62zM278 256h-133v-204h133q123 0 123 102t-123 102zM608 508v-508h-62v508h62z" />
    <glyph glyph-name="softsigncy" unicode="&#x44c;" horiz-adv-x="502" 
d="M145 508v-200h130q91 0 140.5 -41t49.5 -113t-49.5 -113t-140.5 -41h-192v508h62zM278 256h-133v-204h133q123 0 123 102t-123 102z" />
    <glyph glyph-name="ereversedcy" unicode="&#x44d;" horiz-adv-x="521" 
d="M247 521q106 0 167.5 -71.5t61.5 -195.5t-61.5 -195.5t-167.5 -71.5q-87 0 -143 54.5t-64 139.5h65q5 -59 45 -99.5t97 -40.5q72 0 114.5 51t47.5 140h-249v52h249q-7 86 -49.5 134.5t-112.5 48.5q-60 0 -99 -40t-43 -94h-65q7 78 63 133t144 55z" />
    <glyph glyph-name="iucy" unicode="&#x44e;" horiz-adv-x="760" 
d="M484 521q108 0 170 -71.5t62 -195.5t-62 -195.5t-170 -71.5q-102 0 -163 63.5t-68 176.5h-108v-227h-62v508h62v-228l108 1q7 113 68 176.5t163 63.5zM484 41q79 0 123.5 57t44.5 156t-44.5 156t-123.5 57q-78 0 -122.5 -57t-44.5 -156t44.5 -156t122.5 -57z" />
    <glyph glyph-name="iacy" unicode="&#x44f;" horiz-adv-x="511" 
d="M239 508h189v-508h-64v202h-145l-123 -202h-77l135 212q-108 33 -108 145q0 71 49 111t144 40zM364 254v202h-124q-127 0 -127 -99q-1 -47 29.5 -75t92.5 -28h129z" />
    <glyph glyph-name="iegravecy" unicode="&#x450;" horiz-adv-x="539" 
d="M276 40q61 0 100 30.5t51 80.5h64q-13 -70 -68.5 -117t-146.5 -47q-108 0 -170 74.5t-62 201.5q0 115 61.5 186.5t166.5 71.5q85 0 141.5 -48t73.5 -133q8 -36 8 -98h-388q2 -98 49 -150t120 -52zM272 468q-70 0 -115 -47t-49 -128h327q-5 83 -49 129t-114 46zM327 571
h-59l-115 141h84z" />
    <glyph glyph-name="iocy" unicode="&#x451;" horiz-adv-x="539" 
d="M276 40q61 0 100 30.5t51 80.5h64q-13 -70 -68.5 -117t-146.5 -47q-108 0 -170 74.5t-62 201.5q0 115 61.5 186.5t166.5 71.5q85 0 141.5 -48t73.5 -133q8 -36 8 -98h-388q2 -98 49 -150t120 -52zM272 468q-70 0 -115 -47t-49 -128h327q-5 83 -49 129t-114 46zM207 712
v-88h-61v88h61zM391 712v-88h-61v88h61z" />
    <glyph glyph-name="djecy" unicode="&#x452;" 
d="M304 465q88 0 134.5 -53t46.5 -157v-302q0 -142 -132 -142q-20 0 -36 4v54q15 -3 29 -3q39 0 58 20.5t19 68.5v297q0 86 -33 122.5t-97 36.5q-63 0 -105.5 -43.5t-42.5 -120.5v-247h-62v567h-69v48h69v97h62v-97h232v-48h-232v-181h2q51 79 157 79z" />
    <glyph glyph-name="gjecy" unicode="&#x453;" horiz-adv-x="405" 
d="M391 508v-52h-246v-456h-62v508h308zM353 712l-115 -141h-59l90 141h84z" />
    <glyph glyph-name="ecy" unicode="&#x454;" horiz-adv-x="521" 
d="M274 41q57 0 96.5 40.5t44.5 99.5h65q-7 -84 -63 -139t-143 -55q-107 0 -168.5 71.5t-61.5 195.5t61.5 195.5t168.5 71.5q88 0 144 -55t62 -133h-65q-4 54 -43 94t-98 40q-70 0 -113 -48.5t-50 -134.5h249v-52h-249q5 -89 48 -140t115 -51z" />
    <glyph glyph-name="dzecy" unicode="&#x455;" horiz-adv-x="479" 
d="M230 521q90 0 140 -45.5t51 -128.5h-62q0 57 -34 88.5t-95 31.5q-52 0 -83.5 -23t-31.5 -61q0 -43 25.5 -58t102.5 -33q30 -7 41.5 -9.5t37.5 -10.5t37.5 -14.5t29.5 -19t26 -26t14.5 -33.5t6.5 -44q0 -66 -52 -107t-138 -41q-96 0 -150 48t-55 136h63q0 -62 37 -96
t105 -34q57 0 92.5 25t35.5 65q0 47 -30.5 65t-120.5 39q-28 7 -37 9t-33 9.5t-33.5 13t-25.5 17t-23 23.5t-12.5 30.5t-5.5 40.5q0 64 49.5 103.5t127.5 39.5z" />
    <glyph glyph-name="icy" unicode="&#x456;" horiz-adv-x="228" 
d="M145 508v-508h-62v508h62zM145 712v-88h-62v88h62z" />
    <glyph glyph-name="yicy" unicode="&#x457;" horiz-adv-x="228" 
d="M145 508v-508h-62v508h62zM73 712v-88h-61v88h61zM217 712v-88h-61v88h61z" />
    <glyph glyph-name="jecy" unicode="&#x458;" horiz-adv-x="235" 
d="M90 508h62v-545q0 -152 -133 -152q-19 0 -36 4v54q17 -3 30 -3q38 0 57.5 22.5t19.5 75.5v544zM152 712v-88h-62v88h62z" />
    <glyph glyph-name="ljecy" unicode="&#x459;" horiz-adv-x="814" 
d="M457 508v-200h130q91 0 140.5 -41t49.5 -113t-49.5 -113t-140.5 -41h-192v456h-200q-3 -191 -21.5 -292t-49.5 -134t-87 -33q-19 0 -31 3v51q10 -2 20 -2q41 0 62 32.5t33 131.5t15 295h321zM590 256h-133v-204h133q123 0 123 102t-123 102z" />
    <glyph glyph-name="njecy" unicode="&#x45a;" horiz-adv-x="850" 
d="M493 508v-200h130q91 0 140.5 -41t49.5 -113t-49.5 -113t-140.5 -41h-192v254h-286v-254h-62v508h62v-202h286v202h62zM626 256h-133v-204h133q123 0 123 102t-123 102z" />
    <glyph glyph-name="tshecy" unicode="&#x45b;" 
d="M304 465q88 0 134.5 -53t46.5 -157v-255h-62v252q0 86 -33 122.5t-97 36.5q-63 0 -105.5 -43.5t-42.5 -120.5v-247h-62v567h-69v48h69v97h62v-97h232v-48h-232v-181h2q51 79 157 79z" />
    <glyph glyph-name="kjecy" unicode="&#x45c;" horiz-adv-x="496" 
d="M211 280l275 -280h-86l-253 262h-2v-262h-62v508h62v-213h2l226 213h84zM375 712l-115 -141h-59l90 141h84z" />
    <glyph glyph-name="iigravecy" unicode="&#x45d;" horiz-adv-x="598" 
d="M515 508v-508h-65v442h-2q-24 -41 -70.5 -117.5t-63.5 -105.5l-132 -219h-99v508h65v-199q0 -162 -1 -243h2q24 41 70.5 117.5t63.5 105.5l133 219h99zM183 712h84l90 -141h-59z" />
    <glyph glyph-name="ushortcy" unicode="&#x45e;" horiz-adv-x="456" 
d="M394 508h67l-210 -532q-39 -98 -80 -131.5t-116 -33.5q-22 0 -37 4v55q15 -4 36 -4q55 0 82 25.5t59 108.5l-200 508h67l165 -429h2zM324 712h51q-6 -66 -44 -102.5t-102 -36.5t-102 36.5t-44 102.5h51q12 -89 95 -89q81 0 95 89z" />
    <glyph glyph-name="dzhecy" unicode="&#x45f;" horiz-adv-x="568" 
d="M485 508v-508h-170v-160h-62v160h-170v508h62v-456h278v456h62z" />
    <glyph glyph-name="Gheupturncy" unicode="&#x490;" horiz-adv-x="478" 
d="M468 865v-212h-302v-653h-65v712h305v153h62z" />
    <glyph glyph-name="gheupturncy" unicode="&#x491;" horiz-adv-x="405" 
d="M391 668v-212h-246v-456h-62v508h246v160h62z" />
    <glyph glyph-name="Ghestrokecy" unicode="&#x492;" horiz-adv-x="478" 
d="M468 653h-302v-278h144v-54h-144v-321h-65v321h-66v54h66v337h367v-59z" />
    <glyph glyph-name="ghestrokecy" unicode="&#x493;" horiz-adv-x="406" 
d="M391 456h-246v-181h135v-48h-135v-227h-62v227h-58v48h58v233h308v-52z" />
    <glyph glyph-name="Zhedescendercy" unicode="&#x496;" horiz-adv-x="856" 
d="M801 59h50v-219h-62v160h-22l-304 364h-2v-364h-66v364h-2l-304 -364h-84l314 372l-285 340h81l278 -333h2v333h66v-333h2l278 333h81l-286 -340z" />
    <glyph glyph-name="zhedescendercy" unicode="&#x497;" horiz-adv-x="652" 
d="M616 52h43v-212h-62v160h-24l-214 271h-2v-271h-62v271h-2l-214 -271h-86l233 280l-208 228h84l191 -222h2v222h62v-222h2l191 222h84l-208 -228z" />
    <glyph glyph-name="Kadescendercy" unicode="&#x49a;" horiz-adv-x="607" 
d="M544 59h58v-219h-62v160h-29l-343 357h-2v-357h-65v712h65v-325h2l314 325h88l-331 -340z" />
    <glyph glyph-name="kadescendercy" unicode="&#x49b;" horiz-adv-x="496" 
d="M435 52h51v-212h-62v160h-24l-253 262h-2v-262h-62v508h62v-213h2l226 213h84l-246 -228z" />
    <glyph glyph-name="Kaverticalstrokecy" unicode="&#x49c;" horiz-adv-x="672" 
d="M583 0l-288 340h-1v-179h-63v179h-65v-340h-65v712h65v-313h65v179h63v-179h2l261 313h81l-287 -343l316 -369h-84z" />
    <glyph glyph-name="kaverticalstrokecy" unicode="&#x49d;" horiz-adv-x="542" 
d="M463 0l-198 253h-2v-145h-59v145h-59v-253h-62v508h62v-203h59v135h59v-135h2l175 203h83l-206 -227l232 -281h-86z" />
    <glyph glyph-name="Endescendercy" unicode="&#x4a2;" horiz-adv-x="733" 
d="M708 59v-219h-62v160h-81v340h-399v-340h-65v712h65v-313h399v313h65v-653h78z" />
    <glyph glyph-name="endescendercy" unicode="&#x4a3;" horiz-adv-x="576" 
d="M560 52v-212h-62v160h-67v228h-286v-228h-62v508h62v-228h286v228h62v-456h67z" />
    <glyph glyph-name="Ustraitcy" unicode="&#x4ae;" horiz-adv-x="602" 
d="M597 712l-263 -408v-304h-66v304l-263 408h77l98 -154q40 -63 120 -191h2q80 128 121 191l97 154h77z" />
    <glyph glyph-name="ustraitcy" unicode="&#x4af;" horiz-adv-x="450" 
d="M388 508h67l-200 -515v-178h-61v178l-199 515h67l162 -430h2z" />
    <glyph glyph-name="Hadescendercy" unicode="&#x4b2;" horiz-adv-x="617" 
d="M566 59h46v-219h-62v160h-23l-218 313h-2l-218 -313h-79l258 367l-244 345h79l204 -292h2l205 292h79l-244 -345z" />
    <glyph glyph-name="hadescendercy" unicode="&#x4b3;" horiz-adv-x="467" 
d="M428 52h39v-212h-62v160h-15l-156 219h-2l-156 -219h-76l196 266l-178 242h76l138 -198h2l139 198h75l-178 -242z" />
    <glyph glyph-name="Cheverticalstrokecy" unicode="&#x4b8;" horiz-adv-x="625" 
d="M459 712h66v-712h-66v309q-70 -19 -142 -25v-153h-64v152q-105 4 -160 58.5t-55 151.5v219h65v-212q0 -71 38.5 -111t111.5 -46v221h64v-221q77 4 142 25v344z" />
    <glyph glyph-name="cheverticalstrokecy" unicode="&#x4b9;" horiz-adv-x="503" 
d="M358 508h62v-508h-62v211q-47 -15 -103 -19v-104h-59v104q-79 5 -121 46t-42 112v158h62v-152q0 -98 101 -110v166h59v-167q51 3 103 20v243z" />
    <glyph glyph-name="Shhacy" unicode="&#x4ba;" horiz-adv-x="625" 
d="M101 0v712h65v-309q91 26 188 26q113 0 173.5 -54.5t60.5 -155.5v-219h-66v212q0 77 -45 117.5t-132 40.5q-96 0 -179 -26v-344h-65z" />
    <glyph glyph-name="shhacy" unicode="&#x4bb;" 
d="M145 712v-272h2q51 79 157 79q88 0 134.5 -53t46.5 -157v-309h-62v306q0 86 -33 122.5t-97 36.5q-63 0 -105.5 -43.5t-42.5 -120.5v-301h-62v712h62z" />
    <glyph glyph-name="Palochkacy" unicode="&#x4c0;" horiz-adv-x="267" 
d="M166 712v-712h-65v712h65z" />
    <glyph glyph-name="palochkacy" unicode="&#x4cf;" horiz-adv-x="228" 
d="M145 712v-712h-62v712h62z" />
    <glyph glyph-name="Schwacy" unicode="&#x4d8;" horiz-adv-x="729" 
d="M351 725q154 0 243.5 -100t89.5 -269q0 -166 -87.5 -267.5t-237.5 -101.5q-145 0 -229.5 99.5t-84.5 269.5q0 10 2 24h568q-4 135 -76 209.5t-188 74.5q-88 0 -145.5 -45t-72.5 -119h-72q17 98 93 161.5t197 63.5zM359 48q112 0 181 74t74 199h-500q6 -129 72.5 -201
t172.5 -72z" />
    <glyph glyph-name="schwacy" unicode="&#x4d9;" horiz-adv-x="539" 
d="M259 521q110 0 173 -72.5t63 -194.5q0 -119 -62 -193t-168 -74q-102 0 -161.5 72t-59.5 195q0 14 1 20h387q-3 94 -50.5 144t-122.5 50q-57 0 -93.5 -30.5t-46.5 -80.5h-64q12 70 64.5 117t139.5 47zM265 40q72 0 117 49t49 134h-327q5 -87 48.5 -135t112.5 -48z" />
    <glyph glyph-name="Obarredcy" unicode="&#x4e8;" horiz-adv-x="724" 
d="M362 725q145 0 230.5 -100t85.5 -269t-85.5 -269t-230.5 -100t-231 100t-86 269t86 269t231 100zM362 48q108 0 174 75t73 204h-495q8 -129 74 -204t174 -75zM362 664q-108 0 -174 -74.5t-74 -203.5h495q-7 128 -73 203t-174 75z" />
    <glyph glyph-name="obarredcy" unicode="&#x4e9;" horiz-adv-x="553" 
d="M276 521q108 0 170.5 -71.5t62.5 -195.5t-62.5 -195.5t-170.5 -71.5t-170 71.5t-62 195.5t62 195.5t170 71.5zM276 41q73 0 118 50t50 138h-335q6 -88 50 -138t117 -50zM276 467q-73 0 -117 -49.5t-50 -137.5h335q-6 88 -50.5 137.5t-117.5 49.5z" />
    <glyph glyph-name="Wgrave" unicode="&#x1e80;" horiz-adv-x="896" 
d="M885 712l-174 -712h-102l-80 325q-54 218 -80 327h-2q-26 -109 -80 -327l-80 -325h-102l-174 712h66l74 -303q29 -116 85 -348h2q14 58 42.5 175t43.5 175l74 301h100l74 -301q14 -58 42.5 -175t43.5 -175h2l84 348l75 303h66zM333 895h84l90 -135h-59z" />
    <glyph glyph-name="wgrave" unicode="&#x1e81;" horiz-adv-x="750" 
d="M742 508l-147 -508h-89l-66 230q-40 138 -64 222h-2q-24 -84 -64 -222l-66 -230h-89l-147 508h64l62 -220q20 -68 65 -232h2l127 452h94l127 -452h2q45 164 65 232l62 220h64zM259 712h84l90 -141h-59z" />
    <glyph glyph-name="Wacute" unicode="&#x1e82;" horiz-adv-x="896" 
d="M885 712l-174 -712h-102l-80 325q-54 218 -80 327h-2q-26 -109 -80 -327l-80 -325h-102l-174 712h66l74 -303q29 -116 85 -348h2q14 58 42.5 175t43.5 175l74 301h100l74 -301q14 -58 42.5 -175t43.5 -175h2l84 348l75 303h66zM565 895l-115 -135h-59l90 135h84z" />
    <glyph glyph-name="wacute" unicode="&#x1e83;" horiz-adv-x="750" 
d="M742 508l-147 -508h-89l-66 230q-40 138 -64 222h-2q-24 -84 -64 -222l-66 -230h-89l-147 508h64l62 -220q20 -68 65 -232h2l127 452h94l127 -452h2q45 164 65 232l62 220h64zM491 712l-115 -141h-59l90 141h84z" />
    <glyph glyph-name="Wdieresis" unicode="&#x1e84;" horiz-adv-x="896" 
d="M885 712l-174 -712h-102l-80 325q-54 218 -80 327h-2q-26 -109 -80 -327l-80 -325h-102l-174 712h66l74 -303q29 -116 85 -348h2q14 58 42.5 175t43.5 175l74 301h100l74 -301q14 -58 42.5 -175t43.5 -175h2l84 348l75 303h66zM387 866v-88h-61v88h61zM571 866v-88h-61
v88h61z" />
    <glyph glyph-name="wdieresis" unicode="&#x1e85;" horiz-adv-x="750" 
d="M742 508l-147 -508h-89l-66 230q-40 138 -64 222h-2q-24 -84 -64 -222l-66 -230h-89l-147 508h64l62 -220q20 -68 65 -232h2l127 452h94l127 -452h2q45 164 65 232l62 220h64zM313 712v-88h-61v88h61zM497 712v-88h-61v88h61z" />
    <glyph glyph-name="Germandbls" unicode="&#x1e9e;" horiz-adv-x="752" 
d="M645 603l-174 -183q232 -43 232 -230q0 -96 -61 -148.5t-165 -52.5q-101 0 -155.5 48t-54.5 139h67q0 -61 36 -94t107 -33q74 0 116 36.5t42 104.5q0 85 -60 128t-180 53v52l166 175q-69 67 -180 67t-168 -59t-57 -176v-430h-65v430q0 141 76 218t215 77q82 0 150.5 -33
t112.5 -89z" />
    <glyph glyph-name="Ygrave" unicode="&#x1ef2;" horiz-adv-x="602" 
d="M597 712l-263 -408v-304h-66v304l-263 408h77l98 -154q40 -63 120 -191h2q80 128 121 191l97 154h77zM185 895h84l90 -135h-59z" />
    <glyph glyph-name="ygrave" unicode="&#x1ef3;" horiz-adv-x="456" 
d="M394 508h67l-210 -532q-39 -98 -80 -131.5t-116 -33.5q-22 0 -37 4v55q15 -4 36 -4q55 0 82 25.5t59 108.5l-200 508h67l165 -429h2zM112 712h84l90 -141h-59z" />
    <glyph glyph-name="hyphentwo" unicode="&#x2010;" horiz-adv-x="290" 
d="M260 323v-62h-230v62h230z" />
    <glyph glyph-name="endash" unicode="&#x2013;" horiz-adv-x="500" 
d="M480 323v-62h-460v62h460z" />
    <glyph glyph-name="emdash" unicode="&#x2014;" horiz-adv-x="1000" 
d="M980 323v-62h-960v62h960z" />
    <glyph glyph-name="horizontalbar" unicode="&#x2015;" horiz-adv-x="1000" 
d="M980 323v-62h-960v62h960z" />
    <glyph glyph-name="underscoredbl" unicode="&#x2017;" horiz-adv-x="500" 
d="M500 -50v-38h-500v38h500zM500 -172v-38h-500v38h500z" />
    <glyph glyph-name="quoteleft" unicode="&#x2018;" horiz-adv-x="229" 
d="M72 494v90l41 128h44l-30 -128h29v-90h-84z" />
    <glyph glyph-name="quoteright" unicode="&#x2019;" horiz-adv-x="229" 
d="M156 712v-90l-40 -128h-44l29 128h-29v90h84z" />
    <glyph glyph-name="quotesinglbase" unicode="&#x201a;" horiz-adv-x="229" 
d="M156 90v-90l-40 -128h-44l29 128h-29v90h84z" />
    <glyph glyph-name="quotereversed" unicode="&#x201b;" horiz-adv-x="229" 
d="M72 712h84v-90h-29l30 -128h-44l-41 128v90z" />
    <glyph glyph-name="quotedblleft" unicode="&#x201c;" horiz-adv-x="379" 
d="M72 494v90l41 128h44l-30 -128h29v-90h-84zM222 494v90l41 128h44l-30 -128h29v-90h-84z" />
    <glyph glyph-name="quotedblright" unicode="&#x201d;" horiz-adv-x="379" 
d="M156 712v-90l-40 -128h-44l29 128h-29v90h84zM306 712v-90l-40 -128h-44l29 128h-29v90h84z" />
    <glyph glyph-name="quotedblbase" unicode="&#x201e;" horiz-adv-x="379" 
d="M156 90v-90l-40 -128h-44l29 128h-29v90h84zM306 90v-90l-40 -128h-44l29 128h-29v90h84z" />
    <glyph glyph-name="dagger" unicode="&#x2020;" horiz-adv-x="523" 
d="M294 712v-197h175v-55h-175v-580h-65v580h-175v55h175v197h65z" />
    <glyph glyph-name="daggerdbl" unicode="&#x2021;" horiz-adv-x="523" 
d="M294 712v-196h175v-55h-175v-268h175v-55h-175v-258h-65v258h-175v55h175v268h-175v55h175v196h65z" />
    <glyph glyph-name="bullet" unicode="&#x2022;" horiz-adv-x="322" 
d="M161 254q-42 0 -72 30t-30 72t30 72t72 30q43 0 73 -30t30 -72t-30 -72t-73 -30z" />
    <glyph glyph-name="ellipsis" unicode="&#x2026;" horiz-adv-x="681" 
d="M148 92v-92h-86v92h86zM383 92v-92h-85v92h85zM619 92v-92h-86v92h86z" />
    <glyph glyph-name="perthousand" unicode="&#x2030;" horiz-adv-x="975" 
d="M498 313q62 0 95.5 -42.5t33.5 -120.5t-33.5 -120t-95.5 -42q-61 0 -95 42t-34 120t34 120.5t95 42.5zM498 261q-32 0 -50 -28.5t-18 -82.5q0 -53 18 -82t50 -29q33 0 51 29t18 82q0 111 -69 111zM816 313q62 0 95.5 -42.5t33.5 -120.5t-33.5 -120t-95.5 -42
q-61 0 -95 42t-34 120t34 120.5t95 42.5zM816 261q-32 0 -50 -28.5t-18 -82.5q0 -53 18 -82t50 -29q33 0 51 29t18 82q0 111 -69 111zM159 687q62 0 95.5 -42t33.5 -120t-33.5 -120.5t-95.5 -42.5t-95.5 42.5t-33.5 120.5t33.5 120t95.5 42zM159 636q-32 0 -50.5 -29
t-18.5 -82t18 -82t51 -29t51 29t18 82t-18.5 82t-50.5 29zM572 704l-424 -734h-62l423 734h63z" />
    <glyph glyph-name="minute" unicode="&#x2032;" horiz-adv-x="172" 
d="M142 674l-70 -220h-42l47 220h65z" />
    <glyph glyph-name="second" unicode="&#x2033;" horiz-adv-x="296" 
d="M142 674l-70 -220h-42l47 220h65zM275 674l-70 -220h-42l47 220h65z" />
    <glyph glyph-name="guilsinglleft" unicode="&#x2039;" horiz-adv-x="276" 
d="M226 454l-112 -200l112 -200h-62l-114 200l114 200h62z" />
    <glyph glyph-name="guilsinglright" unicode="&#x203a;" horiz-adv-x="276" 
d="M50 454h62l114 -200l-114 -200h-62l112 200z" />
    <glyph glyph-name="exclamdouble" unicode="&#x203c;" horiz-adv-x="463" 
d="M165 93v-93h-79v93h79zM377 93v-93h-79v93h79zM167 712l-16 -548h-51l-16 548h83zM380 712l-16 -548h-52l-16 548h84z" />
    <glyph glyph-name="interrobang" unicode="&#x203d;" horiz-adv-x="501" 
d="M206 0v93h79v-93h-79zM206 712h76l-2 -67q82 -4 131.5 -47.5t49.5 -110.5q0 -55 -21 -91.5t-89 -90.5q-50 -39 -64.5 -65t-14.5 -85h-52l-11 427q-102 -22 -110 -130h-64q4 81 49 129.5t124 60.5zM314 343q49 46 64 74t15 69q0 43 -30.5 69.5t-83.5 30.5l-8 -282h2
q14 15 41 39z" />
    <glyph glyph-name="overline" unicode="&#x203e;" horiz-adv-x="500" 
d="M500 845v-52h-500v52h500z" />
    <glyph glyph-name="fraction" unicode="&#x2044;" horiz-adv-x="147" 
d="M302 674l-392 -674h-65l392 674h65z" />
    <glyph glyph-name="zerosuperior" unicode="&#x2070;" horiz-adv-x="416" 
d="M208 812q83 0 126.5 -63t43.5 -183q0 -119 -44 -182.5t-126 -63.5t-125.5 63.5t-43.5 182.5q0 120 43.5 183t125.5 63zM208 760q-53 0 -82 -50t-29 -144q0 -95 29 -145.5t82 -50.5t82 50.5t29 145.5q0 94 -29 144t-82 50z" />
    <glyph glyph-name="foursuperior" unicode="&#x2074;" horiz-adv-x="384" 
d="M373 504v-50h-82v-124h-55v124h-225v55l206 293h74v-298h82zM123 582l-56 -78h170v237h-2q-14 -20 -52.5 -74.5t-59.5 -84.5z" />
    <glyph glyph-name="fivesuperior" unicode="&#x2075;" horiz-adv-x="396" 
d="M335 802v-50h-215l-15 -148h2q34 36 94 36q72 0 114 -42t42 -113q0 -76 -44.5 -120.5t-119.5 -44.5q-69 0 -111 36.5t-42 98.5h58q1 -39 27 -61t68 -22q49 0 77.5 30t28.5 81q0 49 -27.5 78t-73.5 29q-77 0 -98 -71l-57 4l27 279h265z" />
    <glyph glyph-name="sixsuperior" unicode="&#x2076;" horiz-adv-x="401" 
d="M213 812q63 0 102 -35t44 -96h-58q-14 79 -89 79q-54 0 -85 -45t-34 -135h2q40 58 119 58q68 0 110 -43t42 -113q0 -72 -44.5 -117t-115.5 -45q-82 0 -124.5 57.5t-42.5 169.5q0 129 45 197t129 68zM207 588q-46 0 -75 -30t-29 -77q0 -51 28 -80t75 -29q45 0 73.5 30.5
t28.5 79.5q0 47 -27.5 76.5t-73.5 29.5z" />
    <glyph glyph-name="sevensuperior" unicode="&#x2077;" horiz-adv-x="348" 
d="M11 802h326v-51q-125 -173 -175 -421h-64q60 248 178 422h-265v50z" />
    <glyph glyph-name="eightsuperior" unicode="&#x2078;" horiz-adv-x="399" 
d="M200 812q68 0 111.5 -37t43.5 -94q0 -69 -79 -106v-2q89 -32 89 -114q0 -61 -46 -100t-119 -39t-119 38.5t-46 100.5q0 83 88 114v2q-79 37 -79 106q0 57 43.5 94t112.5 37zM200 549q-47 0 -77 -25t-30 -63q0 -41 29.5 -65t77.5 -24t77 24t29 65q0 38 -30 63t-76 25z
M200 760q-44 0 -71 -21.5t-27 -57.5q0 -38 26.5 -60.5t71.5 -22.5q44 0 71 22.5t27 60.5q0 36 -27 57.5t-71 21.5z" />
    <glyph glyph-name="ninesuperior" unicode="&#x2079;" horiz-adv-x="401" 
d="M188 320q-63 0 -102 35t-44 96h58q14 -79 89 -79q54 0 85 45t34 135h-2q-40 -58 -119 -58q-68 0 -110 43t-42 113q0 72 44.5 117t116.5 45q81 0 123.5 -57.5t42.5 -169.5q0 -129 -45 -197t-129 -68zM194 544q46 0 75 30t29 77q0 51 -28 80t-75 29q-45 0 -73.5 -30.5
t-28.5 -79.5q0 -47 27.5 -76.5t73.5 -29.5z" />
    <glyph glyph-name="plussuperior" unicode="&#x207a;" horiz-adv-x="405" 
d="M226 699v-124h127v-47h-127v-123h-47v123h-127v47h127v124h47z" />
    <glyph glyph-name="minussuperior" unicode="&#x207b;" horiz-adv-x="405" 
d="M353 575v-47h-301v47h301z" />
    <glyph glyph-name="equalsuperior" unicode="&#x207c;" horiz-adv-x="405" 
d="M353 631v-47h-301v47h301zM353 519v-47h-301v47h301z" />
    <glyph glyph-name="parenleftsuperior" unicode="&#x207d;" horiz-adv-x="204" 
d="M134 849h49q-85 -148 -85 -311t85 -311h-49q-96 141 -96 311q0 169 96 311z" />
    <glyph glyph-name="parenrightsuperior" unicode="&#x207e;" horiz-adv-x="204" 
d="M70 227h-49q85 148 85 311t-85 311h49q96 -141 96 -311q0 -169 -96 -311z" />
    <glyph glyph-name="zeroinferior" unicode="&#x2080;" horiz-adv-x="416" 
d="M207 310q83 0 126.5 -63t43.5 -183q0 -119 -44 -182.5t-126 -63.5t-125.5 63.5t-43.5 182.5q0 120 43.5 183t125.5 63zM207 258q-53 0 -82 -50t-29 -144q0 -95 29 -145.5t82 -50.5t82 50.5t29 145.5q0 94 -29 144t-82 50z" />
    <glyph glyph-name="oneinferior" unicode="&#x2081;" horiz-adv-x="248" 
d="M171 300v-472h-56v348h-105v45q56 0 82.5 18t33.5 61h45z" />
    <glyph glyph-name="twoinferior" unicode="&#x2082;" horiz-adv-x="402" 
d="M204 310q67 0 108.5 -36.5t41.5 -95.5q0 -56 -34.5 -92t-104.5 -76q-69 -39 -93.5 -67.5t-24.5 -64.5h268v-50h-324q-2 5 -2 15q0 72 28.5 116.5t116.5 93.5q61 34 85.5 59t24.5 66q0 36 -24.5 58t-66.5 22q-92 0 -98 -94h-59q3 68 46 107t112 39z" />
    <glyph glyph-name="threeinferior" unicode="&#x2083;" horiz-adv-x="396" 
d="M193 310q72 0 114 -35.5t42 -93.5q0 -78 -81 -111v-2q47 -17 68 -44.5t21 -72.5q0 -58 -46 -95.5t-117 -37.5q-76 0 -119 40t-43 109h58q0 -98 104 -98q46 0 75 23t29 61q0 89 -120 89h-18v50h18q52 0 82.5 22.5t30.5 62.5q0 37 -27 59t-73 22q-97 0 -97 -95h-58
q0 69 42.5 108t114.5 39z" />
    <glyph glyph-name="fourinferior" unicode="&#x2084;" horiz-adv-x="384" 
d="M372 2v-50h-82v-124h-55v124h-225v55l206 293h74v-298h82zM122 80l-56 -78h170v237h-2q-14 -20 -52.5 -74.5t-59.5 -84.5z" />
    <glyph glyph-name="fiveinferior" unicode="&#x2085;" horiz-adv-x="396" 
d="M335 300v-50h-215l-15 -148h2q34 36 94 36q72 0 114 -42t42 -113q0 -76 -44.5 -120.5t-119.5 -44.5q-69 0 -111 36.5t-42 98.5h58q1 -39 27 -61t68 -22q49 0 77.5 30t28.5 81q0 49 -27.5 78t-73.5 29q-77 0 -98 -71l-57 4l27 279h265z" />
    <glyph glyph-name="sixinferior" unicode="&#x2086;" horiz-adv-x="401" 
d="M212 310q63 0 102 -35t44 -96h-58q-14 79 -89 79q-54 0 -85 -45t-34 -135h2q40 58 119 58q68 0 110 -43t42 -113q0 -72 -44.5 -117t-115.5 -45q-82 0 -124.5 57.5t-42.5 169.5q0 129 45 197t129 68zM206 86q-46 0 -75 -30t-29 -77q0 -51 28 -80t75 -29q45 0 73.5 30.5
t28.5 79.5q0 47 -27.5 76.5t-73.5 29.5z" />
    <glyph glyph-name="seveninferior" unicode="&#x2087;" horiz-adv-x="348" 
d="M10 300h326v-51q-125 -173 -175 -421h-64q60 248 178 422h-265v50z" />
    <glyph glyph-name="eightinferior" unicode="&#x2088;" horiz-adv-x="399" 
d="M200 310q68 0 111.5 -37t43.5 -94q0 -69 -79 -106v-2q89 -32 89 -114q0 -61 -46 -100t-119 -39t-119 38.5t-46 100.5q0 83 88 114v2q-79 37 -79 106q0 57 43.5 94t112.5 37zM200 258q-44 0 -71 -21.5t-27 -57.5q0 -38 26.5 -60.5t71.5 -22.5q44 0 71 22.5t27 60.5
q0 36 -27 57.5t-71 21.5zM200 47q-47 0 -77 -25t-30 -63q0 -41 29.5 -65t77.5 -24t77 24t29 65q0 38 -30 63t-76 25z" />
    <glyph glyph-name="nineinferior" unicode="&#x2089;" horiz-adv-x="401" 
d="M188 -182q-63 0 -102 35t-44 96h58q14 -79 89 -79q54 0 85 45t34 135h-2q-40 -58 -119 -58q-68 0 -110 43t-42 113q0 72 44.5 117t116.5 45q81 0 123.5 -57.5t42.5 -169.5q0 -129 -45 -197t-129 -68zM194 42q46 0 75 30t29 77q0 51 -28 80t-75 29q-45 0 -73.5 -30.5
t-28.5 -79.5q0 -47 27.5 -76.5t73.5 -29.5z" />
    <glyph glyph-name="plusinferior" unicode="&#x208a;" horiz-adv-x="406" 
d="M227 197v-124h127v-47h-127v-123h-47v123h-127v47h127v124h47z" />
    <glyph glyph-name="minusinferior" unicode="&#x208b;" horiz-adv-x="406" 
d="M354 73v-47h-301v47h301z" />
    <glyph glyph-name="equalinferior" unicode="&#x208c;" horiz-adv-x="406" 
d="M354 129v-47h-301v47h301zM354 17v-47h-301v47h301z" />
    <glyph glyph-name="parenleftinferior" unicode="&#x208d;" horiz-adv-x="204" 
d="M134 347h49q-85 -148 -85 -311t85 -311h-49q-96 141 -96 311q0 169 96 311z" />
    <glyph glyph-name="parenrightinferior" unicode="&#x208e;" horiz-adv-x="204" 
d="M70 -275h-49q85 148 85 311t-85 311h49q96 -141 96 -311q0 -169 -96 -311z" />
    <glyph glyph-name="ninferior" unicode="&#x2099;" horiz-adv-x="409" 
d="M223 192q132 0 132 -148v-216h-53v213q0 59 -22 82t-67 23q-43 0 -72 -28.5t-29 -82.5v-207h-54v356h53v-45h2q37 53 110 53z" />
    <glyph glyph-name="franc" unicode="&#x20a3;" horiz-adv-x="544" 
d="M509 615h-332v-219h311v-60h-311v-131h177v-55h-177v-150h-66v150h-87v55h87v469h398v-59z" />
    <glyph glyph-name="lira" unicode="&#x20a4;" horiz-adv-x="544" 
d="M139 58v-2h357v-56h-472v56q100 0 100 136v51h-100v54h100v64h-100v53h100v65q0 102 49.5 155t140.5 53q87 0 136.5 -53t49.5 -147h-62q0 68 -33 104t-91 36q-62 0 -94.5 -38t-32.5 -110v-65h127v-53h-127v-64h127v-54h-127v-51q0 -96 -48 -134z" />
    <glyph glyph-name="peseta" unicode="&#x20a7;" horiz-adv-x="811" 
d="M748 51q19 0 35 4v-53q-22 -5 -46 -5q-66 0 -95 32t-29 105v322h-76q-4 -92 -66.5 -144.5t-176.5 -52.5h-128v-259h-65v674h193q104 0 165.5 -44t74.5 -122h79v118h62v-118h103v-52h-103v-321q0 -45 16.5 -64.5t56.5 -19.5zM166 615v-297h127q86 0 131 39t45 110
q0 70 -45 109t-131 39h-127z" />
    <glyph glyph-name="euro" unicode="&#x20ac;" horiz-adv-x="544" 
d="M460 202h68q-13 -105 -70.5 -160t-153.5 -55q-104 0 -168 67t-80 195h-55l10 53h41l-1 35q0 20 1 29h-51l10 53h44q16 131 80 199.5t169 68.5q98 0 155 -54.5t65 -156.5h-68q-6 72 -45.5 111t-106.5 39q-76 0 -121.5 -53t-58.5 -154h274l-10 -53h-268l-1 -29q0 -24 1 -35
h257l-11 -53h-241q28 -201 179 -201q65 0 105.5 39.5t50.5 114.5z" />
    <glyph glyph-name="rupeeIndian" unicode="&#x20b9;" horiz-adv-x="544" 
d="M501 620h-168v-2q61 -23 71 -94h112l-15 -54h-97q-9 -57 -54 -96.5t-118 -53.5v-2q64 -28 113 -125l94 -193h-73l-86 178q-32 66 -70.5 94t-95.5 28h-16v55h43q83 0 133 31t61 84h-307l15 54h293q-19 96 -186 96h-122l15 54h473z" />
    <glyph glyph-name="liraTurkish" unicode="&#x20ba;" horiz-adv-x="544" 
d="M447 316h67q0 -157 -86.5 -238t-247.5 -81q-34 0 -62 3v290l-95 -52v61l95 52v96l-95 -52v61l95 52v166h65v-136l168 90v-60l-168 -90v-97l168 91v-60l-168 -91v-265q127 0 195.5 65.5t68.5 194.5z" />
    <glyph glyph-name="uni20BC" unicode="&#x20bc;" horiz-adv-x="626" 
d="M114 0h-65v316q0 142 55.5 207t176.5 70v119h64v-119q121 -5 176 -70t55 -207v-316h-64v316q0 112 -38.5 160.5t-128.5 52.5v-529h-64v529q-90 -4 -128.5 -52.5t-38.5 -160.5v-316z" />
    <glyph glyph-name="ruble" unicode="&#x20bd;" horiz-adv-x="544" 
d="M96 335v339h194q108 0 165.5 -52.5t57.5 -144.5t-57.5 -145t-165.5 -53h-132v-74h205v-55h-205v-150h-62v150h-83v55h83v74h-83v56h83zM290 618h-132v-283h132q77 0 117.5 37.5t40.5 104.5t-40.5 104t-117.5 37z" />
    <glyph glyph-name="careof" unicode="&#x2105;" horiz-adv-x="862" 
d="M660 362q80 0 125.5 -50t45.5 -137q0 -88 -45.5 -138t-125.5 -50q-79 0 -125.5 50.5t-46.5 137.5t46.5 137t125.5 50zM660 316q-53 0 -83.5 -38t-30.5 -103t30.5 -103t83.5 -38q54 0 84.5 38t30.5 103t-30.5 103t-84.5 38zM200 687q66 0 106.5 -39.5t45.5 -95.5h-56
q-2 33 -29 60t-67 27q-52 0 -81.5 -37t-29.5 -102t29.5 -102t81.5 -37q39 0 66 27t30 64h56q-5 -60 -46.5 -100t-105.5 -40q-78 0 -123 50t-45 138q0 87 45 137t123 50zM652 674l-393 -674h-64l392 674h65z" />
    <glyph glyph-name="literSign" unicode="&#x2113;" horiz-adv-x="435" 
d="M178 202v-62q0 -50 18.5 -72.5t59.5 -22.5q26 0 50 8v-53q-27 -9 -62 -9q-66 0 -97 36t-31 113v55h-4q-31 0 -55 6v44q28 -5 55 -5h4v249q0 111 28.5 154.5t90.5 43.5q54 0 87 -45.5t33 -145.5q0 -252 -177 -294zM178 498v-249q130 41 130 247q0 141 -69 141
q-33 0 -47 -29.5t-14 -109.5z" />
    <glyph glyph-name="numero" unicode="&#x2116;" horiz-adv-x="1120" 
d="M1071 169v-53h-307v53h307zM644 712v-712h-99l-185 316q-35 60 -99.5 170.5t-93.5 160.5h-2q0 -59 0.5 -178t0.5 -178v-291h-65v712h99l185 -316q35 -60 99.5 -170.5t93.5 -160.5h2q-1 119 -1 356v291h65zM918 613q79 0 125 -50.5t46 -137.5q0 -88 -45.5 -138t-125.5 -50
q-79 0 -125.5 50.5t-46.5 137.5t46.5 137.5t125.5 50.5zM918 567q-53 0 -83.5 -38t-30.5 -104q0 -65 30.5 -103t83.5 -38q54 0 84.5 38t30.5 103q0 66 -30.5 104t-84.5 38z" />
    <glyph glyph-name="published" unicode="&#x2117;" horiz-adv-x="814" 
d="M407 723q161 0 259.5 -101t98.5 -266t-98.5 -266t-259.5 -101t-259.5 101t-98.5 266t98.5 266t259.5 101zM407 680q-143 0 -229.5 -89t-86.5 -235t86.5 -235t229.5 -89q142 0 229 89t87 235t-87 235t-229 89zM272 110v478h162q87 0 133.5 -38.5t46.5 -109.5
q0 -70 -47 -108.5t-133 -38.5h-99v-183h-63zM433 531h-98v-180h98q116 0 116 89q0 91 -116 91z" />
    <glyph glyph-name="trademark" unicode="&#x2122;" horiz-adv-x="787" 
d="M298 712v-46h-121v-310h-51v310h-121v46h293zM736 712v-356h-50v299h-2q-8 -21 -22.5 -62.5t-22.5 -62.5l-66 -174h-57l-65 174q-6 15 -45 125h-2q0 -21 0.5 -63.5t0.5 -62.5v-173h-51v356h82l59 -164q17 -45 49 -135h2l48 135l61 164h81z" />
    <glyph glyph-name="Ohm" unicode="&#x2126;" horiz-adv-x="726" 
d="M363 725q142 0 226.5 -80.5t84.5 -235.5q0 -100 -44 -182.5t-125 -165.5v-2h180v-59h-253v61q85 87 129.5 166.5t44.5 177.5q0 127 -66 193t-177 66q-110 0 -176 -66t-66 -193q0 -99 44.5 -178t128.5 -166v-61h-253v59h180v2q-81 83 -125 165.5t-44 182.5q0 155 85 235.5
t226 80.5z" />
    <glyph glyph-name="estimated" unicode="&#x212e;" horiz-adv-x="859" 
d="M430 687q175 0 278.5 -104.5t103.5 -256.5h-610q-13 0 -13 -12v-166q0 -31 15 -44q93 -91 226 -91q72 0 135 30t103 79h69q-40 -55 -118 -94.5t-189 -39.5q-172 0 -277.5 97.5t-105.5 250.5q0 152 104 251.5t279 99.5zM430 661q-133 0 -226 -93q-15 -14 -15 -41v-166
q0 -13 13 -13h454q13 0 13 13v166q0 27 -15 41q-94 93 -224 93z" />
    <glyph glyph-name="oneeighth" unicode="&#x215b;" horiz-adv-x="716" 
d="M542 413q60 0 98.5 -32t38.5 -81q0 -59 -65 -90v-1q72 -27 72 -98q0 -53 -40 -86.5t-104 -33.5q-65 0 -105 33.5t-40 86.5q0 71 72 98v1q-65 31 -65 90q0 50 38.5 81.5t99.5 31.5zM542 361q-37 0 -59 -16.5t-22 -44.5q0 -31 22 -49t59 -18t58.5 18t21.5 49q0 28 -22 44.5
t-58 16.5zM542 183q-39 0 -63.5 -19.5t-24.5 -51.5t24 -50.5t64 -18.5q39 0 63 18.5t24 50.5t-24 51.5t-63 19.5zM155 674v-404h-56v291h-90v46q48 0 71.5 15.5t29.5 51.5h45zM522 674l-392 -674h-65l392 674h65z" />
    <glyph glyph-name="threeeighths" unicode="&#x215c;" horiz-adv-x="842" 
d="M668 413q60 0 98.5 -32t38.5 -81q0 -59 -65 -90v-1q72 -27 72 -98q0 -53 -40 -86.5t-104 -33.5q-65 0 -105 33.5t-40 86.5q0 71 72 98v1q-65 31 -65 90q0 50 38.5 81.5t99.5 31.5zM668 361q-37 0 -59 -16.5t-22 -44.5q0 -31 22 -49t59 -18t58.5 18t21.5 49q0 28 -22 44.5
t-58 16.5zM668 183q-39 0 -63.5 -19.5t-24.5 -51.5t24 -50.5t64 -18.5q39 0 63 18.5t24 50.5t-24 51.5t-63 19.5zM170 683q63 0 99 -30t36 -81q0 -34 -15 -56t-51 -38v-2q73 -29 73 -100q0 -51 -39.5 -83t-102.5 -32q-67 0 -105 34.5t-38 96.5h57q0 -79 86 -79q38 0 61 17.5
t23 47.5q0 72 -101 72h-13v50h13q43 0 68.5 18.5t25.5 49.5q0 29 -20.5 46t-57.5 17q-81 0 -81 -76h-57q0 60 37.5 94t101.5 34zM648 674l-392 -674h-65l392 674h65z" />
    <glyph glyph-name="fiveeighths" unicode="&#x215d;" horiz-adv-x="844" 
d="M669 413q60 0 98.5 -32t38.5 -81q0 -59 -65 -90v-1q72 -27 72 -98q0 -53 -40 -86.5t-104 -33.5q-65 0 -105 33.5t-40 86.5q0 71 72 98v1q-65 31 -65 90q0 50 38.5 81.5t99.5 31.5zM669 361q-37 0 -59 -16.5t-22 -44.5q0 -31 22 -49t59 -18t58.5 18t21.5 49q0 28 -22 44.5
t-58 16.5zM669 183q-39 0 -63.5 -19.5t-24.5 -51.5t24 -50.5t64 -18.5q39 0 63 18.5t24 50.5t-24 51.5t-63 19.5zM294 674v-51h-184l-10 -113h1q26 28 77 28q62 0 99 -37t37 -100q0 -64 -39 -102t-105 -38q-61 0 -98.5 31.5t-37.5 85.5h57q1 -31 23 -48t55 -17q40 0 63.5 24
t23.5 65q0 39 -22 61.5t-60 22.5q-65 0 -80 -55l-56 3l22 240h234zM649 674l-392 -674h-65l392 674h65z" />
    <glyph glyph-name="seveneighths" unicode="&#x215e;" horiz-adv-x="750" 
d="M575 413q60 0 98.5 -32t38.5 -81q0 -59 -65 -90v-1q72 -27 72 -98q0 -53 -40 -86.5t-104 -33.5q-65 0 -105 33.5t-40 86.5q0 71 72 98v1q-65 31 -65 90q0 50 38.5 81.5t99.5 31.5zM575 361q-37 0 -59 -16.5t-22 -44.5q0 -31 22 -49t59 -18t58.5 18t21.5 49q0 28 -22 44.5
t-58 16.5zM575 183q-39 0 -63.5 -19.5t-24.5 -51.5t24 -50.5t64 -18.5q39 0 63 18.5t24 50.5t-24 51.5t-63 19.5zM9 674h284v-51q-103 -138 -148 -353h-60q53 217 147 353h-223v51zM555 674l-392 -674h-65l392 674h65z" />
    <glyph glyph-name="Sevenroman" unicode="&#x2166;" horiz-adv-x="1131" 
d="M610 712l-257 -712h-88l-258 712h69l232 -649h2q19 52 55.5 156t54.5 156l121 337h69zM763 712v-712h-65v712h65zM1030 712v-712h-65v712h65z" />
    <glyph glyph-name="partialdiff" unicode="&#x2202;" horiz-adv-x="589" 
d="M269 725q120 0 185.5 -89.5t65.5 -261.5q0 -194 -70 -290.5t-179 -96.5q-105 0 -163.5 63.5t-58.5 169.5q0 111 62 184.5t165 73.5q66 0 110 -28.5t64 -72.5h2q1 11 1 33q0 116 -49.5 185.5t-133.5 69.5q-112 0 -128 -115h-68q9 81 57.5 128t137.5 47zM280 418
q-73 0 -118 -56.5t-45 -144.5q0 -80 39.5 -125t114.5 -45q77 0 121 56.5t44 140.5q0 78 -42 126t-114 48z" />
    <glyph glyph-name="increment" unicode="&#x2206;" horiz-adv-x="664" 
d="M377 712l281 -712h-652l282 712h89zM99 59h466l-118 305q-7 17 -49 126t-65 169h-2q-23 -60 -65 -169t-49 -126z" />
    <glyph glyph-name="product" unicode="&#x220f;" horiz-adv-x="652" 
d="M551 712v-832h-65v773h-320v-773h-65v832h450z" />
    <glyph glyph-name="summation" unicode="&#x2211;" horiz-adv-x="471" 
d="M436 712v-58h-329l214 -362l-214 -354h329v-58h-401v58l216 354l-216 362v58h401z" />
    <glyph glyph-name="minus" unicode="&#x2212;" horiz-adv-x="566" 
d="M492 345v-57h-418v57h418z" />
    <glyph glyph-name="divisionslash" unicode="&#x2215;" horiz-adv-x="442" 
d="M391 745l-297 -834h-64l297 834h64z" />
    <glyph glyph-name="bulletoperator" unicode="&#x2219;" horiz-adv-x="335" 
d="M210 351v-91h-85v91h85z" />
    <glyph glyph-name="radical" unicode="&#x221a;" horiz-adv-x="541" 
d="M521 712l-238 -832h-77l-100 420h-81v52h123l97 -406h2l218 766h56z" />
    <glyph glyph-name="infinity" unicode="&#x221e;" horiz-adv-x="606" 
d="M460 451q58 0 94.5 -39.5t36.5 -103.5t-36.5 -103.5t-94.5 -39.5q-52 0 -87.5 26t-69.5 72q-34 -46 -69.5 -72t-86.5 -26q-59 0 -95.5 39.5t-36.5 103.5t36.5 103.5t95.5 39.5q51 0 86.5 -26t69.5 -72q34 46 69.5 72t87.5 26zM152 221q37 0 63.5 22t56.5 65
q-30 43 -56.5 65t-63.5 22t-58.5 -23t-21.5 -64t21.5 -64t58.5 -23zM454 221q38 0 59 23t21 64t-21 64t-59 23q-37 0 -63.5 -22t-56.5 -65q30 -43 56.5 -65t63.5 -22z" />
    <glyph glyph-name="integral" unicode="&#x222b;" horiz-adv-x="295" 
d="M241 716q20 0 42 -4v-53q-12 4 -32 4q-37 0 -55 -21t-18 -69v-625q0 -137 -124 -137q-22 0 -42 4v53q12 -4 31 -4q37 0 55 21t18 69v625q0 137 125 137z" />
    <glyph glyph-name="approxequal" unicode="&#x2248;" horiz-adv-x="566" 
d="M185 485q39 0 74 -24.5t65 -48.5t57 -24q30 0 47 22.5t17 61.5h53q0 -62 -32 -100.5t-85 -38.5q-39 0 -73.5 24t-65 48t-57.5 24q-30 0 -47 -22.5t-17 -60.5h-53q0 62 32 100.5t85 38.5zM185 301q31 0 60 -15t47.5 -33t42.5 -33t46 -15q30 0 47 22.5t17 60.5h53
q0 -62 -32 -100.5t-85 -38.5q-31 0 -59.5 15t-47.5 33.5t-43 33.5t-46 15q-30 0 -47 -22.5t-17 -61.5h-53q0 62 32 100.5t85 38.5z" />
    <glyph glyph-name="notequal" unicode="&#x2260;" horiz-adv-x="566" 
d="M492 365h-145l-64 -97h209v-56h-246l-88 -132h-63l87 132h-108v56h145l65 97h-210v56h247l87 132h64l-88 -132h108v-56z" />
    <glyph glyph-name="lessequal" unicode="&#x2264;" horiz-adv-x="566" 
d="M74 56h418v-56h-418v56zM492 531v-61l-359 -150v-2l359 -150v-62l-418 175v75z" />
    <glyph glyph-name="greaterequal" unicode="&#x2265;" horiz-adv-x="566" 
d="M492 56v-56h-418v56h418zM74 531l418 -175v-75l-418 -175v62l359 150v2l-359 150v61z" />
    <glyph glyph-name="lozenge" unicode="&#x25ca;" horiz-adv-x="574" 
d="M327 712l207 -356l-207 -356h-80l-207 356l207 356h80zM287 666l-182 -310l182 -310l181 310z" />
    <glyph glyph-name="apple" unicode="&#xf8ff;" horiz-adv-x="614" 
d="M151 777h312q59 0 93.5 -34.5t34.5 -93.5v-586q0 -59 -34.5 -93.5t-93.5 -34.5h-312q-59 0 -93.5 34.5t-34.5 93.5v586q0 59 34.5 93.5t93.5 34.5zM463 736h-312q-40 0 -63.5 -23.5t-23.5 -63.5v-586q0 -40 23.5 -63.5t63.5 -23.5h312q40 0 63.5 23.5t23.5 63.5v586
q0 40 -23.5 63.5t-63.5 23.5zM325 146v-81h-77v81h77zM302 646q74 0 120 -40t46 -105q0 -44 -16 -73.5t-68 -73.5q-45 -37 -57 -65t-12 -95h-57v25q0 62 15.5 95t64.5 78q40 35 51 56t11 53q0 41 -26 64t-72 23q-103 0 -109 -107h-63q4 81 48.5 123t123.5 42z" />
    <glyph glyph-name="ff" unicode="&#xfb00;" horiz-adv-x="541" 
d="M495 663q-37 0 -55 -21t-18 -69v-65h102v-52h-102v-456h-62v456h-192v-456h-62v456h-91v52h91v71q0 137 125 137q20 0 42 -4v-53q-14 4 -32 4q-37 0 -55 -21t-18 -69v-65h192v71q0 137 125 137q21 0 41 -4v-53q-14 4 -31 4z" />
    <glyph glyph-name="fi" unicode="&#xfb01;" horiz-adv-x="516" 
d="M15 508h91v71q0 137 125 137q20 0 42 -4v-53q-14 4 -32 4q-37 0 -55 -21t-18 -69v-65h103v-52h-103v-456h-62v456h-91v52zM370 0v508h62v-508h-62zM370 712h62v-88h-62v88z" />
    <glyph glyph-name="fl" unicode="&#xfb02;" horiz-adv-x="516" 
d="M15 508h91v71q0 137 125 137q20 0 42 -4v-53q-14 4 -32 4q-37 0 -55 -21t-18 -69v-65h103v-52h-103v-456h-62v456h-91v52zM370 712h62v-712h-62v712z" />
    <glyph glyph-name="ffi" unicode="&#xfb03;" horiz-adv-x="769" 
d="M168 508h192v71q0 137 125 137q21 0 41 -4v-53q-14 4 -31 4q-37 0 -55 -21t-18 -69v-65h102v-52h-102v-456h-62v456h-192v-456h-62v456h-91v52h91v71q0 137 125 137q20 0 42 -4v-53q-14 4 -32 4q-37 0 -55 -21t-18 -69v-65zM624 0v508h62v-508h-62zM624 712h62v-88h-62
v88z" />
    <glyph glyph-name="ffl" unicode="&#xfb04;" horiz-adv-x="769" 
d="M168 508h192v71q0 137 125 137q21 0 41 -4v-53q-14 4 -31 4q-37 0 -55 -21t-18 -69v-65h102v-52h-102v-456h-62v456h-192v-456h-62v456h-91v52h91v71q0 137 125 137q20 0 42 -4v-53q-14 4 -32 4q-37 0 -55 -21t-18 -69v-65zM624 712h62v-712h-62v712z" />
    <glyph glyph-name="uniFEFF" unicode="&#xfeff;" horiz-adv-x="0" 
 />
    <glyph glyph-name="J.acute.loclNLD" horiz-adv-x="337" 
d="M176 712h66v-519q0 -98 -48 -147.5t-137 -49.5q-24 0 -42 5v60q21 -4 41 -4q120 0 120 138v517zM325 916l-115 -141h-59l90 141h84z" />
    <glyph glyph-name="Ccedilla.ss01" horiz-adv-x="683" 
d="M351 725q123 0 197 -70t80 -181h-68q-8 87 -64.5 138.5t-144.5 51.5q-110 0 -173.5 -82.5t-63.5 -225.5t63 -225.5t172 -82.5q87 0 145 52.5t70 141.5h68q-11 -116 -86.5 -185.5t-196.5 -69.5q-141 0 -222.5 98.5t-81.5 270.5t82 270.5t224 98.5zM387 -49l-101 -159h-83
l124 159h60z" />
    <glyph glyph-name="Scedilla.ss01" horiz-adv-x="599" 
d="M282 725q248 0 248 -234h-66q0 175 -182 175q-75 0 -116 -34.5t-41 -94.5t40.5 -87.5t139.5 -51.5q48 -12 77.5 -21t63.5 -25.5t53 -37t31.5 -52t12.5 -72.5q0 -93 -65.5 -148t-177.5 -55q-122 0 -188.5 64t-66.5 186h65q0 -97 50 -143.5t140 -46.5q86 0 131.5 37
t45.5 105q0 61 -42 89t-146 54q-60 15 -95.5 28t-69.5 35.5t-49.5 57t-15.5 83.5q0 85 60 137t163 52zM343 -49l-101 -159h-83l124 159h60z" />
    <glyph glyph-name="Tcedilla.ss01" horiz-adv-x="592" 
d="M582 712v-59h-254v-653h-65v653h-253v59h572zM339 -49l-101 -159h-83l124 159h60z" />
    <glyph glyph-name="idotaccent" horiz-adv-x="228" 
d="M145 508v-508h-62v508h62zM145 712v-88h-62v88h62z" />
    <glyph glyph-name="j.acute.loclNLD" horiz-adv-x="235" 
d="M90 508h62v-545q0 -152 -133 -152q-19 0 -36 4v54q17 -3 30 -3q38 0 57.5 22.5t19.5 75.5v544zM237 712l-115 -141h-59l90 141h84z" />
    <glyph glyph-name="ccedilla.ss01" horiz-adv-x="521" 
d="M274 521q86 0 142.5 -52t63.5 -136h-65q-5 59 -44 96.5t-97 37.5q-76 0 -119.5 -57t-43.5 -156q0 -100 43.5 -156.5t119.5 -56.5q57 0 96.5 40.5t44.5 99.5h65q-7 -84 -63 -139t-143 -55q-107 0 -168.5 71.5t-61.5 195.5t61.5 195.5t168.5 71.5zM317 -49l-101 -159h-83
l124 159h60z" />
    <glyph glyph-name="scedilla.ss01" horiz-adv-x="479" 
d="M230 521q90 0 140 -45.5t51 -128.5h-62q0 57 -34 88.5t-95 31.5q-52 0 -83.5 -23t-31.5 -61q0 -43 25.5 -58t102.5 -33q30 -7 41.5 -9.5t37.5 -10.5t37.5 -14.5t29.5 -19t26 -26t14.5 -33.5t6.5 -44q0 -66 -52 -107t-138 -41q-96 0 -150 48t-55 136h63q0 -62 37 -96
t105 -34q57 0 92.5 25t35.5 65q0 47 -30.5 65t-120.5 39q-28 7 -37 9t-33 9.5t-33.5 13t-25.5 17t-23 23.5t-12.5 30.5t-5.5 40.5q0 64 49.5 103.5t127.5 39.5zM289 -49l-101 -159h-83l124 159h60z" />
    <glyph glyph-name="tcedilla.ss01" horiz-adv-x="302" 
d="M238 51q19 0 35 4v-53q-22 -5 -46 -5q-66 0 -95 32t-29 105v322h-91v52h91v118h62v-118h103v-52h-103v-321q0 -45 16.5 -64.5t56.5 -19.5zM28 -208l124 159h60l-101 -159h-83z" />
    <glyph glyph-name="a.sups" horiz-adv-x="383" 
d="M187 695q67 0 104 -34.5t37 -103.5v-136q0 -53 9 -91h-49q-5 28 -5 53h-2q-38 -60 -129 -60q-57 0 -91.5 29t-34.5 75t32.5 72.5t110.5 38.5q62 9 107 12v14q0 87 -89 87q-42 0 -65 -19.5t-25 -52.5h-56q3 51 41.5 83.5t104.5 32.5zM276 483v23q-45 -3 -100 -12
q-52 -8 -72.5 -22t-20.5 -42q0 -29 21 -46t59 -17q54 0 83.5 30.5t29.5 85.5z" />
    <glyph glyph-name="b.sups" horiz-adv-x="411" 
d="M112 828v-191h2q14 26 44 42.5t67 16.5q71 0 113 -51t42 -136t-42 -136t-113 -51q-37 0 -67 16.5t-45 42.5h-2v-51h-53v498h54zM216 651q-49 0 -78.5 -39t-29.5 -103t29.5 -103t78.5 -39t78.5 39t29.5 103t-29.5 103t-78.5 39z" />
    <glyph glyph-name="c.sups" horiz-adv-x="380" 
d="M200 695q66 0 106.5 -40t45.5 -95h-56q-2 33 -29 60t-67 27q-52 0 -81.5 -37t-29.5 -102t29.5 -102t81.5 -37q39 0 66 27t30 64h56q-5 -60 -46.5 -100t-105.5 -40q-78 0 -123 50t-45 138q0 87 45 137t123 50z" />
    <glyph glyph-name="d.sups" horiz-adv-x="411" 
d="M300 828h53v-498h-53v51h-2q-14 -26 -44.5 -42.5t-66.5 -16.5q-71 0 -113 51t-42 136t42 136t112 51q37 0 67 -16.5t45 -42.5h2v191zM196 651q-49 0 -79 -39t-30 -103t30 -103t79 -39q48 0 77.5 39t29.5 103t-29.5 103t-77.5 39z" />
    <glyph glyph-name="e.sups" horiz-adv-x="393" 
d="M201 365q84 0 103 71h55q-9 -49 -49.5 -82.5t-108.5 -33.5q-79 0 -124 52.5t-45 141.5q0 80 44.5 130.5t122.5 50.5q62 0 103 -33.5t54 -92.5q6 -30 6 -73h-276q2 -65 33.5 -98t81.5 -33zM199 650q-48 0 -78.5 -29.5t-34.5 -82.5h223q-4 53 -34 82.5t-76 29.5z" />
    <glyph glyph-name="egrave.sups" horiz-adv-x="393" 
d="M201 365q84 0 103 71h55q-9 -49 -49.5 -82.5t-108.5 -33.5q-79 0 -124 52.5t-45 141.5q0 74 38 123.5t106 56.5l-87 93h77l67 -95q129 -23 129 -196h-276q2 -65 33.5 -98t81.5 -33zM199 650q-48 0 -78.5 -29.5t-34.5 -82.5h223q-4 53 -34 82.5t-76 29.5z" />
    <glyph glyph-name="f.sups" horiz-adv-x="214" 
d="M180 787q-26 0 -38.5 -14t-12.5 -47v-40h73v-45h-73v-311h-54v311h-64v45h64v47q0 98 96 98q18 0 32 -4v-43q-11 3 -23 3z" />
    <glyph glyph-name="g.sups" horiz-adv-x="411" 
d="M189 695q71 0 109 -56h2v47h53v-334q0 -157 -160 -157q-68 0 -106.5 30t-38.5 83h53q1 -33 25.5 -51t66.5 -18q55 0 80.5 27.5t25.5 87.5v39h-2q-37 -56 -108 -56q-72 0 -114.5 49t-42.5 130t42.5 130t114.5 49zM191 651q-47 0 -75.5 -37.5t-28.5 -97.5t28.5 -97
t75.5 -37q52 0 81.5 35.5t29.5 98.5t-29.5 99t-81.5 36z" />
    <glyph glyph-name="h.sups" horiz-adv-x="409" 
d="M112 828v-186h2q36 52 109 52q132 0 132 -148v-216h-53v213q0 59 -22 82t-67 23q-43 0 -72 -28.5t-29 -82.5v-207h-54v498h54z" />
    <glyph glyph-name="i.sups" horiz-adv-x="170" 
d="M112 686v-356h-54v356h54zM112 828v-64h-54v64h54z" />
    <glyph glyph-name="j.sups" horiz-adv-x="176" 
d="M64 686h53v-389q0 -100 -99 -100q-13 0 -30 3v47q9 -2 24 -2q52 0 52 53v388zM117 828v-64h-53v64h53z" />
    <glyph glyph-name="k.sups" horiz-adv-x="353" 
d="M167 527l191 -197h-74l-170 182h-2v-182h-54v498h54v-289h2l151 147h72z" />
    <glyph glyph-name="l.sups" horiz-adv-x="170" 
d="M112 828v-498h-54v498h54z" />
    <glyph glyph-name="m.sups" horiz-adv-x="614" 
d="M437 694q123 0 123 -144v-220h-54v216q0 57 -19 79.5t-59 22.5q-42 0 -67 -31t-25 -82v-205h-54v226q0 44 -20 68t-58 24q-42 0 -67 -32t-25 -84v-202h-54v356h53v-43h2q41 51 99 51q79 0 110 -69q37 69 115 69z" />
    <glyph glyph-name="n.sups" horiz-adv-x="410" 
d="M223 694q132 0 132 -148v-216h-53v213q0 59 -22 82t-67 23q-43 0 -72 -28.5t-29 -82.5v-207h-54v356h53v-45h2q37 53 110 53z" />
    <glyph glyph-name="o.sups" horiz-adv-x="405" 
d="M203 695q80 0 125.5 -50t45.5 -137q0 -88 -45.5 -138t-125.5 -50q-79 0 -125.5 50.5t-46.5 137.5t46.5 137t125.5 50zM203 649q-53 0 -83.5 -38t-30.5 -103t30.5 -103t83.5 -38q54 0 84.5 38t30.5 103t-30.5 103t-84.5 38z" />
    <glyph glyph-name="p.sups" horiz-adv-x="411" 
d="M225 696q71 0 113 -51t42 -136t-42 -136t-113 -51q-37 0 -67 16.5t-44 42.5h-2v-180h-54v485h53v-50h2q15 26 45 43t67 17zM216 651q-49 0 -78.5 -39t-29.5 -103t29.5 -103t78.5 -39t78.5 39t29.5 103t-29.5 103t-78.5 39z" />
    <glyph glyph-name="q.sups" horiz-adv-x="411" 
d="M187 696q36 0 66.5 -17t44.5 -43h2v50h53v-485h-53v180h-2q-15 -26 -45 -42.5t-67 -16.5q-70 0 -112 51t-42 136t42 136t113 51zM196 651q-49 0 -79 -39t-30 -103t30 -103t79 -39q48 0 77.5 39t29.5 103t-29.5 103t-77.5 39z" />
    <glyph glyph-name="r.sups" horiz-adv-x="256" 
d="M222 689q11 0 25 -2v-51q-12 2 -24 2q-54 0 -82.5 -33.5t-28.5 -92.5v-182h-54v356h53v-55h2q39 58 109 58z" />
    <glyph glyph-name="s.sups" horiz-adv-x="351" 
d="M169 695q66 0 103 -31.5t38 -89.5h-54q0 37 -23 56.5t-64 19.5q-36 0 -57 -14t-21 -38q0 -32 30 -44q14 -5 60 -15q26 -6 33 -7.5t30 -8.5t31.5 -14t22 -18.5t18.5 -28t5 -36.5q0 -48 -38 -77t-103 -29q-70 0 -109.5 33.5t-41.5 95.5h54q0 -40 25.5 -61.5t71.5 -21.5
q39 0 63.5 15.5t24.5 40.5q0 31 -20.5 42.5t-84.5 26.5q-3 1 -17 4t-18.5 4.5t-17 5t-17 6t-14.5 7t-14 9.5t-10.5 12t-9.5 14.5t-5 17.5t-2 22q0 46 36 74t95 28z" />
    <glyph glyph-name="t.sups" horiz-adv-x="223" 
d="M177 374q10 0 25 3v-46q-13 -3 -34 -3q-51 0 -73.5 23t-22.5 76v214h-64v45h64v83h54v-83h73v-45h-73v-212q0 -29 11.5 -42t39.5 -13z" />
    <glyph glyph-name="u.sups" horiz-adv-x="409" 
d="M186 322q-132 0 -132 148v216h54v-213q0 -59 22 -82t66 -23q43 0 72.5 29t29.5 82v207h53v-356h-53v45h-2q-37 -53 -110 -53z" />
    <glyph glyph-name="v.sups" horiz-adv-x="331" 
d="M335 686l-134 -356h-70l-135 356h58l55 -150q10 -27 28 -77t28 -77h2l55 154l55 150h58z" />
    <glyph glyph-name="w.sups" horiz-adv-x="544" 
d="M539 686l-102 -356h-77l-43 154q-7 23 -14.5 48.5t-16 56t-13.5 48.5h-2q-24 -90 -44 -153l-43 -154h-76l-102 356h55l41 -149q7 -26 22 -79.5t22 -79.5h2q6 20 20 72.5t22 79.5l43 156h79l43 -156q7 -26 21 -77.5t20 -74.5h2l86 308h55z" />
    <glyph glyph-name="x.sups" horiz-adv-x="343" 
d="M329 686l-126 -169l140 -187h-66l-105 147h-2l-105 -147h-65l140 187l-127 169h65l92 -132h2l93 132h64z" />
    <glyph glyph-name="y.sups" horiz-adv-x="337" 
d="M283 686h57l-150 -375q-28 -66 -58.5 -89.5t-87.5 -23.5q-14 0 -26 3v47q12 -3 25 -3q41 0 59 16.5t39 68.5l-144 356h58l114 -290h2z" />
    <glyph glyph-name="z.sups" horiz-adv-x="334" 
d="M310 686v-48l-225 -260v-2h232v-46h-299v48l224 260v2h-217v46h285z" />
    <glyph glyph-name="a.smcp" horiz-adv-x="554" 
d="M478 0l-67 166h-268l-67 -166h-70l227 548h88l227 -548h-70zM167 225h220l-20 50q-61 150 -89 220h-2q-28 -70 -89 -220z" />
    <glyph glyph-name="aacute.smcp" horiz-adv-x="554" 
d="M478 0l-67 166h-268l-67 -166h-70l227 548h88l227 -548h-70zM167 225h220l-20 50q-61 150 -89 220h-2q-28 -70 -89 -220zM393 752l-115 -141h-59l90 141h84z" />
    <glyph glyph-name="abreve.smcp" horiz-adv-x="554" 
d="M478 0l-67 166h-268l-67 -166h-70l227 548h88l227 -548h-70zM167 225h220l-20 50q-61 150 -89 220h-2q-28 -70 -89 -220zM277 613q-64 0 -102 36.5t-44 102.5h51q12 -89 95 -89q81 0 95 89h51q-6 -66 -44 -102.5t-102 -36.5z" />
    <glyph glyph-name="acircumflex.smcp" horiz-adv-x="554" 
d="M478 0l-67 166h-268l-67 -166h-70l227 548h88l227 -548h-70zM167 225h220l-20 50q-61 150 -89 220h-2q-28 -70 -89 -220zM277 712l-81 -101h-69l114 141h71l114 -141h-69z" />
    <glyph glyph-name="adieresis.smcp" horiz-adv-x="554" 
d="M478 0l-67 166h-268l-67 -166h-70l227 548h88l227 -548h-70zM167 225h220l-20 50q-61 150 -89 220h-2q-28 -70 -89 -220zM215 752v-88h-61v88h61zM399 752v-88h-61v88h61z" />
    <glyph glyph-name="agrave.smcp" horiz-adv-x="554" 
d="M478 0l-67 166h-268l-67 -166h-70l227 548h88l227 -548h-70zM167 225h220l-20 50q-61 150 -89 220h-2q-28 -70 -89 -220zM335 611h-59l-115 141h84z" />
    <glyph glyph-name="amacron.smcp" horiz-adv-x="554" 
d="M478 0l-67 166h-268l-67 -166h-70l227 548h88l227 -548h-70zM167 225h220l-20 50q-61 150 -89 220h-2q-28 -70 -89 -220zM408 716v-52h-263v52h263z" />
    <glyph glyph-name="aogonek.smcp" horiz-adv-x="554" 
d="M511 -147q22 0 40 7v-44q-19 -8 -49 -8q-92 0 -92 75q0 32 18.5 58.5t59.5 58.5h-10l-67 166h-268l-67 -166h-70l227 548h88l227 -548q-80 -60 -80 -110q0 -37 43 -37zM167 225h220l-20 50q-61 150 -89 220h-2q-28 -70 -89 -220z" />
    <glyph glyph-name="aring.smcp" horiz-adv-x="554" 
d="M478 0l-67 166h-268l-67 -166h-70l227 548h88l227 -548h-70zM167 225h220l-20 50q-61 150 -89 220h-2q-28 -70 -89 -220zM277 610q-41 0 -69 28t-28 69q0 40 28.5 68.5t68.5 28.5t68 -28.5t28 -68.5t-28 -68.5t-68 -28.5zM277 766q-25 0 -42.5 -17t-17.5 -42t17.5 -42.5
t42.5 -17.5t42 17.5t17 42.5t-17 42t-42 17z" />
    <glyph glyph-name="atilde.smcp" horiz-adv-x="554" 
d="M478 0l-67 166h-268l-67 -166h-70l227 548h88l227 -548h-70zM167 225h220l-20 50q-61 150 -89 220h-2q-28 -70 -89 -220zM207 691q-41 0 -46 -53h-48q3 51 27.5 78t65.5 27q31 0 76.5 -27t65.5 -27q41 0 46 54h48q-3 -51 -27.5 -78t-65.5 -27q-31 0 -76.5 26.5
t-65.5 26.5z" />
    <glyph glyph-name="ae.smcp" horiz-adv-x="771" 
d="M474 59h244v-59h-302l-29 178h-226l-93 -178h-73l287 548h427v-59h-305l29 -178h260v-59h-250zM192 237h186l-41 252h-13z" />
    <glyph glyph-name="b.smcp" horiz-adv-x="537" 
d="M90 0v548h187q95 0 144 -38.5t49 -103.5q0 -90 -93 -124v-2q48 -13 76 -47t28 -80q0 -70 -50.5 -111.5t-140.5 -41.5h-200zM267 251h-112v-194h125q133 0 133 97t-146 97zM270 492h-115v-185h112q137 0 137 91q0 94 -134 94z" />
    <glyph glyph-name="c.smcp" horiz-adv-x="577" 
d="M293 561q103 0 165 -54t67 -142h-69q-6 63 -50.5 99t-112.5 36q-86 0 -135 -60t-49 -166t48.5 -166t134.5 -60q67 0 112 37.5t55 102.5h69q-9 -92 -72 -146.5t-164 -54.5q-117 0 -184 76.5t-67 210.5t67 210.5t185 76.5z" />
    <glyph glyph-name="cacute.smcp" horiz-adv-x="577" 
d="M293 561q103 0 165 -54t67 -142h-69q-6 63 -50.5 99t-112.5 36q-86 0 -135 -60t-49 -166t48.5 -166t134.5 -60q67 0 112 37.5t55 102.5h69q-9 -92 -72 -146.5t-164 -54.5q-117 0 -184 76.5t-67 210.5t67 210.5t185 76.5zM409 752l-115 -141h-59l90 141h84z" />
    <glyph glyph-name="ccaron.smcp" horiz-adv-x="577" 
d="M293 561q103 0 165 -54t67 -142h-69q-6 63 -50.5 99t-112.5 36q-86 0 -135 -60t-49 -166t48.5 -166t134.5 -60q67 0 112 37.5t55 102.5h69q-9 -92 -72 -146.5t-164 -54.5q-117 0 -184 76.5t-67 210.5t67 210.5t185 76.5zM442 752l-114 -141h-71l-114 141h69l81 -101
l80 101h69z" />
    <glyph glyph-name="ccedilla.smcp" horiz-adv-x="577" 
d="M459 188h69q-8 -84 -61 -136.5t-139 -62.5l-35 -52q10 2 23 2q33 0 55.5 -19.5t22.5 -52.5q0 -36 -27 -60.5t-78 -24.5q-53 0 -100 27l15 32q37 -20 78 -20q60 0 60 44q0 20 -15 31.5t-41 11.5q-16 0 -31 -5l-16 18l44 66q-113 3 -177.5 79t-64.5 208q0 134 67 210.5
t185 76.5q103 0 165 -54t67 -142h-69q-6 63 -50.5 99t-112.5 36q-86 0 -135 -60t-49 -166t48.5 -166t134.5 -60q67 0 112 37.5t55 102.5z" />
    <glyph glyph-name="ccircumflex.smcp" horiz-adv-x="577" 
d="M293 561q103 0 165 -54t67 -142h-69q-6 63 -50.5 99t-112.5 36q-86 0 -135 -60t-49 -166t48.5 -166t134.5 -60q67 0 112 37.5t55 102.5h69q-9 -92 -72 -146.5t-164 -54.5q-117 0 -184 76.5t-67 210.5t67 210.5t185 76.5zM442 611h-69l-80 101l-81 -101h-69l114 141h71z
" />
    <glyph glyph-name="cdotaccent.smcp" horiz-adv-x="577" 
d="M293 561q103 0 165 -54t67 -142h-69q-6 63 -50.5 99t-112.5 36q-86 0 -135 -60t-49 -166t48.5 -166t134.5 -60q67 0 112 37.5t55 102.5h69q-9 -92 -72 -146.5t-164 -54.5q-117 0 -184 76.5t-67 210.5t67 210.5t185 76.5zM323 752v-88h-62v88h62z" />
    <glyph glyph-name="d.smcp" horiz-adv-x="604" 
d="M90 0v548h173q144 0 222 -71t78 -203t-78 -203t-222 -71h-173zM263 489h-108v-430h108q111 0 171 55.5t60 159.5t-60 159.5t-171 55.5z" />
    <glyph glyph-name="eth.smcp" horiz-adv-x="605" 
d="M91 304v244h173q144 0 222 -71t78 -203t-78 -203t-222 -71h-173v251h-64v53h64zM156 251v-192h108q111 0 171.5 55.5t60.5 159.5t-60.5 159.5t-171.5 55.5h-108v-185h165v-53h-165z" />
    <glyph glyph-name="dcaron.smcp" horiz-adv-x="604" 
d="M90 0v548h173q144 0 222 -71t78 -203t-78 -203t-222 -71h-173zM263 489h-108v-430h108q111 0 171 55.5t60 159.5t-60 159.5t-171 55.5zM427 752l-114 -141h-71l-114 141h69l81 -101l80 101h69z" />
    <glyph glyph-name="dcroat.smcp" horiz-adv-x="605" 
d="M91 304v244h173q144 0 222 -71t78 -203t-78 -203t-222 -71h-173v251h-64v53h64zM156 251v-192h108q111 0 171.5 55.5t60.5 159.5t-60.5 159.5t-171.5 55.5h-108v-185h165v-53h-165z" />
    <glyph glyph-name="e.smcp" horiz-adv-x="520" 
d="M463 548v-59h-307v-178h290v-59h-290v-193h315v-59h-380v548h372z" />
    <glyph glyph-name="eacute.smcp" horiz-adv-x="520" 
d="M463 548v-59h-307v-178h290v-59h-290v-193h315v-59h-380v548h372zM393 752l-115 -141h-59l90 141h84z" />
    <glyph glyph-name="ebreve.smcp" horiz-adv-x="520" 
d="M463 548v-59h-307v-178h290v-59h-290v-193h315v-59h-380v548h372zM372 752h51q-6 -66 -44 -102.5t-102 -36.5t-102 36.5t-44 102.5h51q12 -89 95 -89q81 0 95 89z" />
    <glyph glyph-name="ecaron.smcp" horiz-adv-x="520" 
d="M463 548v-59h-307v-178h290v-59h-290v-193h315v-59h-380v548h372zM427 752l-114 -141h-71l-114 141h69l81 -101l80 101h69z" />
    <glyph glyph-name="ecircumflex.smcp" horiz-adv-x="520" 
d="M463 548v-59h-307v-178h290v-59h-290v-193h315v-59h-380v548h372zM427 611h-69l-80 101l-81 -101h-69l114 141h71z" />
    <glyph glyph-name="edieresis.smcp" horiz-adv-x="520" 
d="M463 548v-59h-307v-178h290v-59h-290v-193h315v-59h-380v548h372zM215 752v-88h-61v88h61zM399 752v-88h-61v88h61z" />
    <glyph glyph-name="edotaccent.smcp" horiz-adv-x="520" 
d="M463 548v-59h-307v-178h290v-59h-290v-193h315v-59h-380v548h372zM308 752v-88h-62v88h62z" />
    <glyph glyph-name="egrave.smcp" horiz-adv-x="520" 
d="M463 548v-59h-307v-178h290v-59h-290v-193h315v-59h-380v548h372zM161 752h84l90 -141h-59z" />
    <glyph glyph-name="emacron.smcp" horiz-adv-x="520" 
d="M463 548v-59h-307v-178h290v-59h-290v-193h315v-59h-380v548h372zM408 716v-52h-263v52h263z" />
    <glyph glyph-name="eogonek.smcp" horiz-adv-x="520" 
d="M434 -147q22 0 40 7v-44q-19 -8 -49 -8q-92 0 -92 75q0 32 18.5 58.5t59.5 58.5h-320v548h372v-59h-307v-178h290v-59h-290v-193h315v-59q-80 -60 -80 -110q0 -37 43 -37z" />
    <glyph glyph-name="f.smcp" horiz-adv-x="484" 
d="M453 548v-59h-298v-191h280v-59h-280v-239h-65v548h363z" />
    <glyph glyph-name="fi.smcp" horiz-adv-x="731" 
d="M453 548v-59h-298v-191h280v-59h-280v-239h-65v548h363zM640 548v-548h-65v548h65z" />
    <glyph glyph-name="fl.smcp" horiz-adv-x="954" 
d="M453 548v-59h-298v-191h280v-59h-280v-239h-65v548h363zM640 548v-489h304v-59h-369v548h65z" />
    <glyph glyph-name="g.smcp" horiz-adv-x="610" 
d="M300 561q98 0 161.5 -47t70.5 -127h-69q-11 55 -53.5 84t-109.5 29q-89 0 -140 -60.5t-51 -166.5q0 -104 49 -163.5t135 -59.5q81 0 128.5 44.5t47.5 139.5h-165v58h228v-292h-61v71h-2q-24 -38 -74 -59.5t-109 -21.5q-113 0 -179 75.5t-66 207.5q0 134 69 211t190 77z
" />
    <glyph glyph-name="gbreve.smcp" horiz-adv-x="610" 
d="M300 561q98 0 161.5 -47t70.5 -127h-69q-11 55 -53.5 84t-109.5 29q-89 0 -140 -60.5t-51 -166.5q0 -104 49 -163.5t135 -59.5q81 0 128.5 44.5t47.5 139.5h-165v58h228v-292h-61v71h-2q-24 -38 -74 -59.5t-109 -21.5q-113 0 -179 75.5t-66 207.5q0 134 69 211t190 77z
M390 752h51q-6 -66 -44 -102.5t-102 -36.5t-102 36.5t-44 102.5h51q12 -89 95 -89q81 0 95 89z" />
    <glyph glyph-name="gcircumflex.smcp" horiz-adv-x="610" 
d="M300 561q98 0 161.5 -47t70.5 -127h-69q-11 55 -53.5 84t-109.5 29q-89 0 -140 -60.5t-51 -166.5q0 -104 49 -163.5t135 -59.5q81 0 128.5 44.5t47.5 139.5h-165v58h228v-292h-61v71h-2q-24 -38 -74 -59.5t-109 -21.5q-113 0 -179 75.5t-66 207.5q0 134 69 211t190 77z
M444 611h-69l-80 101l-81 -101h-69l114 141h71z" />
    <glyph glyph-name="gcommaaccent.smcp" horiz-adv-x="610" 
d="M300 561q98 0 161.5 -47t70.5 -127h-69q-11 55 -53.5 84t-109.5 29q-89 0 -140 -60.5t-51 -166.5q0 -104 49 -163.5t135 -59.5q81 0 128.5 44.5t47.5 139.5h-165v58h228v-292h-61v71h-2q-24 -38 -74 -59.5t-109 -21.5q-113 0 -179 75.5t-66 207.5q0 134 69 211t190 77z
M334 -68v-81l-49 -102h-29l35 102h-28v81h71z" />
    <glyph glyph-name="gdotaccent.smcp" horiz-adv-x="610" 
d="M300 561q98 0 161.5 -47t70.5 -127h-69q-11 55 -53.5 84t-109.5 29q-89 0 -140 -60.5t-51 -166.5q0 -104 49 -163.5t135 -59.5q81 0 128.5 44.5t47.5 139.5h-165v58h228v-292h-61v71h-2q-24 -38 -74 -59.5t-109 -21.5q-113 0 -179 75.5t-66 207.5q0 134 69 211t190 77z
M325 752v-88h-62v88h62z" />
    <glyph glyph-name="h.smcp" horiz-adv-x="624" 
d="M533 548v-548h-65v255h-312v-255h-65v548h65v-234h312v234h65z" />
    <glyph glyph-name="hbar.smcp" horiz-adv-x="624" 
d="M582 489v-51h-49v-438h-65v255h-312v-255h-65v438h-49v51h49v59h65v-59h312v59h65v-59h49zM468 314v124h-312v-124h312z" />
    <glyph glyph-name="hcircumflex.smcp" horiz-adv-x="624" 
d="M533 548v-548h-65v255h-312v-255h-65v548h65v-234h312v234h65zM462 611h-69l-80 101l-81 -101h-69l114 141h71z" />
    <glyph glyph-name="i.smcp" horiz-adv-x="247" 
d="M156 548v-548h-65v548h65z" />
    <glyph glyph-name="iacute.smcp" horiz-adv-x="247" 
d="M156 548v-548h-65v548h65zM240 752l-115 -141h-59l90 141h84z" />
    <glyph glyph-name="ibreve.smcp" horiz-adv-x="247" 
d="M156 548v-548h-65v548h65zM202 752h51q-2 -66 -35.5 -102.5t-93.5 -36.5t-93.5 36.5t-35.5 102.5h50q6 -90 79 -90t78 90z" />
    <glyph glyph-name="icircumflex.smcp" horiz-adv-x="247" 
d="M156 548v-548h-65v548h65zM160 752l98 -140h-67l-68 101l-67 -101h-68l98 140h74z" />
    <glyph glyph-name="idieresis.smcp" horiz-adv-x="247" 
d="M156 548v-548h-65v548h65zM82 752v-88h-61v88h61zM226 752v-88h-61v88h61z" />
    <glyph glyph-name="idotaccent.smcp" horiz-adv-x="247" 
d="M156 548v-548h-65v548h65zM154 752v-88h-62v88h62z" />
    <glyph glyph-name="igrave.smcp" horiz-adv-x="247" 
d="M156 548v-548h-65v548h65zM7 752h84l90 -141h-59z" />
    <glyph glyph-name="ij.smcp" horiz-adv-x="541" 
d="M156 548v-548h-65v548h65zM390 548h65v-393q0 -79 -40.5 -118.5t-116.5 -39.5q-25 0 -38 4v59q18 -3 34 -3q96 0 96 100v391z" />
    <glyph glyph-name="imacron.smcp" horiz-adv-x="247" 
d="M156 548v-548h-65v548h65zM244 716v-51h-242v51h242z" />
    <glyph glyph-name="iogonek.smcp" horiz-adv-x="247" 
d="M119 -147q22 0 40 7v-44q-19 -8 -49 -8q-92 0 -92 75q0 32 18.5 58.5t59.5 58.5h-5v548h65v-548q-80 -60 -80 -110q0 -37 43 -37z" />
    <glyph glyph-name="itilde.smcp" horiz-adv-x="247" 
d="M156 548v-548h-65v548h65zM223 743h44q-2 -50 -25 -77.5t-61 -27.5q-27 0 -63.5 27t-53.5 27q-36 0 -41 -54h-44q2 51 24.5 78t60.5 27q28 0 64 -27.5t53 -27.5q37 0 42 55z" />
    <glyph glyph-name="j.smcp" horiz-adv-x="294" 
d="M143 548h65v-393q0 -79 -40.5 -118.5t-116.5 -39.5q-25 0 -38 4v59q18 -3 34 -3q96 0 96 100v391z" />
    <glyph glyph-name="jcircumflex.smcp" horiz-adv-x="294" 
d="M143 548h65v-393q0 -79 -40.5 -118.5t-116.5 -39.5q-25 0 -38 4v59q18 -3 34 -3q96 0 96 100v391zM211 752l98 -140h-67l-68 101l-67 -101h-68l98 140h74z" />
    <glyph glyph-name="k.smcp" horiz-adv-x="525" 
d="M495 548l-265 -262l290 -286h-91l-271 271h-2v-271h-65v548h65v-248h2l248 248h89z" />
    <glyph glyph-name="kcommaaccent.smcp" horiz-adv-x="525" 
d="M495 548l-265 -262l290 -286h-91l-271 271h-2v-271h-65v548h65v-248h2l248 248h89zM316 -68v-81l-49 -102h-29l35 102h-28v81h71z" />
    <glyph glyph-name="l.smcp" horiz-adv-x="470" 
d="M156 548v-489h304v-59h-369v548h65z" />
    <glyph glyph-name="lacute.smcp" horiz-adv-x="470" 
d="M156 548v-489h304v-59h-369v548h65zM274 752l-115 -141h-59l90 141h84z" />
    <glyph glyph-name="lcaron.smcp" horiz-adv-x="470" 
d="M308 548l-54 -176h-41l31 176h64zM156 548v-489h304v-59h-369v548h65z" />
    <glyph glyph-name="lcommaaccent.smcp" horiz-adv-x="470" 
d="M156 548v-489h304v-59h-369v548h65zM310 -68v-81l-49 -102h-29l35 102h-28v81h71z" />
    <glyph glyph-name="ldot.smcp" horiz-adv-x="530" 
d="M156 548v-489h304v-59h-369v548h65zM431 380v-92h-85v92h85z" />
    <glyph glyph-name="j.acute.loclNLD.smcp" horiz-adv-x="294" 
d="M143 548h65v-393q0 -79 -40.5 -118.5t-116.5 -39.5q-25 0 -38 4v59q18 -3 34 -3q96 0 96 100v391zM291 752l-115 -141h-59l90 141h84z" />
    <glyph glyph-name="lslash.smcp" horiz-adv-x="464" 
d="M149 59h305v-59h-370v244l-69 -39v60l69 39v244h65v-214l123 69v-60l-123 -69v-215z" />
    <glyph glyph-name="m.smcp" horiz-adv-x="778" 
d="M688 548v-548h-65v476h-2q-77 -189 -83 -204l-111 -272h-76l-194 476h-2q0 -34 0.5 -101t0.5 -101v-274h-65v548h105l108 -266l84 -211h2l192 477h106z" />
    <glyph glyph-name="n.smcp" horiz-adv-x="636" 
d="M545 548v-548h-99l-143 238q-35 60 -146 245h-2q0 -45 0.5 -133t0.5 -132v-218h-65v548h99l143 -238q21 -35 70.5 -118t75.5 -126h2v482h64z" />
    <glyph glyph-name="nacute.smcp" horiz-adv-x="636" 
d="M545 548v-548h-99l-143 238q-35 60 -146 245h-2q0 -45 0.5 -133t0.5 -132v-218h-65v548h99l143 -238q21 -35 70.5 -118t75.5 -126h2v482h64zM434 752l-115 -141h-59l90 141h84z" />
    <glyph glyph-name="ncaron.smcp" horiz-adv-x="636" 
d="M545 548v-548h-99l-143 238q-35 60 -146 245h-2q0 -45 0.5 -133t0.5 -132v-218h-65v548h99l143 -238q21 -35 70.5 -118t75.5 -126h2v482h64zM468 752l-114 -141h-71l-114 141h69l81 -101l80 101h69z" />
    <glyph glyph-name="ncommaaccent.smcp" horiz-adv-x="636" 
d="M545 548v-548h-99l-143 238q-35 60 -146 245h-2q0 -45 0.5 -133t0.5 -132v-218h-65v548h99l143 -238q21 -35 70.5 -118t75.5 -126h2v482h64zM354 -68v-81l-49 -102h-29l35 102h-28v81h71z" />
    <glyph glyph-name="eng.smcp" horiz-adv-x="635" 
d="M479 548h65v-579q0 -126 -117 -126q-14 0 -34 5v52q15 -3 26 -3q60 0 60 72v31l-167 250q-30 45 -83.5 125t-71.5 107h-2q0 -44 0.5 -131.5t0.5 -130.5v-220h-65v548h97l135 -201q29 -43 81.5 -121.5t73.5 -110.5h2q-1 88 -1 262v171z" />
    <glyph glyph-name="ntilde.smcp" horiz-adv-x="636" 
d="M545 548v-548h-99l-143 238q-35 60 -146 245h-2q0 -45 0.5 -133t0.5 -132v-218h-65v548h99l143 -238q21 -35 70.5 -118t75.5 -126h2v482h64zM435 743h48q-3 -51 -27.5 -78t-65.5 -27q-31 0 -76.5 26.5t-65.5 26.5q-41 0 -46 -53h-48q3 51 27.5 78t65.5 27q31 0 76.5 -27
t65.5 -27q41 0 46 54z" />
    <glyph glyph-name="o.smcp" horiz-adv-x="607" 
d="M304 561q120 0 191 -78t71 -209t-71 -209t-191 -78t-191.5 78t-71.5 209t71.5 209t191.5 78zM304 500q-89 0 -141.5 -61t-52.5 -165t52.5 -165t141.5 -61t141.5 61.5t52.5 164.5t-52.5 164.5t-141.5 61.5z" />
    <glyph glyph-name="oacute.smcp" horiz-adv-x="607" 
d="M304 561q120 0 191 -78t71 -209t-71 -209t-191 -78t-191.5 78t-71.5 209t71.5 209t191.5 78zM304 500q-89 0 -141.5 -61t-52.5 -165t52.5 -165t141.5 -61t141.5 61.5t52.5 164.5t-52.5 164.5t-141.5 61.5zM420 752l-115 -141h-59l90 141h84z" />
    <glyph glyph-name="obreve.smcp" horiz-adv-x="607" 
d="M304 561q120 0 191 -78t71 -209t-71 -209t-191 -78t-191.5 78t-71.5 209t71.5 209t191.5 78zM304 500q-89 0 -141.5 -61t-52.5 -165t52.5 -165t141.5 -61t141.5 61.5t52.5 164.5t-52.5 164.5t-141.5 61.5zM399 752h51q-6 -66 -44 -102.5t-102 -36.5t-102 36.5t-44 102.5
h51q12 -89 95 -89q81 0 95 89z" />
    <glyph glyph-name="ocircumflex.smcp" horiz-adv-x="607" 
d="M304 561q120 0 191 -78t71 -209t-71 -209t-191 -78t-191.5 78t-71.5 209t71.5 209t191.5 78zM304 500q-89 0 -141.5 -61t-52.5 -165t52.5 -165t141.5 -61t141.5 61.5t52.5 164.5t-52.5 164.5t-141.5 61.5zM453 611h-69l-80 101l-81 -101h-69l114 141h71z" />
    <glyph glyph-name="odieresis.smcp" horiz-adv-x="607" 
d="M304 561q120 0 191 -78t71 -209t-71 -209t-191 -78t-191.5 78t-71.5 209t71.5 209t191.5 78zM304 500q-89 0 -141.5 -61t-52.5 -165t52.5 -165t141.5 -61t141.5 61.5t52.5 164.5t-52.5 164.5t-141.5 61.5zM242 752v-88h-61v88h61zM426 752v-88h-61v88h61z" />
    <glyph glyph-name="ograve.smcp" horiz-adv-x="607" 
d="M304 561q120 0 191 -78t71 -209t-71 -209t-191 -78t-191.5 78t-71.5 209t71.5 209t191.5 78zM304 500q-89 0 -141.5 -61t-52.5 -165t52.5 -165t141.5 -61t141.5 61.5t52.5 164.5t-52.5 164.5t-141.5 61.5zM188 752h84l90 -141h-59z" />
    <glyph glyph-name="ohungarumlaut.smcp" horiz-adv-x="607" 
d="M304 561q120 0 191 -78t71 -209t-71 -209t-191 -78t-191.5 78t-71.5 209t71.5 209t191.5 78zM304 500q-89 0 -141.5 -61t-52.5 -165t52.5 -165t141.5 -61t141.5 61.5t52.5 164.5t-52.5 164.5t-141.5 61.5zM372 752l-134 -141h-56l110 141h80zM517 752l-134 -141h-56
l110 141h80z" />
    <glyph glyph-name="omacron.smcp" horiz-adv-x="607" 
d="M304 561q120 0 191 -78t71 -209t-71 -209t-191 -78t-191.5 78t-71.5 209t71.5 209t191.5 78zM304 500q-89 0 -141.5 -61t-52.5 -165t52.5 -165t141.5 -61t141.5 61.5t52.5 164.5t-52.5 164.5t-141.5 61.5zM435 716v-52h-263v52h263z" />
    <glyph glyph-name="oslash.smcp" horiz-adv-x="607" 
d="M509 575l46 -34l-53 -66q64 -78 64 -201q0 -131 -71 -209t-191 -78q-92 0 -156 46l-49 -60l-45 35l52 64q-65 77 -65 202q0 131 71.5 209t191.5 78q91 0 157 -47zM304 501q-89 0 -142 -61.5t-53 -165.5q0 -90 40 -148l271 338q-48 37 -116 37zM304 47q89 0 141.5 61.5
t52.5 165.5q0 88 -39 147l-271 -337q48 -37 116 -37z" />
    <glyph glyph-name="otilde.smcp" horiz-adv-x="607" 
d="M304 561q120 0 191 -78t71 -209t-71 -209t-191 -78t-191.5 78t-71.5 209t71.5 209t191.5 78zM304 500q-89 0 -141.5 -61t-52.5 -165t52.5 -165t141.5 -61t141.5 61.5t52.5 164.5t-52.5 164.5t-141.5 61.5zM420 743h48q-3 -51 -27.5 -78t-65.5 -27q-31 0 -76.5 26.5
t-65.5 26.5q-41 0 -46 -53h-48q3 51 27.5 78t65.5 27q31 0 76.5 -27t65.5 -27q41 0 46 54z" />
    <glyph glyph-name="oe.smcp" horiz-adv-x="831" 
d="M769 548v-59h-307v-178h291v-59h-291v-193h316v-59h-440q-142 0 -219.5 71.5t-77.5 202.5q0 132 77.5 203t219.5 71h431zM397 59v430h-58q-109 0 -169 -56t-60 -159t60 -159t169 -56h58z" />
    <glyph glyph-name="p.smcp" horiz-adv-x="516" 
d="M91 0v548h191q99 0 153 -44t54 -122q0 -77 -54 -121t-153 -44h-126v-217h-65zM281 489h-125v-213h125q140 0 140 106q0 107 -140 107z" />
    <glyph glyph-name="thorn.smcp" horiz-adv-x="516" 
d="M156 548v-103h126q100 0 153.5 -43.5t53.5 -121.5t-54 -122t-153 -44h-126v-114h-65v548h65zM281 387h-125v-214h125q140 0 140 107q0 52 -36 79.5t-104 27.5z" />
    <glyph glyph-name="q.smcp" horiz-adv-x="607" 
d="M566 274q0 -129 -68 -206l62 -63l-45 -44l-64 66q-63 -40 -147 -40q-120 0 -191.5 77.5t-71.5 209.5q0 131 71.5 209t191.5 78t191 -78t71 -209zM110 274q0 -104 52.5 -165.5t141.5 -61.5q57 0 101 26l-73 74l45 44l74 -76q47 61 47 159q0 104 -52.5 165t-141.5 61
t-141.5 -61t-52.5 -165z" />
    <glyph glyph-name="r.smcp" horiz-adv-x="534" 
d="M91 0v548h177q204 0 204 -149q0 -51 -30.5 -89t-80.5 -48v-2q32 -9 49 -30t36 -72l61 -158h-70l-54 149q-18 49 -43 67t-72 18h-112v-234h-65zM267 490h-111v-198h113q68 0 102 29t34 77q0 92 -138 92z" />
    <glyph glyph-name="racute.smcp" horiz-adv-x="534" 
d="M91 0v548h177q204 0 204 -149q0 -51 -30.5 -89t-80.5 -48v-2q32 -9 49 -30t36 -72l61 -158h-70l-54 149q-18 49 -43 67t-72 18h-112v-234h-65zM267 490h-111v-198h113q68 0 102 29t34 77q0 92 -138 92zM385 752l-115 -141h-59l90 141h84z" />
    <glyph glyph-name="rcaron.smcp" horiz-adv-x="534" 
d="M91 0v548h177q204 0 204 -149q0 -51 -30.5 -89t-80.5 -48v-2q32 -9 49 -30t36 -72l61 -158h-70l-54 149q-18 49 -43 67t-72 18h-112v-234h-65zM267 490h-111v-198h113q68 0 102 29t34 77q0 92 -138 92zM418 752l-114 -141h-71l-114 141h69l81 -101l80 101h69z" />
    <glyph glyph-name="rcommaaccent.smcp" horiz-adv-x="534" 
d="M91 0v548h177q204 0 204 -149q0 -51 -30.5 -89t-80.5 -48v-2q32 -9 49 -30t36 -72l61 -158h-70l-54 149q-18 49 -43 67t-72 18h-112v-234h-65zM267 490h-111v-198h113q68 0 102 29t34 77q0 92 -138 92zM324 -68v-81l-49 -102h-29l35 102h-28v81h71z" />
    <glyph glyph-name="s.smcp" horiz-adv-x="517" 
d="M241 561q207 0 207 -181h-65q0 122 -142 122q-58 0 -89.5 -24t-31.5 -66t31.5 -60.5t110.5 -36.5q38 -9 62.5 -16t53 -20.5t44.5 -29t27 -40.5t11 -57q0 -76 -55.5 -120.5t-149.5 -44.5q-101 0 -157 50.5t-56 144.5h65q0 -136 148 -136q68 0 103.5 26.5t35.5 76.5
q0 41 -34 61.5t-114 38.5q-51 12 -78.5 21t-57.5 26.5t-43 45t-13 67.5q0 67 50 109.5t137 42.5z" />
    <glyph glyph-name="sacute.smcp" horiz-adv-x="517" 
d="M241 561q207 0 207 -181h-65q0 122 -142 122q-58 0 -89.5 -24t-31.5 -66t31.5 -60.5t110.5 -36.5q38 -9 62.5 -16t53 -20.5t44.5 -29t27 -40.5t11 -57q0 -76 -55.5 -120.5t-149.5 -44.5q-101 0 -157 50.5t-56 144.5h65q0 -136 148 -136q68 0 103.5 26.5t35.5 76.5
q0 41 -34 61.5t-114 38.5q-51 12 -78.5 21t-57.5 26.5t-43 45t-13 67.5q0 67 50 109.5t137 42.5zM357 752l-115 -141h-59l90 141h84z" />
    <glyph glyph-name="scaron.smcp" horiz-adv-x="517" 
d="M241 561q207 0 207 -181h-65q0 122 -142 122q-58 0 -89.5 -24t-31.5 -66t31.5 -60.5t110.5 -36.5q38 -9 62.5 -16t53 -20.5t44.5 -29t27 -40.5t11 -57q0 -76 -55.5 -120.5t-149.5 -44.5q-101 0 -157 50.5t-56 144.5h65q0 -136 148 -136q68 0 103.5 26.5t35.5 76.5
q0 41 -34 61.5t-114 38.5q-51 12 -78.5 21t-57.5 26.5t-43 45t-13 67.5q0 67 50 109.5t137 42.5zM391 752l-114 -141h-71l-114 141h69l81 -101l80 101h69z" />
    <glyph glyph-name="scedilla.smcp" horiz-adv-x="517" 
d="M460 152q0 -68 -45.5 -111.5t-123.5 -51.5l-35 -52q10 2 23 2q33 0 55.5 -19.5t22.5 -52.5q0 -36 -27 -60.5t-78 -24.5q-53 0 -100 27l15 32q37 -20 78 -20q60 0 60 44q0 20 -15 31.5t-41 11.5q-16 0 -31 -5l-16 18l44 66q-96 2 -150 52.5t-54 142.5h65q0 -136 148 -136
q68 0 103.5 26.5t35.5 76.5q0 41 -34 61.5t-114 38.5q-51 12 -78.5 21t-57.5 26.5t-43 45t-13 67.5q0 67 50 109.5t137 42.5q207 0 207 -181h-65q0 122 -142 122q-58 0 -89.5 -24t-31.5 -66t31.5 -60.5t110.5 -36.5q38 -9 62.5 -16t53 -20.5t44.5 -29t27 -40.5t11 -57z" />
    <glyph glyph-name="scircumflex.smcp" horiz-adv-x="517" 
d="M241 561q207 0 207 -181h-65q0 122 -142 122q-58 0 -89.5 -24t-31.5 -66t31.5 -60.5t110.5 -36.5q38 -9 62.5 -16t53 -20.5t44.5 -29t27 -40.5t11 -57q0 -76 -55.5 -120.5t-149.5 -44.5q-101 0 -157 50.5t-56 144.5h65q0 -136 148 -136q68 0 103.5 26.5t35.5 76.5
q0 41 -34 61.5t-114 38.5q-51 12 -78.5 21t-57.5 26.5t-43 45t-13 67.5q0 67 50 109.5t137 42.5zM391 611h-69l-80 101l-81 -101h-69l114 141h71z" />
    <glyph glyph-name="scommaaccent.smcp" horiz-adv-x="517" 
d="M241 561q207 0 207 -181h-65q0 122 -142 122q-58 0 -89.5 -24t-31.5 -66t31.5 -60.5t110.5 -36.5q38 -9 62.5 -16t53 -20.5t44.5 -29t27 -40.5t11 -57q0 -76 -55.5 -120.5t-149.5 -44.5q-101 0 -157 50.5t-56 144.5h65q0 -136 148 -136q68 0 103.5 26.5t35.5 76.5
q0 41 -34 61.5t-114 38.5q-51 12 -78.5 21t-57.5 26.5t-43 45t-13 67.5q0 67 50 109.5t137 42.5zM291 -68v-81l-49 -102h-29l35 102h-28v81h71z" />
    <glyph glyph-name="germandbls.smcp" horiz-adv-x="653" 
d="M550 460l-133 -134q180 -35 180 -175q0 -79 -50.5 -121.5t-137.5 -42.5q-84 0 -128.5 39.5t-44.5 114.5h66q0 -95 108 -95q56 0 88 27.5t32 77.5q0 60 -47.5 89.5t-143.5 38.5v50l124 124q-52 49 -134 49q-87 0 -132.5 -44.5t-45.5 -131.5v-326h-65v326q0 111 64 173
t179 62q137 0 221 -101z" />
    <glyph glyph-name="t.smcp" horiz-adv-x="492" 
d="M482 548v-59h-204v-489h-65v489h-203v59h472z" />
    <glyph glyph-name="tbar.smcp" horiz-adv-x="492" 
d="M482 489h-204v-175h114v-53h-114v-261h-65v261h-115v53h115v175h-203v59h472v-59z" />
    <glyph glyph-name="tcaron.smcp" horiz-adv-x="492" 
d="M482 548v-59h-204v-489h-65v489h-203v59h472zM395 752l-114 -141h-71l-114 141h69l81 -101l80 101h69z" />
    </font>
</defs>
</svg>
