<svg id="Layer_5" enable-background="new 0 0 64 64" height="512" viewBox="0 0 64 64" width="512" xmlns="http://www.w3.org/2000/svg"><g><g><g><path d="m32 10-3 4h-27v28c0 1.1.9 2 2 2h54v-34z" fill="#ffeaa7"/></g><g><path d="m6 18h26v14h-26z" fill="#f0d0b4"/></g><g><path d="m62 48.3v.7h-5.93l-.05.06c-1.71-1.46-3.71-2.59-5.91-3.28l1.21-2.42c.38-.77.73-1.56 1.03-2.36.36-.94.66-1.89.9-2.87 1.77.27 3.4.99 4.75 2.03 2.43 1.89 4 4.83 4 8.14z" fill="#ff826e"/></g><g><path d="m34.05 49c1.69-1.43 3.67-2.54 5.84-3.22 1.61-.51 3.33-.78 5.11-.78s3.5.27 5.11.78c2.2.69 4.2 1.82 5.91 3.28 3.66 3.12 5.98 7.76 5.98 12.94h-4c0-1.76-.35-3.44-.99-4.97-.66-1.59-1.62-3.02-2.82-4.22s-2.63-2.16-4.22-2.82c-1.53-.64-3.21-.99-4.97-.99s-3.44.35-4.97.99c-1.59.66-3.02 1.62-4.22 2.82s-2.16 2.63-2.82 4.22c-.64 1.53-.99 3.21-.99 4.97h-4c0-5.22 2.35-9.88 6.05-13z" fill="#aab2bd"/></g><g><path d="m58 4v6h-26l-3 4h-27v-10c0-1.1.9-2 2-2h52c1.1 0 2 .9 2 2z" fill="#b4dd7f"/></g><g><path d="m53.25 38.13c-.24.98-.54 1.93-.9 2.87h-.01-14.68-.01c-.36-.94-.66-1.89-.9-2.87-.5-1.99-.75-4.05-.75-6.12 0-3.83.86-7.59 2.51-11.01h.01 12.96.01c1.65 3.42 2.51 7.18 2.51 11.01 0 2.07-.25 4.13-.75 6.12z" fill="#e6e9ed"/></g><g><path d="m52.34 41h.01c-.3.8-.65 1.59-1.03 2.36l-1.21 2.42c-1.61-.51-3.33-.78-5.11-.78s-3.5.27-5.11.78l-1.21-2.42c-.38-.77-.73-1.56-1.03-2.36h.01z" fill="#ccd1d9"/></g><g><path d="m51.49 21h-.01-12.96-.01c.59-1.23 1.29-2.42 2.08-3.56l1.26-1.8c.72-1.03 1.9-1.64 3.15-1.64s2.43.61 3.15 1.64l1.26 1.8c.79 1.14 1.49 2.33 2.08 3.56z" fill="#ff826e"/></g><g><path d="m58 62c0-7.18-5.82-13-13-13s-13 5.82-13 13z" fill="#69d6f4"/></g><g><path d="m49 62h-8c0-2.21 1.79-4 4-4s4 1.79 4 4z" fill="#fcd770"/></g><g><circle cx="45" cy="30" fill="#69d6f4" r="5"/></g><g><path d="m38.68 43.36 1.21 2.42c-2.17.68-4.15 1.79-5.84 3.22h-6.05v-.7c0-1.54.34-2.99.94-4.3 1.42-3.08 4.33-5.34 7.81-5.87.24.98.54 1.93.9 2.87.3.8.65 1.59 1.03 2.36z" fill="#ff826e"/></g><g><path d="m22 6h4v4h-4z" fill="#e6e9ed"/></g><g><path d="m14 6h4v4h-4z" fill="#e6e9ed"/></g><g><path d="m6 6h4v4h-4z" fill="#e6e9ed"/></g></g><g><path d="m45 24c-3.309 0-6 2.691-6 6s2.691 6 6 6 6-2.691 6-6-2.691-6-6-6zm0 10c-2.206 0-4-1.794-4-4s1.794-4 4-4 4 1.794 4 4-1.794 4-4 4z"/><path d="m11 5h-6v6h6zm-2 4h-2v-2h2z"/><path d="m19 5h-6v6h6zm-2 4h-2v-2h2z"/><path d="m27 5h-6v6h6zm-2 4h-2v-2h2z"/><path d="m33 17h-28v16h28zm-2 14h-24v-12h24z"/><path d="m63 48.299c0-3.384-1.549-6.486-4-8.578v-35.721c0-1.654-1.346-3-3-3h-52c-1.654 0-3 1.346-3 3v38c0 1.654 1.346 3 3 3h23.511c-.327 1.05-.511 2.157-.511 3.299v1.701h4.622c-2.863 3.189-4.622 7.388-4.622 12v1h36v-1c0-4.612-1.759-8.811-4.622-12h4.622zm-59-45.299h52c.551 0 1 .449 1 1v5h-25.5l-3 4h-25.5v-9c0-.551.449-1 1-1zm0 40c-.551 0-1-.448-1-1v-27h26.5l3-4h24.5v27.353c-.802-.43-1.658-.772-2.563-.998.365-1.761.563-3.555.563-5.35 0-5.443-1.65-10.677-4.771-15.136l-1.262-1.803c-.905-1.294-2.388-2.066-3.967-2.066s-3.062.772-3.966 2.065l-1.262 1.803c-3.122 4.46-4.772 9.694-4.772 15.137 0 1.795.198 3.59.563 5.349-3.134.785-5.724 2.893-7.208 5.646zm45.576 1.612c-1.464-.386-2.992-.612-4.576-.612s-3.112.226-4.576.612l-.848-1.697c-.15-.301-.287-.608-.424-.915h11.697c-.138.307-.274.614-.424.915zm2.066-4.612h-13.284c-.889-2.567-1.358-5.281-1.358-7.995 0-3.488.749-6.877 2.161-10.005h11.678c1.411 3.128 2.161 6.517 2.161 10.005 0 2.714-.469 5.428-1.358 7.995zm-11.47-20c.383-.676.788-1.342 1.238-1.985l1.262-1.803c.531-.759 1.401-1.212 2.328-1.212s1.797.453 2.328 1.212l1.262 1.804c.45.643.855 1.309 1.238 1.984zm-4.134 19.299c.446 1.553 1.027 3.067 1.749 4.511l.712 1.424c-1.742.678-3.356 1.61-4.787 2.766h-4.706c.134-4.131 3.059-7.703 7.032-8.701zm-2.466 19.05 1.807.748.765-1.848-1.799-.745c.417-.805.919-1.558 1.501-2.245l1.376 1.376 1.414-1.414-1.376-1.376c.686-.581 1.439-1.084 2.245-1.501l.745 1.799 1.848-.766-.748-1.806c.847-.271 1.735-.445 2.651-.521v1.95h2v-1.949c.916.076 1.804.25 2.651.521l-.748 1.806 1.848.766.745-1.799c.805.417 1.558.919 2.245 1.501l-1.376 1.376 1.414 1.414 1.376-1.376c.581.686 1.084 1.439 1.501 2.245l-1.799.745.765 1.848 1.807-.748c.271.847.445 1.735.522 2.651h-7.05c-.402-1.957-1.946-3.501-3.902-3.9v-3.101h-2v3.101c-1.956.399-3.5 1.943-3.899 3.899h-7.05c.076-.916.25-1.805.521-2.651zm11.428.651c1.302 0 2.402.839 2.816 2h-5.631c.413-1.161 1.513-2 2.815-2zm13.949 2c-.516-7.253-6.567-13-13.949-13s-13.433 5.747-13.949 13h-2.02c.518-8.358 7.483-15 15.969-15s15.451 6.642 15.969 15zm-2.66-13c-1.431-1.156-3.045-2.088-4.787-2.766l.712-1.424c.722-1.444 1.303-2.958 1.749-4.511 3.972.998 6.898 4.571 7.033 8.701z"/><path d="m5 35h2v2h-2z"/><path d="m9 35h18v2h-18z"/><path d="m5 39h22v2h-22z"/></g></g></svg>